<svg width="313" height="313" viewBox="0 0 313 313" fill="none" xmlns="http://www.w3.org/2000/svg">
<circle r="127.678" transform="matrix(-0.258819 0.965926 0.965926 0.258819 156.374 156.373)" fill="url(#paint0_linear_527_458)" fill-opacity="0.25"/>
<g clip-path="url(#clip0_527_458)">
<path d="M178.092 154.758L178.096 154.832C178.384 159.881 175.556 164.611 170.889 166.879L170.841 166.902C169.196 167.689 167.847 168.987 166.996 170.6L166.977 170.636C164.625 175.113 159.761 177.828 154.576 177.556L154.497 177.551C152.617 177.446 150.75 177.931 149.159 178.939C144.768 181.686 139.195 181.686 134.804 178.939C133.213 177.931 131.346 177.446 129.466 177.551L129.387 177.556C124.21 177.83 119.34 175.113 116.983 170.628L116.971 170.604C116.117 168.986 114.765 167.686 113.115 166.898L113.076 166.879C108.409 164.61 105.58 159.881 105.869 154.831L105.873 154.761C105.969 152.982 105.476 151.222 104.467 149.753C101.565 145.52 101.565 139.938 104.466 135.704C105.474 134.236 105.969 132.477 105.873 130.698L105.869 130.624C105.58 125.574 108.409 120.845 113.081 118.575L113.123 118.554C114.765 117.769 116.111 116.478 116.963 114.868L116.987 114.821C119.34 110.343 124.21 107.629 129.387 107.901L129.467 107.905C131.346 108.01 133.213 107.525 134.803 106.517H134.805C139.196 103.77 144.769 103.77 149.16 106.517C150.751 107.524 152.618 108.009 154.498 107.904L154.577 107.899C159.755 107.625 164.624 110.342 166.976 114.818L166.994 114.851C167.846 116.468 169.196 117.767 170.843 118.555L170.888 118.576C175.555 120.844 178.384 125.574 178.095 130.624L178.091 130.694C177.995 132.473 178.489 134.233 179.497 135.701C182.399 139.935 182.399 145.518 179.497 149.751C178.49 151.219 177.995 152.979 178.092 154.758V154.758ZM175.911 138.175C174.355 135.909 173.593 133.193 173.742 130.448L173.746 130.374C173.899 127.028 172.021 123.92 168.988 122.498L168.951 122.48C166.463 121.288 164.426 119.327 163.141 116.887L163.12 116.847C161.558 113.871 158.285 112.067 154.809 112.252L154.732 112.255C151.951 112.411 149.191 111.694 146.838 110.203C143.867 108.345 140.098 108.345 137.127 110.203C134.774 111.692 132.014 112.41 129.234 112.256L129.157 112.252C125.664 112.069 122.408 113.871 120.849 116.838L120.821 116.892C119.536 119.329 117.501 121.287 115.016 122.478L114.98 122.496C111.9 123.993 110.03 127.085 110.218 130.375L110.223 130.453C110.372 133.197 109.608 135.912 108.052 138.178C106.171 140.921 106.172 144.537 108.054 147.279C109.609 149.546 110.372 152.262 110.223 155.007L110.218 155.08C110.03 158.37 111.9 161.463 114.981 162.961L115.013 162.976C117.503 164.17 119.542 166.133 120.828 168.577L120.844 168.609C122.408 171.585 125.675 173.39 129.156 173.204L129.232 173.2C132.013 173.045 134.774 173.763 137.128 175.253C140.098 177.11 143.867 177.11 146.837 175.253C148.977 173.897 151.46 173.178 153.993 173.18C154.239 173.18 154.486 173.186 154.732 173.2L154.809 173.203C158.239 173.421 161.484 171.626 163.123 168.604L163.146 168.563C164.428 166.127 166.462 164.17 168.946 162.98L168.986 162.959C172.067 161.462 173.937 158.369 173.748 155.08L173.744 155.002C173.596 152.258 174.36 149.542 175.915 147.277C177.794 144.534 177.793 140.918 175.911 138.177V138.175Z" fill="#F08200"/>
<path d="M156.037 165.255C155.017 165.892 153.674 165.581 153.037 164.561L127.232 123.222C126.811 122.561 126.776 121.725 127.141 121.033C127.507 120.339 128.218 119.897 129.001 119.872C129.784 119.848 130.52 120.245 130.928 120.915L156.732 162.254C157.369 163.275 157.058 164.618 156.037 165.255V165.255Z" fill="#F08200"/>
<path d="M153.725 142.842C148.421 142.842 144.105 137.92 144.105 131.872C144.105 125.823 148.421 120.902 153.725 120.902C159.03 120.902 163.345 125.823 163.345 131.872C163.345 137.92 159.03 142.842 153.725 142.842ZM153.725 125.259C150.823 125.259 148.461 128.225 148.461 131.872C148.461 135.518 150.823 138.485 153.725 138.485C156.627 138.485 158.988 135.517 158.988 131.872C158.988 128.226 156.627 125.259 153.725 125.259Z" fill="#F08200"/>
<path d="M139.859 153.598C139.859 159.647 135.544 164.567 130.24 164.567C124.936 164.567 120.619 159.646 120.619 153.598C120.619 147.551 124.935 142.629 130.239 142.629C135.544 142.629 139.859 147.548 139.859 153.598V153.598ZM124.976 153.598C124.976 157.244 127.337 160.211 130.24 160.211C133.141 160.211 135.503 157.244 135.503 153.598C135.503 149.952 133.141 146.986 130.24 146.986C127.337 146.986 124.976 149.95 124.976 153.598Z" fill="#F08200"/>
<path d="M96.0299 189.768C98.9145 184.649 105.311 182.699 110.56 185.339L127.624 193.401C129.98 189.02 134.499 186.232 139.473 186.091L155.225 185.657C157.719 185.586 160.167 184.953 162.384 183.809L163.987 182.978C172.194 178.7 181.976 178.711 190.175 183.006L190.075 179.374C190.042 178.171 190.99 177.169 192.193 177.136L209.466 176.661C210.669 176.628 211.67 177.576 211.703 178.779L212.746 216.685C212.779 217.888 211.832 218.89 210.629 218.923L193.355 219.399H193.295C192.115 219.398 191.15 218.458 191.117 217.28L191.068 215.466L186.581 213.064C184.82 212.116 182.759 211.891 180.835 212.435L154.039 219.956C153.992 219.97 153.946 219.981 153.898 219.991C151.961 220.396 149.987 220.6 148.007 220.598C143.817 220.601 139.675 219.698 135.866 217.949C135.772 217.906 135.682 217.857 135.596 217.802L96.7436 192.67C95.7746 192.044 95.4619 190.771 96.0299 189.768V189.768ZM208.331 214.627L207.408 181.077L194.489 181.432L195.413 214.984L208.331 214.627ZM137.829 214.056C142.562 216.192 147.847 216.781 152.933 215.741L179.658 208.241C182.665 207.39 185.885 207.743 188.637 209.223L190.93 210.45L190.315 188.143C183.05 183.31 173.73 182.813 165.991 186.845L164.388 187.676C161.587 189.122 158.496 189.921 155.344 190.012L139.592 190.446C135.167 190.572 131.409 193.723 130.512 198.058L153.975 197.412C155.178 197.379 156.179 198.327 156.212 199.53C156.245 200.733 155.297 201.735 154.095 201.768L128.2 202.481H128.139C126.96 202.48 125.996 201.54 125.963 200.362C125.936 199.415 126.007 198.468 126.173 197.536L108.674 189.266L108.623 189.242C106.141 187.984 103.138 188.405 101.097 190.295L137.829 214.056Z" fill="#F08200"/>
</g>
<defs>
<linearGradient id="paint0_linear_527_458" x1="-7.55996" y1="123.555" x2="122.768" y2="123.555" gradientUnits="userSpaceOnUse">
<stop stop-color="#F58220" stop-opacity="0.8"/>
<stop offset="1" stop-color="#F58220" stop-opacity="0"/>
</linearGradient>
<clipPath id="clip0_527_458">
<rect width="117" height="117" fill="white" transform="matrix(-1 0 0 1 212.747 104)"/>
</clipPath>
</defs>
</svg>
