<svg width="160" height="160" viewBox="0 0 160 160" fill="none" xmlns="http://www.w3.org/2000/svg">
<circle cx="79.6113" cy="79.6118" r="65.0027" transform="rotate(75 79.6113 79.6118)" fill="url(#paint0_linear_527_462)" fill-opacity="0.25"/>
<path d="M99.9834 51.875H95.6865V50.1562C95.6865 49.2446 95.3244 48.3702 94.6797 47.7256C94.035 47.0809 93.1607 46.7188 92.249 46.7188C91.3373 46.7188 90.463 47.0809 89.8183 47.7256C89.1737 48.3702 88.8115 49.2446 88.8115 50.1562V51.875H81.9365V50.1562C81.9365 49.2446 81.5744 48.3702 80.9297 47.7256C80.285 47.0809 79.4107 46.7188 78.499 46.7188C77.5873 46.7188 76.713 47.0809 76.0683 47.7256C75.4237 48.3702 75.0615 49.2446 75.0615 50.1562V51.875H68.1865V50.1562C68.1865 49.2446 67.8244 48.3702 67.1797 47.7256C66.535 47.0809 65.6607 46.7188 64.749 46.7188C63.8373 46.7188 62.963 47.0809 62.3183 47.7256C61.6737 48.3702 61.3115 49.2446 61.3115 50.1562V51.875H57.0146C55.875 51.875 54.7821 52.3277 53.9763 53.1335C53.1705 53.9393 52.7178 55.0323 52.7178 56.1719V90.5469C52.7178 91.6865 53.1705 92.7794 53.9763 93.5852C54.7821 94.391 55.875 94.8438 57.0146 94.8438H81.0771C81.3051 94.8438 81.5237 94.7532 81.6848 94.592C81.846 94.4309 81.9365 94.2123 81.9365 93.9844C81.9365 93.7565 81.846 93.5379 81.6848 93.3767C81.5237 93.2155 81.3051 93.125 81.0771 93.125H57.0146C56.3315 93.123 55.6769 92.8507 55.1939 92.3676C54.7108 91.8846 54.4386 91.23 54.4365 90.5469V63.9062H102.562V78.5156C102.562 78.7435 102.652 78.9621 102.813 79.1233C102.974 79.2845 103.193 79.375 103.421 79.375C103.649 79.375 103.867 79.2845 104.029 79.1233C104.19 78.9621 104.28 78.7435 104.28 78.5156V56.1719C104.28 55.0323 103.828 53.9393 103.022 53.1335C102.216 52.3277 101.123 51.875 99.9834 51.875ZM90.5303 50.1562C90.5303 49.7004 90.7114 49.2632 91.0337 48.9409C91.356 48.6186 91.7932 48.4375 92.249 48.4375C92.7049 48.4375 93.142 48.6186 93.4644 48.9409C93.7867 49.2632 93.9678 49.7004 93.9678 50.1562V55.3125C93.9678 55.7683 93.7867 56.2055 93.4644 56.5278C93.142 56.8502 92.7049 57.0312 92.249 57.0312C91.7932 57.0312 91.356 56.8502 91.0337 56.5278C90.7114 56.2055 90.5303 55.7683 90.5303 55.3125V50.1562ZM76.7803 50.1562C76.7803 49.7004 76.9614 49.2632 77.2837 48.9409C77.606 48.6186 78.0432 48.4375 78.499 48.4375C78.9549 48.4375 79.392 48.6186 79.7144 48.9409C80.0367 49.2632 80.2178 49.7004 80.2178 50.1562V55.3125C80.2178 55.7683 80.0367 56.2055 79.7144 56.5278C79.392 56.8502 78.9549 57.0312 78.499 57.0312C78.0432 57.0312 77.606 56.8502 77.2837 56.5278C76.9614 56.2055 76.7803 55.7683 76.7803 55.3125V50.1562ZM63.0303 50.1562C63.0303 49.7004 63.2114 49.2632 63.5337 48.9409C63.856 48.6186 64.2932 48.4375 64.749 48.4375C65.2049 48.4375 65.642 48.6186 65.9644 48.9409C66.2867 49.2632 66.4678 49.7004 66.4678 50.1562V55.3125C66.4678 55.7683 66.2867 56.2055 65.9644 56.5278C65.642 56.8502 65.2049 57.0312 64.749 57.0312C64.2932 57.0312 63.856 56.8502 63.5337 56.5278C63.2114 56.2055 63.0303 55.7683 63.0303 55.3125V50.1562ZM102.562 62.1875H54.4365V56.1719C54.4386 55.4887 54.7108 54.8342 55.1939 54.3511C55.6769 53.8681 56.3315 53.5958 57.0146 53.5938H61.3115V55.3125C61.3115 56.2242 61.6737 57.0985 62.3183 57.7432C62.963 58.3878 63.8373 58.75 64.749 58.75C65.6607 58.75 66.535 58.3878 67.1797 57.7432C67.8244 57.0985 68.1865 56.2242 68.1865 55.3125V53.5938H75.0615V55.3125C75.0615 56.2242 75.4237 57.0985 76.0683 57.7432C76.713 58.3878 77.5873 58.75 78.499 58.75C79.4107 58.75 80.285 58.3878 80.9297 57.7432C81.5744 57.0985 81.9365 56.2242 81.9365 55.3125V53.5938H88.8115V55.3125C88.8115 56.2242 89.1737 57.0985 89.8183 57.7432C90.463 58.3878 91.3373 58.75 92.249 58.75C93.1607 58.75 94.035 58.3878 94.6797 57.7432C95.3244 57.0985 95.6865 56.2242 95.6865 55.3125V53.5938H99.9834C100.667 53.5958 101.321 53.8681 101.804 54.3511C102.287 54.8342 102.559 55.4887 102.562 56.1719V62.1875Z" fill="#F08200"/>
<path d="M76.7803 69.9219C76.7803 69.466 76.5992 69.0289 76.2769 68.7065C75.9545 68.3842 75.5174 68.2031 75.0615 68.2031H71.624C71.1682 68.2031 70.731 68.3842 70.4087 68.7065C70.0864 69.0289 69.9053 69.466 69.9053 69.9219V72.5C69.9053 72.9558 70.0864 73.393 70.4087 73.7153C70.731 74.0377 71.1682 74.2188 71.624 74.2188H75.0615C75.5174 74.2188 75.9545 74.0377 76.2769 73.7153C76.5992 73.393 76.7803 72.9558 76.7803 72.5V69.9219ZM71.624 72.5V69.9219H75.0615V72.5H71.624Z" fill="#F08200"/>
<path d="M66.4678 69.9219C66.4678 69.466 66.2867 69.0289 65.9644 68.7065C65.642 68.3842 65.2049 68.2031 64.749 68.2031H61.3115C60.8557 68.2031 60.4185 68.3842 60.0962 68.7065C59.7739 69.0289 59.5928 69.466 59.5928 69.9219V72.5C59.5928 72.9558 59.7739 73.393 60.0962 73.7153C60.4185 74.0377 60.8557 74.2188 61.3115 74.2188H64.749C65.2049 74.2188 65.642 74.0377 65.9644 73.7153C66.2867 73.393 66.4678 72.9558 66.4678 72.5V69.9219ZM61.3115 72.5V69.9219H64.749V72.5H61.3115Z" fill="#F08200"/>
<path d="M95.6865 74.2188C96.1424 74.2188 96.5795 74.0377 96.9019 73.7153C97.2242 73.393 97.4053 72.9558 97.4053 72.5V69.9219C97.4053 69.466 97.2242 69.0289 96.9019 68.7065C96.5795 68.3842 96.1424 68.2031 95.6865 68.2031H92.249C91.7932 68.2031 91.356 68.3842 91.0337 68.7065C90.7114 69.0289 90.5303 69.466 90.5303 69.9219V72.5C90.5303 72.9558 90.7114 73.393 91.0337 73.7153C91.356 74.0377 91.7932 74.2188 92.249 74.2188H95.6865ZM92.249 69.9219H95.6865V72.5H92.249V69.9219Z" fill="#F08200"/>
<path d="M76.7803 77.6562C76.7803 77.2004 76.5992 76.7632 76.2769 76.4409C75.9545 76.1186 75.5174 75.9375 75.0615 75.9375H71.624C71.1682 75.9375 70.731 76.1186 70.4087 76.4409C70.0864 76.7632 69.9053 77.2004 69.9053 77.6562V80.2344C69.9053 80.6902 70.0864 81.1274 70.4087 81.4497C70.731 81.772 71.1682 81.9531 71.624 81.9531H75.0615C75.5174 81.9531 75.9545 81.772 76.2769 81.4497C76.5992 81.1274 76.7803 80.6902 76.7803 80.2344V77.6562ZM71.624 80.2344V77.6562H75.0615V80.2344H71.624Z" fill="#F08200"/>
<path d="M66.4678 77.6562C66.4678 77.2004 66.2867 76.7632 65.9644 76.4409C65.642 76.1186 65.2049 75.9375 64.749 75.9375H61.3115C60.8557 75.9375 60.4185 76.1186 60.0962 76.4409C59.7739 76.7632 59.5928 77.2004 59.5928 77.6562V80.2344C59.5928 80.6902 59.7739 81.1274 60.0962 81.4497C60.4185 81.772 60.8557 81.9531 61.3115 81.9531H64.749C65.2049 81.9531 65.642 81.772 65.9644 81.4497C66.2867 81.1274 66.4678 80.6902 66.4678 80.2344V77.6562ZM61.3115 80.2344V77.6562H64.749V80.2344H61.3115Z" fill="#F08200"/>
<path d="M75.0615 83.6719H71.624C71.1682 83.6719 70.731 83.853 70.4087 84.1753C70.0864 84.4976 69.9053 84.9348 69.9053 85.3906V87.9688C69.9053 88.4246 70.0864 88.8618 70.4087 89.1841C70.731 89.5064 71.1682 89.6875 71.624 89.6875H75.0615C75.5174 89.6875 75.9545 89.5064 76.2769 89.1841C76.5992 88.8618 76.7803 88.4246 76.7803 87.9688V85.3906C76.7803 84.9348 76.5992 84.4976 76.2769 84.1753C75.9545 83.853 75.5174 83.6719 75.0615 83.6719ZM71.624 87.9688V85.3906H75.0615V87.9688H71.624Z" fill="#F08200"/>
<path d="M81.9365 74.2188H85.374C85.8299 74.2188 86.267 74.0377 86.5894 73.7153C86.9117 73.393 87.0928 72.9558 87.0928 72.5V69.9219C87.0928 69.466 86.9117 69.0289 86.5894 68.7065C86.267 68.3842 85.8299 68.2031 85.374 68.2031H81.9365C81.4807 68.2031 81.0435 68.3842 80.7212 68.7065C80.3989 69.0289 80.2178 69.466 80.2178 69.9219V72.5C80.2178 72.9558 80.3989 73.393 80.7212 73.7153C81.0435 74.0377 81.4807 74.2188 81.9365 74.2188ZM81.9365 69.9219H85.374V72.5H81.9365V69.9219Z" fill="#F08200"/>
<path d="M80.2178 80.2344C80.2178 80.6902 80.3989 81.1274 80.7212 81.4497C81.0435 81.772 81.4807 81.9531 81.9365 81.9531C82.1644 81.9531 82.383 81.8626 82.5442 81.7014C82.7054 81.5403 82.7959 81.3217 82.7959 81.0938C82.7959 80.8658 82.7054 80.6472 82.5442 80.4861C82.383 80.3249 82.1644 80.2344 81.9365 80.2344V77.6562H85.374C85.6019 77.6562 85.8205 77.5657 85.9817 77.4045C86.1429 77.2434 86.2334 77.0248 86.2334 76.7969C86.2334 76.569 86.1429 76.3504 85.9817 76.1892C85.8205 76.028 85.6019 75.9375 85.374 75.9375H81.9365C81.4807 75.9375 81.0435 76.1186 80.7212 76.4409C80.3989 76.7632 80.2178 77.2004 80.2178 77.6562V80.2344Z" fill="#F08200"/>
<path d="M64.749 83.6719H61.3115C60.8557 83.6719 60.4185 83.853 60.0962 84.1753C59.7739 84.4976 59.5928 84.9348 59.5928 85.3906V87.9688C59.5928 88.4246 59.7739 88.8618 60.0962 89.1841C60.4185 89.5064 60.8557 89.6875 61.3115 89.6875H64.749C65.2049 89.6875 65.642 89.5064 65.9644 89.1841C66.2867 88.8618 66.4678 88.4246 66.4678 87.9688V85.3906C66.4678 84.9348 66.2867 84.4976 65.9644 84.1753C65.642 83.853 65.2049 83.6719 64.749 83.6719V83.6719ZM61.3115 87.9688V85.3906H64.749V87.9688H61.3115Z" fill="#F08200"/>
<path d="M93.1084 75.9375C90.8988 75.9375 88.7388 76.5927 86.9016 77.8203C85.0644 79.0479 83.6325 80.7927 82.7869 82.8341C81.9414 84.8755 81.7201 87.1218 82.1512 89.2889C82.5823 91.456 83.6463 93.4467 85.2087 95.0091C86.7711 96.5715 88.7617 97.6355 90.9289 98.0666C93.096 98.4977 95.3423 98.2764 97.3837 97.4308C99.4251 96.5853 101.17 95.1533 102.397 93.3161C103.625 91.4789 104.28 89.319 104.28 87.1094C104.277 84.1475 103.099 81.3078 101.004 79.2134C98.91 77.119 96.0703 75.9409 93.1084 75.9375V75.9375ZM93.1084 96.5625C91.2388 96.5625 89.4111 96.0081 87.8565 94.9694C86.302 93.9306 85.0903 92.4543 84.3749 90.7269C83.6594 88.9996 83.4722 87.0989 83.8369 85.2652C84.2017 83.4314 85.102 81.747 86.424 80.425C87.7461 79.103 89.4305 78.2026 91.2642 77.8379C93.0979 77.4731 94.9986 77.6603 96.726 78.3758C98.4533 79.0913 99.9297 80.3029 100.968 81.8575C102.007 83.4121 102.562 85.2397 102.562 87.1094C102.559 89.6156 101.562 92.0183 99.7895 93.7905C98.0173 95.5626 95.6146 96.5595 93.1084 96.5625Z" fill="#F08200"/>
<path d="M98.074 83.5069L91.3898 90.1911L88.3519 87.1523C88.1898 86.9958 87.9727 86.9092 87.7474 86.9111C87.5221 86.9131 87.3066 87.0035 87.1472 87.1628C86.9879 87.3221 86.8975 87.5377 86.8955 87.763C86.8936 87.9883 86.9802 88.2054 87.1367 88.3675L90.7822 92.0138C90.9434 92.1749 91.1619 92.2654 91.3898 92.2654C91.6177 92.2654 91.8362 92.1749 91.9974 92.0138L99.2892 84.722C99.4457 84.5599 99.5323 84.3429 99.5304 84.1175C99.5284 83.8922 99.438 83.6767 99.2787 83.5173C99.1194 83.358 98.9038 83.2676 98.6785 83.2657C98.4532 83.2637 98.2361 83.3503 98.074 83.5069Z" fill="#F08200"/>
<defs>
<linearGradient id="paint0_linear_527_462" x1="10.7597" y1="77.5124" x2="77.1112" y2="77.5124" gradientUnits="userSpaceOnUse">
<stop stop-color="#F58220" stop-opacity="0.8"/>
<stop offset="1" stop-color="#F58220" stop-opacity="0"/>
</linearGradient>
</defs>
</svg>
