<svg width="160" height="160" viewBox="0 0 160 160" fill="none" xmlns="http://www.w3.org/2000/svg">
<circle cx="80.3877" cy="80.3891" r="65.0027" transform="rotate(75 80.3877 80.3891)" fill="url(#paint0_linear_527_459)" fill-opacity="0.25"/>
<path d="M101.419 94.8113H99.0204V59.9793C99.0204 58.358 97.7013 57.0391 96.0802 57.0391H90.7182C89.0969 57.0391 87.778 58.3581 87.778 59.9793V94.8113H81.6866V75.7609C81.6866 74.1396 80.3677 72.8207 78.7464 72.8207H73.3844C71.7632 72.8207 70.4442 74.1397 70.4442 75.7609V94.8113H64.3529V84.9452C64.3529 83.324 63.0338 82.005 61.4127 82.005H56.0506C54.4293 82.005 53.1103 83.3241 53.1103 84.9452V94.8113H50.582C49.978 94.8113 49.4883 95.301 49.4883 95.905C49.4883 96.5091 49.978 96.9988 50.582 96.9988H101.419C102.023 96.9988 102.513 96.5091 102.513 95.905C102.513 95.301 102.023 94.8113 101.419 94.8113ZM62.1652 94.8113H55.2977V84.9452C55.2977 84.5301 55.6354 84.1925 56.0505 84.1925H61.4125C61.8275 84.1925 62.1652 84.5301 62.1652 84.9452V94.8113ZM79.499 94.8113H72.6316V75.7609C72.6316 75.3458 72.9692 75.0082 73.3843 75.0082H78.7463C79.1613 75.0082 79.499 75.3458 79.499 75.7609V94.8113ZM96.8329 94.8113H89.9655V59.9793C89.9655 59.5642 90.3031 59.2266 90.7182 59.2266H96.0802C96.4953 59.2266 96.8329 59.5642 96.8329 59.9793V94.8113Z" fill="#F08200"/>
<path d="M99.0173 42.1502C99.0326 41.8517 98.9276 41.5482 98.6997 41.3202C98.4717 41.0923 98.1682 40.9872 97.8697 41.0026C97.8521 41.0019 97.8347 41 97.8168 41H91.1996C90.5955 41 90.1059 41.4897 90.1059 42.0938C90.1059 42.6978 90.5955 43.1875 91.1996 43.1875H95.2855L84.4731 54.0001L80.3956 49.9226C80.1905 49.7175 79.9122 49.6022 79.6222 49.6022C79.3321 49.6022 79.0539 49.7175 78.8488 49.9226L59.1865 69.5849C58.7594 70.012 58.7594 70.7046 59.1865 71.1318C59.4002 71.3452 59.68 71.452 59.9599 71.452C60.2398 71.452 60.5198 71.3452 60.7333 71.1316L79.6222 52.2427L83.6997 56.3202C84.1268 56.7473 84.8193 56.7473 85.2466 56.3202L96.8324 44.7344V48.4324C96.8324 49.0364 97.3221 49.5261 97.9262 49.5261C98.5303 49.5261 99.0199 49.0364 99.0199 48.4324V42.2031C99.0199 42.1853 99.0181 42.1679 99.0173 42.1502Z" fill="#F08200"/>
<path d="M56.2734 75.2695C56.8775 75.2695 57.3672 74.7798 57.3672 74.1758C57.3672 73.5717 56.8775 73.082 56.2734 73.082C55.6694 73.082 55.1797 73.5717 55.1797 74.1758C55.1797 74.7798 55.6694 75.2695 56.2734 75.2695Z" fill="#F08200"/>
<defs>
<linearGradient id="paint0_linear_527_459" x1="11.5361" y1="78.2897" x2="77.8876" y2="78.2897" gradientUnits="userSpaceOnUse">
<stop stop-color="#F58220" stop-opacity="0.8"/>
<stop offset="1" stop-color="#F58220" stop-opacity="0"/>
</linearGradient>
</defs>
</svg>
