<svg width="160" height="160" viewBox="0 0 160 160" fill="none" xmlns="http://www.w3.org/2000/svg">
<circle cx="79.6123" cy="79.6118" r="65.0027" transform="rotate(75 79.6123 79.6118)" fill="url(#paint0_linear_527_460)" fill-opacity="0.25"/>
<g clip-path="url(#clip0_527_460)">
<path d="M64.18 65.1619L64.1779 65.1988C64.035 67.7018 65.437 70.0465 67.7507 71.1707L67.7744 71.1823C68.5901 71.5725 69.2587 72.2157 69.6805 73.0156L69.69 73.033C70.8558 75.2528 73.267 76.5984 75.8374 76.4634L75.8764 76.4613C76.8086 76.4091 77.734 76.6495 78.5228 77.1494C80.6994 78.5108 83.4623 78.5108 85.6388 77.1494C86.4276 76.6495 87.353 76.4091 88.2852 76.4613L88.3242 76.4634C90.8904 76.5995 93.3048 75.2528 94.4732 73.0293L94.479 73.0172C94.9024 72.2152 95.5726 71.5709 96.3909 71.1802L96.4099 71.1707C98.7235 70.046 100.126 67.7018 99.9827 65.1983L99.9805 65.1635C99.9331 64.2819 100.178 63.4093 100.678 62.6811C102.117 60.5826 102.117 57.8155 100.678 55.7164C100.179 54.9888 99.9331 54.1167 99.9805 53.2351L99.9827 53.1982C100.126 50.6947 98.7235 48.3505 96.4078 47.2253L96.3867 47.2147C95.5726 46.8256 94.9056 46.1855 94.4832 45.3877L94.4711 45.364C93.3048 43.1442 90.8904 41.7991 88.3242 41.9336L88.2847 41.9357C87.353 41.9879 86.4276 41.7475 85.6393 41.2476H85.6383C83.4617 39.8862 80.6988 39.8862 78.5223 41.2476C77.7335 41.7469 76.8081 41.9874 75.8759 41.9352L75.8369 41.9331C73.2701 41.797 70.8563 43.1437 69.6905 45.363L69.6815 45.3793C69.2592 46.1808 68.5901 46.8245 67.7733 47.2153L67.7512 47.2258C65.4375 48.3499 64.035 50.6947 64.1784 53.1982L64.1805 53.233C64.228 54.1146 63.9833 54.9872 63.4835 55.7148C62.0446 57.8139 62.0446 60.5815 63.4835 62.6801C63.9828 63.4077 64.228 64.2803 64.18 65.1619V65.1619ZM65.2609 56.9413C66.0323 55.8182 66.4104 54.4715 66.3365 53.1112L66.3344 53.0743C66.2585 51.4155 67.1897 49.8748 68.6929 49.1698L68.7114 49.1609C69.9446 48.5703 70.9544 47.5981 71.5913 46.3885L71.6019 46.3685C72.3764 44.8932 73.9988 43.9989 75.7219 44.0907L75.7599 44.0922C77.1387 44.1697 78.507 43.8144 79.6733 43.0751C81.146 42.154 83.0146 42.154 84.4873 43.0751C85.6536 43.8133 87.0218 44.1692 88.4001 44.0928L88.4381 44.0907C90.1696 44 91.7841 44.8932 92.5566 46.3642L92.5708 46.3911C93.2078 47.5991 94.2164 48.5698 95.4481 49.1598L95.4661 49.1688C96.993 49.9112 97.92 51.444 97.8267 53.0748L97.8245 53.1133C97.7507 54.4736 98.1293 55.8198 98.9007 56.9428C99.8329 58.3027 99.8324 60.0954 98.8996 61.4547C98.1288 62.5783 97.7507 63.925 97.8245 65.2853L97.8267 65.3217C97.92 66.9525 96.993 68.4858 95.4655 69.2288L95.4497 69.2361C94.2154 69.8277 93.2046 70.8011 92.5671 72.0127L92.5592 72.0286C91.7841 73.5039 90.1644 74.3986 88.4386 74.3064L88.4012 74.3043C87.0224 74.2273 85.6536 74.5832 84.4867 75.3219C83.0146 76.2425 81.146 76.2425 79.6738 75.3219C78.613 74.6496 77.3823 74.2932 76.1264 74.2942C76.0046 74.2942 75.8822 74.2974 75.7599 74.3043L75.7219 74.3058C74.0215 74.4139 72.4128 73.5239 71.6003 72.0259L71.5892 72.0054C70.9533 70.7979 69.9452 69.8277 68.714 69.2377L68.694 69.2277C67.1665 68.4853 66.2395 66.952 66.3334 65.3217L66.3355 65.2832C66.4088 63.9228 66.0302 62.5762 65.2593 61.4536C64.3276 60.0938 64.3282 58.3011 65.2609 56.9423V56.9413Z" fill="#F08200"/>
<path d="M75.1118 70.3652C75.6175 70.6811 76.2834 70.5266 76.5993 70.0209L89.3914 49.5281C89.6002 49.2007 89.6176 48.7862 89.4362 48.443C89.2548 48.0992 88.9026 47.8798 88.5145 47.8677C88.1264 47.8556 87.7616 48.0528 87.5591 48.3844L74.7675 68.8773C74.4517 69.3835 74.6057 70.0494 75.1118 70.3652V70.3652Z" fill="#F08200"/>
<path d="M76.2589 59.2549C78.8884 59.2549 81.028 56.8152 81.028 53.8166C81.028 50.8181 78.8884 48.3789 76.2589 48.3789C73.6294 48.3789 71.4902 50.8181 71.4902 53.8166C71.4902 56.8152 73.6294 59.2549 76.2589 59.2549ZM76.2589 50.5386C77.6978 50.5386 78.8683 52.0092 78.8683 53.8166C78.8683 55.6241 77.6978 57.0952 76.2589 57.0952C74.8205 57.0952 73.6499 55.6236 73.6499 53.8166C73.6499 52.0097 74.8205 50.5386 76.2589 50.5386Z" fill="#F08200"/>
<path d="M83.1318 64.5862C83.1318 67.5847 85.271 70.0239 87.9005 70.0239C90.53 70.0239 92.6696 67.5842 92.6696 64.5862C92.6696 61.5886 90.5305 59.1484 87.901 59.1484C85.271 59.1484 83.1318 61.5871 83.1318 64.5862V64.5862ZM90.5099 64.5862C90.5099 66.3936 89.3394 67.8642 87.9005 67.8642C86.4621 67.8642 85.2915 66.3936 85.2915 64.5862C85.2915 62.7787 86.4621 61.3081 87.9005 61.3081C89.3394 61.3081 90.5099 62.7776 90.5099 64.5862Z" fill="#F08200"/>
<path d="M104.86 82.5175C103.43 79.9797 100.259 79.0133 97.6568 80.3219L89.1978 84.3186C88.0299 82.1468 85.7895 80.7643 83.324 80.6947L75.5151 80.4796C74.2787 80.4443 73.0655 80.1305 71.9661 79.5632L71.1715 79.1514C67.1031 77.0307 62.2538 77.036 58.1896 79.1651L58.2392 77.365C58.2555 76.7687 57.7857 76.272 57.1894 76.2556L48.6265 76.0199C48.0302 76.0036 47.534 76.4734 47.5177 77.0697L47.0004 95.8611C46.9841 96.4574 47.4539 96.9541 48.0502 96.9705L56.6131 97.2062H56.6431C57.2279 97.2056 57.7061 96.7401 57.7224 96.1558L57.7467 95.2568L59.9712 94.0657C60.8444 93.5959 61.8657 93.4842 62.8196 93.7541L76.1031 97.4824C76.1263 97.4893 76.1495 97.4946 76.1732 97.4998C77.1333 97.7007 78.1119 97.8014 79.0932 97.8009C81.1706 97.802 83.2238 97.3543 85.112 96.4875C85.1584 96.4664 85.2032 96.4421 85.2459 96.4147L104.506 83.9559C104.986 83.6458 105.141 83.0147 104.86 82.5175V82.5175ZM49.1891 94.8408L49.6468 78.2092L56.051 78.3853L55.5928 95.0175L49.1891 94.8408ZM84.1386 94.5577C81.7928 95.6164 79.1728 95.9085 76.6514 95.3929L63.4032 91.6751C61.9126 91.2533 60.3161 91.4283 58.952 92.1618L57.8152 92.7702L58.12 81.7118C61.7218 79.3159 66.3417 79.0697 70.1781 81.0686L70.9727 81.4803C72.3615 82.1974 73.8938 82.5934 75.4561 82.6382L83.2649 82.8534C85.4584 82.9161 87.3212 84.4779 87.7662 86.627L76.1347 86.307C75.5383 86.2906 75.0422 86.7604 75.0258 87.3568C75.0095 87.9531 75.4793 88.4498 76.0756 88.4661L88.912 88.8194H88.9426C89.5268 88.8189 90.005 88.3533 90.0214 87.7691C90.0346 87.2998 89.9992 86.83 89.917 86.3681L98.5916 82.2686L98.6169 82.2565C99.8476 81.6333 101.336 81.8415 102.348 82.7785L84.1386 94.5577Z" fill="#F08200"/>
</g>
<defs>
<linearGradient id="paint0_linear_527_460" x1="10.7607" y1="77.5124" x2="77.1122" y2="77.5124" gradientUnits="userSpaceOnUse">
<stop stop-color="#F58220" stop-opacity="0.8"/>
<stop offset="1" stop-color="#F58220" stop-opacity="0"/>
</linearGradient>
<clipPath id="clip0_527_460">
<rect width="58" height="58" fill="white" transform="translate(47 40)"/>
</clipPath>
</defs>
</svg>
