<svg width="160" height="160" viewBox="0 0 160 160" fill="none" xmlns="http://www.w3.org/2000/svg">
<circle cx="79.6123" cy="79.6118" r="65.0027" transform="rotate(75 79.6123 79.6118)" fill="url(#paint0_linear_527_461)" fill-opacity="0.25"/>
<path d="M87.3332 57.4987C87.3332 56.8547 86.8105 56.332 86.1665 56.332H75.6665H69.8332C69.1892 56.332 68.6665 56.8547 68.6665 57.4987C68.6665 58.1427 69.1892 58.6654 69.8332 58.6654H75.6665C78.2402 58.6654 80.3332 60.7584 80.3332 63.332H69.8332C69.1892 63.332 68.6665 63.8547 68.6665 64.4987C68.6665 65.1427 69.1892 65.6654 69.8332 65.6654H79.6845C78.8748 67.0537 77.3862 67.9987 75.6665 67.9987H69.8332C69.3385 67.9987 68.8975 68.3114 68.7318 68.7804C68.5685 69.247 68.7155 69.7674 69.1028 70.0777L80.7695 79.411C80.9865 79.5814 81.2432 79.6654 81.4998 79.6654C81.8405 79.6654 82.1812 79.516 82.4122 79.2267C82.8135 78.7227 82.7342 77.99 82.2302 77.5864L73.1605 70.332H75.6665C78.7045 70.332 81.2712 68.3744 82.2372 65.6654H86.1665C86.8105 65.6654 87.3332 65.1427 87.3332 64.4987C87.3332 63.8547 86.8105 63.332 86.1665 63.332H82.6665C82.6665 61.533 81.9642 59.9067 80.8465 58.6654H86.1665C86.8105 58.6654 87.3332 58.1427 87.3332 57.4987V57.4987Z" fill="#F08200"/>
<path d="M78.0007 42.332C63.849 42.332 52.334 53.847 52.334 67.9987C52.334 82.1504 63.849 93.6654 78.0007 93.6654C92.1523 93.6654 103.667 82.1504 103.667 67.9987C103.667 53.847 92.1523 42.332 78.0007 42.332ZM78.0007 91.332C65.1347 91.332 54.6673 80.8647 54.6673 67.9987C54.6673 55.1327 65.1347 44.6654 78.0007 44.6654C90.8666 44.6654 101.334 55.1327 101.334 67.9987C101.334 80.8647 90.8666 91.332 78.0007 91.332Z" fill="#F08200"/>
<defs>
<linearGradient id="paint0_linear_527_461" x1="10.7607" y1="77.5124" x2="77.1122" y2="77.5124" gradientUnits="userSpaceOnUse">
<stop stop-color="#F58220" stop-opacity="0.8"/>
<stop offset="1" stop-color="#F58220" stop-opacity="0"/>
</linearGradient>
</defs>
</svg>
