<svg width="190" height="194" viewBox="0 0 190 194" fill="none" xmlns="http://www.w3.org/2000/svg">
<rect width="160" height="178" rx="10" fill="#043B72"/>
<g clip-path="url(#clip0_521_456)">
<path d="M116.631 76.9913C115.03 70.2025 111.062 64.2004 105.434 60.0539C103.568 58.5511 96.8698 51.98 96.8698 51.98C96.8698 51.98 102.673 51.7507 105.306 51.4196C117.205 50.2766 129.183 50.1998 141.096 51.1904C144.368 51.3432 154.185 50.2734 154.185 50.2734C154.185 50.2734 146.516 60.0539 144.113 63.0084C141.512 65.9422 139.383 69.2584 137.798 72.8398C137.259 74.643 137.18 76.5517 137.569 78.3929C137.957 80.2341 138.8 81.9497 140.022 83.3843C142.449 86.0985 145.308 88.3961 148.484 90.1848C164.129 100.373 178.931 113.948 185.578 132.185C192.224 150.421 188.339 174.032 172.949 184.703C165.28 190.078 155.616 191.631 146.362 192.344C135.134 193.126 123.854 192.785 112.694 191.326C102.213 189.925 90.811 186.868 84.8034 177.597C81.6346 172.198 80.0492 166.021 80.2274 159.768C80.0229 143.366 86.823 127.498 96.7164 114.941C105.971 103.225 120.9 91.2799 116.631 76.9913Z" fill="white"/>
<path d="M134.704 194C127.31 193.998 119.924 193.522 112.591 192.574C103.414 191.352 90.4526 188.55 83.8059 178.286C80.4834 172.67 78.8177 166.234 78.9998 159.718C79.2494 143.06 85.1613 126.979 95.77 114.101C97.6873 111.682 99.8602 109.211 101.982 106.817C110.163 97.597 118.624 88.0458 115.429 77.3739C113.89 70.8361 110.077 65.0523 104.666 61.0477C102.749 59.5195 96.2557 53.152 95.9744 52.8718C95.8025 52.6975 95.6846 52.4775 95.6347 52.2381C95.5848 51.9987 95.6052 51.7501 95.6933 51.5219C95.7678 51.3006 95.9031 51.1045 96.0838 50.9559C96.2646 50.8073 96.4835 50.7122 96.7158 50.6815C96.7158 50.6815 102.493 50.4522 105.05 50.1211C116.205 48.9965 127.439 48.8772 138.616 49.7646H141.172C144.291 49.9174 153.954 48.8476 153.954 48.8476C154.203 48.8131 154.457 48.8556 154.681 48.9695C154.905 49.0834 155.089 49.2631 155.207 49.4844C155.324 49.7007 155.374 49.9466 155.351 50.1913C155.329 50.436 155.234 50.6685 155.079 50.8598C155.079 50.8598 147.41 60.6657 145.032 63.5947L144.086 64.8682C141.952 67.3303 140.226 70.1161 138.974 73.1204C138.506 74.7167 138.449 76.4044 138.806 78.0286C139.163 79.6529 139.924 81.1617 141.019 82.4169C143.169 84.8602 145.708 86.934 148.535 88.5551L149.174 88.9627C168.654 101.698 180.95 115.655 186.753 131.574C193.093 148.944 190.639 173.777 173.664 185.544C165.33 191.352 155.232 192.752 146.464 193.364C142.578 193.873 138.641 194 134.704 194ZM99.8347 53.2284C101.931 55.266 104.948 58.3224 106.226 59.1884C112.06 63.4936 116.172 69.7208 117.832 76.7626C121.436 88.7844 112.515 98.8704 103.874 108.6C101.701 111.147 99.6302 113.414 97.764 115.782C87.5106 128.21 81.7881 143.734 81.5307 159.82C81.338 165.862 82.8527 171.837 85.9021 177.063C92.012 186.436 104.232 189.059 112.924 190.205C123.999 191.652 135.192 191.993 146.336 191.224C154.772 190.613 164.436 189.289 172.284 183.838C187.622 173.192 190.537 149.505 184.427 132.898C178.828 117.489 166.864 103.964 147.844 91.5352L147.205 91.1276C144.145 89.3535 141.399 87.0905 139.076 84.429C137.719 82.8299 136.787 80.9163 136.367 78.8643C135.947 76.8124 136.052 74.6883 136.673 72.6875C138.025 69.4495 139.889 66.4483 142.195 63.7984L143.166 62.5504C144.751 60.4619 148.944 55.1387 151.398 52.0569C148.003 52.445 144.589 52.649 141.172 52.6681H138.616C127.593 51.7843 116.513 51.8951 105.51 52.9992C104.027 52.8464 101.675 52.9992 99.8347 53.2284Z" fill="#F08200"/>
<path d="M123.814 79.6658C121.531 79.6616 119.254 79.4398 117.014 79.0036C116.849 78.9764 116.691 78.916 116.55 78.8259C116.409 78.7357 116.289 78.6178 116.195 78.4794C116.102 78.3411 116.038 78.1851 116.007 78.0212C115.976 77.8573 115.98 77.6889 116.017 77.5263C116.047 77.3634 116.11 77.2082 116.202 77.0698C116.293 76.9313 116.411 76.8124 116.549 76.72C116.687 76.6275 116.842 76.5634 117.006 76.5313C117.169 76.4992 117.337 76.4997 117.5 76.533C123.804 77.7604 130.331 77.1412 136.289 74.7501C136.447 74.6669 136.62 74.6174 136.798 74.6048C136.975 74.5922 137.154 74.6168 137.321 74.6769C137.489 74.7371 137.642 74.8315 137.771 74.9541C137.9 75.0767 138.002 75.2248 138.07 75.3889C138.138 75.553 138.171 75.7295 138.166 75.9069C138.162 76.0844 138.12 76.259 138.044 76.4195C137.968 76.58 137.859 76.7229 137.724 76.8389C137.589 76.9549 137.431 77.0416 137.261 77.0933C132.985 78.7989 128.42 79.6722 123.814 79.6658V79.6658Z" fill="#F08200"/>
<path d="M120.516 88.8851C119.213 88.8851 117.96 88.8851 116.605 88.7068C116.44 88.6939 116.28 88.6488 116.133 88.5739C115.986 88.499 115.855 88.3958 115.748 88.2703C115.641 88.1449 115.56 87.9996 115.51 87.8428C115.459 87.6861 115.441 87.5209 115.455 87.3569C115.493 87.0259 115.658 86.7224 115.915 86.509C116.172 86.2957 116.501 86.189 116.835 86.2108C124.523 86.88 132.248 85.4166 139.153 81.9828C139.448 81.8791 139.77 81.8866 140.06 82.0039C140.349 82.1212 140.586 82.3402 140.724 82.6193C140.863 82.8984 140.894 83.2184 140.811 83.5188C140.729 83.8192 140.539 84.0792 140.278 84.2496C134.139 87.2961 127.375 88.8828 120.516 88.8851Z" fill="#F08200"/>
<path d="M97.1511 98.1832C95.0848 98.2267 93.0713 97.5309 91.4758 96.222C91.2217 96.0092 91.0628 95.7045 91.034 95.375C91.0052 95.0454 91.109 94.718 91.3224 94.4646C91.537 94.206 91.8453 94.0423 92.1804 94.0089C92.5154 93.9755 92.8502 94.0752 93.1119 94.2863C94.4493 95.1952 96.0306 95.6814 97.6495 95.6814C99.2684 95.6814 100.85 95.1952 102.187 94.2863C105.082 92.1677 107.459 89.4251 109.141 86.2633L109.703 85.3718C111.135 82.9654 112.705 80.6438 114.407 78.4186C111.91 78.4268 109.489 79.2698 107.53 80.8127C107.019 81.2202 106.533 81.7042 105.996 82.1881C105.345 82.8516 104.645 83.4647 103.9 84.0219C102.355 85.1182 100.566 85.8233 98.686 86.0762C96.8065 86.3292 94.8933 86.1224 93.1119 85.4737C92.8026 85.3489 92.5546 85.1085 92.4209 84.8039C92.2871 84.4993 92.2782 84.1547 92.3961 83.8436C92.453 83.6897 92.5399 83.5485 92.6517 83.428C92.7635 83.3076 92.8981 83.2102 93.0477 83.1416C93.1973 83.073 93.3589 83.0345 93.5235 83.0282C93.6881 83.0219 93.8522 83.0481 94.0066 83.1051C95.3941 83.6152 96.8856 83.7797 98.3515 83.5844C99.8174 83.3891 101.213 82.8398 102.417 81.9844C103.067 81.4925 103.682 80.9564 104.258 80.3798C104.795 79.8704 105.357 79.3355 105.971 78.8516C107.543 77.6301 109.366 76.7687 111.31 76.3285C113.254 75.8883 115.271 75.8801 117.219 76.3046C117.432 76.3546 117.628 76.4582 117.789 76.6053C117.95 76.7525 118.071 76.9383 118.139 77.1451C118.214 77.3526 118.229 77.5765 118.184 77.7922C118.139 78.0079 118.035 78.207 117.884 78.3676C115.657 81.0009 113.664 83.8216 111.927 86.7981L111.365 87.6896C109.504 91.1701 106.883 94.1902 103.696 96.5277C101.71 97.6733 99.4444 98.2465 97.1511 98.1832V98.1832Z" fill="#F08200"/>
<path d="M148.688 192.015C148.58 192.015 148.476 191.972 148.399 191.896C148.322 191.82 148.279 191.716 148.279 191.608C148.279 191.5 148.322 191.396 148.399 191.32C148.476 191.243 148.58 191.2 148.688 191.2C154.057 190.977 159.131 188.695 162.851 184.833C166.561 180.939 169.547 176.42 171.671 171.487C171.693 171.435 171.725 171.389 171.766 171.35C171.806 171.312 171.855 171.282 171.907 171.263C171.96 171.244 172.016 171.236 172.072 171.239C172.128 171.242 172.183 171.257 172.233 171.283C172.285 171.305 172.331 171.337 172.37 171.377C172.409 171.418 172.438 171.466 172.458 171.519C172.477 171.571 172.485 171.627 172.481 171.683C172.478 171.739 172.463 171.793 172.437 171.843C170.277 176.876 167.229 181.482 163.439 185.444C159.554 189.444 154.271 191.798 148.688 192.015V192.015Z" fill="#F08200"/>
<path d="M143.09 192.473C143.015 192.475 142.94 192.454 142.877 192.413C142.813 192.372 142.763 192.313 142.732 192.244C142.701 192.199 142.68 192.147 142.671 192.092C142.662 192.038 142.665 191.982 142.68 191.929C142.694 191.876 142.72 191.826 142.756 191.784C142.791 191.741 142.836 191.707 142.886 191.684C146.862 189.454 150.17 186.21 152.472 182.286C152.538 182.205 152.63 182.151 152.732 182.132C152.835 182.113 152.94 182.132 153.03 182.184C153.12 182.237 153.187 182.32 153.221 182.417C153.255 182.515 153.252 182.622 153.214 182.718C150.813 186.759 147.393 190.104 143.295 192.422L143.09 192.473Z" fill="#F08200"/>
<path d="M122.664 192.83C120.554 192.483 118.558 191.635 116.845 190.359C115.132 189.082 113.752 187.414 112.822 185.495C112.796 185.445 112.782 185.39 112.778 185.334C112.775 185.279 112.783 185.223 112.802 185.17C112.821 185.118 112.851 185.07 112.89 185.029C112.928 184.988 112.975 184.956 113.027 184.934C113.075 184.909 113.128 184.895 113.182 184.891C113.236 184.888 113.29 184.896 113.341 184.916C113.392 184.935 113.438 184.965 113.476 185.003C113.514 185.041 113.544 185.087 113.563 185.138C114.436 186.934 115.731 188.495 117.337 189.687C118.944 190.88 120.815 191.67 122.792 191.989C122.9 192.014 122.996 192.076 123.062 192.165C123.127 192.254 123.159 192.363 123.15 192.473C123.126 192.581 123.063 192.677 122.974 192.742C122.885 192.808 122.775 192.839 122.664 192.83Z" fill="#F08200"/>
<path d="M109.755 191.174C109.671 191.197 109.583 191.197 109.499 191.174C103.721 186.946 98.4295 182.616 97.1002 176.274C97.0891 176.22 97.089 176.165 97.0999 176.111C97.1107 176.058 97.1323 176.007 97.1633 175.962C97.1943 175.917 97.2341 175.878 97.2804 175.849C97.3266 175.819 97.3784 175.799 97.4325 175.79C97.5443 175.767 97.6605 175.789 97.7562 175.851C97.8519 175.913 97.9193 176.01 97.9438 176.121C99.1965 182.157 104.36 186.309 110.01 190.486C110.05 190.524 110.081 190.57 110.102 190.62C110.124 190.67 110.135 190.724 110.135 190.779C110.135 190.834 110.124 190.888 110.102 190.938C110.081 190.988 110.05 191.034 110.01 191.072C109.941 191.136 109.849 191.173 109.755 191.174V191.174Z" fill="#F08200"/>
<path d="M122.971 77.9321C122.877 77.9402 122.783 77.9135 122.708 77.8571C122.632 77.8007 122.58 77.7185 122.562 77.6264C121.547 73.4074 120.081 69.3088 118.19 65.4009C118.165 65.351 118.15 65.2965 118.146 65.2407C118.143 65.1848 118.151 65.1289 118.17 65.0764C118.189 65.0238 118.219 64.9758 118.258 64.9352C118.296 64.8946 118.343 64.8624 118.395 64.8405C118.443 64.8154 118.496 64.8008 118.55 64.7975C118.604 64.7943 118.658 64.8027 118.709 64.822C118.76 64.8412 118.806 64.871 118.844 64.9093C118.883 64.9477 118.912 64.9937 118.932 65.0443C120.859 68.998 122.351 73.1484 123.38 77.4227C123.403 77.5305 123.385 77.6433 123.328 77.738C123.271 77.8327 123.18 77.9022 123.073 77.9321H122.971Z" fill="#F08200"/>
<path d="M127.854 78.1904C127.799 78.1908 127.744 78.1796 127.694 78.1573C127.644 78.135 127.599 78.1022 127.563 78.0611C127.526 78.02 127.499 77.9717 127.483 77.9193C127.467 77.8669 127.463 77.8117 127.47 77.7574C127.861 73.689 129.172 69.7616 131.305 66.2705C131.331 66.2226 131.367 66.1809 131.41 66.148C131.454 66.1151 131.504 66.0919 131.557 66.0798C131.61 66.0677 131.666 66.0672 131.719 66.0781C131.773 66.089 131.823 66.1112 131.867 66.1432C131.917 66.1667 131.962 66.2008 131.997 66.2431C132.033 66.2854 132.059 66.3348 132.074 66.3881C132.088 66.4413 132.091 66.4971 132.082 66.5515C132.073 66.606 132.052 66.6579 132.021 66.7035C129.946 70.0817 128.677 73.8898 128.314 77.8338C128.295 77.9395 128.238 78.0345 128.153 78.1003C128.068 78.1662 127.961 78.1983 127.854 78.1904Z" fill="#F08200"/>
<path d="M132.659 76.5073H132.506C132.404 76.4723 132.319 76.4008 132.267 76.3066C132.215 76.2125 132.2 76.1024 132.225 75.9979L133.707 70.9039C133.707 70.6747 133.912 70.5219 134.091 70.4964C134.164 70.4747 134.242 70.4752 134.315 70.4979C134.388 70.5206 134.452 70.5643 134.5 70.6237C134.679 70.8275 134.781 70.9549 133.043 76.1507C133.026 76.2437 132.98 76.3288 132.911 76.3932C132.842 76.4575 132.753 76.4976 132.659 76.5073Z" fill="#F08200"/>
<g opacity="0.13">
<path d="M136.775 76.3048L136.954 76.152C138.769 74.1144 136.596 71.7457 134.219 72.8409C130.477 74.0459 126.513 74.4112 122.613 73.9106C121.766 73.777 120.946 73.5105 120.184 73.1211C119.602 72.7607 118.962 72.5023 118.292 72.357C117.753 72.3002 117.209 72.427 116.751 72.7169C116.293 73.0068 115.947 73.4426 115.769 73.9534C115.592 74.4642 115.593 75.02 115.772 75.5302C115.952 76.0404 116.299 76.4749 116.758 76.7632C117.417 77.1402 118.1 77.4721 118.803 77.7566C118.531 78.0312 118.335 78.371 118.234 78.7433C118.132 79.1156 118.129 79.5077 118.224 79.8816C118.319 80.2556 118.509 80.5988 118.777 80.8779C119.044 81.1571 119.379 81.3628 119.749 81.4752C124.256 82.31 128.902 81.9857 133.247 80.5328C133.986 80.3038 134.704 80.0142 135.395 79.6668H135.599L136.034 79.3866C136.344 79.2391 136.616 79.021 136.826 78.7499C137.086 78.4286 137.227 78.0288 137.227 77.6165C137.227 77.2043 137.086 76.8044 136.826 76.4831C136.833 76.4515 136.831 76.4188 136.822 76.3878C136.813 76.3568 136.797 76.3284 136.775 76.3048Z" fill="#F08200"/>
</g>
<g opacity="0.13">
<path d="M139.689 85.7525C139.921 85.4565 140.065 85.1011 140.102 84.7274C140.14 84.3537 140.07 83.977 139.901 83.6411C139.733 83.3052 139.472 83.0238 139.15 82.8295C138.827 82.6352 138.456 82.536 138.079 82.5434H137.695C136.775 82.6962 136.698 83.1291 135.139 83.9187C132.756 84.8997 130.269 85.6089 127.725 86.0327C125.875 86.5143 123.956 86.6779 122.05 86.5166C121.537 86.324 120.985 86.2541 120.44 86.3128C119.905 86.4352 119.423 86.7258 119.067 87.1417C118.711 87.5576 118.498 88.0768 118.461 88.6224C118.424 89.1679 118.564 89.7109 118.86 90.1711C119.157 90.6313 119.594 90.9842 120.107 91.1776C124.709 92.2219 129.387 90.6173 133.682 89.1145C135.743 88.4256 137.684 87.4202 139.434 86.1346L139.562 85.9817L139.689 85.8544V85.7525Z" fill="#F08200"/>
</g>
<g opacity="0.13">
<path d="M189.642 145.326C189.699 143.866 189.588 142.405 189.309 140.971C189.189 140.713 188.989 140.5 188.74 140.362C188.491 140.223 188.204 140.167 187.92 140.201C187.637 140.235 187.371 140.357 187.162 140.55C186.952 140.743 186.809 140.997 186.753 141.276C186.474 144.23 185.935 147.153 185.142 150.012C183.64 156.353 181.284 162.461 178.138 168.172C176.925 170.752 175.424 173.187 173.664 175.431C169.825 178.851 165.291 181.405 160.371 182.92C156.639 184.036 152.784 184.694 148.892 184.881C141.96 185.479 134.989 185.479 128.058 184.881C124.351 184.702 121.718 184.015 116.809 183.378C109.437 182.606 102.148 181.183 95.0285 179.125C93.9563 178.818 92.9324 178.363 91.9863 177.775C91.7939 177.65 91.5752 177.571 91.3472 177.545L89.9667 176.629C89.072 176.043 87.2058 174.081 85.5952 173.012C85.3745 172.917 85.1315 172.887 84.8941 172.924C84.6567 172.96 84.4345 173.063 84.2531 173.22C84.0716 173.377 83.9381 173.581 83.868 173.81C83.798 174.039 83.7941 174.283 83.8569 174.514C84.2659 175.482 85.314 175.992 86.0043 176.705L86.3366 176.985C86.324 177.069 86.324 177.155 86.3366 177.24C87.039 178.292 87.9015 179.228 88.8931 180.016C88.9468 180.285 89.0595 180.538 89.2231 180.758C89.3866 180.978 89.5968 181.16 89.8389 181.289L90.8104 181.85C91.5972 182.683 92.4523 183.45 93.3668 184.142C93.5385 184.224 93.7262 184.266 93.9164 184.266C94.1066 184.266 94.2944 184.224 94.466 184.142L95.0285 184.499C97.0323 185.917 99.2158 187.064 101.522 187.912C104.539 189.238 107.629 190.394 110.776 191.376C112.828 191.889 114.912 192.263 117.014 192.496C120.727 192.849 124.46 192.934 128.185 192.751C132.148 192.751 136.11 192.751 140.047 192.445C146.519 192.184 152.971 191.563 159.374 190.586C165.945 189.173 172.028 186.064 177.013 181.57C179.165 179.634 180.904 177.287 182.126 174.667C182.509 173.699 183.379 172.732 183.276 171.662C184.101 170.341 184.827 168.962 185.449 167.536C186.098 166.27 186.654 164.959 187.111 163.613C187.583 162.841 187.864 161.968 187.929 161.066C188.108 160.353 188.287 159.666 188.44 158.978C188.781 157.997 188.886 156.95 188.747 155.921C188.875 155.081 188.977 154.215 189.079 153.375C189.514 150.573 189.591 147.949 189.642 145.326ZM114.227 188.217L116.605 188.523H117.474C116.247 188.497 115.173 188.37 114.227 188.217Z" fill="#F08200"/>
</g>
<path d="M117.028 156.59L116.477 154.515C116.049 154.628 115.666 154.869 115.379 155.205C115.092 155.54 114.916 155.954 114.873 156.392C114.83 156.829 114.924 157.268 115.141 157.65C115.358 158.032 115.688 158.339 116.086 158.528L117.028 156.59ZM106.667 126.014L152.736 113.805L151.634 109.655L105.565 121.863L106.667 126.014ZM117.58 158.666L130.144 155.336L129.042 151.185L116.477 154.515L117.58 158.666ZM120.223 117.979L107.659 121.308L108.761 125.459L121.325 122.129L120.223 117.979ZM116.086 158.528L152.017 175.664L153.901 171.788L117.971 154.652L116.086 158.528V158.528ZM144.03 131.663C143.378 129.21 142.246 126.91 140.697 124.895C139.148 122.88 137.213 121.189 135.002 119.918C132.792 118.647 130.349 117.822 127.813 117.489C125.277 117.156 122.698 117.323 120.223 117.979L121.325 122.129C125.213 121.099 129.348 121.642 132.82 123.638C136.293 125.634 138.818 128.92 139.842 132.773L144.03 131.663ZM130.144 155.336C132.619 154.68 134.941 153.547 136.979 152.003C139.016 150.458 140.728 148.532 142.017 146.334C143.307 144.135 144.148 141.708 144.494 139.191C144.839 136.674 144.681 134.116 144.03 131.663L139.842 132.773C140.865 136.626 140.302 140.73 138.277 144.183C136.251 147.636 132.929 150.155 129.042 151.185L130.144 155.336ZM111.076 142.617L157.145 130.409L156.043 126.258L109.974 138.466L111.076 142.617Z" fill="#F08200"/>
</g>
<path opacity="0.4" d="M33.3064 121.668L32.9625 120.371C32.6954 120.442 32.4563 120.593 32.2773 120.802C32.0983 121.012 31.9881 121.271 31.9615 121.544C31.9349 121.817 31.9932 122.091 32.1286 122.33C32.2639 122.569 32.4698 122.76 32.7185 122.878L33.3064 121.668ZM26.8412 102.569L55.5864 94.9434L54.8986 92.3507L26.1534 99.9765L26.8412 102.569ZM33.6503 122.964L41.4899 120.884L40.8021 118.292L32.9625 120.371L33.6503 122.964ZM35.2996 97.5501L27.46 99.6299L28.1478 102.223L35.9874 100.143L35.2996 97.5501ZM32.7185 122.878L55.1378 133.582L56.3136 131.161L33.8944 120.457L32.7185 122.878V122.878ZM50.1542 106.098C49.7477 104.565 49.0411 103.129 48.0746 101.87C47.1081 100.612 45.9007 99.5551 44.5213 98.7614C43.1419 97.9677 41.6176 97.4522 40.0354 97.2444C38.4531 97.0366 36.8439 97.1405 35.2996 97.5501L35.9874 100.143C38.4132 99.4993 40.9932 99.8382 43.1599 101.085C45.3266 102.332 46.9025 104.384 47.541 106.791L50.1542 106.098ZM41.4899 120.884C43.0342 120.475 44.4833 119.767 45.7545 118.802C47.0256 117.838 48.094 116.634 48.8985 115.261C49.7031 113.888 50.2281 112.372 50.4435 110.8C50.659 109.228 50.5606 107.63 50.1542 106.098L47.541 106.791C48.1794 109.198 47.8282 111.761 46.5644 113.918C45.3006 116.075 43.2278 117.648 40.8021 118.292L41.4899 120.884ZM29.5925 112.94L58.3377 105.314L57.6499 102.721L28.9047 110.347L29.5925 112.94Z" fill="white"/>
<path opacity="0.4" d="M44.2236 36.5869C46.2197 36.5869 47.71 37.3936 48.6943 39.0068C49.6787 40.6201 50.1709 42.9375 50.1709 45.959C50.1709 49.0488 49.6582 51.4004 48.6328 53.0137C47.6074 54.6133 46.124 55.4131 44.1826 55.4131C42.2822 55.4131 40.8262 54.5996 39.8145 52.9727C38.8164 51.3457 38.3174 49.0078 38.3174 45.959C38.3174 42.9102 38.8232 40.5859 39.835 38.9863C40.8604 37.3867 42.3232 36.5869 44.2236 36.5869ZM44.2236 38.2275C42.9111 38.2275 41.9062 38.8701 41.209 40.1553C40.5254 41.4404 40.1836 43.375 40.1836 45.959C40.1836 48.5293 40.5186 50.4775 41.1885 51.8037C41.8721 53.1162 42.8701 53.7725 44.1826 53.7725C45.5635 53.7725 46.5957 53.1094 47.2793 51.7832C47.9766 50.4434 48.3252 48.502 48.3252 45.959C48.3252 43.4297 47.9971 41.5088 47.3408 40.1963C46.6846 38.8838 45.6455 38.2275 44.2236 38.2275ZM62.25 37.0176L45.6182 67H43.6699L60.3018 37.0176H62.25ZM61.6553 48.6045C63.624 48.6045 65.1006 49.4111 66.085 51.0244C67.083 52.6377 67.582 54.9551 67.582 57.9766C67.582 61.0664 67.0693 63.4111 66.0439 65.0107C65.0186 66.6104 63.5352 67.4102 61.5938 67.4102C59.6934 67.4102 58.2373 66.6035 57.2256 64.9902C56.2275 63.3633 55.7285 61.0254 55.7285 57.9766C55.7285 54.9277 56.2344 52.6035 57.2461 51.0039C58.2715 49.4043 59.7412 48.6045 61.6553 48.6045ZM61.6553 50.2451C60.3291 50.2451 59.3174 50.8877 58.6201 52.1729C57.9365 53.4443 57.5947 55.3789 57.5947 57.9766C57.5947 60.5469 57.9297 62.4883 58.5996 63.8008C59.2832 65.1133 60.2812 65.7695 61.5938 65.7695C62.9746 65.7695 64.0068 65.1133 64.6904 63.8008C65.3877 62.4746 65.7363 60.5332 65.7363 57.9766C65.7363 55.4473 65.4082 53.5264 64.752 52.2139C64.0957 50.9014 63.0635 50.2451 61.6553 50.2451Z" fill="white"/>
<defs>
<clipPath id="clip0_521_456">
<rect width="111" height="145" fill="white" transform="translate(79 49)"/>
</clipPath>
</defs>
</svg>
