<svg width="52" height="52" viewBox="0 0 52 52" fill="none" xmlns="http://www.w3.org/2000/svg">
<circle cx="25.8698" cy="25.8698" r="25.8698" fill="url(#paint0_linear_234_103)" fill-opacity="0.1"/>
<path d="M31.7125 38.5C32.0445 38.5019 32.3736 38.4377 32.6805 38.3111C32.9874 38.1844 33.266 37.998 33.5 37.7625L36.8875 34.375C37.1204 34.1408 37.251 33.824 37.251 33.4938C37.251 33.1635 37.1204 32.8467 36.8875 32.6125L31.8875 27.6125C31.6533 27.3797 31.3365 27.249 31.0063 27.249C30.6761 27.249 30.3592 27.3797 30.125 27.6125L28.125 29.6C26.7404 29.2308 25.4579 28.5511 24.375 27.6125C23.4389 26.5279 22.7596 25.2461 22.3875 23.8625L24.375 21.8625C24.6079 21.6283 24.7385 21.3115 24.7385 20.9813C24.7385 20.651 24.6079 20.3342 24.375 20.1L19.375 15.1C19.1408 14.8672 18.824 14.7365 18.4938 14.7365C18.1636 14.7365 17.8467 14.8672 17.6125 15.1L14.2375 18.5C14.0021 18.7341 13.8156 19.0127 13.689 19.3196C13.5624 19.6265 13.4981 19.9555 13.5 20.2875C13.6134 25.0904 15.5326 29.6741 18.875 33.125C22.3259 36.4674 26.9097 38.3866 31.7125 38.5V38.5ZM18.5 17.7625L21.7375 21L20.125 22.6125C19.9723 22.7556 19.858 22.9347 19.7924 23.1334C19.7269 23.3322 19.7123 23.5442 19.75 23.75C20.2173 25.838 21.2064 27.7733 22.625 29.375C24.2255 30.7954 26.1613 31.7849 28.25 32.25C28.4528 32.2924 28.6628 32.2837 28.8614 32.2248C29.0599 32.1659 29.2407 32.0586 29.3875 31.9125L31 30.2625L34.2375 33.5L31.7375 36C27.5922 35.8933 23.6369 34.2389 20.65 31.3625C17.7662 28.3744 16.1071 24.4139 16 20.2625L18.5 17.7625ZM36 24.75H38.5C38.5325 23.2637 38.2636 21.7863 37.7097 20.4068C37.1558 19.0272 36.3284 17.7741 35.2772 16.7229C34.226 15.6717 32.9728 14.8442 31.5933 14.2903C30.2137 13.7364 28.7363 13.4676 27.25 13.5V16C28.4099 15.9599 29.5657 16.1588 30.6454 16.5843C31.7252 17.0098 32.7058 17.6529 33.5265 18.4736C34.3471 19.2942 34.9902 20.2749 35.4157 21.3546C35.8413 22.4344 36.0402 23.5901 36 24.75Z" fill="#F08200"/>
<path d="M27.25 21C29.875 21 31 22.125 31 24.75H33.5C33.5 20.725 31.275 18.5 27.25 18.5V21Z" fill="#F08200"/>
<defs>
<linearGradient id="paint0_linear_234_103" x1="-1.53177" y1="25.0343" x2="40.2513" y2="24.9492" gradientUnits="userSpaceOnUse">
<stop stop-color="#F58220"/>
<stop offset="1" stop-color="#F58220" stop-opacity="0"/>
</linearGradient>
</defs>
</svg>
