<svg width="210" height="188" viewBox="0 0 210 188" fill="none" xmlns="http://www.w3.org/2000/svg">
<g clip-path="url(#clip0_234_109)">
<path d="M127.914 72.0215L136.426 98.1044C136.565 98.5337 136.807 98.9224 137.131 99.2364C137.454 99.5505 137.85 99.7803 138.282 99.9058C138.715 100.031 139.172 100.049 139.613 99.9566C140.054 99.8644 140.466 99.6654 140.812 99.3769L166.236 78.3559C166.236 78.3559 139.226 67.8102 139.226 68.3797C139.226 68.9491 127.914 72.0215 127.914 72.0215Z" fill="#B37227"/>
<path d="M195.005 21.8946C178.409 28.4681 124.831 50.4664 104.544 58.8045C103.954 59.0453 103.453 59.4624 103.109 59.9989C102.764 60.5354 102.594 61.1653 102.62 61.8026C102.646 62.4399 102.868 63.0536 103.254 63.5601C103.641 64.0665 104.175 64.4411 104.782 64.6327L127.94 72.0217L136.424 98.0344C136.579 98.5179 136.862 98.9503 137.242 99.2858C137.623 99.6212 138.087 99.8472 138.585 99.9396C139.371 100.087 140.522 78.8834 140.522 78.8834C140.522 78.8834 164.83 96.9517 176.381 105.494C177.034 105.978 177.798 106.288 178.603 106.396C179.407 106.504 180.226 106.406 180.983 106.111C181.74 105.817 182.41 105.334 182.93 104.71C183.451 104.086 183.805 103.339 183.96 102.541L198.942 25.206C199.044 24.6898 199.006 24.1557 198.831 23.6593C198.657 23.163 198.353 22.7227 197.951 22.3843C197.548 22.046 197.063 21.8221 196.545 21.7359C196.027 21.6498 195.495 21.7046 195.005 21.8946Z" fill="#F08200"/>
<path d="M138.557 99.9254C139.343 100.073 140.494 78.8692 140.494 78.8692L180.493 41.2352C180.547 41.1829 180.579 41.113 180.585 41.0384C180.591 40.9638 180.57 40.8895 180.525 40.8295C180.481 40.7694 180.416 40.7275 180.343 40.7116C180.27 40.6958 180.194 40.7069 180.128 40.7431L127.926 72.0215L136.41 98.0342C136.566 98.5132 136.847 98.9415 137.225 99.2742C137.603 99.6069 138.063 99.8318 138.557 99.9254V99.9254Z" fill="#D17C18"/>
<path d="M0 150.981C27.4662 150.896 63.9778 135.38 71.311 105.585C74.2654 93.5558 71.6338 80.6761 62.1252 71.895C50.1044 60.808 36.9046 70.9389 40.1537 86.4199C45.4869 111.849 76.4829 130.712 100.047 130.944C113.661 131.098 126.44 124.56 131.338 111.188" stroke="#F08200" stroke-width="2" stroke-miterlimit="10" stroke-dasharray="5 5"/>
</g>
<ellipse rx="103" ry="93.5658" transform="matrix(-1 0 0 1 107 94.0878)" fill="url(#paint0_linear_234_109)" fill-opacity="0.1"/>
<defs>
<linearGradient id="paint0_linear_234_109" x1="-6.09873" y1="90.544" x2="160.26" y2="90.171" gradientUnits="userSpaceOnUse">
<stop stop-color="#F58220"/>
<stop offset="1" stop-color="#F58220" stop-opacity="0"/>
</linearGradient>
<clipPath id="clip0_234_109">
<rect width="199" height="130" fill="white" transform="translate(0 21.6836)"/>
</clipPath>
</defs>
</svg>
