<svg width="52" height="52" viewBox="0 0 52 52" fill="none" xmlns="http://www.w3.org/2000/svg">
<circle cx="25.8698" cy="25.8698" r="25.8698" fill="url(#paint0_linear_234_93)" fill-opacity="0.1"/>
<path d="M39 31.2907C38.9994 32.9581 38.3917 34.5753 37.2775 35.8745C36.1633 37.1738 34.6094 38.0773 32.8731 38.4354L32.0437 36.1018C32.8032 35.9845 33.5255 35.7106 34.1585 35.2999C34.7916 34.8892 35.3196 34.3519 35.7045 33.7267H32.5C31.8104 33.7267 31.1491 33.4698 30.6615 33.0125C30.1739 32.5552 29.9 31.935 29.9 31.2883V26.4114C29.9 25.7647 30.1739 25.1445 30.6615 24.6872C31.1491 24.2299 31.8104 23.973 32.5 23.973H36.3194C36.0022 21.6161 34.7788 19.4488 32.8789 17.8777C30.9789 16.3066 28.533 15.4398 26 15.4398C23.467 15.4398 21.0211 16.3066 19.1211 17.8777C17.2212 19.4488 15.9978 21.6161 15.6806 23.973H19.5C20.1896 23.973 20.8509 24.2299 21.3385 24.6872C21.8261 25.1445 22.1 25.7647 22.1 26.4114V31.2883C22.1 31.935 21.8261 32.5552 21.3385 33.0125C20.8509 33.4698 20.1896 33.7267 19.5 33.7267H15.6C14.9104 33.7267 14.2491 33.4698 13.7615 33.0125C13.2739 32.5552 13 31.935 13 31.2883V25.1922C13 18.4584 18.8201 13 26 13C33.1799 13 39 18.4584 39 25.1922V31.2907ZM36.4 31.2883V26.4114H32.5V31.2883H36.4ZM15.6 26.4114V31.2883H19.5V26.4114H15.6Z" fill="#F08200"/>
<defs>
<linearGradient id="paint0_linear_234_93" x1="-1.53177" y1="25.0343" x2="40.2513" y2="24.9492" gradientUnits="userSpaceOnUse">
<stop stop-color="#F58220"/>
<stop offset="1" stop-color="#F58220" stop-opacity="0"/>
</linearGradient>
</defs>
</svg>
