<svg width="52" height="52" viewBox="0 0 52 52" fill="none" xmlns="http://www.w3.org/2000/svg">
<circle cx="25.8698" cy="25.8698" r="25.8698" fill="url(#paint0_linear_234_88)" fill-opacity="0.1"/>
<path d="M37.25 16.625H14.75C14.2527 16.625 13.7758 16.8225 13.4242 17.1742C13.0725 17.5258 12.875 18.0027 12.875 18.5V33.5C12.875 33.9973 13.0725 34.4742 13.4242 34.8258C13.7758 35.1775 14.2527 35.375 14.75 35.375H37.25C37.7473 35.375 38.2242 35.1775 38.5758 34.8258C38.9275 34.4742 39.125 33.9973 39.125 33.5V18.5C39.125 18.0027 38.9275 17.5258 38.5758 17.1742C38.2242 16.8225 37.7473 16.625 37.25 16.625V16.625ZM35.1875 18.5L26 24.8562L16.8125 18.5H35.1875ZM14.75 33.5V19.3531L25.4656 26.7687C25.6226 26.8776 25.809 26.936 26 26.936C26.191 26.936 26.3774 26.8776 26.5344 26.7687L37.25 19.3531V33.5H14.75Z" fill="#F08200"/>
<defs>
<linearGradient id="paint0_linear_234_88" x1="-1.53177" y1="25.0343" x2="40.2513" y2="24.9492" gradientUnits="userSpaceOnUse">
<stop stop-color="#F58220"/>
<stop offset="1" stop-color="#F58220" stop-opacity="0"/>
</linearGradient>
</defs>
</svg>
