<svg width="42" height="42" viewBox="0 0 42 42" fill="none" xmlns="http://www.w3.org/2000/svg">
<circle cx="20.5635" cy="21.1973" r="20.5" fill="white" fill-opacity="0.1"/>
<g clip-path="url(#clip0_196_460)">
<path d="M23.1627 18.8234L19.6277 22.1724L17.9679 20.4771C17.9089 20.409 17.8365 20.3537 17.7553 20.3145C17.6741 20.2754 17.5857 20.2532 17.4956 20.2494C17.4056 20.2456 17.3156 20.2602 17.2314 20.2923C17.1472 20.3244 17.0704 20.3734 17.0057 20.4362C16.9411 20.4991 16.89 20.5744 16.8555 20.6577C16.821 20.741 16.8039 20.8304 16.8052 20.9205C16.8066 21.0107 16.8263 21.0996 16.8632 21.1818C16.9001 21.264 16.9534 21.3378 17.0199 21.3987L19.1368 23.5613C19.199 23.624 19.273 23.6737 19.3546 23.7076C19.4362 23.7415 19.5237 23.7588 19.6121 23.7586C19.7815 23.7578 19.9445 23.694 20.0692 23.5795L24.0926 19.7866C24.2204 19.6633 24.294 19.4944 24.2971 19.3169C24.3003 19.1394 24.2328 18.968 24.1095 18.8403C23.9862 18.7125 23.8172 18.639 23.6396 18.6358C23.4621 18.6327 23.2905 18.7001 23.1627 18.8234Z" fill="#f58220"/>
<path d="M30.953 20.877L29.5893 18.7845L29.7296 16.2792C29.7359 16.165 29.7088 16.0514 29.6516 15.9523C29.5944 15.8531 29.5096 15.7728 29.4075 15.7211L27.1763 14.5943L26.0465 12.3721C25.9964 12.2702 25.9182 12.1847 25.8211 12.1258C25.7239 12.0669 25.612 12.0371 25.4984 12.0398L22.9893 12.1748L20.9114 10.7936C20.8146 10.7314 20.7019 10.6982 20.5867 10.6982C20.4716 10.6982 20.3589 10.7314 20.2621 10.7936L18.1841 12.1748L15.6776 12.0372C15.556 12.0244 15.4334 12.0498 15.3268 12.1098C15.2202 12.1698 15.135 12.2615 15.0828 12.3721L13.9556 14.6021L11.7322 15.7185C11.6302 15.7685 11.5447 15.8467 11.4858 15.9438C11.4269 16.0408 11.397 16.1527 11.3997 16.2662L11.54 18.7715L10.1582 20.8718C10.0945 20.9675 10.0605 21.08 10.0605 21.195C10.0605 21.31 10.0945 21.4224 10.1582 21.5182L11.5348 23.6133L11.3971 26.1315C11.394 26.2447 11.4241 26.3564 11.4836 26.4528C11.5432 26.5492 11.6295 26.6261 11.7322 26.6741L13.9634 27.8034L15.0802 30.0257C15.1304 30.1273 15.2088 30.2124 15.3059 30.2709C15.4031 30.3293 15.515 30.3586 15.6283 30.3554L18.1348 30.2178L20.2283 31.5989C20.3237 31.6626 20.4357 31.6969 20.5504 31.6976C20.6658 31.6966 20.7786 31.6624 20.875 31.5989L22.966 30.2178L25.4725 30.358C25.5892 30.3649 25.7053 30.3371 25.8061 30.2779C25.907 30.2187 25.9879 30.1309 26.0387 30.0257L27.166 27.7956L29.3945 26.6741C29.4947 26.6237 29.5786 26.546 29.6365 26.45C29.6944 26.354 29.724 26.2436 29.7218 26.1315L29.5815 23.6262L30.9634 21.5493C31.0312 21.4499 31.0665 21.3319 31.0647 21.2115C31.0628 21.0912 31.0238 20.9743 30.953 20.877ZM28.4049 23.4887L28.5322 25.8044L26.4699 26.8428C26.3573 26.8988 26.2661 26.9899 26.2101 27.1024L25.1712 29.1612L22.8517 29.034C22.7264 29.0291 22.6025 29.0616 22.4958 29.1274L20.5634 30.4073L18.6335 29.1326C18.5369 29.0671 18.423 29.0318 18.3062 29.0314H18.2802L15.9582 29.1612L14.9192 27.0843C14.8619 26.9727 14.7711 26.8819 14.6595 26.8247L12.5815 25.7862L12.7114 23.4679C12.715 23.3425 12.6816 23.2188 12.6153 23.1122L11.3504 21.1989L12.6257 19.2674C12.6984 19.1627 12.7324 19.0361 12.7218 18.9091L12.5919 16.5934L14.6699 15.5549C14.7827 15.4993 14.874 15.4081 14.9296 15.2953L15.9686 13.234L18.288 13.3638C18.4136 13.3685 18.5377 13.335 18.6439 13.2677L20.5634 11.9904L22.4958 13.2651C22.6004 13.338 22.7272 13.372 22.8543 13.3612L25.1712 13.2314L26.2101 15.3083C26.2661 15.4208 26.3573 15.512 26.4699 15.5679L28.5296 16.6063L28.4023 18.9247C28.3978 19.0498 28.4303 19.1736 28.4958 19.2803L29.7763 21.1989L28.4984 23.1304C28.4276 23.2358 28.3946 23.3621 28.4049 23.4887Z" fill="white"/>
</g>
<defs>
<clipPath id="clip0_196_460">
<rect width="21" height="21" fill="white" transform="translate(10.0635 10.6973)"/>
</clipPath>
</defs>
</svg>
