<svg width="61" height="61" viewBox="0 0 61 61" fill="none" xmlns="http://www.w3.org/2000/svg">
<circle cx="30.0801" cy="30.6924" r="30" fill="url(#paint0_linear_196_464)" fill-opacity="0.1"/>
<path d="M14.827 43.3974H18.8126C19.0102 43.3974 19.1997 43.3146 19.3394 43.1673C19.4791 43.02 19.5576 42.8202 19.5576 42.6119V41.8263L34.4572 46.4061C34.9993 46.5728 35.5612 46.6574 36.1259 46.6574C37.2191 46.6569 38.2915 46.3433 39.2288 45.7501L44.8906 42.1405C45.4525 41.7683 45.8536 41.1788 46.0081 40.4984C46.1626 39.8179 46.0581 39.1008 45.717 38.5006C45.3759 37.9005 44.8254 37.4652 44.1835 37.288C43.5416 37.1109 42.8594 37.206 42.2832 37.5529L37.7314 40.4202L34.4535 39.399C34.9468 39.2879 35.3951 39.0179 35.7364 38.6263C36.0778 38.2346 36.2952 37.7408 36.3586 37.2132C36.422 36.6855 36.3283 36.1501 36.0904 35.6811C35.8525 35.2121 35.4822 34.8327 35.0308 34.5953L31.697 32.8357C29.8537 31.8686 27.8452 31.3008 25.7903 31.1659C23.7353 31.031 21.6756 31.3316 19.7327 32.0502L19.5502 32.1169V31.0761C19.5502 30.8677 19.4717 30.6679 19.332 30.5206C19.1923 30.3733 19.0028 30.2905 18.8052 30.2905H14.827C14.6294 30.2905 14.4399 30.3733 14.3002 30.5206C14.1605 30.6679 14.082 30.8677 14.082 31.0761V42.6119C14.082 42.8202 14.1605 43.02 14.3002 43.1673C14.4399 43.3146 14.6294 43.3974 14.827 43.3974ZM20.2393 33.5545C21.9929 32.9041 23.8525 32.6312 25.7079 32.752C27.5634 32.8728 29.377 33.3847 31.0415 34.2575L34.3715 36.0211C34.5628 36.1204 34.7166 36.2851 34.8076 36.4884C34.8986 36.6917 34.9216 36.9216 34.8727 37.1404C34.8239 37.3593 34.7061 37.5542 34.5386 37.6933C34.3711 37.8324 34.1638 37.9076 33.9506 37.9064H29.4807C29.3032 37.9086 29.1323 37.9774 28.9987 38.1007C28.8651 38.2239 28.7776 38.3934 28.752 38.5786C28.7264 38.7638 28.7644 38.9526 28.8591 39.1109C28.9537 39.2692 29.0989 39.3867 29.2684 39.4422L37.6196 42.0463C37.7184 42.0764 37.822 42.0846 37.9239 42.0704C38.0259 42.0562 38.1239 42.0199 38.2119 41.9638L43.0542 38.9198C43.2259 38.8128 43.4228 38.7596 43.622 38.7662C43.8213 38.7729 44.0146 38.8392 44.1794 38.9574C44.3443 39.0756 44.4738 39.2408 44.5529 39.4338C44.632 39.6267 44.6574 39.8394 44.6261 40.047C44.603 40.2077 44.547 40.3611 44.4621 40.4967C44.3772 40.6324 44.2654 40.7469 44.1345 40.8326L38.4726 44.4186C37.9399 44.7569 37.3466 44.9755 36.73 45.0606C36.1133 45.1458 35.4867 45.0957 34.8893 44.9135L19.5576 40.2002V33.8098L20.2393 33.5545ZM15.572 31.8616H18.0677V41.8263H15.572V31.8616Z" fill="#666666"/>
<path d="M37.8193 14.7266L40.5863 19.1769L45.6739 20.4332L42.2964 24.4401L42.6737 29.6669L37.8193 27.6929L32.9649 29.6669L33.3422 24.4401L29.9648 20.4332L35.0523 19.1769L37.8193 14.7266Z" stroke="#f58220" stroke-width="1.5" stroke-linejoin="round"/>
<defs>
<linearGradient id="paint0_linear_196_464" x1="-1.69625" y1="29.7235" x2="46.7577" y2="29.6248" gradientUnits="userSpaceOnUse">
<stop stop-color="#F58220"/>
<stop offset="1" stop-color="#F58220" stop-opacity="0"/>
</linearGradient>
</defs>
</svg>
