<svg width="60" height="61" viewBox="0 0 60 61" fill="none" xmlns="http://www.w3.org/2000/svg">
<circle cx="30" cy="30.2256" r="30" fill="url(#paint0_linear_196_463)" fill-opacity="0.1"/>
<g clip-path="url(#clip0_196_463)">
<path d="M42.4843 27.7126C41.9744 27.7141 41.4786 27.8811 41.0706 28.1887C40.6627 28.4963 40.3644 28.9281 40.2202 29.4198H36.1636V26.7957H38.3963C38.5792 26.7941 38.7542 26.7203 38.8836 26.5902C39.013 26.4601 39.0864 26.2841 39.0881 26.1002V23.4444C39.4713 23.3391 39.819 23.1316 40.0944 22.8437C40.3136 22.6239 40.4875 22.3627 40.6062 22.0752C40.7249 21.7876 40.7861 21.4794 40.7862 21.1681C40.7905 20.7219 40.6712 20.2833 40.4416 19.9014C40.212 19.5196 39.8812 19.2095 39.4862 19.0061C39.0912 18.8026 38.6476 18.7137 38.2052 18.7494C37.7628 18.7851 37.339 18.9439 36.9813 19.2081C36.6237 19.4723 36.3462 19.8314 36.1801 20.2452C36.014 20.659 35.9658 21.1111 36.0409 21.5509C36.1159 21.9907 36.3113 22.4008 36.6051 22.7352C36.899 23.0697 37.2796 23.3152 37.7044 23.4444V25.4046H35.9434C35.7492 24.9366 35.4217 24.5368 35.002 24.2555C34.5824 23.9742 34.0893 23.824 33.5849 23.8238H30.5661V21.2945C31.1148 21.1277 31.5856 20.7681 31.8926 20.2814C32.1996 19.7947 32.3223 19.2132 32.2385 18.643C32.1546 18.0729 31.8697 17.5521 31.4357 17.1755C31.0017 16.799 30.4475 16.5918 29.8742 16.5918C29.301 16.5918 28.7468 16.799 28.3128 17.1755C27.8788 17.5521 27.5939 18.0729 27.51 18.643C27.4261 19.2132 27.5489 19.7947 27.8559 20.2814C28.1629 20.7681 28.6337 21.1277 29.1824 21.2945V23.8238H26.1635C25.6592 23.824 25.1661 23.9742 24.7464 24.2555C24.3268 24.5368 23.9992 24.9366 23.8051 25.4046H22.0441V23.4444C22.5928 23.2776 23.0636 22.918 23.3706 22.4313C23.6776 21.9445 23.8003 21.3631 23.7164 20.7929C23.6326 20.2228 23.3477 19.7019 22.9137 19.3254C22.4797 18.9488 21.9255 18.7417 21.3522 18.7417C20.779 18.7417 20.2248 18.9488 19.7908 19.3254C19.3568 19.7019 19.0719 20.2228 18.988 20.7929C18.9041 21.3631 19.0269 21.9445 19.3339 22.4313C19.6409 22.918 20.1117 23.2776 20.6604 23.4444V26.1002C20.662 26.2841 20.7355 26.4601 20.8648 26.5902C20.9942 26.7203 21.1693 26.7941 21.3522 26.7957H23.5849V29.4198H19.6541C19.4882 28.8682 19.1305 28.3948 18.6464 28.0862C18.1623 27.7775 17.5839 27.6541 17.0168 27.7384C16.4497 27.8228 15.9317 28.1092 15.5571 28.5455C15.1826 28.9819 14.9766 29.539 14.9766 30.1154C14.9766 30.6917 15.1826 31.2489 15.5571 31.6852C15.9317 32.1216 16.4497 32.408 17.0168 32.4923C17.5839 32.5767 18.1623 32.4532 18.6464 32.1446C19.1305 31.8359 19.4882 31.3626 19.6541 30.8109H23.7107V33.4351H21.478C21.295 33.4367 21.12 33.5105 20.9906 33.6406C20.8612 33.7707 20.7878 33.9466 20.7862 34.1306V36.818C20.2375 36.9848 19.7667 37.3444 19.4597 37.8311C19.1527 38.3178 19.0299 38.8993 19.1138 39.4695C19.1977 40.0396 19.4826 40.5604 19.9166 40.937C20.3506 41.3135 20.9048 41.5207 21.478 41.5207C22.0513 41.5207 22.6054 41.3135 23.0394 40.937C23.4734 40.5604 23.7584 40.0396 23.8422 39.4695C23.9261 38.8993 23.8033 38.3178 23.4963 37.8311C23.1893 37.3444 22.7186 36.9848 22.1698 36.818V34.8262H23.9308C24.125 35.2942 24.4526 35.694 24.8722 35.9753C25.2919 36.2565 25.785 36.4067 26.2893 36.407H29.3082V38.9362C28.7595 39.1031 28.2887 39.4626 27.9817 39.9494C27.6747 40.4361 27.5519 41.0176 27.6358 41.5877C27.7197 42.1579 28.0046 42.6787 28.4386 43.0553C28.8726 43.4318 29.4268 43.639 30 43.639C30.5733 43.639 31.1275 43.4318 31.5615 43.0553C31.9955 42.6787 32.2804 42.1579 32.3642 41.5877C32.4481 41.0176 32.3254 40.4361 32.0184 39.9494C31.7114 39.4626 31.2406 39.1031 30.6919 38.9362V36.407H33.7107C34.2151 36.4067 34.7082 36.2565 35.1278 35.9753C35.5475 35.694 35.875 35.2942 36.0692 34.8262H37.8302V36.818C37.2815 36.9848 36.8107 37.3444 36.5037 37.8311C36.1967 38.3178 36.0739 38.8993 36.1578 39.4695C36.2417 40.0396 36.5266 40.5604 36.9606 40.937C37.3946 41.3135 37.9488 41.5207 38.522 41.5207C39.0953 41.5207 39.6495 41.3135 40.0835 40.937C40.5175 40.5604 40.8024 40.0396 40.8863 39.4695C40.9701 38.8993 40.8474 38.3178 40.5404 37.8311C40.2334 37.3444 39.7626 36.9848 39.2139 36.818V34.1306C39.2122 33.9466 39.1388 33.7707 39.0094 33.6406C38.88 33.5105 38.705 33.4367 38.522 33.4351H36.2893V30.8109H40.3459C40.5104 31.3609 40.8663 31.833 41.3486 32.1408C41.8308 32.4486 42.4072 32.5716 42.9722 32.4871C43.5373 32.4027 44.0532 32.1165 44.4255 31.681C44.7979 31.2455 45.0018 30.6897 45 30.1154C44.9567 29.4707 44.6741 28.8659 44.2081 28.4208C43.7422 27.9758 43.1269 27.723 42.4843 27.7126ZM37.39 21.1681C37.39 20.8998 37.496 20.6424 37.6847 20.4527C37.8734 20.263 38.1294 20.1564 38.3963 20.1564C38.6631 20.1564 38.9191 20.263 39.1078 20.4527C39.2965 20.6424 39.4025 20.8998 39.4025 21.1681C39.3954 21.4362 39.2953 21.6934 39.1195 21.8952C39.024 21.9889 38.9108 22.0624 38.7866 22.1112C38.6624 22.1601 38.5296 22.1834 38.3963 22.1798C38.1299 22.1781 37.8749 22.071 37.6865 21.8816C37.4982 21.6923 37.3916 21.4359 37.39 21.1681ZM28.9308 19.0182C28.9308 18.8181 28.9899 18.6225 29.1004 18.4561C29.211 18.2897 29.3682 18.1601 29.552 18.0835C29.7359 18.0069 29.9383 17.9869 30.1335 18.0259C30.3287 18.065 30.508 18.1613 30.6487 18.3028C30.7894 18.4443 30.8853 18.6246 30.9241 18.8208C30.9629 19.0171 30.943 19.2205 30.8668 19.4054C30.7907 19.5902 30.6617 19.7482 30.4962 19.8594C30.3307 19.9706 30.1362 20.0299 29.9371 20.0299C29.8038 20.0343 29.671 20.0111 29.5469 19.9619C29.4229 19.9126 29.3102 19.8382 29.2158 19.7434C29.1215 19.6485 29.0476 19.5352 28.9985 19.4105C28.9495 19.2858 28.9265 19.1522 28.9308 19.0182ZM20.4403 21.1681C20.4403 20.968 20.4993 20.7724 20.6099 20.606C20.7204 20.4396 20.8776 20.31 21.0615 20.2334C21.2454 20.1568 21.4477 20.1368 21.6429 20.1758C21.8381 20.2148 22.0174 20.3112 22.1581 20.4527C22.2989 20.5942 22.3947 20.7745 22.4335 20.9707C22.4724 21.167 22.4524 21.3704 22.3763 21.5552C22.3001 21.7401 22.1711 21.8981 22.0056 22.0093C21.8401 22.1205 21.6456 22.1798 21.4466 22.1798C21.1802 22.1781 20.9252 22.071 20.7368 21.8816C20.5485 21.6923 20.4419 21.4359 20.4403 21.1681ZM17.39 31.1271C17.1236 31.1254 16.8686 31.0183 16.6802 30.8289C16.4919 30.6396 16.3853 30.3832 16.3837 30.1154C16.3908 29.8493 16.4991 29.5962 16.6863 29.408C16.8735 29.2198 17.1253 29.1109 17.39 29.1037C17.6568 29.1037 17.9128 29.2103 18.1015 29.4C18.2902 29.5897 18.3963 29.8471 18.3963 30.1154C18.3963 30.3837 18.2902 30.641 18.1015 30.8308C17.9128 31.0205 17.6568 31.1271 17.39 31.1271ZM22.4843 39.0311C22.4843 39.2312 22.4253 39.4268 22.3147 39.5932C22.2041 39.7595 22.047 39.8892 21.8631 39.9658C21.6792 40.0423 21.4769 40.0624 21.2817 40.0233C21.0865 39.9843 20.9072 39.888 20.7665 39.7465C20.6257 39.605 20.5299 39.4247 20.4911 39.2284C20.4522 39.0322 20.4722 38.8288 20.5483 38.6439C20.6245 38.459 20.7535 38.301 20.919 38.1899C21.0844 38.0787 21.279 38.0194 21.478 38.0194C21.7426 38.0265 21.9945 38.1354 22.1817 38.3236C22.3688 38.5118 22.4772 38.765 22.4843 39.0311ZM30.9434 41.1493C30.9418 41.4172 30.8352 41.6735 30.6469 41.8629C30.4585 42.0523 30.2035 42.1594 29.9371 42.1611C29.8045 42.1628 29.6729 42.1377 29.5501 42.0875C29.4272 42.0373 29.3156 41.9628 29.2218 41.8685C29.128 41.7742 29.054 41.662 29.004 41.5385C28.954 41.415 28.9292 41.2827 28.9308 41.1493C28.9325 40.8815 29.039 40.6252 29.2274 40.4358C29.4158 40.2464 29.6708 40.1393 29.9371 40.1376C30.0705 40.1332 30.2033 40.1564 30.3273 40.2057C30.4514 40.255 30.5641 40.3293 30.6584 40.4242C30.7528 40.519 30.8267 40.6323 30.8757 40.757C30.9248 40.8818 30.9478 41.0153 30.9434 41.1493ZM39.434 39.0311C39.434 39.2312 39.375 39.4268 39.2644 39.5932C39.1538 39.7595 38.9967 39.8892 38.8128 39.9658C38.6289 40.0423 38.4266 40.0624 38.2314 40.0233C38.0362 39.9843 37.8569 39.888 37.7162 39.7465C37.5754 39.605 37.4796 39.4247 37.4408 39.2284C37.4019 39.0322 37.4219 38.8288 37.498 38.6439C37.5742 38.459 37.7032 38.301 37.8686 38.1899C38.0341 38.0787 38.2287 38.0194 38.4277 38.0194C38.6923 38.0265 38.9442 38.1354 39.1313 38.3236C39.3185 38.5118 39.4268 38.765 39.434 39.0311ZM34.8113 33.7828C34.8113 34.1015 34.6855 34.407 34.4614 34.6324C34.2373 34.8577 33.9333 34.9842 33.6164 34.9842H26.2579C25.941 34.9842 25.637 34.8577 25.4129 34.6324C25.1888 34.407 25.0629 34.1015 25.0629 33.7828V26.3847C25.0629 26.0661 25.1888 25.7605 25.4129 25.5352C25.637 25.3099 25.941 25.1833 26.2579 25.1833H33.6478C33.9648 25.1833 34.2687 25.3099 34.4928 25.5352C34.7169 25.7605 34.8428 26.0661 34.8428 26.3847V33.7828H34.8113ZM42.4843 31.1271C42.2179 31.1254 41.9629 31.0183 41.7746 30.8289C41.5862 30.6396 41.4797 30.3832 41.478 30.1154C41.4852 29.8493 41.5935 29.5962 41.7807 29.408C41.9679 29.2198 42.2197 29.1109 42.4843 29.1037C42.7512 29.1037 43.0071 29.2103 43.1959 29.4C43.3846 29.5897 43.4906 29.8471 43.4906 30.1154C43.4906 30.3837 43.3846 30.641 43.1959 30.8308C43.0071 31.0205 42.7512 31.1271 42.4843 31.1271Z" fill="#666666"/>
<path d="M31.6349 28.0917L29.2764 30.5893L28.2072 29.4828C28.0821 29.3486 27.9091 29.2699 27.7263 29.264C27.5435 29.258 27.3658 29.3254 27.2324 29.4511C27.0989 29.5769 27.0207 29.7508 27.0148 29.9346C27.0089 30.1184 27.0758 30.2971 27.2009 30.4312L28.7418 32.0753C28.8752 32.211 29.0553 32.2902 29.245 32.2966C29.34 32.3003 29.4347 32.2824 29.5218 32.2441C29.609 32.2057 29.6863 32.148 29.7481 32.0753L32.6097 29.0401C32.7335 28.9053 32.7996 28.727 32.7938 28.5436C32.7879 28.3602 32.7105 28.1865 32.5783 28.06C32.447 27.9428 32.2759 27.8807 32.1003 27.8866C31.9248 27.8925 31.7582 27.9659 31.6349 28.0917Z" fill="#f58220"/>
</g>
<defs>
<linearGradient id="paint0_linear_196_463" x1="-1.77633" y1="29.2567" x2="46.6776" y2="29.158" gradientUnits="userSpaceOnUse">
<stop stop-color="#F58220"/>
<stop offset="1" stop-color="#F58220" stop-opacity="0"/>
</linearGradient>
<clipPath id="clip0_196_463">
<rect width="30" height="27" fill="white" transform="translate(15 16.6152)"/>
</clipPath>
</defs>
</svg>
