<svg width="42" height="42" viewBox="0 0 42 42" fill="none" xmlns="http://www.w3.org/2000/svg">
<circle cx="20.5635" cy="21.1973" r="20.5" fill="white" fill-opacity="0.1"/>
<path d="M28.8355 11.9389C27.5279 11.538 26.1946 11.2335 24.8457 11.0277L24.5383 10.9877L24.2238 10.9441L23.7033 10.8679C23.3959 10.8316 23.0989 10.8062 22.7914 10.7844L22.3687 10.7481C22.0194 10.7263 21.6385 10.7045 21.2752 10.6973C21.1389 10.6973 21.0027 10.6973 20.8595 10.6973H20.2306C20.1013 10.6973 19.9721 10.6973 19.8428 10.6973C19.7135 10.6973 19.6227 10.6973 19.5144 10.6973L19.0288 10.719H18.9834C18.8541 10.719 18.7178 10.719 18.5886 10.7481C18.4593 10.7771 18.3335 10.7481 18.2113 10.7771C18.089 10.8062 17.9318 10.7989 17.7955 10.8134C15.9273 10.9955 14.0808 11.3676 12.2825 11.9244C11.9583 12.0226 11.6739 12.2284 11.4727 12.5102C11.2714 12.7921 11.1645 13.1346 11.1681 13.4856V19.7121C11.1641 21.5272 11.6705 23.304 12.6249 24.8241C13.1998 25.7285 13.8498 26.5789 14.5674 27.3655C16.1587 29.1208 18.0678 30.5322 20.1852 31.519C20.2243 31.5408 20.2652 31.559 20.3075 31.5734L20.566 31.6969L20.8245 31.5734C20.8667 31.559 20.9077 31.5408 20.9468 31.519C23.062 30.5363 24.9707 29.1312 26.5646 27.3837C27.2822 26.5971 27.9322 25.7467 28.5071 24.8422C28.939 24.1529 29.2809 23.4069 29.5237 22.6239C29.8144 21.6854 29.9617 20.7053 29.9604 19.7194V13.4929C29.9584 13.1426 29.8479 12.8024 29.6453 12.5225C29.4427 12.2426 29.1587 12.038 28.8355 11.9389ZM28.6503 19.7194C28.6516 20.4553 28.5576 21.188 28.3708 21.8978C28.1609 22.6768 27.8394 23.4185 27.417 24.098C26.8828 24.9417 26.2797 25.7361 25.6143 26.4724C24.2147 28.013 22.5483 29.2656 20.7022 30.1647L20.566 30.2265L20.4228 30.1647C18.5764 29.2645 16.9099 28.0106 15.5107 26.4688C14.8439 25.7351 14.2406 24.9418 13.7079 24.098C13.28 23.4216 12.958 22.679 12.7542 21.8978C12.5674 21.188 12.4734 20.4553 12.4747 19.7194V13.5001C12.4725 13.4398 12.49 13.3805 12.5242 13.3318C12.5584 13.2831 12.6074 13.2477 12.6633 13.2315C13.6018 12.9373 14.5546 12.695 15.5177 12.5053L15.7692 12.4581C15.8705 12.4363 15.9788 12.4146 16.0836 12.4C16.3771 12.3492 16.6636 12.3093 16.957 12.2657L17.4392 12.2003L17.8654 12.1532C18.0471 12.1314 18.2322 12.1168 18.4174 12.1023L18.8995 12.066C19.2279 12.0442 19.5493 12.0333 19.8777 12.0261H20.3669H21.097C21.2333 12.0261 21.3695 12.0261 21.5023 12.0261C21.7119 12.0261 21.925 12.0261 22.1346 12.0515C22.2779 12.0515 22.4211 12.0515 22.5713 12.0805C22.9207 12.1023 23.2421 12.1386 23.567 12.1749C23.7345 12.1861 23.9013 12.2067 24.0666 12.2367C24.5627 12.302 25.0623 12.3783 25.5549 12.4799C25.8798 12.5416 26.2082 12.607 26.5366 12.6832C26.8651 12.7595 27.19 12.8393 27.5114 12.9265C27.8328 13.0136 28.1612 13.1007 28.4826 13.2024C28.5385 13.2187 28.5875 13.254 28.6218 13.3028C28.656 13.3515 28.6734 13.4108 28.6713 13.4711V19.7194H28.6503Z" fill="white"/>
<path d="M19.6298 24.0445L15.8427 20.5772C15.7787 20.5176 15.7266 20.4455 15.6894 20.365C15.6522 20.2845 15.6307 20.1971 15.626 20.1079C15.6213 20.0188 15.6335 19.9295 15.662 19.8453C15.6905 19.761 15.7347 19.6834 15.792 19.6169C15.8494 19.5504 15.9188 19.4963 15.9963 19.4576C16.0737 19.419 16.1578 19.3966 16.2436 19.3917C16.3294 19.3868 16.4153 19.3995 16.4964 19.4291C16.5774 19.4587 16.6521 19.5046 16.7161 19.5642L19.5949 22.1928L24.4022 17.2007C24.5248 17.0815 24.6872 17.0166 24.8551 17.0196C25.023 17.0227 25.1831 17.0936 25.3016 17.2172C25.4201 17.3408 25.4876 17.5075 25.49 17.6819C25.4923 17.8564 25.4292 18.025 25.314 18.1519L19.6298 24.0445Z" fill="#F58220"/>
</svg>
