<svg width="42" height="42" viewBox="0 0 42 42" fill="none" xmlns="http://www.w3.org/2000/svg">
<circle cx="20.5635" cy="21.1973" r="20.5" fill="white" fill-opacity="0.1"/>
<g clip-path="url(#clip0_196_458)">
<path d="M18.9821 10.6973C18.108 10.6948 17.2564 10.9835 16.5536 11.5207C15.8509 12.0578 15.3344 12.8148 15.0809 13.6792C14.8274 14.5437 14.8504 15.4695 15.1464 16.3194C15.4423 17.1693 15.9956 17.898 16.724 18.3973V17.1793C16.2884 16.7198 15.9937 16.1377 15.8769 15.5058C15.7602 14.874 15.8265 14.2206 16.0677 13.6276C16.3088 13.0346 16.714 12.5283 17.2325 12.1723C17.751 11.8163 18.3596 11.6264 18.9821 11.6264C19.6046 11.6264 20.2132 11.8163 20.7317 12.1723C21.2502 12.5283 21.6554 13.0346 21.8965 13.6276C22.1377 14.2206 22.2041 14.874 22.0873 15.5058C21.9705 16.1377 21.6758 16.7198 21.2402 17.1793V18.3973C21.9686 17.898 22.5219 17.1693 22.8179 16.3194C23.1138 15.4695 23.1368 14.5437 22.8833 13.6792C22.6298 12.8148 22.1133 12.0578 21.4106 11.5207C20.7078 10.9835 19.8562 10.6948 18.9821 10.6973Z" fill="#f58220"/>
<path d="M27.3735 22.7584C27.1477 21.8414 26.5132 21.076 25.5806 20.964C25.3622 20.9614 25.1442 20.9833 24.9303 21.0294C24.8343 20.7625 24.6686 20.5283 24.4516 20.3527C24.1755 20.1427 23.8415 20.0299 23.4987 20.0307C23.2364 20.0402 22.983 20.1312 22.7716 20.292C22.6867 20.1383 22.5767 20.0009 22.4464 19.886C22.1617 19.6727 21.8181 19.5598 21.4664 19.564C21.2325 19.5708 21.0023 19.6255 20.789 19.725V15.8307C20.7924 15.5846 20.7479 15.3403 20.6583 15.1123C20.5687 14.8843 20.4358 14.6771 20.2674 14.5031C20.099 14.3291 19.8985 14.1917 19.6778 14.0991C19.4571 14.0065 19.2207 13.9606 18.9826 13.964C18.5035 13.964 18.044 14.1607 17.7052 14.5108C17.3664 14.8609 17.1761 15.3356 17.1761 15.8307V22.2544C16.8961 21.629 16.3948 20.9547 15.7648 20.789C14.909 20.5557 13.859 21.2557 13.6197 22.0794C13.4977 22.546 13.5768 23.0594 13.8161 23.6987C14.9903 26.613 16.4355 29.413 18.1922 31.5364C18.2344 31.5866 18.2864 31.6269 18.3448 31.6547C18.4032 31.6824 18.4667 31.697 18.531 31.6974H24.6277C24.7249 31.6962 24.8192 31.6627 24.8964 31.6017C25.5468 31.1047 26.0706 30.2577 26.5042 29.2474C26.955 28.1857 27.2708 27.068 27.4435 25.9224C27.6272 24.8737 27.6034 23.7973 27.3735 22.7584ZM26.5471 25.7754C26.3866 26.8406 26.0952 27.8803 25.68 28.8694C25.4 29.5827 24.9793 30.2279 24.4448 30.764H18.7568C17.1761 28.832 15.6564 25.864 14.6697 23.3627C14.4642 22.8167 14.4439 22.504 14.4935 22.3267C14.5741 22.1165 14.7196 21.9396 14.9074 21.8236C15.0953 21.7076 15.3149 21.6589 15.5322 21.685C16.011 21.8717 16.1306 22.203 16.3361 22.5834L17.2393 24.45C17.289 24.5368 17.3644 24.6046 17.4544 24.6433C17.5445 24.682 17.6442 24.6896 17.7387 24.665C17.8332 24.6403 17.9175 24.5846 17.9789 24.5064C18.0403 24.4281 18.0755 24.3314 18.0793 24.2307V15.8307C18.0793 15.5832 18.1745 15.3458 18.3439 15.1707C18.5133 14.9957 18.743 14.8974 18.9826 14.8974C19.2221 14.8974 19.4519 14.9957 19.6212 15.1707C19.7906 15.3458 19.8858 15.5832 19.8858 15.8307V20.7307C19.8857 20.838 19.9203 20.9422 19.9842 21.0267C20.048 21.1113 20.1374 21.1714 20.2381 21.1974C20.3381 21.2209 20.4429 21.2086 20.5353 21.1624C20.6276 21.1161 20.702 21.0388 20.7461 20.943C20.8263 20.8178 20.9326 20.7127 21.0573 20.6356C21.1819 20.5585 21.3218 20.5112 21.4664 20.4974C21.627 20.5016 21.7833 20.5516 21.9181 20.642C22.0016 20.7041 22.0669 20.7888 22.1068 20.8868C22.1466 20.9848 22.1594 21.0923 22.1439 21.1974C22.144 21.3021 22.1781 21.4037 22.2409 21.4859C22.3036 21.5681 22.3913 21.6261 22.4898 21.6506C22.5883 21.6751 22.6919 21.6647 22.784 21.621C22.876 21.5773 22.9512 21.5029 22.9974 21.4097C23.1803 21.0294 23.2729 20.964 23.4987 20.964C23.6494 20.9763 23.795 21.0259 23.9232 21.1087C24.0115 21.1675 24.0821 21.2507 24.1268 21.3489C24.1715 21.4471 24.1886 21.5563 24.1761 21.664C24.1756 21.7549 24.2008 21.8439 24.2485 21.9201C24.2962 21.9964 24.3645 22.0566 24.4448 22.0934C24.5264 22.1285 24.6159 22.1391 24.703 22.1238C24.7902 22.1085 24.8713 22.0681 24.9371 22.007C25.1109 21.922 25.3029 21.8842 25.4948 21.8974C26.0345 21.9674 26.3145 22.3174 26.5042 23.0127C26.6939 23.708 26.7052 24.7207 26.5471 25.7754Z" fill="white"/>
</g>
<defs>
<clipPath id="clip0_196_458">
<rect width="14" height="21" fill="white" transform="translate(13.5635 10.6973)"/>
</clipPath>
</defs>
</svg>
