<svg width="60" height="61" viewBox="0 0 60 61" fill="none" xmlns="http://www.w3.org/2000/svg">
<circle cx="30" cy="30.6924" r="30" fill="url(#paint0_linear_131_404)" fill-opacity="0.1"/>
<path fill-rule="evenodd" clip-rule="evenodd" d="M36.1855 30.3685C36.3195 30.4883 36.4025 30.6556 36.4172 30.8355C36.4241 30.935 36.409 31.0348 36.3729 31.1277C36.3369 31.2206 36.2808 31.3042 36.2087 31.3725L33.8691 33.8008C33.8042 33.8723 33.7256 33.9299 33.638 33.97C33.5504 34.0101 33.4557 34.032 33.3595 34.0343C33.2716 34.0371 33.1841 34.0196 33.1038 33.9832C33.0235 33.9467 32.9526 33.8924 32.8963 33.8241C32.8269 33.7689 32.7718 33.6976 32.7355 33.6163C32.6992 33.535 32.6828 33.4462 32.6878 33.3572C32.68 33.2666 32.6926 33.1755 32.7247 33.0906C32.7568 33.0057 32.8075 32.9292 32.8731 32.8668L35.1895 30.4152C35.2478 30.3495 35.3192 30.2968 35.399 30.2606C35.4788 30.2244 35.5652 30.2055 35.6528 30.2051C35.748 30.1867 35.8464 30.192 35.9392 30.2204C36.032 30.2489 36.1165 30.2997 36.1855 30.3685Z" fill="#f58220"/>
<path fill-rule="evenodd" clip-rule="evenodd" d="M49.5037 35.9028L45.1952 31.5132C45.0688 31.3923 44.9055 31.3182 44.7319 31.3031C44.6444 31.3035 44.558 31.3224 44.4782 31.3586C44.3984 31.3948 44.327 31.4475 44.2686 31.5132L43.7127 32.0502L41.3963 29.8088L42.0218 29.1783C42.2235 28.9838 42.3688 28.7376 42.4423 28.4661C42.5157 28.1947 42.5145 27.9082 42.4387 27.6373C42.3324 27.0652 42.0485 26.5419 41.628 26.143L41.5122 26.0496C41.2416 25.7874 40.9281 25.5741 40.5856 25.4192C40.8506 25.0024 40.9801 24.5127 40.9562 24.0183C40.9275 23.4069 40.6807 22.8265 40.2613 22.3839L40.1223 22.2671C39.7694 21.9737 39.3589 21.7589 38.9178 21.6367C38.9823 21.4572 39.0137 21.2673 39.0105 21.0763C39.0429 21.0437 39.0429 21.0297 39.0105 21.0297C39.011 20.3862 38.7806 19.7642 38.3619 19.2785L38.2229 19.1618C37.8407 18.8038 37.3524 18.5823 36.8331 18.5313C36.8689 18.3864 36.8845 18.237 36.8794 18.0877C36.8767 17.761 36.8098 17.438 36.6825 17.1374C36.5553 16.8369 36.3703 16.5647 36.1382 16.3366L36.0455 16.2432C35.8342 16.0264 35.5817 15.8548 35.3031 15.7384C35.0245 15.6221 34.7256 15.5635 34.4241 15.5661C34.2366 15.5663 34.0499 15.5898 33.8681 15.6361L27.0117 13.8383C26.8538 13.8105 26.6912 13.8351 26.5484 13.9083C26.4063 13.9765 26.2918 14.0919 26.2241 14.2352L25.923 15.1925H25.7145C25.1204 15.1837 24.5466 15.41 24.1162 15.8229C24.072 15.8644 24.0256 15.9033 23.9772 15.9396C23.7386 16.1627 23.5492 16.4339 23.4215 16.7356C23.2938 17.0373 23.2305 17.3628 23.236 17.6908C23.2302 17.8324 23.2458 17.9741 23.2823 18.1111C22.769 18.1757 22.2899 18.4049 21.9156 18.7648L21.7998 18.8582C21.5623 19.0871 21.374 19.3627 21.2465 19.6679C21.119 19.9732 21.055 20.3016 21.0586 20.6327C21.0308 20.6327 21.0308 20.6327 21.0586 20.6794C21.0577 20.8702 21.089 21.0597 21.1512 21.2398C20.7078 21.3506 20.3007 21.576 19.9699 21.8936L19.8541 21.9869C19.4053 22.4233 19.14 23.0168 19.1128 23.6447C19.0908 24.139 19.2202 24.6281 19.4834 25.0456C19.1588 25.1976 18.8614 25.4028 18.6032 25.6527L18.4411 25.7694C18.043 26.1727 17.7694 26.6836 17.6535 27.2404C17.5865 27.51 17.5874 27.7922 17.6562 28.0613C17.725 28.3305 17.8594 28.578 18.0473 28.7814L18.8812 29.5753L16.3563 32.0502L15.7772 31.5132C15.7135 31.4497 15.6373 31.4002 15.5536 31.3681C15.4698 31.3359 15.3803 31.3217 15.2908 31.3264C15.1185 31.3274 14.953 31.3941 14.8275 31.5132L10.5191 35.9028C10.456 35.9718 10.4072 36.0527 10.3754 36.1409C10.3436 36.2291 10.3294 36.3227 10.3338 36.4164C10.343 36.5884 10.4081 36.7525 10.5191 36.8834L21.1281 47.3903C21.1908 47.447 21.264 47.4906 21.3435 47.5187C21.423 47.5467 21.5073 47.5586 21.5913 47.5538C21.7754 47.5647 21.957 47.5064 22.1009 47.3903L26.4094 42.9774C26.5366 42.8362 26.6104 42.6543 26.6179 42.4638C26.6008 42.2893 26.5276 42.1253 26.4094 41.9968L25.4829 41.1329L29.0269 37.9575L30.602 37.7006L34.5399 41.1329L33.6133 41.9968C33.5024 42.1277 33.4373 42.2918 33.428 42.4638C33.4237 42.5575 33.4378 42.6511 33.4697 42.7393C33.5015 42.8275 33.5503 42.9084 33.6133 42.9774L37.9218 47.3903C38.0637 47.4933 38.2334 47.5503 38.4082 47.5538C38.5761 47.5511 38.7386 47.4938 38.8715 47.3903L49.4573 36.8834C49.5755 36.7549 49.6487 36.5909 49.6658 36.4164C49.6713 36.2316 49.6141 36.0504 49.5037 35.9028ZM27.1506 15.9863C27.1652 15.7724 27.2041 15.5609 27.2665 15.3559L32.293 16.6401L30.1619 18.6014H29.8608L28.8184 18.4379C28.497 18.3838 28.1897 18.2646 27.915 18.0877C27.4054 17.7453 27.1506 17.0682 27.1506 16.0564V15.9863ZM24.8806 16.9903L24.9733 16.8969C25.069 16.7954 25.1838 16.7142 25.3111 16.658C25.4384 16.6019 25.5756 16.572 25.7145 16.5701H25.8071C25.8088 17.0839 25.9265 17.5905 26.1512 18.0517C26.376 18.5129 26.7019 18.9164 27.1043 19.2318C27.5291 19.5139 27.9994 19.7194 28.4941 19.8389C28.7119 19.8856 29.0593 19.9416 29.5365 20.0023L29.606 20.0724C29.7008 20.1532 29.7728 20.2579 29.8145 20.3759L29.8608 20.7261C29.8497 20.9846 29.7517 21.2317 29.5828 21.4266L29.4902 21.52C29.4068 21.6303 29.3001 21.7205 29.1777 21.784C29.0554 21.8476 28.9206 21.8829 28.7831 21.8873C28.6456 21.8918 28.5088 21.8653 28.3827 21.8099C28.2566 21.7544 28.1443 21.6713 28.054 21.5667L25.2744 18.7882L24.9501 18.4146C24.7628 18.2369 24.6473 17.9958 24.6258 17.7375C24.6411 17.4696 24.7292 17.2111 24.8806 16.9903ZM22.68 19.9556L22.7959 19.8622C22.9943 19.6612 23.2568 19.5371 23.5371 19.512C23.8383 19.5089 24.1319 19.6075 24.371 19.7922L27.1506 22.524L27.2896 22.6407C27.3166 22.7544 27.3725 22.859 27.4518 22.9442C27.5498 23.0317 27.6275 23.1397 27.6795 23.2608C27.7316 23.3818 27.7566 23.5129 27.7529 23.6447C27.7443 23.8968 27.6456 24.1373 27.4749 24.3218L27.3823 24.4152C27.2933 24.5225 27.1839 24.6108 27.0606 24.675C26.9373 24.7391 26.8025 24.7778 26.6642 24.7888C26.5444 24.7927 26.4251 24.772 26.3136 24.7278C26.2021 24.6837 26.1007 24.617 26.0156 24.532L23.1896 21.7301C22.8282 21.453 22.5611 21.0695 22.4252 20.6327C22.4241 20.383 22.5149 20.1417 22.68 19.9556ZM20.7575 23.0376L20.8964 22.9442C20.9816 22.8287 21.0891 22.7319 21.2126 22.6596C21.336 22.5874 21.4728 22.5412 21.6145 22.524C21.7149 22.5154 21.816 22.5275 21.9116 22.5596C22.0071 22.5918 22.0952 22.6432 22.1704 22.7108L24.9964 25.5126C25.0606 25.5809 25.1101 25.6617 25.142 25.75C25.1739 25.8384 25.1874 25.9324 25.1817 26.0263C25.1622 26.29 25.0655 26.5419 24.9038 26.7501L24.7648 26.8435C24.6765 26.9666 24.5621 27.0682 24.4298 27.1409C24.2976 27.2136 24.1508 27.2556 24.0004 27.2638C23.8367 27.2876 23.6703 27.2457 23.5371 27.147L23.4908 27.1003L23.4444 27.077L20.6648 24.2751C20.5895 24.2082 20.5298 24.1254 20.4898 24.0326C20.4497 23.9398 20.4304 23.8392 20.4332 23.7381C20.4696 23.4773 20.5825 23.2333 20.7575 23.0376ZM19.0202 27.4972C19.0885 27.2427 19.2066 27.0046 19.3676 26.7968L19.4603 26.7267C19.6712 26.4681 19.967 26.2942 20.2942 26.2364C20.4226 26.1973 20.5596 26.1973 20.688 26.2364L22.5411 28.081L22.6337 28.151C22.6905 28.2267 22.7303 28.3139 22.7503 28.4067C22.7703 28.4994 22.7701 28.5954 22.7495 28.688C22.675 28.9635 22.5405 29.2188 22.3557 29.4352L22.2631 29.5052C22.0723 29.7372 21.8123 29.901 21.5219 29.9722C21.404 29.9872 21.2842 29.9712 21.1744 29.9255L20.3405 29.085H20.3173L19.0433 27.8008C18.9831 27.7541 18.9738 27.6373 19.0202 27.4972ZM21.5913 45.9194L20.7111 45.0555L22.4484 43.281C22.5763 43.1591 22.6512 42.9913 22.6569 42.814C22.6475 42.6238 22.5739 42.4426 22.4484 42.3003C22.3218 42.1831 22.157 42.1167 21.9851 42.1135C21.7979 42.1082 21.6157 42.175 21.4755 42.3003L19.7151 44.0748L11.9784 36.3931L15.314 32.9842L24.0004 41.5999L24.9269 42.5105L21.5913 45.9194ZM28.6331 36.6266C28.5041 36.6461 28.3834 36.7029 28.2857 36.79L24.5331 40.1289L17.3061 33.0309L19.8541 30.5326L20.2015 30.9062C20.4095 31.1089 20.666 31.2541 20.946 31.3277C21.2259 31.4013 21.52 31.4009 21.7998 31.3264C22.3019 31.1969 22.7587 30.9303 23.1202 30.5559C23.1722 30.5245 23.2191 30.4851 23.2591 30.4392C23.6495 30.0267 23.9286 29.5203 24.0699 28.9682L24.1162 28.6413C24.4044 28.6327 24.688 28.5663 24.9504 28.446C25.2129 28.3257 25.449 28.154 25.645 27.9409L25.7608 27.8708C26.2232 27.4322 26.4974 26.8291 26.5252 26.1897V26.143H26.641C27.2308 26.1414 27.7963 25.9067 28.2162 25.4893L28.332 25.3725C28.5646 25.1582 28.7521 24.8989 28.8834 24.6101C29.0147 24.3214 29.0871 24.0089 29.0964 23.6914L29.0501 23.2244C29.5718 23.1496 30.0576 22.913 30.4399 22.5473L30.5557 22.4306C31.01 21.9714 31.2678 21.3512 31.2738 20.7028C31.2699 20.4724 31.2309 20.244 31.158 20.0257L31.019 19.6988L33.6828 17.2705C33.7819 17.164 33.8997 17.0769 34.0303 17.0137L34.4009 16.967C34.5385 16.97 34.6739 17.0028 34.7978 17.0633C34.9217 17.1237 35.0312 17.2103 35.119 17.3172L35.2116 17.4106C35.366 17.6053 35.4624 17.84 35.4896 18.0877C35.4795 18.3578 35.3725 18.615 35.1885 18.8115L33.428 20.5393C33.3053 20.6815 33.2393 20.8646 33.2427 21.053C33.2475 21.2259 33.3132 21.3914 33.428 21.52C33.5681 21.6453 33.7504 21.7121 33.9376 21.7068C34.1095 21.7036 34.2743 21.6371 34.4009 21.52L35.7444 20.1658C35.9952 20.0107 36.2841 19.9298 36.5783 19.9323C36.7145 19.9302 36.8494 19.9584 36.9735 20.0149C37.0976 20.0714 37.2079 20.1548 37.2964 20.2591L37.389 20.3058C37.5463 20.5147 37.6353 20.7676 37.6438 21.0297C37.6438 21.2771 37.4075 21.6601 36.9257 22.1737L35.4896 23.5747C35.3705 23.7118 35.2976 23.8835 35.2811 24.065C35.2868 24.2423 35.3617 24.4101 35.4896 24.532C35.6297 24.6573 35.8119 24.7241 35.9992 24.7187C36.1838 24.7339 36.3669 24.6752 36.5088 24.5553L37.9449 23.1544C38.0115 23.0801 38.0942 23.0224 38.1867 22.9859C38.2792 22.9494 38.3788 22.9352 38.4777 22.9442C38.7754 22.9838 39.0479 23.1336 39.2421 23.3645L39.3348 23.4346C39.495 23.6099 39.5999 23.8294 39.6359 24.065C39.6436 24.1751 39.6292 24.2857 39.5933 24.39C39.5575 24.4944 39.5011 24.5903 39.4274 24.672L37.7133 26.3999C37.5906 26.542 37.5245 26.7251 37.528 26.9135C37.5272 27.0945 37.5933 27.2693 37.7133 27.4038C37.8534 27.5292 38.0357 27.596 38.2229 27.5906C38.3948 27.5875 38.5596 27.521 38.6862 27.4038L39.4043 26.6333C39.5583 26.6028 39.7173 26.6108 39.8675 26.6567C40.1638 26.7297 40.4307 26.8927 40.6319 27.1237L40.7246 27.2171C40.8996 27.4156 41.0194 27.6573 41.0721 27.9175C41.0918 27.9677 41.0979 28.0223 41.0898 28.0756C41.0816 28.129 41.0595 28.1792 41.0257 28.2211L39.937 29.3184L33.7291 35.8094L28.6331 36.6266ZM32.3856 37.4438L34.1924 37.1636C34.3326 37.1429 34.4625 37.0774 34.563 36.9768L40.4466 30.8128L42.7167 33.0542L35.5128 40.1522L32.3856 37.4438ZM40.3076 44.0748L38.2924 41.9968C38.1649 41.8777 38.0022 41.8039 37.8291 41.7866C37.7345 41.7848 37.6404 41.8025 37.5528 41.8387C37.4652 41.8748 37.3858 41.9286 37.3195 41.9968C37.1976 42.1413 37.1246 42.3212 37.1111 42.5105C37.1108 42.6022 37.1291 42.693 37.165 42.7773C37.2008 42.8617 37.2534 42.9377 37.3195 43.0008L39.3348 45.0555L38.4545 45.9194L35.119 42.5105L44.7088 32.9842L48.0443 36.3931L40.3076 44.0748Z" fill="#666666"/>
<path fill-rule="evenodd" clip-rule="evenodd" d="M16.0327 34.9703C15.9729 34.9016 15.8973 34.8486 15.8125 34.816C15.7277 34.7834 15.6363 34.7723 15.5462 34.7835C15.4584 34.7821 15.3714 34.8002 15.2913 34.8365C15.2113 34.8728 15.1401 34.9265 15.083 34.9937C15.0187 35.052 14.9685 35.1245 14.9364 35.2054C14.9043 35.2864 14.891 35.3737 14.8977 35.4607C14.8989 35.5487 14.918 35.6356 14.9539 35.7159C14.9898 35.7962 15.0416 35.8683 15.1061 35.9276L15.9169 36.7448C15.9756 36.8178 16.0497 36.8767 16.1339 36.9171C16.218 36.9575 16.3101 36.9784 16.4033 36.9783C16.5821 36.9646 16.7484 36.8807 16.8666 36.7448C16.9318 36.686 16.9841 36.6141 17.02 36.5337C17.0559 36.4532 17.0746 36.3661 17.075 36.2779C17.0603 36.0913 16.9778 35.9167 16.8434 35.7875L16.0327 34.9703Z" fill="#f58220"/>
<path fill-rule="evenodd" clip-rule="evenodd" d="M44.014 34.9717L43.157 35.7656C43.0888 35.827 43.0348 35.9027 42.9988 35.9874C42.9627 36.0721 42.9456 36.1638 42.9485 36.2559C42.9442 36.3426 42.9585 36.4292 42.9905 36.5098C43.0225 36.5904 43.0714 36.6631 43.1338 36.7229C43.1989 36.7942 43.2776 36.8516 43.3651 36.8917C43.4527 36.9318 43.5473 36.9538 43.6434 36.9564C43.7308 36.9551 43.817 36.9358 43.8966 36.8997C43.9763 36.8635 44.0478 36.8113 44.1067 36.7462L44.9406 35.929C45.0059 35.8703 45.0581 35.7984 45.0939 35.7179C45.1297 35.6374 45.1481 35.5502 45.1481 35.462C45.1481 35.3739 45.1297 35.2867 45.0939 35.2062C45.0581 35.1257 45.0059 35.0538 44.9406 34.9951C44.8838 34.9274 44.8128 34.8734 44.7326 34.837C44.6524 34.8006 44.5652 34.7828 44.4773 34.7849C44.3913 34.7806 44.3054 34.795 44.2254 34.8273C44.1454 34.8595 44.0733 34.9088 44.014 34.9717Z" fill="#f58220"/>
<defs>
<linearGradient id="paint0_linear_131_404" x1="-1.77633" y1="29.7235" x2="46.6776" y2="29.6248" gradientUnits="userSpaceOnUse">
<stop stop-color="#F58220"/>
<stop offset="1" stop-color="#F58220" stop-opacity="0"/>
</linearGradient>
</defs>
</svg>
