<svg width="60" height="60" viewBox="0 0 60 60" fill="none" xmlns="http://www.w3.org/2000/svg">
<circle cx="30" cy="30" r="30" fill="url(#paint0_linear_196_465)" fill-opacity="0.1"/>
<g clip-path="url(#clip0_196_465)">
<path d="M19.2412 41.1323C19.2412 41.1323 19.2412 41.1701 19.2743 41.189C19.3055 41.2138 19.3387 41.2359 19.3736 41.2552C22.2392 43.9771 26.0406 45.4947 29.9929 45.4947C33.9452 45.4947 37.7466 43.9771 40.6122 41.2552C40.6549 41.2356 40.6947 41.2101 40.7304 41.1796L40.7682 41.1181C42.2648 39.6769 43.4553 37.9486 44.2685 36.0367C45.0817 34.1247 45.5008 32.0683 45.5008 29.9906C45.5008 27.9129 45.0817 25.8566 44.2685 23.9446C43.4553 22.0326 42.2648 20.3043 40.7682 18.8632L40.7304 18.8017C40.6924 18.7706 40.6512 18.7437 40.6075 18.7213C37.7423 16.0022 33.9429 14.4863 29.9929 14.4863C26.0428 14.4863 22.2434 16.0022 19.3783 18.7213C19.3418 18.7422 19.307 18.7659 19.2743 18.7923C19.2743 18.7923 19.2743 18.8301 19.2412 18.849C17.7419 20.2896 16.5491 22.0183 15.7343 23.9312C14.9195 25.8441 14.4995 27.9019 14.4995 29.9812C14.4995 32.0604 14.9195 34.1182 15.7343 36.0312C16.5491 37.9441 17.7419 39.6728 19.2412 41.1134V41.1323ZM20.1866 30.6193C20.309 31.1515 20.5846 31.6362 20.9795 32.0134C21.3743 32.3906 21.8711 32.6439 22.4083 32.7418C22.5416 34.3705 22.8201 35.9841 23.2403 37.5634C21.9766 38.186 20.8057 38.9815 19.7612 39.9269C17.333 37.4199 15.9128 34.1066 15.7715 30.6193H20.1866ZM37.5633 22.1059C37.5614 22.4124 37.4687 22.7114 37.297 22.9652C37.1253 23.219 36.8822 23.4163 36.5985 23.532C36.3148 23.6478 36.0031 23.6769 35.7028 23.6156C35.4025 23.5543 35.1272 23.4055 34.9115 23.1878C34.6958 22.9701 34.5494 22.6934 34.4909 22.3926C34.4323 22.0918 34.4643 21.7804 34.5826 21.4977C34.701 21.215 34.9004 20.9737 35.1558 20.8043C35.4112 20.635 35.7111 20.5451 36.0175 20.546C36.2215 20.5466 36.4234 20.5875 36.6116 20.6663C36.7998 20.7451 36.9706 20.8602 37.1142 21.0051C37.2577 21.15 37.3713 21.3219 37.4484 21.5108C37.5255 21.6997 37.5645 21.9019 37.5633 22.1059ZM36.0175 39.4542C35.7111 39.4551 35.4112 39.3652 35.1558 39.1958C34.9004 39.0264 34.701 38.7852 34.5826 38.5025C34.4643 38.2198 34.4323 37.9084 34.4909 37.6076C34.5494 37.3068 34.6958 37.0301 34.9115 36.8124C35.1272 36.5947 35.4025 36.4458 35.7028 36.3846C36.0031 36.3233 36.3148 36.3524 36.5985 36.4681C36.8822 36.5839 37.1253 36.7811 37.297 37.035C37.4687 37.2888 37.5614 37.5878 37.5633 37.8943C37.5645 38.0983 37.5255 38.3005 37.4484 38.4894C37.3713 38.6783 37.2577 38.8501 37.1142 38.9951C36.9706 39.14 36.7998 39.2551 36.6116 39.3339C36.4234 39.4127 36.2215 39.4536 36.0175 39.4542ZM25.618 30.6288H29.3996V36.0365C27.6889 36.1004 26.0006 36.447 24.4031 37.0623C24.0332 35.6235 23.785 34.1561 23.661 32.6756C24.1405 32.5387 24.5746 32.2757 24.9179 31.9141C25.2613 31.5524 25.5014 31.1053 25.6133 30.6193L25.618 30.6288ZM29.3996 37.2892V44.1812C27.5088 43.7747 25.8307 41.5294 24.7577 38.2441C26.2337 37.6656 27.7965 37.3396 29.3807 37.2797L29.3996 37.2892ZM26.4452 43.7936C24.3084 43.2429 22.329 42.2023 20.664 40.7541C21.5585 39.9723 22.546 39.3039 23.6043 38.764C24.1694 40.6293 25.1395 42.3467 26.4452 43.7936ZM30.6192 44.186V37.2703C31.5078 37.3067 32.391 37.4269 33.2569 37.6295C33.2428 37.7172 33.2333 37.8056 33.2285 37.8943C33.229 38.3535 33.3427 38.8056 33.5596 39.2104C33.7764 39.6152 34.0897 39.9604 34.4718 40.2152C33.4034 42.4606 32.0421 43.8693 30.6192 44.1812V44.186ZM36.0175 35.1053C35.5417 35.1084 35.0746 35.2335 34.6608 35.4685C34.247 35.7035 33.9004 36.0407 33.654 36.4478C32.6615 36.2102 31.6483 36.0693 30.6287 36.0271V30.6193H36.4666C36.4418 32.1239 36.2964 33.624 36.0317 35.1053H36.0175ZM30.6192 29.3808V23.9731C31.6389 23.9309 32.652 23.79 33.6445 23.5524C33.8909 23.9595 34.2376 24.2966 34.6513 24.5317C35.0651 24.7667 35.5322 24.8917 36.0081 24.8949C36.2728 26.3762 36.4182 27.8763 36.4429 29.3808H30.6192ZM33.2285 22.1059C33.2333 22.1946 33.2428 22.283 33.2569 22.3706C32.391 22.5732 31.5078 22.6935 30.6192 22.7299V15.8189C32.0373 16.1357 33.4034 17.5443 34.4718 19.7897C34.0907 20.0444 33.778 20.3888 33.5612 20.7927C33.3445 21.1966 33.2302 21.6475 33.2285 22.1059ZM29.3807 15.8189V22.7204C27.7896 22.6596 26.2202 22.3304 24.7388 21.7467C25.8118 18.4614 27.4946 16.216 29.3807 15.8189ZM23.6043 21.2361C22.546 20.6963 21.5585 20.0279 20.664 19.2461C22.329 17.7979 24.3084 16.7572 26.4452 16.2066C25.1395 17.6535 24.1694 19.3709 23.6043 21.2361ZM29.3807 23.9636V29.3808H25.5991C25.4856 28.8926 25.2427 28.4439 24.8958 28.0821C24.5489 27.7202 24.1109 27.4586 23.6279 27.3246C23.7519 25.8441 24.0001 24.3767 24.3701 22.9379C25.972 23.5547 27.6652 23.9014 29.3807 23.9636ZM22.9094 28.4496C23.2156 28.4515 23.5145 28.544 23.7682 28.7155C24.0219 28.887 24.2192 29.1298 24.3351 29.4133C24.451 29.6967 24.4803 30.0082 24.4195 30.3083C24.3586 30.6085 24.2102 30.8838 23.993 31.0997C23.7757 31.3156 23.4995 31.4624 23.199 31.5214C22.8985 31.5805 22.5872 31.5492 22.3044 31.4316C22.0217 31.314 21.7801 31.1153 21.6101 30.8605C21.4402 30.6057 21.3495 30.3063 21.3495 30.0001C21.3501 29.7959 21.3909 29.5937 21.4697 29.4053C21.5484 29.2169 21.6635 29.0458 21.8083 28.9018C21.9532 28.7578 22.125 28.6438 22.3139 28.5662C22.5028 28.4886 22.7052 28.449 22.9094 28.4496ZM35.6724 40.6501C35.7961 40.67 35.9208 40.6826 36.0459 40.688C36.4329 40.6869 36.8155 40.6048 37.1688 40.4468C37.5222 40.2889 37.8385 40.0586 38.0974 39.7709C38.5371 40.0756 38.9599 40.4039 39.3643 40.7541C37.7016 42.2004 35.7258 43.2409 33.5925 43.7936C34.4445 42.8657 35.1377 41.8036 35.6441 40.6501H35.6724ZM40.2388 39.9269C39.748 39.4878 39.2284 39.0819 38.6836 38.712C38.8887 38.0796 38.8553 37.3939 38.5898 36.7844C38.3242 36.1748 37.8447 35.6835 37.2418 35.4031C37.5287 33.8255 37.6868 32.2273 37.7145 30.6241H44.2284C44.086 34.1097 42.6659 37.4211 40.2388 39.9269ZM44.2284 29.3808H37.7051C37.6774 27.7776 37.5193 26.1794 37.2324 24.6018C37.8353 24.3214 38.3147 23.8301 38.5803 23.2206C38.8459 22.611 38.8793 21.9253 38.6741 21.2929C39.219 20.923 39.7385 20.5171 40.2293 20.078C42.6599 22.5824 44.0834 25.8939 44.2284 29.3808ZM39.3359 19.2461C38.9316 19.5963 38.5087 19.9245 38.069 20.2293C37.8101 19.9416 37.4938 19.7113 37.1404 19.5534C36.7871 19.3954 36.4046 19.3133 36.0175 19.3122C35.8924 19.3176 35.7677 19.3302 35.6441 19.35C35.129 18.1946 34.4262 17.1324 33.5642 16.2066C35.6974 16.7592 37.6732 17.7997 39.3359 19.2461ZM19.7612 20.0969C20.8071 21.034 21.978 21.8214 23.2403 22.4368C22.8185 24.0159 22.5385 25.6295 22.4036 27.2584C21.8664 27.3563 21.3696 27.6095 20.9748 27.9868C20.5799 28.364 20.3042 28.8486 20.1819 29.3808H15.7715C15.9185 25.9018 17.3383 22.5979 19.7612 20.0969Z" fill="#666666"/>
</g>
<defs>
<linearGradient id="paint0_linear_196_465" x1="-1.77633" y1="29.0311" x2="46.6776" y2="28.9324" gradientUnits="userSpaceOnUse">
<stop stop-color="#F58220"/>
<stop offset="1" stop-color="#F58220" stop-opacity="0"/>
</linearGradient>
<clipPath id="clip0_196_465">
<rect width="31" height="31" fill="white" transform="translate(14.5 14.5)"/>
</clipPath>
</defs>
</svg>
