<svg width="42" height="42" viewBox="0 0 42 42" fill="none" xmlns="http://www.w3.org/2000/svg">
<circle cx="20.5635" cy="21.1973" r="20.5" fill="white" fill-opacity="0.1"/>
<g clip-path="url(#clip0_196_457)">
<path d="M16.6992 21.7915H19.406L18.1878 26.9125C18.1566 27.0388 18.1686 27.1717 18.2219 27.2906C18.2752 27.4095 18.3669 27.5077 18.4826 27.5701C18.5984 27.6324 18.7319 27.6554 18.8623 27.6354C18.9927 27.6155 19.1127 27.5537 19.2038 27.4596L26.5619 19.5405C26.6455 19.4571 26.7019 19.3508 26.7238 19.2355C26.7456 19.1202 26.732 19.0011 26.6846 18.8935C26.6371 18.7859 26.5581 18.6947 26.4577 18.6317C26.3572 18.5687 26.2399 18.5367 26.1209 18.5399H23.2045L24.5567 15.593C24.5978 15.5038 24.6156 15.4059 24.6083 15.3082C24.6011 15.2105 24.5691 15.1162 24.5153 15.0339C24.463 14.953 24.391 14.8863 24.3059 14.8398C24.2208 14.7933 24.1253 14.7684 24.028 14.7675H19.1551C19.0745 14.7514 18.9915 14.752 18.9112 14.7692C18.8308 14.7863 18.755 14.8197 18.6885 14.8672C18.6219 14.9147 18.566 14.9752 18.5245 15.045C18.4829 15.1148 18.4564 15.1924 18.4468 15.2728C18.4371 15.3532 18.4445 15.4346 18.4685 15.5121C18.4924 15.5895 18.5324 15.6612 18.586 15.7226C18.6395 15.7841 18.7053 15.8339 18.7794 15.869C18.8534 15.9041 18.9341 15.9237 19.0162 15.9266C19.0583 15.9314 19.1008 15.9314 19.1429 15.9266H23.1021L21.7475 18.8782C21.7057 18.9677 21.6876 19.0661 21.6948 19.1642C21.702 19.2624 21.7344 19.3572 21.7889 19.4398C21.843 19.5227 21.9172 19.5912 22.0048 19.6389C22.0924 19.6867 22.1907 19.7123 22.2908 19.7133H24.7808L19.8933 24.9927L20.768 21.3403C20.7867 21.2546 20.7859 21.1659 20.7658 21.0806C20.7456 20.9952 20.7065 20.9153 20.6514 20.8465C20.5962 20.7777 20.5263 20.7218 20.4466 20.6827C20.367 20.6436 20.2795 20.6224 20.1906 20.6204H17.586L18.3779 18.727C18.4079 18.6566 18.4235 18.5811 18.4238 18.5047C18.4241 18.4283 18.4091 18.3526 18.3797 18.282C18.3503 18.2113 18.307 18.1471 18.2523 18.0929C18.1977 18.0387 18.1327 17.9957 18.0611 17.9663C17.9892 17.9364 17.9119 17.9208 17.8338 17.9205C17.7557 17.9201 17.6783 17.935 17.6061 17.9642C17.5338 17.9934 17.4682 18.0364 17.4129 18.0907C17.3576 18.1451 17.3138 18.2096 17.2839 18.2807L16.151 20.9852C16.1155 21.0739 16.1024 21.1699 16.1128 21.2647C16.1233 21.3595 16.1568 21.4504 16.2107 21.5297C16.2646 21.609 16.3372 21.6742 16.4223 21.7198C16.5073 21.7654 16.6023 21.79 16.6992 21.7915Z" fill="#f58220"/>
<path d="M21.4092 10.6986C21.3315 10.6904 21.2529 10.6974 21.1778 10.7192C21.1028 10.7409 21.0329 10.777 20.972 10.8253C20.8491 10.923 20.7706 11.0647 20.7538 11.2194C20.737 11.374 20.7833 11.5289 20.8825 11.65C20.9816 11.7711 21.1255 11.8484 21.2825 11.8649C21.3246 11.8697 21.3671 11.8697 21.4092 11.8649C23.2672 11.8659 25.0839 12.4048 26.6333 13.4146C28.1827 14.4245 29.3965 15.8607 30.1237 17.5447C30.8509 19.2287 31.0594 21.0861 30.7233 22.8858C30.3872 24.6856 29.5212 26.3483 28.2332 27.6672C26.9452 28.986 25.2919 29.9028 23.4791 30.3035C21.6662 30.7042 19.7737 30.5711 18.0371 29.9208C16.3004 29.2705 14.7961 28.1316 13.7114 26.6459C12.6267 25.1602 12.0095 23.3931 11.9364 21.5646L12.6113 22.1981C12.7221 22.3063 12.8718 22.3669 13.0279 22.3669C13.1839 22.3669 13.3336 22.3063 13.4445 22.1981C13.5543 22.0889 13.6159 21.9415 13.6159 21.7878C13.6159 21.6341 13.5543 21.4866 13.4445 21.3774L11.7658 19.724C11.6537 19.6154 11.5028 19.5546 11.3455 19.5546C11.1883 19.5546 11.0373 19.6154 10.9252 19.724L9.24165 21.3774C9.1316 21.4814 9.06778 21.6241 9.06413 21.7742C9.06048 21.9244 9.11729 22.0699 9.22216 22.1789L9.24165 22.1981C9.34723 22.3065 9.49206 22.3694 9.64452 22.373C9.79698 22.3766 9.9447 22.3206 10.0554 22.2173L10.0749 22.1981L10.7498 21.531C10.8163 23.592 11.4976 25.5881 12.7085 27.2702C13.9195 28.9522 15.6066 30.2458 17.5593 30.9896C19.5119 31.7333 21.6437 31.8942 23.6886 31.4522C25.7336 31.0102 27.6011 29.9849 29.0581 28.5042C30.5152 27.0235 31.4973 25.153 31.8819 23.1261C32.2665 21.0991 32.0365 19.0055 31.2207 17.1065C30.405 15.2074 29.0394 13.587 27.2946 12.4475C25.5497 11.3079 23.5028 10.6997 21.4092 10.6986Z" fill="white"/>
</g>
<defs>
<clipPath id="clip0_196_457">
<rect width="23" height="21" fill="white" transform="translate(9.06348 10.6973)"/>
</clipPath>
</defs>
</svg>
