<svg width="98" height="13" viewBox="0 0 98 13" fill="none" xmlns="http://www.w3.org/2000/svg">
<path d="M12.3358 5.11229L8.61048 4.57087L6.94514 1.19472C6.89966 1.10229 6.82483 1.02746 6.73239 0.981973C6.50057 0.867527 6.21885 0.962898 6.10294 1.19472L4.43761 4.57087L0.712258 5.11229C0.60955 5.12696 0.515646 5.17538 0.44375 5.24874C0.356833 5.33808 0.308937 5.45827 0.310588 5.5829C0.312239 5.70753 0.363301 5.82641 0.452554 5.91341L3.1479 8.54126L2.51111 12.2519C2.49618 12.3383 2.50573 12.427 2.53868 12.5082C2.57163 12.5894 2.62667 12.6597 2.69755 12.7112C2.76843 12.7626 2.85231 12.7932 2.93969 12.7994C3.02707 12.8057 3.11445 12.7873 3.19191 12.7464L6.52404 10.9945L9.85617 12.7464C9.94714 12.7948 10.0528 12.811 10.154 12.7934C10.4093 12.7493 10.581 12.5072 10.537 12.2519L9.90019 8.54126L12.5955 5.91341C12.6689 5.84151 12.7173 5.74761 12.732 5.6449C12.7716 5.38813 12.5926 5.15044 12.3358 5.11229V5.11229Z" fill="#0F9D58"/>
<path d="M33.3358 5.11229L29.6105 4.57087L27.9451 1.19472C27.8997 1.10229 27.8248 1.02746 27.7324 0.981973C27.5006 0.867527 27.2189 0.962898 27.1029 1.19472L25.4376 4.57087L21.7123 5.11229C21.6095 5.12696 21.5156 5.17538 21.4438 5.24874C21.3568 5.33808 21.3089 5.45827 21.3106 5.5829C21.3122 5.70753 21.3633 5.82641 21.4526 5.91341L24.1479 8.54126L23.5111 12.2519C23.4962 12.3383 23.5057 12.427 23.5387 12.5082C23.5716 12.5894 23.6267 12.6597 23.6976 12.7112C23.7684 12.7626 23.8523 12.7932 23.9397 12.7994C24.0271 12.8057 24.1144 12.7873 24.1919 12.7464L27.524 10.9945L30.8562 12.7464C30.9471 12.7948 31.0528 12.811 31.154 12.7934C31.4093 12.7493 31.581 12.5072 31.537 12.2519L30.9002 8.54126L33.5955 5.91341C33.6689 5.84151 33.7173 5.74761 33.732 5.6449C33.7716 5.38813 33.5926 5.15044 33.3358 5.11229V5.11229Z" fill="#0F9D58"/>
<path d="M54.3358 5.11229L50.6105 4.57087L48.9451 1.19472C48.8997 1.10229 48.8248 1.02746 48.7324 0.981973C48.5006 0.867527 48.2189 0.962898 48.1029 1.19472L46.4376 4.57087L42.7123 5.11229C42.6095 5.12696 42.5156 5.17538 42.4438 5.24874C42.3568 5.33808 42.3089 5.45827 42.3106 5.5829C42.3122 5.70753 42.3633 5.82641 42.4526 5.91341L45.1479 8.54126L44.5111 12.2519C44.4962 12.3383 44.5057 12.427 44.5387 12.5082C44.5716 12.5894 44.6267 12.6597 44.6976 12.7112C44.7684 12.7626 44.8523 12.7932 44.9397 12.7994C45.0271 12.8057 45.1144 12.7873 45.1919 12.7464L48.524 10.9945L51.8562 12.7464C51.9471 12.7948 52.0528 12.811 52.154 12.7934C52.4093 12.7493 52.581 12.5072 52.537 12.2519L51.9002 8.54126L54.5955 5.91341C54.6689 5.84151 54.7173 5.74761 54.732 5.6449C54.7716 5.38813 54.5926 5.15044 54.3358 5.11229V5.11229Z" fill="#0F9D58"/>
<path d="M75.3358 5.11229L71.6105 4.57087L69.9451 1.19472C69.8997 1.10229 69.8248 1.02746 69.7324 0.981973C69.5006 0.867527 69.2189 0.962898 69.1029 1.19472L67.4376 4.57087L63.7123 5.11229C63.6095 5.12696 63.5156 5.17538 63.4438 5.24874C63.3568 5.33808 63.3089 5.45827 63.3106 5.5829C63.3122 5.70753 63.3633 5.82641 63.4526 5.91341L66.1479 8.54126L65.5111 12.2519C65.4962 12.3383 65.5057 12.427 65.5387 12.5082C65.5716 12.5894 65.6267 12.6597 65.6976 12.7112C65.7684 12.7626 65.8523 12.7932 65.9397 12.7994C66.0271 12.8057 66.1144 12.7873 66.1919 12.7464L69.524 10.9945L72.8562 12.7464C72.9471 12.7948 73.0528 12.811 73.154 12.7934C73.4093 12.7493 73.581 12.5072 73.537 12.2519L72.9002 8.54126L75.5955 5.91341C75.6689 5.84151 75.7173 5.74761 75.732 5.6449C75.7716 5.38813 75.5926 5.15044 75.3358 5.11229V5.11229Z" fill="#0F9D58"/>
<path d="M90.9412 1.19472L92.6066 4.57087L96.3319 5.11229C96.5887 5.15044 96.7677 5.38813 96.7281 5.6449C96.7134 5.74761 96.665 5.84151 96.5916 5.91341L93.8963 8.54126L94.5331 12.2519C94.5771 12.5072 94.4054 12.7493 94.1501 12.7934C94.0489 12.811 93.9432 12.7948 93.8523 12.7464L90.5201 10.9945L87.188 12.7464C87.1105 12.7873 87.0232 12.8057 86.9358 12.7994C86.8484 12.7932 86.7645 12.7626 86.6936 12.7112C86.6228 12.6597 86.5677 12.5894 86.5348 12.5082C86.5018 12.427 86.4923 12.3383 86.5072 12.2519L87.144 8.54126L84.4486 5.91341C84.3594 5.82641 84.3083 5.70753 84.3067 5.5829C84.305 5.45827 84.3529 5.33808 84.4398 5.24874L90.9412 1.19472ZM90.9412 1.19472C90.8958 1.10229 90.8209 1.02746 90.7285 0.981973L90.9412 1.19472ZM92.3824 4.68147L92.4405 4.79937L92.5706 4.81827L96.2952 5.35957C96.2953 5.35959 96.2954 5.35961 96.2955 5.35963C96.4179 5.37801 96.499 5.49003 96.481 5.60678L96.4806 5.60954C96.4739 5.6567 96.4516 5.70048 96.4169 5.73462C96.4168 5.7347 96.4167 5.73478 96.4166 5.73485L93.7218 8.36225L93.6277 8.454L93.6499 8.58354L94.2867 12.2942L94.2867 12.2944C94.3072 12.413 94.2275 12.5263 94.1076 12.547L94.1073 12.547C94.0597 12.5553 94.0106 12.5474 93.9697 12.5257L93.9686 12.5251L90.6365 10.7732L90.5201 10.7121L90.4038 10.7732L87.0717 12.5251L87.0713 12.5253C87.0351 12.5444 86.9943 12.553 86.9536 12.5501C86.9128 12.5472 86.8736 12.5329 86.8406 12.5089C86.8075 12.4848 86.7818 12.452 86.7664 12.4142C86.751 12.3763 86.7466 12.3348 86.7535 12.2946L86.7536 12.2942L87.3904 8.58354L87.4126 8.454L87.3185 8.36225L84.6232 5.7344L84.6232 5.73439C84.5813 5.69364 84.5574 5.63796 84.5567 5.57959C84.5559 5.52137 84.5782 5.46522 84.6187 5.42341C84.6528 5.38872 84.6966 5.36651 84.7437 5.35978L84.7443 5.35969L88.4697 4.81827L88.5998 4.79937L88.6579 4.68147L90.3226 1.30653C90.3227 1.30636 90.3228 1.3062 90.3229 1.30604C90.3778 1.19686 90.5103 1.15305 90.6178 1.20614L90.6181 1.20629C90.661 1.22741 90.6958 1.26218 90.7169 1.3051L90.717 1.30532L92.3824 4.68147Z" fill="white" stroke="#0F9D58" stroke-width="0.5"/>
</svg>
