<svg version="1.2" xmlns="http://www.w3.org/2000/svg" viewBox="0 0 97 12" width="97" height="12"><defs><clipPath clipPathUnits="userSpaceOnUse" id="cp1"><path d="m84.4 4.18l3.72-0.54 1.67-3.38q0.07-0.14 0.21-0.21c0.23-0.12 0.52-0.02 0.63 0.21l1.67 3.38 3.72 0.54q0.16 0.02 0.27 0.14 0.13 0.14 0.13 0.33 0 0.19-0.14 0.33l-2.69 2.63 0.63 3.71q0.03 0.13-0.02 0.25-0.06 0.13-0.16 0.21-0.11 0.08-0.25 0.09-0.13 0-0.25-0.06l-3.33-1.75-3.33 1.75q-0.14 0.08-0.3 0.05c-0.26-0.04-0.43-0.29-0.38-0.54l0.63-3.71-2.69-2.63q-0.11-0.11-0.14-0.27c-0.04-0.26 0.14-0.49 0.4-0.53z"/></clipPath></defs><style>.a{fill:#0f9d58}</style><path class="a" d="m12.4 4.7q0 0.2-0.1 0.3l-2.7 2.6 0.6 3.7c0.1 0.3-0.1 0.5-0.4 0.6q-0.1 0-0.3-0.1l-3.3-1.7-3.3 1.7q-0.1 0.1-0.3 0.1-0.1 0-0.2-0.1-0.1-0.1-0.2-0.2 0-0.1 0-0.3l0.6-3.7-2.7-2.6q-0.1-0.2-0.1-0.4 0-0.1 0.1-0.3 0.1-0.1 0.3-0.1l3.7-0.6 1.7-3.3c0.1-0.3 0.4-0.4 0.6-0.3q0.2 0.1 0.2 0.3l1.7 3.3 3.7 0.6c0.3 0 0.5 0.3 0.4 0.5z"/><path class="a" d="m33.4 4.7q0 0.2-0.1 0.3l-2.7 2.6 0.6 3.7c0.1 0.3-0.1 0.5-0.4 0.6q-0.1 0-0.3-0.1l-3.3-1.7-3.3 1.7q-0.1 0.1-0.3 0.1-0.1 0-0.2-0.1-0.1-0.1-0.2-0.2 0-0.1 0-0.3l0.6-3.7-2.7-2.6q-0.1-0.2-0.1-0.4 0-0.1 0.1-0.3 0.1-0.1 0.3-0.1l3.7-0.6 1.7-3.3c0.1-0.3 0.4-0.4 0.6-0.3q0.2 0.1 0.2 0.3l1.7 3.3 3.7 0.6c0.3 0 0.5 0.3 0.4 0.5z"/><path class="a" d="m54.4 4.7q0 0.2-0.1 0.3l-2.7 2.6 0.6 3.7c0.1 0.3-0.1 0.5-0.4 0.6q-0.1 0-0.3-0.1l-3.3-1.7-3.3 1.7q-0.1 0.1-0.3 0.1-0.1 0-0.2-0.1-0.1-0.1-0.2-0.2 0-0.1 0-0.3l0.6-3.7-2.7-2.6q-0.1-0.2-0.1-0.4 0-0.1 0.1-0.3 0.1-0.1 0.3-0.1l3.7-0.6 1.7-3.3c0.1-0.3 0.4-0.4 0.6-0.3q0.2 0.1 0.2 0.3l1.7 3.3 3.7 0.6c0.3 0 0.5 0.3 0.4 0.5z"/><path class="a" d="m95.4 4.7q0 0.2-0.1 0.3l-2.7 2.6 0.6 3.7c0.1 0.3-0.1 0.5-0.4 0.6q-0.1 0-0.3-0.1l-3.3-1.7-3.3 1.7q-0.1 0.1-0.3 0.1-0.1 0-0.2-0.1-0.1-0.1-0.2-0.2 0-0.1 0-0.3l0.6-3.7-2.7-2.6q-0.1-0.2-0.1-0.4 0-0.1 0.1-0.3 0.1-0.1 0.3-0.1l3.7-0.6 1.7-3.3c0.1-0.3 0.4-0.4 0.6-0.3q0.2 0.1 0.2 0.3l1.7 3.3 3.7 0.6c0.3 0 0.5 0.3 0.4 0.5z"/><path class="a" d="m75.4 4.7q0 0.2-0.1 0.3l-2.7 2.6 0.6 3.7c0.1 0.3-0.1 0.5-0.4 0.6q-0.1 0-0.3-0.1l-3.3-1.7-3.3 1.7q-0.1 0.1-0.3 0.1-0.1 0-0.2-0.1-0.1-0.1-0.2-0.2 0-0.1 0-0.3l0.6-3.7-2.7-2.6q-0.1-0.2-0.1-0.4 0-0.1 0.1-0.3 0.1-0.1 0.3-0.1l3.7-0.6 1.7-3.3c0.1-0.3 0.4-0.4 0.6-0.3q0.2 0.1 0.2 0.3l1.7 3.3 3.7 0.6c0.3 0 0.5 0.3 0.4 0.5z"/><g clip-path="url(#cp1)"></g></svg>