<svg width="16" height="16" viewBox="0 0 16 16" fill="none" xmlns="http://www.w3.org/2000/svg">
<g clip-path="url(#clip0_395_13933)">
<path d="M0.999807 1.08867C-0.257526 2.39467 -0.000192679 3.782 -0.000192679 7.99667C-0.000192679 11.4967 -0.610859 15.0053 2.58514 15.8313C3.58314 16.088 12.4258 16.088 13.4225 15.83C14.7531 15.4867 15.8358 14.4073 15.9838 12.5253C16.0045 12.2627 16.0045 3.73533 15.9831 3.46733C15.8258 1.46267 14.5918 0.307332 12.9658 0.0733325C12.5931 0.0193325 12.5185 0.00333248 10.6065 -8.58679e-07C3.82447 0.00333248 2.33781 -0.298668 0.999807 1.08867Z" fill="url(#paint0_linear_395_13933)"/>
<path d="M7.99789 2.09262C5.57723 2.09262 3.27856 1.87728 2.40056 4.13062C2.03789 5.06128 2.09056 6.26995 2.09056 8.00062C2.09056 9.51928 2.04189 10.9466 2.40056 11.8699C3.27656 14.1246 5.59389 13.9086 7.99656 13.9086C10.3146 13.9086 12.7046 14.1499 13.5932 11.8699C13.9566 10.9299 13.9032 9.73928 13.9032 8.00062C13.9032 5.69262 14.0306 4.20262 12.9112 3.08395C11.7779 1.95062 10.2452 2.09262 7.99523 2.09262H7.99789ZM7.46856 3.15728C12.5179 3.14928 13.1606 2.58795 12.8059 10.3859C12.6799 13.1439 10.5799 12.8413 7.99856 12.8413C3.29189 12.8413 3.15656 12.7066 3.15656 7.99795C3.15656 3.23462 3.52989 3.15995 7.46856 3.15595V3.15728ZM11.1512 4.13795C10.7599 4.13795 10.4426 4.45528 10.4426 4.84662C10.4426 5.23795 10.7599 5.55528 11.1512 5.55528C11.5426 5.55528 11.8599 5.23795 11.8599 4.84662C11.8599 4.45528 11.5426 4.13795 11.1512 4.13795ZM7.99789 4.96662C6.32256 4.96662 4.96456 6.32528 4.96456 8.00062C4.96456 9.67595 6.32256 11.0339 7.99789 11.0339C9.67323 11.0339 11.0306 9.67595 11.0306 8.00062C11.0306 6.32528 9.67323 4.96662 7.99789 4.96662ZM7.99789 6.03128C10.6012 6.03128 10.6046 9.96995 7.99789 9.96995C5.39523 9.96995 5.39123 6.03128 7.99789 6.03128Z" fill="white"/>
</g>
<defs>
<linearGradient id="paint0_linear_395_13933" x1="1.03049" y1="14.9781" x2="15.9008" y2="2.10798" gradientUnits="userSpaceOnUse">
<stop stop-color="#FFDD55"/>
<stop offset="0.5" stop-color="#FF543E"/>
<stop offset="1" stop-color="#C837AB"/>
</linearGradient>
<clipPath id="clip0_395_13933">
<rect width="16" height="16" fill="white"/>
</clipPath>
</defs>
</svg>
