<svg width="97" height="12" viewBox="0 0 97 12" fill="none" xmlns="http://www.w3.org/2000/svg">
<g clip-path="url(#clip0_1238_12686)">
<path d="M12.4 4.7C12.4 4.83333 12.3667 4.93333 12.3 5L9.6 7.6L10.2 11.3C10.3 11.6 10.1 11.8 9.8 11.9C9.73333 11.9 9.63333 11.8667 9.5 11.8L6.2 10.1L2.9 11.8C2.83333 11.8667 2.73333 11.9 2.6 11.9C2.53333 11.9 2.46667 11.8667 2.4 11.8C2.33333 11.7333 2.26667 11.6667 2.2 11.6C2.2 11.5333 2.2 11.4333 2.2 11.3L2.8 7.6L0.1 5C0.0333333 4.86667 0 4.73333 0 4.6C0 4.53333 0.0333333 4.43333 0.1 4.3C0.166667 4.23333 0.266667 4.2 0.4 4.2L4.1 3.6L5.8 0.300002C5.9 1.51992e-06 6.2 -0.0999985 6.4 1.52737e-06C6.53333 0.0666682 6.6 0.166668 6.6 0.300002L8.3 3.6L12 4.2C12.3 4.2 12.5 4.5 12.4 4.7Z" fill="#137EFC"/>
<path d="M33.4 4.7C33.4 4.83333 33.3667 4.93333 33.3 5L30.6 7.6L31.2 11.3C31.3 11.6 31.1 11.8 30.8 11.9C30.7333 11.9 30.6333 11.8667 30.5 11.8L27.2 10.1L23.9 11.8C23.8333 11.8667 23.7333 11.9 23.6 11.9C23.5333 11.9 23.4667 11.8667 23.4 11.8C23.3333 11.7333 23.2667 11.6667 23.2 11.6C23.2 11.5333 23.2 11.4333 23.2 11.3L23.8 7.6L21.1 5C21.0333 4.86667 21 4.73333 21 4.6C21 4.53333 21.0333 4.43333 21.1 4.3C21.1667 4.23333 21.2667 4.2 21.4 4.2L25.1 3.6L26.8 0.300002C26.9 1.51992e-06 27.2 -0.0999985 27.4 1.52737e-06C27.5333 0.0666682 27.6 0.166668 27.6 0.300002L29.3 3.6L33 4.2C33.3 4.2 33.5 4.5 33.4 4.7Z" fill="#137EFC"/>
<path d="M54.4 4.7C54.4 4.83333 54.3667 4.93333 54.3 5L51.6 7.6L52.2 11.3C52.3 11.6 52.1 11.8 51.8 11.9C51.7333 11.9 51.6333 11.8667 51.5 11.8L48.2 10.1L44.9 11.8C44.8333 11.8667 44.7333 11.9 44.6 11.9C44.5333 11.9 44.4667 11.8667 44.4 11.8C44.3333 11.7333 44.2667 11.6667 44.2 11.6C44.2 11.5333 44.2 11.4333 44.2 11.3L44.8 7.6L42.1 5C42.0333 4.86667 42 4.73333 42 4.6C42 4.53333 42.0333 4.43333 42.1 4.3C42.1667 4.23333 42.2667 4.2 42.4 4.2L46.1 3.6L47.8 0.300002C47.9 1.51992e-06 48.2 -0.0999985 48.4 1.52737e-06C48.5333 0.0666682 48.6 0.166668 48.6 0.300002L50.3 3.6L54 4.2C54.3 4.2 54.5 4.5 54.4 4.7V4.7Z" fill="#137EFC"/>
<path d="M95.1754 4.59025L95.15 4.64098V4.7C95.15 4.78934 95.1291 4.81685 95.124 4.82244L92.4266 7.41992L92.3323 7.51076L92.3532 7.64002L92.9532 11.34L92.9564 11.3599L92.9628 11.3791C92.9883 11.4556 92.9731 11.4942 92.95 11.525C92.922 11.5624 92.8656 11.606 92.7729 11.6437C92.7675 11.6421 92.7612 11.6402 92.7541 11.6378C92.7191 11.6262 92.6725 11.6067 92.6131 11.577L89.3145 9.87776L89.2 9.81878L89.0855 9.87776L85.7855 11.5778L85.7508 11.5956L85.7232 11.6232C85.7201 11.6264 85.6964 11.6485 85.6091 11.6499C85.6036 11.6467 85.5927 11.6391 85.5768 11.6232L85.4768 11.5232L85.45 11.4964V11.4962V11.4956V11.495V11.4945V11.4939V11.4934V11.4928V11.4922V11.4917V11.4911V11.4905V11.49V11.4894V11.4888V11.4883V11.4877V11.4871V11.4866V11.486V11.4854V11.4849V11.4843V11.4837V11.4831V11.4826V11.482V11.4814V11.4808V11.4802V11.4797V11.4791V11.4785V11.4779V11.4773V11.4768V11.4762V11.4756V11.475V11.4744V11.4738V11.4732V11.4727V11.4721V11.4715V11.4709V11.4703V11.4697V11.4691V11.4685V11.4679V11.4673V11.4667V11.4661V11.4655V11.4649V11.4643V11.4637V11.4631V11.4625V11.4619V11.4613V11.4607V11.4601V11.4595V11.4589V11.4583V11.4577V11.4571V11.4565V11.4559V11.4553V11.4546V11.454V11.4534V11.4528V11.4522V11.4516V11.451V11.4503V11.4497V11.4491V11.4485V11.4479V11.4472V11.4466V11.446V11.4454V11.4448V11.4441V11.4435V11.4429V11.4422V11.4416V11.441V11.4404V11.4397V11.4391V11.4385V11.4378V11.4372V11.4366V11.4359V11.4353V11.4347V11.434V11.4334V11.4328V11.4321V11.4315V11.4308V11.4302V11.4296V11.4289V11.4283V11.4276V11.427V11.4263V11.4257V11.425V11.4244V11.4237V11.4231V11.4224V11.4218V11.4211V11.4205V11.4198V11.4192V11.4185V11.4179V11.4172V11.4166V11.4159V11.4152V11.4146V11.4139V11.4133V11.4126V11.4119V11.4113V11.4106V11.4099V11.4093V11.4086V11.4079V11.4073V11.4066V11.4059V11.4053V11.4046V11.4039V11.4032V11.4026V11.4019V11.4012V11.4005V11.3999V11.3992V11.3985V11.3978V11.3972V11.3965V11.3958V11.3951V11.3944V11.3938V11.3931V11.3924V11.3917V11.391V11.3903V11.3896V11.3889V11.3883V11.3876V11.3869V11.3862V11.3855V11.3848V11.3841V11.3834V11.3827V11.382V11.3813V11.3806V11.3799V11.3792V11.3785V11.3778V11.3771V11.3764V11.3757V11.375V11.3743V11.3736V11.3729V11.3722V11.3715V11.3708V11.3701V11.3694V11.3686V11.3679V11.3672V11.3665V11.3658V11.3651V11.3644V11.3637V11.3629V11.3622V11.3615V11.3608V11.3601V11.3593V11.3586V11.3579V11.3572V11.3565V11.3557V11.355V11.3543V11.3535V11.3528V11.3521V11.3514V11.3506V11.3499V11.3492V11.3484V11.3477V11.347V11.3462V11.3455V11.3448V11.344V11.3433V11.3426V11.3418V11.3411V11.3403V11.3396V11.3389V11.3381V11.3374V11.3366V11.3359V11.3351V11.3344V11.3336V11.3329V11.3321V11.3314V11.3306V11.3299V11.3291V11.3284V11.3276V11.3269V11.3261V11.3254V11.3246V11.3239V11.3231V11.3223V11.3216V11.3208V11.3201V11.3201L86.0468 7.64002L86.0677 7.51076L85.9734 7.41992L83.3065 4.85174C83.2672 4.76278 83.25 4.67939 83.25 4.6C83.25 4.60056 83.25 4.60085 83.25 4.60085C83.2501 4.60086 83.2512 4.58688 83.2622 4.55406C83.2703 4.52981 83.2821 4.5 83.2985 4.46421C83.3164 4.45722 83.3475 4.45 83.4 4.45H83.4201L83.44 4.44678L87.14 3.84678L87.2645 3.82659L87.3222 3.71449L89.0222 0.414491L89.0311 0.39735L89.0372 0.379058C89.0932 0.210933 89.2358 0.197389 89.2882 0.223608C89.3252 0.242112 89.3379 0.257609 89.342 0.263674C89.345 0.268175 89.35 0.277079 89.35 0.300002V0.360611L89.3778 0.414491L91.0778 3.71449L91.1355 3.82659L91.26 3.84678L94.96 4.44678L94.9799 4.45H95C95.0637 4.45 95.1175 4.48161 95.15 4.525C95.1815 4.56697 95.175 4.59015 95.1754 4.59025Z" fill="white" stroke="#137EFC" stroke-width="0.5"/>
<path d="M75.4 4.7C75.4 4.83333 75.3667 4.93333 75.3 5L72.6 7.6L73.2 11.3C73.3 11.6 73.1 11.8 72.8 11.9C72.7333 11.9 72.6333 11.8667 72.5 11.8L69.2 10.1L65.9 11.8C65.8333 11.8667 65.7333 11.9 65.6 11.9C65.5333 11.9 65.4667 11.8667 65.4 11.8C65.3333 11.7333 65.2667 11.6667 65.2 11.6C65.2 11.5333 65.2 11.4333 65.2 11.3L65.8 7.6L63.1 5C63.0333 4.86667 63 4.73333 63 4.6C63 4.53333 63.0333 4.43333 63.1 4.3C63.1667 4.23333 63.2667 4.2 63.4 4.2L67.1 3.6L68.8 0.300002C68.9 1.51992e-06 69.2 -0.0999985 69.4 1.52737e-06C69.5333 0.0666682 69.6 0.166668 69.6 0.300002L71.3 3.6L75 4.2C75.3 4.2 75.5 4.5 75.4 4.7Z" fill="#137EFC"/>
</g>
<defs>
<clipPath id="clip0_1238_12686">
<rect width="97" height="12" fill="white"/>
</clipPath>
</defs>
</svg>
