<svg width="70" height="10" viewBox="0 0 70 10" fill="none" xmlns="http://www.w3.org/2000/svg">
<path d="M9.17336 3.69721L6.51485 3.31084L5.32643 0.901531C5.29397 0.835566 5.24057 0.782165 5.1746 0.749706C5.00916 0.668035 4.80813 0.736094 4.72541 0.901531L3.53698 3.31084L0.878469 3.69721C0.805174 3.70768 0.738161 3.74223 0.686855 3.79459C0.624828 3.85834 0.590648 3.94411 0.591826 4.03305C0.593004 4.12199 0.629444 4.20682 0.693137 4.26891L2.61661 6.14421L2.16218 8.79225C2.15152 8.85385 2.15834 8.9172 2.18185 8.97513C2.20537 9.03305 2.24465 9.08322 2.29523 9.11996C2.34581 9.1567 2.40567 9.17853 2.46803 9.18297C2.53038 9.18742 2.59274 9.1743 2.64802 9.14511L5.02592 7.89491L7.40381 9.14511C7.46873 9.17967 7.54412 9.19119 7.61637 9.17862C7.79856 9.14721 7.92107 8.97444 7.88966 8.79225L7.43523 6.14421L9.3587 4.26891C9.41105 4.2176 9.4456 4.15059 9.45607 4.0773C9.48434 3.89406 9.3566 3.72443 9.17336 3.69721V3.69721Z" fill="#137EFC"/>
<path d="M24.1734 3.69721L21.5149 3.31084L20.3264 0.901531C20.294 0.835566 20.2406 0.782165 20.1746 0.749706C20.0092 0.668035 19.8081 0.736094 19.7254 0.901531L18.537 3.31084L15.8785 3.69721C15.8052 3.70768 15.7382 3.74223 15.6869 3.79459C15.6248 3.85834 15.5906 3.94411 15.5918 4.03305C15.593 4.12199 15.6294 4.20682 15.6931 4.26891L17.6166 6.14421L17.1622 8.79225C17.1515 8.85385 17.1583 8.9172 17.1819 8.97513C17.2054 9.03305 17.2446 9.08322 17.2952 9.11996C17.3458 9.1567 17.4057 9.17853 17.468 9.18297C17.5304 9.18742 17.5927 9.1743 17.648 9.14511L20.0259 7.89491L22.4038 9.14511C22.4687 9.17967 22.5441 9.19119 22.6164 9.17862C22.7986 9.14721 22.9211 8.97444 22.8897 8.79225L22.4352 6.14421L24.3587 4.26891C24.411 4.2176 24.4456 4.15059 24.4561 4.0773C24.4843 3.89406 24.3566 3.72443 24.1734 3.69721V3.69721Z" fill="#137EFC"/>
<path d="M39.1734 3.69721L36.5149 3.31084L35.3264 0.901531C35.294 0.835566 35.2406 0.782165 35.1746 0.749706C35.0092 0.668035 34.8081 0.736094 34.7254 0.901531L33.537 3.31084L30.8785 3.69721C30.8052 3.70768 30.7382 3.74223 30.6869 3.79459C30.6248 3.85834 30.5906 3.94411 30.5918 4.03305C30.593 4.12199 30.6294 4.20682 30.6931 4.26891L32.6166 6.14421L32.1622 8.79225C32.1515 8.85385 32.1583 8.9172 32.1819 8.97513C32.2054 9.03305 32.2446 9.08322 32.2952 9.11996C32.3458 9.1567 32.4057 9.17853 32.468 9.18297C32.5304 9.18742 32.5927 9.1743 32.648 9.14511L35.0259 7.89491L37.4038 9.14511C37.4687 9.17967 37.5441 9.19119 37.6164 9.17862C37.7986 9.14721 37.9211 8.97444 37.8897 8.79225L37.4352 6.14421L39.3587 4.26891C39.411 4.2176 39.4456 4.15059 39.4561 4.0773C39.4843 3.89406 39.3566 3.72443 39.1734 3.69721V3.69721Z" fill="#137EFC"/>
<path d="M54.1734 3.69721L51.5149 3.31084L50.3264 0.901531C50.294 0.835566 50.2406 0.782165 50.1746 0.749706C50.0092 0.668035 49.8081 0.736094 49.7254 0.901531L48.537 3.31084L45.8785 3.69721C45.8052 3.70768 45.7382 3.74223 45.6869 3.79459C45.6248 3.85834 45.5906 3.94411 45.5918 4.03305C45.593 4.12199 45.6294 4.20682 45.6931 4.26891L47.6166 6.14421L47.1622 8.79225C47.1515 8.85385 47.1583 8.9172 47.1819 8.97513C47.2054 9.03305 47.2446 9.08322 47.2952 9.11996C47.3458 9.1567 47.4057 9.17853 47.468 9.18297C47.5304 9.18742 47.5927 9.1743 47.648 9.14511L50.0259 7.89491L52.4038 9.14511C52.4687 9.17967 52.5441 9.19119 52.6164 9.17862C52.7986 9.14721 52.9211 8.97444 52.8897 8.79225L52.4352 6.14421L54.3587 4.26891C54.411 4.2176 54.4456 4.15059 54.4561 4.0773C54.4843 3.89406 54.3566 3.72443 54.1734 3.69721V3.69721Z" fill="#137EFC"/>
<path d="M69.1734 3.69721L66.5149 3.31084L65.3264 0.901531C65.294 0.835566 65.2406 0.782165 65.1746 0.749706C65.0092 0.668035 64.8081 0.736094 64.7254 0.901531L63.537 3.31084L60.8785 3.69721C60.8052 3.70768 60.7382 3.74223 60.6869 3.79459C60.6248 3.85834 60.5906 3.94411 60.5918 4.03305C60.593 4.12199 60.6294 4.20682 60.6931 4.26891L62.6166 6.14421L62.1622 8.79225C62.1515 8.85385 62.1583 8.9172 62.1819 8.97513C62.2054 9.03305 62.2446 9.08322 62.2952 9.11996C62.3458 9.1567 62.4057 9.17853 62.468 9.18297C62.5304 9.18742 62.5927 9.1743 62.648 9.14511L65.0259 7.89491L67.4038 9.14511C67.4687 9.17967 67.5441 9.19119 67.6164 9.17862C67.7986 9.14721 67.9211 8.97444 67.8897 8.79225L67.4352 6.14421L69.3587 4.26891C69.411 4.2176 69.4456 4.15059 69.4561 4.0773C69.4843 3.89406 69.3566 3.72443 69.1734 3.69721V3.69721Z" fill="#137EFC"/>
</svg>
