<svg width="17" height="16" viewBox="0 0 17 16" fill="none" xmlns="http://www.w3.org/2000/svg">
<g clip-path="url(#clip0_395_13936)">
<path d="M15.4029 0H1.92917C1.23155 0 0.666016 0.565535 0.666016 1.26316V14.7368C0.666016 15.4345 1.23155 16 1.92917 16H15.4029C16.1005 16 16.666 15.4345 16.666 14.7368V1.26316C16.666 0.565535 16.1005 0 15.4029 0Z" fill="#03A9F4"/>
<path d="M13.8474 4.78642C13.4576 4.95666 13.0453 5.06976 12.6232 5.12221C13.0681 4.85835 13.4007 4.44033 13.5579 3.94748C13.1414 4.19467 12.6857 4.36876 12.2105 4.46221C11.9193 4.15079 11.5412 3.9342 11.1252 3.84062C10.7093 3.74704 10.2748 3.78079 9.87825 3.93749C9.48173 4.09419 9.14155 4.36658 8.90194 4.71923C8.66233 5.07189 8.53439 5.48849 8.53475 5.91484C8.53325 6.07758 8.54985 6.23998 8.58422 6.39905C7.73893 6.35754 6.91191 6.13816 6.15717 5.75526C5.40243 5.37236 4.73696 4.83455 4.20422 4.17695C3.93039 4.64475 3.84556 5.19947 3.96705 5.72772C4.08855 6.25598 4.40722 6.7179 4.85791 7.01905C4.52151 7.00999 4.19224 6.92009 3.89791 6.75695V6.78011C3.89885 7.27045 4.06858 7.74552 4.37855 8.12546C4.68852 8.5054 5.11984 8.76705 5.60001 8.86642C5.4183 8.91417 5.23104 8.93753 5.04317 8.9359C4.90789 8.9384 4.77273 8.9264 4.64001 8.90011C4.77758 9.32181 5.04242 9.69054 5.39812 9.95557C5.75382 10.2206 6.18289 10.3689 6.62633 10.3801C5.87488 10.9675 4.94851 11.2865 3.99475 11.2864C3.82481 11.2879 3.65496 11.278 3.48633 11.2569C4.45882 11.884 5.59239 12.2153 6.74949 12.2106C10.66 12.2106 12.7979 8.97169 12.7979 6.16432C12.7979 6.07063 12.7979 5.98011 12.7905 5.88958C13.2069 5.5891 13.565 5.21527 13.8474 4.78642Z" fill="white"/>
</g>
<defs>
<clipPath id="clip0_395_13936">
<rect width="16" height="16" fill="white" transform="translate(0.666016)"/>
</clipPath>
</defs>
</svg>
