<?xml version="1.0" encoding="utf-8"?>
<!-- Generator: Adobe Illustrator 24.1.2, SVG Export Plug-In . SVG Version: 6.00 Build 0)  -->
<svg version="1.1" id="Layer_1" xmlns="http://www.w3.org/2000/svg" xmlns:xlink="http://www.w3.org/1999/xlink" x="0px" y="0px"
	 viewBox="0 0 30 30" style="enable-background:new 0 0 30 30;" xml:space="preserve">
<style type="text/css">
	.st0{fill:#FFFFFF;}
</style>
<path class="st0" d="M3,16.5h9c0.4,0,0.8-0.2,1.1-0.4c0.3-0.3,0.4-0.7,0.4-1.1V6c0-0.4-0.2-0.8-0.4-1.1c-0.3-0.3-0.7-0.4-1.1-0.4H3
	c-0.4,0-0.8,0.2-1.1,0.4S1.5,5.6,1.5,6v9c0,0.4,0.2,0.8,0.4,1.1S2.6,16.5,3,16.5z M4.5,7.5h6v6h-6V7.5z M27,4.5h-9
	c-0.4,0-0.8,0.2-1.1,0.4S16.5,5.6,16.5,6v9c0,0.4,0.2,0.8,0.4,1.1s0.7,0.4,1.1,0.4h9c0.4,0,0.8-0.2,1.1-0.4s0.4-0.7,0.4-1.1V6
	c0-0.4-0.2-0.8-0.4-1.1S27.4,4.5,27,4.5L27,4.5z M25.5,13.5h-6v-6h6V13.5z M12,31.5c0.4,0,0.8-0.2,1.1-0.4c0.3-0.3,0.4-0.7,0.4-1.1
	v-9c0-0.4-0.2-0.8-0.4-1.1c-0.3-0.3-0.7-0.4-1.1-0.4H3c-0.4,0-0.8,0.2-1.1,0.4S1.5,20.6,1.5,21v9c0,0.4,0.2,0.8,0.4,1.1
	s0.7,0.4,1.1,0.4H12z M4.5,22.5h6v6h-6V22.5z M24,21h-3v3h-3v3h3v3h3v-3h3v-3h-3V21z"/>
</svg>
