<?xml version="1.0" encoding="utf-8"?>
<!-- Generator: Adobe Illustrator 24.1.2, SVG Export Plug-In . SVG Version: 6.00 Build 0)  -->
<svg version="1.1" id="Layer_1" xmlns="http://www.w3.org/2000/svg" xmlns:xlink="http://www.w3.org/1999/xlink" x="0px" y="0px"
	 viewBox="0 0 48 48" style="enable-background:new 0 0 48 48;" xml:space="preserve">
<style type="text/css">
	.st0{fill:none;stroke:#FFFFFF;stroke-width:4;stroke-linecap:round;stroke-linejoin:round;}
	.st1{fill:none;stroke:#FFFFFF;stroke-width:4;}
</style>
<path class="st0" d="M42,24V9c0-0.8-0.3-1.6-0.9-2.1S39.8,6,39,6H9C8.2,6,7.4,6.3,6.9,6.9S6,8.2,6,9v30c0,0.8,0.3,1.6,0.9,2.1
	S8.2,42,9,42h15"/>
<path class="st1" d="M32,38c3.3,0,6-2.7,6-6s-2.7-6-6-6s-6,2.7-6,6S28.7,38,32,38z"/>
<path class="st0" d="M14,24h8 M37,36l5,4L37,36z M14,16h20H14z"/>
</svg>
