<?xml version="1.0" encoding="utf-8"?>
<!-- Generator: Adobe Illustrator 24.1.2, SVG Export Plug-In . SVG Version: 6.00 Build 0)  -->
<svg version="1.1" id="Layer_1" xmlns="http://www.w3.org/2000/svg" xmlns:xlink="http://www.w3.org/1999/xlink" x="0px" y="0px"
	 viewBox="0 0 30 30" style="enable-background:new 0 0 30 30;" xml:space="preserve">
<style type="text/css">
	.st0{fill:#FFFFFF;}
</style>
<path class="st0" d="M9.8,9C9.6,9,9.4,9.1,9.2,9.2C9.1,9.4,9,9.6,9,9.8s0.1,0.4,0.2,0.5c0.1,0.1,0.3,0.2,0.5,0.2h10.5
	c0.2,0,0.4-0.1,0.5-0.2c0.1-0.1,0.2-0.3,0.2-0.5s-0.1-0.4-0.2-0.5C20.6,9.1,20.4,9,20.3,9H9.8z M9,12.8c0-0.2,0.1-0.4,0.2-0.5
	C9.4,12.1,9.6,12,9.8,12h10.5c0.2,0,0.4,0.1,0.5,0.2c0.1,0.1,0.2,0.3,0.2,0.5s-0.1,0.4-0.2,0.5s-0.3,0.2-0.5,0.2H9.8
	c-0.2,0-0.4-0.1-0.5-0.2C9.1,13.1,9,12.9,9,12.8z M9.8,15c-0.2,0-0.4,0.1-0.5,0.2C9.1,15.4,9,15.6,9,15.8s0.1,0.4,0.2,0.5
	c0.1,0.1,0.3,0.2,0.5,0.2h6c0.2,0,0.4-0.1,0.5-0.2s0.2-0.3,0.2-0.5s-0.1-0.4-0.2-0.5s-0.3-0.2-0.5-0.2L9.8,15L9.8,15z M6,5.3
	c0-0.6,0.2-1.2,0.7-1.6S7.7,3,8.3,3h13.5c0.6,0,1.2,0.2,1.6,0.7c0.4,0.4,0.7,1,0.7,1.6v19.5c0,0.6-0.2,1.2-0.7,1.6
	c-0.4,0.4-1,0.7-1.6,0.7H8.3c-0.6,0-1.2-0.2-1.6-0.7C6.3,26,6,25.4,6,24.8C6,24.8,6,5.3,6,5.3z M8.3,4.5c-0.2,0-0.4,0.1-0.5,0.2
	C7.6,4.9,7.5,5.1,7.5,5.3v19.5c0,0.2,0.1,0.4,0.2,0.5s0.3,0.2,0.5,0.2h13.5c0.2,0,0.4-0.1,0.5-0.2s0.2-0.3,0.2-0.5V5.3
	c0-0.2-0.1-0.4-0.2-0.5s-0.3-0.2-0.5-0.2H8.3V4.5z"/>
</svg>
