<svg width="56" height="56" viewBox="0 0 56 56" fill="none" xmlns="http://www.w3.org/2000/svg">
<circle cx="28" cy="28" r="28" fill="url(#paint0_linear_374_287)" fill-opacity="0.25"/>
<path d="M39.7362 19.6913C39.3814 19.3356 38.8065 19.3346 38.4504 19.6888L31.5477 26.5637L29.5529 24.5688C29.1977 24.214 28.6226 24.2136 28.2674 24.5688L20.1765 32.6597C19.8214 33.0146 19.8214 33.5904 20.1765 33.9452C20.3538 34.1228 20.5865 34.2115 20.8193 34.2115C21.0517 34.2115 21.2848 34.1228 21.462 33.9452L28.9102 26.4973L30.9038 28.4906C31.2587 28.8455 31.8323 28.8458 32.188 28.4921L39.7335 20.977C40.0892 20.6228 40.0905 20.047 39.7362 19.6913Z" fill="#F58220"/>
<path d="M39.0606 37H17.8182V17.9091C17.8182 17.407 17.4112 17 16.9091 17C16.407 17 16 17.407 16 17.9091V37.9091C16 38.4112 16.407 38.8182 16.9091 38.8182H39.0606C39.5627 38.8182 39.9697 38.4112 39.9697 37.9091C39.9697 37.4069 39.5627 37 39.0606 37Z" fill="#F58220"/>
<path d="M39.0905 19.3945H32.2724C31.7702 19.3945 31.3633 19.8015 31.3633 20.3036C31.3633 20.8057 31.7702 21.2127 32.2724 21.2127H38.1815V27.1221C38.1815 27.6239 38.5884 28.0312 39.0906 28.0312C39.5927 28.0312 39.9996 27.6239 39.9996 27.1218V20.3036C39.9996 19.8015 39.5926 19.3945 39.0905 19.3945Z" fill="#F58220"/>
<defs>
<linearGradient id="paint0_linear_374_287" x1="-1.65791" y1="27.0957" x2="43.5658" y2="27.0036" gradientUnits="userSpaceOnUse">
<stop stop-color="#F58220"/>
<stop offset="1" stop-color="#F58220" stop-opacity="0"/>
</linearGradient>
</defs>
</svg>
