<svg width="18" height="18" viewBox="0 0 18 18" fill="none" xmlns="http://www.w3.org/2000/svg">
<path d="M15.5616 9.00074L16.3896 7.56974C16.4891 7.39758 16.5162 7.19293 16.4648 7.00082C16.4135 6.8087 16.288 6.64483 16.1159 6.54524L14.6834 5.71725V4.06724C14.6834 3.86833 14.6043 3.67757 14.4637 3.53691C14.323 3.39626 14.1323 3.31724 13.9334 3.31724H12.2841L11.4569 1.8855C11.3569 1.71368 11.1934 1.58812 11.0016 1.53599C10.9065 1.51021 10.8072 1.50356 10.7095 1.51643C10.6117 1.52931 10.5176 1.56145 10.4324 1.611L8.99985 2.43899L7.56735 1.61024C7.3951 1.51079 7.19039 1.48384 6.99826 1.53532C6.80613 1.5868 6.64231 1.71249 6.54285 1.88475L5.71485 3.31724H4.06561C3.86669 3.31724 3.67593 3.39626 3.53528 3.53691C3.39462 3.67757 3.31561 3.86833 3.31561 4.06724V5.71649L1.88311 6.5445C1.79763 6.59366 1.72271 6.65923 1.66265 6.73744C1.6026 6.81565 1.55859 6.90495 1.53315 7.00022C1.50771 7.09549 1.50135 7.19485 1.51442 7.29259C1.5275 7.39033 1.55976 7.48451 1.60936 7.56974L2.43736 9.00074L1.60936 10.4317C1.51035 10.6041 1.48348 10.8086 1.53462 11.0006C1.58576 11.1927 1.71076 11.3567 1.88236 11.457L3.31486 12.285V13.9342C3.31486 14.1332 3.39387 14.3239 3.53453 14.4646C3.67518 14.6052 3.86594 14.6842 4.06486 14.6842H5.71485L6.54285 16.1167C6.60925 16.2302 6.70406 16.3245 6.81794 16.3903C6.93182 16.456 7.06086 16.491 7.19235 16.4917C7.32285 16.4917 7.4526 16.4572 7.5681 16.3905L8.9991 15.5625L10.4316 16.3905C10.6038 16.4898 10.8084 16.5168 11.0005 16.4654C11.1925 16.4141 11.3564 16.2887 11.4561 16.1167L12.2834 14.6842H13.9326C14.1315 14.6842 14.3223 14.6052 14.4629 14.4646C14.6036 14.3239 14.6826 14.1332 14.6826 13.9342V12.285L16.1151 11.457C16.2004 11.4077 16.2752 11.342 16.3352 11.2638C16.3951 11.1856 16.439 11.0963 16.4645 11.0011C16.4899 10.9059 16.4963 10.8066 16.4833 10.7089C16.4703 10.6112 16.4382 10.517 16.3889 10.4317L15.5616 9.00074ZM7.1241 5.24324C7.42257 5.24334 7.70878 5.36201 7.91975 5.57312C8.13073 5.78424 8.2492 6.07053 8.2491 6.36899C8.249 6.66746 8.13034 6.95367 7.91922 7.16465C7.70811 7.37562 7.42182 7.49409 7.12335 7.49399C6.82489 7.4939 6.53868 7.37523 6.3277 7.16411C6.11673 6.953 5.99826 6.66671 5.99836 6.36824C5.99845 6.06978 6.11712 5.78357 6.32823 5.57259C6.53935 5.36162 6.82564 5.24315 7.1241 5.24324V5.24324ZM7.3491 12.4432L6.14911 11.544L10.6491 5.54399L11.8491 6.44324L7.3491 12.4432ZM10.8741 12.7432C10.7263 12.7432 10.58 12.714 10.4435 12.6574C10.307 12.6008 10.1829 12.5179 10.0785 12.4134C9.97399 12.3088 9.89114 12.1847 9.83463 12.0482C9.77812 11.9116 9.74906 11.7653 9.7491 11.6175C9.74915 11.4697 9.77831 11.3234 9.83491 11.1869C9.89151 11.0503 9.97445 10.9263 10.079 10.8218C10.1835 10.7174 10.3076 10.6345 10.4442 10.578C10.5807 10.5215 10.7271 10.4924 10.8749 10.4925C11.1733 10.4926 11.4595 10.6113 11.6705 10.8224C11.8815 11.0335 12 11.3198 11.9999 11.6182C11.9998 11.9167 11.8811 12.2029 11.67 12.4139C11.4589 12.6249 11.1726 12.7433 10.8741 12.7432V12.7432Z" fill="white"/>
</svg>
