<svg width="56" height="56" viewBox="0 0 56 56" fill="none" xmlns="http://www.w3.org/2000/svg">
<circle cx="28" cy="28" r="28" fill="url(#paint0_linear_374_298)" fill-opacity="0.25"/>
<path d="M32.2253 24.2273C32.771 24.2273 33.2139 23.7844 33.2139 23.2386C33.2139 22.6929 32.771 22.25 32.2253 22.25H23.657C23.1113 22.25 22.6684 22.6929 22.6684 23.2386C22.6684 23.7844 23.1113 24.2273 23.657 24.2273H26.6229C27.6644 24.2273 28.5369 24.9258 28.8218 25.8748H23.657C23.1113 25.8748 22.6684 26.3177 22.6684 26.8635C22.6684 27.4092 23.1113 27.8521 23.657 27.8521H28.5106C28.0928 28.448 27.4033 28.8407 26.6229 28.8407H23.657C23.2235 28.8407 22.8397 29.1244 22.7121 29.5381C22.5841 29.952 22.741 30.4017 23.0994 30.6466L30.3496 35.5898C30.5207 35.7059 30.7133 35.7612 30.9057 35.7612C31.2221 35.7612 31.5333 35.6111 31.7244 35.3301C32.0302 34.878 31.9156 34.2626 31.4647 33.9553L26.8537 30.8115C28.653 30.7166 30.144 29.4973 30.6803 27.8521H32.2253C32.771 27.8521 33.2139 27.4092 33.2139 26.8635C33.2139 26.3177 32.771 25.8748 32.2253 25.8748H30.8398C30.7462 25.2765 30.5367 24.7175 30.2217 24.2273H32.2253Z" fill="#F58220"/>
<path d="M28.5001 12C19.4026 12 12 19.4026 12 28.5001C12 37.5977 19.4026 45 28.5001 45C37.5977 45 45 37.5977 45 28.5001C45 19.4026 37.5977 12 28.5001 12V12ZM28.5001 42.75C20.643 42.75 14.25 36.357 14.25 28.5001C14.25 20.643 20.643 14.25 28.5001 14.25C36.357 14.25 42.75 20.643 42.75 28.5001C42.75 36.357 36.357 42.75 28.5001 42.75V42.75Z" fill="#F58220"/>
<defs>
<linearGradient id="paint0_linear_374_298" x1="-1.65791" y1="27.0957" x2="43.5658" y2="27.0036" gradientUnits="userSpaceOnUse">
<stop stop-color="#F58220"/>
<stop offset="1" stop-color="#F58220" stop-opacity="0"/>
</linearGradient>
</defs>
</svg>
