<svg width="56" height="56" viewBox="0 0 56 56" fill="none" xmlns="http://www.w3.org/2000/svg">
<circle cx="28" cy="28" r="28" fill="url(#paint0_linear_374_293)" fill-opacity="0.25"/>
<path d="M21.1284 19.897C22.4386 19.897 23.4315 20.3853 24.1069 21.3618C24.7824 22.3302 25.1201 23.7015 25.1201 25.4756C25.1201 27.2415 24.7946 28.6209 24.1436 29.6138C23.5007 30.6066 22.4956 31.103 21.1284 31.103C19.8507 31.103 18.8783 30.6066 18.2109 29.6138C17.5436 28.6209 17.21 27.2415 17.21 25.4756C17.21 23.7015 17.5233 22.3302 18.1499 21.3618C18.7847 20.3853 19.7775 19.897 21.1284 19.897ZM21.1406 21.8989C20.6117 21.8989 20.221 22.196 19.9688 22.79C19.7246 23.3841 19.6025 24.2834 19.6025 25.4878C19.6025 26.6841 19.7246 27.5874 19.9688 28.1978C20.221 28.8 20.6117 29.1011 21.1406 29.1011C21.6777 29.1011 22.0765 28.8 22.3369 28.1978C22.6055 27.5955 22.7397 26.6922 22.7397 25.4878C22.7397 24.2915 22.6095 23.3963 22.3491 22.8022C22.0887 22.2 21.6859 21.8989 21.1406 21.8989ZM33.1157 20.1533L23.2158 38H20.8599L30.7598 20.1533H33.1157ZM32.7861 27.0381C34.0964 27.0381 35.0892 27.5264 35.7646 28.5029C36.4482 29.4714 36.79 30.8426 36.79 32.6167C36.79 34.3745 36.4645 35.7498 35.8135 36.7427C35.1706 37.7355 34.1615 38.2319 32.7861 38.2319C31.5085 38.2319 30.536 37.7355 29.8687 36.7427C29.2013 35.7498 28.8677 34.3745 28.8677 32.6167C28.8677 30.8426 29.181 29.4714 29.8076 28.5029C30.4424 27.5264 31.4352 27.0381 32.7861 27.0381ZM32.7983 29.04C32.2694 29.04 31.8787 29.3371 31.6265 29.9312C31.3823 30.5252 31.2603 31.4245 31.2603 32.6289C31.2603 33.8252 31.3823 34.7285 31.6265 35.3389C31.8787 35.9411 32.2694 36.2422 32.7983 36.2422C33.3436 36.2422 33.7464 35.9451 34.0068 35.3511C34.2673 34.7489 34.3975 33.8415 34.3975 32.6289C34.3975 31.4326 34.2673 30.5374 34.0068 29.9434C33.7464 29.3411 33.3436 29.04 32.7983 29.04Z" fill="#F58220"/>
<defs>
<linearGradient id="paint0_linear_374_293" x1="-1.65791" y1="27.0957" x2="43.5658" y2="27.0036" gradientUnits="userSpaceOnUse">
<stop stop-color="#F58220"/>
<stop offset="1" stop-color="#F58220" stop-opacity="0"/>
</linearGradient>
</defs>
</svg>
