<svg width="20" height="23" viewBox="0 0 20 23" fill="none" xmlns="http://www.w3.org/2000/svg">
<path d="M19.6226 10.5028C19.6226 5.19399 15.3049 0.871094 9.99088 0.871094C4.67708 0.871094 0.359375 5.1888 0.359375 10.5028C0.362891 14.104 2.373 17.4031 5.57156 19.0577L3.311 21.3182C3.21056 21.4183 3.15431 21.5543 3.15431 21.6959C3.15431 21.8375 3.21056 21.9735 3.311 22.0736C3.41145 22.1748 3.54873 22.2308 3.69119 22.2288C3.83333 22.2284 3.96977 22.1725 4.07172 22.0736L6.62139 19.5236C7.69919 19.9267 8.84026 20.1336 9.99088 20.1344C11.1418 20.1361 12.2832 19.9294 13.3604 19.5236L15.9102 22.0736C16.0107 22.1748 16.1479 22.2308 16.2904 22.2288C16.4327 22.2284 16.569 22.1725 16.6709 22.0736C16.7712 21.9735 16.8276 21.8375 16.8276 21.6959C16.8276 21.5543 16.7712 21.4183 16.6709 21.3182L14.4104 19.0577C17.5011 17.4505 19.6226 14.2203 19.6226 10.5028V10.5028ZM9.99088 19.0577C5.27156 19.0577 1.43064 15.2167 1.43064 10.4974C1.43064 5.77809 5.27156 1.94253 9.99088 1.94253C14.7102 1.94253 18.5513 5.78328 18.5513 10.5028C18.5513 15.2223 14.7102 19.0577 9.99088 19.0577V19.0577Z" fill="white" stroke="white" stroke-width="0.5"/>
<path d="M14.0958 12.4792L10.5283 10.5348V5.2582C10.5283 4.96239 10.2886 4.72266 9.99258 4.72266C9.69676 4.72266 9.45703 4.96239 9.45703 5.2582V10.8561C9.45703 11.0523 9.56367 11.2328 9.73544 11.3274L13.5817 13.4274C13.6611 13.4692 13.7491 13.4913 13.8389 13.4917C14.0851 13.4915 14.3001 13.3241 14.3608 13.0854C14.4214 12.8466 14.3125 12.597 14.0958 12.4792Z" fill="white" stroke="white" stroke-width="0.5"/>
</svg>
