<svg width="28" height="28" viewBox="0 0 28 28" fill="none" xmlns="http://www.w3.org/2000/svg">
<g clip-path="url(#clip0_374_324)">
<path d="M27.9548 15.6856C27.8681 15.4857 27.6711 15.3563 27.4531 15.3563H22.6866V10.523C22.6866 10.221 22.4417 9.97617 22.1397 9.97617C21.8377 9.97617 21.5928 10.221 21.5928 10.523V15.9032C21.5928 16.2052 21.8377 16.4501 22.1397 16.4501H26.1922L18.1546 25.0369L13.4297 19.9893C16.8096 18.5054 19.1763 15.1269 19.1763 11.2053C19.1763 8.31537 17.8911 5.71995 15.8622 3.9606H21.5928V5.60123C21.5928 5.90327 21.8377 6.1481 22.1397 6.1481C22.4417 6.1481 22.6866 5.90327 22.6866 5.60123V3.41373C22.6866 3.11169 22.4417 2.86685 22.1397 2.86685H14.3167C12.9205 2.07191 11.3065 1.61719 9.58814 1.61719C4.30123 1.61719 0 5.91841 0 11.2053C0 16.4922 4.30123 20.7935 9.58814 20.7935C10.5348 20.7935 11.4496 20.6549 12.3141 20.3981L17.7553 26.211C17.8588 26.3214 18.0033 26.3841 18.1546 26.3841C18.3059 26.3841 18.4505 26.3214 18.5539 26.211L27.8524 16.277C28.0013 16.1179 28.0416 15.8855 27.9548 15.6856V15.6856ZM1.09375 11.2053C1.09375 6.52151 4.90432 2.71094 9.58814 2.71094C14.272 2.71094 18.0825 6.52151 18.0825 11.2053C18.0825 15.8891 14.272 19.6997 9.58814 19.6997C4.90432 19.6997 1.09375 15.8891 1.09375 11.2053V11.2053Z" fill="white" stroke="white" stroke-width="0.2"/>
<path d="M22.1406 8.60938C22.4427 8.60938 22.6875 8.36453 22.6875 8.0625C22.6875 7.76047 22.4427 7.51562 22.1406 7.51562C21.8386 7.51562 21.5938 7.76047 21.5938 8.0625C21.5938 8.36453 21.8386 8.60938 22.1406 8.60938Z" fill="white" stroke="white" stroke-width="0.2"/>
<path d="M8.24 9.86905C8.55221 9.55864 8.7242 9.14564 8.7242 8.70623C8.7242 8.26681 8.55221 7.85392 8.24 7.54352C7.59759 6.90477 6.55229 6.90477 5.90998 7.54352C5.59772 7.85392 5.42578 8.26687 5.42578 8.70623C5.42578 9.14564 5.59777 9.55859 5.90998 9.86899C6.23122 10.1884 6.65313 10.348 7.07505 10.348C7.49685 10.3481 7.91877 10.1884 8.24 9.86905ZM6.51948 8.70628C6.51948 8.56027 6.5769 8.42278 6.68108 8.31915C6.78963 8.2112 6.93231 8.15716 7.07494 8.15716C7.21756 8.15716 7.36024 8.21114 7.46885 8.31915C7.57298 8.42273 7.6304 8.56021 7.6304 8.70623C7.6304 8.85224 7.57298 8.98973 7.4688 9.09336V9.09341C7.25163 9.30932 6.89819 9.30937 6.68108 9.09336C6.5769 8.98978 6.51948 8.8523 6.51948 8.70628Z" fill="white" stroke="white" stroke-width="0.2"/>
<path d="M10.9373 12.5415C10.6251 12.8519 10.4531 13.2648 10.4531 13.7043C10.4531 14.1437 10.6251 14.5566 10.9373 14.867C11.2586 15.1863 11.6805 15.346 12.1024 15.346C12.5244 15.346 12.9463 15.1864 13.2675 14.867C13.5797 14.5566 13.7517 14.1437 13.7517 13.7043C13.7517 13.2649 13.5797 12.852 13.2675 12.5415C12.6249 11.9029 11.5797 11.9028 10.9373 12.5415V12.5415ZM12.4962 14.0913C12.2791 14.3074 11.9256 14.3072 11.7084 14.0913C11.6043 13.9878 11.5469 13.8503 11.5469 13.7043C11.5469 13.5582 11.6043 13.4208 11.7085 13.3172C11.817 13.2092 11.9597 13.1553 12.1024 13.1553C12.245 13.1553 12.3877 13.2092 12.4962 13.3172C12.6004 13.4208 12.6578 13.5582 12.6578 13.7043C12.6578 13.8503 12.6004 13.9878 12.4962 14.0913Z" fill="white" stroke="white" stroke-width="0.2"/>
<path d="M12.8983 7.91522C12.6853 7.70101 12.339 7.70003 12.1248 7.91293L6.28238 13.7213C6.06823 13.9342 6.06719 14.2805 6.28014 14.4947C6.387 14.6022 6.52744 14.656 6.66798 14.656C6.80744 14.656 6.94689 14.603 7.05359 14.497L12.896 8.68867C13.1102 8.47566 13.1112 8.12938 12.8983 7.91522V7.91522Z" fill="white" stroke="white" stroke-width="0.2"/>
</g>
<defs>
<clipPath id="clip0_374_324">
<rect width="28" height="28" fill="white"/>
</clipPath>
</defs>
</svg>
