<svg width="30" height="22" viewBox="0 0 30 22" fill="none" xmlns="http://www.w3.org/2000/svg">
<path d="M29.4946 6.38172L23.8802 0.767268C23.6996 0.58668 23.4069 0.58668 23.2263 0.767268L20.4191 3.57447C20.3324 3.66114 20.2837 3.77875 20.2837 3.90138C20.2837 4.02401 20.3324 4.14162 20.4191 4.22829L20.6991 4.50833L20.0556 5.15176C19.6378 5.56936 18.9896 5.68334 18.4426 5.43508C17.9298 5.2023 17.3597 5.07933 16.7939 5.07933C16.122 5.07933 15.4654 5.24799 14.882 5.56744C14.6387 5.50751 14.3891 5.4768 14.1369 5.4768C13.7722 5.4768 13.414 5.53973 13.0723 5.66395C12.5266 5.86218 11.9417 5.73932 11.5456 5.34326L10.3901 4.1877L10.5277 4.05008C10.6144 3.9634 10.663 3.8458 10.663 3.72317C10.663 3.60053 10.6144 3.48293 10.5277 3.39625L7.72049 0.589054C7.53984 0.408466 7.24719 0.408466 7.0666 0.589054L0.817039 6.83862C0.636508 7.01921 0.636508 7.31192 0.817039 7.49245L3.62418 10.2996C3.71091 10.3864 3.82846 10.4351 3.95115 10.4351C4.07384 10.4351 4.19133 10.3864 4.27812 10.2996L4.44553 10.1322L5.2605 10.9472C5.46613 11.1528 5.60245 11.4096 5.65464 11.6896C5.92524 13.1417 6.62068 14.4619 7.66576 15.5075L7.81926 15.661C7.52446 15.9715 7.36231 16.376 7.36231 16.8057C7.36231 17.2501 7.53543 17.668 7.84968 17.9823C8.17411 18.3068 8.60013 18.4689 9.02633 18.4689C9.05409 18.4689 9.08174 18.4682 9.1095 18.4668C9.087 18.9202 9.24847 19.381 9.59393 19.7266C9.90824 20.0409 10.3261 20.214 10.7706 20.214C10.783 20.214 10.7953 20.2133 10.8077 20.213C10.7982 20.6512 10.9598 21.0924 11.2934 21.426C11.6077 21.7404 12.0256 21.9134 12.4701 21.9134C12.9146 21.9134 13.3324 21.7402 13.6468 21.426C13.6732 21.3995 13.6982 21.3722 13.7225 21.3445C13.8862 21.4015 14.0593 21.4319 14.2343 21.4319C14.6501 21.4319 15.0406 21.2699 15.3335 20.9761C15.4894 20.8202 15.6077 20.6369 15.6847 20.4373L15.732 20.4846C16.035 20.7876 16.433 20.9391 16.831 20.9391C17.2289 20.9391 17.6269 20.7876 17.9299 20.4846C18.091 20.3236 18.2119 20.1334 18.2886 19.9261C18.5598 20.1234 18.8809 20.2222 19.2022 20.2222C19.6002 20.2222 19.9984 20.0707 20.3017 19.7678C20.5952 19.4743 20.7568 19.0838 20.7568 18.6684C20.7568 18.5429 20.7418 18.4198 20.7131 18.3008C21.0092 18.2406 21.2813 18.0952 21.4996 17.8767C21.7931 17.5832 21.9547 17.1929 21.9547 16.7777C21.9547 16.4506 21.854 16.1392 21.6679 15.8781L22.0388 15.5072C23.096 14.4495 23.7945 13.1128 24.0587 11.6416C24.1029 11.3952 24.2249 11.1664 24.4116 10.9797L25.7911 9.60019L26.0336 9.84269C26.1239 9.93299 26.2422 9.9781 26.3606 9.9781C26.4789 9.9781 26.5972 9.93299 26.6875 9.84269L29.4947 7.03549C29.5814 6.94882 29.6301 6.83121 29.6301 6.70858C29.6301 6.58595 29.5812 6.46846 29.4946 6.38172ZM3.95115 9.31896L1.79778 7.16559L7.39346 1.56991L9.54689 3.72328L3.95115 9.31896ZM9.5491 17.3286C9.26091 17.6167 8.79192 17.6169 8.50351 17.3286C8.36385 17.1889 8.28696 17.0033 8.28696 16.8058C8.28696 16.6084 8.36391 16.4227 8.50356 16.283C8.64768 16.1389 8.83692 16.0668 9.02627 16.0668C9.21557 16.0668 9.40498 16.1389 9.54904 16.283C9.83728 16.5713 9.83728 17.0403 9.5491 17.3286ZM11.2932 19.0728C11.1537 19.2125 10.9681 19.2893 10.7705 19.2893C10.573 19.2893 10.3874 19.2123 10.2478 19.0728C9.95946 18.7845 9.95946 18.3155 10.2478 18.0272C10.3919 17.883 10.5811 17.811 10.7705 17.811C10.9598 17.811 11.1492 17.883 11.2932 18.0272C11.5816 18.3154 11.5816 18.7845 11.2932 19.0728ZM12.9927 20.7722C12.8531 20.9118 12.6674 20.9887 12.47 20.9887C12.2725 20.9887 12.0868 20.9118 11.9472 20.7722C11.6589 20.4839 11.6589 20.0149 11.9472 19.7266C12.0913 19.5825 12.2806 19.5104 12.47 19.5104C12.6592 19.5104 12.8486 19.5825 12.9927 19.7266C13.281 20.0149 13.281 20.4839 12.9927 20.7722ZM20.8454 17.2231C20.7266 17.342 20.5685 17.4075 20.4005 17.4075C20.2325 17.4075 20.0744 17.342 19.9554 17.2228L15.4701 12.7385C15.2894 12.558 14.9967 12.558 14.8162 12.7386C14.6357 12.9191 14.6358 13.2119 14.8163 13.3924L19.6477 18.2233C19.7666 18.3421 19.832 18.5002 19.832 18.6684C19.832 18.8369 19.7665 18.9951 19.6478 19.1138C19.4021 19.3594 19.0024 19.3594 18.757 19.114L17.9419 18.2989C17.9374 18.2942 17.933 18.2895 17.9283 18.2848C17.9269 18.2835 17.9254 18.2823 17.924 18.2809L14.1773 14.5342C13.9966 14.3537 13.704 14.3537 13.5234 14.5342C13.3428 14.7147 13.3428 15.0075 13.5234 15.188L17.2822 18.9467C17.397 19.0645 17.4603 19.2203 17.4603 19.3856C17.4603 19.5538 17.3948 19.7119 17.2759 19.8307C17.0307 20.0762 16.6313 20.0762 16.3858 19.8307L12.3102 15.755C12.1295 15.5744 11.8369 15.5744 11.6563 15.755C11.4757 15.9355 11.4757 16.2283 11.6563 16.4088L14.6774 19.43C14.6783 19.4309 14.6789 19.4318 14.6799 19.4326C14.7986 19.5512 14.864 19.709 14.864 19.877C14.864 20.0451 14.7985 20.2032 14.6792 20.3225C14.5605 20.4415 14.4025 20.507 14.2342 20.507C14.1936 20.507 14.1538 20.5028 14.1149 20.4955C14.1897 19.9915 14.0337 19.4597 13.6466 19.0725C13.3323 18.7583 12.9145 18.5852 12.47 18.5852C12.4576 18.5852 12.4453 18.5858 12.4329 18.5861C12.4424 18.1479 12.2808 17.7068 11.9472 17.3731C11.6328 17.0589 11.215 16.8857 10.7705 16.8857C10.7427 16.8857 10.715 16.8864 10.6874 16.8878C10.7096 16.4347 10.5482 15.9742 10.2029 15.6289C9.78255 15.2086 9.19171 15.061 8.65119 15.1852L8.31964 14.8536C7.40709 13.9407 6.79996 12.788 6.56368 11.5201C6.47712 11.0557 6.2526 10.6314 5.91444 10.2932L5.09942 9.47818L9.73624 4.84135L10.8918 5.99691C11.336 6.44109 11.9407 6.67878 12.5601 6.67878C12.8375 6.67878 13.118 6.63106 13.3882 6.53285C13.5193 6.48519 13.6548 6.45098 13.7921 6.42927L10.9294 9.29205C10.5791 9.64226 10.3862 10.1079 10.3862 10.6033C10.3862 11.0986 10.5791 11.5642 10.9293 11.9144C11.2909 12.2759 11.7656 12.4566 12.2405 12.4566C12.7153 12.4566 13.1902 12.2758 13.5518 11.9144L14.9896 10.4766L15.3787 10.8661C15.3789 10.8662 15.3789 10.8662 15.379 10.8663L15.3952 10.8825L15.4107 10.8981C15.4108 10.8981 15.4109 10.8982 15.411 10.8983L15.4113 10.8986C15.4158 10.903 15.4201 10.9072 15.4245 10.9114L20.8456 16.3324C20.9645 16.4513 21.0299 16.6094 21.0299 16.7775C21.0299 16.946 20.9645 17.104 20.8454 17.2231ZM23.7576 10.3259C23.4368 10.6467 23.2261 11.0452 23.1484 11.4782C22.9178 12.7628 22.3079 13.93 21.3848 14.8535L21.0295 15.2089L18.1046 12.284C18.1682 12.2887 18.232 12.2918 18.2963 12.2918C18.5925 12.2918 18.8955 12.2399 19.1972 12.1165C19.4335 12.0198 19.5467 11.7498 19.4501 11.5136C19.3534 11.2773 19.0836 11.164 18.8471 11.2607C17.6572 11.7476 16.2306 10.4058 16.0717 10.2512C16.0691 10.2486 16.0664 10.246 16.0637 10.2436L16.0473 10.2272C16.0473 10.2271 16.0472 10.2271 16.0472 10.227L16.0328 10.2128C16.0328 10.2127 16.0327 10.2126 16.0326 10.2126L15.6433 9.82307L16.0847 9.38167C16.2653 9.20108 16.2653 8.90837 16.0848 8.72778C15.9042 8.54731 15.6115 8.54725 15.4309 8.72778L14.6637 9.49503C14.6634 9.49531 14.6631 9.49559 14.6628 9.49588C14.6625 9.49616 14.6622 9.4965 14.6619 9.49678L12.8979 11.2608C12.5354 11.6233 11.9456 11.6232 11.5832 11.2608C11.4077 11.0853 11.311 10.8518 11.311 10.6035C11.311 10.3552 11.4077 10.1217 11.5833 9.94616L14.6281 6.90127C14.7975 6.73193 14.9857 6.58295 15.1881 6.45817C15.6688 6.16099 16.2241 6.00392 16.7939 6.00392C17.2288 6.00392 17.6668 6.09835 18.0605 6.27707C18.9562 6.68348 20.0208 6.49412 20.7095 5.80564L21.3531 5.16216L25.1372 8.94631L23.7576 10.3259ZM26.3604 8.86207L21.3998 3.90149L23.5533 1.74812L28.5138 6.70869L26.3604 8.86207Z" fill="#F08200"/>
</svg>
