<svg width="18" height="22" viewBox="0 0 18 22" fill="none" xmlns="http://www.w3.org/2000/svg">
<path d="M15.0911 3.23873H13.1679V2.37839C13.1679 2.10004 12.8643 1.97353 12.5859 1.97353H11.093C10.7387 0.961344 9.85306 0.455252 8.84088 0.455252C7.83984 0.417618 6.92932 1.03143 6.58877 1.97353H5.12111C4.84276 1.97353 4.56441 2.10004 4.56441 2.37839V3.23873H2.64122C1.50156 3.25089 0.569194 4.14993 0.515625 5.28838V19.7879C0.515625 20.9013 1.52781 21.711 2.64122 21.711H15.0911C16.2045 21.711 17.2167 20.9013 17.2167 19.7879V5.28843C17.1631 4.14993 16.2307 3.25089 15.0911 3.23873ZM5.57654 2.98571H6.96831C7.21125 2.95607 7.4064 2.77124 7.44912 2.53023C7.59897 1.87763 8.17152 1.40917 8.84088 1.39154C9.50405 1.41164 10.068 1.88155 10.2073 2.53023C10.2527 2.77957 10.4607 2.96677 10.7134 2.98571H12.1558V5.01008H5.57654V2.98571ZM16.2045 19.7879C16.2045 20.3446 15.6478 20.6989 15.0911 20.6989H2.64122C2.08451 20.6989 1.52781 20.3446 1.52781 19.7879V5.28843C1.57944 4.70896 2.05952 4.26157 2.64122 4.25096H4.56436V5.5415C4.5911 5.82504 4.83666 6.03713 5.12107 6.02231H12.5859C12.8755 6.03815 13.1288 5.82896 13.1679 5.5415V4.25092H15.091C15.6727 4.26157 16.1528 4.70891 16.2044 5.28838V19.7879H16.2045Z" fill="#F08200"/>
<path d="M6.9137 11.7662C6.72389 11.5661 6.40877 11.5548 6.20515 11.7409L4.58565 13.2845L3.90243 12.5759C3.71262 12.3758 3.3975 12.3646 3.19389 12.5506C2.99787 12.756 2.99787 13.0791 3.19389 13.2845L4.23135 14.3473C4.32115 14.4478 4.45086 14.5034 4.5856 14.4991C4.71909 14.4972 4.84642 14.4426 4.93985 14.3473L6.9136 12.4747C7.10928 12.2952 7.12236 11.9911 6.94281 11.7954C6.93361 11.7852 6.92387 11.7755 6.9137 11.7662Z" fill="#F08200"/>
<path d="M14.1796 12.854H8.35961C8.08009 12.854 7.85352 13.0806 7.85352 13.3601C7.85352 13.6396 8.08009 13.8662 8.35961 13.8662H14.1796C14.4592 13.8662 14.6857 13.6396 14.6857 13.3601C14.6857 13.0806 14.4592 12.854 14.1796 12.854Z" fill="#F08200"/>
<path d="M6.9137 7.71711C6.72389 7.51702 6.40877 7.50574 6.20515 7.69182L4.58565 9.23538L3.90243 8.52683C3.71262 8.32675 3.3975 8.31546 3.19389 8.50155C2.99787 8.70691 2.99787 9.03002 3.19389 9.23538L4.23135 10.2982C4.32115 10.3987 4.45086 10.4543 4.5856 10.45C4.71909 10.4481 4.84642 10.3935 4.93985 10.2982L6.9136 8.42565C7.10928 8.24615 7.12236 7.94199 6.94281 7.74636C6.93361 7.73614 6.92387 7.7264 6.9137 7.71711Z" fill="#F08200"/>
<path d="M14.1796 8.80518H8.35961C8.08009 8.80518 7.85352 9.03175 7.85352 9.31127C7.85352 9.59078 8.08009 9.81736 8.35961 9.81736H14.1796C14.4592 9.81736 14.6857 9.59078 14.6857 9.31127C14.6857 9.03175 14.4592 8.80518 14.1796 8.80518Z" fill="#F08200"/>
<path d="M6.9137 15.815C6.72389 15.6149 6.40877 15.6037 6.20515 15.7897L4.58565 17.3333L3.90243 16.6247C3.71262 16.4246 3.3975 16.4134 3.19389 16.5994C2.99787 16.8048 2.99787 17.1279 3.19389 17.3333L4.23135 18.3961C4.32115 18.4966 4.45086 18.5522 4.5856 18.5479C4.71909 18.546 4.84642 18.4914 4.93985 18.3961L6.9136 16.5235C7.10928 16.344 7.12236 16.0399 6.94281 15.8442C6.93361 15.8341 6.92387 15.8243 6.9137 15.815Z" fill="#F08200"/>
<path d="M14.1796 16.9028H8.35961C8.08009 16.9028 7.85352 17.1294 7.85352 17.4089C7.85352 17.6884 8.08009 17.915 8.35961 17.915H14.1796C14.4592 17.915 14.6857 17.6884 14.6857 17.4089C14.6857 17.1294 14.4592 16.9028 14.1796 16.9028Z" fill="#F08200"/>
</svg>
