<svg width="414" height="229" viewBox="0 0 414 229" fill="none" xmlns="http://www.w3.org/2000/svg">
<path d="M67.806 133C65.446 133 63.5187 132.528 62.024 131.584C60.5293 130.561 59.5067 129.224 58.956 127.572C58.484 125.841 58.484 123.953 58.956 121.908C59.5067 119.863 60.608 117.817 62.26 115.772L105.212 59.486V65.032H66.39C63.794 65.032 61.788 64.3633 60.372 63.026C59.0347 61.6887 58.366 59.8007 58.366 57.362C58.366 54.9233 59.0347 53.0747 60.372 51.816C61.788 50.4787 63.794 49.81 66.39 49.81H113.826C116.265 49.81 118.192 50.3213 119.608 51.344C121.103 52.288 122.125 53.586 122.676 55.238C123.227 56.89 123.227 58.778 122.676 60.902C122.125 62.9473 121.024 64.9927 119.372 67.038L76.42 123.206V117.778H117.13C119.726 117.778 121.693 118.447 123.03 119.784C124.446 121.043 125.154 122.891 125.154 125.33C125.154 127.847 124.446 129.775 123.03 131.112C121.693 132.371 119.726 133 117.13 133H67.806ZM144.534 133C141.466 133 139.106 132.174 137.454 130.522C135.802 128.87 134.976 126.51 134.976 123.442V59.368C134.976 56.3 135.802 53.94 137.454 52.288C139.106 50.636 141.466 49.81 144.534 49.81H185.716C188.076 49.81 189.846 50.4393 191.026 51.698C192.284 52.878 192.914 54.6087 192.914 56.89C192.914 59.25 192.284 61.0593 191.026 62.318C189.846 63.498 188.076 64.088 185.716 64.088H152.44V83.558H183.002C185.44 83.558 187.25 84.1873 188.43 85.446C189.688 86.626 190.318 88.396 190.318 90.756C190.318 93.116 189.688 94.9253 188.43 96.184C187.25 97.364 185.44 97.954 183.002 97.954H152.44V118.722H185.716C188.076 118.722 189.846 119.351 191.026 120.61C192.284 121.79 192.914 123.521 192.914 125.802C192.914 128.162 192.284 129.971 191.026 131.23C189.846 132.41 188.076 133 185.716 133H144.534ZM215.625 134.062C212.636 134.062 210.354 133.236 208.781 131.584C207.208 129.932 206.421 127.611 206.421 124.622V59.132C206.421 56.064 207.208 53.7433 208.781 52.17C210.433 50.5967 212.754 49.81 215.743 49.81H244.417C253.7 49.81 260.858 52.052 265.893 56.536C270.928 61.02 273.445 67.274 273.445 75.298C273.445 80.49 272.304 84.974 270.023 88.75C267.742 92.526 264.438 95.4367 260.111 97.482C255.863 99.5273 250.632 100.55 244.417 100.55L245.361 98.544H250.199C253.503 98.544 256.374 99.37 258.813 101.022C261.33 102.595 263.494 105.034 265.303 108.338L272.619 121.908C273.72 123.875 274.232 125.802 274.153 127.69C274.074 129.578 273.366 131.112 272.029 132.292C270.692 133.472 268.725 134.062 266.129 134.062C263.533 134.062 261.409 133.511 259.757 132.41C258.184 131.309 256.768 129.617 255.509 127.336L244.181 106.45C243.001 104.247 241.546 102.753 239.815 101.966C238.163 101.179 236.118 100.786 233.679 100.786H224.711V124.622C224.711 127.611 223.924 129.932 222.351 131.584C220.856 133.236 218.614 134.062 215.625 134.062ZM224.711 87.57H241.113C245.99 87.57 249.648 86.5867 252.087 84.62C254.604 82.6533 255.863 79.7033 255.863 75.77C255.863 71.9153 254.604 69.0047 252.087 67.038C249.648 65.0713 245.99 64.088 241.113 64.088H224.711V87.57ZM326.593 134.298C318.412 134.298 311.214 132.528 304.999 128.988C298.863 125.369 294.064 120.335 290.603 113.884C287.22 107.433 285.529 99.9207 285.529 91.346C285.529 84.8167 286.473 78.956 288.361 73.764C290.328 68.4933 293.12 64.0093 296.739 60.312C300.358 56.536 304.684 53.6253 309.719 51.58C314.832 49.5347 320.457 48.512 326.593 48.512C334.932 48.512 342.169 50.282 348.305 53.822C354.441 57.362 359.2 62.3573 362.583 68.808C366.044 75.18 367.775 82.6533 367.775 91.228C367.775 97.7573 366.792 103.657 364.825 108.928C362.858 114.199 360.066 118.722 356.447 122.498C352.828 126.274 348.502 129.185 343.467 131.23C338.432 133.275 332.808 134.298 326.593 134.298ZM326.593 118.722C331.234 118.722 335.168 117.66 338.393 115.536C341.697 113.333 344.214 110.187 345.945 106.096C347.754 101.927 348.659 97.01 348.659 91.346C348.659 82.6927 346.732 76.006 342.877 71.286C339.022 66.4873 333.594 64.088 326.593 64.088C322.03 64.088 318.097 65.15 314.793 67.274C311.489 69.398 308.972 72.5053 307.241 76.596C305.51 80.6867 304.645 85.6033 304.645 91.346C304.645 99.9207 306.572 106.647 310.427 111.524C314.282 116.323 319.67 118.722 326.593 118.722Z" fill="#F08200"/>
<circle r="79.2457" transform="matrix(-0.258819 0.965926 0.965926 0.258819 97.3867 97.3857)" fill="url(#paint0_linear_4123_1573)" fill-opacity="0.25"/>
<path d="M59.8 183C58.92 183 58.24 182.773 57.76 182.32C57.3067 181.84 57.08 181.16 57.08 180.28V157.52C57.08 156.64 57.3067 155.973 57.76 155.52C58.24 155.04 58.92 154.8 59.8 154.8H69.4C71.3733 154.8 73.0533 155.093 74.44 155.68C75.8267 156.267 76.88 157.107 77.6 158.2C78.3467 159.293 78.72 160.6 78.72 162.12C78.72 163.827 78.2267 165.267 77.24 166.44C76.2533 167.613 74.9067 168.4 73.2 168.8V168.2C75.1733 168.493 76.7067 169.24 77.8 170.44C78.8933 171.64 79.44 173.2 79.44 175.12C79.44 177.627 78.5867 179.573 76.88 180.96C75.2 182.32 72.8533 183 69.84 183H59.8ZM62 179.12H69.2C71.0133 179.12 72.3467 178.773 73.2 178.08C74.0533 177.36 74.48 176.293 74.48 174.88C74.48 173.44 74.0533 172.373 73.2 171.68C72.3467 170.987 71.0133 170.64 69.2 170.64H62V179.12ZM62 166.76H68.52C70.28 166.76 71.5867 166.427 72.44 165.76C73.32 165.067 73.76 164.053 73.76 162.72C73.76 161.387 73.32 160.387 72.44 159.72C71.5867 159.027 70.28 158.68 68.52 158.68H62V166.76ZM87.1791 183.32C86.3524 183.32 85.7124 183.093 85.2591 182.64C84.8324 182.16 84.6191 181.507 84.6191 180.68V157.4C84.6191 156.547 84.8457 155.907 85.2991 155.48C85.7524 155.027 86.3924 154.8 87.2191 154.8H96.8591C99.9524 154.8 102.339 155.547 104.019 157.04C105.699 158.507 106.539 160.573 106.539 163.24C106.539 164.973 106.152 166.467 105.379 167.72C104.632 168.973 103.539 169.933 102.099 170.6C100.659 171.267 98.9124 171.6 96.8591 171.6L97.2191 171H98.5391C99.6324 171 100.579 171.267 101.379 171.8C102.206 172.333 102.926 173.173 103.539 174.32L106.539 179.88C106.859 180.44 107.006 180.987 106.979 181.52C106.952 182.053 106.752 182.493 106.379 182.84C106.006 183.16 105.459 183.32 104.739 183.32C104.019 183.32 103.432 183.173 102.979 182.88C102.526 182.56 102.126 182.08 101.779 181.44L97.7391 174C97.2591 173.093 96.6857 172.493 96.0191 172.2C95.3791 171.88 94.5524 171.72 93.5391 171.72H89.7391V180.68C89.7391 181.507 89.5257 182.16 89.0991 182.64C88.6724 183.093 88.0324 183.32 87.1791 183.32ZM89.7391 167.92H95.9791C97.8191 167.92 99.2057 167.547 100.139 166.8C101.099 166.027 101.579 164.88 101.579 163.36C101.579 161.867 101.099 160.747 100.139 160C99.2057 159.227 97.8191 158.84 95.9791 158.84H89.7391V167.92ZM124.486 183.4C121.766 183.4 119.379 182.8 117.326 181.6C115.299 180.4 113.726 178.72 112.606 176.56C111.486 174.373 110.926 171.813 110.926 168.88C110.926 166.667 111.246 164.68 111.886 162.92C112.526 161.133 113.432 159.613 114.606 158.36C115.806 157.08 117.232 156.107 118.886 155.44C120.566 154.747 122.432 154.4 124.486 154.4C127.232 154.4 129.619 155 131.646 156.2C133.672 157.373 135.246 159.04 136.366 161.2C137.486 163.36 138.046 165.907 138.046 168.84C138.046 171.053 137.726 173.053 137.086 174.84C136.446 176.627 135.526 178.16 134.326 179.44C133.152 180.72 131.726 181.707 130.046 182.4C128.392 183.067 126.539 183.4 124.486 183.4ZM124.486 179C126.219 179 127.686 178.6 128.886 177.8C130.112 177 131.046 175.84 131.686 174.32C132.352 172.8 132.686 170.987 132.686 168.88C132.686 165.68 131.966 163.2 130.526 161.44C129.112 159.68 127.099 158.8 124.486 158.8C122.779 158.8 121.312 159.2 120.086 160C118.859 160.773 117.912 161.92 117.246 163.44C116.606 164.933 116.286 166.747 116.286 168.88C116.286 172.053 117.006 174.533 118.446 176.32C119.886 178.107 121.899 179 124.486 179ZM145.812 183.32C144.985 183.32 144.345 183.093 143.892 182.64C143.465 182.16 143.252 181.507 143.252 180.68V157.08C143.252 156.227 143.465 155.587 143.892 155.16C144.345 154.707 144.985 154.48 145.812 154.48C146.639 154.48 147.265 154.707 147.692 155.16C148.145 155.587 148.372 156.227 148.372 157.08V167.28H148.452L159.932 155.76C160.359 155.333 160.785 155.013 161.212 154.8C161.639 154.587 162.119 154.48 162.652 154.48C163.425 154.48 163.972 154.68 164.292 155.08C164.639 155.48 164.772 155.947 164.692 156.48C164.639 157.013 164.385 157.507 163.932 157.96L152.252 169.52L152.292 167.2L164.492 179.6C165.052 180.133 165.345 180.693 165.372 181.28C165.399 181.867 165.212 182.36 164.812 182.76C164.439 183.133 163.879 183.32 163.132 183.32C162.492 183.32 161.972 183.187 161.572 182.92C161.199 182.653 160.759 182.267 160.252 181.76L148.452 169.96H148.372V180.68C148.372 181.507 148.159 182.16 147.732 182.64C147.305 183.093 146.665 183.32 145.812 183.32ZM172.573 183C171.693 183 171.013 182.773 170.533 182.32C170.08 181.84 169.853 181.16 169.853 180.28V157.52C169.853 156.64 170.08 155.973 170.533 155.52C171.013 155.04 171.693 154.8 172.573 154.8H186.853C187.52 154.8 188.027 154.973 188.373 155.32C188.747 155.667 188.933 156.16 188.933 156.8C188.933 157.467 188.747 157.987 188.373 158.36C188.027 158.707 187.52 158.88 186.853 158.88H174.773V166.64H185.973C186.667 166.64 187.187 166.813 187.533 167.16C187.88 167.507 188.053 168.013 188.053 168.68C188.053 169.347 187.88 169.853 187.533 170.2C187.187 170.547 186.667 170.72 185.973 170.72H174.773V178.92H186.853C187.52 178.92 188.027 179.093 188.373 179.44C188.747 179.787 188.933 180.293 188.933 180.96C188.933 181.627 188.747 182.133 188.373 182.48C188.027 182.827 187.52 183 186.853 183H172.573ZM196.281 183.32C195.454 183.32 194.814 183.093 194.361 182.64C193.934 182.16 193.721 181.507 193.721 180.68V157.4C193.721 156.547 193.947 155.907 194.401 155.48C194.854 155.027 195.494 154.8 196.321 154.8H205.961C209.054 154.8 211.441 155.547 213.121 157.04C214.801 158.507 215.641 160.573 215.641 163.24C215.641 164.973 215.254 166.467 214.481 167.72C213.734 168.973 212.641 169.933 211.201 170.6C209.761 171.267 208.014 171.6 205.961 171.6L206.321 171H207.641C208.734 171 209.681 171.267 210.481 171.8C211.307 172.333 212.027 173.173 212.641 174.32L215.641 179.88C215.961 180.44 216.107 180.987 216.081 181.52C216.054 182.053 215.854 182.493 215.481 182.84C215.107 183.16 214.561 183.32 213.841 183.32C213.121 183.32 212.534 183.173 212.081 182.88C211.627 182.56 211.227 182.08 210.881 181.44L206.841 174C206.361 173.093 205.787 172.493 205.121 172.2C204.481 171.88 203.654 171.72 202.641 171.72H198.841V180.68C198.841 181.507 198.627 182.16 198.201 182.64C197.774 183.093 197.134 183.32 196.281 183.32ZM198.841 167.92H205.081C206.921 167.92 208.307 167.547 209.241 166.8C210.201 166.027 210.681 164.88 210.681 163.36C210.681 161.867 210.201 160.747 209.241 160C208.307 159.227 206.921 158.84 205.081 158.84H198.841V167.92ZM220.915 183.32C220.275 183.32 219.755 183.173 219.355 182.88C218.981 182.587 218.755 182.2 218.675 181.72C218.595 181.213 218.688 180.653 218.955 180.04L229.515 156.64C229.861 155.867 230.275 155.32 230.755 155C231.261 154.653 231.835 154.48 232.475 154.48C233.088 154.48 233.635 154.653 234.115 155C234.621 155.32 235.048 155.867 235.395 156.64L245.995 180.04C246.288 180.653 246.395 181.213 246.315 181.72C246.235 182.227 246.008 182.627 245.635 182.92C245.261 183.187 244.768 183.32 244.155 183.32C243.408 183.32 242.821 183.147 242.395 182.8C241.995 182.427 241.635 181.867 241.315 181.12L238.715 175.08L240.875 176.48H223.995L226.155 175.08L223.595 181.12C223.248 181.893 222.888 182.453 222.515 182.8C222.141 183.147 221.608 183.32 220.915 183.32ZM232.395 160.36L226.795 173.68L225.755 172.4H239.115L238.115 173.68L232.475 160.36H232.395ZM263.374 183.4C260.254 183.4 257.614 182.813 255.454 181.64C253.321 180.467 251.694 178.8 250.574 176.64C249.454 174.48 248.894 171.92 248.894 168.96C248.894 166.72 249.214 164.707 249.854 162.92C250.521 161.133 251.468 159.613 252.694 158.36C253.948 157.08 255.468 156.107 257.254 155.44C259.041 154.747 261.068 154.4 263.334 154.4C264.828 154.4 266.321 154.587 267.814 154.96C269.334 155.307 270.761 155.907 272.094 156.76C272.548 157.053 272.841 157.413 272.974 157.84C273.134 158.267 273.161 158.707 273.054 159.16C272.948 159.587 272.748 159.96 272.454 160.28C272.161 160.6 271.788 160.8 271.334 160.88C270.908 160.96 270.428 160.853 269.894 160.56C268.881 159.973 267.854 159.547 266.814 159.28C265.774 159.013 264.614 158.88 263.334 158.88C261.361 158.88 259.694 159.28 258.334 160.08C256.974 160.853 255.948 161.987 255.254 163.48C254.588 164.973 254.254 166.8 254.254 168.96C254.254 172.24 255.041 174.733 256.614 176.44C258.188 178.147 260.521 179 263.614 179C264.681 179 265.761 178.893 266.854 178.68C267.948 178.467 269.014 178.173 270.054 177.8L269.054 180.08V171.56H264.654C263.988 171.56 263.468 171.387 263.094 171.04C262.748 170.693 262.574 170.227 262.574 169.64C262.574 169.027 262.748 168.56 263.094 168.24C263.468 167.92 263.988 167.76 264.654 167.76H271.254C271.921 167.76 272.428 167.947 272.774 168.32C273.148 168.667 273.334 169.173 273.334 169.84V179.56C273.334 180.147 273.214 180.64 272.974 181.04C272.761 181.44 272.401 181.733 271.894 181.92C270.721 182.347 269.374 182.707 267.854 183C266.334 183.267 264.841 183.4 263.374 183.4ZM281.988 183C281.108 183 280.428 182.773 279.948 182.32C279.494 181.84 279.268 181.16 279.268 180.28V157.52C279.268 156.64 279.494 155.973 279.948 155.52C280.428 155.04 281.108 154.8 281.988 154.8H296.268C296.934 154.8 297.441 154.973 297.788 155.32C298.161 155.667 298.348 156.16 298.348 156.8C298.348 157.467 298.161 157.987 297.788 158.36C297.441 158.707 296.934 158.88 296.268 158.88H284.188V166.64H295.388C296.081 166.64 296.601 166.813 296.948 167.16C297.294 167.507 297.468 168.013 297.468 168.68C297.468 169.347 297.294 169.853 296.948 170.2C296.601 170.547 296.081 170.72 295.388 170.72H284.188V178.92H296.268C296.934 178.92 297.441 179.093 297.788 179.44C298.161 179.787 298.348 180.293 298.348 180.96C298.348 181.627 298.161 182.133 297.788 182.48C297.441 182.827 296.934 183 296.268 183H281.988Z" fill="#F08200"/>
<path d="M62.4492 209.125H59.2969V220H56.543V209.125H54.4219V207.801L56.543 206.992V206.09C56.543 204.988 56.7148 204.113 57.0586 203.465C57.4102 202.816 57.9102 202.352 58.5586 202.07C59.2148 201.781 59.9961 201.637 60.9023 201.637C61.4961 201.637 62.0391 201.688 62.5312 201.789C63.0234 201.883 63.4375 201.992 63.7734 202.117L63.0586 204.203C62.793 204.117 62.4961 204.039 62.168 203.969C61.8398 203.891 61.4883 203.852 61.1133 203.852C60.4883 203.852 60.0273 204.047 59.7305 204.438C59.4414 204.828 59.2969 205.398 59.2969 206.148V207.027H62.4492V209.125ZM76.1484 213.484C76.1484 214.562 76.0078 215.52 75.7266 216.355C75.4453 217.191 75.0352 217.898 74.4961 218.477C73.957 219.047 73.3086 219.484 72.5508 219.789C71.793 220.086 70.9375 220.234 69.9844 220.234C69.0938 220.234 68.2773 220.086 67.5352 219.789C66.793 219.484 66.1484 219.047 65.6016 218.477C65.0625 217.898 64.6445 217.191 64.3477 216.355C64.0508 215.52 63.9023 214.562 63.9023 213.484C63.9023 212.055 64.1484 210.844 64.6406 209.852C65.1406 208.852 65.8516 208.09 66.7734 207.566C67.6953 207.043 68.793 206.781 70.0664 206.781C71.2617 206.781 72.3164 207.043 73.2305 207.566C74.1445 208.09 74.8594 208.852 75.375 209.852C75.8906 210.852 76.1484 212.062 76.1484 213.484ZM66.7383 213.484C66.7383 214.43 66.8516 215.238 67.0781 215.91C67.3125 216.582 67.6719 217.098 68.1562 217.457C68.6406 217.809 69.2656 217.984 70.0312 217.984C70.7969 217.984 71.4219 217.809 71.9062 217.457C72.3906 217.098 72.7461 216.582 72.9727 215.91C73.1992 215.238 73.3125 214.43 73.3125 213.484C73.3125 212.539 73.1992 211.738 72.9727 211.082C72.7461 210.418 72.3906 209.914 71.9062 209.57C71.4219 209.219 70.793 209.043 70.0195 209.043C68.8789 209.043 68.0469 209.426 67.5234 210.191C67 210.957 66.7383 212.055 66.7383 213.484ZM85.8867 206.781C86.1055 206.781 86.3438 206.793 86.6016 206.816C86.8594 206.84 87.082 206.871 87.2695 206.91L87.0117 209.488C86.8477 209.441 86.6445 209.406 86.4023 209.383C86.168 209.359 85.957 209.348 85.7695 209.348C85.2773 209.348 84.8086 209.43 84.3633 209.594C83.918 209.75 83.5234 209.992 83.1797 210.32C82.8359 210.641 82.5664 211.043 82.3711 211.527C82.1758 212.012 82.0781 212.574 82.0781 213.215V220H79.3125V207.027H81.4688L81.8438 209.312H81.9727C82.2305 208.852 82.5508 208.43 82.9336 208.047C83.3164 207.664 83.7539 207.359 84.2461 207.133C84.7461 206.898 85.293 206.781 85.8867 206.781ZM96.1875 220V202.867H99V217.609H106.277V220H96.1875ZM111.715 207.027V220H108.961V207.027H111.715ZM110.355 202.059C110.777 202.059 111.141 202.172 111.445 202.398C111.758 202.625 111.914 203.016 111.914 203.57C111.914 204.117 111.758 204.508 111.445 204.742C111.141 204.969 110.777 205.082 110.355 205.082C109.918 205.082 109.547 204.969 109.242 204.742C108.945 204.508 108.797 204.117 108.797 203.57C108.797 203.016 108.945 202.625 109.242 202.398C109.547 202.172 109.918 202.059 110.355 202.059ZM122.145 209.125H118.992V220H116.238V209.125H114.117V207.801L116.238 206.992V206.09C116.238 204.988 116.41 204.113 116.754 203.465C117.105 202.816 117.605 202.352 118.254 202.07C118.91 201.781 119.691 201.637 120.598 201.637C121.191 201.637 121.734 201.688 122.227 201.789C122.719 201.883 123.133 201.992 123.469 202.117L122.754 204.203C122.488 204.117 122.191 204.039 121.863 203.969C121.535 203.891 121.184 203.852 120.809 203.852C120.184 203.852 119.723 204.047 119.426 204.438C119.137 204.828 118.992 205.398 118.992 206.148V207.027H122.145V209.125ZM129.527 206.781C130.684 206.781 131.676 207.02 132.504 207.496C133.332 207.973 133.969 208.648 134.414 209.523C134.859 210.398 135.082 211.445 135.082 212.664V214.141H126.422C126.453 215.398 126.789 216.367 127.43 217.047C128.078 217.727 128.984 218.066 130.148 218.066C130.977 218.066 131.719 217.988 132.375 217.832C133.039 217.668 133.723 217.43 134.426 217.117V219.355C133.777 219.66 133.117 219.883 132.445 220.023C131.773 220.164 130.969 220.234 130.031 220.234C128.758 220.234 127.637 219.988 126.668 219.496C125.707 218.996 124.953 218.254 124.406 217.27C123.867 216.285 123.598 215.062 123.598 213.602C123.598 212.148 123.844 210.914 124.336 209.898C124.828 208.883 125.52 208.109 126.41 207.578C127.301 207.047 128.34 206.781 129.527 206.781ZM129.527 208.855C128.66 208.855 127.957 209.137 127.418 209.699C126.887 210.262 126.574 211.086 126.48 212.172H132.387C132.379 211.523 132.27 210.949 132.059 210.449C131.855 209.949 131.543 209.559 131.121 209.277C130.707 208.996 130.176 208.855 129.527 208.855ZM149.508 206.781C151.148 206.781 152.387 207.145 153.223 207.871C154.066 208.598 154.488 209.73 154.488 211.27V220H152.531L152.004 218.16H151.91C151.543 218.629 151.164 219.016 150.773 219.32C150.383 219.625 149.93 219.852 149.414 220C148.906 220.156 148.285 220.234 147.551 220.234C146.777 220.234 146.086 220.094 145.477 219.812C144.867 219.523 144.387 219.086 144.035 218.5C143.684 217.914 143.508 217.172 143.508 216.273C143.508 214.938 144.004 213.934 144.996 213.262C145.996 212.59 147.504 212.219 149.52 212.148L151.77 212.066V211.387C151.77 210.488 151.559 209.848 151.137 209.465C150.723 209.082 150.137 208.891 149.379 208.891C148.73 208.891 148.102 208.984 147.492 209.172C146.883 209.359 146.289 209.59 145.711 209.863L144.82 207.918C145.453 207.582 146.172 207.309 146.977 207.098C147.789 206.887 148.633 206.781 149.508 206.781ZM151.758 213.801L150.082 213.859C148.707 213.906 147.742 214.141 147.188 214.562C146.633 214.984 146.355 215.562 146.355 216.297C146.355 216.938 146.547 217.406 146.93 217.703C147.312 217.992 147.816 218.137 148.441 218.137C149.395 218.137 150.184 217.867 150.809 217.328C151.441 216.781 151.758 215.98 151.758 214.926V213.801ZM163.57 220.234C162.344 220.234 161.281 219.996 160.383 219.52C159.484 219.043 158.793 218.312 158.309 217.328C157.824 216.344 157.582 215.094 157.582 213.578C157.582 212 157.848 210.711 158.379 209.711C158.91 208.711 159.645 207.973 160.582 207.496C161.527 207.02 162.609 206.781 163.828 206.781C164.602 206.781 165.301 206.859 165.926 207.016C166.559 207.164 167.094 207.348 167.531 207.566L166.711 209.77C166.234 209.574 165.746 209.41 165.246 209.277C164.746 209.145 164.266 209.078 163.805 209.078C163.047 209.078 162.414 209.246 161.906 209.582C161.406 209.918 161.031 210.418 160.781 211.082C160.539 211.746 160.418 212.57 160.418 213.555C160.418 214.508 160.543 215.312 160.793 215.969C161.043 216.617 161.414 217.109 161.906 217.445C162.398 217.773 163.004 217.938 163.723 217.938C164.434 217.938 165.07 217.852 165.633 217.68C166.195 217.508 166.727 217.285 167.227 217.012V219.402C166.734 219.684 166.207 219.891 165.645 220.023C165.082 220.164 164.391 220.234 163.57 220.234ZM176.848 206.781C177.066 206.781 177.305 206.793 177.562 206.816C177.82 206.84 178.043 206.871 178.23 206.91L177.973 209.488C177.809 209.441 177.605 209.406 177.363 209.383C177.129 209.359 176.918 209.348 176.73 209.348C176.238 209.348 175.77 209.43 175.324 209.594C174.879 209.75 174.484 209.992 174.141 210.32C173.797 210.641 173.527 211.043 173.332 211.527C173.137 212.012 173.039 212.574 173.039 213.215V220H170.273V207.027H172.43L172.805 209.312H172.934C173.191 208.852 173.512 208.43 173.895 208.047C174.277 207.664 174.715 207.359 175.207 207.133C175.707 206.898 176.254 206.781 176.848 206.781ZM192.117 213.484C192.117 214.562 191.977 215.52 191.695 216.355C191.414 217.191 191.004 217.898 190.465 218.477C189.926 219.047 189.277 219.484 188.52 219.789C187.762 220.086 186.906 220.234 185.953 220.234C185.062 220.234 184.246 220.086 183.504 219.789C182.762 219.484 182.117 219.047 181.57 218.477C181.031 217.898 180.613 217.191 180.316 216.355C180.02 215.52 179.871 214.562 179.871 213.484C179.871 212.055 180.117 210.844 180.609 209.852C181.109 208.852 181.82 208.09 182.742 207.566C183.664 207.043 184.762 206.781 186.035 206.781C187.23 206.781 188.285 207.043 189.199 207.566C190.113 208.09 190.828 208.852 191.344 209.852C191.859 210.852 192.117 212.062 192.117 213.484ZM182.707 213.484C182.707 214.43 182.82 215.238 183.047 215.91C183.281 216.582 183.641 217.098 184.125 217.457C184.609 217.809 185.234 217.984 186 217.984C186.766 217.984 187.391 217.809 187.875 217.457C188.359 217.098 188.715 216.582 188.941 215.91C189.168 215.238 189.281 214.43 189.281 213.484C189.281 212.539 189.168 211.738 188.941 211.082C188.715 210.418 188.359 209.914 187.875 209.57C187.391 209.219 186.762 209.043 185.988 209.043C184.848 209.043 184.016 209.426 183.492 210.191C182.969 210.957 182.707 212.055 182.707 213.484ZM204 216.297C204 217.148 203.793 217.867 203.379 218.453C202.965 219.039 202.359 219.484 201.562 219.789C200.773 220.086 199.805 220.234 198.656 220.234C197.75 220.234 196.969 220.168 196.312 220.035C195.664 219.91 195.051 219.715 194.473 219.449V217.07C195.09 217.359 195.781 217.609 196.547 217.82C197.32 218.031 198.051 218.137 198.738 218.137C199.645 218.137 200.297 217.996 200.695 217.715C201.094 217.426 201.293 217.043 201.293 216.566C201.293 216.285 201.211 216.035 201.047 215.816C200.891 215.59 200.594 215.359 200.156 215.125C199.727 214.883 199.094 214.594 198.258 214.258C197.438 213.93 196.746 213.602 196.184 213.273C195.621 212.945 195.195 212.551 194.906 212.09C194.617 211.621 194.473 211.023 194.473 210.297C194.473 209.148 194.926 208.277 195.832 207.684C196.746 207.082 197.953 206.781 199.453 206.781C200.25 206.781 201 206.863 201.703 207.027C202.414 207.184 203.109 207.414 203.789 207.719L202.922 209.793C202.336 209.535 201.746 209.324 201.152 209.16C200.566 208.988 199.969 208.902 199.359 208.902C198.648 208.902 198.105 209.012 197.73 209.23C197.363 209.449 197.18 209.762 197.18 210.168C197.18 210.473 197.27 210.73 197.449 210.941C197.629 211.152 197.938 211.363 198.375 211.574C198.82 211.785 199.438 212.047 200.227 212.359C201 212.656 201.668 212.969 202.23 213.297C202.801 213.617 203.238 214.012 203.543 214.48C203.848 214.949 204 215.555 204 216.297ZM215.695 216.297C215.695 217.148 215.488 217.867 215.074 218.453C214.66 219.039 214.055 219.484 213.258 219.789C212.469 220.086 211.5 220.234 210.352 220.234C209.445 220.234 208.664 220.168 208.008 220.035C207.359 219.91 206.746 219.715 206.168 219.449V217.07C206.785 217.359 207.477 217.609 208.242 217.82C209.016 218.031 209.746 218.137 210.434 218.137C211.34 218.137 211.992 217.996 212.391 217.715C212.789 217.426 212.988 217.043 212.988 216.566C212.988 216.285 212.906 216.035 212.742 215.816C212.586 215.59 212.289 215.359 211.852 215.125C211.422 214.883 210.789 214.594 209.953 214.258C209.133 213.93 208.441 213.602 207.879 213.273C207.316 212.945 206.891 212.551 206.602 212.09C206.312 211.621 206.168 211.023 206.168 210.297C206.168 209.148 206.621 208.277 207.527 207.684C208.441 207.082 209.648 206.781 211.148 206.781C211.945 206.781 212.695 206.863 213.398 207.027C214.109 207.184 214.805 207.414 215.484 207.719L214.617 209.793C214.031 209.535 213.441 209.324 212.848 209.16C212.262 208.988 211.664 208.902 211.055 208.902C210.344 208.902 209.801 209.012 209.426 209.23C209.059 209.449 208.875 209.762 208.875 210.168C208.875 210.473 208.965 210.73 209.145 210.941C209.324 211.152 209.633 211.363 210.07 211.574C210.516 211.785 211.133 212.047 211.922 212.359C212.695 212.656 213.363 212.969 213.926 213.297C214.496 213.617 214.934 214.012 215.238 214.48C215.543 214.949 215.695 215.555 215.695 216.297ZM229.992 206.781C231.633 206.781 232.871 207.145 233.707 207.871C234.551 208.598 234.973 209.73 234.973 211.27V220H233.016L232.488 218.16H232.395C232.027 218.629 231.648 219.016 231.258 219.32C230.867 219.625 230.414 219.852 229.898 220C229.391 220.156 228.77 220.234 228.035 220.234C227.262 220.234 226.57 220.094 225.961 219.812C225.352 219.523 224.871 219.086 224.52 218.5C224.168 217.914 223.992 217.172 223.992 216.273C223.992 214.938 224.488 213.934 225.48 213.262C226.48 212.59 227.988 212.219 230.004 212.148L232.254 212.066V211.387C232.254 210.488 232.043 209.848 231.621 209.465C231.207 209.082 230.621 208.891 229.863 208.891C229.215 208.891 228.586 208.984 227.977 209.172C227.367 209.359 226.773 209.59 226.195 209.863L225.305 207.918C225.938 207.582 226.656 207.309 227.461 207.098C228.273 206.887 229.117 206.781 229.992 206.781ZM232.242 213.801L230.566 213.859C229.191 213.906 228.227 214.141 227.672 214.562C227.117 214.984 226.84 215.562 226.84 216.297C226.84 216.938 227.031 217.406 227.414 217.703C227.797 217.992 228.301 218.137 228.926 218.137C229.879 218.137 230.668 217.867 231.293 217.328C231.926 216.781 232.242 215.98 232.242 214.926V213.801ZM241.594 220H238.828V201.766H241.594V220ZM248.297 220H245.531V201.766H248.297V220ZM265.125 206.781C266.664 206.781 267.898 207.344 268.828 208.469C269.766 209.594 270.234 211.266 270.234 213.484C270.234 214.953 270.016 216.191 269.578 217.199C269.148 218.199 268.543 218.957 267.762 219.473C266.988 219.98 266.086 220.234 265.055 220.234C264.398 220.234 263.828 220.148 263.344 219.977C262.859 219.805 262.445 219.582 262.102 219.309C261.758 219.027 261.469 218.723 261.234 218.395H261.07C261.109 218.707 261.145 219.055 261.176 219.438C261.215 219.812 261.234 220.156 261.234 220.469V225.754H258.469V207.027H260.719L261.105 208.82H261.234C261.477 208.453 261.77 208.113 262.113 207.801C262.465 207.488 262.887 207.242 263.379 207.062C263.879 206.875 264.461 206.781 265.125 206.781ZM264.387 209.031C263.629 209.031 263.02 209.184 262.559 209.488C262.105 209.785 261.773 210.234 261.562 210.836C261.359 211.438 261.25 212.191 261.234 213.098V213.484C261.234 214.445 261.332 215.262 261.527 215.934C261.73 216.598 262.062 217.105 262.523 217.457C262.992 217.801 263.625 217.973 264.422 217.973C265.094 217.973 265.648 217.789 266.086 217.422C266.531 217.055 266.863 216.531 267.082 215.852C267.301 215.172 267.41 214.371 267.41 213.449C267.41 212.051 267.16 210.965 266.66 210.191C266.168 209.418 265.41 209.031 264.387 209.031ZM279.996 206.781C280.215 206.781 280.453 206.793 280.711 206.816C280.969 206.84 281.191 206.871 281.379 206.91L281.121 209.488C280.957 209.441 280.754 209.406 280.512 209.383C280.277 209.359 280.066 209.348 279.879 209.348C279.387 209.348 278.918 209.43 278.473 209.594C278.027 209.75 277.633 209.992 277.289 210.32C276.945 210.641 276.676 211.043 276.48 211.527C276.285 212.012 276.188 212.574 276.188 213.215V220H273.422V207.027H275.578L275.953 209.312H276.082C276.34 208.852 276.66 208.43 277.043 208.047C277.426 207.664 277.863 207.359 278.355 207.133C278.855 206.898 279.402 206.781 279.996 206.781ZM295.266 213.484C295.266 214.562 295.125 215.52 294.844 216.355C294.562 217.191 294.152 217.898 293.613 218.477C293.074 219.047 292.426 219.484 291.668 219.789C290.91 220.086 290.055 220.234 289.102 220.234C288.211 220.234 287.395 220.086 286.652 219.789C285.91 219.484 285.266 219.047 284.719 218.477C284.18 217.898 283.762 217.191 283.465 216.355C283.168 215.52 283.02 214.562 283.02 213.484C283.02 212.055 283.266 210.844 283.758 209.852C284.258 208.852 284.969 208.09 285.891 207.566C286.812 207.043 287.91 206.781 289.184 206.781C290.379 206.781 291.434 207.043 292.348 207.566C293.262 208.09 293.977 208.852 294.492 209.852C295.008 210.852 295.266 212.062 295.266 213.484ZM285.855 213.484C285.855 214.43 285.969 215.238 286.195 215.91C286.43 216.582 286.789 217.098 287.273 217.457C287.758 217.809 288.383 217.984 289.148 217.984C289.914 217.984 290.539 217.809 291.023 217.457C291.508 217.098 291.863 216.582 292.09 215.91C292.316 215.238 292.43 214.43 292.43 213.484C292.43 212.539 292.316 211.738 292.09 211.082C291.863 210.418 291.508 209.914 291.023 209.57C290.539 209.219 289.91 209.043 289.137 209.043C287.996 209.043 287.164 209.426 286.641 210.191C286.117 210.957 285.855 212.055 285.855 213.484ZM302.789 220.234C301.242 220.234 300 219.672 299.062 218.547C298.133 217.414 297.668 215.746 297.668 213.543C297.668 211.316 298.141 209.633 299.086 208.492C300.039 207.352 301.293 206.781 302.848 206.781C303.504 206.781 304.078 206.871 304.57 207.051C305.062 207.223 305.484 207.457 305.836 207.754C306.195 208.051 306.5 208.383 306.75 208.75H306.879C306.84 208.508 306.793 208.16 306.738 207.707C306.691 207.246 306.668 206.82 306.668 206.43V201.766H309.434V220H307.277L306.785 218.23H306.668C306.434 218.605 306.137 218.945 305.777 219.25C305.426 219.547 305.004 219.785 304.512 219.965C304.027 220.145 303.453 220.234 302.789 220.234ZM303.562 217.996C304.742 217.996 305.574 217.656 306.059 216.977C306.543 216.297 306.793 215.277 306.809 213.918V213.555C306.809 212.102 306.574 210.988 306.105 210.215C305.637 209.434 304.781 209.043 303.539 209.043C302.547 209.043 301.789 209.445 301.266 210.25C300.75 211.047 300.492 212.16 300.492 213.59C300.492 215.02 300.75 216.113 301.266 216.871C301.789 217.621 302.555 217.996 303.562 217.996ZM324.691 207.027V220H322.523L322.148 218.254H321.996C321.723 218.699 321.375 219.07 320.953 219.367C320.531 219.656 320.062 219.871 319.547 220.012C319.031 220.16 318.488 220.234 317.918 220.234C316.941 220.234 316.105 220.07 315.41 219.742C314.723 219.406 314.195 218.891 313.828 218.195C313.461 217.5 313.277 216.602 313.277 215.5V207.027H316.043V214.984C316.043 215.992 316.246 216.746 316.652 217.246C317.066 217.746 317.707 217.996 318.574 217.996C319.41 217.996 320.074 217.824 320.566 217.48C321.059 217.137 321.406 216.629 321.609 215.957C321.82 215.285 321.926 214.461 321.926 213.484V207.027H324.691ZM333.867 220.234C332.641 220.234 331.578 219.996 330.68 219.52C329.781 219.043 329.09 218.312 328.605 217.328C328.121 216.344 327.879 215.094 327.879 213.578C327.879 212 328.145 210.711 328.676 209.711C329.207 208.711 329.941 207.973 330.879 207.496C331.824 207.02 332.906 206.781 334.125 206.781C334.898 206.781 335.598 206.859 336.223 207.016C336.855 207.164 337.391 207.348 337.828 207.566L337.008 209.77C336.531 209.574 336.043 209.41 335.543 209.277C335.043 209.145 334.562 209.078 334.102 209.078C333.344 209.078 332.711 209.246 332.203 209.582C331.703 209.918 331.328 210.418 331.078 211.082C330.836 211.746 330.715 212.57 330.715 213.555C330.715 214.508 330.84 215.312 331.09 215.969C331.34 216.617 331.711 217.109 332.203 217.445C332.695 217.773 333.301 217.938 334.02 217.938C334.73 217.938 335.367 217.852 335.93 217.68C336.492 217.508 337.023 217.285 337.523 217.012V219.402C337.031 219.684 336.504 219.891 335.941 220.023C335.379 220.164 334.688 220.234 333.867 220.234ZM345.398 218.008C345.758 218.008 346.113 217.977 346.465 217.914C346.816 217.844 347.137 217.762 347.426 217.668V219.754C347.121 219.887 346.727 220 346.242 220.094C345.758 220.188 345.254 220.234 344.73 220.234C343.996 220.234 343.336 220.113 342.75 219.871C342.164 219.621 341.699 219.195 341.355 218.594C341.012 217.992 340.84 217.16 340.84 216.098V209.125H339.07V207.895L340.969 206.922L341.871 204.145H343.605V207.027H347.32V209.125H343.605V216.062C343.605 216.719 343.77 217.207 344.098 217.527C344.426 217.848 344.859 218.008 345.398 218.008ZM358.781 216.297C358.781 217.148 358.574 217.867 358.16 218.453C357.746 219.039 357.141 219.484 356.344 219.789C355.555 220.086 354.586 220.234 353.438 220.234C352.531 220.234 351.75 220.168 351.094 220.035C350.445 219.91 349.832 219.715 349.254 219.449V217.07C349.871 217.359 350.562 217.609 351.328 217.82C352.102 218.031 352.832 218.137 353.52 218.137C354.426 218.137 355.078 217.996 355.477 217.715C355.875 217.426 356.074 217.043 356.074 216.566C356.074 216.285 355.992 216.035 355.828 215.816C355.672 215.59 355.375 215.359 354.938 215.125C354.508 214.883 353.875 214.594 353.039 214.258C352.219 213.93 351.527 213.602 350.965 213.273C350.402 212.945 349.977 212.551 349.688 212.09C349.398 211.621 349.254 211.023 349.254 210.297C349.254 209.148 349.707 208.277 350.613 207.684C351.527 207.082 352.734 206.781 354.234 206.781C355.031 206.781 355.781 206.863 356.484 207.027C357.195 207.184 357.891 207.414 358.57 207.719L357.703 209.793C357.117 209.535 356.527 209.324 355.934 209.16C355.348 208.988 354.75 208.902 354.141 208.902C353.43 208.902 352.887 209.012 352.512 209.23C352.145 209.449 351.961 209.762 351.961 210.168C351.961 210.473 352.051 210.73 352.23 210.941C352.41 211.152 352.719 211.363 353.156 211.574C353.602 211.785 354.219 212.047 355.008 212.359C355.781 212.656 356.449 212.969 357.012 213.297C357.582 213.617 358.02 214.012 358.324 214.48C358.629 214.949 358.781 215.555 358.781 216.297Z" fill="#043B72"/>
<defs>
<linearGradient id="paint0_linear_4123_1573" x1="-4.69221" y1="76.6863" x2="76.1978" y2="76.6863" gradientUnits="userSpaceOnUse">
<stop stop-color="#F58220" stop-opacity="0.8"/>
<stop offset="1" stop-color="#F58220" stop-opacity="0"/>
</linearGradient>
</defs>
</svg>
