<svg width="21" height="21" viewBox="0 0 21 21" fill="none" xmlns="http://www.w3.org/2000/svg">
<path d="M14.9339 4.73431C14.7638 4.60091 14.5178 4.63066 14.3844 4.80078L9.6928 10.7833C9.5594 10.9534 9.58919 11.1995 9.75926 11.3329C9.92715 11.4645 10.1774 11.434 10.3088 11.2664L15.0004 5.28388C15.1338 5.11377 15.104 4.86771 14.9339 4.73431V4.73431Z" fill="#F08200"/>
<path d="M10.5374 4.65088C9.68748 4.65088 8.99609 5.34528 8.99609 6.19883C9.07368 8.24961 12.0014 8.24906 12.0786 6.19879C12.0786 5.34528 11.3872 4.65088 10.5374 4.65088V4.65088ZM10.5374 6.96392C10.1191 6.96392 9.77895 6.62071 9.77895 6.19883C9.8172 5.18522 11.2577 5.18546 11.2958 6.19883C11.2957 6.62071 10.9555 6.96392 10.5374 6.96392Z" fill="#F08200"/>
<path d="M12.5156 9.86826C12.5156 10.7218 13.207 11.4162 14.0569 11.4162C16.0988 11.3385 16.0982 8.39774 14.0568 8.32031C13.207 8.32035 12.5156 9.01475 12.5156 9.86826V9.86826ZM14.8153 9.86826C14.8153 10.2901 14.4751 10.6334 14.0569 10.6334C13.0522 10.595 13.0525 9.14138 14.0569 9.10317C14.475 9.10321 14.8153 9.44642 14.8153 9.86826V9.86826Z" fill="#F08200"/>
<path d="M5.72608 4.27979C4.48353 4.27979 3.47266 5.29065 3.47266 6.53321V9.51102C3.58629 12.4972 7.86693 12.4949 7.97951 9.51102V6.53321C7.97951 5.29065 6.96864 4.27979 5.72608 4.27979V4.27979ZM7.19665 9.51098C7.12247 11.4597 4.32899 11.4582 4.25552 9.51098V6.53317C4.32969 4.58444 7.12318 4.58596 7.19665 6.53317V9.51098Z" fill="#F08200"/>
<path d="M9.87183 16.0038C10.3117 15.9902 10.3114 15.3519 9.87183 15.3384H9.08858C8.90484 15.3384 8.75586 15.4874 8.75586 15.6711V17.9911C8.76948 18.431 9.40779 18.4306 9.42129 17.9911V17.1418H9.79714C10.237 17.1282 10.2367 16.4899 9.79714 16.4764H9.42129V16.0038H9.87183Z" fill="#F08200"/>
<path d="M11.8505 16.0058C12.2904 15.9921 12.2901 15.3538 11.8505 15.3403H11.071C10.8873 15.3403 10.7383 15.4893 10.7383 15.673V17.9888C10.7383 18.1725 10.8873 18.3215 11.071 18.3215H11.8505C12.2904 18.3079 12.2901 17.6696 11.8505 17.6561H11.4037V17.1636H11.7785C12.2184 17.15 12.2181 16.5117 11.7785 16.4982H11.4037V16.0057L11.8505 16.0058Z" fill="#F08200"/>
<path d="M13.9032 16.0058C14.3431 15.9921 14.3428 15.3538 13.9032 15.3403H13.1237C12.94 15.3403 12.791 15.4893 12.791 15.673V17.9888C12.791 18.1725 12.94 18.3215 13.1237 18.3215H13.9032C14.3431 18.3079 14.3428 17.6696 13.9032 17.6561H13.4564V17.1636H13.8312C14.2711 17.15 14.2708 16.5117 13.8312 16.4982H13.4564V16.0057L13.9032 16.0058Z" fill="#F08200"/>
<path d="M16.264 16.5371C15.9839 16.4337 15.7225 16.3213 15.6353 16.2832C15.5934 16.2467 15.5927 16.1987 15.5966 16.1717C15.6014 16.1382 15.6264 16.056 15.7541 16.0176C16.0611 15.925 16.3498 16.1508 16.3598 16.1588C16.5004 16.2752 16.7089 16.2566 16.8267 16.1166C16.9449 15.9759 16.9267 15.7661 16.7861 15.6478C16.7633 15.6287 16.2216 15.1817 15.5621 15.3804C15.2242 15.4822 14.985 15.7492 14.9379 16.0771C14.8936 16.3859 15.0275 16.6828 15.2873 16.8522C15.302 16.8618 15.3174 16.8702 15.3335 16.8773C15.347 16.8834 15.6701 17.0272 16.0338 17.1614C16.1063 17.1881 16.3407 17.2868 16.3143 17.4343C16.2055 17.7999 15.579 17.6796 15.3781 17.4294C15.2547 17.2933 15.0443 17.2829 14.9081 17.4063C14.772 17.5297 14.7616 17.7402 14.885 17.8763C15.4563 18.5393 16.7754 18.5053 16.9694 17.5513C17.0304 17.2093 16.8772 16.7632 16.264 16.5371V16.5371Z" fill="#F08200"/>
<path d="M6.19505 15.4185C5.42843 15.4185 4.80469 16.0422 4.80469 16.8088C4.8746 18.6508 7.51577 18.6503 7.58541 16.8088C7.58541 16.0422 6.9617 15.4185 6.19505 15.4185V15.4185ZM6.19505 17.5337C5.79532 17.5337 5.47012 17.2085 5.47012 16.8088C5.50656 15.8484 6.88365 15.8487 6.91998 16.8088C6.91998 17.2085 6.59478 17.5337 6.19505 17.5337V17.5337Z" fill="#F08200"/>
<path d="M3.91482 15.3809C3.91372 15.3809 3.91263 15.3809 3.91153 15.3809C3.72779 15.3826 3.58026 15.533 3.58206 15.7168L3.59314 16.8611L2.67289 15.5286C2.59018 15.4088 2.4392 15.3567 2.30009 15.4C2.16109 15.4433 2.06641 15.572 2.06641 15.7176V17.9057C2.08003 18.3456 2.71833 18.3452 2.73184 17.9057V16.785L3.60488 18.0492C3.70032 18.1871 3.86045 18.2453 4.01283 18.1978C4.1678 18.1494 4.26797 18.0058 4.26797 17.8286L4.2475 15.7103C4.24566 15.5277 4.09707 15.3809 3.91482 15.3809V15.3809Z" fill="#F08200"/>
<path d="M20.4416 3.07409C20.4126 0.312039 16.6956 -0.479864 15.5253 1.9775H10.8903C10.6741 1.9775 10.4988 2.15274 10.4988 2.36893C10.4988 2.58511 10.6741 2.76036 10.8903 2.76036H15.2991C15.1044 4.24047 16.3073 5.6261 17.7971 5.65412V13.2596H1.18325V4.12457C1.18325 3.37236 1.79525 2.76036 2.54746 2.76036H7.43604C7.65223 2.76036 7.82747 2.58511 7.82747 2.36893C7.82747 2.15274 7.65223 1.9775 7.43604 1.9775H2.54746C1.36354 1.9775 0.400391 2.94069 0.400391 4.12457L0.40043 18.3583C0.40043 19.5422 1.36354 20.5053 2.54743 20.5053H16.4331C17.6169 20.5053 18.5801 19.5422 18.5801 18.3583L18.58 5.55216C19.6541 5.23995 20.4416 4.2476 20.4416 3.07409V3.07409ZM17.8608 1.27617C18.8522 1.27617 19.6588 2.08271 19.6588 3.07409C19.5397 5.45688 16.1814 5.45543 16.0631 3.07401C16.0631 2.09837 16.8855 1.27617 17.8608 1.27617V1.27617ZM16.4331 19.7224H2.54743C1.79525 19.7224 1.18329 19.1105 1.18329 18.3583V14.0426H17.7972V18.3583C17.7972 19.1105 17.1852 19.7224 16.4331 19.7224Z" fill="#F08200"/>
<path d="M17.3121 3.93848C17.4579 4.09012 17.7199 4.09012 17.8657 3.93848L18.8732 2.9309C19.0261 2.77804 19.0261 2.53019 18.8732 2.37734C18.7204 2.22448 18.4726 2.22448 18.3196 2.37734L17.5889 3.1081L17.3323 2.85151C17.1794 2.69866 16.9317 2.69866 16.7787 2.85151C16.6258 3.00437 16.6258 3.25222 16.7787 3.40508L17.3121 3.93848Z" fill="#F08200"/>
<path d="M8.79648 2.5189C8.86072 2.67313 9.01991 2.77126 9.18651 2.75932C9.35693 2.74707 9.50149 2.62068 9.53962 2.45471C9.61563 2.12356 9.24217 1.86114 8.95497 2.03459C8.79136 2.13342 8.72419 2.34257 8.79648 2.5189V2.5189Z" fill="#F08200"/>
</svg>
