<svg width="24" height="21" viewBox="0 0 24 21" fill="none" xmlns="http://www.w3.org/2000/svg">
<path d="M18.3803 0.649414H13.7773C13.5251 0.649414 13.3207 0.85391 13.3207 1.10608C13.3207 1.35826 13.5251 1.56275 13.7773 1.56275H18.3803C19.4887 1.56275 20.5304 1.99412 21.3134 2.77758C22.0971 3.56123 22.5287 4.60289 22.5287 5.71067C22.5287 7.99808 20.6677 9.85905 18.3803 9.85905H12.9866C12.9002 9.1698 12.3004 8.60536 11.5954 8.61153C10.8879 8.61326 10.2812 9.15277 10.2085 9.85905H5.12226C4.01407 9.85905 2.9724 9.4275 2.18913 8.64381C1.40548 7.86017 0.973884 6.81846 0.973884 5.71067C0.973884 3.42349 2.83481 1.56275 5.12226 1.56275H9.729C9.98122 1.56275 10.1857 1.35826 10.1857 1.10608C10.1857 0.85391 9.98122 0.649414 9.729 0.649414H5.12226C2.33124 0.649414 0.0605469 2.91988 0.0605469 5.71067C0.0605469 7.06246 0.587132 8.33346 1.54321 9.28954C2.49893 10.2458 3.76998 10.7724 5.12226 10.7724H10.2008L10.2011 13.456C9.33225 13.6489 8.6914 14.3744 8.6914 15.2798V17.2447C8.6914 17.7244 8.87275 18.1835 9.18908 18.5053L10.7934 20.1868C10.9675 20.3693 11.2566 20.3761 11.439 20.202C11.6215 20.0279 11.6283 19.7388 11.4542 19.5563L9.84732 17.8721C9.84545 17.8701 9.84353 17.8682 9.84162 17.8662C9.69105 17.7139 9.6047 17.4874 9.6047 17.2447V15.2798C9.6047 14.8885 9.83837 14.549 10.201 14.4078V15.1766C10.201 15.4287 10.4054 15.6332 10.6576 15.6332C10.9099 15.6332 11.1143 15.4287 11.1143 15.1766L11.1142 10.0089C11.1139 9.69977 11.3581 9.5287 11.589 9.52468C11.8625 9.51838 12.084 9.7674 12.084 10.0331V13.3022C12.084 13.5543 12.2884 13.7588 12.5407 13.7588C12.7929 13.7588 12.9973 13.5543 12.9973 13.3022C12.9973 13.0144 13.2039 12.8182 13.4895 12.8176C13.7528 12.8202 13.9669 13.0433 13.9669 13.3149V13.7564C13.9669 14.0002 14.1585 14.201 14.402 14.2126C14.6463 14.2231 14.8552 14.0422 14.8783 13.7995C14.9082 13.4835 15.067 13.3079 15.3844 13.2717C15.6431 13.2824 15.8504 13.4958 15.8504 13.7564V14.4998C15.8504 14.7436 16.0419 14.9444 16.2855 14.9559C16.5303 14.9665 16.7387 14.7856 16.7617 14.5428C16.7948 14.1933 16.9282 14.0529 17.2683 14.0151C17.5267 14.0254 17.7338 14.2388 17.7338 14.4997V16.0142C17.7338 16.8646 17.5337 17.7164 17.1551 18.4779L16.5645 19.6685C16.4524 19.8945 16.5447 20.1685 16.7707 20.2806C16.8359 20.3129 16.9051 20.3282 16.9732 20.3282C17.1413 20.3282 17.303 20.2351 17.3827 20.0743L17.9732 18.8842C18.4141 17.9973 18.6471 17.0049 18.6471 16.0142V14.4998C18.6471 13.7287 18.0198 13.1014 17.2487 13.1014C17.0534 13.1014 16.8415 13.1595 16.6636 13.2369C16.4568 12.7227 15.9528 12.3585 15.3653 12.358C15.1268 12.358 14.8657 12.4387 14.6588 12.5547C14.4125 12.168 13.9847 11.9091 13.4998 11.9043C13.3234 11.9019 13.1547 11.9296 12.9974 11.9842V10.7724H18.3803C21.1713 10.7724 23.442 8.50174 23.442 5.71072C23.442 4.35893 22.9154 3.08793 21.9593 2.13185C21.0039 1.17586 19.7328 0.649414 18.3803 0.649414V0.649414Z" fill="#F08200"/>
<path d="M13.9428 3.3623H12.8805C12.6283 3.3623 12.4238 3.5668 12.4238 3.81897V7.47621C12.4238 7.72619 12.6336 7.93287 12.8825 7.93287C12.8826 7.93287 13.8591 7.92849 14.1283 7.92849C14.9229 7.92849 15.5694 7.28203 15.5694 6.48743C15.5694 6.03468 15.3593 5.63026 15.0318 5.36585C15.1639 5.16258 15.241 4.92041 15.241 4.66048C15.2411 3.94469 14.6587 3.3623 13.9428 3.3623V3.3623ZM13.9428 4.27564C14.1551 4.27564 14.3277 4.44826 14.3277 4.66052C14.3277 4.87278 14.1551 5.0454 13.9428 5.0454C13.8647 5.0454 13.3372 5.04636 13.3372 5.04636V4.27564H13.9428ZM14.1283 7.0152C13.9827 7.0152 13.6307 7.01648 13.3372 7.01766V5.96057C13.4106 5.96029 14.1283 5.95975 14.1283 5.95975C14.4193 5.95975 14.6561 6.19653 14.6561 6.48752C14.6561 6.77851 14.4194 7.0152 14.1283 7.0152Z" fill="#F08200"/>
<path d="M5.39127 7.01956C5.02767 7.01956 4.67773 6.87297 4.45519 6.62742C4.28586 6.44055 3.99697 6.42644 3.81015 6.59573C3.62328 6.76511 3.60908 7.05391 3.77846 7.24082C4.17124 7.67415 4.77413 7.9329 5.39127 7.9329C6.16181 7.9329 6.80882 7.44121 6.92975 6.76383C7.02076 6.2541 6.78932 5.58823 5.86689 5.24801C5.41762 5.08224 4.99931 4.90181 4.87099 4.84559C4.77121 4.7654 4.77454 4.65365 4.78126 4.60707C4.79053 4.54246 4.83747 4.38445 5.07247 4.31366C5.58796 4.15835 6.06596 4.53565 6.07938 4.54647C6.27246 4.70654 6.55888 4.68096 6.72045 4.48875C6.88275 4.29567 6.85777 4.0076 6.66474 3.8453C6.63022 3.81626 5.80794 3.13829 4.80907 3.4391C4.30436 3.59112 3.94729 3.98893 3.87719 4.4772C3.81335 4.92172 4.02661 5.46913 4.4588 5.66198C4.47999 5.67139 4.98361 5.89556 5.55079 6.10476C5.71126 6.16395 6.0792 6.331 6.03061 6.60322C5.99412 6.80794 5.74496 7.01956 5.39127 7.01956V7.01956Z" fill="#F08200"/>
<path d="M18.1081 7.01958C17.7445 7.01958 17.3945 6.87299 17.172 6.62743C17.0027 6.44057 16.7138 6.42645 16.5269 6.59574C16.3401 6.76512 16.3259 7.05392 16.4953 7.24083C16.888 7.67417 17.4909 7.93291 18.1081 7.93291C18.8786 7.93291 19.5256 7.44122 19.6465 6.76384C19.7376 6.25411 19.5061 5.58824 18.5837 5.24802C18.1344 5.08225 17.7161 4.90182 17.5878 4.84561C17.488 4.76541 17.4914 4.65367 17.4981 4.60709C17.5073 4.54247 17.5543 4.38446 17.7893 4.31368C18.305 4.15836 18.7828 4.53562 18.7962 4.54649C18.9893 4.70655 19.2757 4.68098 19.4373 4.48876C19.5996 4.29568 19.5746 4.00762 19.3816 3.84532C19.3471 3.81632 18.5247 3.13826 17.5259 3.43911C17.0212 3.59114 16.6641 3.98894 16.594 4.47726C16.5282 4.93539 16.7268 5.37616 17.1123 5.62751C17.2315 5.69428 17.6194 5.85955 18.2676 6.10482C18.4281 6.16401 18.796 6.33106 18.7474 6.60323C18.7109 6.80796 18.4617 7.01958 18.1081 7.01958V7.01958Z" fill="#F08200"/>
<path d="M8.33362 3.3623C8.0814 3.3623 7.87695 3.5668 7.87695 3.81897V6.33554C7.87695 6.88724 8.14091 7.3356 8.66146 7.66824C9.17284 7.99498 9.85081 8.01786 10.391 7.74582C11.1683 7.35432 11.3315 6.76134 11.3315 6.33289V3.81897C11.3315 3.5668 11.1271 3.3623 10.8748 3.3623C10.6226 3.3623 10.4182 3.5668 10.4182 3.81897V6.33289C10.4182 6.50825 10.3684 6.73458 9.98019 6.93008C9.72555 7.05835 9.39524 7.05324 9.15321 6.89861C8.85199 6.70617 8.79029 6.53433 8.79029 6.33558V3.81902C8.79029 3.5668 8.58584 3.3623 8.33362 3.3623V3.3623Z" fill="#F08200"/>
<path d="M11.3722 1.35907C11.5086 1.56758 11.7994 1.6217 12.0051 1.48511C12.213 1.34715 12.2685 1.05917 12.1312 0.852209C11.9936 0.644836 11.7047 0.588574 11.4982 0.726123C11.2911 0.864037 11.2344 1.15224 11.3722 1.35907V1.35907Z" fill="#F08200"/>
</svg>
