<svg width="18" height="22" viewBox="0 0 18 22" fill="none" xmlns="http://www.w3.org/2000/svg">
<path d="M12.9538 7.65674C12.3045 7.00792 11.2483 7.008 10.5993 7.65683L9.07774 9.17843L7.55614 7.65683C6.90723 7.008 5.85102 7.00788 5.20144 7.65696C4.55261 8.30633 4.55265 9.36254 5.20152 10.0115L5.46026 10.2702C5.58353 10.3934 5.78325 10.3934 5.90652 10.2701C6.02974 10.1469 6.0297 9.94712 5.90652 9.82393L5.64778 9.56528C5.24481 9.16232 5.24486 8.50634 5.64769 8.10321C6.05099 7.70016 6.70701 7.70025 7.10989 8.10312L8.85459 9.84783C8.97778 9.97097 9.17754 9.97106 9.30085 9.84783L11.0455 8.10312C11.4486 7.70016 12.1045 7.70029 12.5076 8.103C12.9105 8.50634 12.9106 9.16232 12.5077 9.56524L10.763 11.3099C10.6397 11.4332 10.6397 11.633 10.763 11.7562L12.5076 13.5008C12.9104 13.904 12.9104 14.56 12.5077 14.963C12.3125 15.1582 12.0529 15.2656 11.7766 15.2656C11.5004 15.2656 11.2407 15.1581 11.0456 14.963L9.30085 13.2183C9.17762 13.0952 8.97782 13.0951 8.85459 13.2183L7.10989 14.963C6.91472 15.1582 6.65509 15.2656 6.37885 15.2656C6.10261 15.2656 5.84295 15.1581 5.6479 14.9631C5.24507 14.56 5.24507 13.904 5.64782 13.5009L7.39252 11.7562C7.45172 11.697 7.48496 11.6168 7.48496 11.533C7.48496 11.4494 7.45172 11.3691 7.39252 11.3099L6.94741 10.8648C6.82418 10.7416 6.62438 10.7416 6.5012 10.8648C6.37797 10.9881 6.37797 11.1878 6.5012 11.311L6.72321 11.533L5.20152 13.0547C4.55295 13.7038 4.55295 14.76 5.20161 15.4092C5.51596 15.7236 5.93407 15.8967 6.37889 15.8967C6.82376 15.8967 7.24182 15.7235 7.55618 15.4092L9.07774 13.8876L10.5993 15.4092C10.9137 15.7236 11.3318 15.8967 11.7766 15.8967C12.2215 15.8967 12.6396 15.7235 12.954 15.4091C13.6026 14.76 13.6026 13.7038 12.9539 13.0546L11.4323 11.533L12.9539 10.0114C13.6028 9.36254 13.6029 8.30629 12.9538 7.65674V7.65674Z" fill="#F08200"/>
<path d="M1.82098 19.2436C1.99524 19.2436 2.13652 19.1024 2.13652 18.9281C2.13652 18.7538 1.99524 18.6125 1.82098 18.6125H0.674912C0.500651 18.6125 0.359375 18.7538 0.359375 18.9281V21.648C0.359375 21.8223 0.500651 21.9635 0.674912 21.9635H1.82098C1.99524 21.9635 2.13652 21.8223 2.13652 21.648C2.13652 21.4737 1.99524 21.3325 1.82098 21.3325H0.990448V20.6036H1.7365C1.91076 20.6036 2.05204 20.4624 2.05204 20.288C2.05204 20.1137 1.91076 19.9725 1.7365 19.9725H0.990448V19.2436H1.82098Z" fill="#F08200"/>
<path d="M7.14858 18.6125H6.4258C6.25162 18.6125 6.11034 18.7537 6.11026 18.9279L6.10938 20.3448V20.3448V20.3449V21.648C6.10938 21.8223 6.25065 21.9635 6.42491 21.9635C6.59917 21.9635 6.74045 21.8223 6.74045 21.648V20.6588C6.88913 20.6581 7.05443 20.6574 7.14858 20.6574C7.73439 20.6574 8.21098 20.1987 8.21098 19.6349C8.21102 19.0712 7.73443 18.6125 7.14858 18.6125V18.6125ZM7.14858 20.0263C7.05443 20.0263 6.88951 20.027 6.74066 20.0277L6.74112 19.2436H7.14858C7.38242 19.2436 7.5799 19.4228 7.5799 19.6349C7.57994 19.8471 7.38242 20.0263 7.14858 20.0263V20.0263Z" fill="#F08200"/>
<path d="M14.3366 19.2436C14.5109 19.2436 14.6521 19.1024 14.6521 18.9281C14.6521 18.7538 14.5109 18.6125 14.3366 18.6125H13.1905C13.0162 18.6125 12.875 18.7538 12.875 18.9281V21.648C12.875 21.8223 13.0162 21.9635 13.1905 21.9635H14.3366C14.5109 21.9635 14.6521 21.8223 14.6521 21.648C14.6521 21.4737 14.5109 21.3325 14.3366 21.3325H13.5061V20.6036H14.2521C14.4264 20.6036 14.5676 20.4624 14.5676 20.288C14.5676 20.1137 14.4264 19.9725 14.2521 19.9725H13.5061V19.2436H14.3366Z" fill="#F08200"/>
<path d="M4.50688 20.1909L5.26897 19.1091C5.36931 18.9667 5.33519 18.7698 5.19273 18.6695C5.05028 18.569 4.85343 18.6032 4.75304 18.7457L4.12117 19.6426L3.49031 18.7459C3.39005 18.6034 3.1932 18.5691 3.05066 18.6694C2.90812 18.7697 2.87387 18.9665 2.97413 19.109L3.73508 20.1907L2.83689 21.4657C2.73655 21.6081 2.77067 21.805 2.91313 21.9053C2.96837 21.9443 3.03177 21.963 3.09458 21.963C3.19374 21.963 3.29135 21.9164 3.35282 21.8291L4.12079 20.7389L4.88754 21.8289C4.94897 21.9162 5.04666 21.963 5.14591 21.963C5.20864 21.963 5.27199 21.9443 5.32719 21.9055C5.46973 21.8052 5.50398 21.6084 5.40372 21.4658L4.50688 20.1909Z" fill="#F08200"/>
<path d="M9.1671 18.6125C8.99284 18.6125 8.85156 18.7538 8.85156 18.9281V21.648C8.85156 21.8223 8.99284 21.9635 9.1671 21.9635C9.3414 21.9635 9.48264 21.8223 9.48264 21.648V18.9281C9.48264 18.7538 9.3414 18.6125 9.1671 18.6125V18.6125Z" fill="#F08200"/>
<path d="M12.2266 19.6342C12.2266 19.0705 11.7501 18.6118 11.1642 18.6118H10.4414C10.2672 18.6118 10.126 18.7529 10.1259 18.9271L10.125 21.6473C10.125 21.8216 10.2662 21.9628 10.4405 21.9628C10.6148 21.9628 10.7561 21.8216 10.7561 21.6473V20.8125L11.6742 21.8557C11.7366 21.9266 11.8237 21.9628 11.9112 21.9628C11.9853 21.9628 12.0596 21.9369 12.1196 21.8841C12.2504 21.769 12.2631 21.5696 12.148 21.4388L11.4309 20.624C11.8881 20.5099 12.2266 20.1094 12.2266 19.6342ZM11.1642 20.0256C11.0701 20.0256 10.9051 20.0263 10.7563 20.027L10.7568 19.2429H11.1643C11.3981 19.2429 11.5956 19.4221 11.5956 19.6342C11.5956 19.8464 11.398 20.0256 11.1642 20.0256V20.0256Z" fill="#F08200"/>
<path d="M16.3808 18.6125H15.6105C15.4362 18.6125 15.2949 18.7538 15.2949 18.9281V21.648C15.2949 21.7319 15.3283 21.8123 15.3878 21.8715C15.4469 21.9304 15.527 21.9635 15.6105 21.9635H15.6116C15.6351 21.9635 16.1895 21.9614 16.4089 21.9575C17.2119 21.9435 17.7947 21.2414 17.7947 20.288C17.7947 19.2859 17.2265 18.6125 16.3808 18.6125V18.6125ZM16.3978 21.3265C16.2905 21.3284 16.0953 21.3299 15.926 21.3309V19.2436H16.3808C16.9581 19.2436 17.1637 19.7831 17.1637 20.288C17.1637 20.9962 16.7791 21.3199 16.3978 21.3265V21.3265Z" fill="#F08200"/>
<path d="M17.0402 16.7178V14.9512C17.0402 14.7769 16.8989 14.6356 16.7246 14.6356C16.5503 14.6356 16.4091 14.7769 16.4091 14.9512V16.7178C16.4091 17.0123 16.1694 17.252 15.8748 17.252H2.27476C1.98013 17.252 1.74045 17.0123 1.74045 16.7178V5.81366H16.4091V13.4787C16.4091 13.653 16.5503 13.7942 16.7246 13.7942C16.8989 13.7942 17.0402 13.653 17.0402 13.4787V2.94816C17.0402 2.30556 16.5174 1.78278 15.8748 1.78278H15.5102V1.4181C15.5102 0.869197 15.0636 0.422607 14.5146 0.422607C13.9657 0.422607 13.5191 0.869197 13.5191 1.4181V1.78257H12.7903V1.4181C12.7903 0.869197 12.3436 0.422607 11.7947 0.422607C11.2458 0.422607 10.7992 0.869197 10.7992 1.4181V1.78257H10.0703V1.4181C10.0703 0.869197 9.62369 0.422607 9.07474 0.422607C8.52584 0.422607 8.0792 0.869197 8.0792 1.4181V1.78257H7.35031V1.4181C7.35036 0.869197 6.90372 0.422607 6.35482 0.422607C5.80591 0.422607 5.35928 0.869197 5.35928 1.4181V1.78257H4.63039V1.4181C4.63039 0.869197 4.1838 0.422607 3.63489 0.422607C3.08598 0.422607 2.63935 0.869197 2.63935 1.4181V1.78278H2.27476C1.63216 1.78278 1.10938 2.30556 1.10938 2.94816V3.22752C1.10938 3.40182 1.25065 3.54305 1.42491 3.54305C1.59917 3.54305 1.74045 3.40182 1.74045 3.22752V2.94816C1.74045 2.65354 1.98013 2.41385 2.27476 2.41385H2.63935V2.77811C2.63935 3.32702 3.08594 3.77361 3.63489 3.77361C4.1838 3.77361 4.63043 3.32702 4.63043 2.77811V2.41364H5.35932V2.77811C5.35932 3.32702 5.80591 3.77361 6.35486 3.77361C6.90381 3.77361 7.3504 3.32702 7.3504 2.77811V2.41364H8.07929V2.77811C8.07929 3.32702 8.52588 3.77361 9.07483 3.77361C9.62378 3.77361 10.0704 3.32702 10.0704 2.77811V2.41364H10.7993V2.77811C10.7993 3.32702 11.2458 3.77361 11.7948 3.77361C12.3437 3.77361 12.7903 3.32702 12.7903 2.77811V2.41364H13.5192V2.77811C13.5192 3.32702 13.9658 3.77361 14.5147 3.77361C15.0636 3.77361 15.5102 3.32702 15.5102 2.77811V2.41385H15.8748C16.1694 2.41385 16.4091 2.65354 16.4091 2.94816V5.18254H1.74045V4.69998C1.74045 4.52568 1.59917 4.38444 1.42491 4.38444C1.25065 4.38444 1.10938 4.52568 1.10938 4.69998V16.7177C1.10938 17.3603 1.63216 17.8831 2.27476 17.8831H15.8748C16.5174 17.8831 17.0402 17.3603 17.0402 16.7178ZM3.99931 2.77811C3.99931 2.97904 3.83582 3.14253 3.63485 3.14253C3.43391 3.14253 3.27038 2.97904 3.27038 2.77811V2.10118C3.27038 2.10021 3.27051 2.09929 3.27051 2.09832C3.27051 2.09735 3.27038 2.09642 3.27038 2.09546V1.4181C3.27038 1.21717 3.43387 1.05368 3.63485 1.05368C3.83578 1.05368 3.99931 1.21717 3.99931 1.4181V2.77811ZM6.71928 2.77811C6.71928 2.97904 6.55579 3.14253 6.35482 3.14253C6.15384 3.14253 5.99035 2.97904 5.99035 2.77811V1.4181C5.99035 1.21717 6.15384 1.05368 6.35482 1.05368C6.55579 1.05368 6.71928 1.21717 6.71928 1.4181V2.77811ZM9.43921 2.77811C9.43921 2.97904 9.27568 3.14253 9.07474 3.14253C8.87381 3.14253 8.71028 2.97904 8.71028 2.77811V1.4181C8.71028 1.21717 8.87377 1.05368 9.07474 1.05368C9.27568 1.05368 9.43921 1.21717 9.43921 1.4181V2.77811ZM12.1592 2.77811C12.1592 2.97904 11.9956 3.14253 11.7947 3.14253C11.5938 3.14253 11.4303 2.97904 11.4303 2.77811V1.4181C11.4303 1.21717 11.5938 1.05368 11.7947 1.05368C11.9956 1.05368 12.1592 1.21717 12.1592 1.4181V2.77811ZM14.5146 3.14253C14.3137 3.14253 14.1502 2.97904 14.1502 2.77811V1.4181C14.1502 1.21717 14.3137 1.05368 14.5146 1.05368C14.7156 1.05368 14.8791 1.21717 14.8791 1.4181V2.09508C14.8791 2.09617 14.8789 2.09722 14.8789 2.09832C14.8789 2.09941 14.8791 2.10046 14.8791 2.10156V2.77811C14.8791 2.97909 14.7156 3.14253 14.5146 3.14253Z" fill="#F08200"/>
</svg>
