<svg width="23" height="23" viewBox="0 0 23 23" fill="none" xmlns="http://www.w3.org/2000/svg">
<path d="M22.0907 11.8914L16.1204 1.55069C15.4812 0.443475 14.0604 0.0628045 12.9531 0.702011L8.79108 3.10499C8.58304 3.22508 8.51175 3.4911 8.63188 3.69914C8.75206 3.90718 9.01808 3.97851 9.22603 3.85833L13.3881 1.45535C14.0799 1.05593 14.9677 1.29381 15.3671 1.9856L21.3373 12.3263C21.7367 13.0181 21.4989 13.9059 20.8071 14.3054L9.14561 21.0381C8.45386 21.4376 7.56607 21.1997 7.16661 20.5079L1.19637 10.1671C0.796948 9.47531 1.03482 8.58753 1.72662 8.18807L5.82979 5.8191C6.03782 5.69901 6.10911 5.43299 5.98898 5.22495C5.86889 5.01696 5.60287 4.94567 5.39483 5.06576L1.29166 7.43473C0.184448 8.07402 -0.196266 9.49484 0.443027 10.6021L6.41328 20.9428C6.84223 21.6858 7.62318 22.1017 8.42515 22.1016C8.81822 22.1016 9.21637 22.0017 9.58056 21.7915L21.242 15.0588C22.3492 14.4195 22.7299 12.9986 22.0907 11.8914V11.8914Z" fill="#F08200"/>
<path d="M8.1396 10.0924L4.6702 8.44712C4.49817 8.36561 4.29313 8.40532 4.16408 8.54525C4.03499 8.68517 4.01194 8.89277 4.10711 9.05762L6.22572 12.7272C6.30631 12.8667 6.45246 12.9447 6.60282 12.9447C6.67659 12.9447 6.7514 12.9259 6.81986 12.8864C7.0279 12.7663 7.09919 12.5003 6.97905 12.2922L5.55806 9.83101L8.85301 11.3936C9.06204 11.4924 9.29152 11.4538 9.43754 11.2953C9.58721 11.1329 9.60539 10.8918 9.48373 10.681L7.43267 7.12843C7.31253 6.92044 7.0466 6.84911 6.83852 6.96924C6.63048 7.08933 6.55919 7.35535 6.67933 7.56338L8.1396 10.0924Z" fill="#F08200"/>
<path d="M10.5142 4.847C9.92257 5.18857 9.49937 5.74009 9.3226 6.39995C9.14584 7.05982 9.23652 7.74905 9.57814 8.34067C9.9197 8.93229 10.4712 9.3555 11.131 9.53226C11.3514 9.59129 11.575 9.62052 11.7971 9.62052C12.2403 9.62052 12.6777 9.5043 13.0718 9.27677C14.2931 8.57167 14.713 7.00441 14.0079 5.7831C13.3027 4.56184 11.7355 4.14194 10.5142 4.847V4.847ZM12.6368 8.52343C12.2464 8.74883 11.7915 8.80868 11.3562 8.69202C10.9208 8.57532 10.5569 8.29609 10.3315 7.90572C10.106 7.5153 10.0462 7.06052 10.1628 6.62508C10.2795 6.18965 10.5588 5.82573 10.9492 5.60034C11.2143 5.44728 11.504 5.3746 11.7901 5.3746C12.3738 5.3746 12.9423 5.67732 13.2545 6.2181C13.7198 7.02398 13.4427 8.05817 12.6368 8.52343Z" fill="#F08200"/>
<path d="M10.2187 15.6874C10.0986 15.4794 9.83259 15.4081 9.62455 15.5282L8.62955 16.1027L8.02331 15.0527L9.13671 14.4098C9.34474 14.2898 9.41603 14.0237 9.2959 13.8157C9.17581 13.6077 8.90979 13.5364 8.70175 13.6565L7.21169 14.5168C7.00365 14.6369 6.93237 14.9029 7.0525 15.1109L9.17507 18.7874C9.25567 18.9269 9.40181 19.0049 9.55217 19.0049C9.62594 19.0049 9.70071 18.9861 9.76921 18.9466C9.97725 18.8265 10.0485 18.5605 9.92841 18.3524L9.0645 16.8561L10.0595 16.2816C10.2675 16.1615 10.3388 15.8955 10.2187 15.6874V15.6874Z" fill="#F08200"/>
<path d="M12.6744 14.8163L13.7326 14.2053C13.9407 14.0852 14.012 13.8192 13.8918 13.6112C13.7717 13.4031 13.5057 13.3318 13.2977 13.452L12.2395 14.063L11.6132 12.9781L12.7856 12.3012C12.9936 12.1811 13.0649 11.9151 12.9448 11.707C12.8246 11.499 12.5587 11.4278 12.3506 11.5478L10.8015 12.4422C10.5935 12.5623 10.5222 12.8283 10.6423 13.0363L12.7649 16.7128C12.8455 16.8523 12.9917 16.9303 13.142 16.9303C13.2158 16.9303 13.2906 16.9115 13.3591 16.872L14.9082 15.9776C15.1162 15.8575 15.1875 15.5915 15.0674 15.3835C14.9472 15.1755 14.6814 15.1041 14.4732 15.2243L13.3008 15.9012L12.6744 14.8163Z" fill="#F08200"/>
<path d="M16.5629 10.1217C16.7709 10.0016 16.8422 9.73562 16.7221 9.52758C16.602 9.31959 16.3361 9.2483 16.1279 9.36839L14.5788 10.2627C14.4789 10.3204 14.406 10.4154 14.3762 10.5268C14.3463 10.6383 14.3619 10.757 14.4196 10.8569L16.5422 14.5333C16.6228 14.6729 16.769 14.7509 16.9193 14.7508C16.9931 14.7508 17.0679 14.7321 17.1364 14.6925L18.6855 13.7982C18.8935 13.6781 18.9648 13.4121 18.8446 13.204C18.7245 12.996 18.4586 12.9247 18.2505 13.0448L17.0781 13.7217L16.4518 12.6368L17.5099 12.0259C17.718 11.9058 17.7893 11.6398 17.6691 11.4317C17.5491 11.2237 17.283 11.1524 17.075 11.2725L16.0168 11.8835L15.3905 10.7986L16.5629 10.1217Z" fill="#F08200"/>
<path d="M7.30995 4.88626C7.55017 4.88626 7.74491 4.69153 7.74491 4.45131C7.74491 4.21109 7.55017 4.01636 7.30995 4.01636C7.06973 4.01636 6.875 4.21109 6.875 4.45131C6.875 4.69153 7.06973 4.88626 7.30995 4.88626Z" fill="#F08200"/>
</svg>
