<svg width="40" height="40" viewBox="0 0 40 40" fill="none" xmlns="http://www.w3.org/2000/svg">
<circle cx="20" cy="20" r="20" fill="#F58220"/>
<path d="M16.5 19C15.5333 19 14.7083 18.6583 14.025 17.975C13.3417 17.2917 13 16.4667 13 15.5C13 14.5333 13.3417 13.7083 14.025 13.025C14.7083 12.3417 15.5333 12 16.5 12C17.4667 12 18.2917 12.3417 18.975 13.025C19.6583 13.7083 20 14.5333 20 15.5C20 16.4667 19.6583 17.2917 18.975 17.975C18.2917 18.6583 17.4667 19 16.5 19ZM16.5 17C16.9167 17 17.2707 16.854 17.562 16.562C17.854 16.2707 18 15.9167 18 15.5C18 15.0833 17.854 14.7293 17.562 14.438C17.2707 14.146 16.9167 14 16.5 14C16.0833 14 15.7293 14.146 15.438 14.438C15.146 14.7293 15 15.0833 15 15.5C15 15.9167 15.146 16.2707 15.438 16.562C15.7293 16.854 16.0833 17 16.5 17ZM25.5 28C24.5333 28 23.7083 27.6583 23.025 26.975C22.3417 26.2917 22 25.4667 22 24.5C22 23.5333 22.3417 22.7083 23.025 22.025C23.7083 21.3417 24.5333 21 25.5 21C26.4667 21 27.2917 21.3417 27.975 22.025C28.6583 22.7083 29 23.5333 29 24.5C29 25.4667 28.6583 26.2917 27.975 26.975C27.2917 27.6583 26.4667 28 25.5 28ZM25.5 26C25.9167 26 26.2707 25.854 26.562 25.562C26.854 25.2707 27 24.9167 27 24.5C27 24.0833 26.854 23.7293 26.562 23.438C26.2707 23.146 25.9167 23 25.5 23C25.0833 23 24.7293 23.146 24.438 23.438C24.146 23.7293 24 24.0833 24 24.5C24 24.9167 24.146 25.2707 24.438 25.562C24.7293 25.854 25.0833 26 25.5 26ZM13.7 27.3C13.5167 27.1167 13.425 26.8833 13.425 26.6C13.425 26.3167 13.5167 26.0833 13.7 25.9L26.9 12.7C27.0833 12.5167 27.3167 12.425 27.6 12.425C27.8833 12.425 28.1167 12.5167 28.3 12.7C28.4833 12.8833 28.575 13.1167 28.575 13.4C28.575 13.6833 28.4833 13.9167 28.3 14.1L15.1 27.3C14.9167 27.4833 14.6833 27.575 14.4 27.575C14.1167 27.575 13.8833 27.4833 13.7 27.3V27.3Z" fill="white"/>
</svg>
