<svg width="40" height="40" viewBox="0 0 40 40" fill="none" xmlns="http://www.w3.org/2000/svg">
<circle cx="20" cy="20" r="20" fill="#F58220"/>
<path d="M28 11V9H12V11H17.5C18.6037 11.0032 19.6676 11.4129 20.4884 12.1507C21.3092 12.8886 21.8296 13.9029 21.95 15H12V17H21.95C21.8296 18.0971 21.3092 19.1114 20.4884 19.8493C19.6676 20.5871 18.6037 20.9968 17.5 21H12V23.345L21.617 32L22.955 30.514L14.606 23H17.5C19.1361 22.9976 20.7112 22.3787 21.9113 21.2667C23.1113 20.1546 23.8482 18.6312 23.975 17H28V15H23.975C23.8603 13.4984 23.2255 12.0839 22.18 11H28Z" fill="white"/>
</svg>
