<svg width="40" height="40" viewBox="0 0 40 40" fill="none" xmlns="http://www.w3.org/2000/svg">
<circle cx="20" cy="20" r="20" fill="#F58220"/>
<g clip-path="url(#clip0_725_592)">
<path d="M23.5683 18.9326C23.6265 18.9907 23.6727 19.0597 23.7042 19.1356C23.7357 19.2115 23.7519 19.2929 23.7519 19.3751C23.7519 19.4573 23.7357 19.5388 23.7042 19.6147C23.6727 19.6906 23.6265 19.7596 23.5683 19.8176L19.8183 23.5676C19.7602 23.6258 19.6913 23.672 19.6153 23.7035C19.5394 23.735 19.458 23.7513 19.3758 23.7513C19.2936 23.7513 19.2122 23.735 19.1362 23.7035C19.0603 23.672 18.9913 23.6258 18.9333 23.5676L17.0583 21.6926C17.0002 21.6345 16.9541 21.5655 16.9226 21.4896C16.8912 21.4137 16.875 21.3323 16.875 21.2501C16.875 21.168 16.8912 21.0866 16.9226 21.0107C16.9541 20.9347 17.0002 20.8658 17.0583 20.8076C17.1756 20.6903 17.3348 20.6244 17.5008 20.6244C17.583 20.6244 17.6643 20.6405 17.7403 20.672C17.8162 20.7034 17.8852 20.7495 17.9433 20.8076L19.3758 22.2414L22.6833 18.9326C22.7413 18.8744 22.8103 18.8283 22.8862 18.7967C22.9622 18.7652 23.0436 18.749 23.1258 18.749C23.208 18.749 23.2894 18.7652 23.3653 18.7967C23.4413 18.8283 23.5102 18.8744 23.5683 18.9326V18.9326Z" fill="white"/>
<path d="M14.375 10C14.5408 10 14.6997 10.0658 14.8169 10.1831C14.9342 10.3003 15 10.4592 15 10.625V11.25H25V10.625C25 10.4592 25.0658 10.3003 25.1831 10.1831C25.3003 10.0658 25.4592 10 25.625 10C25.7908 10 25.9497 10.0658 26.0669 10.1831C26.1842 10.3003 26.25 10.4592 26.25 10.625V11.25H27.5C28.163 11.25 28.7989 11.5134 29.2678 11.9822C29.7366 12.4511 30 13.087 30 13.75V27.5C30 28.163 29.7366 28.7989 29.2678 29.2678C28.7989 29.7366 28.163 30 27.5 30H12.5C11.837 30 11.2011 29.7366 10.7322 29.2678C10.2634 28.7989 10 28.163 10 27.5V13.75C10 13.087 10.2634 12.4511 10.7322 11.9822C11.2011 11.5134 11.837 11.25 12.5 11.25H13.75V10.625C13.75 10.4592 13.8158 10.3003 13.9331 10.1831C14.0503 10.0658 14.2092 10 14.375 10V10ZM11.25 15V27.5C11.25 27.8315 11.3817 28.1495 11.6161 28.3839C11.8505 28.6183 12.1685 28.75 12.5 28.75H27.5C27.8315 28.75 28.1495 28.6183 28.3839 28.3839C28.6183 28.1495 28.75 27.8315 28.75 27.5V15H11.25Z" fill="white"/>
</g>
<defs>
<clipPath id="clip0_725_592">
<rect width="20" height="20" fill="white" transform="translate(10 10)"/>
</clipPath>
</defs>
</svg>
