<svg version="1.2" xmlns="http://www.w3.org/2000/svg" viewBox="0 0 59 63" width="59" height="63"><style>.a{fill:#f58220}</style><path fill-rule="evenodd" class="a" d="m11.6 6.2c4.1-2 10.7-4.3 18-4.3 7.1 0 13.5 2.2 17.5 4.2l0.3 0.1c1.2 0.6 2.2 1.1 2.8 1.6l-6 8.9c14 14.3 24.8 44.4-14.6 44.4-39.5 0-28.9-29.5-14.8-44.4l-6-8.9q0.7-0.5 1.7-1 0.5-0.3 1.1-0.6zm28.7 10.4l4.8-7.1c-4.5 0.3-9.9 1.3-15.1 2.8-3.7 1.1-7.8 1-11.6 0.2q-1.4-0.2-2.9-0.6l3.2 4.7c6.8 2.4 14.8 2.4 21.6 0zm-31.7 14.7c-2.3 4.6-3.4 9.1-3.2 13 0.2 3.7 1.7 6.9 5.1 9.3 3.6 2.4 9.5 4.2 19.1 4.2 9.5 0 15.4-1.8 19-4.3 3.3-2.4 4.8-5.6 5-9.4 0.2-3.9-1-8.4-3.2-13-2.2-4.3-4.9-8.2-8.2-11.7-8 3-17.5 3-25.4 0-3.2 3.4-6.1 7.6-8.2 11.9zm6.3-23q2 0.6 4.1 1c3.5 0.7 7.1 0.8 10.1-0.1q5.3-1.6 10.8-2.4c-3.1-1-6.6-1.6-10.3-1.6-5.7 0-11 1.5-14.7 3.1z"/><path class="a" d="m32 31.4c1 1 1.6 2.3 1.7 3.7h3.8v1.9h-3.8c-0.2 1.6-0.9 3-2 4.1-1.1 1-2.6 1.6-4.2 1.6h-2.7l7.9 7.1-1.3 1.5-9.1-8.3v-2.2h5.2c1.1 0 2.1-0.4 2.9-1.1 0.7-0.7 1.2-1.6 1.3-2.7h-9.4v-1.9h9.4c-0.1-1-0.6-2-1.3-2.7-0.8-0.7-1.8-1-2.9-1h-5.2v-1.9h15.2v1.9z"/></svg>