<svg width="60" height="60" viewBox="0 0 60 60" fill="none" xmlns="http://www.w3.org/2000/svg">
<path d="M40.1325 21.1463L21.1481 40.1307C20.8496 40.4253 20.447 40.5906 20.0275 40.5906C19.608 40.5906 19.2054 40.4253 18.9069 40.1307C18.7594 39.9837 18.6424 39.809 18.5625 39.6168C18.4827 39.4245 18.4416 39.2183 18.4416 39.0101C18.4416 38.8018 18.4827 38.5957 18.5625 38.4034C18.6424 38.2111 18.7594 38.0364 18.9069 37.8895L37.8913 18.9051C38.1885 18.6079 38.5916 18.4409 39.0119 18.4409C39.4322 18.4409 39.8353 18.6079 40.1325 18.9051C40.4297 19.2023 40.5967 19.6054 40.5967 20.0257C40.5967 20.446 40.4297 20.8491 40.1325 21.1463ZM18.9333 26.3934C18.0668 25.5296 17.5267 24.392 17.4051 23.1746C17.2835 21.9571 17.588 20.7352 18.2666 19.7171C18.9451 18.699 19.9559 17.9479 21.1264 17.5916C22.2969 17.2354 23.5547 17.2962 24.6854 17.7637C25.816 18.2311 26.7496 19.0763 27.3268 20.1551C27.904 21.2339 28.0892 22.4795 27.8508 23.6795C27.6124 24.8795 26.9651 25.9597 26.0193 26.7359C25.0735 27.5121 23.8877 27.9362 22.6642 27.9358C21.9715 27.9364 21.2855 27.8005 20.6453 27.5358C20.0051 27.2711 19.4234 26.8829 18.9333 26.3934ZM20.5549 22.6624C20.554 23.1505 20.7225 23.6237 21.0315 24.0015C21.3404 24.3793 21.7709 24.6382 22.2494 24.7342C22.728 24.8302 23.225 24.7573 23.6557 24.5278C24.0865 24.2984 24.4244 23.9267 24.6119 23.4761C24.7993 23.0255 24.8246 22.5238 24.6836 22.0565C24.5426 21.5893 24.2439 21.1854 23.8385 20.9137C23.433 20.642 22.9459 20.5193 22.4601 20.5666C21.9744 20.6138 21.52 20.828 21.1745 21.1727C20.9779 21.3677 20.8219 21.5998 20.7156 21.8555C20.6092 22.1112 20.5546 22.3855 20.5549 22.6624ZM41.6486 36.3733C41.6476 37.5933 41.2237 38.7752 40.449 39.7177C39.6744 40.6602 38.5969 41.3049 37.4002 41.5421C36.2035 41.7792 34.9616 41.5941 33.886 41.0182C32.8105 40.4424 31.9679 39.5114 31.5018 38.384C31.0357 37.2566 30.9749 36.0024 31.3298 34.8352C31.6847 33.6679 32.4333 32.6599 33.4481 31.9827C34.4629 31.3055 35.6811 31.0012 36.8951 31.1215C38.1092 31.2417 39.2439 31.7793 40.1061 32.6424C40.5957 33.1325 40.9839 33.7142 41.2485 34.3544C41.5132 34.9946 41.6491 35.6806 41.6486 36.3733ZM38.4845 36.3733C38.4848 36.0964 38.4302 35.8222 38.3238 35.5665C38.2174 35.3108 38.0615 35.0787 37.8649 34.8836C37.521 34.5423 37.0694 34.3307 36.5871 34.2847C36.1047 34.2388 35.6213 34.3614 35.2192 34.6316C34.817 34.9019 34.5209 35.3031 34.3812 35.7671C34.2415 36.2311 34.2668 36.7291 34.4529 37.1765C34.639 37.6239 34.9743 37.993 35.4018 38.221C35.8294 38.4491 36.3227 38.5219 36.7979 38.4273C37.2731 38.3326 37.7008 38.0762 38.0083 37.7018C38.3158 37.3273 38.4841 36.8579 38.4845 36.3733Z" fill="#F58220"/>
<circle cx="30" cy="30" r="28.5" stroke="#F58220" stroke-width="3"/>
</svg>
