<svg width="17" height="36" viewBox="0 0 17 36" fill="none" xmlns="http://www.w3.org/2000/svg">
<g clip-path="url(#clip0_428_1625)">
<path d="M15.4414 22.706C15.4242 22.5651 15.3557 22.4352 15.2487 22.341C15.1417 22.2469 15.0037 22.1949 14.8608 22.195H12.3515V19.9302C12.3515 19.7762 12.2899 19.6285 12.1803 19.5196C12.0707 19.4107 11.9221 19.3495 11.7671 19.3495H10.5631L11.467 14.8974L13.0256 15.7027C13.1102 15.7453 13.2035 15.7679 13.2983 15.7685C13.4218 15.7688 13.5421 15.7294 13.6412 15.6562C13.7289 15.5917 13.797 15.5045 13.8382 15.4042C13.8795 15.3038 13.8922 15.1942 13.875 15.0871L12.9944 10.1085L16.6376 6.58171C16.7144 6.50671 16.7689 6.41207 16.7951 6.30822C16.8212 6.20438 16.8179 6.09538 16.7856 5.99326C16.7519 5.89106 16.6897 5.80045 16.6063 5.73193C16.5228 5.66341 16.4215 5.61979 16.3142 5.60612L11.28 4.86282L9.02789 0.329427C8.96059 0.190937 8.84074 0.0846274 8.69465 0.0338229C8.54855 -0.0169816 8.38814 -0.00813183 8.24861 0.0584305C8.12998 0.116236 8.03404 0.21156 7.97586 0.329427L5.72374 4.86282L0.709072 5.60612C0.601698 5.61979 0.50042 5.66341 0.416976 5.73193C0.333533 5.80045 0.271341 5.89106 0.237608 5.99326C0.203744 6.09646 0.199666 6.20701 0.225837 6.3124C0.252008 6.41778 0.307379 6.51376 0.385671 6.58946L4.02881 10.1163L3.14822 15.091C3.13538 15.1668 3.1377 15.2443 3.15504 15.3192C3.17238 15.394 3.2044 15.4648 3.24927 15.5273C3.29415 15.5899 3.35099 15.643 3.41655 15.6838C3.48212 15.7245 3.55511 15.752 3.63137 15.7646C3.75657 15.7845 3.88487 15.7641 3.99763 15.7066L5.5562 14.9013L6.46016 19.365H5.23669C5.08168 19.365 4.93302 19.4262 4.82342 19.5351C4.71381 19.644 4.65223 19.7917 4.65223 19.9457V22.195H2.14295C2.00003 22.1949 1.86203 22.2469 1.75506 22.341C1.64808 22.4352 1.57953 22.5651 1.56238 22.706L0.00382362 35.3461C-0.00568984 35.4283 0.00259895 35.5116 0.0281352 35.5904C0.0536716 35.6692 0.0958649 35.7417 0.151887 35.8029C0.205776 35.8654 0.272748 35.9155 0.348125 35.9496C0.423501 35.9837 0.505463 36.001 0.588284 36.0004H16.4155C16.498 35.9998 16.5794 35.982 16.6546 35.9481C16.7297 35.9142 16.7968 35.865 16.8516 35.8037C16.9063 35.7424 16.9475 35.6703 16.9724 35.5921C16.9973 35.5139 17.0053 35.4314 16.996 35.35L15.4414 22.706ZM5.04577 9.47751L2.02995 6.55848L6.1991 5.95455C6.2929 5.94107 6.38199 5.90513 6.45869 5.84982C6.53539 5.79452 6.59741 5.72151 6.6394 5.6371L8.50187 1.89734L10.3644 5.64871C10.4063 5.73313 10.4684 5.80613 10.5451 5.86144C10.6218 5.91674 10.7109 5.95268 10.8046 5.96616L14.9738 6.5701L11.958 9.47751C11.8906 9.54375 11.8403 9.62509 11.8111 9.71468C11.782 9.80428 11.7749 9.89952 11.7904 9.9924L12.5035 14.1232L8.77462 12.1875C8.69109 12.1417 8.59726 12.1177 8.50187 12.1177C8.40649 12.1177 8.31266 12.1417 8.22913 12.1875L4.50027 14.1232L5.21331 9.99627C5.22888 9.9028 5.22181 9.80698 5.19267 9.71676C5.16353 9.62655 5.11317 9.54453 5.04577 9.47751ZM6.60433 14.3245L8.50187 13.3489L10.3877 14.3322L9.37077 19.365H7.63298L6.60433 14.3245ZM1.23509 34.8428L2.65727 23.3564H5.23669C5.3917 23.3564 5.54036 23.2952 5.64997 23.1863C5.75957 23.0774 5.82115 22.9297 5.82115 22.7757V20.5264H11.1826V22.7757C11.1826 22.9297 11.2442 23.0774 11.3538 23.1863C11.4634 23.2952 11.6121 23.3564 11.7671 23.3564H14.3465L15.757 34.8351L1.23509 34.8428Z" fill="#666666"/>
<path d="M12.2511 26.5848H4.75438C4.59937 26.5848 4.45071 26.646 4.34111 26.7549C4.2315 26.8638 4.16992 27.0115 4.16992 27.1655C4.16992 27.3196 4.2315 27.4673 4.34111 27.5762C4.45071 27.6851 4.59937 27.7463 4.75438 27.7463H12.2511C12.4061 27.7463 12.5547 27.6851 12.6643 27.5762C12.7739 27.4673 12.8355 27.3196 12.8355 27.1655C12.8355 27.0115 12.7739 26.8638 12.6643 26.7549C12.5547 26.646 12.4061 26.5848 12.2511 26.5848Z" fill="#F08200"/>
<path d="M12.2511 30.7698H4.75438C4.59937 30.7698 4.45071 30.831 4.34111 30.9399C4.2315 31.0488 4.16992 31.1965 4.16992 31.3505C4.16992 31.5045 4.2315 31.6522 4.34111 31.7611C4.45071 31.87 4.59937 31.9312 4.75438 31.9312H12.2511C12.4061 31.9312 12.5547 31.87 12.6643 31.7611C12.7739 31.6522 12.8355 31.5045 12.8355 31.3505C12.8355 31.1965 12.7739 31.0488 12.6643 30.9399C12.5547 30.831 12.4061 30.7698 12.2511 30.7698Z" fill="#F08200"/>
<path d="M12.2511 28.6831H4.75438C4.59937 28.6831 4.45071 28.7443 4.34111 28.8532C4.2315 28.9621 4.16992 29.1098 4.16992 29.2638C4.16992 29.4178 4.2315 29.5655 4.34111 29.6744C4.45071 29.7833 4.59937 29.8445 4.75438 29.8445H12.2511C12.4061 29.8445 12.5547 29.7833 12.6643 29.6744C12.7739 29.5655 12.8355 29.4178 12.8355 29.2638C12.8355 29.1098 12.7739 28.9621 12.6643 28.8532C12.5547 28.7443 12.4061 28.6831 12.2511 28.6831Z" fill="#F08200"/>
</g>
<defs>
<clipPath id="clip0_428_1625">
<rect width="17" height="36" fill="white"/>
</clipPath>
</defs>
</svg>
