<svg width="32" height="32" viewBox="0 0 32 32" fill="none" xmlns="http://www.w3.org/2000/svg">
<path d="M11.734 16C11.5972 16.0068 11.4683 16.066 11.374 16.1653C11.2797 16.2646 11.2272 16.3964 11.2273 16.5333L11.7607 26.432L10.694 27.4987L9.62732 26.432L10.1607 16.5333C10.1608 16.3964 10.1083 16.2646 10.014 16.1653C9.91967 16.066 9.79077 16.0068 9.65399 16C9.5796 15.9925 9.50448 16.0008 9.43348 16.0242C9.36249 16.0476 9.29721 16.0857 9.24189 16.136C9.18657 16.1863 9.14244 16.2477 9.11237 16.3161C9.0823 16.3846 9.06695 16.4586 9.06732 16.5333L8.53399 26.6667C8.52993 26.7413 8.5416 26.8159 8.56825 26.8858C8.59489 26.9556 8.63592 27.019 8.68866 27.072L10.2887 28.672C10.3382 28.722 10.3972 28.7617 10.4622 28.7887C10.5272 28.8158 10.5969 28.8298 10.6673 28.8298C10.7377 28.8298 10.8074 28.8158 10.8724 28.7887C10.9374 28.7617 10.9964 28.722 11.046 28.672L12.646 27.072C12.6987 27.019 12.7398 26.9556 12.7664 26.8858C12.793 26.8159 12.8047 26.7413 12.8007 26.6667L12.2673 16.5333C12.2673 16.3919 12.2111 16.2562 12.1111 16.1562C12.0111 16.0562 11.8754 16 11.734 16Z" fill="#666666"/>
<path d="M2.66667 27.7333H1.06667V19.0667C1.09138 18.6497 1.22376 18.2463 1.4509 17.8957C1.67805 17.5452 1.99219 17.2596 2.36267 17.0667L8.67733 14.3467C8.77274 14.305 8.85387 14.2364 8.91073 14.1492C8.96759 14.062 8.9977 13.9601 8.99733 13.856V11.9893C8.99705 11.8888 8.96836 11.7904 8.91457 11.7055C8.86079 11.6206 8.78409 11.5526 8.69333 11.5093C8.69333 11.5093 7.728 10.976 7.09333 8.77867C7.07185 8.69647 7.02961 8.62118 6.97067 8.56C6.689 8.21027 6.49352 7.79921 6.4 7.36C6.31793 7.07785 6.31793 6.77815 6.4 6.496C6.51117 6.4495 6.60331 6.36673 6.66142 6.26116C6.71953 6.1556 6.74018 6.03347 6.72 5.91467C6.61867 5.312 6.496 3.53067 7.12533 2.592C7.94667 1.38667 9.73867 1.06667 10.6667 1.06667C11.5947 1.06667 13.3867 1.38667 14.1867 2.592C14.8107 3.52533 14.6933 5.30667 14.592 5.91467C14.5731 6.03265 14.5944 6.15355 14.6524 6.258C14.7104 6.36244 14.8019 6.44438 14.912 6.49067C15.013 6.76944 15.0297 7.0718 14.96 7.36C14.8529 7.79474 14.6425 8.19723 14.3467 8.53333C14.2914 8.59916 14.2497 8.6753 14.224 8.75733C13.6107 10.9707 12.624 11.4773 12.656 11.4773C12.5606 11.519 12.4795 11.5876 12.4226 11.6748C12.3657 11.762 12.3356 11.8639 12.336 11.968V13.8667C12.3371 13.9704 12.3685 14.0716 12.4263 14.1578C12.4841 14.2441 12.5658 14.3115 12.6613 14.352L18.9707 17.0667C19.1239 17.1336 19.2659 17.2235 19.392 17.3333C19.488 17.4128 19.6087 17.4562 19.7333 17.456C19.8383 17.4515 19.9397 17.4161 20.0247 17.3543C20.1096 17.2924 20.1744 17.2068 20.2109 17.1082C20.2473 17.0096 20.2539 16.9025 20.2296 16.8002C20.2054 16.6979 20.1515 16.6051 20.0747 16.5333C19.8713 16.3597 19.643 16.2177 19.3973 16.112L13.4027 13.504V12.2667C13.856 11.9307 14.6667 11.0827 15.2213 9.16267C15.6042 8.69796 15.8727 8.14996 16.0053 7.56267C16.0858 7.25463 16.0993 6.93294 16.0451 6.61924C15.9908 6.30553 15.8699 6.0071 15.6907 5.744C15.7707 4.99733 15.8613 3.168 15.0773 2.01067C14.0907 0.533334 12.0853 0 10.6667 0C9.248 0 7.24267 0.533333 6.256 2C5.472 3.17867 5.56267 5.00267 5.64267 5.73333C5.46572 5.99649 5.34623 6.294 5.29201 6.60645C5.23779 6.9189 5.25006 7.23927 5.328 7.54667C5.46287 8.13317 5.73115 8.68069 6.112 9.14667C6.672 11.0667 7.48267 11.9093 7.93067 12.2453V13.472L1.936 16.112C1.37703 16.3844 0.90204 16.8027 0.561254 17.3228C0.220468 17.8429 0.0265492 18.4454 0 19.0667V28.2667C0 28.4081 0.0561904 28.5438 0.15621 28.6438C0.256229 28.7438 0.391885 28.8 0.533333 28.8H2.66667C2.80812 28.8 2.94377 28.7438 3.04379 28.6438C3.14381 28.5438 3.2 28.4081 3.2 28.2667C3.2 28.1252 3.14381 27.9896 3.04379 27.8895C2.94377 27.7895 2.80812 27.7333 2.66667 27.7333Z" fill="#666666"/>
<path d="M31.5562 20.9067L26.0308 19.9413L23.4015 14.9867C23.3558 14.902 23.288 14.8313 23.2054 14.782C23.1228 14.7327 23.0284 14.7067 22.9322 14.7067C22.8359 14.7067 22.7415 14.7327 22.6589 14.782C22.5763 14.8313 22.5085 14.902 22.4628 14.9867L19.8335 19.9413L14.3082 20.9067C14.2126 20.9231 14.1233 20.9653 14.05 21.0287C13.9766 21.092 13.9219 21.1742 13.8917 21.2664C13.8615 21.3585 13.8571 21.4571 13.8788 21.5516C13.9004 21.6461 13.9475 21.7329 14.0148 21.8027L17.9188 25.8347L17.1295 31.392C17.1201 31.4863 17.1359 31.5815 17.1755 31.6676C17.215 31.7538 17.2768 31.8278 17.3545 31.8822C17.4322 31.9365 17.523 31.9691 17.6175 31.9767C17.712 31.9843 17.8068 31.9666 17.8922 31.9253L22.9322 29.4773L27.9722 31.9467C28.0453 31.9821 28.1256 32.0003 28.2068 32C28.3198 32.0004 28.43 31.9649 28.5215 31.8987C28.6042 31.8394 28.6683 31.7577 28.7061 31.6632C28.7439 31.5687 28.7539 31.4653 28.7348 31.3653L27.9455 25.8347L31.8495 21.808C31.9162 21.7385 31.9628 21.6522 31.9844 21.5583C32.006 21.4644 32.0018 21.3664 31.9722 21.2747C31.9433 21.181 31.8892 21.0972 31.8158 21.0323C31.7425 20.9673 31.6526 20.9239 31.5562 20.9067ZM26.9962 25.28C26.9395 25.3387 26.897 25.4096 26.8721 25.4873C26.8471 25.5649 26.8403 25.6473 26.8522 25.728L27.5348 30.528L23.1668 28.3947C23.0938 28.3589 23.0135 28.3403 22.9322 28.3403C22.8508 28.3403 22.7705 28.3589 22.6975 28.3947L18.3295 30.528L19.0122 25.728C19.024 25.6473 19.0172 25.5649 18.9922 25.4873C18.9673 25.4096 18.9248 25.3387 18.8682 25.28L15.4655 21.7867L20.2655 20.9493C20.3456 20.9351 20.4213 20.9026 20.487 20.8546C20.5526 20.8065 20.6064 20.7441 20.6442 20.672L22.9322 16.3733L25.2095 20.672C25.2473 20.7441 25.301 20.8065 25.3667 20.8546C25.4323 20.9026 25.5081 20.9351 25.5882 20.9493L30.3882 21.7867L26.9962 25.28Z" fill="#666666"/>
<path d="M31.5569 8.44265L28.9223 7.99998L27.6689 5.63731C27.6232 5.55265 27.5555 5.48192 27.4728 5.43262C27.3902 5.38333 27.2958 5.3573 27.1996 5.3573C27.1034 5.3573 27.0089 5.38333 26.9263 5.43262C26.8437 5.48192 26.7759 5.55265 26.7302 5.63731L25.4769 7.99998L22.8423 8.46398C22.7471 8.48029 22.6581 8.52215 22.5848 8.58508C22.5115 8.64802 22.4567 8.72967 22.4262 8.82131C22.3966 8.913 22.3924 9.01101 22.414 9.10491C22.4356 9.19882 22.4822 9.28512 22.5489 9.35465L24.4102 11.2746L24.0369 13.9413C24.0179 14.0413 24.0278 14.1447 24.0656 14.2392C24.1034 14.3337 24.1675 14.4154 24.2503 14.4746C24.327 14.529 24.4168 14.562 24.5105 14.5704C24.6041 14.5789 24.6983 14.5624 24.7836 14.5226L27.1996 13.2853L29.5996 14.464C29.6734 14.4974 29.7532 14.5155 29.8343 14.5173C29.9472 14.5177 30.0574 14.4822 30.1489 14.416C30.2317 14.3567 30.2957 14.275 30.3335 14.1805C30.3713 14.086 30.3813 13.9826 30.3622 13.8826L29.9889 11.216L31.8502 9.29598C31.917 9.22646 31.9636 9.14016 31.9852 9.04625C32.0068 8.95234 32.0026 8.85434 31.9729 8.76265C31.937 8.67797 31.8799 8.604 31.807 8.54794C31.7341 8.49187 31.648 8.4556 31.5569 8.44265ZM29.0396 10.704C28.9829 10.7627 28.9405 10.8336 28.9155 10.9112C28.8905 10.9889 28.8837 11.0713 28.8956 11.152L29.1676 13.0613L27.4342 12.2133C27.362 12.175 27.2814 12.155 27.1996 12.155C27.1178 12.155 27.0372 12.175 26.9649 12.2133L25.2316 13.0613L25.5036 11.152C25.5154 11.0713 25.5086 10.9889 25.4837 10.9112C25.4587 10.8336 25.4163 10.7627 25.3596 10.704L23.9996 9.31731L25.9036 8.98665C25.9837 8.97236 26.0594 8.93994 26.1251 8.89188C26.1907 8.84381 26.2445 8.78136 26.2822 8.70931L27.1996 7.00798L28.1009 8.70931C28.1392 8.782 28.1938 8.84484 28.2604 8.89295C28.327 8.94106 28.4039 8.97312 28.4849 8.98665L30.3836 9.31731L29.0396 10.704Z" fill="#666666"/>
<path d="M24.534 2.69337C24.5043 2.60073 24.4499 2.51797 24.3766 2.45404C24.3032 2.39012 24.2138 2.34746 24.118 2.3307L22.2087 2.00003L21.2967 0.2827C21.251 0.198032 21.1832 0.127304 21.1006 0.078008C21.018 0.0287123 20.9236 0.00268555 20.8273 0.00268555C20.7311 0.00268555 20.6367 0.0287123 20.5541 0.078008C20.4715 0.127304 20.4037 0.198032 20.358 0.2827L19.446 2.00003L17.5367 2.3307C17.4411 2.34714 17.3519 2.38931 17.2785 2.45268C17.2051 2.51606 17.1504 2.59823 17.1202 2.69038C17.0901 2.78252 17.0856 2.88115 17.1073 2.97564C17.129 3.07014 17.176 3.15694 17.2433 3.2267L18.5927 4.62403L18.3207 6.54403C18.3112 6.63836 18.3271 6.7335 18.3667 6.81966C18.4062 6.90581 18.468 6.97987 18.5457 7.0342C18.6234 7.08852 18.7142 7.12116 18.8087 7.12875C18.9032 7.13634 18.998 7.1186 19.0833 7.07737L20.8007 6.24537L22.5447 7.0987C22.6178 7.13412 22.6981 7.15237 22.7793 7.15203C22.8923 7.15244 23.0025 7.11695 23.094 7.0507C23.1722 6.99358 23.2334 6.91623 23.271 6.82697C23.3086 6.73771 23.3211 6.6399 23.3073 6.54403L23.0353 4.62403L24.3847 3.23203C24.457 3.16485 24.5092 3.07893 24.5356 2.98383C24.5619 2.88873 24.5614 2.78818 24.534 2.69337ZM22.1127 4.06937C22.056 4.12805 22.0136 4.19896 21.9886 4.27663C21.9636 4.35429 21.9568 4.43665 21.9687 4.51737L22.134 5.69603L21.0673 5.1627C20.9943 5.12691 20.914 5.1083 20.8327 5.1083C20.7513 5.1083 20.6711 5.12691 20.598 5.1627L19.5313 5.69603L19.6967 4.51737C19.7085 4.43665 19.7017 4.35429 19.6768 4.27663C19.6518 4.19896 19.6093 4.12805 19.5527 4.06937L18.6673 3.20003L19.846 2.99203C19.9256 2.97833 20.001 2.94672 20.0666 2.8996C20.1322 2.85248 20.1863 2.79108 20.2247 2.72003L20.758 1.65337L21.2913 2.72003C21.3297 2.79108 21.3838 2.85248 21.4494 2.8996C21.515 2.94672 21.5904 2.97833 21.67 2.99203L22.934 3.20003L22.1127 4.06937Z" fill="#F08200"/>
</svg>
