<svg width="32" height="32" viewBox="0 0 32 32" fill="none" xmlns="http://www.w3.org/2000/svg">
<path d="M18.7363 13.9143C18.8105 13.6637 18.8508 13.4042 18.8563 13.1429C18.8563 12.3851 18.5553 11.6584 18.0195 11.1226C17.4836 10.5868 16.7569 10.2858 15.9992 10.2858C15.2414 10.2858 14.5147 10.5868 13.9789 11.1226C13.443 11.6584 13.142 12.3851 13.142 13.1429C13.1475 13.4042 13.1879 13.6637 13.262 13.9143C12.724 14.1206 12.2609 14.4848 11.9336 14.959C11.6062 15.4332 11.4299 15.9953 11.4277 16.5715V18.8572C11.4277 19.3119 11.6083 19.7479 11.9298 20.0694C12.2513 20.3909 12.6874 20.5715 13.142 20.5715H18.8563C19.311 20.5715 19.747 20.3909 20.0685 20.0694C20.39 19.7479 20.5706 19.3119 20.5706 18.8572V16.5715C20.5684 15.9953 20.3921 15.4332 20.0648 14.959C19.7374 14.4848 19.2743 14.1206 18.7363 13.9143ZM15.9992 11.4286C16.3382 11.4286 16.6697 11.5292 16.9516 11.7175C17.2335 11.9059 17.4532 12.1736 17.583 12.4869C17.7127 12.8001 17.7467 13.1448 17.6805 13.4774C17.6144 13.8099 17.4511 14.1153 17.2113 14.3551C16.9716 14.5948 16.6661 14.7581 16.3336 14.8243C16.0011 14.8904 15.6564 14.8565 15.3431 14.7267C15.0299 14.597 14.7622 14.3772 14.5738 14.0953C14.3854 13.8134 14.2849 13.482 14.2849 13.1429C14.2849 12.6883 14.4655 12.2522 14.787 11.9307C15.1085 11.6092 15.5445 11.4286 15.9992 11.4286ZM19.4277 18.8572C19.4277 19.0087 19.3675 19.1541 19.2604 19.2613C19.1532 19.3684 19.0079 19.4286 18.8563 19.4286H13.142C12.9905 19.4286 12.8451 19.3684 12.738 19.2613C12.6308 19.1541 12.5706 19.0087 12.5706 18.8572V16.5715C12.5711 16.203 12.6903 15.8445 12.9106 15.5491C13.1308 15.2537 13.4404 15.0371 13.7934 14.9315C14.0233 15.2217 14.3081 15.4637 14.6316 15.6438C14.9551 15.8239 15.3109 15.9384 15.6787 15.9809C16.0465 16.0233 16.419 15.9929 16.775 15.8912C17.131 15.7896 17.4635 15.6188 17.7534 15.3886C17.922 15.2553 18.0737 15.1017 18.2049 14.9315C18.5579 15.0371 18.8675 15.2537 19.0877 15.5491C19.308 15.8445 19.4272 16.203 19.4277 16.5715V18.8572Z" fill="#F08200"/>
<path d="M16.5712 26.3429V22.2858C16.5712 22.1342 16.511 21.9889 16.4038 21.8817C16.2966 21.7746 16.1513 21.7144 15.9997 21.7144C15.8482 21.7144 15.7028 21.7746 15.5957 21.8817C15.4885 21.9889 15.4283 22.1342 15.4283 22.2858V26.3429C14.7346 26.4845 14.1181 26.8787 13.6985 27.449C13.2788 28.0193 13.0859 28.7251 13.1571 29.4295C13.2282 30.134 13.5584 30.7869 14.0836 31.2617C14.6089 31.7366 15.2917 31.9995 15.9997 31.9995C16.7078 31.9995 17.3906 31.7366 17.9158 31.2617C18.441 30.7869 18.7712 30.134 18.8424 29.4295C18.9136 28.7251 18.7206 28.0193 18.301 27.449C17.8813 26.8787 17.2649 26.4845 16.5712 26.3429ZM15.9997 30.8572C15.6607 30.8572 15.3292 30.7567 15.0473 30.5683C14.7654 30.3799 14.5457 30.1122 14.4159 29.799C14.2862 29.4857 14.2522 29.141 14.3184 28.8085C14.3845 28.4759 14.5478 28.1705 14.7875 27.9307C15.0273 27.691 15.3327 27.5277 15.6653 27.4616C15.9978 27.3954 16.3425 27.4294 16.6558 27.5591C16.969 27.6889 17.2367 27.9086 17.4251 28.1905C17.6135 28.4724 17.714 28.8039 17.714 29.1429C17.714 29.5976 17.5334 30.0336 17.2119 30.3551C16.8904 30.6766 16.4544 30.8572 15.9997 30.8572Z" fill="#666666"/>
<path d="M5.65656 16.5714H9.7137C9.86525 16.5714 10.0106 16.5112 10.1178 16.404C10.2249 16.2969 10.2851 16.1515 10.2851 16C10.2851 15.8484 10.2249 15.7031 10.1178 15.5959C10.0106 15.4887 9.86525 15.4285 9.7137 15.4285H5.65656C5.51495 14.7348 5.1208 14.1184 4.55051 13.6987C3.98022 13.2791 3.27443 13.0861 2.56997 13.1573C1.86552 13.2285 1.21257 13.5587 0.737739 14.0839C0.262903 14.6091 0 15.2919 0 16C0 16.708 0.262903 17.3908 0.737739 17.9161C1.21257 18.4413 1.86552 18.7715 2.56997 18.8426C3.27443 18.9138 3.98022 18.7209 4.55051 18.3012C5.1208 17.8816 5.51495 17.2651 5.65656 16.5714ZM2.85656 17.7143C2.51751 17.7143 2.18607 17.6137 1.90415 17.4253C1.62224 17.237 1.40252 16.9692 1.27277 16.656C1.14302 16.3428 1.10907 15.9981 1.17521 15.6655C1.24136 15.333 1.40463 15.0275 1.64438 14.7878C1.88412 14.548 2.18958 14.3848 2.52212 14.3186C2.85466 14.2525 3.19934 14.2864 3.51259 14.4162C3.82583 14.5459 4.09357 14.7657 4.28194 15.0476C4.4703 15.3295 4.57085 15.6609 4.57085 16C4.57085 16.4546 4.39023 16.8907 4.06874 17.2122C3.74725 17.5336 3.31122 17.7143 2.85656 17.7143Z" fill="#666666"/>
<path d="M25.1419 9.71429C25.707 9.71429 26.2594 9.54672 26.7292 9.23277C27.1991 8.91883 27.5653 8.4726 27.7815 7.95053C27.9978 7.42845 28.0544 6.85398 27.9441 6.29974C27.8339 5.74551 27.5618 5.23642 27.1622 4.83684C26.7626 4.43726 26.2535 4.16514 25.6993 4.0549C25.1451 3.94466 24.5706 4.00124 24.0485 4.21749C23.5264 4.43374 23.0802 4.79995 22.7663 5.2698C22.4523 5.73966 22.2847 6.29206 22.2847 6.85714C22.2822 7.47575 22.483 8.07805 22.8562 8.57143L20.1362 11.6343C20.0438 11.749 19.9993 11.8949 20.0119 12.0416C20.0244 12.1883 20.0932 12.3244 20.2037 12.4217C20.3142 12.519 20.458 12.5698 20.6052 12.5637C20.7523 12.5575 20.8913 12.4948 20.9933 12.3886L23.7133 9.33143C24.147 9.58374 24.6401 9.7159 25.1419 9.71429ZM25.1419 5.14286C25.4809 5.14286 25.8124 5.2434 26.0943 5.43177C26.3762 5.62014 26.5959 5.88787 26.7257 6.20112C26.8554 6.51436 26.8894 6.85905 26.8232 7.19159C26.7571 7.52412 26.5938 7.82958 26.3541 8.06933C26.1143 8.30908 25.8089 8.47234 25.4763 8.53849C25.1438 8.60464 24.7991 8.57069 24.4859 8.44094C24.1726 8.31119 23.9049 8.09146 23.7165 7.80955C23.5281 7.52764 23.4276 7.1962 23.4276 6.85714C23.4276 6.40249 23.6082 5.96645 23.9297 5.64496C24.2512 5.32347 24.6872 5.14286 25.1419 5.14286Z" fill="#666666"/>
<path d="M25.143 22.2858C24.584 22.2868 24.0377 22.4517 23.5715 22.7601L22.1201 21.3087C22.0125 21.2011 21.8666 21.1406 21.7144 21.1406C21.5622 21.1406 21.4163 21.2011 21.3087 21.3087C21.2011 21.4163 21.1406 21.5622 21.1406 21.7144C21.1406 21.8666 21.2011 22.0125 21.3087 22.1201L22.7601 23.5715C22.4102 24.1029 22.2476 24.736 22.2982 25.3702C22.3488 26.0045 22.6097 26.6037 23.0395 27.0729C23.4693 27.5421 24.0434 27.8544 24.6708 27.9603C25.2982 28.0662 25.943 27.9596 26.503 27.6574C27.063 27.3553 27.5061 26.8749 27.7621 26.2923C28.018 25.7098 28.0722 25.0585 27.916 24.4417C27.7599 23.8249 27.4023 23.2778 26.8999 22.8873C26.3976 22.4968 25.7792 22.2851 25.143 22.2858ZM25.143 26.8573C24.8039 26.8573 24.4725 26.7567 24.1906 26.5683C23.9086 26.38 23.6889 26.1122 23.5592 25.799C23.4294 25.4857 23.3955 25.1411 23.4616 24.8085C23.5278 24.476 23.691 24.1705 23.9308 23.9308C24.1705 23.691 24.476 23.5278 24.8085 23.4616C25.1411 23.3955 25.4857 23.4294 25.799 23.5592C26.1122 23.6889 26.38 23.9086 26.5683 24.1906C26.7567 24.4725 26.8572 24.8039 26.8572 25.143C26.8572 25.5976 26.6766 26.0337 26.3551 26.3551C26.0337 26.6766 25.5976 26.8573 25.143 26.8573Z" fill="#666666"/>
<path d="M29.1434 13.1428C28.4848 13.1427 27.8463 13.3701 27.336 13.7866C26.8258 14.2032 26.4751 14.7832 26.3434 15.4285H22.2863C22.1347 15.4285 21.9894 15.4887 21.8822 15.5959C21.775 15.7031 21.7148 15.8484 21.7148 16C21.7148 16.1515 21.775 16.2969 21.8822 16.404C21.9894 16.5112 22.1347 16.5714 22.2863 16.5714H26.3434C26.4515 17.1011 26.7077 17.5892 27.0822 17.9791C27.4566 18.369 27.934 18.6446 28.4589 18.774C28.9837 18.9034 29.5346 18.8813 30.0473 18.7102C30.5601 18.539 31.0138 18.2259 31.3558 17.8072C31.6977 17.3885 31.9139 16.8814 31.9791 16.3447C32.0443 15.8081 31.956 15.264 31.7243 14.7755C31.4926 14.2871 31.1272 13.8744 30.6703 13.5854C30.2135 13.2964 29.684 13.1429 29.1434 13.1428ZM29.1434 17.7143C28.8044 17.7143 28.4729 17.6137 28.191 17.4253C27.9091 17.237 27.6894 16.9692 27.5596 16.656C27.4299 16.3427 27.3959 15.9981 27.4621 15.6655C27.5282 15.333 27.6915 15.0275 27.9312 14.7878C28.171 14.548 28.4764 14.3848 28.809 14.3186C29.1415 14.2525 29.4862 14.2864 29.7994 14.4162C30.1127 14.5459 30.3804 14.7656 30.5688 15.0476C30.7572 15.3295 30.8577 15.6609 30.8577 16C30.8577 16.4546 30.6771 16.8907 30.3556 17.2121C30.0341 17.5336 29.5981 17.7143 29.1434 17.7143Z" fill="#666666"/>
<path d="M15.4283 5.65717V8.57146C15.4283 8.72301 15.4885 8.86835 15.5957 8.97552C15.7028 9.08268 15.8482 9.14289 15.9997 9.14289C16.1513 9.14289 16.2966 9.08268 16.4038 8.97552C16.511 8.86835 16.5712 8.72301 16.5712 8.57146V5.65717C17.2649 5.51556 17.8813 5.12141 18.301 4.55112C18.7206 3.98083 18.9136 3.27504 18.8424 2.57059C18.7712 1.86613 18.441 1.21319 17.9158 0.738349C17.3906 0.263513 16.7078 0.000610352 15.9997 0.000610352C15.2917 0.000610352 14.6089 0.263513 14.0836 0.738349C13.5584 1.21319 13.2282 1.86613 13.1571 2.57059C13.0859 3.27504 13.2788 3.98083 13.6985 4.55112C14.1181 5.12141 14.7346 5.51556 15.4283 5.65717ZM15.9997 1.14288C16.3388 1.14288 16.6702 1.24343 16.9521 1.43179C17.234 1.62016 17.4538 1.8879 17.5835 2.20114C17.7133 2.51439 17.7472 2.85907 17.6811 3.19161C17.6149 3.52415 17.4517 3.82961 17.2119 4.06935C16.9722 4.3091 16.6667 4.47237 16.3342 4.53852C16.0016 4.60466 15.6569 4.57071 15.3437 4.44096C15.0305 4.31121 14.7627 4.09149 14.5743 3.80958C14.386 3.52766 14.2854 3.19622 14.2854 2.85717C14.2854 2.40251 14.4661 1.96648 14.7875 1.64499C15.109 1.3235 15.5451 1.14288 15.9997 1.14288Z" fill="#666666"/>
<path d="M9.88006 21.3087L8.42863 22.7601C7.83779 22.3703 7.1233 22.2137 6.42358 22.3206C5.72387 22.4275 5.08875 22.7904 4.6413 23.3389C4.19386 23.8874 3.96593 24.5824 4.0017 25.2893C4.03746 25.9963 4.33437 26.6648 4.83489 27.1653C5.3354 27.6658 6.0039 27.9627 6.71083 27.9985C7.41777 28.0342 8.11281 27.8063 8.66128 27.3589C9.20976 26.9114 9.57262 26.2763 9.67955 25.5766C9.78648 24.8769 9.62986 24.1624 9.24006 23.5715L10.6915 22.1201C10.7991 22.0125 10.8595 21.8666 10.8595 21.7144C10.8595 21.5622 10.7991 21.4163 10.6915 21.3087C10.5839 21.2011 10.4379 21.1406 10.2858 21.1406C10.1336 21.1406 9.98766 21.2011 9.88006 21.3087ZM6.8572 26.8572C6.51814 26.8572 6.18671 26.7567 5.90479 26.5683C5.62288 26.38 5.40315 26.1122 5.2734 25.799C5.14365 25.4857 5.10971 25.1411 5.17585 24.8085C5.242 24.476 5.40527 24.1705 5.64502 23.9308C5.88476 23.691 6.19022 23.5278 6.52276 23.4616C6.8553 23.3955 7.19998 23.4294 7.51323 23.5592C7.82647 23.6889 8.09421 23.9086 8.28258 24.1906C8.47094 24.4725 8.57149 24.8039 8.57149 25.143C8.57149 25.5976 8.39087 26.0337 8.06938 26.3551C7.74789 26.6766 7.31186 26.8572 6.8572 26.8572Z" fill="#666666"/>
<path d="M11.8057 12.4286C11.9193 12.3285 11.9884 12.1874 11.9981 12.0364C12.0077 11.8853 11.957 11.7366 11.8571 11.6229L9.14286 8.57143C9.51603 8.07805 9.71679 7.47575 9.71429 6.85714C9.71429 6.29205 9.54672 5.73966 9.23277 5.2698C8.91883 4.79995 8.4726 4.43374 7.95053 4.21749C7.42845 4.00124 6.85398 3.94466 6.29974 4.0549C5.74551 4.16514 5.23642 4.43726 4.83684 4.83684C4.43726 5.23642 4.16514 5.74551 4.0549 6.29974C3.94466 6.85397 4.00124 7.42845 4.21749 7.95053C4.43374 8.4726 4.79995 8.91883 5.2698 9.23277C5.73966 9.54672 6.29206 9.71429 6.85714 9.71429C7.35801 9.71142 7.8491 9.57533 8.28 9.32L11 12.3771C11.1001 12.4907 11.2412 12.5599 11.3922 12.5695C11.5433 12.5791 11.692 12.5285 11.8057 12.4286ZM5.14286 6.85714C5.14286 6.51809 5.2434 6.18665 5.43177 5.90474C5.62014 5.62283 5.88787 5.4031 6.20112 5.27335C6.51436 5.1436 6.85905 5.10965 7.19159 5.1758C7.52412 5.24194 7.82958 5.40521 8.06933 5.64496C8.30908 5.88471 8.47234 6.19017 8.53849 6.5227C8.60464 6.85524 8.57069 7.19993 8.44094 7.51317C8.31119 7.82642 8.09146 8.09415 7.80955 8.28252C7.52764 8.47089 7.1962 8.57143 6.85714 8.57143C6.40249 8.57143 5.96645 8.39082 5.64496 8.06933C5.32347 7.74784 5.14286 7.3118 5.14286 6.85714Z" fill="#666666"/>
</svg>
