<svg width="572" height="469" viewBox="0 0 572 469" fill="none" xmlns="http://www.w3.org/2000/svg">
<path style="mix-blend-mode:screen" d="M570.663 418.976L570.802 419.162L570.584 419.22L527.225 115.376L242.494 1.05363L1.10166 190.415L44.4562 494.16L329.239 608.469L570.704 418.921L570.843 419.106L571.061 419.048L571.123 419.277L329.261 609.009L44.0411 494.484L0.612446 190.212L242.393 0.467667L527.623 114.99L571.008 419.14L570.79 419.199L570.663 418.976ZM248.17 11.0032L248.031 10.8175L12.3737 190.382L50.0847 484.381L323.522 598.742L559.293 419.102L521.59 125.09L248.132 10.7348L248.017 10.7655L248.156 10.9512L248.065 11.1538L521.175 125.413L558.801 418.888L323.461 598.223L50.4977 484.092L12.8525 190.588L248.306 11.1785L248.17 11.0032ZM253.898 21.2731L253.759 21.0874L24.135 190.552L56.0942 474.277L317.794 588.472L547.537 418.908L515.57 135.197L253.87 21.002L253.759 21.0874L253.898 21.2731L253.807 21.4757L515.147 135.533L547.05 418.715L317.73 587.943L56.5233 474.006L24.6138 190.758L254.034 21.4484L253.898 21.2731ZM259.626 31.543L259.498 31.3545L35.8934 190.712L62.117 464.18L312.053 578.194L535.747 418.757L509.547 145.294L259.587 31.2303L259.487 31.3129L259.615 31.5015L259.524 31.7041L509.116 145.599L535.286 418.534L312.002 577.673L62.562 463.927L36.3778 190.939L259.765 31.7288L259.626 31.543ZM265.365 41.8102L265.236 41.6217L47.6547 190.883L68.1286 454.042L306.314 567.927L524.041 418.583L503.509 155.372L265.337 41.539L265.236 41.6217L265.365 41.8102L265.264 42.0156L503.062 155.704L523.504 418.37L306.274 567.403L68.6332 453.762L48.1287 191.112L265.493 41.9987L265.365 41.8102ZM271.093 52.0801L270.961 51.8812L59.4159 191.053L74.1701 443.973L300.586 557.657L512.257 418.452L497.473 165.506L271.078 51.8166L270.953 51.85L271.084 52.0489L270.983 52.2543L497.047 165.787L511.783 418.222L300.546 557.133L74.6068 443.689L59.8816 191.252L271.213 52.2374L271.084 52.0489L270.983 52.2543L271.093 52.0801ZM276.821 62.3501L276.7 62.1484L71.1744 191.213L80.1901 433.866L294.848 547.39L500.477 418.253L491.461 175.6L276.816 62.0837L276.692 62.1172L276.813 62.3189L276.709 62.5139L491.006 175.856L500.01 418.01L294.817 546.818L80.6399 433.59L71.6436 191.466L276.949 62.5386L276.821 62.3501ZM282.559 72.6172L282.438 72.4155L82.9357 191.384L86.2337 423.764L289.109 537.123L488.718 418.093L485.441 185.707L282.555 72.3509L282.43 72.3843L282.551 72.586L282.437 72.7838L484.988 185.973L488.259 417.837L289.1 536.59L86.6759 423.501L83.4048 191.637L282.667 72.8113L282.559 72.6172ZM288.287 82.8871L288.177 82.6827L94.7073 191.551L92.2433 413.66L283.371 526.856L476.957 417.922L479.418 195.804L288.293 82.618L288.169 82.6515L288.279 82.8559L288.165 83.0538L478.914 196.084L476.506 417.653L283.372 526.32L92.6986 413.404L95.1585 191.821L288.395 83.0812L288.287 82.8871ZM294.016 93.1571L293.957 92.9387L106.466 191.711L98.266 403.563L277.63 516.578L465.178 417.768L473.388 205.914L294.021 92.888L293.907 92.9186L293.966 93.137L293.849 93.3244L472.919 206.162L464.745 417.483L277.644 516.05L98.7346 403.315L106.909 191.994L294.115 93.32L294.004 93.1155L293.887 93.3029L294.016 93.1571ZM299.754 103.424L299.644 103.22L118.227 191.882L104.244 393.467L271.891 506.311L453.427 417.595L467.409 216.01L299.763 103.166L299.638 103.199L299.748 103.403L299.611 103.596L466.899 216.224L452.99 417.255L271.929 505.744L104.799 393.207L118.697 192.179L299.854 103.631L299.796 103.413L299.658 103.606L299.754 103.424ZM305.479 113.684L305.421 113.465L130.038 192.028L110.316 383.346L266.121 496.052L441.634 417.433L461.327 226.133L305.512 113.43L305.376 113.466L305.435 113.685L305.294 113.867L460.858 226.337L441.237 417.116L266.201 495.518L110.793 383.129L130.424 192.348L305.593 113.899L305.534 113.68L305.394 113.863L305.479 113.684ZM311.207 123.954L311.149 123.735L141.775 192.193L116.336 373.239L260.422 485.808L429.908 417.309L455.329 236.279L311.261 123.694L311.136 123.728L311.194 123.946L311.054 124.129L454.819 236.416L429.486 416.942L260.515 485.237L116.829 373.04L142.178 192.531L311.3 124.174L311.241 123.956L311.101 124.138L311.207 123.954ZM316.936 134.224L316.885 134.036L153.536 192.364L122.377 363.126L254.673 475.499L418.149 417.104L449.308 246.342L317 134.006L316.875 134.039L316.934 134.258L316.79 134.43L448.791 246.536L417.733 416.759L254.741 474.923L122.865 362.951L153.929 192.705L317.018 134.447L316.959 134.228L316.816 134.401L316.936 134.224ZM322.674 144.491L322.616 144.272L165.287 192.493L128.387 353.022L248.942 465.219L406.387 416.934L443.288 256.449L322.73 144.242L322.605 144.275L322.664 144.494L322.507 144.658L442.789 256.583L405.979 416.575L249.04 464.713L128.891 352.864L165.682 192.888L322.738 144.73L322.68 144.512L322.523 144.676L322.674 144.491ZM146.074 354.881L243.183 454.957L394.587 416.785L437.237 266.565L328.44 154.528L328.305 154.564L328.363 154.782L328.194 154.939L436.693 266.699L394.228 416.402L243.323 454.44L134.927 342.775L177.426 193.075L328.463 154.99L328.405 154.771L328.346 154.553L177.033 192.689L134.407 342.915L137.944 346.548M137.944 346.548L146.045 354.9ZM334.144 165.083L334.086 164.864L188.831 192.872L140.492 332.801L237.489 444.689L382.884 416.622L431.222 276.693L334.223 164.794L334.098 164.827L334.157 165.046L333.984 165.192L430.764 276.771L382.54 416.212L237.673 444.172L140.976 332.694L189.176 193.248L334.181 165.262L334.134 165.085L333.961 165.232L334.144 165.083Z" fill="url(#paint0_radial_5247_5138)"/>
<defs>
<radialGradient id="paint0_radial_5247_5138" cx="0" cy="0" r="1" gradientUnits="userSpaceOnUse" gradientTransform="translate(235.426 87.4982) rotate(-15) scale(386.749 386.749)">
<stop stop-color="#ECB42F"/>
<stop offset="0.88" stop-color="#F08200" stop-opacity="0.18"/>
</radialGradient>
</defs>
</svg>
