<svg version="1.2" xmlns="http://www.w3.org/2000/svg" viewBox="0 0 512 512" width="512" height="512"><style>.s0{fill:#becbda}</style><path fill-rule="evenodd" class="s0" d="m256 0c141.3 0 256 114.7 256 256c0 141.3-114.7 256-256 256c-141.3 0-256-114.7-256-256c0-141.3 114.7-256 256-256zm0 96c-43.5 0-48.9 0.2-66 1c-17 0.7-28.6 3.4-38.8 7.4c-10.5 4.1-19.5 9.6-28.3 18.5c-8.9 8.8-14.4 17.8-18.5 28.3c-4 10.2-6.7 21.8-7.4 38.8c-0.8 17.1-1 22.5-1 66c0 43.5 0.2 48.9 1 66c0.7 17 3.4 28.6 7.4 38.8c4.1 10.5 9.6 19.5 18.5 28.3c8.8 8.9 17.8 14.4 28.3 18.5c10.2 4 21.8 6.7 38.8 7.4c17.1 0.8 22.5 1 66 1c43.5 0 48.9-0.2 66-1c17-0.7 28.6-3.4 38.8-7.4c10.5-4.1 19.5-9.6 28.3-18.5c8.9-8.8 14.4-17.8 18.5-28.3c4-10.2 6.7-21.8 7.4-38.8c0.8-17.1 1-22.5 1-66c0-43.5-0.2-48.9-1-66c-0.7-17-3.4-28.6-7.4-38.8c-4.1-10.5-9.6-19.5-18.5-28.3c-8.8-8.9-17.8-14.4-28.3-18.5c-10.2-4-21.8-6.7-38.8-7.4c-17.1-0.8-22.5-1-66-1zm0 28.8c42.7 0 47.8 0.2 64.7 1c15.6 0.7 24 3.3 29.7 5.5c7.4 2.9 12.8 6.3 18.4 11.9c5.6 5.6 9 11 11.9 18.4c2.2 5.7 4.8 14.1 5.5 29.7c0.8 16.9 1 22 1 64.7c0 42.7-0.2 47.8-1 64.7c-0.7 15.6-3.3 24-5.5 29.7c-2.9 7.4-6.3 12.8-11.9 18.4c-5.6 5.6-11 9-18.4 11.9c-5.7 2.2-14.1 4.8-29.7 5.5c-16.9 0.8-22 1-64.7 1c-42.7 0-47.8-0.2-64.7-1c-15.6-0.7-24-3.3-29.7-5.5c-7.4-2.9-12.8-6.3-18.4-11.9c-5.6-5.6-9-11-11.9-18.4c-2.2-5.7-4.8-14.1-5.5-29.7c-0.8-16.9-1-22-1-64.7c0-42.7 0.2-47.8 1-64.7c0.7-15.6 3.3-24 5.5-29.7c2.9-7.4 6.3-12.8 11.9-18.4c5.6-5.6 11-9 18.4-11.9c5.7-2.2 14.1-4.8 29.7-5.5c16.9-0.8 22-1 64.7-1zm0 49c-45.4 0-82.2 36.8-82.2 82.2c0 45.4 36.8 82.2 82.2 82.2c45.4 0 82.2-36.8 82.2-82.2c0-45.4-36.8-82.2-82.2-82.2zm0 135.5c-29.5 0-53.3-23.8-53.3-53.3c0-29.5 23.8-53.3 53.3-53.3c29.5 0 53.3 23.8 53.3 53.3c0 29.5-23.8 53.3-53.3 53.3zm85.4-157.9c-10.6 0-19.2 8.6-19.2 19.2c0 10.6 8.6 19.2 19.2 19.2c10.6 0 19.2-8.6 19.2-19.2c0-10.6-8.6-19.2-19.2-19.2z" /></svg>