<svg version="1.2" xmlns="http://www.w3.org/2000/svg" viewBox="0 0 32 32" width="32" height="32"><style>.s0{fill:#becbda}.s1{fill:#eceef3}</style><path class="s0" d="m16 32c-8.8 0-16-7.2-16-16c0-8.8 7.2-16 16-16c8.8 0 16 7.2 16 16c0 8.8-7.2 16-16 16z" /><path class="s1" d="m7 11h4v14h-4z" /><path class="s1" d="m25 18v7h-4v-8c0-1.3-0.7-2-2-2c-1.3 0-2 0.7-2 2v8h-4v-14h4v2c0.2-1 0.7-2 3.5-2c4 0 4.5 3 4.5 7z" /><path class="s1" d="m9 10c-1.1 0-2-0.9-2-2c0-1.1 0.9-2 2-2c1.1 0 2 0.9 2 2c0 1.1-0.9 2-2 2z" /></svg>