<svg id="Layer_1" data-name="Layer 1" xmlns="http://www.w3.org/2000/svg" viewBox="0 0 512 512"><defs><style>.cls-1{fill:#becbda;fill-rule:evenodd;}.cls-2{fill:#fff;}</style></defs><path class="cls-1" d="M256,0C397.3,0,512,114.7,512,256S397.3,512,256,512,0,397.3,0,256,114.7,0,256,0Z"/><path class="cls-2" d="M256,139a749.21,749.21,0,0,0-106.76,8.05,46.37,46.37,0,0,0-39.13,37.29A399.62,399.62,0,0,0,103.9,256a399.53,399.53,0,0,0,6.21,71.66A46.33,46.33,0,0,0,149.24,365,756.83,756.83,0,0,0,256,373,753.29,753.29,0,0,0,362.76,365a46.31,46.31,0,0,0,39.13-37.29A400.93,400.93,0,0,0,408.1,256a396.28,396.28,0,0,0-6.21-71.66A46.39,46.39,0,0,0,362.76,147,752.59,752.59,0,0,0,256,139Zm0,23.4a737.8,737.8,0,0,1,103.47,7.68,23,23,0,0,1,19.38,18.65A373.69,373.69,0,0,1,384.7,256a374.06,374.06,0,0,1-5.85,67.27,22.89,22.89,0,0,1-19.38,18.65A742.73,742.73,0,0,1,256,349.6a741.82,741.82,0,0,1-103.47-7.68,22.95,22.95,0,0,1-19.38-18.65A373.22,373.22,0,0,1,127.3,256a372.85,372.85,0,0,1,5.85-67.27,22.95,22.95,0,0,1,19.38-18.65A737.15,737.15,0,0,1,256,162.4Zm-35.1,26.69V322.92l17.55-9.87,81.9-46.8L337.9,256l-17.55-10.24L238.45,199Zm23.4,40.22L290.74,256,244.3,282.69Z"/></svg>