<?xml version="1.0" encoding="utf-8"?>
<!-- Generator: Adobe Illustrator 24.1.2, SVG Export Plug-In . SVG Version: 6.00 Build 0)  -->
<svg version="1.1" id="Layer_1" xmlns="http://www.w3.org/2000/svg" xmlns:xlink="http://www.w3.org/1999/xlink" x="0px" y="0px"
	 viewBox="0 0 24 24" style="enable-background:new 0 0 24 24;" xml:space="preserve">
<style type="text/css">
	.st0{fill:#FFFFFF;}
</style>
<path class="st0" d="M7.8,10.8c0.6,0,1.2-0.2,1.7-0.5c0.5-0.3,0.9-0.8,1.1-1.3c0.2-0.5,0.3-1.2,0.2-1.7c-0.1-0.6-0.4-1.1-0.8-1.5
	c-0.4-0.4-1-0.7-1.5-0.8C7.8,4.7,7.2,4.8,6.6,5s-1,0.6-1.3,1.1C4.9,6.6,4.8,7.2,4.8,7.8c0,0.8,0.3,1.6,0.9,2.1
	C6.2,10.4,7,10.8,7.8,10.8L7.8,10.8z M7.8,6.8c0.2,0,0.4,0.1,0.6,0.2s0.3,0.3,0.4,0.4C8.8,7.6,8.8,7.8,8.7,8c0,0.2-0.1,0.4-0.3,0.5
	C8.3,8.6,8.1,8.7,8,8.7c-0.2,0-0.4,0-0.6-0.1C7.2,8.6,7,8.5,6.9,8.3S6.8,8,6.8,7.8c0-0.3,0.1-0.5,0.3-0.7C7.2,6.9,7.5,6.8,7.8,6.8
	L7.8,6.8z M16.2,13.2c-0.6,0-1.2,0.2-1.7,0.5c-0.5,0.3-0.9,0.8-1.1,1.3c-0.2,0.5-0.3,1.2-0.2,1.7c0.1,0.6,0.4,1.1,0.8,1.5
	c0.4,0.4,1,0.7,1.5,0.8c0.6,0.1,1.2,0.1,1.7-0.2c0.5-0.2,1-0.6,1.3-1.1c0.3-0.5,0.5-1.1,0.5-1.7c0-0.8-0.3-1.6-0.9-2.1
	C17.8,13.6,17,13.2,16.2,13.2L16.2,13.2z M16.2,17.2c-0.2,0-0.4-0.1-0.6-0.2c-0.2-0.1-0.3-0.3-0.4-0.4c-0.1-0.2-0.1-0.4-0.1-0.6
	s0.1-0.4,0.3-0.5c0.1-0.1,0.3-0.2,0.5-0.3c0.2,0,0.4,0,0.6,0.1c0.2,0.1,0.3,0.2,0.4,0.4c0.1,0.2,0.2,0.4,0.2,0.6
	c0,0.3-0.1,0.5-0.3,0.7C16.8,17.1,16.5,17.2,16.2,17.2z M19.7,4.3C19.5,4.1,19.3,4,19,4c-0.3,0-0.5,0.1-0.7,0.3l-14,14
	c-0.1,0.1-0.2,0.2-0.2,0.3S4,18.9,4,19c0,0.1,0,0.3,0.1,0.4c0.1,0.1,0.1,0.2,0.2,0.3c0.1,0.1,0.2,0.2,0.3,0.2C4.7,20,4.9,20,5,20
	c0.1,0,0.3,0,0.4-0.1c0.1-0.1,0.2-0.1,0.3-0.2l14-14C19.9,5.5,20,5.3,20,5S19.9,4.5,19.7,4.3L19.7,4.3z"/>
</svg>
