<svg width="40" height="40" viewBox="0 0 40 40" fill="none" xmlns="http://www.w3.org/2000/svg">
<rect width="40" height="40" rx="4" fill="#F08200"/>
<path d="M10.6734 7.03286L10.6174 7.06029V7.06113C10.4398 7.14857 10.2727 7.23465 10.1163 7.31878C9.76723 7.50472 9.47396 7.68032 9.24216 7.83185L9.15695 7.88755L9.21417 7.97176L12.1412 12.2785C10.4163 14.1054 8.80399 16.3721 7.65045 18.7495C6.48503 21.1513 5.78439 23.673 5.91574 25.9715C6.04734 28.2744 7.01454 30.351 9.17672 31.8483C11.3343 33.3425 14.6721 34.2531 19.5337 34.2531C24.3956 34.2531 27.7247 33.3256 29.87 31.81C32.0197 30.2912 32.9703 28.1893 33.0875 25.87C33.2045 23.555 32.4916 21.025 31.3211 18.6357C30.163 16.2719 28.5537 14.0388 26.8436 12.2777L29.7891 7.97201L29.8462 7.88853L29.762 7.83237C29.4192 7.60353 28.9342 7.32283 28.3352 7.02656L28.3345 7.02624L28.2228 6.97198C26.237 6.00796 23.0471 4.9 19.5337 4.9C15.9455 4.9 12.6696 6.05591 10.6734 7.03286ZM26.9868 8.8451L24.7281 12.1472C21.4331 13.3098 17.5438 13.3099 14.2496 12.1456L12.8608 10.1008C13.2443 10.1952 13.6305 10.2784 14.0188 10.3504L14.0189 10.3504C15.9021 10.6977 17.9439 10.78 19.7866 10.2477L19.7866 10.2477C22.254 9.5333 24.8121 9.02147 26.9868 8.8451ZM7.73162 25.868L7.73162 25.868C7.6236 23.9878 8.19984 21.7838 9.28642 19.5437C10.3123 17.4297 11.7403 15.3929 13.2773 13.7266C17.1664 15.2095 21.8201 15.2095 25.7091 13.7247C27.3096 15.4215 28.6498 17.3465 29.6858 19.4367C30.7762 21.6612 31.3654 23.8765 31.2693 25.778C31.1767 27.608 30.4591 29.1646 28.8187 30.3241C27.1035 31.536 24.2026 32.4333 19.5329 32.4333C14.8581 32.4333 11.9431 31.5513 10.2115 30.3527C8.55891 29.2075 7.83453 27.6725 7.73162 25.868ZM19.2798 8.49902C17.8102 8.92469 16.0813 8.87984 14.3484 8.56067C13.761 8.45192 13.1806 8.31335 12.6194 8.15464C14.4164 7.42223 16.8911 6.71975 19.5329 6.71975C21.1813 6.71975 22.7594 6.99352 24.1449 7.37734C22.5033 7.65865 20.879 8.03313 19.2798 8.49902Z" fill="white" stroke="white" stroke-width="0.2"/>
<path d="M22.9217 20.0152H23.0717V19.8652V19V18.85H22.9217H16H15.85V19V19.8652V20.0152H16H18.3791C18.8197 20.0166 19.2443 20.1801 19.5719 20.4746C19.8576 20.7314 20.0521 21.0722 20.1291 21.4457H16H15.85V21.5957V22.4609V22.6109H16H20.1291C20.0521 22.9843 19.8576 23.3251 19.5719 23.5819C19.2443 23.8764 18.8197 24.0399 18.3792 24.0413H16H15.85V24.1913V25.2058V25.2726L15.8997 25.3173L20.0601 29.0615L20.1715 29.1618L20.2719 29.0504L20.8507 28.4075L20.9511 28.296L20.8396 28.1956L17.5183 25.2065L18.3793 25.2065L18.3796 25.2065C19.1251 25.2054 19.8428 24.9234 20.3897 24.4167C20.9024 23.9416 21.2296 23.3016 21.316 22.6109H22.9217H23.0717V22.4609V21.5957V21.4457H22.9217H21.3162C21.2515 20.9242 21.0487 20.4305 20.7306 20.0152H22.9217Z" fill="white" stroke="white" stroke-width="0.3"/>
</svg>
