<svg width="35" height="32" viewBox="0 0 35 32" fill="none" xmlns="http://www.w3.org/2000/svg">
<path d="M8.884 22C8.628 22 8.432 21.932 8.296 21.796C8.16 21.66 8.092 21.472 8.092 21.232C8.092 20.984 8.16 20.796 8.296 20.668C8.432 20.54 8.628 20.476 8.884 20.476H10.096V15.064H10.972L9.22 16.132C9.036 16.244 8.864 16.288 8.704 16.264C8.552 16.24 8.42 16.172 8.308 16.06C8.196 15.948 8.12 15.816 8.08 15.664C8.048 15.504 8.064 15.348 8.128 15.196C8.192 15.036 8.312 14.9 8.488 14.788L10.156 13.78C10.324 13.676 10.492 13.592 10.66 13.528C10.836 13.464 11.008 13.432 11.176 13.432C11.416 13.432 11.604 13.496 11.74 13.624C11.884 13.744 11.956 13.932 11.956 14.188V20.476H13.048C13.296 20.476 13.488 20.54 13.624 20.668C13.76 20.796 13.828 20.984 13.828 21.232C13.828 21.48 13.76 21.672 13.624 21.808C13.488 21.936 13.296 22 13.048 22H8.884ZM18.3473 21.844C18.2513 22.004 18.1353 22.108 17.9993 22.156C17.8633 22.212 17.7273 22.224 17.5913 22.192C17.4553 22.16 17.3393 22.096 17.2433 22C17.1553 21.896 17.0993 21.772 17.0753 21.628C17.0513 21.484 17.0873 21.332 17.1833 21.172L21.4913 13.708C21.5873 13.54 21.7033 13.428 21.8393 13.372C21.9753 13.316 22.1073 13.308 22.2353 13.348C22.3713 13.38 22.4873 13.448 22.5833 13.552C22.6793 13.648 22.7393 13.768 22.7633 13.912C22.7873 14.056 22.7513 14.208 22.6553 14.368L18.3473 21.844ZM16.8353 18.58C16.1393 18.58 15.5993 18.348 15.2153 17.884C14.8313 17.412 14.6393 16.78 14.6393 15.988C14.6393 15.452 14.7233 14.992 14.8913 14.608C15.0673 14.224 15.3193 13.928 15.6473 13.72C15.9833 13.512 16.3793 13.408 16.8353 13.408C17.5233 13.408 18.0593 13.644 18.4433 14.116C18.8353 14.58 19.0313 15.204 19.0313 15.988C19.0313 16.516 18.9433 16.976 18.7673 17.368C18.5993 17.752 18.3513 18.052 18.0233 18.268C17.6953 18.476 17.2993 18.58 16.8353 18.58ZM16.8353 17.428C16.9953 17.428 17.1273 17.38 17.2313 17.284C17.3433 17.18 17.4273 17.024 17.4833 16.816C17.5473 16.6 17.5793 16.324 17.5793 15.988C17.5793 15.484 17.5113 15.124 17.3753 14.908C17.2473 14.684 17.0673 14.572 16.8353 14.572C16.6753 14.572 16.5393 14.62 16.4273 14.716C16.3153 14.812 16.2313 14.964 16.1753 15.172C16.1193 15.372 16.0913 15.644 16.0913 15.988C16.0913 16.5 16.1553 16.868 16.2833 17.092C16.4113 17.316 16.5953 17.428 16.8353 17.428ZM23.0153 22.132C22.3193 22.132 21.7793 21.896 21.3953 21.424C21.0113 20.952 20.8193 20.32 20.8193 19.528C20.8193 19 20.9073 18.544 21.0833 18.16C21.2593 17.776 21.5113 17.48 21.8393 17.272C22.1673 17.064 22.5593 16.96 23.0153 16.96C23.7033 16.96 24.2393 17.192 24.6233 17.656C25.0153 18.12 25.2113 18.744 25.2113 19.528C25.2113 20.056 25.1233 20.516 24.9473 20.908C24.7793 21.3 24.5313 21.604 24.2033 21.82C23.8753 22.028 23.4793 22.132 23.0153 22.132ZM23.0153 20.968C23.1753 20.968 23.3073 20.92 23.4113 20.824C23.5233 20.728 23.6073 20.572 23.6633 20.356C23.7273 20.14 23.7593 19.864 23.7593 19.528C23.7593 19.024 23.6913 18.664 23.5553 18.448C23.4273 18.224 23.2473 18.112 23.0153 18.112C22.8553 18.112 22.7193 18.16 22.6073 18.256C22.5033 18.352 22.4193 18.504 22.3553 18.712C22.2993 18.92 22.2713 19.192 22.2713 19.528C22.2713 20.048 22.3353 20.42 22.4633 20.644C22.5913 20.86 22.7753 20.968 23.0153 20.968Z" fill="white"/>
<path d="M5.97303e-05 16.0001C5.97303e-05 7.17746 7.38168 0 16.457 0C23.432 0 29.6257 4.30188 31.9483 10.5997L33.6318 10.616C34.4987 10.6202 34.8143 11.1982 34.3383 11.9014L31.6397 17.2992C31.1602 18.0029 30.3858 17.9975 29.9157 17.29L26.3011 11.8492C25.8294 11.142 26.1549 10.5664 27.0217 10.571L28.7535 10.5811C26.5964 5.95734 21.8075 2.87378 16.458 2.87378C9.01329 2.87378 2.95708 8.7629 2.95708 15.9999C2.95708 23.2368 9.01309 29.128 16.458 29.128C20.3443 29.128 24.0423 27.4974 26.6076 24.6567C27.1455 24.0594 28.0799 24.0002 28.6911 24.524C29.3059 25.0486 29.3678 25.9566 28.8307 26.5527C25.7039 30.0162 21.195 32 16.4579 32C7.38172 32.0004 0 24.8242 0 15.9999" fill="white"/>
</svg>
