<svg width="40" height="40" viewBox="0 0 40 40" fill="none" xmlns="http://www.w3.org/2000/svg">
<rect width="40" height="40" rx="4" fill="#F08200"/>
<path d="M26.5141 18.6167C26.0333 17.9314 25.2033 17.5218 24.311 17.5424L24.3109 17.5423L24.3048 17.5427C23.8599 17.5713 23.464 17.6663 23.0991 17.8748C22.6194 17.1911 21.7921 16.7818 20.9021 16.8004C20.7164 16.7905 20.5064 16.8322 20.3213 16.8782L20.2201 13.1258C20.2125 11.6492 18.9205 10.5031 17.4866 10.5269C16.7888 10.5328 16.0744 10.853 15.6146 11.3657L15.6146 11.3657C15.1597 11.8728 14.8802 12.5654 14.9161 13.2814L15.1929 21.6697C14.7809 21.2549 14.2146 20.9032 13.6227 20.6431C12.88 20.3166 12.0738 20.1241 11.4413 20.1393C11.2746 20.1305 11.0992 20.169 10.9818 20.2694C10.424 20.6774 10.0274 21.2965 9.87713 21.9764L9.87697 21.9763L9.87577 21.9833C9.75458 22.6871 9.91823 23.3908 10.307 23.9797L10.3069 23.9798L10.3089 23.9826L16.6624 33.1459C16.6625 33.1461 16.6627 33.1462 16.6628 33.1464C17.1891 33.9198 17.8361 34.5338 18.5455 35.0036L18.5231 35.0063L18.9147 35.2324C20.5682 36.187 22.6123 36.3833 24.5901 35.8039L24.5915 35.8034C27.3851 34.9559 30.2347 32.409 30.3276 28.5755L30.3276 28.575L30.4898 20.9053L30.4899 20.9053L30.4898 20.9009C30.4841 20.2044 30.2064 19.5544 29.7142 19.0667L29.7142 19.0667L29.7128 19.0654C29.1918 18.5616 28.469 18.2657 27.7256 18.2843L27.7256 18.2842L27.7198 18.2845C27.2749 18.3131 26.8789 18.4081 26.5141 18.6167ZM11.4237 22.2676L11.424 22.2677L11.4257 22.2577C11.4626 22.0352 11.5615 21.8468 11.709 21.6799C12.1184 21.7175 12.6249 21.8726 13.0956 22.0909C13.5892 22.3199 14.0209 22.6079 14.2527 22.8791L15.2854 24.6575C15.4748 25.0105 15.8971 25.1036 16.1979 24.9928L16.198 24.9932L16.2081 24.9886C16.5155 24.8489 16.7149 24.5881 16.7363 24.2314L16.7369 24.2314L16.7365 24.2177L16.3932 13.3006C16.3991 13.0006 16.5193 12.7301 16.7231 12.4983C16.9215 12.2726 17.2035 12.1353 17.4974 12.1403L17.4974 12.1405L17.5059 12.1402C18.1687 12.1137 18.6625 12.6028 18.6779 13.2218L18.6779 13.2218L18.678 13.2228L18.837 18.2698C18.8366 18.6046 19.0314 18.857 19.3264 18.9815L19.3371 18.986L19.3483 18.9888C19.6259 19.0584 19.9401 19.0071 20.1745 18.7649L20.1747 18.7651L20.181 18.7576C20.3968 18.5034 20.6783 18.368 20.9702 18.3729L20.9711 18.3729C21.5153 18.3789 22.0057 18.7684 22.1045 19.2965L22.1041 19.2965L22.1071 19.3078C22.1827 19.5895 22.3932 19.8012 22.7041 19.89L22.7123 19.8923L22.7207 19.8937C22.8865 19.9213 23.0401 19.9045 23.1786 19.8442C23.3161 19.7843 23.4296 19.6855 23.5226 19.5626L23.5227 19.5627L23.5267 19.5568C23.7491 19.2319 24.061 19.0482 24.4174 19.0568L24.4174 19.0568L24.4194 19.0568C24.9637 19.0628 25.4541 19.4523 25.5528 19.9804L25.5524 19.9805L25.5554 19.9917C25.6311 20.2734 25.8415 20.4851 26.1524 20.5739L26.1606 20.5763L26.169 20.5777C26.3348 20.6053 26.4885 20.5884 26.6269 20.5281C26.7644 20.4683 26.8779 20.3694 26.9709 20.2465L26.971 20.2467L26.9751 20.2408C27.1969 19.9167 27.5077 19.7331 27.8631 19.7407C28.2071 19.7619 28.489 19.861 28.7229 20.097L28.7228 20.0971L28.728 20.1019C28.9232 20.281 29.0336 20.5441 29.0187 20.7931L29.0186 20.7931L29.0185 20.7992L28.8685 28.5143L28.8685 28.5153C28.8308 31.5589 26.5041 33.5932 24.2508 34.2931C22.3006 34.8628 19.6188 34.6509 17.9536 32.2338L17.9533 32.2334L11.6 23.0705C11.4506 22.8436 11.3565 22.5517 11.4237 22.2676Z" fill="white" stroke="white" stroke-width="0.3"/>
<path d="M8.76721 13.8729L8.76717 13.8729L8.76723 13.8762C8.77133 14.1149 8.88776 14.3372 9.08386 14.4504C9.20048 14.5178 9.3043 14.5242 9.3788 14.5288C9.38071 14.5289 9.3826 14.529 9.38447 14.5292L9.38447 14.5293L9.39061 14.5294L13.2625 14.6127L13.2625 14.6127L13.265 14.6127C13.6062 14.6143 13.9199 14.3476 13.9216 13.9868C13.9231 13.646 13.6571 13.3327 13.297 13.3303L9.42627 13.247L9.42627 13.247L9.42374 13.247C9.08254 13.2454 8.76885 13.5122 8.76721 13.8729Z" fill="white" stroke="white" stroke-width="0.3"/>
<path d="M21.2594 14.1307L21.2594 14.1307L21.2594 14.134C21.2635 14.3728 21.38 14.595 21.5761 14.7082C21.6631 14.7585 21.7933 14.782 21.877 14.787L21.877 14.7871L21.8828 14.7872L25.7547 14.8705L25.7547 14.8705L25.7572 14.8705C26.0984 14.8721 26.4121 14.6054 26.4138 14.2446C26.4153 13.9038 26.1493 13.5905 25.7892 13.5881L21.9185 13.5048L21.9185 13.5048L21.9159 13.5048C21.5747 13.5032 21.261 13.77 21.2594 14.1307Z" fill="white" stroke="white" stroke-width="0.3"/>
<path d="M20.4427 10.3315C20.1655 10.5644 20.1531 10.9884 20.3879 11.2417C20.4101 11.2846 20.442 11.3143 20.4629 11.3315C20.4922 11.3556 20.5228 11.3733 20.5372 11.3816L20.5387 11.3825C20.7927 11.5291 21.1066 11.5125 21.3334 11.2929C21.3334 11.2929 21.3334 11.2929 21.3334 11.2929L24.1155 8.60106C24.3991 8.36283 24.4055 7.92443 24.1535 7.67355C23.9137 7.38991 23.4729 7.38548 23.2232 7.64129L20.4427 10.3315Z" fill="white" stroke="white" stroke-width="0.3"/>
<path d="M16.7376 9.2597L16.7382 9.25969L16.6274 5.39083L16.6273 5.38586L16.6274 5.38586C16.629 5.03704 16.8984 4.74972 17.2564 4.71512L16.7376 9.2597ZM16.7376 9.2597L16.7392 9.27337M16.7376 9.2597L16.7392 9.27337M16.7392 9.27337C16.7636 9.47537 16.8784 9.69202 17.0714 9.80343C17.1651 9.85754 17.2573 9.87379 17.3332 9.88717C17.3498 9.8901 17.3656 9.89288 17.3805 9.8959L17.4024 9.90035L17.4247 9.8982C17.7827 9.8636 18.0522 9.57628 18.0538 9.22746L18.0538 9.22746L18.0537 9.22249L17.9429 5.35363L17.9433 5.35362M16.7392 9.27337L17.9433 5.35362M17.9433 5.35362L17.9423 5.3435M17.9433 5.35362L17.9423 5.3435M17.9423 5.3435C17.9095 5.00407 17.6492 4.67715 17.2564 4.71512L17.9423 5.3435Z" fill="white" stroke="white" stroke-width="0.3"/>
<path d="M13.7086 10.8926L13.7214 10.9048L13.7367 10.9136L13.852 10.9802C14.1089 11.1285 14.4447 11.0806 14.6254 10.8662C14.8719 10.6069 14.8533 10.2013 14.6004 9.95657L14.6004 9.95656L14.5992 9.95545L11.7919 7.29715C11.5328 7.04706 11.1245 7.06461 10.8786 7.31875L10.8786 7.31875C10.6279 7.57786 10.6453 7.98657 10.8996 8.23268L10.8996 8.23269L10.9008 8.2338L13.7086 10.8926Z" fill="white" stroke="white" stroke-width="0.3"/>
</svg>
