<svg width="30" height="29" viewBox="0 0 30 29" fill="none" xmlns="http://www.w3.org/2000/svg">
<path d="M7.6933 13.6698L7.75989 13.6661C7.85234 13.8357 8.03222 13.9505 8.2387 13.9505H20.9175C21.2184 13.9505 21.4625 13.7064 21.4625 13.4055V9.09409V9.09388V9.09367V4.78376C21.4625 4.4822 21.2182 4.2388 20.9175 4.2388H19.3742V1.45717C19.3742 1.06705 19.0571 0.75 18.667 0.75H10.3938C10.004 0.75 9.68625 1.06676 9.68625 1.45717V6.34499H8.23637C7.93546 6.34499 7.69141 6.58903 7.69141 6.88995V9.09308C7.69141 9.10457 7.69217 9.11507 7.6933 9.12435V13.4055V13.6698ZM20.3725 12.8605H8.78403V9.63904H20.3725V12.8605ZM20.3725 5.32865V8.54843H19.3744V5.32865H20.3725ZM10.7768 1.84024H18.2845V8.54918H10.7768V1.84024ZM8.78193 7.43505H9.68645V8.54827H8.78193V7.43505Z" fill="#EFEFEF" stroke="white" stroke-width="0.5"/>
<path d="M15.0198 5.3942V5.22529C15.0212 5.2253 15.0227 5.2253 15.0241 5.2253H17.8134C18.1143 5.2253 18.3583 4.98126 18.3583 4.68034C18.3583 4.37944 18.1143 4.13538 17.8134 4.13538H15.0241C15.0227 4.13538 15.0212 4.13539 15.0198 4.1354V3.11368C15.0212 3.11369 15.0227 3.1137 15.0241 3.1137H17.8134C18.1143 3.1137 18.3583 2.86966 18.3583 2.56874C18.3583 2.26718 18.1141 2.02378 17.8134 2.02378H15.0241C14.9837 2.02378 14.9448 2.0282 14.9077 2.03647C14.7818 1.84071 14.562 1.71094 14.3122 1.71094H11.3365C10.9465 1.71094 10.6289 2.02784 10.6289 2.41852L10.6289 5.3942L10.6289 5.39462C10.6296 5.78432 10.9463 6.10136 11.3365 6.10136H14.3122C14.702 6.10136 15.0198 5.78461 15.0198 5.3942ZM11.7192 2.8013H13.9294V5.01145H11.7192V2.8013Z" fill="#EFEFEF" stroke="white" stroke-width="0.5"/>
<path d="M7.97262 20.3203H1.45717C1.0669 20.3203 0.75 20.6377 0.75 21.0277V27.5429C0.75 27.933 1.06705 28.2501 1.45717 28.2501H7.97241C8.36223 28.2501 8.68 27.9333 8.68 27.5429V21.0277C8.68 20.6378 8.3632 20.3205 7.97295 20.3203C7.97284 20.3203 7.97273 20.3203 7.97262 20.3203ZM7.59041 27.1603H1.84069V21.4106H7.59041V27.1603Z" fill="#EFEFEF" stroke="white" stroke-width="0.5"/>
<path d="M17.9137 20.3203H17.6637V20.3205H11.399C11.0092 20.3205 10.6914 20.6373 10.6914 21.0277V27.5429C10.6914 27.9332 11.0086 28.2501 11.399 28.2501H17.9137C18.3038 28.2501 18.6209 27.933 18.6209 27.5429L18.6209 21.0281L18.3709 21.0277H18.6209V21.0278C18.6213 20.6373 18.3035 20.3203 17.9137 20.3203ZM17.531 27.1605H11.7812V21.4108H17.531V27.1605Z" fill="#EFEFEF" stroke="white" stroke-width="0.5"/>
<path d="M28.2918 20.66C28.1676 20.4565 27.9434 20.3203 27.6879 20.3203H26.8335L26.8338 20.3205H21.1724C20.7826 20.3205 20.4648 20.6373 20.4648 21.0277V27.5429C20.4648 27.9332 20.782 28.2501 21.1724 28.2501H27.6877C28.0778 28.2501 28.3948 27.933 28.3948 27.5429V21.0279V21.0277H28.1448C28.1449 20.9532 28.127 20.8828 28.0953 20.8205H28.364C28.3466 20.7637 28.3222 20.7098 28.2918 20.66ZM27.305 27.1605H21.5553V21.4108H27.305V27.1605Z" fill="#EFEFEF" stroke="white" stroke-width="0.5"/>
<path d="M4.71684 20.1603V20.1603C4.41595 20.1603 4.17159 19.9167 4.17188 19.615M4.71684 20.1603L4.42692 17.7705M4.71684 20.1603C5.01766 20.1602 5.26162 19.9162 5.26162 19.6154V18.2904M4.71684 20.1603L5.01162 18.2904M4.17188 19.615C4.17188 19.615 4.17188 19.6149 4.17188 19.6149L4.42169 19.6152H4.17188V19.615ZM4.17188 19.615V17.7968C4.17188 17.7878 4.17234 17.7791 4.17307 17.7711M4.17307 17.7711C4.17397 17.7808 4.17527 17.7894 4.17663 17.7968C4.17677 17.7976 4.17691 17.7983 4.17706 17.7991C4.17953 17.8119 4.18245 17.8223 4.18345 17.8258L4.18347 17.8259L4.18412 17.8282L4.18427 17.8287L4.18315 17.8245C4.182 17.8198 4.17972 17.8099 4.17831 17.7968C4.17824 17.7961 4.17817 17.7955 4.17811 17.7948L4.42692 17.7705M4.17307 17.7711C4.17395 17.7615 4.17523 17.7528 4.17658 17.7453C4.17894 17.7321 4.18153 17.7227 4.18259 17.7188C4.18268 17.7185 4.18276 17.7182 4.18282 17.718L4.18346 17.7157L4.18362 17.7151L4.1826 17.7191C4.18154 17.7236 4.17948 17.7329 4.1782 17.7453C4.17813 17.746 4.17806 17.7466 4.178 17.7474L4.42692 17.7705M4.17307 17.7711C4.17234 17.7632 4.17188 17.7545 4.17188 17.7453C4.17188 17.4443 4.41593 17.2003 4.71684 17.2003H13.8667M4.42692 17.7705C4.42655 17.7667 4.42552 17.7631 4.42449 17.7595C4.42319 17.7549 4.42188 17.7503 4.42188 17.7453C4.42188 17.5824 4.554 17.4503 4.71684 17.4503H13.8667V17.2003M13.8667 17.2003H14.1167V14.7012C14.1167 14.5384 14.2489 14.4062 14.4117 14.4062C14.5745 14.4062 14.7067 14.538 14.7067 14.7012V17.4503L14.7067 17.2003L14.9567 17.2003M13.8667 17.2003V14.7012C13.8667 14.4003 14.1108 14.1562 14.4117 14.1562C14.7124 14.1562 14.9567 14.3997 14.9567 14.7012V17.2003M14.9567 17.2003V17.4503L24.4308 17.4505C24.5936 17.4505 24.7257 17.5822 24.7257 17.7455C24.7257 17.7509 24.7243 17.7558 24.7229 17.7608C24.7217 17.7649 24.7204 17.7691 24.7201 17.7735M14.9567 17.2003L24.4308 17.2005C24.7315 17.2005 24.9757 17.4439 24.9757 17.7455C24.9757 17.7557 24.9752 17.7653 24.9743 17.7739M24.9743 17.7739C24.9733 17.7639 24.9719 17.755 24.9704 17.7476C24.9703 17.7469 24.9702 17.7462 24.97 17.7455C24.9676 17.7334 24.9649 17.7238 24.964 17.7206C24.9623 17.7146 24.9636 17.7191 24.9644 17.7226C24.9655 17.7269 24.9672 17.7349 24.9685 17.7455C24.9687 17.7478 24.969 17.7502 24.9692 17.7527L24.7201 17.7735M24.9743 17.7739C24.9732 17.7846 24.9717 17.794 24.9701 17.8018C24.9701 17.802 24.97 17.8022 24.97 17.8025C24.9674 17.8151 24.9645 17.8253 24.9635 17.8287L24.9634 17.829L24.9628 17.8311L24.9639 17.8266C24.9651 17.8222 24.967 17.8137 24.9684 17.8025C24.9686 17.8001 24.9689 17.7977 24.9691 17.7951L24.7201 17.7735M24.9743 17.7739C24.9752 17.7826 24.9757 17.7922 24.9757 17.8025V19.6209C24.9757 19.9218 24.7317 20.1658 24.4308 20.1658C24.1301 20.1658 23.8858 19.9224 23.8858 19.6209V18.2904M24.7201 17.7735C24.7204 17.778 24.7217 17.7823 24.7229 17.7866C24.7243 17.7917 24.7257 17.7969 24.7257 17.8025V19.6209C24.7257 19.7837 24.5936 19.9158 24.4308 19.9158C24.268 19.9158 24.1358 19.7841 24.1358 19.6209V18.2904H23.8858M23.8858 18.2904V18.0404H14.9563V18.2904M23.8858 18.2904H14.9563M14.9563 18.2904H14.7063V19.726C14.7063 19.8889 14.5742 20.021 14.4113 20.021C14.2485 20.021 14.1164 19.8893 14.1164 19.726V18.2904H13.8664M14.9563 18.2904V19.726C14.9563 20.027 14.7122 20.271 14.4113 20.271C14.1107 20.271 13.8664 20.0276 13.8664 19.726V18.2904M13.8664 18.2904V18.0404H5.26162V18.2904M13.8664 18.2904H5.26162M5.26162 18.2904H5.01162M5.01162 18.2904V19.6154C5.01162 19.7726 4.88849 19.9011 4.73346 19.9099L5.01162 18.2904Z" fill="#EFEFEF" stroke="white" stroke-width="0.5"/>
<path d="M17.8105 6.17969H11.334C11.0331 6.17969 10.7891 6.42373 10.7891 6.72465C10.7891 7.02555 11.0331 7.26961 11.334 7.26961H17.8105C18.1114 7.26961 18.3555 7.02556 18.3555 6.72465C18.3555 6.42409 18.1122 6.17969 17.8107 6.17969H17.8105Z" fill="#EFEFEF" stroke="white" stroke-width="0.5"/>
</svg>
