<svg width="40" height="40" viewBox="0 0 40 40" fill="none" xmlns="http://www.w3.org/2000/svg">
<rect width="40" height="40" rx="4" fill="#F08200"/>
<path d="M12.7933 18.5641L12.8222 18.5625C12.8856 18.731 13.0483 18.8505 13.2387 18.8505H25.9175C26.1632 18.8505 26.3625 18.6512 26.3625 18.4055V14.0941V14.0939V14.0937V9.78376C26.3625 9.53752 26.163 9.3388 25.9175 9.3388H24.2742V6.45717C24.2742 6.12228 24.0019 5.85 23.667 5.85H15.3938C15.0591 5.85 14.7862 6.1221 14.7862 6.45717V11.445H13.2364C12.9907 11.445 12.7914 11.6443 12.7914 11.8899V14.0931C12.7914 14.1024 12.7922 14.1107 12.7933 14.1176V18.4055V18.5641ZM25.4725 17.9605H13.684V14.539H25.4725V17.9605ZM25.4725 10.2286V13.6484H24.2744V10.2286H25.4725ZM15.6768 6.74024H23.3845V13.6492H15.6768V6.74024ZM13.6819 12.335H14.7864V13.6483H13.6819V12.335Z" fill="#EFEFEF" stroke="white" stroke-width="0.3"/>
<path d="M19.9198 10.3942V10.1127C19.9529 10.1209 19.9878 10.1253 20.0241 10.1253H22.8134C23.0591 10.1253 23.2583 9.92603 23.2583 9.68034C23.2583 9.43467 23.0591 9.23538 22.8134 9.23538H20.0241C19.9878 9.23538 19.9529 9.2398 19.9198 9.24801V8.00106C19.9529 8.00928 19.9878 8.0137 20.0241 8.0137H22.8134C23.0591 8.0137 23.2583 7.81443 23.2583 7.56874C23.2583 7.3225 23.0589 7.12378 22.8134 7.12378H20.0241C19.9652 7.12378 19.9101 7.13538 19.8601 7.15595C19.7621 6.95193 19.5535 6.81094 19.3122 6.81094H16.3365C16.0017 6.81094 15.7289 7.08313 15.7289 7.41852L15.7289 10.3942L15.7289 10.3944C15.7295 10.7291 16.0016 11.0014 16.3365 11.0014H19.3122C19.6469 11.0014 19.9198 10.7293 19.9198 10.3942ZM16.6192 7.7013H19.0294V10.1115H16.6192V7.7013Z" fill="#EFEFEF" stroke="white" stroke-width="0.3"/>
<path d="M12.9726 25.4203H6.45717C6.12219 25.4203 5.85 25.6929 5.85 26.0277V32.5429C5.85 32.8778 6.12228 33.1501 6.45717 33.1501H12.9724C13.3071 33.1501 13.58 32.878 13.58 32.5429V26.0277C13.58 25.693 13.3079 25.4205 12.973 25.4203C12.9728 25.4203 12.9727 25.4203 12.9726 25.4203ZM12.6904 32.2603H6.74069V26.3106H12.6904V32.2603Z" fill="#EFEFEF" stroke="white" stroke-width="0.3"/>
<path d="M23.5209 26.0279C23.5214 25.6927 23.2484 25.4203 22.9137 25.4203H22.7637V25.4205H16.399C16.0643 25.4205 15.7914 25.6926 15.7914 26.0277V32.5429C15.7914 32.8779 16.0638 33.1501 16.399 33.1501H22.9137C23.2486 33.1501 23.5209 32.8778 23.5209 32.5429V26.0279ZM23.5209 26.0279L23.3709 26.0277H23.5209V26.0279ZM22.631 32.2605H16.6812V26.3108H22.631V32.2605Z" fill="#EFEFEF" stroke="white" stroke-width="0.3"/>
<path d="M32.1756 25.4205L32.1752 25.4203H32.6879C33.0228 25.4203 33.2951 25.6928 33.2948 26.0277C33.2948 26.0277 33.2948 26.0278 33.2948 26.0278M32.1756 25.4205L26.1724 25.5705C25.9204 25.5705 25.7148 25.7756 25.7148 26.0277V32.5429C25.7148 32.795 25.92 33.0001 26.1724 33.0001H32.6877C32.9397 33.0001 33.1448 32.795 33.1448 32.5429V26.0277L33.2948 26.0278M32.1756 25.4205H26.1724C25.8377 25.4205 25.5648 25.6926 25.5648 26.0277V32.5429C25.5648 32.8779 25.8372 33.1501 26.1724 33.1501H32.6877C33.0226 33.1501 33.2948 32.8778 33.2948 32.5429L33.2948 26.0278M32.1756 25.4205L33.2948 26.0278M32.405 32.2605H26.4553V26.3108H32.405V32.2605Z" fill="#EFEFEF" stroke="white" stroke-width="0.3"/>
<path d="M9.27188 24.6151C9.27161 24.8614 9.47108 25.0603 9.71684 25.0603V25.0603C9.96243 25.0602 10.1616 24.861 10.1616 24.6154V23.1904H18.9664V24.726C18.9664 24.9723 19.1658 25.171 19.4113 25.171C19.657 25.171 19.8563 24.9717 19.8563 24.726V23.1904H28.9858V24.6209C28.9858 24.8671 29.1852 25.0658 29.4308 25.0658C29.6765 25.0658 29.8757 24.8665 29.8757 24.6209V22.8025C29.8757 22.792 29.8748 22.7822 29.8735 22.7739C29.8748 22.7659 29.8757 22.7563 29.8757 22.7455C29.8757 22.4992 29.6763 22.3005 29.4308 22.3005L19.8567 22.3003V19.7012C19.8567 19.455 19.6572 19.2562 19.4117 19.2562C19.166 19.2562 18.9667 19.4555 18.9667 19.7012V22.3003H9.71684C9.47116 22.3003 9.27188 22.4996 9.27188 22.7453C9.27188 22.7546 9.27265 22.7633 9.27372 22.7709C9.27266 22.7785 9.27188 22.7873 9.27188 22.7968V24.6151ZM9.27188 24.6151C9.27188 24.615 9.27188 24.615 9.27188 24.615L9.42188 24.6152H9.27188V24.6151Z" fill="#EFEFEF" stroke="white" stroke-width="0.3"/>
<path d="M22.8105 11.2797H16.334C16.0883 11.2797 15.8891 11.479 15.8891 11.7246C15.8891 11.9703 16.0883 12.1696 16.334 12.1696H22.8105C23.0562 12.1696 23.2555 11.9703 23.2555 11.7246C23.2555 11.4792 23.0568 11.2797 22.8107 11.2797H22.8105Z" fill="#EFEFEF" stroke="white" stroke-width="0.3"/>
</svg>
