<svg width="40" height="40" viewBox="0 0 40 40" fill="none" xmlns="http://www.w3.org/2000/svg">
<rect width="40" height="40" rx="4" fill="#F08200"/>
<path d="M9.76803 15.9898H9.76803L10.1837 14.2911C10.1837 14.2909 10.1838 14.2908 10.1838 14.2907C10.1904 14.2623 10.1898 14.2329 10.1821 14.2048C10.1821 14.2047 10.182 14.2045 10.182 14.2043L9.69562 12.5192C9.69558 12.5191 9.69555 12.519 9.69552 12.5189C9.58495 12.1426 9.64411 11.7416 9.84854 11.4168H9.81075L10.0127 11.2054L11.2211 9.94054L11.223 9.93847L11.2231 9.93849C11.2425 9.91904 11.2569 9.89529 11.2652 9.86913L11.2654 9.86801L11.6822 8.1623L11.6823 8.16186C11.7984 7.69367 12.1526 7.32137 12.6146 7.18255L12.6157 7.1822L12.6157 7.1822L14.2955 6.69547C14.3258 6.68581 14.3531 6.66899 14.3748 6.64677L15.5763 5.38387L15.5772 5.38291C15.9156 5.03469 16.4124 4.89074 16.8842 5.00362L16.885 5.0038L16.885 5.0038L18.5789 5.42031L18.5792 5.42039C18.6064 5.42717 18.6349 5.42665 18.6615 5.41894L18.6615 5.41893L20.3445 4.93149C20.3447 4.93144 20.3449 4.93138 20.3451 4.93132C20.5749 4.86253 20.8189 4.85663 21.0519 4.91431L21.0519 4.91432C21.2847 4.97199 21.4978 5.09118 21.6689 5.25954C21.669 5.25972 21.6692 5.2599 21.6694 5.26008L22.9194 6.46287C22.9415 6.48185 22.9674 6.49559 22.9952 6.50313L24.6957 6.92151C24.6958 6.92154 24.6959 6.92156 24.696 6.92158C24.9295 6.97817 25.1437 7.09629 25.3162 7.26335L25.3163 7.26335C25.4886 7.43028 25.6135 7.64035 25.6777 7.87171C25.6778 7.87202 25.6779 7.87232 25.678 7.87262L26.1653 9.53833L26.1656 9.53968C26.175 9.57291 26.193 9.60326 26.218 9.62771C26.2181 9.62783 26.2182 9.62795 26.2183 9.62807L27.4708 10.8285L27.4711 10.8287C27.8199 11.165 27.9636 11.6611 27.8483 12.1317C27.8483 12.1317 27.8483 12.1317 27.8483 12.1317L27.4333 13.8267C27.4333 13.8269 27.4332 13.8271 27.4332 13.8273C27.426 13.8585 27.4269 13.8911 27.4359 13.9221L27.9256 15.5974L27.9258 15.5983C28.0336 15.9771 27.9728 16.3794 27.7676 16.7061H27.807L27.6042 16.9176L26.3954 18.1781L26.3938 18.1798C26.3744 18.1993 26.3601 18.2237 26.3526 18.2506L26.3524 18.2514L25.935 19.9556L9.76803 15.9898ZM9.76803 15.9898L9.76789 15.9904C9.65521 16.461 9.79874 16.9561 10.1455 17.2934L10.1461 17.2941L11.3159 18.4152L11.3156 18.4155L11.408 18.5039C11.4285 18.5234 11.4434 18.5485 11.451 18.5765L11.451 18.5765L11.4516 18.5787L11.7979 19.7677L11.8329 19.8878L11.9529 19.8528L12.8464 19.5923L12.9664 19.5573L12.9314 19.4373L12.5883 18.2601C12.5883 18.2598 12.5882 18.2595 12.5881 18.2593C12.5239 18.0271 12.3982 17.8168 12.2238 17.6505C12.2237 17.6504 12.2236 17.6504 12.2236 17.6503L10.9666 16.4454C10.9665 16.4453 10.9664 16.4453 10.9664 16.4452C10.9197 16.3997 10.9003 16.333 10.9152 16.2698C10.9153 16.2697 10.9153 16.2696 10.9153 16.2695L11.3323 14.5643L11.3325 14.5635C11.3869 14.3347 11.3808 14.0958 11.3147 13.8702C11.3147 13.8702 11.3146 13.8701 11.3146 13.87L10.8284 12.186L10.8285 12.1859L10.8282 12.1849C10.8108 12.1267 10.8259 12.0634 10.8675 12.0192C10.8676 12.0191 10.8677 12.0191 10.8677 12.019L12.0761 10.7544L12.1107 10.7181V10.7169C12.2572 10.5532 12.3614 10.3556 12.4139 10.1417L12.4139 10.1416L12.8291 8.44113C12.8292 8.44108 12.8292 8.44104 12.8292 8.441C12.8441 8.38067 12.89 8.33245 12.9498 8.31446C12.9499 8.31442 12.9501 8.31437 12.9502 8.31433L14.6329 7.82684L14.6329 7.82685L14.6345 7.8264C14.861 7.75765 15.0662 7.63179 15.23 7.46091L15.2303 7.46056L16.4275 6.20192C16.4276 6.20185 16.4276 6.20178 16.4277 6.2017C16.4733 6.15446 16.5409 6.13498 16.605 6.15085L16.6052 6.1509L18.3028 6.56824L18.3175 6.57186H18.3185C18.5429 6.62285 18.7767 6.61555 18.9977 6.55088C18.9977 6.55086 18.9978 6.55084 18.9979 6.55083L20.6798 6.06379L20.6807 6.06351C20.7389 6.04614 20.8023 6.06216 20.8456 6.10544L20.8455 6.10546L20.8473 6.10713L22.1147 7.32655L22.1146 7.32657L22.1167 7.32846C22.2881 7.4861 22.4967 7.59742 22.7229 7.65187C22.723 7.6519 22.7231 7.65192 22.7232 7.65195L24.4165 8.06851L24.4166 8.06854C24.478 8.08359 24.5259 8.13092 24.5416 8.19169L24.5415 8.1917L24.5426 8.19557L25.0279 9.8545L25.0289 9.8582C25.0938 10.0911 25.2193 10.3028 25.3923 10.4716L25.3931 10.4724L26.6542 11.681C26.6544 11.6812 26.6546 11.6814 26.6547 11.6815C26.6995 11.7261 26.7174 11.7907 26.7019 11.8516L26.7016 11.8527L26.2841 13.5578L26.296 13.5607L26.2836 13.5593C26.2309 13.7888 26.2375 14.0281 26.3031 14.2542L26.3031 14.2545L26.7904 15.9208L26.7912 15.9238C26.8088 15.9871 26.7929 16.0551 26.7491 16.1041L25.5412 17.3636L25.3384 17.5751H25.3753C25.2963 17.6996 25.2381 17.8366 25.2034 17.981C25.2034 17.9811 25.2033 17.9813 25.2033 17.9815L24.7882 19.6771L24.7879 19.6781C24.7736 19.7386 24.7276 19.7868 24.6676 19.8039L24.6668 19.8041L24.1574 19.9531L24.0375 19.9881L24.0725 20.1081L24.3334 21.0016L24.3685 21.1216L24.4885 21.0865L24.9943 20.9386L24.9943 20.9385M9.76803 15.9898L24.9943 20.9385M24.9943 20.9385C25.224 20.8725 25.4318 20.7469 25.5971 20.5743C25.7625 20.4016 25.879 20.1883 25.9349 19.9561L24.9943 20.9385Z" fill="white" stroke="white" stroke-width="0.25"/>
<path d="M33.0813 15.7815L33.0813 15.7814C32.6355 15.4796 32.0869 15.3702 31.5593 15.4781L31.5593 15.4781C31.0321 15.5859 30.5704 15.9015 30.279 16.354C30.2789 16.3541 30.2788 16.3543 30.2787 16.3545L26.4698 22.1721C26.259 22.494 25.9005 22.6886 25.5157 22.6902H24.1047C24.2896 22.3116 24.3561 21.8841 24.292 21.4643C24.2171 20.9719 23.968 20.523 23.5898 20.1988C23.2119 19.8748 22.7301 19.6971 22.2321 19.698M33.0813 15.7815L13.3262 20.8788C13.3261 20.8788 13.326 20.8788 13.3259 20.8788C12.5466 20.8803 11.8238 21.2865 11.4173 21.9516L11.4175 21.9513L11.3105 21.8866L11.4172 21.9518L5.90322 31.0669L5.83852 31.1739L5.73156 31.1092L4.9353 30.6274L4.82835 30.5627L4.89305 30.4558L10.4073 21.3402L10.4076 21.3397C11.0285 20.3223 12.1334 19.7005 13.3255 19.698L13.3257 19.698L22.2321 19.698M33.0813 15.7815C33.5101 16.0665 33.8127 16.5057 33.9269 17.0076L33.9269 17.0076C34.0409 17.51 33.9573 18.0371 33.6933 18.4795L33.6935 18.4791L33.5858 18.4157M33.0813 15.7815L17.188 27.0106M22.2321 19.698H22.2323V19.823L22.2321 19.698ZM32.494 16.6586C32.6985 16.794 32.8428 17.003 32.8968 17.2419C32.9511 17.481 32.911 17.7318 32.7849 17.942L32.494 16.6586ZM32.494 16.6586L32.425 16.7628C32.4251 16.7629 32.4253 16.763 32.4254 16.763L32.494 16.6586ZM17.188 27.0106C17.1878 27.0106 17.1877 27.0106 17.1876 27.0106C16.5818 27.0089 15.9914 27.2004 15.5018 27.557C15.0122 27.9137 14.649 28.4172 14.4649 28.9943L14.4649 28.9941L14.5838 29.0327M17.188 27.0106L17.1876 27.1356M17.188 27.0106L17.1876 27.1356M14.5838 29.0327L14.4648 28.9947L13.951 30.5791L13.9125 30.698L14.0313 30.7366L14.9165 31.0239L15.0354 31.0625L15.074 30.9435L15.5884 29.3569L15.5944 29.3381V29.3379M14.5838 29.0327L14.0704 30.6162L17.1876 27.1356M14.5838 29.0327C14.7598 28.4807 15.1072 27.9992 15.5754 27.6581C16.0436 27.317 16.6082 27.134 17.1876 27.1356M15.5944 29.3379C15.7043 29.0066 15.915 28.7178 16.1974 28.5122L16.1975 28.5121C16.4849 28.3026 16.8316 28.1903 17.1872 28.1915H17.1876L26.4798 28.1915L26.4802 28.1915C27.4081 28.1884 28.2662 27.698 28.7395 26.9L28.7397 26.8996L33.6931 18.4798L33.5858 18.4157M15.5944 29.3379C15.5924 29.344 15.5905 29.35 15.5885 29.3561L15.4701 29.3183L15.4694 29.3181H15.5944V29.3183V29.3379ZM33.5858 18.4157L28.632 26.8363C28.1812 27.5964 27.3637 28.0636 26.4798 28.0665L33.805 17.0353C33.912 17.5064 33.8334 18.0009 33.5858 18.4157ZM27.7233 26.2993C27.7233 26.2994 27.7232 26.2995 27.7232 26.2995L27.7231 26.2997L27.8308 26.3631L27.7233 26.2993ZM26.4803 27.1356V27.0106H26.4801C26.48 27.0106 26.4799 27.0106 26.4798 27.0106L26.4803 27.1356ZM31.7981 16.6421L31.7732 16.5196L31.7981 16.6421C31.7981 16.6421 31.7981 16.6421 31.7981 16.6421ZM22.2319 20.8788C22.5532 20.8821 22.8489 21.0553 23.0087 21.3341C23.1686 21.6132 23.1685 21.956 23.0087 22.2349C22.8488 22.5136 22.5532 22.687 22.232 22.6901H17.0795H16.9545V22.8151V23.7458V23.8708H17.0795H25.5156L22.2319 20.8788Z" fill="white" stroke="white" stroke-width="0.25"/>
<path d="M22.3398 12.7109C22.3398 13.4023 22.2852 14.0215 22.1758 14.5684C22.0703 15.1113 21.9023 15.5723 21.6719 15.9512C21.4414 16.3301 21.1406 16.6191 20.7695 16.8184C20.3984 17.0176 19.9492 17.1172 19.4219 17.1172C18.7617 17.1172 18.2168 16.9434 17.7871 16.5957C17.3574 16.2441 17.0391 15.7402 16.832 15.084C16.625 14.4238 16.5215 13.6328 16.5215 12.7109C16.5215 11.7891 16.6152 11 16.8027 10.3438C16.9941 9.68359 17.3027 9.17773 17.7285 8.82617C18.1543 8.47461 18.7188 8.29883 19.4219 8.29883C20.0859 8.29883 20.6328 8.47461 21.0625 8.82617C21.4961 9.17383 21.8164 9.67773 22.0234 10.3379C22.2344 10.9941 22.3398 11.7852 22.3398 12.7109ZM17.9102 12.7109C17.9102 13.4336 17.957 14.0371 18.0508 14.5215C18.1484 15.0059 18.3086 15.3691 18.5312 15.6113C18.7539 15.8496 19.0508 15.9688 19.4219 15.9688C19.793 15.9688 20.0898 15.8496 20.3125 15.6113C20.5352 15.373 20.6953 15.0117 20.793 14.5273C20.8945 14.043 20.9453 13.4375 20.9453 12.7109C20.9453 11.9922 20.8965 11.3906 20.7988 10.9062C20.7012 10.4219 20.541 10.0586 20.3184 9.81641C20.0957 9.57031 19.7969 9.44727 19.4219 9.44727C19.0469 9.44727 18.748 9.57031 18.5254 9.81641C18.3066 10.0586 18.1484 10.4219 18.0508 10.9062C17.957 11.3906 17.9102 11.9922 17.9102 12.7109Z" fill="white"/>
</svg>
