<svg width="119" height="26" viewBox="0 0 119 26" fill="none" xmlns="http://www.w3.org/2000/svg">
<path d="M16.7079 12.3318C18.4945 12.504 20.0825 11.1952 20.2547 9.40858C20.4269 7.62194 19.1181 6.03397 17.3315 5.86177C15.5449 5.68957 13.9569 6.99833 13.7847 8.78498C13.6125 10.5716 14.9212 12.1596 16.7079 12.3318Z" fill="#4D78A3"/>
<path d="M30.812 11.6116C32.5987 11.7838 34.1867 10.475 34.3589 8.6884C34.5311 6.90175 33.2223 5.31379 31.4357 5.14159C29.649 4.96939 28.061 6.27815 27.8888 8.0648C27.7166 9.85144 29.0254 11.4394 30.812 11.6116Z" fill="#4D78A3"/>
<path d="M44.9053 10.9004C46.6919 11.0726 48.2799 9.76386 48.4521 7.97721C48.6243 6.19057 47.3155 4.60261 45.5289 4.4304C43.7422 4.2582 42.1543 5.56696 41.9821 7.35361C41.8099 9.14026 43.1186 10.7282 44.9053 10.9004Z" fill="#4D78A3"/>
<path d="M59.0094 10.1802C60.7961 10.3524 62.3841 9.04368 62.5563 7.25704C62.7285 5.47039 61.4197 3.88243 59.633 3.71022C57.8464 3.53802 56.2584 4.84678 56.0862 6.63343C55.914 8.42008 57.2228 10.008 59.0094 10.1802Z" fill="#4D78A3"/>
<path d="M73.1126 9.47001C74.8993 9.64222 76.4872 8.33345 76.6594 6.54681C76.8316 4.76016 75.5229 3.1722 73.7362 3C71.9496 2.82779 70.3616 4.13656 70.1894 5.9232C70.0172 7.70985 71.326 9.29781 73.1126 9.47001Z" fill="#4D78A3"/>
<path d="M87.2059 8.75883C88.9925 8.93103 90.5805 7.62227 90.7527 5.83562C90.9249 4.04898 89.6161 2.46102 87.8295 2.28881C86.0428 2.11661 84.4549 3.42537 84.2827 5.21202C84.1105 6.99866 85.4192 8.58663 87.2059 8.75883Z" fill="#4D78A3"/>
<path d="M101.31 8.03865C103.097 8.21085 104.685 6.90209 104.857 5.11544C105.029 3.3288 103.72 1.74084 101.934 1.56863C100.147 1.39643 98.559 2.70519 98.3868 4.49184C98.2146 6.27849 99.5234 7.86645 101.31 8.03865Z" fill="#4D78A3"/>
<path d="M115.413 7.32842C117.2 7.50063 118.788 6.19186 118.96 4.40522C119.132 2.61857 117.823 1.03061 116.037 0.858408C114.25 0.686204 112.662 1.99497 112.49 3.78161C112.318 5.56826 113.627 7.15622 115.413 7.32842Z" fill="#4D78A3"/>
<path d="M3.23493 25.3693C5.02158 25.5415 6.60954 24.2328 6.78174 22.4461C6.95395 20.6595 5.64518 19.0715 3.85854 18.8993C2.07189 18.7271 0.483931 20.0359 0.311728 21.8225C0.139524 23.6092 1.44829 25.1971 3.23493 25.3693Z" fill="#4D78A3"/>
<path d="M17.3291 24.6482C19.1158 24.8204 20.7037 23.5116 20.8759 21.725C21.0481 19.9383 19.7394 18.3504 17.9527 18.1782C16.1661 18.006 14.5781 19.3147 14.4059 21.1014C14.2337 22.888 15.5425 24.476 17.3291 24.6482Z" fill="#4D78A3"/>
<path d="M31.4323 23.938C33.219 24.1102 34.8069 22.8014 34.9791 21.0148C35.1513 19.2281 33.8426 17.6402 32.0559 17.468C30.2693 17.2958 28.6813 18.6045 28.5091 20.3912C28.3369 22.1778 29.6457 23.7658 31.4323 23.938Z" fill="#4D78A3"/>
<path d="M45.5365 23.2178C47.3231 23.39 48.9111 22.0812 49.0833 20.2946C49.2555 18.5079 47.9467 16.92 46.1601 16.7478C44.3734 16.5756 42.7855 17.8843 42.6133 19.671C42.4411 21.4576 43.7498 23.0456 45.5365 23.2178Z" fill="#4D78A3"/>
<path d="M59.6297 22.5066C61.4164 22.6788 63.0043 21.37 63.1765 19.5834C63.3487 17.7968 62.04 16.2088 60.2533 16.0366C58.4667 15.8644 56.8787 17.1732 56.7065 18.9598C56.5343 20.7464 57.8431 22.3344 59.6297 22.5066Z" fill="#4D78A3"/>
<path d="M73.7339 21.7864C75.5205 21.9586 77.1085 20.6499 77.2807 18.8632C77.4529 17.0766 76.1441 15.4886 74.3575 15.3164C72.5708 15.1442 70.9829 16.453 70.8107 18.2396C70.6385 20.0263 71.9472 21.6142 73.7339 21.7864Z" fill="#4D78A3"/>
<path d="M87.8371 21.0762C89.6237 21.2484 91.2117 19.9396 91.3839 18.153C91.5561 16.3664 90.2473 14.7784 88.4607 14.6062C86.674 14.434 85.0861 15.7427 84.9139 17.5294C84.7417 19.316 86.0504 20.904 87.8371 21.0762Z" fill="#4D78A3"/>
<path d="M101.931 20.3551C103.718 20.5273 105.306 19.2185 105.478 17.4319C105.65 15.6452 104.342 14.0573 102.555 13.885C100.768 13.7128 99.1803 15.0216 99.0081 16.8083C98.8359 18.5949 100.145 20.1829 101.931 20.3551Z" fill="#4D78A3"/>
</svg>
