<svg width="143" height="115" viewBox="0 0 143 115" fill="none" xmlns="http://www.w3.org/2000/svg">
<path d="M0 0H124C134.493 0 143 8.50659 143 19V96C143 106.493 134.493 115 124 115H0V0Z" fill="#F58220"/>
<path d="M30 17H111V92C111 95.3137 108.314 98 105 98H36C32.6863 98 30 95.3137 30 92V17Z" fill="white" fill-opacity="0.86"/>
<g clip-path="url(#clip0_481_215)">
<path d="M25.8176 17.7847C25.2058 18.11 24.2472 18.6297 23.5992 19.7832C23.2375 20.4329 23.0323 21.1595 23 21.9043C23.0323 22.6486 23.2376 23.3747 23.5992 24.0239C24.2472 25.1704 25.2058 25.6971 25.8176 26.0225C27.0792 26.6745 28.5048 26.931 29.9116 26.7591V17.0481C28.5048 16.8762 27.0792 17.1327 25.8176 17.7847V17.7847Z" fill="#092847"/>
<path d="M103 25.6936H29.9116C28.5051 25.8252 27.0795 25.6307 25.8176 25.135C25.2058 24.8874 24.2472 24.4864 23.5992 23.6136C23.2376 23.1194 23.0323 22.5666 23 22V47.2647C23.0321 47.8313 23.2374 48.3841 23.5992 48.8783C24.2472 49.7521 25.2058 50.152 25.8176 50.3997C26.9807 50.8608 28.2881 51.0628 29.5925 50.983V50.998H103L88.9163 38.3463L103 25.6936Z" fill="url(#paint0_linear_481_215)"/>
<path d="M36.6035 35.3906C37.3301 35.3906 37.877 35.5781 38.2441 35.9531C38.6152 36.3281 38.8008 36.9297 38.8008 37.7578V42H37.4238V38.0039C37.4238 37.5117 37.3281 37.1406 37.1367 36.8906C36.9453 36.6406 36.6543 36.5156 36.2637 36.5156C35.7168 36.5156 35.3223 36.6914 35.0801 37.043C34.8418 37.3906 34.7227 37.8965 34.7227 38.5605V42H33.3457V38.0039C33.3457 37.6758 33.3027 37.4023 33.2168 37.1836C33.1348 36.9609 33.0078 36.7949 32.8359 36.6855C32.6641 36.5723 32.4473 36.5156 32.1855 36.5156C31.8066 36.5156 31.5039 36.6016 31.2773 36.7734C31.0547 36.9453 30.8945 37.1992 30.7969 37.5352C30.6992 37.8672 30.6504 38.2754 30.6504 38.7598V42H29.2734V35.5137H30.3457L30.5391 36.3867H30.6152C30.748 36.1602 30.9121 35.9746 31.1074 35.8301C31.3066 35.6816 31.5273 35.5723 31.7695 35.502C32.0117 35.4277 32.2637 35.3906 32.5254 35.3906C33.0098 35.3906 33.418 35.4766 33.75 35.6484C34.082 35.8164 34.3301 36.0742 34.4941 36.4219H34.5996C34.8027 36.0703 35.0859 35.8105 35.4492 35.6426C35.8125 35.4746 36.1973 35.3906 36.6035 35.3906ZM40.5234 41.2734C40.5234 40.9531 40.6055 40.7285 40.7695 40.5996C40.9375 40.4668 41.1406 40.4004 41.3789 40.4004C41.6172 40.4004 41.8203 40.4668 41.9883 40.5996C42.1602 40.7285 42.2461 40.9531 42.2461 41.2734C42.2461 41.5859 42.1602 41.8125 41.9883 41.9531C41.8203 42.0898 41.6172 42.1582 41.3789 42.1582C41.1406 42.1582 40.9375 42.0898 40.7695 41.9531C40.6055 41.8125 40.5234 41.5859 40.5234 41.2734ZM49.1016 39.668C49.1016 40.1758 48.9766 40.6133 48.7266 40.9805C48.4805 41.3477 48.125 41.6289 47.6602 41.8242C47.1992 42.0195 46.6484 42.1172 46.0078 42.1172C45.6953 42.1172 45.3965 42.0996 45.1113 42.0645C44.8262 42.0293 44.5566 41.9785 44.3027 41.9121C44.0527 41.8418 43.8242 41.7578 43.6172 41.6602V40.3359C43.9648 40.4883 44.3535 40.627 44.7832 40.752C45.2129 40.873 45.6504 40.9336 46.0957 40.9336C46.459 40.9336 46.7598 40.8867 46.998 40.793C47.2402 40.6953 47.4199 40.5586 47.5371 40.3828C47.6543 40.2031 47.7129 39.9941 47.7129 39.7559C47.7129 39.502 47.6445 39.2871 47.5078 39.1113C47.3711 38.9355 47.1641 38.7754 46.8867 38.6309C46.6133 38.4824 46.2695 38.3242 45.8555 38.1562C45.5742 38.043 45.3047 37.9141 45.0469 37.7695C44.793 37.625 44.5664 37.4551 44.3672 37.2598C44.168 37.0645 44.0098 36.834 43.8926 36.5684C43.7793 36.2988 43.7227 35.9824 43.7227 35.6191C43.7227 35.1348 43.8379 34.7207 44.0684 34.377C44.3027 34.0332 44.6309 33.7695 45.0527 33.5859C45.4785 33.4023 45.9746 33.3105 46.541 33.3105C46.9902 33.3105 47.4121 33.3574 47.8066 33.4512C48.2051 33.5449 48.5957 33.6777 48.9785 33.8496L48.5332 34.9805C48.1816 34.8359 47.8398 34.7207 47.5078 34.6348C47.1797 34.5488 46.8438 34.5059 46.5 34.5059C46.2031 34.5059 45.9512 34.5508 45.7441 34.6406C45.5371 34.7305 45.3789 34.8574 45.2695 35.0215C45.1641 35.1816 45.1113 35.373 45.1113 35.5957C45.1113 35.8457 45.1719 36.0566 45.293 36.2285C45.418 36.3965 45.6094 36.5508 45.8672 36.6914C46.1289 36.832 46.4648 36.9883 46.875 37.1602C47.3477 37.3555 47.748 37.5605 48.0762 37.7754C48.4082 37.9902 48.6621 38.248 48.8379 38.5488C49.0137 38.8457 49.1016 39.2188 49.1016 39.668ZM53.0273 41.0039C53.207 41.0039 53.3848 40.9883 53.5605 40.957C53.7363 40.9219 53.8965 40.8809 54.041 40.834V41.877C53.8887 41.9434 53.6914 42 53.4492 42.0469C53.207 42.0938 52.9551 42.1172 52.6934 42.1172C52.3262 42.1172 51.9961 42.0566 51.7031 41.9355C51.4102 41.8105 51.1777 41.5977 51.0059 41.2969C50.834 40.9961 50.748 40.5801 50.748 40.0488V36.5625H49.8633V35.9473L50.8125 35.4609L51.2637 34.0723H52.1309V35.5137H53.9883V36.5625H52.1309V40.0312C52.1309 40.3594 52.2129 40.6035 52.377 40.7637C52.541 40.9238 52.7578 41.0039 53.0273 41.0039ZM61.1016 38.7422C61.1016 39.2812 61.0312 39.7598 60.8906 40.1777C60.75 40.5957 60.5449 40.9492 60.2754 41.2383C60.0059 41.5234 59.6816 41.7422 59.3027 41.8945C58.9238 42.043 58.4961 42.1172 58.0195 42.1172C57.5742 42.1172 57.166 42.043 56.7949 41.8945C56.4238 41.7422 56.1016 41.5234 55.8281 41.2383C55.5586 40.9492 55.3496 40.5957 55.2012 40.1777C55.0527 39.7598 54.9785 39.2812 54.9785 38.7422C54.9785 38.0273 55.1016 37.4219 55.3477 36.9258C55.5977 36.4258 55.9531 36.0449 56.4141 35.7832C56.875 35.5215 57.4238 35.3906 58.0605 35.3906C58.6582 35.3906 59.1855 35.5215 59.6426 35.7832C60.0996 36.0449 60.457 36.4258 60.7148 36.9258C60.9727 37.4258 61.1016 38.0312 61.1016 38.7422ZM56.3965 38.7422C56.3965 39.2148 56.4531 39.6191 56.5664 39.9551C56.6836 40.291 56.8633 40.5488 57.1055 40.7285C57.3477 40.9043 57.6602 40.9922 58.043 40.9922C58.4258 40.9922 58.7383 40.9043 58.9805 40.7285C59.2227 40.5488 59.4004 40.291 59.5137 39.9551C59.627 39.6191 59.6836 39.2148 59.6836 38.7422C59.6836 38.2695 59.627 37.8691 59.5137 37.541C59.4004 37.209 59.2227 36.957 58.9805 36.7852C58.7383 36.6094 58.4238 36.5215 58.0371 36.5215C57.4668 36.5215 57.0508 36.7129 56.7891 37.0957C56.5273 37.4785 56.3965 38.0273 56.3965 38.7422ZM65.2969 42.1172C64.6836 42.1172 64.1523 41.998 63.7031 41.7598C63.2539 41.5215 62.9082 41.1562 62.666 40.6641C62.4238 40.1719 62.3027 39.5469 62.3027 38.7891C62.3027 38 62.4355 37.3555 62.7012 36.8555C62.9668 36.3555 63.334 35.9863 63.8027 35.748C64.2754 35.5098 64.8164 35.3906 65.4258 35.3906C65.8125 35.3906 66.1621 35.4297 66.4746 35.5078C66.791 35.582 67.0586 35.6738 67.2773 35.7832L66.8672 36.8848C66.6289 36.7871 66.3848 36.7051 66.1348 36.6387C65.8848 36.5723 65.6445 36.5391 65.4141 36.5391C65.0352 36.5391 64.7188 36.623 64.4648 36.791C64.2148 36.959 64.0273 37.209 63.9023 37.541C63.7812 37.873 63.7207 38.2852 63.7207 38.7773C63.7207 39.2539 63.7832 39.6562 63.9082 39.9844C64.0332 40.3086 64.2188 40.5547 64.4648 40.7227C64.7109 40.8867 65.0137 40.9688 65.373 40.9688C65.7285 40.9688 66.0469 40.9258 66.3281 40.8398C66.6094 40.7539 66.875 40.6426 67.125 40.5059V41.7012C66.8789 41.8418 66.6152 41.9453 66.334 42.0117C66.0527 42.082 65.707 42.1172 65.2969 42.1172ZM70.0254 32.8828V37.2891C70.0254 37.4883 70.0176 37.707 70.002 37.9453C69.9863 38.1797 69.9707 38.4004 69.9551 38.6074H69.9844C70.0859 38.4707 70.207 38.3105 70.3477 38.127C70.4922 37.9434 70.6289 37.7832 70.7578 37.6465L72.7383 35.5137H74.3203L71.7246 38.3027L74.4902 42H72.873L70.7988 39.1523L70.0254 39.8145V42H68.6484V32.8828H70.0254ZM76.6289 33.4336L76.7168 33.5625C76.6465 33.8477 76.5547 34.1523 76.4414 34.4766C76.332 34.8008 76.2129 35.125 76.084 35.4492C75.9551 35.7734 75.8242 36.0801 75.6914 36.3691H74.6953C74.75 36.1387 74.8066 35.8965 74.8652 35.6426C74.9238 35.3848 74.9805 35.127 75.0352 34.8691C75.0898 34.6074 75.1387 34.3555 75.1816 34.1133C75.2246 33.8672 75.2617 33.6406 75.293 33.4336H76.6289ZM82.207 40.1484C82.207 40.5742 82.1035 40.9336 81.8965 41.2266C81.6895 41.5195 81.3867 41.7422 80.9883 41.8945C80.5938 42.043 80.1094 42.1172 79.5352 42.1172C79.082 42.1172 78.6914 42.084 78.3633 42.0176C78.0391 41.9551 77.7324 41.8574 77.4434 41.7246V40.5352C77.752 40.6797 78.0977 40.8047 78.4805 40.9102C78.8672 41.0156 79.2324 41.0684 79.5762 41.0684C80.0293 41.0684 80.3555 40.998 80.5547 40.8574C80.7539 40.7129 80.8535 40.5215 80.8535 40.2832C80.8535 40.1426 80.8125 40.0176 80.7305 39.9082C80.6523 39.7949 80.5039 39.6797 80.2852 39.5625C80.0703 39.4414 79.7539 39.2969 79.3359 39.1289C78.9258 38.9648 78.5801 38.8008 78.2988 38.6367C78.0176 38.4727 77.8047 38.2754 77.6602 38.0449C77.5156 37.8105 77.4434 37.5117 77.4434 37.1484C77.4434 36.5742 77.6699 36.1387 78.123 35.8418C78.5801 35.541 79.1836 35.3906 79.9336 35.3906C80.332 35.3906 80.707 35.4316 81.0586 35.5137C81.4141 35.5918 81.7617 35.707 82.1016 35.8594L81.668 36.8965C81.375 36.7676 81.0801 36.6621 80.7832 36.5801C80.4902 36.4941 80.1914 36.4512 79.8867 36.4512C79.5312 36.4512 79.2598 36.5059 79.0723 36.6152C78.8887 36.7246 78.7969 36.8809 78.7969 37.084C78.7969 37.2363 78.8418 37.3652 78.9316 37.4707C79.0215 37.5762 79.1758 37.6816 79.3945 37.7871C79.6172 37.8926 79.9258 38.0234 80.3203 38.1797C80.707 38.3281 81.041 38.4844 81.3223 38.6484C81.6074 38.8086 81.8262 39.0059 81.9785 39.2402C82.1309 39.4746 82.207 39.7773 82.207 40.1484Z" fill="white"/>
</g>
<g clip-path="url(#clip1_481_215)">
<path d="M126.707 69.4597C126.573 69.3024 126.403 69.1789 126.21 69.0996C126.017 69.0203 125.807 68.9876 125.598 69.0042L118.526 69.5865C118.287 69.6046 118.058 69.6869 117.864 69.8242C117.67 69.9615 117.52 70.1485 117.429 70.3643C117.338 70.5801 117.31 70.8163 117.349 71.0465C117.388 71.2766 117.492 71.4918 117.649 71.6679L119.146 73.381L108.44 81.1739L104.462 76.9437C104.205 76.6699 103.852 76.4982 103.473 76.4617C103.093 76.4251 102.713 76.5263 102.405 76.7457L79.8212 92.7217L73.7438 88.541C73.4671 88.3513 73.1342 88.2548 72.7959 88.2663C72.4576 88.2777 72.1324 88.3964 71.8699 88.6044L54.5757 102.317C54.4176 102.442 54.2865 102.597 54.1898 102.771C54.093 102.946 54.0326 103.137 54.0119 103.335C53.9912 103.532 54.0107 103.732 54.0692 103.922C54.1277 104.112 54.2241 104.289 54.3529 104.443C54.4817 104.597 54.6403 104.724 54.8198 104.818C54.9992 104.913 55.196 104.971 55.3988 104.992C55.6016 105.012 55.8065 104.993 56.0018 104.936C56.1971 104.879 56.379 104.785 56.537 104.66L72.9177 91.6701L78.9422 95.8052C79.2072 95.9867 79.5239 96.083 79.8479 96.0805C80.1719 96.078 80.487 95.9769 80.749 95.7913L103.109 79.9738L107.097 84.2178C107.356 84.4957 107.712 84.6699 108.096 84.7065C108.479 84.7431 108.863 84.6395 109.173 84.4158L121.161 75.6862L122.809 77.5735C122.93 77.7128 123.081 77.8246 123.252 77.9012C123.422 77.9778 123.608 78.0174 123.795 78.0171C123.887 78.0166 123.978 78.0073 124.068 77.9894C124.297 77.9409 124.507 77.8333 124.678 77.6778C124.849 77.5223 124.973 77.3248 125.038 77.1061L126.951 70.6143C127.011 70.4171 127.019 70.2087 126.977 70.0074C126.934 69.8061 126.842 69.618 126.707 69.4597V69.4597Z" fill="url(#paint1_linear_481_215)"/>
</g>
<path d="M40.6831 81.264C40.0671 81.264 39.5941 81.088 39.2641 80.736C38.9341 80.384 38.7691 79.9 38.7691 79.284V59.451C38.7691 58.813 38.9451 58.329 39.2971 57.999C39.6491 57.647 40.1331 57.471 40.7491 57.471C41.2991 57.471 41.7281 57.581 42.0361 57.801C42.3661 57.999 42.6631 58.351 42.9271 58.857L51.0781 73.938H50.0221L58.1731 58.857C58.4371 58.351 58.7231 57.999 59.0311 57.801C59.3391 57.581 59.7681 57.471 60.3181 57.471C60.9341 57.471 61.4071 57.647 61.7371 57.999C62.0671 58.329 62.2321 58.813 62.2321 59.451V79.284C62.2321 79.9 62.0671 80.384 61.7371 80.736C61.4291 81.088 60.9561 81.264 60.3181 81.264C59.7021 81.264 59.2291 81.088 58.8991 80.736C58.5691 80.384 58.4041 79.9 58.4041 79.284V64.005H59.1301L52.2001 76.644C51.9801 77.018 51.7491 77.293 51.5071 77.469C51.2651 77.645 50.9351 77.733 50.5171 77.733C50.0991 77.733 49.7581 77.645 49.4941 77.469C49.2301 77.271 48.9991 76.996 48.8011 76.644L41.8051 63.972H42.5971V79.284C42.5971 79.9 42.4321 80.384 42.1021 80.736C41.7941 81.088 41.3211 81.264 40.6831 81.264ZM75.0745 81.264C74.3925 81.264 73.8645 81.077 73.4905 80.703C73.1385 80.307 72.9625 79.768 72.9625 79.086V61.266H66.5275C65.9555 61.266 65.5045 61.112 65.1745 60.804C64.8665 60.474 64.7125 60.034 64.7125 59.484C64.7125 58.912 64.8665 58.483 65.1745 58.197C65.5045 57.889 65.9555 57.735 66.5275 57.735H83.6215C84.1935 57.735 84.6335 57.889 84.9415 58.197C85.2715 58.483 85.4365 58.912 85.4365 59.484C85.4365 60.034 85.2715 60.474 84.9415 60.804C84.6335 61.112 84.1935 61.266 83.6215 61.266H77.1865V79.086C77.1865 79.768 77.0105 80.307 76.6585 80.703C76.3065 81.077 75.7785 81.264 75.0745 81.264ZM90.0266 81.264C89.3446 81.264 88.8056 81.077 88.4096 80.703C88.0356 80.307 87.8486 79.746 87.8486 79.02V59.979C87.8486 59.253 88.0356 58.703 88.4096 58.329C88.8056 57.933 89.3666 57.735 90.0926 57.735H101.61C102.182 57.735 102.611 57.878 102.897 58.164C103.183 58.45 103.326 58.857 103.326 59.385C103.326 59.935 103.183 60.364 102.897 60.672C102.611 60.958 102.182 61.101 101.61 61.101H92.0726V67.668H100.917C101.467 67.668 101.885 67.811 102.171 68.097C102.479 68.383 102.633 68.79 102.633 69.318C102.633 69.868 102.479 70.297 102.171 70.605C101.885 70.891 101.467 71.034 100.917 71.034H92.0726V79.02C92.0726 80.516 91.3906 81.264 90.0266 81.264Z" fill="#F58220"/>
<defs>
<linearGradient id="paint0_linear_481_215" x1="79.1467" y1="25.8941" x2="-14.9912" y2="130.315" gradientUnits="userSpaceOnUse">
<stop stop-color="#043B72"/>
<stop offset="1" stop-color="#1D664A"/>
</linearGradient>
<linearGradient id="paint1_linear_481_215" x1="54.0019" y1="87.0003" x2="127.002" y2="87.0003" gradientUnits="userSpaceOnUse">
<stop stop-color="#FF8721"/>
<stop offset="1" stop-color="#FCC08D"/>
</linearGradient>
<clipPath id="clip0_481_215">
<rect width="80" height="43" fill="white" transform="translate(23 17)"/>
</clipPath>
<clipPath id="clip1_481_215">
<rect width="73" height="36" fill="white" transform="translate(54 69)"/>
</clipPath>
</defs>
</svg>
