<svg width="125" height="96" viewBox="0 0 125 96" fill="none" xmlns="http://www.w3.org/2000/svg">
<circle cx="45.5" cy="50.5" r="45.5" fill="#043B72"/>
<path d="M85.0797 10.8323L106.528 0L94.9585 10.5144L100.892 13.9417L76 26.5972L91.0828 14.2593L85.0797 10.8323Z" fill="white" style="mix-blend-mode:screen"/>
<path d="M85.0797 10.8323L106.528 0L94.9585 10.5144L100.892 13.9417L76 26.5972L91.0828 14.2593L85.0797 10.8323Z" fill="white" style="mix-blend-mode:screen"/>
<path d="M85.0797 10.8323L106.528 0L94.9585 10.5144L100.892 13.9417L76 26.5972L91.0828 14.2593L85.0797 10.8323Z" fill="white" style="mix-blend-mode:screen"/>
<path d="M95.8705 31.4491L119.451 36.0696L103.863 37.2642L106.441 43.6124L79.024 38.3169L98.5044 37.8401L95.8705 31.4491Z" fill="white" style="mix-blend-mode:screen"/>
<path d="M95.8705 31.4491L119.451 36.0696L103.863 37.2642L106.441 43.6124L79.024 38.3169L98.5044 37.8401L95.8705 31.4491Z" fill="white" style="mix-blend-mode:screen"/>
<path d="M95.8705 31.4491L119.451 36.0696L103.863 37.2642L106.441 43.6124L79.024 38.3169L98.5044 37.8401L95.8705 31.4491Z" fill="white" style="mix-blend-mode:screen"/>
<path d="M103.039 52.7932L124.674 63.2466L109.294 60.4462L110.177 67.241L85.0007 55.1608L103.964 59.6434L103.039 52.7932Z" fill="white" style="mix-blend-mode:screen"/>
<path d="M103.039 52.7932L124.674 63.2466L109.294 60.4462L110.177 67.241L85.0007 55.1608L103.964 59.6434L103.039 52.7932Z" fill="white" style="mix-blend-mode:screen"/>
<path d="M103.039 52.7932L124.674 63.2466L109.294 60.4462L110.177 67.241L85.0007 55.1608L103.964 59.6434L103.039 52.7932Z" fill="white" style="mix-blend-mode:screen"/>
<path d="M46.5055 84.9091L46.3942 84.9944C45.5831 85.6147 44.556 85.8929 43.5375 85.768C42.5191 85.6431 41.5922 85.1253 40.9596 84.3279C39.4955 82.4663 38.1954 80.4845 37.0736 78.4043C33.9846 72.694 33.8446 68.4469 33.4121 64.9232L40.8649 62.9541C41.423 66.3802 41.6268 70.0442 44.1928 75.2078C45.1627 77.1606 46.0318 78.2884 46.8823 79.1541C47.27 79.5418 47.5702 80.006 47.7631 80.5163C47.9561 81.0266 48.0374 81.5714 48.0018 82.115C47.9662 82.6585 47.8145 83.1884 47.5566 83.67C47.2987 84.1515 46.9405 84.5738 46.5055 84.9091Z" fill="#EAEEF0"/>
<g style="mix-blend-mode:multiply" opacity="0.15">
<path d="M34.8351 73.0865L42.4918 71.0543C41.4827 67.933 41.2562 65.3786 40.8649 62.9482L33.4121 64.9174C33.7004 67.2584 33.8672 69.9082 34.8351 73.0865Z" fill="#8C5213"/>
</g>
<path d="M31.5352 66.7334L42.0917 63.9422L43.0767 67.5696C43.1003 67.6567 43.1064 67.7476 43.0944 67.837C43.0825 67.9264 43.0528 68.0127 43.0071 68.0908C42.9614 68.1689 42.9006 68.2374 42.8281 68.2923C42.7556 68.3472 42.6728 68.3874 42.5845 68.4108L33.3726 70.8465C33.1948 70.8935 33.0054 70.8689 32.846 70.778C32.6866 70.6872 32.5703 70.5377 32.5227 70.3622L31.5377 66.7348L31.5352 66.7334Z" fill="url(#paint0_linear_743_470)"/>
<g style="mix-blend-mode:multiply" opacity="0.47">
<path d="M41.2892 68.7521L34.6726 70.5018C34.1502 70.6396 33.5937 70.5672 33.1253 70.3005C32.6569 70.0338 32.315 69.5946 32.1746 69.0793L31.5877 66.9171C31.5744 66.8684 31.5813 66.8164 31.6067 66.7726C31.6322 66.7288 31.6742 66.6967 31.7236 66.6834L41.9091 63.9909C41.9585 63.9778 42.0112 63.9846 42.0556 64.0097C42.0999 64.0349 42.1324 64.0763 42.1459 64.125L42.7328 66.2872C42.8725 66.8029 42.7988 67.3523 42.5281 67.8145C42.2574 68.2768 41.8118 68.614 41.2892 68.7521Z" fill="#8C5213"/>
</g>
<path d="M37.6338 32.9397L24.0051 36.5427C20.5469 37.4575 17.5985 39.6904 15.8085 42.7501C14.0185 45.8099 13.5334 49.4459 14.46 52.8585L15.9571 58.3737C16.8838 61.7865 19.1464 64.6963 22.2472 66.4631C25.348 68.2298 29.033 68.7088 32.4916 67.7945L46.1204 64.1916C49.419 63.3181 52.8649 63.1264 56.2421 63.6287L78.17 66.8801L64.0264 14.793L46.6846 28.4305C44.0133 30.5306 40.9324 32.0656 37.6338 32.9397V32.9397Z" fill="#EAEEF0"/>
<path d="M79.5519 67.8731C82.8241 67.0077 82.2961 54.5968 78.3726 40.1528C74.4491 25.7088 68.6159 14.7012 65.3437 15.5667C62.0715 16.4322 62.5995 28.843 66.523 43.287C70.4465 57.731 76.2797 68.7386 79.5519 67.8731Z" fill="url(#paint1_linear_743_470)"/>
<path d="M39.4274 49.2133C37.8355 43.3506 36.8038 37.8334 36.3631 33.2754L24.007 36.543C20.5488 37.4579 17.6004 39.6908 15.8104 42.7505C14.0204 45.8102 13.5354 49.4462 14.4619 52.8589L15.9591 58.374C16.8857 61.7869 19.1483 64.6967 22.2491 66.4635C25.3499 68.2302 29.0349 68.7091 32.4936 67.7949L44.8496 64.5273C42.9262 60.3696 41.0193 55.0759 39.4274 49.2133Z" fill="url(#paint2_linear_743_470)"/>
<g style="mix-blend-mode:multiply" opacity="0.47">
<path d="M77.8465 63.0357C77.8336 63.1128 77.7984 63.1845 77.7451 63.2423C77.6919 63.3002 77.623 63.3416 77.5465 63.3618C77.47 63.382 77.3893 63.3799 77.3139 63.356C77.2386 63.332 77.1718 63.2871 77.1216 63.2267C74.9531 60.585 71.1825 53.4075 67.9926 41.6599C64.8026 29.9122 64.434 21.8387 64.9694 18.4776C64.9824 18.4005 65.0176 18.3288 65.0708 18.2709C65.124 18.2131 65.193 18.1716 65.2695 18.1515C65.346 18.1313 65.4267 18.1333 65.5021 18.1573C65.5774 18.1812 65.6442 18.2261 65.6943 18.2865C67.8608 20.9283 71.6335 28.1057 74.8234 39.8533C78.0133 51.601 78.3881 59.6746 77.8465 63.0357Z" fill="#8C5213"/>
</g>
<g style="mix-blend-mode:multiply" opacity="0.31">
<path d="M78.0977 66.8725H78.1697V66.8359L78.0977 66.8725Z" fill="#8C5213"/>
</g>
<path style="mix-blend-mode:hard-light" d="M29.6845 40.296L43.3462 36.6829L58.6142 26.7256C58.4305 28.6612 58.7318 30.6117 59.4915 32.4054L45.9184 41.2491L27.2792 46.177C26.8739 45.6281 26.6259 44.9816 26.561 44.3055C26.4962 43.6294 26.6169 42.9485 26.9106 42.3343C27.7282 40.672 29.4992 40.3225 29.6845 40.296Z" fill="url(#paint3_linear_743_470)"/>
<path style="mix-blend-mode:multiply" opacity="0.2" d="M68.985 54.751H60.1895C53.7046 54.751 47.8931 55.2651 41.0561 57.3358C38.2369 58.1893 34.6371 59.5386 29.0975 60.8209C27.3642 61.2454 25.5915 61.4939 23.807 61.5626C21.4861 61.6425 19.1649 61.4086 16.9082 60.8676C18.2954 63.6208 20.605 65.8158 23.4452 67.0803C26.2855 68.3448 29.4815 68.6009 32.4913 67.8053L46.1201 64.2023C49.4187 63.3288 52.8646 63.1372 56.2417 63.6394L76.2751 66.6124C74.1642 65.2936 71.5015 60.9042 68.985 54.751Z" fill="url(#paint4_linear_743_470)"/>
<defs>
<linearGradient id="paint0_linear_743_470" x1="10.1746" y1="92.6429" x2="68.0578" y2="37.3641" gradientUnits="userSpaceOnUse">
<stop stop-color="#FEC200"/>
<stop offset="1" stop-color="#FD5025"/>
</linearGradient>
<linearGradient id="paint1_linear_743_470" x1="23.2334" y1="110.573" x2="120.063" y2="-28.515" gradientUnits="userSpaceOnUse">
<stop stop-color="#FEC200"/>
<stop offset="1" stop-color="#FD5025"/>
</linearGradient>
<linearGradient id="paint2_linear_743_470" x1="11.4638" y1="80.5638" x2="65.7805" y2="0.880867" gradientUnits="userSpaceOnUse">
<stop stop-color="#FEC200"/>
<stop offset="1" stop-color="#FD5025"/>
</linearGradient>
<linearGradient id="paint3_linear_743_470" x1="61.6873" y1="31.2334" x2="31.7531" y2="40.2585" gradientUnits="userSpaceOnUse">
<stop stop-color="white"/>
<stop offset="1" stop-color="white"/>
</linearGradient>
<linearGradient id="paint4_linear_743_470" x1="43.3212" y1="43.1882" x2="47.5167" y2="70.1651" gradientUnits="userSpaceOnUse">
<stop offset="0.28" stop-color="#603813"/>
<stop offset="1" stop-color="#603813"/>
</linearGradient>
</defs>
</svg>
