<svg width="55" height="55" viewBox="0 0 55 55" fill="none" xmlns="http://www.w3.org/2000/svg">
<circle cx="27.5" cy="27.5" r="27.5" fill="#F58220" fill-opacity="0.1"/>
<path d="M37.6983 26.7292C38.4829 26.7292 38.8104 25.7212 38.1731 25.2565L28.4764 18.203C28.338 18.1016 28.1708 18.0469 27.9991 18.0469C27.8274 18.0469 27.6602 18.1016 27.5218 18.203L17.8251 25.2565C17.1878 25.7187 17.5153 26.7292 18.3024 26.7292H19.8741V36.2253H18.046C17.9343 36.2253 17.8428 36.3167 17.8428 36.4284V37.7487C17.8428 37.8604 17.9343 37.9519 18.046 37.9519H37.9522C38.0639 37.9519 38.1553 37.8604 38.1553 37.7487V36.4284C38.1553 36.3167 38.0639 36.2253 37.9522 36.2253H36.1241V26.7292H37.6983ZM27.9991 19.9931L34.8825 25.0001H21.1157L27.9991 19.9931ZM21.7022 26.7292H24.6729V36.2253H21.7022V26.7292ZM26.5011 26.7292H29.4718V36.2253H26.5011V26.7292ZM34.296 36.2253H31.2999V26.7292H34.296V36.2253Z" fill="#F58220"/>
</svg>
