<svg width="55" height="55" viewBox="0 0 55 55" fill="none" xmlns="http://www.w3.org/2000/svg">
<circle cx="27.5" cy="27.5" r="27.5" fill="#F58220" fill-opacity="0.1"/>
<path d="M30.9798 31.8753C32.3968 31.8753 32.9493 32.5069 33.3685 33.9066L33.4422 34.1633C33.6405 34.8751 33.7585 35.0885 33.998 35.1871C34.2785 35.303 34.4649 35.2868 34.7595 35.1351L34.9188 35.0463C34.9762 35.0116 35.038 34.9715 35.1095 34.9249L35.8277 34.4363C36.495 33.9976 37.0952 33.7073 37.8243 33.5253C38.0321 33.4765 38.2507 33.5114 38.4329 33.6226C38.6152 33.7337 38.7464 33.912 38.7982 34.1191C38.85 34.3261 38.8182 34.5453 38.7098 34.7291C38.6013 34.9129 38.4249 35.0467 38.2186 35.1015C37.7798 35.213 37.3609 35.3921 36.9771 35.6323L36.6543 35.8382L36.1343 36.1935C35.9321 36.3355 35.7211 36.4647 35.5027 36.5803C34.8061 36.9378 34.1269 36.9984 33.3794 36.6886C32.5712 36.3571 32.2462 35.8447 31.9418 34.8253L31.7728 34.237C31.5767 33.5989 31.4424 33.5003 30.9798 33.5003C30.644 33.5003 30.2973 33.6683 29.8217 34.0669L29.6224 34.2413L28.6246 35.1893C27.0993 36.6236 25.7982 37.3202 23.936 37.3202C22.1095 37.3202 20.53 37.045 19.204 36.4871L22.3965 35.6161C22.8808 35.6681 23.3943 35.6952 23.936 35.6952C25.2175 35.6952 26.1373 35.2456 27.2802 34.2186L27.5597 33.9597L28.136 33.4072C28.3917 33.1613 28.5845 32.9847 28.7774 32.8222C29.5184 32.2014 30.1911 31.8753 30.9798 31.8753V31.8753ZM35.6165 17.2178C36.3431 17.9449 36.7513 18.9308 36.7513 19.9587C36.7513 20.9866 36.3431 21.9725 35.6165 22.6995L35.3045 23.0137C36.5514 24.5303 36.507 26.1402 35.3467 27.3037L33.179 29.4703C33.0264 29.6226 32.8196 29.7081 32.604 29.7079C32.3885 29.7077 32.1818 29.6218 32.0295 29.4693C31.8773 29.3167 31.7918 29.1099 31.792 28.8943C31.7922 28.6788 31.8781 28.4721 32.0306 28.3198L34.1962 26.1553C34.7216 25.6278 34.7812 24.9745 34.1529 24.1631L24.8178 33.5003C24.5176 33.8006 24.1441 34.0172 23.7345 34.1287L18.1932 35.6399C18.0551 35.6774 17.9095 35.6777 17.7712 35.6409C17.6329 35.604 17.5068 35.5313 17.4056 35.43C17.3045 35.3287 17.2319 35.2025 17.1952 35.0642C17.1584 34.9259 17.1589 34.7803 17.1965 34.6422L18.7067 29.0998C18.8184 28.6906 19.035 28.3175 19.335 28.0176L30.1348 17.2178C30.4948 16.8578 30.9221 16.5721 31.3925 16.3772C31.8629 16.1823 32.367 16.082 32.8762 16.082C33.3853 16.082 33.8895 16.1823 34.3599 16.3772C34.8302 16.5721 35.2576 16.8578 35.6175 17.2178H35.6165ZM31.2831 18.3662L20.4845 29.167C20.3846 29.267 20.3125 29.3914 20.2754 29.5278L19.1379 33.6986L23.3087 32.5611C23.4446 32.523 23.5681 32.4502 23.6673 32.3498L34.4681 21.5512C34.6773 21.342 34.8431 21.0938 34.9563 20.8205C35.0695 20.5473 35.1278 20.2544 35.1278 19.9587C35.1278 19.6629 35.0695 19.3701 34.9563 19.0968C34.8431 18.8236 34.6773 18.5753 34.4681 18.3662C34.259 18.157 34.0107 17.9912 33.7375 17.878C33.4642 17.7648 33.1714 17.7065 32.8756 17.7065C32.5799 17.7065 32.287 17.7648 32.0138 17.878C31.7405 17.9912 31.4923 18.157 31.2831 18.3662V18.3662Z" fill="#F58220"/>
</svg>
