<svg width="50" height="50" viewBox="0 0 50 50" fill="none" xmlns="http://www.w3.org/2000/svg">
<circle cx="25" cy="25" r="25" fill="url(#paint0_linear_754_843)" fill-opacity="0.25"/>
<path d="M37.4844 33.2969H14.6406V12.5781C14.6406 12.432 14.5211 12.3125 14.375 12.3125H12.5156C12.3695 12.3125 12.25 12.432 12.25 12.5781V35.4219C12.25 35.568 12.3695 35.6875 12.5156 35.6875H37.4844C37.6305 35.6875 37.75 35.568 37.75 35.4219V33.5625C37.75 33.4164 37.6305 33.2969 37.4844 33.2969ZM17.5625 30.6406H19.4219C19.568 30.6406 19.6875 30.5211 19.6875 30.375V25.5938C19.6875 25.4477 19.568 25.3281 19.4219 25.3281H17.5625C17.4164 25.3281 17.2969 25.4477 17.2969 25.5938V30.375C17.2969 30.5211 17.4164 30.6406 17.5625 30.6406ZM22.6094 30.6406H24.4688C24.6148 30.6406 24.7344 30.5211 24.7344 30.375V19.75C24.7344 19.6039 24.6148 19.4844 24.4688 19.4844H22.6094C22.4633 19.4844 22.3438 19.6039 22.3438 19.75V30.375C22.3438 30.5211 22.4633 30.6406 22.6094 30.6406ZM27.6562 30.6406H29.5156C29.6617 30.6406 29.7812 30.5211 29.7812 30.375V22.3398C29.7812 22.1937 29.6617 22.0742 29.5156 22.0742H27.6562C27.5102 22.0742 27.3906 22.1937 27.3906 22.3398V30.375C27.3906 30.5211 27.5102 30.6406 27.6562 30.6406ZM32.7031 30.6406H34.5625C34.7086 30.6406 34.8281 30.5211 34.8281 30.375V17.0938C34.8281 16.9477 34.7086 16.8281 34.5625 16.8281H32.7031C32.557 16.8281 32.4375 16.9477 32.4375 17.0938V30.375C32.4375 30.5211 32.557 30.6406 32.7031 30.6406Z" fill="#F58220"/>
<defs>
<linearGradient id="paint0_linear_754_843" x1="-1.48027" y1="24.1926" x2="38.898" y2="24.1103" gradientUnits="userSpaceOnUse">
<stop stop-color="#F58220"/>
<stop offset="1" stop-color="#F58220" stop-opacity="0"/>
</linearGradient>
</defs>
</svg>
