<svg width="50" height="50" viewBox="0 0 50 50" fill="none" xmlns="http://www.w3.org/2000/svg">
<circle cx="25" cy="25" r="25" fill="url(#paint0_linear_754_844)" fill-opacity="0.25"/>
<path d="M25.0003 37C26.3053 37 27.5653 36.79 28.7413 36.406C28.1605 35.6508 27.6702 34.8302 27.2803 33.961C26.5363 35.0125 25.7293 35.5 25.0003 35.5C24.0148 35.5 22.8898 34.615 21.9673 32.638C21.6162 31.8691 21.336 31.0698 21.1303 30.25H26.5063C26.5243 29.737 26.5948 29.2345 26.7118 28.75H20.8093C20.6008 27.5109 20.4975 26.2565 20.5003 25C20.5003 23.6755 20.6098 22.4125 20.8093 21.25H29.1913C29.3713 22.306 29.4793 23.4445 29.4973 24.637C29.9503 24.328 30.4438 24.0745 30.9763 23.887C30.9375 23.0037 30.8489 22.1233 30.7108 21.25H34.8103C35.1253 22.0735 35.3398 22.9465 35.4388 23.854C35.9998 24.0445 36.5203 24.307 36.9943 24.6295C36.9215 22.273 36.1562 19.9902 34.7939 18.066C33.4316 16.1418 31.5326 14.6616 29.3342 13.8101C27.1357 12.9585 24.7351 12.7735 22.4321 13.278C20.1291 13.7825 18.0258 14.9542 16.3846 16.6468C14.7435 18.3395 13.6373 20.478 13.2042 22.7955C12.7711 25.113 13.0303 27.5067 13.9493 29.6778C14.8684 31.8489 16.4066 33.7012 18.3719 35.0034C20.3373 36.3056 22.6427 37.0001 25.0003 37ZM25.0003 14.5C25.9858 14.5 27.1108 15.385 28.0333 17.362C28.3588 18.061 28.6423 18.865 28.8718 19.75H21.1288C21.3583 18.865 21.6418 18.061 21.9688 17.362C22.8883 15.385 24.0133 14.5 25.0003 14.5ZM20.6083 16.7275C20.1653 17.6977 19.8221 18.7104 19.5838 19.75H15.9043C17.1706 17.5613 19.1821 15.9012 21.5713 15.073C21.2098 15.568 20.8873 16.129 20.6083 16.7275ZM19.2883 21.25C19.0942 22.4905 18.9979 23.7444 19.0003 25C19.0003 26.305 19.1008 27.568 19.2898 28.75H15.1903C14.7328 27.5527 14.499 26.2817 14.5003 25C14.5003 23.68 14.7448 22.414 15.1903 21.25H19.2898H19.2883ZM19.5838 30.25C19.8478 31.3645 20.1943 32.383 20.6083 33.2725C20.8873 33.871 21.2098 34.432 21.5713 34.927C19.1821 34.0988 17.1706 32.4387 15.9043 30.25H19.5853H19.5838ZM28.4293 15.073C30.8185 15.9011 32.83 17.5612 34.0963 19.75H30.4153C30.177 18.7104 29.8337 17.6977 29.3908 16.7275C29.1237 16.1463 28.8012 15.5923 28.4278 15.073H28.4293ZM38.5003 30.523C38.5003 27.4735 36.3028 25.0015 33.2518 25.0015C30.2023 25.0015 28.0003 27.4735 28.0003 30.523C28.0003 32.809 29.4733 35.818 32.8843 38.377C33.1018 38.542 33.4018 38.542 33.6193 38.377C37.0333 35.818 38.5003 32.809 38.5003 30.523ZM35.5003 30.25C35.5003 30.8467 35.2632 31.419 34.8413 31.841C34.4193 32.263 33.847 32.5 33.2503 32.5C32.6536 32.5 32.0813 32.263 31.6593 31.841C31.2373 31.419 31.0003 30.8467 31.0003 30.25C31.0003 29.6533 31.2373 29.081 31.6593 28.659C32.0813 28.2371 32.6536 28 33.2503 28C33.847 28 34.4193 28.2371 34.8413 28.659C35.2632 29.081 35.5003 29.6533 35.5003 30.25V30.25Z" fill="#F58220"/>
<defs>
<linearGradient id="paint0_linear_754_844" x1="-1.48027" y1="24.1926" x2="38.898" y2="24.1103" gradientUnits="userSpaceOnUse">
<stop stop-color="#F58220"/>
<stop offset="1" stop-color="#F58220" stop-opacity="0"/>
</linearGradient>
</defs>
</svg>
