<svg width="55" height="55" viewBox="0 0 55 55" fill="none" xmlns="http://www.w3.org/2000/svg">
<circle cx="27.5" cy="27.5" r="27.5" fill="#F58220" fill-opacity="0.1"/>
<path d="M27.5 15.75C24.1269 15.75 21.375 18.5019 21.375 21.875C21.375 23.9838 22.4512 25.8562 24.0822 26.9614C20.9611 28.3001 18.75 31.3976 18.75 35H20.5C20.5 31.1238 23.6238 28 27.5 28C28.7031 28 29.824 28.315 30.8084 28.8479C29.8008 30.0939 29.2508 31.6476 29.25 33.25C29.25 37.1053 32.3947 40.25 36.25 40.25C40.1053 40.25 43.25 37.1053 43.25 33.25C43.25 29.3947 40.1053 26.25 36.25 26.25C34.7754 26.2513 33.3391 26.7203 32.148 27.5896C31.7549 27.3482 31.3436 27.1379 30.9178 26.9605C31.7502 26.3986 32.4322 25.6412 32.9042 24.7546C33.3761 23.8681 33.6236 22.8794 33.625 21.875C33.625 18.5019 30.8731 15.75 27.5 15.75ZM27.5 17.5C29.9264 17.5 31.875 19.4486 31.875 21.875C31.875 24.3014 29.9264 26.25 27.5 26.25C25.0736 26.25 23.125 24.3014 23.125 21.875C23.125 19.4486 25.0736 17.5 27.5 17.5ZM36.25 28C39.1585 28 41.5 30.3415 41.5 33.25C41.5 36.1585 39.1585 38.5 36.25 38.5C33.3415 38.5 31 36.1585 31 33.25C31 30.3415 33.3415 28 36.25 28ZM39.1209 30.8709L36.25 33.7426L34.2541 31.7459L32.9959 33.0041L35.6209 35.6291L36.25 36.2303L36.8791 35.6291L40.3791 32.1291L39.1209 30.8709Z" fill="#F58220"/>
</svg>
