<svg width="55" height="55" viewBox="0 0 55 55" fill="none" xmlns="http://www.w3.org/2000/svg">
<circle cx="27.5" cy="27.5" r="27.5" fill="#F58220" fill-opacity="0.1"/>
<path d="M31.625 39.0303L28.9541 36.3594L27.5 37.8134L31.625 41.9384L39.875 33.6884L38.4209 32.2344L31.625 39.0303Z" fill="#F58220"/>
<path d="M21.3125 39.875V21.3125H33.6875V30.5938H35.75V17.1875C35.7495 16.6407 35.532 16.1164 35.1453 15.7297C34.7586 15.343 34.2343 15.1255 33.6875 15.125H21.3125C20.7657 15.1255 20.2414 15.343 19.8547 15.7297C19.468 16.1164 19.2505 16.6407 19.25 17.1875V39.875C19.2505 40.4218 19.468 40.9461 19.8547 41.3328C20.2414 41.7195 20.7657 41.937 21.3125 41.9375H25.4375V39.875H21.3125ZM21.3125 17.1875H33.6875V19.25H21.3125V17.1875Z" fill="#F58220"/>
</svg>
