<svg width="127" height="143" viewBox="0 0 127 143" fill="none" xmlns="http://www.w3.org/2000/svg">
<circle cx="43" cy="71" r="36" fill="url(#paint0_linear_746_839)" fill-opacity="0.25"/>
<path d="M0 139.691C0 139.691 71.0944 91.9574 88.5674 18.6416L127 0C127 0 112.853 84.7348 2.48474 143L0 139.691Z" fill="#F08200"/>
<path d="M39.029 29.7236C39.0716 29.6378 39.138 29.5655 39.2205 29.5149C39.303 29.4643 39.3984 29.4375 39.4957 29.4375C39.593 29.4375 39.6883 29.4643 39.7708 29.5149C39.8533 29.5655 39.9197 29.6378 39.9623 29.7236L41.8115 33.3994C41.8485 33.4738 41.9034 33.5381 41.9715 33.587C42.0396 33.6358 42.1189 33.6677 42.2023 33.6797L46.344 34.269C46.7669 34.3291 46.939 34.8411 46.6298 35.1358L43.6373 37.9992C43.5769 38.057 43.5318 38.1284 43.5059 38.2071C43.48 38.2859 43.4741 38.3697 43.4886 38.4512L44.1944 42.496C44.2103 42.5894 44.1992 42.6853 44.1626 42.7729C44.126 42.8605 44.0651 42.9364 43.987 42.9919C43.9088 43.0475 43.8164 43.0806 43.7201 43.0875C43.6238 43.0944 43.5275 43.0748 43.4419 43.031L39.7377 41.1201C39.6635 41.082 39.5809 41.0621 39.4971 41.0621C39.4133 41.0621 39.3307 41.082 39.2565 41.1201L35.5523 43.031C35.4668 43.074 35.3709 43.093 35.275 43.0857C35.1792 43.0784 35.0874 43.0452 35.0097 42.9897C34.932 42.9343 34.8715 42.8588 34.8349 42.7716C34.7984 42.6845 34.7873 42.589 34.8027 42.496L35.5086 38.4512C35.5235 38.3699 35.518 38.2863 35.4926 38.2075C35.4671 38.1288 35.4226 38.0573 35.3627 37.9992L32.3586 35.1358C32.2898 35.0695 32.2411 34.9858 32.2181 34.8939C32.1951 34.8021 32.1986 34.7057 32.2283 34.6157C32.258 34.5257 32.3126 34.4456 32.3861 34.3844C32.4596 34.3232 32.5491 34.2832 32.6444 34.269L36.7861 33.6797C36.8695 33.6677 36.9487 33.6358 37.0168 33.587C37.0849 33.5381 37.1399 33.4738 37.1769 33.3994L39.029 29.7236Z" fill="#F58220"/>
<path d="M22 23.7212C22 22.2038 22.6146 20.7486 23.7085 19.6757C24.8025 18.6028 26.2862 18 27.8333 18H51.1667C52.7138 18 54.1975 18.6028 55.2915 19.6757C56.3854 20.7486 57 22.2038 57 23.7212V62.3389C56.9999 62.5977 56.9282 62.8515 56.7926 63.0734C56.657 63.2953 56.4626 63.477 56.23 63.5991C55.9974 63.7213 55.7355 63.7792 55.472 63.7669C55.2085 63.7545 54.9534 63.6723 54.7337 63.5289L39.5 55.4764L24.2662 63.5289C24.0466 63.6723 23.7915 63.7545 23.528 63.7669C23.2645 63.7792 23.0026 63.7213 22.77 63.5991C22.5374 63.477 22.343 63.2953 22.2074 63.0734C22.0718 62.8515 22.0001 62.5977 22 62.3389V23.7212ZM27.8333 20.8606C27.0598 20.8606 26.3179 21.162 25.7709 21.6984C25.224 22.2349 24.9167 22.9625 24.9167 23.7212V59.6672L38.6921 52.5672C38.9314 52.411 39.2125 52.3277 39.5 52.3277C39.7875 52.3277 40.0686 52.411 40.3079 52.5672L54.0833 59.6672V23.7212C54.0833 22.9625 53.776 22.2349 53.2291 21.6984C52.6821 21.162 51.9402 20.8606 51.1667 20.8606H27.8333Z" fill="#F58220"/>
<defs>
<linearGradient id="paint0_linear_746_839" x1="4.86841" y1="69.8373" x2="63.0131" y2="69.7189" gradientUnits="userSpaceOnUse">
<stop stop-color="#F58220"/>
<stop offset="1" stop-color="#F58220" stop-opacity="0"/>
</linearGradient>
</defs>
</svg>
