<svg width="55" height="55" viewBox="0 0 55 55" fill="none" xmlns="http://www.w3.org/2000/svg">
<circle cx="27.5" cy="27.5" r="27.5" fill="#F58220" fill-opacity="0.1"/>
<path d="M17 18C15.355 18 14 19.355 14 21V35C14 36.645 15.355 38 17 38H39C40.645 38 42 36.645 42 35V21C42 19.355 40.645 18 39 18H17ZM17 20H39C39.566 20 40 20.434 40 21V35C40 35.566 39.566 36 39 36H17C16.434 36 16 35.566 16 35V21C16 20.434 16.434 20 17 20ZM23 22C20.8 22 19 23.8 19 26C19 27.113 19.477 28.117 20.219 28.844C19.5383 29.3033 18.9803 29.9221 18.5935 30.6465C18.2068 31.3709 18.003 32.1788 18 33H20C20 31.332 21.332 30 23 30C24.668 30 26 31.332 26 33H28C27.997 32.1788 27.7932 31.3709 27.4065 30.6465C27.0197 29.9221 26.4617 29.3033 25.781 28.844C26.523 28.117 27 27.114 27 26C27 23.8 25.2 22 23 22ZM30 23V25H38V23H30ZM23 24C24.117 24 25 24.883 25 26C25 27.117 24.117 28 23 28C21.883 28 21 27.117 21 26C21 24.883 21.883 24 23 24ZM30 27V29H38V27H30ZM30 31V33H35V31H30Z" fill="#F58220"/>
</svg>
