<svg width="36" height="36" viewBox="0 0 36 36" fill="none" xmlns="http://www.w3.org/2000/svg">
<circle cx="18" cy="18" r="17.5" fill="#F58220" fill-opacity="0.1" stroke="#F58220"/>
<path d="M15.8611 25.0009C15.7239 25.0004 15.5884 24.9718 15.4628 24.9168C15.3372 24.8617 15.2243 24.7814 15.1311 24.6809L10.2711 19.5109C10.0894 19.3173 9.99207 19.0594 10.0005 18.7941C10.0089 18.5287 10.1225 18.2776 10.3161 18.0959C10.5097 17.9142 10.7675 17.8169 11.0329 17.8253C11.2982 17.8338 11.5494 17.9473 11.7311 18.1409L15.8511 22.5309L24.2611 13.3309C24.3464 13.2246 24.4526 13.1369 24.5731 13.0732C24.6935 13.0094 24.8258 12.971 24.9617 12.9602C25.0975 12.9494 25.2342 12.9665 25.3632 13.0104C25.4922 13.0544 25.6109 13.1242 25.7119 13.2157C25.813 13.3072 25.8943 13.4184 25.9508 13.5424C26.0073 13.6665 26.0378 13.8007 26.0406 13.937C26.0433 14.0733 26.0181 14.2087 25.9666 14.3349C25.9151 14.4611 25.8384 14.5754 25.7411 14.6709L16.6011 24.6709C16.5087 24.7732 16.3962 24.8554 16.2706 24.9122C16.1449 24.969 16.0089 24.9992 15.8711 25.0009H15.8611Z" fill="#F58220"/>
</svg>
