<svg width="55" height="55" viewBox="0 0 55 55" fill="none" xmlns="http://www.w3.org/2000/svg">
<circle cx="27.5" cy="27.5" r="27.5" fill="#F58220" fill-opacity="0.1"/>
<path d="M37 19V17H21V19H26.5C27.6037 19.0032 28.6676 19.4129 29.4884 20.1507C30.3092 20.8886 30.8296 21.9029 30.95 23H21V25H30.95C30.8296 26.0971 30.3092 27.1114 29.4884 27.8493C28.6676 28.5871 27.6037 28.9968 26.5 29H21V31.345L30.617 40L31.955 38.514L23.606 31H26.5C28.1361 30.9976 29.7112 30.3787 30.9113 29.2667C32.1113 28.1546 32.8482 26.6312 32.975 25H37V23H32.975C32.8603 21.4984 32.2255 20.0839 31.18 19H37Z" fill="#F58220"/>
</svg>
