<svg width="50" height="50" viewBox="0 0 50 50" fill="none" xmlns="http://www.w3.org/2000/svg">
<circle cx="25" cy="25" r="25" fill="url(#paint0_linear_754_841)" fill-opacity="0.25"/>
<path d="M19.1284 16.897C20.4386 16.897 21.4315 17.3853 22.1069 18.3618C22.7824 19.3302 23.1201 20.7015 23.1201 22.4756C23.1201 24.2415 22.7946 25.6209 22.1436 26.6138C21.5007 27.6066 20.4956 28.103 19.1284 28.103C17.8507 28.103 16.8783 27.6066 16.2109 26.6138C15.5436 25.6209 15.21 24.2415 15.21 22.4756C15.21 20.7015 15.5233 19.3302 16.1499 18.3618C16.7847 17.3853 17.7775 16.897 19.1284 16.897ZM19.1406 18.8989C18.6117 18.8989 18.221 19.196 17.9687 19.79C17.7246 20.3841 17.6025 21.2834 17.6025 22.4878C17.6025 23.6841 17.7246 24.5874 17.9687 25.1978C18.221 25.8 18.6117 26.1011 19.1406 26.1011C19.6777 26.1011 20.0765 25.8 20.3369 25.1978C20.6055 24.5955 20.7397 23.6922 20.7397 22.4878C20.7397 21.2915 20.6095 20.3963 20.3491 19.8022C20.0887 19.2 19.6859 18.8989 19.1406 18.8989ZM31.1157 17.1533L21.2158 35H18.8599L28.7598 17.1533H31.1157ZM30.7861 24.0381C32.0964 24.0381 33.0892 24.5264 33.7646 25.5029C34.4482 26.4714 34.79 27.8426 34.79 29.6167C34.79 31.3745 34.4645 32.7498 33.8135 33.7427C33.1706 34.7355 32.1615 35.2319 30.7861 35.2319C29.5085 35.2319 28.536 34.7355 27.8687 33.7427C27.2013 32.7498 26.8677 31.3745 26.8677 29.6167C26.8677 27.8426 27.181 26.4714 27.8076 25.5029C28.4424 24.5264 29.4352 24.0381 30.7861 24.0381ZM30.7983 26.04C30.2694 26.04 29.8787 26.3371 29.6265 26.9312C29.3823 27.5252 29.2603 28.4245 29.2603 29.6289C29.2603 30.8252 29.3823 31.7285 29.6265 32.3389C29.8787 32.9411 30.2694 33.2422 30.7983 33.2422C31.3436 33.2422 31.7464 32.9451 32.0068 32.3511C32.2673 31.7489 32.3975 30.8415 32.3975 29.6289C32.3975 28.4326 32.2673 27.5374 32.0068 26.9434C31.7464 26.3411 31.3436 26.04 30.7983 26.04Z" fill="#F58220"/>
<defs>
<linearGradient id="paint0_linear_754_841" x1="-1.48027" y1="24.1926" x2="38.898" y2="24.1103" gradientUnits="userSpaceOnUse">
<stop stop-color="#F58220"/>
<stop offset="1" stop-color="#F58220" stop-opacity="0"/>
</linearGradient>
</defs>
</svg>
