<?xml version="1.0" encoding="utf-8"?>
<!-- Generator: Adobe Illustrator 24.1.2, SVG Export Plug-In . SVG Version: 6.00 Build 0)  -->
<svg version="1.1" id="Layer_1" xmlns="http://www.w3.org/2000/svg" xmlns:xlink="http://www.w3.org/1999/xlink" x="0px" y="0px"
	 viewBox="0 0 98 98" style="enable-background:new 0 0 98 98;" xml:space="preserve">
<style type="text/css">
	.st0{fill:#FFFFFF;}
</style>
<path class="st0" d="M86.4,80.6C86.5,80.6,86.5,80.5,86.4,80.6C93.7,72,98,61,98,49s-4.3-23-11.5-31.5c0,0-0.1-0.1-0.1-0.1
	c-0.1-0.1-0.2-0.3-0.3-0.4c0-0.1-0.1-0.1-0.1-0.2l-0.4-0.5l0,0c-0.2-0.2-0.3-0.4-0.5-0.6l0,0c-0.3-0.4-0.7-0.7-1.1-1.1l0,0l-0.5-0.5
	l0,0c-0.2-0.2-0.3-0.3-0.5-0.5c-0.1-0.1-0.1-0.1-0.2-0.2c-0.1-0.1-0.2-0.2-0.3-0.3c0,0-0.1-0.1-0.1-0.1C73.5,4.9,61.9,0,49,0
	S24.5,4.9,15.7,13c0,0-0.1,0.1-0.1,0.1c-0.1,0.1-0.2,0.2-0.3,0.3c-0.1,0.1-0.1,0.1-0.2,0.2c-0.2,0.2-0.3,0.3-0.5,0.5l0,0l-0.5,0.5
	l0,0c-0.4,0.4-0.7,0.7-1.1,1.1l0,0c-0.2,0.2-0.3,0.4-0.5,0.6l0,0c-0.2,0.2-0.3,0.3-0.4,0.5c0,0.1-0.1,0.1-0.1,0.2
	c-0.1,0.1-0.2,0.3-0.4,0.4c0,0-0.1,0.1-0.1,0.1C4.3,26,0,37,0,49s4.3,23,11.5,31.5c0,0,0.1,0.1,0.1,0.1l0.3,0.4
	c0,0.1,0.1,0.1,0.1,0.2l0.4,0.5c0,0,0,0,0,0c0.2,0.2,0.3,0.4,0.5,0.5l0,0c0.4,0.4,0.7,0.7,1.1,1.1l0,0c0.2,0.2,0.3,0.3,0.5,0.5l0,0
	c0.4,0.4,0.7,0.7,1.1,1.1c8.8,8.1,20.5,13,33.3,13s24.5-4.9,33.3-13c0.4-0.3,0.7-0.7,1.1-1.1l0,0c0.2-0.2,0.3-0.3,0.5-0.5l0,0
	c0.4-0.4,0.7-0.7,1-1.1l0,0c0.2-0.2,0.3-0.4,0.5-0.5c0,0,0,0,0,0c0.2-0.2,0.3-0.3,0.4-0.5c0-0.1,0.1-0.1,0.1-0.2
	C86.2,80.9,86.3,80.7,86.4,80.6L86.4,80.6z M86.9,65c-1.5,3.6-3.5,6.9-5.9,9.9c-2.7-2.4-5.7-4.4-8.9-6.1c1.3-5.1,2.1-10.8,2.3-16.7
	H90C89.7,56.5,88.6,60.9,86.9,65z M90,45.9H74.3c-0.2-5.9-1-11.6-2.3-16.7c3.2-1.7,6.2-3.8,8.9-6.1C86.2,29.6,89.4,37.6,90,45.9
	L90,45.9z M65,11.1c4.3,1.8,8.3,4.4,11.8,7.6c-2,1.7-4.2,3.3-6.5,4.6c-1.7-4.9-3.9-9.2-6.5-12.6C64.2,10.8,64.6,10.9,65,11.1z
	 M55.1,87.7c-1,0.8-2,1.4-3,1.8V69.2c4.3,0.3,8.6,1.3,12.7,2.9c-0.9,2.7-2,5.2-3.2,7.4C59.6,83.1,57.4,85.9,55.1,87.7z M61.5,18.5
	c1.2,2.3,2.3,4.7,3.2,7.4c-4,1.6-8.3,2.6-12.7,2.9V8.5c1,0.4,2,1,3,1.8C57.4,12.1,59.6,14.9,61.5,18.5L61.5,18.5z M52.1,63.1v-11
	h16.1c-0.2,4.8-0.8,9.5-1.8,14l0,0.1C61.8,64.4,57,63.4,52.1,63.1L52.1,63.1z M52.1,45.9v-11c5-0.3,9.8-1.4,14.3-3.1l0,0.1
	c1,4.5,1.6,9.1,1.8,14H52.1z M45.9,52.1v11c-5,0.3-9.8,1.4-14.3,3.1l0-0.1c-1-4.5-1.6-9.1-1.8-14H45.9z M29.8,45.9
	c0.2-4.8,0.8-9.5,1.8-14l0-0.1c4.5,1.7,9.3,2.8,14.3,3.1v11H29.8z M45.9,69.2v20.3c-1-0.4-2-1-3-1.8c-2.3-1.8-4.6-4.7-6.5-8.2
	c-1.2-2.3-2.3-4.7-3.2-7.4C37.3,70.5,41.6,69.5,45.9,69.2z M45.9,28.8c-4.3-0.3-8.6-1.3-12.7-2.9c0.9-2.7,2-5.2,3.2-7.4
	c1.9-3.5,4.1-6.4,6.5-8.2c1-0.8,2-1.4,3-1.8L45.9,28.8L45.9,28.8z M33,11.1c0.4-0.2,0.8-0.3,1.2-0.5c-2.6,3.4-4.8,7.7-6.5,12.6
	c-2.3-1.3-4.5-2.8-6.5-4.6C24.7,15.5,28.7,12.9,33,11.1L33,11.1z M11.1,33c1.5-3.6,3.5-6.9,5.9-9.9c2.7,2.4,5.7,4.4,8.9,6.1
	c-1.3,5.1-2.1,10.8-2.3,16.7H8C8.3,41.5,9.4,37.1,11.1,33z M8,52.1h15.7c0.2,5.9,1,11.6,2.3,16.7c-3.2,1.7-6.2,3.8-8.9,6.1
	C11.8,68.4,8.6,60.4,8,52.1L8,52.1z M33,86.9c-4.3-1.8-8.3-4.4-11.8-7.6c2-1.7,4.2-3.2,6.5-4.6c1.7,4.9,3.9,9.2,6.5,12.6
	C33.8,87.2,33.4,87.1,33,86.9z M65,86.9c-0.4,0.2-0.8,0.3-1.2,0.5c2.6-3.4,4.8-7.7,6.5-12.6c2.3,1.3,4.5,2.8,6.5,4.6
	C73.3,82.5,69.3,85.1,65,86.9L65,86.9z"/>
</svg>
