<?xml version="1.0" encoding="utf-8"?>
<!-- Generator: Adobe Illustrator 24.1.2, SVG Export Plug-In . SVG Version: 6.00 Build 0)  -->
<svg version="1.1" id="Layer_1" xmlns="http://www.w3.org/2000/svg" xmlns:xlink="http://www.w3.org/1999/xlink" x="0px" y="0px"
	 viewBox="0 0 108 93" style="enable-background:new 0 0 108 93;" xml:space="preserve">
<style type="text/css">
	.st0{fill:#FFFFFF;}
</style>
<path class="st0" d="M37,71.5H14.8c-0.9,0-1.9-0.4-2.5-1c-0.7-0.7-1-1.6-1-2.5V7.4H4.1c-0.9,0-1.9-0.4-2.5-1c-0.7-0.7-1-1.6-1-2.5
	s0.4-1.9,1-2.5c0.7-0.7,1.6-1,2.5-1h99.8c0.9,0,1.9,0.4,2.5,1c0.7,0.7,1,1.6,1,2.5s-0.4,1.9-1,2.5s-1.6,1-2.5,1h-7.1v60.6
	c0,0.9-0.4,1.9-1,2.5c-0.7,0.7-1.6,1-2.5,1H71.1l12.3,21.4h-8.2L62.8,71.5H45.2L32.9,92.9h-8.2L37,71.5z M89.6,7.4H18.4v57h71.3V7.4
	z M35.1,45.5c-0.3,0.3-0.7,0.6-1.2,0.8c-0.4,0.2-0.9,0.3-1.4,0.3s-0.9-0.1-1.4-0.3c-0.4-0.2-0.8-0.4-1.2-0.8
	c-0.3-0.3-0.6-0.7-0.8-1.2c-0.2-0.4-0.3-0.9-0.3-1.4s0.1-0.9,0.3-1.4c0.2-0.4,0.4-0.8,0.8-1.2L46.5,24l14,10.5l12.1-15.1
	c0.3-0.4,0.6-0.7,1.1-1c0.4-0.2,0.9-0.4,1.4-0.5c0.5-0.1,1,0,1.4,0.1s0.9,0.4,1.3,0.7c0.4,0.3,0.7,0.7,0.9,1.1s0.4,0.9,0.4,1.4
	c0,0.5,0,1-0.2,1.4c-0.2,0.5-0.4,0.9-0.7,1.2L61.8,44.4L47.2,33.5L35.1,45.5L35.1,45.5z"/>
</svg>
