<svg width="89" height="89" viewBox="0 0 89 89" fill="none" xmlns="http://www.w3.org/2000/svg">
<circle cx="44.1081" cy="44.1081" r="44.1081" fill="url(#paint0_linear_498_211)"/>
<path d="M60.7553 26.5312H43.3877C42.9884 26.5312 42.6641 26.8546 42.6641 27.2549C42.6641 27.6552 42.9884 27.9785 43.3877 27.9785H60.7553C61.1546 27.9785 61.4789 27.6552 61.4789 27.2549C61.4789 26.8546 61.1546 26.5312 60.7553 26.5312Z" fill="#F08200"/>
<path d="M47.7315 52.582C47.3322 52.582 47.0078 52.9054 47.0078 53.3057C47.0078 53.7059 47.3322 54.0293 47.7315 54.0293H53.5207C53.9199 54.0293 54.2443 53.7059 54.2443 53.3057C54.2443 52.9054 53.9199 52.582 53.5207 52.582H47.7315Z" fill="#F08200"/>
<path d="M60.755 35.2148H54.9658C54.5665 35.2148 54.2422 35.5382 54.2422 35.9385C54.2422 36.3388 54.5665 36.6621 54.9658 36.6621H60.755C61.1543 36.6621 61.4787 36.3388 61.4787 35.9385C61.4787 35.5382 61.1543 35.2148 60.755 35.2148Z" fill="#F08200"/>
<path d="M43.3877 36.6621H52.0715C52.4708 36.6621 52.7951 36.3388 52.7951 35.9385C52.7951 35.5382 52.4708 35.2148 52.0715 35.2148H43.3877C42.9884 35.2148 42.6641 35.5382 42.6641 35.9385C42.6641 36.3388 42.9884 36.6621 43.3877 36.6621Z" fill="#F08200"/>
<path d="M60.7571 39.5586H47.7315C47.3322 39.5586 47.0078 39.882 47.0078 40.2822C47.0078 40.6825 47.3322 41.0059 47.7315 41.0059H60.7571C61.1564 41.0059 61.4808 40.6825 61.4808 40.2822C61.4808 39.882 61.1564 39.5586 60.7571 39.5586Z" fill="#F08200"/>
<path d="M54.9679 48.9658C54.9679 48.5656 54.6436 48.2422 54.2443 48.2422H47.7315C47.3322 48.2422 47.0078 48.5656 47.0078 48.9658C47.0078 49.3661 47.3322 49.6895 47.7315 49.6895H54.2443C54.6436 49.6895 54.9679 49.3661 54.9679 48.9658Z" fill="#F08200"/>
<path d="M43.3877 32.3223H49.1769C49.5762 32.3223 49.9005 31.9989 49.9005 31.5986C49.9005 31.1984 49.5762 30.875 49.1769 30.875H43.3877C42.9884 30.875 42.6641 31.1984 42.6641 31.5986C42.6641 31.9989 42.9884 32.3223 43.3877 32.3223Z" fill="#F08200"/>
<path d="M60.7551 30.875H52.0713C51.672 30.875 51.3477 31.1984 51.3477 31.5986C51.3477 31.9989 51.672 32.3223 52.0713 32.3223H60.7551C61.1544 32.3223 61.4787 31.9989 61.4787 31.5986C61.4787 31.1984 61.1544 30.875 60.7551 30.875Z" fill="#F08200"/>
<path d="M60.755 45.346C61.1543 45.346 61.4787 45.0226 61.4787 44.6223C61.4787 44.2221 61.1543 43.8987 60.755 43.8987H54.9658C54.5665 43.8987 54.2422 44.2221 54.2422 44.6223C54.2422 45.0226 54.5665 45.346 54.9658 45.346H60.755Z" fill="#F08200"/>
<path d="M47.7315 45.3457H52.797C53.1963 45.3457 53.5207 45.0224 53.5207 44.6221C53.5207 44.2218 53.1963 43.8984 52.797 43.8984H47.7315C47.3322 43.8984 47.0078 44.2218 47.0078 44.6221C47.0078 45.0224 47.3322 45.3457 47.7315 45.3457Z" fill="#F08200"/>
<path d="M65.8135 49.7337C65.8148 49.7179 65.8229 49.704 65.8229 49.6881V22.9131C65.8229 21.7162 64.8489 20.7422 63.6519 20.7422H40.4952C39.2982 20.7422 38.3242 21.7162 38.3242 22.9131V34.4915C38.3242 34.8918 38.6486 35.2152 39.0479 35.2152C39.4472 35.2152 39.7715 34.8918 39.7715 34.4915V22.9131C39.7715 22.5138 40.0965 22.1895 40.4952 22.1895H63.6519C64.0506 22.1895 64.3756 22.5138 64.3756 22.9131V48.9645H58.5864C57.3894 48.9645 56.4154 49.9385 56.4154 51.1354V56.9246H47.7317C47.3324 56.9246 47.008 57.248 47.008 57.6483C47.008 58.0485 47.3324 58.3719 47.7317 58.3719H57.1391C57.2337 58.3719 57.3271 58.3532 57.4146 58.317C57.5022 58.2808 57.5826 58.2278 57.6505 58.16L65.6106 50.1999C65.673 50.1375 65.7169 50.0651 65.7524 49.9879C65.7625 49.9656 65.7692 49.943 65.777 49.9191C65.7977 49.859 65.8099 49.7973 65.8135 49.7337L65.8135 49.7337ZM57.8627 55.9015V51.1354C57.8627 50.7361 58.1877 50.4118 58.5864 50.4118H63.3524L57.8627 55.9015Z" fill="#666666"/>
<path d="M41.9409 36.6641H26.0206C24.0254 36.6641 22.4023 38.2871 22.4023 40.2823V60.5445C22.4023 62.5397 24.0254 64.1627 26.0206 64.1627H41.9409C43.9361 64.1627 45.5591 62.5397 45.5591 60.5445V40.2823C45.5591 38.2871 43.9361 36.6641 41.9409 36.6641ZM44.1118 60.5445C44.1118 61.7414 43.1378 62.7154 41.9409 62.7154H26.0206C24.8236 62.7154 23.8496 61.7414 23.8496 60.5445V40.2823C23.8496 39.0853 24.8236 38.1114 26.0206 38.1114H41.9409C43.1378 38.1114 44.1118 39.0853 44.1118 40.2823V60.5445Z" fill="#666666"/>
<path d="M39.7689 40.2812H28.1905C26.9935 40.2812 26.0195 41.2552 26.0195 42.4522V44.6231C26.0195 45.8201 26.9935 46.7941 28.1905 46.7941H39.7689C40.9658 46.7941 41.9398 45.8201 41.9398 44.6231V42.4522C41.9398 41.2552 40.9658 40.2812 39.7689 40.2812ZM40.4925 44.6231C40.4925 45.0224 40.1675 45.3468 39.7689 45.3468H28.1905C27.7918 45.3468 27.4668 45.0224 27.4668 44.6231V42.4522C27.4668 42.0529 27.7918 41.7285 28.1905 41.7285H39.7689C40.1675 41.7285 40.4925 42.0529 40.4925 42.4522V44.6231Z" fill="#666666"/>
<path d="M41.2178 49.6875H39.7705C39.3712 49.6875 39.0469 50.0109 39.0469 50.4111C39.0469 50.8114 39.3712 51.1348 39.7705 51.1348H41.2178C41.6171 51.1348 41.9415 50.8114 41.9415 50.4111C41.9415 50.0109 41.6171 49.6875 41.2178 49.6875Z" fill="#666666"/>
<path d="M41.2178 54.0312H39.7705C39.3712 54.0312 39.0469 54.3546 39.0469 54.7549C39.0469 55.1552 39.3712 55.4785 39.7705 55.4785H41.2178C41.6171 55.4785 41.9415 55.1552 41.9415 54.7549C41.9415 54.3546 41.6171 54.0312 41.2178 54.0312Z" fill="#666666"/>
<path d="M41.2178 58.3711H39.7705C39.3712 58.3711 39.0469 58.6945 39.0469 59.0947C39.0469 59.495 39.3712 59.8184 39.7705 59.8184H41.2178C41.6171 59.8184 41.9415 59.495 41.9415 59.0947C41.9415 58.6945 41.6171 58.3711 41.2178 58.3711Z" fill="#666666"/>
<path d="M36.8741 49.6875H35.4268C35.0275 49.6875 34.7031 50.0109 34.7031 50.4111C34.7031 50.8114 35.0275 51.1348 35.4268 51.1348H36.8741C37.2734 51.1348 37.5977 50.8114 37.5977 50.4111C37.5977 50.0109 37.2734 49.6875 36.8741 49.6875Z" fill="#666666"/>
<path d="M32.5342 49.6875H31.0869C30.6876 49.6875 30.3633 50.0109 30.3633 50.4111C30.3633 50.8114 30.6876 51.1348 31.0869 51.1348H32.5342C32.9335 51.1348 33.2579 50.8114 33.2579 50.4111C33.2579 50.0109 32.9335 49.6875 32.5342 49.6875Z" fill="#666666"/>
<path d="M28.1905 49.6875H26.7432C26.3439 49.6875 26.0195 50.0109 26.0195 50.4111C26.0195 50.8114 26.3439 51.1348 26.7432 51.1348H28.1905C28.5898 51.1348 28.9141 50.8114 28.9141 50.4111C28.9141 50.0109 28.5898 49.6875 28.1905 49.6875Z" fill="#666666"/>
<path d="M36.8741 54.0312H35.4268C35.0275 54.0312 34.7031 54.3546 34.7031 54.7549C34.7031 55.1552 35.0275 55.4785 35.4268 55.4785H36.8741C37.2734 55.4785 37.5977 55.1552 37.5977 54.7549C37.5977 54.3546 37.2734 54.0312 36.8741 54.0312Z" fill="#666666"/>
<path d="M32.5342 54.0312H31.0869C30.6876 54.0312 30.3633 54.3546 30.3633 54.7549C30.3633 55.1552 30.6876 55.4785 31.0869 55.4785H32.5342C32.9335 55.4785 33.2579 55.1552 33.2579 54.7549C33.2579 54.3546 32.9335 54.0312 32.5342 54.0312Z" fill="#666666"/>
<path d="M28.1905 54.0312H26.7432C26.3439 54.0312 26.0195 54.3546 26.0195 54.7549C26.0195 55.1552 26.3439 55.4785 26.7432 55.4785H28.1905C28.5898 55.4785 28.9141 55.1552 28.9141 54.7549C28.9141 54.3546 28.5898 54.0312 28.1905 54.0312Z" fill="#666666"/>
<path d="M36.8741 58.3711H35.4268C35.0275 58.3711 34.7031 58.6945 34.7031 59.0947C34.7031 59.495 35.0275 59.8184 35.4268 59.8184H36.8741C37.2734 59.8184 37.5977 59.495 37.5977 59.0947C37.5977 58.6945 37.2734 58.3711 36.8741 58.3711Z" fill="#666666"/>
<path d="M32.5342 58.3711H31.0869C30.6876 58.3711 30.3633 58.6945 30.3633 59.0947C30.3633 59.495 30.6876 59.8184 31.0869 59.8184H32.5342C32.9335 59.8184 33.2579 59.495 33.2579 59.0947C33.2579 58.6945 32.9335 58.3711 32.5342 58.3711Z" fill="#666666"/>
<path d="M28.1905 58.3711H26.7432C26.3439 58.3711 26.0195 58.6945 26.0195 59.0947C26.0195 59.495 26.3439 59.8184 26.7432 59.8184H28.1905C28.5898 59.8184 28.9141 59.495 28.9141 59.0947C28.9141 58.6945 28.5898 58.3711 28.1905 58.3711Z" fill="#666666"/>
<path d="M28.1924 29.4268H29.6397V30.8741C29.6397 31.2744 29.964 31.5978 30.3633 31.5978C30.7626 31.5978 31.087 31.2744 31.087 30.8741V29.4268H32.5343C32.9336 29.4268 33.2579 29.1035 33.2579 28.7032C33.2579 28.3029 32.9336 27.9795 32.5343 27.9795H31.087V26.5322C31.087 26.132 30.7626 25.8086 30.3633 25.8086C29.964 25.8086 29.6397 26.132 29.6397 26.5322V27.9795H28.1924C27.7931 27.9795 27.4688 28.3029 27.4688 28.7032C27.4688 29.1035 27.7931 29.4268 28.1924 29.4268Z" fill="#F08200"/>
<defs>
<linearGradient id="paint0_linear_498_211" x1="20.2162" y1="73.5135" x2="112.108" y2="73.5135" gradientUnits="userSpaceOnUse">
<stop stop-color="#F08200" stop-opacity="0.15"/>
<stop offset="1" stop-color="#C4C4C4" stop-opacity="0"/>
</linearGradient>
</defs>
</svg>
