<svg version="1.2" xmlns="http://www.w3.org/2000/svg" viewBox="0 0 57 20" width="57" height="20"><style>.a{fill:#1a3967}.b{fill:#fff}</style><path class="a" d="m0 2c0-1.1 0.9-2 2-2h53c1.1 0 2 0.9 2 2v16c0 1.1-0.9 2-2 2h-53c-1.1 0-2-0.9-2-2z"/><path fill-rule="evenodd" class="b" d="m22.8 14.1q-0.5 0-0.7-0.2-0.2-0.3-0.2-0.8v-6.6q0-1 0.9-1h4.1q0.8 0 0.8 0.8 0 0.7-0.8 0.7h-3.2v2.1h3q0.7 0 0.7 0.7 0 0.7-0.7 0.7h-3v2.6q0 1-0.9 1zm6.8 0q-0.4 0-0.7-0.2-0.2-0.3-0.2-0.8v-6.6q0-1 0.9-1h3q1.4 0 2.1 0.7 0.8 0.7 0.8 1.9 0 1-0.5 1.6-0.5 0.6-1.4 0.9 0.7 0.2 1.1 0.9l0.7 1.4q0.3 0.4 0.1 0.8-0.1 0.4-0.7 0.4-0.4 0-0.7-0.2-0.2-0.1-0.4-0.5l-1.2-2.1q-0.1-0.3-0.4-0.5-0.3-0.1-0.6-0.1h-0.9v2.4q0 0.5-0.3 0.8-0.2 0.2-0.7 0.2zm1-4.7h1.6q1.5 0 1.5-1.2 0-1.2-1.5-1.2h-1.6zm7.4 4.6q-0.9 0-0.9-1v-6.5q0-0.9 0.9-0.9h4.2q0.7 0 0.7 0.7 0 0.7-0.7 0.7h-3.4v2h3.1q0.8 0 0.8 0.7 0 0.7-0.8 0.7h-3.1v2.2h3.4q0.7 0 0.7 0.7 0 0.7-0.7 0.7zm7.3 0q-1 0-1-1v-6.5q0-0.9 1-0.9h4.2q0.7 0 0.7 0.7 0 0.7-0.7 0.7h-3.4v2h3.1q0.7 0 0.7 0.7 0 0.7-0.7 0.7h-3.1v2.2h3.4q0.7 0 0.7 0.7 0 0.7-0.7 0.7z"/><path class="b" d="m11 11l4.1-4.8q0.2-0.2 0.5-0.2 0.3 0 0.5 0.2 0.2 0.2 0.2 0.4 0 0.3-0.2 0.5l-4.6 5.3q-0.1 0.1-0.2 0.2-0.2 0.1-0.3 0.1-0.1 0-0.3-0.1-0.1 0-0.2-0.1l-2-2q-0.2-0.2-0.2-0.5 0-0.3 0.2-0.5 0.2-0.2 0.5-0.2 0.3 0 0.5 0.2z"/><path class="b" d="m17.5 9.5q0.2 0.2 0.2 0.5c0 1.8-0.7 3.5-2 4.7-1.2 1.3-2.9 2-4.7 2-1.8 0-3.4-0.7-4.7-2-0.9-0.9-1.5-2.1-1.8-3.4-0.3-1.3-0.1-2.6 0.4-3.8 0.5-1.2 1.3-2.3 2.4-3 1.1-0.8 2.4-1.2 3.7-1.2q0.8 0 1.6 0.2 0.1 0 0.2 0.1 0.1 0.1 0.2 0.2 0.1 0.1 0.1 0.3 0 0.1 0 0.2 0 0.2-0.1 0.3-0.1 0.1-0.2 0.2-0.1 0-0.3 0-0.1 0.1-0.2 0-0.7-0.1-1.3-0.1-1.1 0-2 0.4-1 0.4-1.8 1.1c-0.7 0.8-1.2 1.7-1.4 2.8-0.2 1-0.1 2.1 0.3 3 0.4 1 1.1 1.9 1.9 2.4 0.9 0.6 1.9 0.9 3 0.9 1.4 0 2.8-0.5 3.8-1.5 1-1 1.5-2.4 1.5-3.8q0-0.3 0.2-0.5 0.2-0.2 0.5-0.2 0.3 0 0.5 0.2z"/></svg>