<svg id="Layer_1" data-name="Layer 1" xmlns="http://www.w3.org/2000/svg" xmlns:xlink="http://www.w3.org/1999/xlink" viewBox="0 0 35 32"><defs><style>.cls-1{fill:none;}.cls-2{clip-path:url(#clip-path);}.cls-3{fill:#666;}.cls-4{fill:#f08200;}</style><clipPath id="clip-path"><rect class="cls-1" x="0.75" y="0.32" width="34" height="31"/></clipPath></defs><g class="cls-2"><path class="cls-3" d="M34.75,10.25A9.9,9.9,0,0,0,34,6.42,9.73,9.73,0,0,0,31.73,3.2a10.56,10.56,0,0,0-14.08-.36,10.51,10.51,0,0,0-14,.45A9.55,9.55,0,0,0,1.48,6.46a9.69,9.69,0,0,0-.73,3.76A10.46,10.46,0,0,0,3.8,17.59a2.83,2.83,0,0,0-.07,1.63,2.88,2.88,0,0,0,.82,1.41,3.17,3.17,0,0,0,2.18.87,2,2,0,0,0,.35,0,2.77,2.77,0,0,0,.12,1.34A2.86,2.86,0,0,0,8,24a3.16,3.16,0,0,0,2.17.86h.36a2.55,2.55,0,0,0,.12,1.34,2.67,2.67,0,0,0,.75,1.12,3.11,3.11,0,0,0,2.18.86l.36-.1a1.5,1.5,0,0,0,0,.3A3,3,0,0,0,14.43,30a3.15,3.15,0,0,0,3.1,1.32,3.13,3.13,0,0,0,1.58-.77l2-2.07a3.08,3.08,0,0,0,.58-.81,3.13,3.13,0,0,0,1.58,0,3.2,3.2,0,0,0,1.38-.77,2.77,2.77,0,0,0,.75-1.1,2.73,2.73,0,0,0,.12-1.33h.27A3.13,3.13,0,0,0,28,23.6a2.61,2.61,0,0,0,.76-1.12,2.7,2.7,0,0,0,.11-1.35,3.08,3.08,0,0,0,1.59-.21,3,3,0,0,0,1.26-1,3,3,0,0,0,.34-3A9.78,9.78,0,0,0,34.75,10.25ZM5.51,19.65A1.58,1.58,0,0,1,5,18.52a1.63,1.63,0,0,1,.45-1.15l0,0,2-2a1.78,1.78,0,0,1,2.47,0,1.52,1.52,0,0,1,.36.52,1.5,1.5,0,0,1,.13.62,1.67,1.67,0,0,1-.12.62,1.64,1.64,0,0,1-.35.52l0,0-2,2a1.78,1.78,0,0,1-2.46,0Zm3.4,3.28a1.61,1.61,0,0,1-.49-1.13,1.55,1.55,0,0,1,.45-1.14l0,0,2-2a1.8,1.8,0,0,1,1.23-.49,1.76,1.76,0,0,1,1.22.49,1.59,1.59,0,0,1,0,2.28l0,0-2,2a1.78,1.78,0,0,1-1.22.49A1.8,1.8,0,0,1,8.91,22.93Zm5.86,3.28a1.79,1.79,0,0,1-2.46,0A1.82,1.82,0,0,1,12,25.7a1.68,1.68,0,0,1-.13-.62,1.41,1.41,0,0,1,.11-.61,1.72,1.72,0,0,1,.34-.53l0,0,2-2a1.79,1.79,0,0,1,2.46,0A1.67,1.67,0,0,1,17.3,23a1.64,1.64,0,0,1-.46,1.15l0,0Zm5.5,1.35-2,2A1.74,1.74,0,0,1,15.4,29a1.85,1.85,0,0,1-.13-.66,1.72,1.72,0,0,1,.1-.64,1.77,1.77,0,0,1,.35-.55l2-2A1.81,1.81,0,0,1,19,24.69a1.87,1.87,0,0,1,1.24.51,1.61,1.61,0,0,1,.08,2.27l-.07.07Zm10.21-8.21a1.79,1.79,0,0,1-2.44,0,.68.68,0,0,0-.23-.14l-4.57-4.43a.68.68,0,0,0-.48-.16.66.66,0,0,0-.45.21.64.64,0,0,0-.19.45.67.67,0,0,0,.17.47l4.76,4.61a1.58,1.58,0,0,1,.06,2.25s0,0-.06.06a1.73,1.73,0,0,1-1.08.48,1.78,1.78,0,0,1-1.14-.31c0-.05-.09-.11-.14-.17l-4.77-4.6a.63.63,0,0,0-.46-.23A.67.67,0,0,0,19,18a.64.64,0,0,0-.23.46.67.67,0,0,0,.17.49L19,19l4.56,4.4a.8.8,0,0,0,.15.21,1.73,1.73,0,0,0,.21.17,1.57,1.57,0,0,1,.36,1,1.76,1.76,0,0,1-.14.65,1.78,1.78,0,0,1-.39.54,1.73,1.73,0,0,1-.75.41,1.79,1.79,0,0,1-.86,0,3.08,3.08,0,0,0-.23-1.16,2.89,2.89,0,0,0-.68-1,3.2,3.2,0,0,0-2.57-.85,2.62,2.62,0,0,0-.12-1.36,2.72,2.72,0,0,0-.77-1.12,3,3,0,0,0-1.17-.7,2.94,2.94,0,0,0-1.35-.14,2.69,2.69,0,0,0-.88-2.46,3,3,0,0,0-1.17-.7,3.25,3.25,0,0,0-1.35-.14A2.66,2.66,0,0,0,11,14.35a3.14,3.14,0,0,0-4.34,0l-2,2a9.07,9.07,0,0,1-2.46-6.18,8.23,8.23,0,0,1,2.48-6,9.14,9.14,0,0,1,12.06-.49l-4.15,4a2.8,2.8,0,0,0-.7.87,2.88,2.88,0,0,0-.32,1.07,2.78,2.78,0,0,0,.13,1.11,2.7,2.7,0,0,0,.54,1l.23.24a3.16,3.16,0,0,0,4.33,0l4.44-4.29,4.76,4.73,4.6,4.54a1.59,1.59,0,0,1,0,2.25Zm.74-3.51-4.36-4.3L21.64,6.38l-.1-.07-.12-.08h-.13a.39.39,0,0,0-.26,0H20.9l-.11.07-.11.08L15.76,11.1a1.76,1.76,0,0,1-2.44,0,1.4,1.4,0,0,1-.36-.51,1.67,1.67,0,0,1-.12-.62A1.6,1.6,0,0,1,13,9.33a1.51,1.51,0,0,1,.42-.52l4.71-4.56a9.2,9.2,0,0,1,12.65-.1,8.41,8.41,0,0,1,.45,11.69Z"/></g><rect class="cls-4" x="13.1" y="7.35" width="6.72" height="1.62" rx="0.81" transform="translate(-0.95 14.03) rotate(-45)"/><rect class="cls-4" x="5.52" y="16.65" width="4.42" height="1.62" rx="0.81" transform="translate(-10.08 10.58) rotate(-45)"/><rect class="cls-4" x="8.96" y="19.91" width="4.42" height="1.62" rx="0.81" transform="translate(-11.38 13.97) rotate(-45)"/><rect class="cls-4" x="12.44" y="23.1" width="4.42" height="1.62" rx="0.81" transform="translate(-12.61 17.37) rotate(-45)"/><rect class="cls-4" x="15.88" y="26.53" width="4.42" height="1.62" rx="0.81" transform="translate(-14.03 20.8) rotate(-45)"/></svg>