<svg width="40" height="59" viewBox="0 0 40 59" fill="none" xmlns="http://www.w3.org/2000/svg">
<path d="M36.415 13.3832H32.8571C32.3721 11.0505 31.3533 8.85937 29.8792 6.97893H36.415C37.2714 6.99928 38.1009 6.68142 38.721 6.09529C39.3411 5.50916 39.701 4.70277 39.7215 3.85352C39.742 3.00426 39.4215 2.18171 38.8304 1.56682C38.2393 0.951921 37.4261 0.595048 36.5697 0.574707H4.16169C3.30525 0.574707 2.48389 0.912072 1.8783 1.51258C1.2727 2.1131 0.932478 2.92757 0.932478 3.77682C0.932478 4.62607 1.2727 5.44054 1.8783 6.04106C2.48389 6.64157 3.30525 6.97893 4.16169 6.97893H17.0591C19.0554 6.98543 21.0007 7.60452 22.6279 8.75119C24.2551 9.89787 25.4845 11.5159 26.1473 13.3832H4.16169C3.30525 13.3832 2.48389 13.7205 1.8783 14.321C1.2727 14.9216 0.932478 15.736 0.932478 16.5853C0.932478 17.4345 1.2727 18.249 1.8783 18.8495C2.48389 19.45 3.30525 19.7874 4.16169 19.7874H26.1473C25.4813 21.6511 24.2506 23.265 22.6236 24.408C20.9966 25.5511 19.0531 26.1674 17.0591 26.1724H4.14235C3.61155 26.1732 3.08913 26.3038 2.62132 26.5525C2.15352 26.8012 1.75476 27.1604 1.46033 27.5983C1.16589 28.0363 0.984853 28.5395 0.93326 29.0633C0.881666 29.5872 0.9611 30.1156 1.16452 30.6017C1.32488 30.994 1.56896 31.3472 1.87998 31.6371L27.7522 57.2349C28.3574 57.8375 29.1791 58.177 30.0368 58.1788C30.8944 58.1806 31.7176 57.8445 32.3253 57.2444C32.933 56.6444 33.2754 55.8295 33.2773 54.9791C33.2791 54.1286 32.9401 53.3123 32.335 52.7097L12.0316 32.5767H17.1365C20.8526 32.5762 24.4544 31.3031 27.333 28.9727C30.2116 26.6424 32.1903 23.3977 32.9344 19.7874H36.4923C37.3488 19.8077 38.1783 19.4899 38.7984 18.9037C39.4185 18.3176 39.7784 17.5112 39.7989 16.662C39.8194 15.8127 39.4988 14.9902 38.9077 14.3753C38.3167 13.7604 37.5035 13.4035 36.647 13.3832H36.415Z" fill="#003053"/>
</svg>
