<svg width="28" height="28" viewBox="0 0 28 28" fill="none" xmlns="http://www.w3.org/2000/svg">
<circle cx="13.9203" cy="14.0077" r="13.8665" fill="url(#paint0_linear_105_78)" fill-opacity="0.1"/>
<path d="M5.8999 19.6C5.5999 19.6 5.3999 19.5 5.1999 19.3C4.9999 19.1 4.8999 18.9 4.8999 18.6C4.8999 18.3 4.9999 18.1 5.1999 17.9C5.3999 17.7 5.5999 17.6 5.8999 17.6H9.6999C9.9999 18.3 10.3999 19 10.8999 19.6H5.8999ZM6.8999 14.6C6.5999 14.6 6.3999 14.5 6.1999 14.3C5.9999 14.1 5.8999 13.9 5.8999 13.6C5.8999 13.3 5.9999 13.1 6.1999 12.9C6.3999 12.7 6.5999 12.6 6.8999 12.6H8.9999L8.8999 13.6L8.9999 14.6H6.8999ZM7.8999 9.60001C7.5999 9.60001 7.3999 9.50001 7.1999 9.30001C6.9999 9.10001 6.8999 8.90001 6.8999 8.60001C6.8999 8.30001 6.9999 8.10001 7.1999 7.90001C7.3999 7.70001 7.5999 7.60001 7.8999 7.60001H10.8999C10.3999 8.20001 9.9999 8.90001 9.6999 9.60001H7.8999Z" fill="#666666"/>
<path d="M18.4 6C14.2 6 10.8 9.4 10.8 13.6C10.8 17.8 14.2 21.2 18.4 21.2C22.6 21.2 26 17.8 26 13.6C26 9.4 22.6 6 18.4 6ZM18.4 19.9C14.9 19.9 12.1 17.1 12.1 13.6C12.1 10.1 14.9 7.3 18.4 7.3C21.9 7.3 24.7 10.1 24.7 13.6C24.7 17.1 21.9 19.9 18.4 19.9Z" fill="#F08200"/>
<path d="M21.3999 15.7L18.9999 14V9.8C18.9999 9.7 18.8999 9.7 18.8999 9.7H17.9999C17.8999 9.7 17.8999 9.8 17.8999 9.8V14.5C17.8999 14.5 17.8999 14.6 17.9999 14.6L20.7999 16.6C20.8999 16.6 20.8999 16.6 20.9999 16.6L21.4999 15.9C21.4999 15.9 21.4999 15.8 21.3999 15.7Z" fill="#F08200"/>
<defs>
<linearGradient id="paint0_linear_105_78" x1="-0.76734" y1="13.5598" x2="21.629" y2="13.5142" gradientUnits="userSpaceOnUse">
<stop stop-color="#F58220"/>
<stop offset="1" stop-color="#F58220" stop-opacity="0"/>
</linearGradient>
</defs>
</svg>
