<svg width="29" height="28" viewBox="0 0 29 28" fill="none" xmlns="http://www.w3.org/2000/svg">
<circle cx="14.775" cy="14.0077" r="13.8665" fill="url(#paint0_linear_105_76)" fill-opacity="0.1"/>
<path d="M7.75 10.8L15 6.6L22.25 10.75C22.35 10.8 22.5 10.8 22.6 10.8C22.7 10.75 22.85 10.7 22.9 10.55C22.95 10.45 23 10.3 22.95 10.2C22.9 10.05 22.85 9.95 22.75 9.9L15 5.45L7.25 9.9C7.2 9.95 7.15 9.95 7.1 10.05C7.05 10.1 7 10.15 7 10.2C7 10.25 7 10.35 7 10.4C7 10.5 7 10.55 7.05 10.6C7.1 10.65 7.15 10.7 7.2 10.75C7.25 10.8 7.3 10.8 7.4 10.85C7.5 10.9 7.55 10.85 7.6 10.85C7.65 10.85 7.7 10.8 7.75 10.8Z" fill="#F08200"/>
<path d="M8 17C8 17.15 8.05 17.25 8.15 17.35C8.25 17.45 8.35 17.5 8.5 17.5H21.5C21.65 17.5 21.75 17.45 21.85 17.35C21.95 17.25 22 17.15 22 17C22 16.85 21.95 16.75 21.85 16.65C21.75 16.55 21.65 16.5 21.5 16.5H20V12.8H19V16.5H15.5V12.8H14.5V16.5H11V12.8H10V16.5H8.5C8.35 16.5 8.25 16.55 8.15 16.65C8.05 16.75 8 16.85 8 17Z" fill="#666666"/>
<path d="M8.5 11H21.5V12H8.5V11Z" fill="#666666"/>
<path d="M22.5 18.5H7.5C7.35 18.5 7.25 18.55 7.15 18.65C7.05 18.75 7 18.85 7 19C7 19.15 7.05 19.25 7.15 19.35C7.25 19.45 7.35 19.5 7.5 19.5H22.5C22.65 19.5 22.75 19.45 22.85 19.35C22.95 19.25 23 19.15 23 19C23 18.85 22.95 18.75 22.85 18.65C22.75 18.55 22.65 18.5 22.5 18.5Z" fill="#666666"/>
<path d="M17.05 9.8H18.65L15.3 7.85C15.25 7.8 15.15 7.8 15.1 7.8C15.05 7.8 14.95 7.8 14.9 7.85L11.55 9.8H13.15L15.1 8.7L17.05 9.8Z" fill="#F08200"/>
<defs>
<linearGradient id="paint0_linear_105_76" x1="0.0873959" y1="13.5598" x2="22.4837" y2="13.5142" gradientUnits="userSpaceOnUse">
<stop stop-color="#F58220"/>
<stop offset="1" stop-color="#F58220" stop-opacity="0"/>
</linearGradient>
</defs>
</svg>
