<svg width="28" height="21" viewBox="0 0 28 21" fill="none" xmlns="http://www.w3.org/2000/svg">
<path d="M25.8125 7.75415H23.1875V1.62915C23.1871 1.28118 23.0487 0.947574 22.8026 0.70152C22.5566 0.455467 22.223 0.317056 21.875 0.31665H2.1875C1.83953 0.317056 1.50592 0.455467 1.25987 0.70152C1.01382 0.947574 0.875405 1.28118 0.875 1.62915V15.0823C0.875405 15.4302 1.01382 15.7639 1.25987 16.0099C1.50592 16.256 1.83953 16.3944 2.1875 16.3948H11.5938V19.1292H8.3125V20.8792H16.625V19.1292H13.3438V16.3948H18.375V19.5667C18.3754 19.9146 18.5138 20.2482 18.7599 20.4943C19.0059 20.7404 19.3395 20.8788 19.6875 20.8792H25.8125C26.1605 20.8788 26.4941 20.7404 26.7401 20.4943C26.9862 20.2482 27.1246 19.9146 27.125 19.5667V9.06665C27.1246 8.71867 26.9862 8.38506 26.7401 8.139C26.4941 7.89295 26.1605 7.75454 25.8125 7.75415ZM18.375 9.06665V14.6448H2.625V2.06665H21.4375V7.75415H19.6875C19.3395 7.75454 19.0059 7.89295 18.7599 8.139C18.5138 8.38506 18.3754 8.71867 18.375 9.06665ZM25.375 19.1292H20.125V9.50415H25.375V19.1292Z" fill="white"/>
</svg>
