<svg width="46" height="46" viewBox="0 0 46 46" fill="none" xmlns="http://www.w3.org/2000/svg">
<ellipse cx="22.7812" cy="23.3584" rx="22.7812" ry="22.5" fill="url(#paint0_linear_18_7)" fill-opacity="0.1"/>
<g clip-path="url(#clip0_18_7)">
<path d="M9.28125 36.3584H14.5047V25.4404H9.28125V36.3584ZM10.051 26.2064H13.7349V35.5954H10.051V26.2064Z" fill="#666666"/>
<path d="M16.5391 36.3584H21.7625V21.3857H16.5391V36.3584ZM17.3088 22.1547H20.9927V35.5955H17.3088V22.1547Z" fill="#666666"/>
<path d="M23.7988 36.3584H29.0223V25.4404H23.7988V36.3584ZM24.5686 26.2064H28.2525V35.5954H24.5686V26.2064Z" fill="#666666"/>
<path d="M31.0547 36.3584H36.2812V17.3584H31.0547V36.3584ZM31.8245 18.1213H35.5114V35.5955H31.8245V18.1213Z" fill="#666666"/>
<path d="M31.4644 12.5468C31.4648 13.0142 31.6158 13.469 31.8951 13.8447L27.6247 18.8113C27.1655 18.5074 26.608 18.3868 26.0634 18.4735C25.5189 18.5603 25.0271 18.848 24.6862 19.2794L21.2527 17.2672C21.328 17.046 21.3662 16.8139 21.3658 16.5803C21.3658 15.9991 21.1337 15.4416 20.7207 15.0307C20.3077 14.6197 19.7475 14.3888 19.1634 14.3888C18.5792 14.3888 18.0191 14.6197 17.606 15.0307C17.193 15.4416 16.961 15.9991 16.961 16.5803C16.961 16.8138 16.9991 17.0458 17.074 17.2672L13.6161 19.2733C13.2926 18.8698 12.8359 18.5934 12.3271 18.4928C11.8183 18.3923 11.2902 18.4742 10.8363 18.7241C10.3824 18.9739 10.032 19.3756 9.8472 19.8579C9.66241 20.3402 9.65516 20.872 9.82672 21.3592C9.99828 21.8463 10.3376 22.2573 10.7845 22.5193C11.2314 22.7813 11.7572 22.8775 12.2685 22.7907C12.7799 22.704 13.2439 22.4399 13.5783 22.0454C13.9127 21.6508 14.096 21.1512 14.0957 20.635C14.0959 20.4004 14.0577 20.1674 13.9827 19.945L17.4283 17.9389C17.6336 18.1982 17.8953 18.4078 18.1937 18.5518C18.4921 18.6959 18.8195 18.7708 19.1511 18.7708C19.4828 18.7708 19.8102 18.6959 20.1086 18.5518C20.407 18.4078 20.6687 18.1982 20.874 17.9389L24.3074 19.9481C24.2362 20.17 24.2022 20.4021 24.2066 20.635C24.2053 20.9821 24.2869 21.3246 24.4447 21.6341C24.6024 21.9437 24.8318 22.2116 25.114 22.4157C25.3962 22.6198 25.723 22.7543 26.0677 22.808C26.4123 22.8618 26.7648 22.8334 27.0962 22.7251C27.4277 22.6168 27.7285 22.4317 27.9739 22.185C28.2194 21.9384 28.4024 21.6372 28.508 21.3064C28.6136 20.9756 28.6387 20.6245 28.5813 20.2821C28.5238 19.9398 28.3855 19.6159 28.1776 19.3371L32.4541 14.3736C32.8156 14.6144 33.241 14.7424 33.676 14.7414C34.1113 14.7408 34.5367 14.6118 34.8984 14.3708C35.2601 14.1297 35.5419 13.7874 35.7083 13.3871C35.8746 12.9868 35.9179 12.5464 35.8328 12.1216C35.7478 11.6968 35.5381 11.3066 35.2302 11.0003C34.9224 10.694 34.5303 10.4853 34.1033 10.4007C33.6764 10.316 33.2338 10.3591 32.8315 10.5246C32.4292 10.6901 32.0852 10.9705 31.843 11.3305C31.6007 11.6904 31.4711 12.1137 31.4705 12.5468H31.4644ZM35.1025 12.5468C35.1031 12.8297 35.0193 13.1063 34.8618 13.3417C34.7043 13.5771 34.4801 13.7606 34.2176 13.8691C33.9552 13.9776 33.6663 14.0062 33.3875 13.9512C33.1087 13.8961 32.8526 13.76 32.6516 13.56C32.4507 13.3601 32.3139 13.1052 32.2586 12.8278C32.2033 12.5504 32.232 12.263 32.341 12.0018C32.45 11.7406 32.6345 11.5175 32.8711 11.3608C33.1077 11.2041 33.3857 11.1207 33.6699 11.1213C33.8582 11.1205 34.0449 11.1568 34.2191 11.2282C34.3932 11.2995 34.5515 11.4045 34.6847 11.5371C34.8179 11.6696 34.9234 11.8271 34.9951 12.0004C35.0668 12.1737 35.1033 12.3594 35.1025 12.5468ZM20.5838 16.5803C20.5862 16.8635 20.504 17.141 20.3476 17.3776C20.1912 17.6141 19.9676 17.7991 19.7053 17.909C19.443 18.0189 19.1538 18.0488 18.8744 17.9948C18.5951 17.9408 18.3381 17.8054 18.1362 17.6058C17.9343 17.4062 17.7966 17.1514 17.7406 16.8738C17.6845 16.5961 17.7127 16.3082 17.8214 16.0465C17.9302 15.7848 18.1147 15.5612 18.3514 15.404C18.5882 15.2469 18.8665 15.1633 19.1511 15.1639C19.3387 15.1631 19.5246 15.1991 19.6982 15.2699C19.8718 15.3407 20.0296 15.4448 20.1627 15.5764C20.2958 15.708 20.4015 15.8643 20.4737 16.0366C20.546 16.2089 20.5834 16.3936 20.5838 16.5803ZM13.3107 20.635C13.3101 20.9169 13.2254 21.1924 13.0675 21.4265C12.9096 21.6606 12.6855 21.8428 12.4235 21.9501C12.1614 22.0575 11.8733 22.0851 11.5955 22.0295C11.3178 21.9739 11.0628 21.8376 10.8629 21.6378C10.6629 21.438 10.527 21.1837 10.4723 20.9071C10.4177 20.6304 10.4466 20.3439 10.5556 20.0836C10.6646 19.8234 10.8487 19.6011 11.0846 19.445C11.3206 19.2888 11.5977 19.2058 11.8811 19.2064C12.0694 19.206 12.256 19.2427 12.4301 19.3145C12.6041 19.3862 12.7621 19.4915 12.895 19.6243C13.0279 19.7571 13.1331 19.9148 13.2044 20.0883C13.2758 20.2618 13.3119 20.4476 13.3107 20.635ZM27.8324 20.635C27.8324 20.9177 27.7482 21.194 27.5903 21.429C27.4324 21.664 27.208 21.8471 26.9455 21.9551C26.6829 22.0631 26.3941 22.0913 26.1155 22.0359C25.837 21.9805 25.5812 21.8442 25.3805 21.6441C25.1798 21.444 25.0433 21.1891 24.9883 20.9118C24.9332 20.6345 24.9621 20.3472 25.0712 20.0862C25.1804 19.8252 25.3649 19.6023 25.6014 19.4457C25.8379 19.2891 26.1157 19.2058 26.3998 19.2064C26.5893 19.2044 26.7774 19.2399 26.953 19.3109C27.1286 19.3818 27.2883 19.4868 27.4227 19.6198C27.5572 19.7527 27.6637 19.9109 27.7362 20.0852C27.8086 20.2595 27.8455 20.4464 27.8447 20.635H27.8324Z" fill="#f58220"/>
</g>
<defs>
<linearGradient id="paint0_linear_18_7" x1="-1.3489" y1="22.6317" x2="35.4458" y2="22.5558" gradientUnits="userSpaceOnUse">
<stop stop-color="#F58220"/>
<stop offset="1" stop-color="#F58220" stop-opacity="0"/>
</linearGradient>
<clipPath id="clip0_18_7">
<rect width="27" height="26" fill="white" transform="translate(9.28125 10.3584)"/>
</clipPath>
</defs>
</svg>
