<svg width="55" height="54" viewBox="0 0 55 54" fill="none" xmlns="http://www.w3.org/2000/svg">
<circle cx="27.6931" cy="27" r="27" fill="url(#paint0_linear_95_492)"/>
<path d="M28.3837 19.2515C28.3486 19.1761 28.294 19.1125 28.2261 19.068C28.1582 19.0236 28.0798 19 27.9997 19C27.9196 19 27.8412 19.0236 27.7733 19.068C27.7054 19.1125 27.6508 19.1761 27.6157 19.2515L26.0942 22.4826C26.0638 22.548 26.0186 22.6046 25.9625 22.6475C25.9065 22.6905 25.8413 22.7185 25.7727 22.7291L22.3649 23.2471C22.0169 23.2999 21.8753 23.75 22.1297 24.009L24.5919 26.526C24.6416 26.5769 24.6787 26.6396 24.7001 26.7088C24.7214 26.7781 24.7263 26.8517 24.7143 26.9233L24.1336 30.4789C24.1205 30.561 24.1296 30.6453 24.1597 30.7223C24.1899 30.7993 24.2399 30.866 24.3043 30.9148C24.3686 30.9637 24.4446 30.9928 24.5238 30.9988C24.6031 31.0049 24.6823 30.9877 24.7527 30.9491L27.8005 29.2694C27.8616 29.2359 27.9296 29.2184 27.9985 29.2184C28.0675 29.2184 28.1354 29.2359 28.1965 29.2694L31.2443 30.9491C31.3146 30.987 31.3936 31.0036 31.4724 30.9972C31.5513 30.9908 31.6268 30.9616 31.6908 30.9129C31.7547 30.8642 31.8045 30.7978 31.8345 30.7212C31.8646 30.6445 31.8738 30.5607 31.861 30.4789L31.2803 26.9233C31.268 26.8519 31.2726 26.7784 31.2935 26.7092C31.3144 26.64 31.351 26.5771 31.4003 26.526L33.8721 24.009C33.9287 23.9507 33.9687 23.8771 33.9877 23.7964C34.0066 23.7156 34.0037 23.631 33.9793 23.5519C33.9549 23.4727 33.9099 23.4023 33.8494 23.3485C33.7889 23.2947 33.7154 23.2595 33.6369 23.2471L30.2292 22.7291C30.1605 22.7185 30.0953 22.6905 30.0393 22.6475C29.9832 22.6046 29.938 22.548 29.9076 22.4826L28.3837 19.2515Z" fill="#F08200"/>
<path d="M39.25 16.75C39.25 15.7554 38.8549 14.8016 38.1517 14.0983C37.4484 13.3951 36.4946 13 35.5 13H20.5C19.5054 13 18.5516 13.3951 17.8484 14.0983C17.1451 14.8016 16.75 15.7554 16.75 16.75V42.0625C16.7501 42.2321 16.7962 42.3985 16.8833 42.5439C16.9705 42.6894 17.0955 42.8085 17.245 42.8885C17.3945 42.9686 17.5629 43.0065 17.7323 42.9984C17.9017 42.9903 18.0657 42.9364 18.2069 42.8425L28 37.5644L37.7931 42.8425C37.9343 42.9364 38.0983 42.9903 38.2677 42.9984C38.4371 43.0065 38.6055 42.9686 38.755 42.8885C38.9045 42.8085 39.0295 42.6894 39.1167 42.5439C39.2038 42.3985 39.2499 42.2321 39.25 42.0625V16.75ZM35.5 14.875C35.9973 14.875 36.4742 15.0725 36.8258 15.4242C37.1775 15.7758 37.375 16.2527 37.375 16.75V40.3113L28.5194 35.6575C28.3655 35.5551 28.1848 35.5005 28 35.5005C27.8152 35.5005 27.6345 35.5551 27.4806 35.6575L18.625 40.3113V16.75C18.625 16.2527 18.8225 15.7758 19.1742 15.4242C19.5258 15.0725 20.0027 14.875 20.5 14.875H35.5Z" fill="#666666"/>
<defs>
<linearGradient id="paint0_linear_95_492" x1="13.0681" y1="45" x2="69.3181" y2="45" gradientUnits="userSpaceOnUse">
<stop stop-color="#F08200" stop-opacity="0.15"/>
<stop offset="1" stop-color="#C4C4C4" stop-opacity="0"/>
</linearGradient>
</defs>
</svg>
