<svg width="20" height="23" viewBox="0 0 20 23" fill="none" xmlns="http://www.w3.org/2000/svg">
<path d="M12.6537 11.9148C12.7487 11.8676 12.8277 11.7927 12.8804 11.6997C12.9332 11.6066 12.9574 11.4997 12.95 11.3926C12.9423 11.2367 12.8885 11.0868 12.7956 10.9623C12.7028 10.8379 12.5752 10.7447 12.4294 10.695C12.1574 10.5823 11.8672 10.5214 11.5735 10.5154C10.9988 10.4926 10.4234 10.5339 9.85754 10.6386C9.77011 10.6647 9.6766 10.6606 9.5917 10.627C9.5068 10.5934 9.4353 10.5321 9.38843 10.4527C8.96269 9.92908 8.57094 9.37791 8.21566 8.80268C8.19645 8.77473 8.18387 8.74267 8.17887 8.70897C8.17387 8.67528 8.1766 8.64088 8.18685 8.60843C8.25475 8.36406 8.31647 8.11969 8.37614 7.87323C8.55733 7.26466 8.62706 6.62754 8.58189 5.99344C8.57637 5.83693 8.53789 5.68344 8.46904 5.54329C8.40019 5.40315 8.30256 5.2796 8.18273 5.18096C8.09919 5.10867 7.99817 5.06032 7.89008 5.04087C7.78199 5.02142 7.67075 5.03158 7.56782 5.07031C7.46489 5.10905 7.37399 5.17494 7.30451 5.26121C7.23502 5.34747 7.18945 5.45099 7.1725 5.56109C7.11042 5.96426 7.11529 6.37514 7.18691 6.77669C7.26686 7.26541 7.3972 7.74426 7.57577 8.20532C7.59631 8.26553 7.59631 8.331 7.57577 8.39121C7.21365 9.40838 6.80009 10.4047 6.35567 11.3884C6.29344 11.5394 6.17734 11.661 6.03059 11.7289C5.45617 11.9875 4.90181 12.2899 4.37224 12.6333C4.09436 12.808 3.85371 13.0373 3.66446 13.3079C3.57099 13.4357 3.52772 13.5943 3.54307 13.7528C3.57518 13.9246 3.67199 14.0771 3.81297 14.1777C3.95395 14.2783 4.12799 14.3192 4.29817 14.2916C4.62743 14.2589 4.94001 14.1289 5.1973 13.9178C5.50426 13.6711 5.77512 13.3813 6.00178 13.0573C6.31452 12.6166 6.60669 12.1612 6.9112 11.7143C6.94745 11.6615 6.99828 11.6208 7.05728 11.5973C7.81938 11.3231 8.60068 11.1073 9.3946 10.9519C9.42499 10.9414 9.45774 10.9402 9.48881 10.9483C9.51988 10.9565 9.54793 10.9737 9.56949 10.9978C9.63898 11.0677 9.71249 11.1332 9.78964 11.1942C10.3793 11.6982 11.1096 12.002 11.878 12.0631C12.1449 12.0839 12.4125 12.0327 12.6537 11.9148ZM5.30018 13.0197C5.12379 13.2429 4.93559 13.4563 4.73642 13.6588C4.57437 13.8292 4.3671 13.9482 4.13975 14.0013C4.08454 14.0143 4.02692 14.0121 3.97283 13.995C3.91873 13.9778 3.87012 13.9464 3.83198 13.9038C3.79384 13.8613 3.76755 13.8092 3.75583 13.7529C3.74411 13.6966 3.74737 13.6382 3.76528 13.5836C3.81422 13.4463 3.89218 13.3215 3.99367 13.2181C4.17651 13.0412 4.37719 12.8844 4.5924 12.7502C5.03682 12.485 5.49564 12.2469 5.95035 11.9983L5.98944 12.0401C5.76517 12.368 5.54296 12.7022 5.30018 13.0197ZM7.35768 6.23781C7.35614 6.0446 7.37198 5.85164 7.405 5.66135C7.41783 5.59647 7.44299 5.53475 7.47907 5.47963C7.50338 5.42122 7.54599 5.37257 7.6003 5.34123C7.65461 5.30989 7.71758 5.2976 7.77946 5.30628C7.84535 5.30991 7.90838 5.33475 7.95943 5.37718C8.01048 5.41961 8.04689 5.47744 8.0634 5.54229C8.10272 5.73944 8.11655 5.94096 8.10455 6.14174C8.04955 6.72556 7.93086 7.30138 7.75066 7.85861C7.75066 7.87114 7.74037 7.88367 7.73008 7.90665C7.71813 7.89031 7.70779 7.87282 7.69922 7.85443C7.5091 7.33502 7.39338 6.7906 7.35562 6.23781H7.35768ZM7.16839 11.2715C7.45644 10.5321 7.75272 9.76763 8.04282 9.02616L9.30201 10.7117L7.16839 11.2715ZM11.7278 11.756C11.5179 11.7203 11.3114 11.6665 11.1106 11.5952C10.6621 11.4475 10.2388 11.2305 9.85548 10.9519L9.74644 10.8684C10.3487 10.7557 10.9622 10.7179 11.5735 10.7556C11.7094 10.7723 11.8424 10.8081 11.9685 10.8621C12.0784 10.8978 12.171 10.9741 12.2281 11.0758C12.2852 11.1775 12.3027 11.2972 12.2772 11.4114C12.2427 11.5274 12.1676 11.6265 12.0659 11.69C11.9643 11.7536 11.8433 11.777 11.7257 11.756H11.7278Z" fill="#FF0019"/>
<path d="M15.8738 14.7676V4.89243C15.8772 4.75302 15.8724 4.61352 15.8593 4.4747C15.8121 4.11465 15.6442 3.78207 15.3841 3.53272C14.4376 2.58238 13.4912 1.63413 12.5344 0.698416C12.3429 0.512979 12.1169 0.368153 11.8696 0.272402C11.6223 0.17665 11.3587 0.131893 11.0942 0.140747H3.30448C2.98557 0.140747 2.66666 0.140747 2.35186 0.157456C1.95213 0.196193 1.57463 0.362012 1.27317 0.631286C0.971709 0.90056 0.761653 1.25955 0.672938 1.65711C0.637671 1.81474 0.619731 1.97585 0.619444 2.1375C0.619444 7.15026 0.619444 12.1679 0.619444 17.1904C0.611073 17.67 0.776322 18.1361 1.08387 18.5002C1.39142 18.8644 1.81989 19.1014 2.28808 19.1663C2.30573 19.171 2.32294 19.1773 2.33951 19.1851H11.7032C11.8321 19.8588 12.141 20.4836 12.596 20.9912C13.0511 21.4989 13.6348 21.8698 14.2834 22.0635C14.932 22.2572 15.6206 22.2662 16.2739 22.0896C16.9272 21.913 17.5202 21.5575 17.988 21.062C18.4558 20.5665 18.7805 19.95 18.9265 19.2799C19.0726 18.6098 19.0345 17.9118 18.8163 17.2622C18.5981 16.6126 18.2082 16.0363 17.6893 15.5964C17.1704 15.1565 16.5423 14.8697 15.8738 14.7676ZM11.6353 18.5522H2.5823C2.29543 18.563 2.01328 18.4758 1.78092 18.3047C1.54856 18.1336 1.37941 17.8883 1.30048 17.6081C1.26141 17.459 1.24272 17.3051 1.24492 17.1507C1.24492 14.6541 1.24492 12.1588 1.24492 9.66499C1.24492 7.17114 1.24492 4.66476 1.24492 2.14585C1.23819 1.95932 1.27026 1.77345 1.33904 1.60035C1.40781 1.42725 1.51175 1.2708 1.64408 1.14121C1.86426 0.919967 2.15758 0.789695 2.46708 0.775696H2.59464C5.40656 0.775696 8.21848 0.775696 11.0304 0.775696C11.4131 0.75613 11.7886 0.88619 12.0797 1.13912C12.234 1.27906 12.3781 1.43153 12.5283 1.57983C13.3101 2.36098 14.0933 3.14074 14.8779 3.91912C14.9955 4.03027 15.0889 4.1652 15.1519 4.31521C15.215 4.46523 15.2464 4.62699 15.2442 4.79008C15.2442 8.10129 15.2442 11.4118 15.2442 14.7216H15.3162C15.417 14.7216 15.5219 14.7216 15.6145 14.7362C15.5157 14.7362 15.4088 14.7216 15.3162 14.7216C14.3376 14.7216 13.399 15.1161 12.7069 15.8184C12.0147 16.5206 11.6256 17.4732 11.625 18.4666C11.625 18.4958 11.625 18.523 11.625 18.5522H11.6353ZM15.3223 21.5682C14.718 21.5682 14.1273 21.3863 13.6249 21.0455C13.1224 20.7047 12.7308 20.2203 12.4995 19.6535C12.2683 19.0868 12.2078 18.4631 12.3257 17.8615C12.4436 17.2598 12.7346 16.7071 13.1619 16.2734C13.5892 15.8396 14.1336 15.5442 14.7263 15.4245C15.3189 15.3048 15.9333 15.3663 16.4916 15.601C17.0499 15.8358 17.5271 16.2333 17.8628 16.7434C18.1985 17.2534 18.3777 17.8531 18.3777 18.4666C18.3777 19.2892 18.0558 20.0781 17.4828 20.6598C16.9098 21.2414 16.1327 21.5682 15.3223 21.5682Z" fill="#FF0019"/>
<path d="M16.4023 18.4736H15.9393V17.1138C15.9393 17.0756 15.9244 17.039 15.8978 17.0119C15.8711 16.9849 15.835 16.9697 15.7974 16.9697H14.9147C14.8771 16.9697 14.8409 16.9849 14.8143 17.0119C14.7877 17.039 14.7727 17.0756 14.7727 17.1138V18.4736H14.2398C14.2207 18.4735 14.202 18.479 14.186 18.4895C14.1699 18.5 14.1572 18.515 14.1493 18.5327C14.1415 18.5504 14.1389 18.57 14.1418 18.5891C14.1447 18.6083 14.153 18.6262 14.1658 18.6406L15.2254 19.9064C15.241 19.9253 15.2606 19.9404 15.2826 19.9509C15.3046 19.9613 15.3286 19.9667 15.353 19.9667C15.3773 19.9667 15.4013 19.9613 15.4233 19.9509C15.4453 19.9404 15.4649 19.9253 15.4805 19.9064L16.4784 18.6427C16.492 18.6282 16.5009 18.6099 16.5042 18.5902C16.5074 18.5705 16.5048 18.5502 16.4966 18.5321C16.4884 18.5139 16.4751 18.4986 16.4583 18.4881C16.4415 18.4777 16.422 18.4726 16.4023 18.4736Z" fill="#FF0019"/>
</svg>
