<svg width="20" height="20" viewBox="0 0 20 20" fill="none" xmlns="http://www.w3.org/2000/svg">
<g clip-path="url(#clip0_18_4)">
<path d="M9.68945 0.376953C8.37825 0.376953 7.14437 0.624347 5.98779 1.11914C4.83121 1.61393 3.82308 2.29117 2.96338 3.15088C2.10367 4.01058 1.42643 5.01871 0.93164 6.17529C0.436847 7.33187 0.189453 8.56575 0.189453 9.87695C0.189453 11.1882 0.436847 12.422 0.93164 13.5786C1.42643 14.7352 2.10367 15.7433 2.96338 16.603C3.82308 17.4627 4.83121 18.14 5.98779 18.6348C7.14437 19.1296 8.37825 19.377 9.68945 19.377C11.0007 19.377 12.2345 19.1296 13.3911 18.6348C14.5477 18.14 15.5558 17.4627 16.4155 16.603C17.2752 15.7433 17.9525 14.7352 18.4473 13.5786C18.9421 12.422 19.1895 11.1882 19.1895 9.87695C19.1895 8.56575 18.9421 7.33187 18.4473 6.17529C17.9525 5.01871 17.2752 4.01058 16.4155 3.15088C15.5558 2.29117 14.5477 1.61393 13.3911 1.11914C12.2345 0.624347 11.0007 0.376953 9.68945 0.376953ZM13.5674 10.3965L10.209 13.7549C10.0977 13.8786 9.9585 13.9404 9.7915 13.9404C9.62451 13.9404 9.48535 13.8786 9.37402 13.7549C9.25033 13.6436 9.18848 13.5044 9.18848 13.3374C9.18848 13.1704 9.25033 13.0313 9.37402 12.9199L11.8232 10.4707H5.5332C5.3724 10.4707 5.23324 10.4119 5.11572 10.2944C4.99821 10.1769 4.93945 10.0378 4.93945 9.87695C4.93945 9.71615 4.99821 9.57699 5.11572 9.45947C5.23324 9.34196 5.3724 9.2832 5.5332 9.2832H11.8232L9.37402 6.83398C9.25033 6.72266 9.18848 6.5835 9.18848 6.4165C9.18848 6.24951 9.25033 6.11035 9.37402 5.99902C9.48535 5.87533 9.62451 5.81348 9.7915 5.81348C9.9585 5.81348 10.0977 5.87533 10.209 5.99902L13.5674 9.35742C13.6416 9.43164 13.6911 9.51514 13.7158 9.60791C13.7406 9.70068 13.7406 9.79036 13.7158 9.87695C13.7406 9.96354 13.7406 10.0532 13.7158 10.146C13.6911 10.2388 13.6416 10.3223 13.5674 10.3965Z" fill="#f58220"/>
</g>
<defs>
<clipPath id="clip0_18_4">
<rect width="19" height="19" fill="white" transform="translate(0.189453 0.376953)"/>
</clipPath>
</defs>
</svg>
