<svg width="15" height="15" viewBox="0 0 15 15" fill="none" xmlns="http://www.w3.org/2000/svg">
<path d="M7.50009 0.125C8.22009 0.124947 8.9127 0.349254 9.43525 0.751713C9.95779 1.15417 10.2705 1.70413 10.3089 2.2883L10.3126 2.41018H14.4377C14.5802 2.41022 14.7174 2.4542 14.8215 2.53326C14.9257 2.61231 14.989 2.72054 14.9987 2.83607C15.0084 2.95159 14.9638 3.06581 14.8738 3.15564C14.7839 3.24546 14.6554 3.3042 14.5142 3.31999L14.4377 3.32425H13.6434L12.7284 12.4973C12.6713 13.0695 12.3512 13.6034 11.8317 13.9926C11.3122 14.3818 10.6315 14.5978 9.92486 14.5978H5.07531C4.36868 14.5978 3.68793 14.3818 3.16846 13.9926C2.64899 13.6034 2.32887 13.0695 2.27178 12.4973L1.35602 3.32425H0.562506C0.426577 3.32425 0.295247 3.28425 0.192804 3.21166C0.0903618 3.13907 0.0237365 3.03879 0.00525004 2.92937L0 2.86722C5.73224e-06 2.75677 0.0492327 2.65007 0.138577 2.56683C0.227921 2.4836 0.351339 2.42947 0.486005 2.41445L0.562506 2.41018H4.68755C4.68755 1.80411 4.98387 1.22287 5.51133 0.794314C6.03878 0.365759 6.75416 0.125 7.50009 0.125ZM12.5154 3.32425H2.48478L3.39304 12.4235C3.42733 12.7669 3.61944 13.0872 3.93115 13.3207C4.24286 13.5542 4.65133 13.6838 5.07531 13.6837H9.92486C10.3488 13.6838 10.7573 13.5542 11.069 13.3207C11.3807 13.0872 11.5728 12.7669 11.6071 12.4235L12.5146 3.32425H12.5154ZM5.81257 5.60943C5.9485 5.60944 6.07983 5.64943 6.18227 5.72203C6.28471 5.79462 6.35134 5.8949 6.36982 6.00431L6.37507 6.06647V10.9415C6.37503 11.0573 6.32089 11.1688 6.22359 11.2534C6.12629 11.338 5.99309 11.3895 5.85091 11.3974C5.70872 11.4052 5.56814 11.369 5.45759 11.2959C5.34703 11.2228 5.27474 11.1184 5.25531 11.0037L5.25006 10.9415V6.06647C5.25006 5.94526 5.30932 5.82901 5.41481 5.7433C5.52031 5.65759 5.66338 5.60943 5.81257 5.60943ZM9.1876 5.60943C9.32353 5.60944 9.45487 5.64943 9.55731 5.72203C9.65975 5.79462 9.72637 5.8949 9.74486 6.00431L9.75011 6.06647V10.9415C9.75007 11.0573 9.69593 11.1688 9.59863 11.2534C9.50133 11.338 9.36813 11.3895 9.22595 11.3974C9.08376 11.4052 8.94318 11.369 8.83263 11.2959C8.72207 11.2228 8.64978 11.1184 8.63035 11.0037L8.6251 10.9415V6.06647C8.6251 5.94526 8.68436 5.82901 8.78985 5.7433C8.89534 5.65759 9.03842 5.60943 9.1876 5.60943ZM7.50009 1.03907C7.07249 1.03903 6.66081 1.17088 6.34826 1.40797C6.03571 1.64507 5.84558 1.96973 5.81632 2.31634L5.81257 2.41018H9.1876L9.18386 2.31634C9.15459 1.96973 8.96447 1.64507 8.65191 1.40797C8.33936 1.17088 7.92769 1.03903 7.50009 1.03907Z" fill="#F0861B"/>
</svg>
