<svg width="33" height="32" viewBox="0 0 33 32" fill="none" xmlns="http://www.w3.org/2000/svg">
<path d="M20.8993 17.0813C21.1588 17.3551 21.4668 17.5722 21.8059 17.7204C22.1449 17.8685 22.5084 17.9448 22.8754 17.9448C23.2424 17.9448 23.6058 17.8685 23.9449 17.7204C24.2839 17.5722 24.592 17.3551 24.8514 17.0813L30.4388 11.1897C31.455 10.0983 32.0412 8.64127 32.079 7.11226C32.1168 5.58324 31.6035 4.09596 30.6426 2.95019C29.6817 1.80442 28.3446 1.08537 26.9008 0.937969C25.457 0.790572 24.0139 1.22579 22.8623 2.1559C21.7113 1.21971 20.266 0.779551 18.8189 0.924505C17.3718 1.06946 16.0309 1.78869 15.0677 2.93666C14.1044 4.08463 13.5907 5.57559 13.6306 7.10781C13.6704 8.64004 14.2608 10.0991 15.2822 11.1897L20.8993 17.0813ZM16.3512 3.72699C17.1482 2.89183 18.2262 2.42308 19.3498 2.42308C20.4734 2.42308 21.5513 2.89183 22.3483 3.72699C22.4903 3.86986 22.6791 3.94956 22.8754 3.94956C23.0717 3.94956 23.2604 3.86986 23.4024 3.72699C24.2032 2.9145 25.2744 2.46576 26.3856 2.47722C27.4969 2.48869 28.5595 2.95945 29.3451 3.78831C30.1306 4.61717 30.5764 5.73794 30.5866 6.90971C30.5968 8.08148 30.1705 9.21068 29.3995 10.0546L23.8122 15.9462C23.6911 16.0773 23.5463 16.1815 23.3863 16.2527C23.2264 16.3238 23.0546 16.3605 22.881 16.3605C22.7074 16.3605 22.5355 16.3238 22.3756 16.2527C22.2157 16.1815 22.0709 16.0773 21.9497 15.9462L16.3624 10.0546C15.5702 9.2166 15.1245 8.08229 15.1224 6.89911C15.1203 5.71592 15.562 4.57987 16.3512 3.73878V3.72699Z" fill="#f58220"/>
<path d="M0.825789 28.4639H4.81142C5.009 28.4639 5.19849 28.3812 5.3382 28.2339C5.47791 28.0865 5.5564 27.8867 5.5564 27.6784V26.8928L20.456 31.4726C20.9981 31.6393 21.56 31.724 22.1247 31.724C23.2178 31.7235 24.2903 31.4098 25.2276 30.8167L30.8894 27.2071C31.4512 26.8348 31.8524 26.2453 32.0069 25.5649C32.1614 24.8845 32.0568 24.1673 31.7158 23.5671C31.3747 22.967 30.8241 22.5317 30.1822 22.3545C29.5403 22.1774 28.8582 22.2725 28.282 22.6195L23.7302 25.4867L20.4522 24.4655C20.9455 24.3544 21.3939 24.0844 21.7352 23.6928C22.0765 23.3012 22.294 22.8074 22.3574 22.2797C22.4208 21.752 22.3271 21.2166 22.0892 20.7476C21.8513 20.2786 21.481 19.8992 21.0296 19.6619L17.6958 17.9022C15.8525 16.9351 13.844 16.3673 11.7891 16.2324C9.73412 16.0975 7.67437 16.3982 5.73147 17.1167L5.54895 17.1835V16.1426C5.54895 15.9343 5.47046 15.7345 5.33075 15.5871C5.19104 15.4398 5.00155 15.3571 4.80397 15.3571H0.825789C0.628208 15.3571 0.43872 15.4398 0.29901 15.5871C0.159299 15.7345 0.0808105 15.9343 0.0808105 16.1426V27.6784C0.0808105 27.8867 0.159299 28.0865 0.29901 28.2339C0.43872 28.3812 0.628208 28.4639 0.825789 28.4639ZM6.23806 18.621C7.99172 17.9706 9.85127 17.6978 11.7067 17.8185C13.5621 17.9393 15.3757 18.4512 17.0402 19.3241L20.3703 21.0876C20.5616 21.1869 20.7153 21.3516 20.8064 21.555C20.8974 21.7583 20.9204 21.9881 20.8715 22.207C20.8227 22.4258 20.7049 22.6207 20.5374 22.7598C20.3699 22.899 20.1626 22.9741 19.9494 22.973H15.4795C15.302 22.9751 15.1311 23.044 14.9975 23.1672C14.8639 23.2904 14.7764 23.4599 14.7508 23.6451C14.7252 23.8303 14.7632 24.0191 14.8578 24.1774C14.9525 24.3357 15.0977 24.4532 15.2672 24.5087L23.6184 27.1128C23.7172 27.1429 23.8208 27.1511 23.9227 27.1369C24.0246 27.1227 24.1227 27.0864 24.2107 27.0303L29.053 23.9863C29.2246 23.8793 29.4216 23.8261 29.6208 23.8328C29.8201 23.8394 30.0134 23.9057 30.1782 24.0239C30.3431 24.1421 30.4726 24.3074 30.5517 24.5003C30.6308 24.6933 30.6562 24.906 30.6249 25.1136C30.6017 25.2742 30.5458 25.4276 30.4609 25.5633C30.376 25.6989 30.2642 25.8135 30.1332 25.8991L24.4714 29.4851C23.9387 29.8234 23.3454 30.042 22.7287 30.1272C22.1121 30.2123 21.4855 30.1622 20.8881 29.98L5.5564 25.2668V18.8763L6.23806 18.621ZM1.57077 16.9282H4.06645V26.8928H1.57077V16.9282Z" fill="#666666"/>
</svg>
