<svg width="46" height="46" viewBox="0 0 46 46" fill="none" xmlns="http://www.w3.org/2000/svg">
<ellipse cx="22.7812" cy="23.1318" rx="22.7812" ry="22.5" fill="url(#paint0_linear_18_6)" fill-opacity="0.1"/>
<g clip-path="url(#clip0_18_6)">
<path d="M37.4144 34.1823H33.9794V21.9634C33.9794 21.8865 33.9642 21.8103 33.9348 21.7392C33.9054 21.6682 33.8622 21.6036 33.8078 21.5492C33.7534 21.4948 33.6889 21.4517 33.6178 21.4222C33.5467 21.3928 33.4706 21.3776 33.3936 21.3776H29.1742C29.0973 21.3776 29.0211 21.3928 28.9501 21.4222C28.879 21.4517 28.8144 21.4948 28.76 21.5492C28.7057 21.6036 28.6625 21.6682 28.6331 21.7392C28.6036 21.8103 28.5885 21.8865 28.5885 21.9634V34.1823H26.5957V26.2125C26.5957 26.0571 26.534 25.9081 26.4242 25.7983C26.3143 25.6884 26.1653 25.6267 26.01 25.6267H21.7902C21.6348 25.6267 21.4858 25.6884 21.376 25.7983C21.2661 25.9081 21.2044 26.0571 21.2044 26.2125V34.1823H19.4071V19.2264C19.4071 19.0711 19.3454 18.9221 19.2355 18.8122C19.1257 18.7024 18.9767 18.6407 18.8213 18.6407H14.6019C14.4466 18.6407 14.2976 18.7024 14.1877 18.8122C14.0779 18.9221 14.0162 19.0711 14.0162 19.2264V34.1823H11.6716V16.2383C11.6716 16.0829 11.6098 15.9339 11.4999 15.824C11.3901 15.7141 11.241 15.6523 11.0856 15.6523C10.9302 15.6523 10.7812 15.7141 10.6713 15.824C10.5614 15.9339 10.4997 16.0829 10.4997 16.2383V34.1823H8.58595C8.43055 34.1823 8.28151 34.244 8.17162 34.3539C8.06173 34.4638 8 34.6128 8 34.7682C8 34.9236 8.06173 35.0727 8.17162 35.1826C8.28151 35.2925 8.43055 35.3542 8.58595 35.3542H10.4997V37.0456C10.4997 37.1226 10.5148 37.1988 10.5443 37.2699C10.5737 37.341 10.6169 37.4056 10.6713 37.46C10.7257 37.5144 10.7903 37.5575 10.8614 37.587C10.9325 37.6164 11.0087 37.6316 11.0856 37.6316C11.1626 37.6316 11.2388 37.6164 11.3098 37.587C11.3809 37.5575 11.4455 37.5144 11.4999 37.46C11.5544 37.4056 11.5975 37.341 11.627 37.2699C11.6564 37.1988 11.6716 37.1226 11.6716 37.0456V35.3546H37.4144C37.5699 35.3546 37.7189 35.2929 37.8288 35.183C37.9387 35.0731 38.0004 34.924 38.0004 34.7686C38.0004 34.6132 37.9387 34.4642 37.8288 34.3543C37.7189 34.2444 37.5699 34.1827 37.4144 34.1827V34.1823ZM15.1881 34.1823V19.8122H18.2372V34.1823H15.1881ZM22.3763 34.1823V26.8002H25.4254V34.1823H22.3763ZM29.7584 34.1823V22.5475H32.8075V34.1823H29.7584Z" fill="#666666"/>
<path d="M35.9757 7.63184H22.8393C22.3025 7.63247 21.7878 7.84601 21.4082 8.2256C21.0286 8.6052 20.8151 9.11986 20.8145 9.65668V17.8106C20.8151 18.3475 21.0286 18.8621 21.4082 19.2417C21.7878 19.6213 22.3025 19.8348 22.8393 19.8355H23.3147V22.339C23.3169 22.4527 23.3518 22.5634 23.4154 22.6578C23.4789 22.7522 23.5684 22.8262 23.673 22.871C23.7776 22.9158 23.8929 22.9294 24.0051 22.9103C24.1172 22.8911 24.2215 22.84 24.3053 22.763L27.3724 19.8343H30.8464C31.0018 19.8343 31.1509 19.7725 31.2607 19.6627C31.3706 19.5528 31.4324 19.4037 31.4324 19.2483C31.4324 19.0929 31.3706 18.9439 31.2607 18.834C31.1509 18.7241 31.0018 18.6624 30.8464 18.6624H27.1377C26.9873 18.662 26.8425 18.7195 26.7333 18.8229L24.4866 20.9669V19.2497C24.4866 19.0944 24.4249 18.9454 24.3151 18.8355C24.2052 18.7257 24.0562 18.664 23.9009 18.664H22.8397C22.6136 18.6637 22.3968 18.5737 22.2369 18.4138C22.077 18.2539 21.9871 18.0372 21.9868 17.811V9.65668C21.9871 9.43057 22.077 9.2138 22.2369 9.05391C22.3968 8.89402 22.6136 8.80405 22.8397 8.80374H35.9761C36.2022 8.80416 36.4188 8.89417 36.5786 9.05405C36.7384 9.21393 36.8284 9.43063 36.8287 9.65668V17.8106C36.8277 18.034 36.7395 18.2481 36.583 18.4073C36.4264 18.5666 36.2138 18.6584 35.9906 18.6632C35.8352 18.6658 35.6872 18.7301 35.5792 18.8419C35.4712 18.9537 35.412 19.1038 35.4147 19.2592C35.4173 19.4146 35.4816 19.5625 35.5934 19.6706C35.7051 19.7786 35.8552 19.8377 36.0106 19.8351C36.5407 19.8236 37.0453 19.6056 37.417 19.2275C37.7887 18.8495 37.9981 18.3412 38.0006 17.811V9.65668C37.9999 9.11993 37.7865 8.60533 37.407 8.22575C37.0275 7.84616 36.5129 7.63258 35.9761 7.63184H35.9757Z" fill="#F5811F"/>
<path d="M27.3043 13.0441C27.1695 13.0441 27.0389 13.0906 26.9344 13.1757L24.0522 15.5207C23.9316 15.6187 23.8549 15.7607 23.839 15.9152C23.8231 16.0698 23.8693 16.2244 23.9673 16.3449C24.0654 16.4655 24.2073 16.5422 24.3619 16.5581C24.5164 16.574 24.671 16.5278 24.7916 16.4298L27.5125 14.216H31.3736C31.5136 14.216 31.6489 14.1659 31.7552 14.0748L33.8494 12.2766V12.758C33.8494 12.9134 33.9111 13.0625 34.021 13.1724C34.1309 13.2822 34.28 13.344 34.4354 13.344C34.5908 13.344 34.7398 13.2822 34.8497 13.1724C34.9596 13.0625 35.0213 12.9134 35.0213 12.758V10.868C35.0213 10.7126 34.9596 10.5636 34.8498 10.4538C34.7399 10.3439 34.5909 10.2822 34.4356 10.2822H32.4384C32.283 10.2822 32.134 10.344 32.0241 10.4538C31.9142 10.5637 31.8525 10.7128 31.8525 10.8682C31.8525 11.0236 31.9142 11.1726 32.0241 11.2825C32.134 11.3924 32.283 11.4541 32.4384 11.4541H33.0085L31.1566 13.0441H27.3043Z" fill="#F5811F"/>
<path d="M33.9785 19.0023C33.9327 18.8917 33.8542 18.7979 33.7535 18.7333C33.6527 18.6687 33.5346 18.6365 33.4151 18.641C33.2955 18.6456 33.1802 18.6866 33.0847 18.7587C32.9891 18.8307 32.9179 18.9303 32.8807 19.044C32.8434 19.1577 32.8419 19.2801 32.8763 19.3947C32.9107 19.5093 32.9793 19.6107 33.073 19.6851C33.1667 19.7595 33.281 19.8034 33.4004 19.811C33.5198 19.8185 33.6387 19.7893 33.741 19.7273C33.8599 19.654 33.949 19.541 33.9925 19.4083C34.036 19.2755 34.031 19.1317 33.9785 19.0023Z" fill="#F5811F"/>
</g>
<defs>
<linearGradient id="paint0_linear_18_6" x1="-1.3489" y1="22.4052" x2="35.4458" y2="22.3293" gradientUnits="userSpaceOnUse">
<stop stop-color="#F58220"/>
<stop offset="1" stop-color="#F58220" stop-opacity="0"/>
</linearGradient>
<clipPath id="clip0_18_6">
<rect width="30" height="30" fill="white" transform="translate(8 7.63184)"/>
</clipPath>
</defs>
</svg>
