<svg width="21" height="22" viewBox="0 0 21 22" fill="none" xmlns="http://www.w3.org/2000/svg">
<path d="M0.192382 10.6737C0.192382 12.1097 0.463315 13.461 1.00519 14.7276C1.54706 15.9942 2.28874 17.0983 3.23024 18.0398C4.17174 18.9813 5.27579 19.723 6.54242 20.2648C7.80904 20.8067 9.16032 21.0776 10.5963 21.0776C12.0322 21.0776 13.3835 20.8067 14.6501 20.2648C15.9168 19.723 17.0208 18.9813 17.9623 18.0398C18.9038 17.0983 19.6455 15.9942 20.1874 14.7276C20.7292 13.461 21.0002 12.1097 21.0002 10.6737C21.0002 9.23778 20.7292 7.8865 20.1874 6.61988C19.6455 5.35325 18.9038 4.2492 17.9623 3.3077C17.0208 2.36619 15.9168 1.62452 14.6501 1.08264C13.3835 0.540773 12.0322 0.269842 10.5963 0.269842C9.16032 0.269842 7.80904 0.540773 6.54242 1.08265C5.27579 1.62452 4.17174 2.36619 3.23024 3.3077C2.28874 4.2492 1.54706 5.35325 1.00519 6.61988C0.463314 7.8865 0.192382 9.23778 0.192382 10.6737ZM11.1652 7.72732L16.1437 12.7057C16.2791 12.8277 16.3469 12.9801 16.3469 13.163C16.3469 13.3458 16.2791 13.4982 16.1437 13.6202C16.0217 13.7556 15.8694 13.8234 15.6865 13.8234C15.5036 13.8234 15.3512 13.7556 15.2293 13.6202L10.5963 8.98717L5.96329 13.6202C5.84137 13.7556 5.68897 13.8234 5.50609 13.8234C5.32321 13.8234 5.17081 13.7556 5.04889 13.6202C4.91342 13.4982 4.84569 13.3458 4.84569 13.163C4.84569 12.9801 4.91342 12.8277 5.04889 12.7058L10.0273 7.72732C10.1086 7.64604 10.2 7.59186 10.3016 7.56476C10.4032 7.53767 10.5015 7.53767 10.5963 7.56476C10.6911 7.53767 10.7893 7.53767 10.8909 7.56476C10.9925 7.59186 11.084 7.64604 11.1652 7.72732Z" fill="#f58220"/>
</svg>
