<svg width="37" height="27" viewBox="0 0 37 27" fill="none" xmlns="http://www.w3.org/2000/svg">
<path d="M16.9815 3.44662C15.0615 4.46957 13.4521 6.004 12.1532 8.0499C10.9109 10.0958 10.2897 11.9712 10.2897 13.6761L14.6097 19.3876C14.5532 21.3198 13.7344 23.0248 12.1532 24.5024C10.6285 25.98 8.82147 26.7188 6.73206 26.7188C4.69912 26.7188 3.08971 26.0368 1.90382 24.6728C0.717942 23.2521 0.125 21.5756 0.125 19.6433C0.125 15.2106 1.53676 11.3745 4.36029 8.13514C7.18382 4.83897 11.0521 2.36684 15.965 0.71875L16.9815 3.44662ZM36.125 3.44662C34.205 4.46957 32.5956 6.004 31.2968 8.0499C30.0544 10.0958 29.4332 11.9712 29.4332 13.6761L33.7532 19.3876C33.6968 21.3198 32.8779 23.0248 31.2968 24.5024C29.7721 25.98 27.965 26.7188 25.8756 26.7188C23.8426 26.7188 22.2332 26.0368 21.0474 24.6728C19.8615 23.2521 19.2685 21.5756 19.2685 19.6433C19.2685 15.2106 20.6803 11.3745 23.5038 8.13514C26.3274 4.83897 30.1956 2.36684 35.1085 0.71875L36.125 3.44662Z" fill="#f58220"/>
</svg>
