<svg width="36" height="36" viewBox="0 0 36 36" fill="none" xmlns="http://www.w3.org/2000/svg">
<g clip-path="url(#clip0_249_810)">
<path d="M18.0014 0.510437C14.2704 0.51116 10.6392 1.71603 7.64781 3.9459C4.65642 6.17576 2.46457 9.31153 1.39819 12.8869C0.331805 16.4624 0.447833 20.2865 1.72902 23.7906C3.01021 27.2948 5.38813 30.2919 8.50921 32.3363C11.6303 34.3807 15.3278 35.3633 19.0521 35.1378C22.7763 34.9123 26.3283 33.4909 29.18 31.0849C32.0316 28.6789 34.0306 25.4167 34.8796 21.7836C35.7287 18.1504 35.3825 14.3403 33.8926 10.9196C33.8643 10.8436 33.821 10.7741 33.7652 10.7152C33.7094 10.6564 33.6422 10.6095 33.5678 10.5773C33.4933 10.5451 33.4132 10.5284 33.3321 10.528C33.251 10.5277 33.1706 10.5438 33.0959 10.5753C33.0212 10.6068 32.9537 10.6532 32.8973 10.7115C32.841 10.7699 32.7971 10.839 32.7682 10.9148C32.7394 10.9906 32.7261 11.0715 32.7294 11.1525C32.7326 11.2335 32.7522 11.3131 32.787 11.3863C34.2909 14.8322 34.5445 18.695 33.5042 22.308C32.4639 25.921 30.1948 29.0574 27.0887 31.1759C23.9826 33.2944 20.2343 34.262 16.4909 33.9117C12.7475 33.5614 9.24382 31.9152 6.58466 29.2573C3.92549 26.5993 2.27769 23.0964 1.9257 19.3531C1.5737 15.6099 2.53959 11.8612 4.65664 8.75411C6.7737 5.64703 9.90907 3.37654 13.5216 2.33455C17.1341 1.29255 20.997 1.54445 24.4436 3.04674C24.5861 3.11624 24.7505 3.12627 24.9004 3.07461C24.9746 3.04904 25.0431 3.00909 25.1019 2.95705C25.1607 2.905 25.2087 2.84189 25.2431 2.77131C25.2775 2.70072 25.2977 2.62405 25.3025 2.54567C25.3073 2.46729 25.2966 2.38874 25.271 2.3145C25.2454 2.24025 25.2055 2.17178 25.1534 2.11297C25.1014 2.05417 25.0383 2.00619 24.9677 1.97178H24.9218C22.7401 1.01367 20.3842 0.516177 18.0014 0.510437Z" fill="#666666"/>
<path d="M35.1537 4.2098C35.0496 4.11048 34.9146 4.04974 34.7712 4.03765L32.0283 3.79665L31.7911 1.05376C31.7767 0.902619 31.7055 0.76256 31.5919 0.661773C31.4784 0.560986 31.3308 0.506952 31.179 0.510544C31.0259 0.514665 30.8798 0.576094 30.7697 0.682692L26.9442 4.50819C26.8831 4.57106 26.8362 4.64624 26.8065 4.7287C26.7768 4.81116 26.7651 4.89901 26.7721 4.98638L27.0284 7.89375L17.7898 17.1438C17.733 17.1981 17.6875 17.263 17.6558 17.3348C17.6241 17.4067 17.6069 17.4841 17.6051 17.5626C17.6034 17.6411 17.6171 17.7192 17.6455 17.7924C17.6739 17.8656 17.7164 17.9325 17.7707 17.9892C17.8249 18.046 17.8898 18.0915 17.9617 18.1232C18.0335 18.1549 18.1109 18.1721 18.1894 18.1739C18.2679 18.1757 18.346 18.162 18.4192 18.1336C18.4924 18.1052 18.5593 18.0626 18.6161 18.0084L27.7973 8.82718L30.8156 9.08731C30.9019 9.09551 30.989 9.0843 31.0704 9.05451C31.1518 9.02473 31.2255 8.97712 31.2862 8.91516L35.1117 5.08966C35.1754 5.03673 35.2274 4.97111 35.2644 4.89696C35.3014 4.82281 35.3226 4.74178 35.3266 4.659C35.3305 4.57623 35.3172 4.49355 35.2874 4.41621C35.2577 4.33887 35.2121 4.26857 35.1537 4.2098ZM30.6664 7.8555L28.2028 7.64127L27.9886 5.17383L30.7238 2.43477L30.8959 4.40107C30.9073 4.54136 30.9682 4.67303 31.0677 4.77255C31.1672 4.87207 31.2989 4.93295 31.4392 4.9443L33.4055 5.11644L30.6664 7.8555Z" fill="#F08200"/>
<path d="M17.9999 6.39001C15.5162 6.39008 13.0998 7.19751 11.1149 8.6906C9.13006 10.1837 7.68435 12.2815 6.99569 14.6679C6.30704 17.0542 6.41275 19.5998 7.29692 21.9208C8.18108 24.2418 9.79576 26.2126 11.8976 27.5359C13.9994 28.8593 16.4744 29.4636 18.9496 29.2577C21.4248 29.0518 23.766 28.0469 25.6203 26.3945C27.4746 24.742 28.7414 22.5316 29.23 20.0964C29.7185 17.6612 29.4022 15.1331 28.3287 12.8934C28.255 12.7607 28.1337 12.6609 27.9894 12.614C27.8451 12.5671 27.6883 12.5766 27.5507 12.6406C27.4131 12.7046 27.3047 12.8183 27.2475 12.9588C27.1903 13.0994 27.1885 13.2564 27.2423 13.3983C28.286 15.5734 28.5283 18.0472 27.9264 20.3835C27.3245 22.7197 25.9172 24.7685 23.9524 26.1686C21.9877 27.5687 19.5918 28.2302 17.187 28.0364C14.7823 27.8427 12.5231 26.8062 10.8078 25.1097C9.09255 23.4131 8.03131 21.1655 7.81119 18.763C7.59108 16.3605 8.22622 13.9574 9.60464 11.9775C10.9831 9.99748 13.0163 8.56771 15.3458 7.94023C17.6753 7.31275 20.1516 7.52784 22.338 8.5476C22.4062 8.6009 22.4851 8.63874 22.5693 8.6585C22.6536 8.67826 22.7411 8.67946 22.8259 8.66203C22.9106 8.6446 22.9906 8.60895 23.0602 8.55754C23.1298 8.50614 23.1874 8.44022 23.2289 8.36434C23.2705 8.28847 23.2951 8.20446 23.301 8.11814C23.3069 8.03181 23.294 7.94524 23.2631 7.86442C23.2322 7.78359 23.1841 7.71046 23.1221 7.65007C23.0601 7.58969 22.9858 7.5435 22.9042 7.51471L22.8468 7.48793C21.3312 6.77092 19.6765 6.39609 17.9999 6.39001Z" fill="#666666"/>
<path d="M17.9655 12.6984C16.9492 12.7045 15.9574 13.0114 15.1153 13.5804C14.2732 14.1494 13.6185 14.9551 13.2338 15.8958C12.849 16.8365 12.7515 17.8701 12.9535 18.8661C13.1554 19.8622 13.6479 20.7761 14.3687 21.4927C15.0894 22.2092 16.0063 22.6962 17.0035 22.8923C18.0008 23.0883 19.0338 22.9847 19.9721 22.5944C20.9105 22.204 21.7123 21.5445 22.2764 20.6991C22.8404 19.8536 23.1414 18.8601 23.1414 17.8437C23.1414 17.6854 23.0785 17.5337 22.9666 17.4217C22.8547 17.3098 22.7029 17.2469 22.5446 17.2469C22.3864 17.2469 22.2346 17.3098 22.1227 17.4217C22.0107 17.5337 21.9479 17.6854 21.9479 17.8437C21.9479 18.6245 21.7166 19.3877 21.2832 20.0372C20.8498 20.6866 20.2337 21.1931 19.5128 21.4928C18.7918 21.7924 17.9982 21.8718 17.2322 21.7209C16.4662 21.5699 15.762 21.1955 15.2086 20.6447C14.6552 20.094 14.2773 19.3916 14.1227 18.6263C13.968 17.861 14.0436 17.0671 14.3397 16.3447C14.6359 15.6223 15.1394 15.0038 15.7868 14.5672C16.4341 14.1307 17.1962 13.8958 17.977 13.892C18.1353 13.892 18.2871 13.8291 18.399 13.7172C18.5109 13.6053 18.5738 13.4535 18.5738 13.2952C18.5738 13.1369 18.5109 12.9851 18.399 12.8732C18.2871 12.7613 18.1353 12.6984 17.977 12.6984H17.9655Z" fill="#666666"/>
</g>
<defs>
<clipPath id="clip0_249_810">
<rect width="34.6667" height="34.6667" fill="white" transform="translate(0.666748 0.510437)"/>
</clipPath>
</defs>
</svg>
