<svg width="28" height="28" viewBox="0 0 28 28" fill="none" xmlns="http://www.w3.org/2000/svg">
<circle cx="13.8665" cy="13.8665" r="13.8665" fill="url(#paint0_linear_196_187)" fill-opacity="0.1"/>
<path d="M17 12.25L16.25 10L15.5 12.25H13.25L15.125 13.6L14.45 15.775L16.25 14.425L18.125 15.775L17.45 13.6L19.25 12.25H17Z" fill="#F58220"/>
<path d="M25.25 13.75H21.5C21.125 13.75 20.75 14.05 20.75 14.5V21.25C20.75 21.625 21.125 22 21.5 22H25.25C25.625 22 26 21.625 26 21.25V14.5C26 14.05 25.625 13.75 25.25 13.75ZM25.25 20.5H21.5V15.25H25.25V20.5ZM23 7H9.5C8.675 7 8 7.675 8 8.5V17.5C8 18.325 8.675 19 9.5 19H14.75V20.5H14C13.55 20.5 13.25 20.875 13.25 21.25C13.25 21.625 13.55 22 14 22H18.5C18.95 22 19.25 21.625 19.25 21.25C19.25 20.875 18.95 20.5 18.5 20.5H17.75V19H18.5C18.95 19 19.25 18.7 19.25 18.25C19.25 17.8 18.95 17.5 18.5 17.5H10.25C9.875 17.5 9.5 17.2 9.5 16.75V9.25C9.5 8.875 9.875 8.5 10.25 8.5H22.25C22.625 8.5 23 8.875 23 9.25V11.5C23 11.95 23.375 12.25 23.75 12.25C24.125 12.25 24.5 11.95 24.5 11.5V8.5C24.5 7.675 23.825 7 23 7Z" fill="#6C6C6C"/>
<defs>
<linearGradient id="paint0_linear_196_187" x1="-0.821051" y1="13.4187" x2="21.5752" y2="13.3731" gradientUnits="userSpaceOnUse">
<stop stop-color="#F58220"/>
<stop offset="1" stop-color="#F58220" stop-opacity="0"/>
</linearGradient>
</defs>
</svg>
