<svg width="45" height="46" viewBox="0 0 45 46" fill="none" xmlns="http://www.w3.org/2000/svg">
<circle cx="22.5" cy="22.9307" r="22.5" fill="url(#paint0_linear_18_3)" fill-opacity="0.1"/>
<g clip-path="url(#clip0_18_3)">
<path d="M9.82479 30.0162L8.88477 30.9502L9.82479 31.8842L10.7648 30.9502L9.82479 30.0162Z" fill="#666666"/>
<path d="M37.2755 23.3984C35.5337 22.2226 34.5231 22.8964 33.127 23.8211L32.5021 24.2307C31.2843 24.9814 30.0184 25.6521 28.7125 26.2387C28.655 26.1402 28.5882 26.0473 28.5131 25.9613C28.2891 25.7179 28.0185 25.5213 27.7171 25.3829C27.4158 25.2446 27.0897 25.1672 26.7579 25.1554L22.769 25.0497C22.5956 25.0072 22.4385 24.9154 22.3169 24.7855C21.1786 23.7577 19.6786 23.2167 18.1418 23.2795C16.4538 23.2811 14.8326 23.9349 13.6209 25.1026L11.1611 27.5598L9.83142 26.2387L6.97266 29.0659L7.90341 30.0039L9.79153 28.1279L17.0382 35.3411L15.1633 37.2171L16.1074 38.1418L18.9396 35.3411L17.6099 34.02L17.8493 33.7954H27.0505C27.9371 33.7939 28.7945 33.4803 29.4704 32.9103L31.9436 30.8362C32.635 30.2549 33.2733 29.7132 33.7918 29.1452C34.1774 28.7885 34.5497 28.4186 34.9752 28.0354L37.4484 25.8028C37.6216 25.6455 37.7567 25.4513 37.8437 25.2348C37.9306 25.0182 37.9671 24.785 37.9505 24.5524C37.9339 24.3199 37.8645 24.0941 37.7476 23.8919C37.6308 23.6898 37.4694 23.5166 37.2755 23.3852V23.3984ZM36.5575 24.8384L34.0844 27.071C33.6456 27.4674 33.26 27.8373 32.8744 28.2072C32.4888 28.5771 31.7442 29.2905 31.0793 29.8453L28.6195 31.9195C28.1775 32.2819 27.6236 32.4825 27.0505 32.4875H17.3041L16.6924 33.0952L12.0519 28.4978L14.5251 26.0406C15.4913 25.1204 16.7768 24.6048 18.1152 24.6006C19.2922 24.5409 20.4463 24.9389 21.333 25.7103C21.6853 26.0775 22.1555 26.3111 22.6626 26.3708L26.6516 26.4765C26.9549 26.4765 27.2457 26.5962 27.4602 26.8093C27.6746 27.0224 27.7951 27.3113 27.7951 27.6127C27.7951 27.914 27.6746 28.203 27.4602 28.416C27.2457 28.6291 26.9549 28.7488 26.6516 28.7488H21.9712V30.0699H26.6782C27.3043 30.0683 27.9068 29.8321 28.3653 29.4084C28.8237 28.9847 29.1045 28.4048 29.1513 27.7844C29.1513 27.6919 29.1513 27.5995 29.1513 27.507C30.5619 26.8816 31.926 26.1576 33.2334 25.3404L33.8716 24.9176C35.2811 23.9929 35.5736 23.8343 36.5309 24.4817C36.5592 24.5008 36.5824 24.5263 36.5986 24.5562C36.6148 24.5861 36.6235 24.6195 36.624 24.6534C36.6301 24.6873 36.6271 24.7222 36.6154 24.7547C36.6038 24.7871 36.5838 24.8159 36.5575 24.8384Z" fill="#666666"/>
<path d="M32.3701 22.897C32.9335 21.8573 33.2303 20.6958 33.2344 19.515C33.2324 18.4668 32.9962 17.4321 32.5429 16.4856C32.0895 15.5391 31.4304 14.7044 30.6129 14.0417C29.7955 13.3791 28.8402 12.905 27.8159 12.6537C26.7917 12.4025 25.7241 12.3802 24.6902 12.5887C23.6562 12.7971 22.6818 13.2311 21.8371 13.8591C20.9925 14.4872 20.2987 15.2937 19.8059 16.2205C19.3131 17.1473 19.0335 18.1713 18.9873 19.2185C18.9411 20.2657 19.1295 21.31 19.5389 22.2761L20.7622 21.7609C20.4596 21.0505 20.3058 20.2864 20.3101 19.515C20.3094 18.6375 20.5105 17.7714 20.8981 16.9829C21.2857 16.1943 21.8495 15.5042 22.5464 14.9652C23.2434 14.4262 24.0551 14.0525 24.9195 13.8727C25.784 13.6929 26.6784 13.7117 27.5344 13.9277C28.3905 14.1437 29.1855 14.5512 29.8589 15.1191C30.5323 15.6869 31.0661 16.4001 31.4198 17.2042C31.7734 18.0084 31.9374 18.8821 31.8993 19.7588C31.8612 20.6356 31.6221 21.492 31.2 22.2629L32.3701 22.897Z" fill="#666666"/>
<path d="M18.1157 17.5326V16.2115C17.6436 16.2141 17.1798 16.0878 16.775 15.8466C16.3701 15.6054 16.0396 15.2584 15.8195 14.8434C15.5994 14.4284 15.4982 13.9614 15.5268 13.4932C15.5554 13.025 15.7128 12.5735 15.9819 12.1881C16.2509 11.8026 16.6213 11.4979 17.0526 11.3072C17.4839 11.1164 17.9596 11.0469 18.4279 11.1062C18.8962 11.1656 19.3392 11.3515 19.7085 11.6437C20.0778 11.9359 20.3593 12.3232 20.5224 12.7634L21.7723 12.301C21.5157 11.6417 21.083 11.0645 20.5207 10.6315C19.9584 10.1985 19.2878 9.92612 18.5812 9.84381C17.8746 9.7615 17.1588 9.87232 16.511 10.1643C15.8631 10.4564 15.3077 10.9185 14.9047 11.501C14.5016 12.0835 14.2662 12.7642 14.2238 13.4698C14.1813 14.1754 14.3335 14.8791 14.6639 15.5051C14.9942 16.1311 15.4903 16.6557 16.0986 17.0223C16.7068 17.3889 17.4043 17.5836 18.1157 17.5854V17.5326Z" fill="#666666"/>
<path d="M27.5834 10.0297C28.0706 9.75077 28.649 9.67477 29.1923 9.8183C29.4669 9.89152 29.7241 10.0184 29.9489 10.1915C30.1736 10.3645 30.3614 10.5803 30.5013 10.8263C30.6412 11.0723 30.7303 11.3435 30.7636 11.6241C30.7968 11.9046 30.7734 12.189 30.6948 12.4605L32.0245 12.804C32.1499 12.3633 32.184 11.9018 32.1245 11.4476C32.0651 10.9935 31.9135 10.556 31.6788 10.1618C31.4569 9.76563 31.1563 9.41844 30.7951 9.14136C30.4339 8.86428 30.0198 8.6631 29.5779 8.55006C28.6928 8.31608 27.7504 8.44064 26.9577 8.8964C26.1649 9.35215 25.5865 10.1018 25.3496 10.9809L26.6793 11.3111C26.807 10.7859 27.13 10.3281 27.5834 10.0297Z" fill="#666666"/>
<path d="M28.2489 16.6611H23.8477V17.4538H25.1774C25.4306 17.4509 25.6778 17.5297 25.8821 17.6784C26.0781 17.821 26.2264 18.0189 26.3076 18.2464H23.7812V19.0523H26.3076C26.2303 19.2819 26.0812 19.4809 25.8821 19.6204C25.6807 19.7746 25.4315 19.854 25.1774 19.845H23.8477V20.8094L26.0816 23.042H27.2251L24.8184 20.6509H25.2439C25.7078 20.6534 26.1581 20.4952 26.5173 20.2034C26.8765 19.9116 27.1221 19.5046 27.2118 19.0523H28.2489V18.2464H27.1985C27.1683 18.1058 27.1237 17.9686 27.0655 17.8369C26.9981 17.7047 26.9226 17.5768 26.8395 17.4538H28.2489V16.6611Z" fill="#f58220"/>
</g>
<defs>
<linearGradient id="paint0_linear_18_3" x1="-1.33225" y1="22.204" x2="35.0082" y2="22.13" gradientUnits="userSpaceOnUse">
<stop stop-color="#F58220"/>
<stop offset="1" stop-color="#F58220" stop-opacity="0"/>
</linearGradient>
<clipPath id="clip0_18_3">
<rect width="30.9677" height="29.7247" fill="white" transform="translate(7 8.43066)"/>
</clipPath>
</defs>
</svg>
