<svg width="13" height="14" viewBox="0 0 13 14" fill="none" xmlns="http://www.w3.org/2000/svg">
<g clip-path="url(#clip0_79_756)">
<path d="M12.1866 6.67225V12.3291C12.1837 12.5436 12.0973 12.7486 11.9458 12.9005C11.7943 13.0523 11.5895 13.1392 11.375 13.1425H1.625C1.41016 13.1396 1.20494 13.053 1.05301 12.9011C0.901083 12.7492 0.814456 12.5439 0.811572 12.3291V2.5791C0.814935 2.36459 0.901774 2.15983 1.05365 2.0083C1.20553 1.85677 1.41048 1.7704 1.625 1.76753H7.28186C7.21249 1.50083 7.21249 1.22081 7.28186 0.954102H1.625C1.19418 0.954593 0.781135 1.12596 0.476495 1.4306C0.171855 1.73524 0.000492594 2.14828 1.06367e-06 2.5791V12.3291C-0.000243317 12.5426 0.0416249 12.754 0.123202 12.9513C0.20478 13.1485 0.324463 13.3278 0.475407 13.4787C0.62635 13.6296 0.805587 13.7493 1.00285 13.8309C1.20012 13.9125 1.41153 13.9543 1.625 13.9541H11.375C11.8058 13.9536 12.2189 13.7822 12.5235 13.4776C12.8281 13.173 12.9995 12.7599 13 12.3291V6.67225C12.733 6.73923 12.4536 6.73923 12.1866 6.67225Z" fill="#f58220"/>
<path d="M12.9774 1.21029C12.9556 1.16279 12.9224 1.12135 12.8809 1.08958C12.8474 1.04743 12.804 1.01424 12.7546 0.993003C12.7021 0.971857 12.6459 0.961134 12.5893 0.961432H8.9363C8.82843 0.961432 8.72499 1.00428 8.64871 1.08056C8.57244 1.15683 8.52959 1.26028 8.52959 1.36815C8.52959 1.47601 8.57244 1.57946 8.64871 1.65574C8.72499 1.73201 8.82843 1.77486 8.9363 1.77486H11.6273L2.51245 11.0383C2.43734 11.1146 2.39563 11.2177 2.3965 11.3248C2.39737 11.4319 2.44075 11.5342 2.51709 11.6094C2.59344 11.6845 2.6965 11.7262 2.80359 11.7253C2.91069 11.7244 3.01305 11.6811 3.08817 11.6047L12.1993 2.358L12.1863 5.02486C12.1861 5.07821 12.1967 5.13104 12.2174 5.18019C12.2382 5.22934 12.2687 5.27379 12.307 5.31086C12.3445 5.34859 12.389 5.37854 12.4381 5.39898C12.4872 5.41941 12.5398 5.42994 12.593 5.42994C12.6462 5.42994 12.6988 5.41941 12.7479 5.39898C12.797 5.37854 12.8416 5.34859 12.879 5.31086C12.9174 5.27379 12.9479 5.22934 12.9686 5.18019C12.9893 5.13104 12.9999 5.07821 12.9997 5.02486V1.36072C13.0023 1.30959 12.9948 1.25846 12.9774 1.21029Z" fill="#f58220"/>
</g>
<defs>
<clipPath id="clip0_79_756">
<rect width="13" height="13" fill="white" transform="translate(0 0.954102)"/>
</clipPath>
</defs>
</svg>
