<svg width="45" height="46" viewBox="0 0 45 46" fill="none" xmlns="http://www.w3.org/2000/svg">
<circle cx="22.5" cy="22.9307" r="22.5" fill="url(#paint0_linear_18_5)" fill-opacity="0.1"/>
<g clip-path="url(#clip0_18_5)">
<path d="M28.0134 22.2685C27.4451 22.2685 26.9001 22.4948 26.4982 22.8978C26.0964 23.3008 25.8706 23.8474 25.8706 24.4172C25.8748 24.6169 25.9085 24.8148 25.9706 25.0046L22.7849 27.3109C22.4303 27.0581 22.0057 26.9229 21.5706 26.9242C21.1468 26.9242 20.7325 27.0502 20.3801 27.2863C20.0277 27.5224 19.753 27.858 19.5908 28.2506C19.4287 28.6433 19.3862 29.0753 19.4689 29.4921C19.5516 29.909 19.7557 30.2918 20.0554 30.5924C20.355 30.8929 20.7369 31.0975 21.1525 31.1804C21.5682 31.2633 21.9991 31.2208 22.3906 31.0581C22.7822 30.8955 23.1169 30.6201 23.3523 30.2667C23.5878 29.9133 23.7134 29.4979 23.7134 29.0729C23.7081 28.8687 23.6744 28.6662 23.6134 28.4713L26.7992 26.1793C27.1538 26.432 27.5784 26.5673 28.0134 26.566C28.532 26.5603 29.031 26.3674 29.4193 26.0228C29.8076 25.6782 30.0591 25.2048 30.1277 24.6894L34.042 23.8443C34.2297 24.1588 34.4955 24.4191 34.8135 24.5999C35.1315 24.7806 35.4908 24.8757 35.8563 24.8757C36.2683 24.8775 36.6721 24.7602 37.0193 24.5377C37.3666 24.3153 37.6425 23.9972 37.814 23.6216C37.9856 23.2459 38.0455 22.8287 37.9866 22.4197C37.9277 22.0108 37.7525 21.6276 37.4819 21.316C37.2114 21.0044 36.857 20.7776 36.4612 20.6627C36.0654 20.5479 35.645 20.55 35.2503 20.6687C34.8557 20.7873 34.5035 21.0175 34.236 21.3317C33.9685 21.646 33.797 22.0309 33.742 22.4404L29.8277 23.2855C29.6393 22.9727 29.373 22.7145 29.0549 22.5362C28.7368 22.3578 28.3779 22.2656 28.0134 22.2685ZM21.5706 29.7892C21.3811 29.7892 21.1995 29.7137 21.0655 29.5794C20.9316 29.4451 20.8563 29.2629 20.8563 29.0729C20.86 28.8841 20.9364 28.704 21.0696 28.5705C21.2027 28.437 21.3823 28.3603 21.5706 28.3567C21.76 28.3567 21.9417 28.4321 22.0757 28.5665C22.2096 28.7008 22.2849 28.883 22.2849 29.0729C22.2849 29.2629 22.2096 29.4451 22.0757 29.5794C21.9417 29.7137 21.76 29.7892 21.5706 29.7892ZM28.0134 25.1335C27.824 25.1335 27.6423 25.058 27.5084 24.9237C27.3744 24.7894 27.2992 24.6072 27.2992 24.4172C27.2992 24.2273 27.3744 24.0451 27.5084 23.9108C27.6423 23.7765 27.824 23.701 28.0134 23.701C28.2029 23.701 28.3846 23.7765 28.5185 23.9108C28.6525 24.0451 28.7277 24.2273 28.7277 24.4172C28.7241 24.6061 28.6476 24.7861 28.5145 24.9196C28.3813 25.0532 28.2017 25.1298 28.0134 25.1335ZM35.8563 22.0393C36.0457 22.0393 36.2274 22.1147 36.3614 22.2491C36.4953 22.3834 36.5706 22.5656 36.5706 22.7555C36.5706 22.9455 36.4953 23.1277 36.3614 23.262C36.2274 23.3963 36.0457 23.4718 35.8563 23.4718C35.668 23.4681 35.4884 23.3915 35.3553 23.2579C35.2221 23.1244 35.1457 22.9443 35.142 22.7555C35.142 22.5656 35.2173 22.3834 35.3512 22.2491C35.4852 22.1147 35.6669 22.0393 35.8563 22.0393Z" fill="#f58220"/>
<path d="M22.286 32.3535H20.8574V35.2902H22.286V32.3535Z" fill="#666666"/>
<path d="M25.1434 31.0791H23.7148V35.2907H25.1434V31.0791Z" fill="#666666"/>
<path d="M28.0008 29.0732H26.5723V35.2904H28.0008V29.0732Z" fill="#666666"/>
<path d="M30.8583 27.5977H29.4297V35.3046H30.8583V27.5977Z" fill="#666666"/>
<path d="M33.7137 27.1826H32.2852V35.2907H33.7137V27.1826Z" fill="#666666"/>
<path d="M36.5712 26.7812H35.1426V35.2904H36.5712V26.7812Z" fill="#666666"/>
<path d="M10.4857 29.2022H11.9143C11.8196 28.1941 11.5129 27.2176 11.0143 26.3371C9.99696 24.422 9.45314 22.2898 9.42857 20.12C9.42857 13.5734 13.5143 9.82021 20.6286 9.82021V8.3877C12.7143 8.3877 8 12.7712 8 20.12C8.01486 22.5046 8.60811 24.8497 9.72857 26.9531C10.1236 27.6466 10.3808 28.4104 10.4857 29.2022Z" fill="#666666"/>
<path d="M20.1171 13.7868L19.3008 14.9619L20.7893 16.0017L21.6056 14.8265L20.1171 13.7868Z" fill="#666666"/>
<path d="M9.95787 35.147H19.415V33.7145H11.8436C11.9231 33.5099 12.0448 33.3244 12.2007 33.1701C12.9007 32.5685 14.6293 30.4484 14.6293 29.2594C14.5617 27.9255 14.1851 26.6257 13.5293 25.4632C12.6703 23.8895 12.2093 22.1286 12.1864 20.3348C12.1864 15.3353 15.0436 12.6422 20.5722 12.5419C20.7712 12.5541 20.9613 12.6294 21.115 12.7568L26.2579 17.5271C26.449 17.7089 26.5716 17.9514 26.605 18.2134C26.6383 18.4755 26.5803 18.7411 26.4408 18.9652C26.3014 19.1893 26.0889 19.3582 25.8395 19.4434C25.5901 19.5285 25.319 19.5246 25.0722 19.4323C21.8579 18.186 19.6436 17.7849 18.415 18.3149C18.2435 18.4075 18.0992 18.5435 17.9964 18.7094C17.8936 18.8752 17.836 19.0652 17.8293 19.2604C17.8293 20.4064 19.4579 21.6384 20.1864 22.1254C21.1364 22.8493 21.8842 23.8065 22.3579 24.9045C22.4864 25.1624 22.615 25.3916 22.7293 25.5921L23.9579 24.8472C23.8436 24.6753 23.7436 24.4604 23.615 24.2312C23.038 22.9231 22.1262 21.7914 20.9722 20.9508C20.3636 20.5707 19.8267 20.0857 19.3864 19.5182C21.1763 19.5803 22.9353 20.0042 24.5579 20.7645C25.1157 20.9797 25.7308 20.9933 26.2975 20.803C26.8642 20.6128 27.3471 20.2305 27.6633 19.7219C27.9794 19.2133 28.109 18.6102 28.0298 18.0162C27.9506 17.4222 27.6676 16.8744 27.2293 16.467L22.0436 11.7111C21.6224 11.3333 21.08 11.1197 20.515 11.1094C14.3007 11.224 10.7293 14.5761 10.7293 20.3348C10.7374 22.3324 11.2275 24.2984 12.1579 26.0649C12.7191 27.042 13.0513 28.1345 13.1293 29.2594C12.7133 30.3497 12.0535 31.3298 11.2007 32.1244C10.7335 32.5598 10.4139 33.1308 10.2864 33.7575H8.5293V38.1983H37.6293V36.7658H9.95787V35.147Z" fill="#666666"/>
</g>
<defs>
<linearGradient id="paint0_linear_18_5" x1="-1.33225" y1="22.204" x2="35.0082" y2="22.13" gradientUnits="userSpaceOnUse">
<stop stop-color="#F58220"/>
<stop offset="1" stop-color="#F58220" stop-opacity="0"/>
</linearGradient>
<clipPath id="clip0_18_5">
<rect width="30" height="29.7247" fill="white" transform="translate(8 8.43066)"/>
</clipPath>
</defs>
</svg>
