<svg width="30" height="30" viewBox="0 0 30 30" fill="none" xmlns="http://www.w3.org/2000/svg">
<path d="M27.1875 15C27.1875 8.26934 21.7307 2.8125 15 2.8125C8.26934 2.8125 2.8125 8.26934 2.8125 15C2.8125 21.7307 8.26934 27.1875 15 27.1875C21.7307 27.1875 27.1875 21.7307 27.1875 15Z" stroke="white" stroke-width="1.875" stroke-miterlimit="10"/>
<path d="M26.1078 10.0863C25.1668 10.0922 25.2594 11.8283 24.0869 11.0092C23.6516 10.7057 23.3838 10.2644 22.8371 10.1303C22.3596 10.0131 21.8703 10.135 21.3987 10.2164C20.8625 10.309 20.2268 10.3506 19.8201 10.7566C19.427 11.1475 19.219 11.6719 18.8006 12.065C17.9914 12.8268 17.6498 13.6582 18.1737 14.7352C18.6776 15.7705 19.7317 16.3324 20.869 16.2586C21.9863 16.1842 23.1471 15.5361 23.1149 17.1598C23.1031 17.734 23.2233 18.1324 23.3996 18.6662C23.5631 19.1584 23.552 19.6353 23.5895 20.1434C23.6586 21.0926 23.8332 22.1566 24.3043 22.9951L25.1832 21.7553C25.2916 21.6018 25.5184 21.3867 25.5723 21.2057C25.6678 20.8852 25.4797 20.3344 25.458 19.9752C25.4363 19.616 25.4469 19.2521 25.3918 18.893C25.3145 18.3896 25.0168 17.918 24.9758 17.4205C24.9002 16.4941 25.0696 15.7547 24.3559 14.9801C23.6668 14.233 22.6567 14.0537 21.6916 14.2055C21.2053 14.2816 19.2477 14.5945 20.0334 13.483C20.1887 13.2644 20.46 13.0852 20.6346 12.8771C20.7863 12.6961 20.9182 12.3633 21.0963 12.2221C21.2744 12.0809 22.0924 11.9186 22.3268 11.9906C22.5612 12.0627 22.8055 12.4008 23.0088 12.5508C23.3845 12.8337 23.8228 13.0219 24.2867 13.0992C25.0871 13.2164 26.7606 12.7512 26.7477 11.7246C26.7453 11.2324 26.2883 10.5469 26.1078 10.0863ZM16.843 18.5332C16.5307 17.2184 14.7442 16.7789 13.7809 16.0658C13.2272 15.6557 12.7344 15.0223 12.0072 14.9707C11.6721 14.9467 11.3914 15.0193 11.0592 14.9332C10.7545 14.8547 10.5154 14.6906 10.1908 14.7334C9.58439 14.8131 9.20178 15.4611 8.55021 15.3732C7.93205 15.29 7.29514 14.567 7.15451 13.9781C6.97404 13.2211 7.57287 12.9756 8.21447 12.9082C8.48225 12.8801 8.78283 12.8496 9.04006 12.9475C9.37873 13.0734 9.53869 13.4051 9.84279 13.5727C10.4129 13.885 10.5283 13.3857 10.441 12.8795C10.3104 12.1213 10.158 11.8119 10.8342 11.2904C11.3029 10.9307 11.7037 10.6705 11.6287 10.0242C11.5842 9.64453 11.3762 9.47285 11.5701 9.09492C11.7172 8.80722 12.1209 8.54765 12.384 8.37597C13.0631 7.933 15.2932 7.96582 14.3821 6.72597C14.1143 6.36211 13.6203 5.71171 13.1516 5.62265C12.5656 5.51191 12.3055 6.16582 11.8971 6.4541C11.4752 6.75234 10.6537 7.09101 10.2313 6.62988C9.66291 6.00937 10.608 5.80546 10.8172 5.37246C11.0264 4.93945 10.3326 4.12089 9.96115 3.91347L8.21447 5.87226C8.1643 6.2003 8.18176 6.53514 8.2658 6.85618C8.34984 7.17722 8.49867 7.47768 8.70314 7.73906C9.0506 8.18613 9.60373 8.32968 9.62893 8.94023C9.65353 9.52617 9.56213 9.82617 9.17892 10.2381C9.0131 10.4139 8.89592 10.6635 8.72717 10.8281C8.52033 11.0291 8.59709 10.9676 8.27424 11.0227C7.66721 11.1252 7.15041 11.2834 6.56389 11.4451C5.58654 11.7152 5.49631 10.1186 5.05099 9.49218L3.58615 10.6752C3.57033 10.8691 3.82639 11.226 3.89611 11.4369C4.29631 12.6422 5.10373 13.5744 5.62521 14.7275C6.17424 15.9486 7.64846 15.61 8.29943 16.6799C8.87717 17.6291 8.26018 18.8309 8.6926 19.8246C9.00666 20.5459 9.74728 20.7035 10.2582 21.2309C10.7803 21.7635 10.7692 22.4924 10.8488 23.1855C10.9387 24.0008 11.0846 24.809 11.2854 25.6043C11.3563 25.8791 11.4213 26.2424 11.6094 26.4691C11.7383 26.625 12.1807 26.7592 12.002 26.8107C12.2516 26.8518 12.6963 27.085 12.9043 26.9139C13.1785 26.6889 13.1053 25.9963 13.1528 25.6834C13.2951 24.7518 13.7615 23.8406 14.3908 23.1434C15.0125 22.4555 15.8645 21.9896 16.3895 21.2098C16.901 20.4492 17.0551 19.4232 16.843 18.5332ZM14.8865 20.0754C14.535 20.7029 13.7522 21.123 13.2488 21.6217C13.1123 21.757 12.8217 22.2258 12.6506 22.1244C12.5281 22.0518 12.4865 21.4436 12.4414 21.3041C12.2087 20.6019 11.7643 19.9889 11.1694 19.5492C10.986 19.4103 10.5313 19.2299 10.4264 19.0394C10.3092 18.8326 10.4147 18.3445 10.4188 18.1195C10.4252 17.7914 10.2758 17.2459 10.3567 16.9477C10.4504 16.6037 10.2699 16.8111 10.5776 16.7432C10.7399 16.7068 11.4102 16.8246 11.6123 16.8668C11.9334 16.9336 12.1104 17.1334 12.3635 17.3355C13.0291 17.8693 13.7621 18.2824 14.508 18.6914C15.0858 19.0113 15.2557 19.4162 14.8865 20.0754ZM10.8084 3.93105C11.0862 4.20234 11.3475 4.52343 11.7617 4.55039C12.1537 4.57675 12.5235 4.36464 12.8656 4.63125C13.2453 4.92421 13.519 5.29511 14.0229 5.38652C14.5104 5.475 15.0266 5.19023 15.1473 4.6916C15.2645 4.2164 15.0119 3.69961 14.9967 3.22265C14.9967 3.15644 15.0324 2.8623 14.9867 2.8125C14.9528 2.775 14.6692 2.81718 14.6258 2.81835C14.3082 2.82773 13.9914 2.84961 13.6754 2.88398C12.5234 3.00868 11.3951 3.29774 10.325 3.74238C10.4674 3.84082 10.6461 3.88007 10.8084 3.93105ZM20.883 7.22285C21.3805 7.22285 21.8856 7.00019 21.725 6.4248C21.5903 5.94257 21.3606 5.41933 20.8016 5.67949C20.4459 5.84472 19.942 6.26543 19.9004 6.68261C19.8529 7.15605 20.5514 7.22285 20.883 7.22285ZM20.4858 9.74062C20.9938 10.0447 21.7473 9.90175 22.1305 9.46757C22.4299 9.12773 22.6063 8.53769 23.1447 8.53828C23.3818 8.53778 23.6096 8.63061 23.7787 8.79668C24.0014 9.02695 23.9574 9.24316 24.0049 9.53144C24.111 10.1789 24.8053 9.56836 24.9863 9.31757C25.1035 9.1541 25.2623 8.91152 25.209 8.69882C25.1598 8.50019 24.9278 8.28867 24.8246 8.10644C24.5235 7.5791 24.2756 6.96562 23.8244 6.53964C23.3903 6.12949 22.8565 6.17695 22.4445 6.60293C22.107 6.95449 21.7151 7.23281 21.4842 7.66054C21.3213 7.96113 21.1379 8.10468 20.808 8.18261C20.6264 8.22539 20.419 8.24121 20.2666 8.36308C19.8424 8.69707 20.0838 9.49921 20.4858 9.74062Z" fill="white"/>
</svg>
