<svg width="15" height="16" viewBox="0 0 15 16" fill="none" xmlns="http://www.w3.org/2000/svg">
<g clip-path="url(#clip0_203_457)">
<path d="M13.5 15.1456H10.5C10.1022 15.1456 9.72064 14.9876 9.43934 14.7063C9.15803 14.425 9 14.0434 9 13.6456V11.1448C9 10.747 8.84196 10.3655 8.56066 10.0842C8.27936 9.80286 7.89782 9.64482 7.5 9.64482C7.10218 9.64482 6.72064 9.80286 6.43934 10.0842C6.15803 10.3655 6 10.747 6 11.1448V13.6456C6 14.0434 5.84196 14.425 5.56066 14.7063C5.27936 14.9876 4.89782 15.1456 4.5 15.1456H1.5C1.10218 15.1456 0.720644 14.9876 0.43934 14.7063C0.158035 14.425 0 14.0434 0 13.6456V5.68962C0.000724718 5.43884 0.0641152 5.19221 0.18441 4.97216C0.304704 4.75211 0.478088 4.56562 0.6888 4.42962L7.2288 0.224826C7.30933 0.173041 7.40306 0.145508 7.4988 0.145508C7.59454 0.145508 7.68827 0.173041 7.7688 0.224826L14.3088 4.42962C14.5203 4.56501 14.6944 4.75132 14.8151 4.97146C14.9359 5.1916 14.9995 5.43854 15 5.68962V13.6456C15 14.0434 14.842 14.425 14.5607 14.7063C14.2794 14.9876 13.8978 15.1456 13.5 15.1456ZM7.5 8.64642C8.16284 8.64642 8.79856 8.90957 9.26748 9.37804C9.73641 9.84652 10.0002 10.482 10.0008 11.1448V13.6456C10.0008 13.778 10.0534 13.905 10.147 13.9986C10.2406 14.0922 10.3676 14.1448 10.5 14.1448H13.5C13.6324 14.1448 13.7594 14.0922 13.853 13.9986C13.9466 13.905 13.9992 13.778 13.9992 13.6456V5.68962C13.9978 5.60506 13.9751 5.52221 13.9332 5.44878C13.8912 5.37535 13.8314 5.31372 13.7592 5.26962L7.5 1.24003L1.2288 5.26962C1.15916 5.31546 1.10191 5.37777 1.06214 5.45104C1.02237 5.52431 1.0013 5.60626 1.0008 5.68962V13.6456C1.0008 13.778 1.05339 13.905 1.14701 13.9986C1.24063 14.0922 1.3676 14.1448 1.5 14.1448H4.5C4.6324 14.1448 4.75937 14.0922 4.85299 13.9986C4.94661 13.905 4.9992 13.778 4.9992 13.6456V11.1448C4.99984 10.482 5.26359 9.84652 5.73251 9.37804C6.20144 8.90957 6.83716 8.64642 7.5 8.64642Z" fill="#1A3967"/>
</g>
<defs>
<clipPath id="clip0_203_457">
<rect width="15" height="15" fill="white" transform="translate(0 0.146484)"/>
</clipPath>
</defs>
</svg>
