<svg width="40" height="35" viewBox="0 0 40 35" fill="none" xmlns="http://www.w3.org/2000/svg">
<path fill-rule="evenodd" clip-rule="evenodd" d="M26.1855 16.9867C26.3195 17.1064 26.4025 17.2737 26.4172 17.4537C26.4241 17.5532 26.409 17.653 26.3729 17.7458C26.3369 17.8387 26.2808 17.9224 26.2087 17.9907L23.8691 20.419C23.8042 20.4905 23.7256 20.5481 23.638 20.5882C23.5504 20.6283 23.4557 20.6502 23.3595 20.6524C23.2716 20.6552 23.1841 20.6377 23.1038 20.6013C23.0235 20.5649 22.9526 20.5105 22.8963 20.4423C22.8269 20.387 22.7718 20.3157 22.7355 20.2345C22.6992 20.1532 22.6828 20.0643 22.6878 19.9753C22.68 19.8848 22.6926 19.7937 22.7247 19.7088C22.7568 19.6239 22.8075 19.5474 22.8731 19.485L25.1895 17.0334C25.2478 16.9676 25.3192 16.915 25.399 16.8788C25.4788 16.8426 25.5652 16.8237 25.6528 16.8233C25.748 16.8049 25.8464 16.8101 25.9392 16.8386C26.032 16.8671 26.1165 16.9179 26.1855 16.9867Z" fill="#F08200"/>
<path fill-rule="evenodd" clip-rule="evenodd" d="M39.5039 22.5209L35.1954 18.1314C35.0691 18.0105 34.9057 17.9364 34.7322 17.9212C34.6447 17.9216 34.5582 17.9406 34.4784 17.9768C34.3986 18.013 34.3272 18.0656 34.2689 18.1314L33.713 18.6684L31.3966 16.4269L32.022 15.7965C32.2237 15.602 32.3691 15.3558 32.4425 15.0843C32.516 14.8128 32.5147 14.5263 32.439 14.2555C32.3327 13.6834 32.0488 13.1601 31.6282 12.7612L31.5124 12.6678C31.2418 12.4055 30.9284 12.1923 30.5859 12.0374C30.8508 11.6206 30.9804 11.1309 30.9565 10.6364C30.9277 10.0251 30.681 9.44467 30.2616 9.00204L30.1226 8.8853C29.7697 8.59188 29.3592 8.37703 28.9181 8.25488C28.9825 8.07533 29.0139 7.88543 29.0107 7.69451C29.0432 7.66183 29.0432 7.64782 29.0107 7.64782C29.0112 7.00434 28.7809 6.38237 28.3621 5.89666L28.2232 5.77992C27.8409 5.42198 27.3526 5.20049 26.8333 5.14951C26.8692 5.00452 26.8848 4.85521 26.8797 4.70588C26.8769 4.37912 26.81 4.05614 26.6828 3.75559C26.5556 3.45503 26.3705 3.18284 26.1384 2.95473L26.0458 2.86133C25.8344 2.64458 25.5819 2.47292 25.3033 2.35659C25.0248 2.24026 24.7258 2.18164 24.4243 2.18422C24.2368 2.18448 24.0501 2.20801 23.8684 2.25427L17.0119 0.456417C16.854 0.428671 16.6915 0.453248 16.5486 0.526463C16.4065 0.594672 16.292 0.710093 16.2243 0.853345L15.9232 1.81064H15.7147C15.1207 1.80185 14.5468 2.02818 14.1164 2.44106C14.0723 2.48252 14.0259 2.52149 13.9775 2.5578C13.7388 2.78082 13.5494 3.05204 13.4217 3.35376C13.294 3.65549 13.2308 3.98096 13.2362 4.30895C13.2305 4.4506 13.2461 4.59231 13.2825 4.72923C12.7693 4.7939 12.2902 5.02309 11.9159 5.38299L11.8001 5.47639C11.5626 5.70526 11.3742 5.98086 11.2467 6.2861C11.1192 6.59134 11.0553 6.91971 11.0588 7.25089C11.031 7.25089 11.031 7.25089 11.0588 7.29759C11.0579 7.48832 11.0893 7.67782 11.1515 7.85795C10.7081 7.96881 10.3009 8.19412 9.97013 8.51172L9.85431 8.60511C9.40555 9.04149 9.1402 9.63494 9.11307 10.2629C9.091 10.7571 9.2204 11.2462 9.48369 11.6638C9.15905 11.8158 8.86163 12.0209 8.60347 12.2709L8.44132 12.3876C8.04322 12.7909 7.76966 13.3018 7.65375 13.8586C7.58676 14.1282 7.58769 14.4104 7.65646 14.6795C7.72523 14.9486 7.85967 15.1962 8.04754 15.3996L8.88143 16.1934L6.35658 18.6684L5.77749 18.1314C5.71377 18.0678 5.63759 18.0184 5.55383 17.9862C5.47007 17.9541 5.38057 17.9399 5.29105 17.9446C5.11875 17.9455 4.9532 18.0123 4.82778 18.1314L0.519322 22.5209C0.456288 22.59 0.407456 22.6709 0.375648 22.7591C0.343841 22.8472 0.329689 22.9409 0.334012 23.0346C0.343266 23.2065 0.408384 23.3706 0.519322 23.5016L11.1283 34.0085C11.191 34.0652 11.2643 34.1088 11.3438 34.1368C11.4233 34.1649 11.5075 34.1768 11.5916 34.1719C11.7757 34.1828 11.9572 34.1246 12.1012 34.0085L16.4096 29.5956C16.5368 29.4543 16.6106 29.2725 16.6181 29.0819C16.601 28.9075 16.5278 28.7435 16.4096 28.6149L15.4831 27.751L19.0271 24.5756L20.6023 24.3188L24.5401 27.751L23.6136 28.6149C23.5026 28.7459 23.4375 28.91 23.4283 29.0819C23.4239 29.1756 23.4381 29.2693 23.4699 29.3575C23.5017 29.4456 23.5505 29.5266 23.6136 29.5956L27.922 34.0085C28.064 34.1115 28.2336 34.1685 28.4085 34.1719C28.5763 34.1693 28.7388 34.1119 28.8717 34.0085L39.4576 23.5016C39.5757 23.373 39.649 23.209 39.666 23.0346C39.6716 22.8498 39.6144 22.6686 39.5039 22.5209ZM17.1509 2.6045C17.1654 2.39058 17.2043 2.17906 17.2667 1.97408L22.2932 3.25826L20.1622 5.21955H19.861L18.8187 5.05611C18.4972 5.00192 18.1899 4.88279 17.9153 4.70588C17.4057 4.36343 17.1509 3.68632 17.1509 2.67454V2.6045ZM14.8808 3.60849L14.9735 3.5151C15.0692 3.41356 15.1841 3.33234 15.3114 3.27621C15.4387 3.22007 15.5758 3.19015 15.7147 3.18821H15.8074C15.8091 3.70202 15.9267 4.2087 16.1515 4.66987C16.3762 5.13104 16.7021 5.5346 17.1046 5.84997C17.5294 6.1321 17.9997 6.33752 18.4944 6.45703C18.7121 6.50373 19.0596 6.55977 19.5368 6.62047L19.6062 6.69052C19.7011 6.77139 19.773 6.87611 19.8147 6.99405L19.861 7.34428C19.85 7.60281 19.752 7.84985 19.5831 8.04474L19.4904 8.13814C19.407 8.24845 19.3003 8.33865 19.178 8.40219C19.0557 8.46574 18.9209 8.50103 18.7834 8.5055C18.6458 8.50997 18.5091 8.48351 18.3829 8.42805C18.2568 8.37258 18.1446 8.2895 18.0543 8.18484L15.2746 5.40634L14.9503 5.03276C14.7631 4.85511 14.6476 4.61395 14.626 4.35565C14.6413 4.08774 14.7295 3.82925 14.8808 3.60849ZM12.6803 6.57378L12.7961 6.48038C12.9946 6.27933 13.2571 6.15531 13.5373 6.13015C13.8386 6.12702 14.1321 6.22566 14.3712 6.41034L17.1509 9.14213L17.2899 9.25888C17.3168 9.37254 17.3727 9.47715 17.452 9.56241C17.55 9.64984 17.6278 9.75788 17.6798 9.87892C17.7318 9.99995 17.7569 10.131 17.7531 10.2629C17.7445 10.515 17.6458 10.7554 17.4752 10.94L17.3825 11.0334C17.2935 11.1407 17.1842 11.229 17.0609 11.2932C16.9376 11.3573 16.8028 11.396 16.6644 11.407C16.5447 11.4109 16.4254 11.3902 16.3139 11.346C16.2023 11.3018 16.1009 11.2352 16.0159 11.1501L13.1899 8.34828C12.8284 8.07116 12.5613 7.68769 12.4255 7.25089C12.4243 7.00117 12.5151 6.75991 12.6803 6.57378ZM10.7577 9.6558L10.8967 9.56241C10.9818 9.4469 11.0894 9.35006 11.2128 9.27781C11.3363 9.20555 11.473 9.15939 11.6148 9.14213C11.7151 9.13355 11.8162 9.14569 11.9118 9.1778C12.0074 9.20992 12.0955 9.26134 12.1707 9.32892L14.9967 12.1308C15.0608 12.199 15.1103 12.2798 15.1422 12.3682C15.1741 12.4566 15.1876 12.5506 15.182 12.6444C15.1624 12.9081 15.0657 13.16 14.904 13.3682L14.765 13.4616C14.6768 13.5847 14.5623 13.6864 14.4301 13.7591C14.2978 13.8318 14.1511 13.8738 14.0006 13.8819C13.837 13.9058 13.6706 13.8639 13.5373 13.7652L13.491 13.7185L13.4447 13.6951L10.665 10.8933C10.5898 10.8263 10.53 10.7435 10.49 10.6507C10.45 10.5579 10.4307 10.4574 10.4334 10.3563C10.4698 10.0954 10.5828 9.8515 10.7577 9.6558ZM9.02041 14.1154C9.08869 13.8609 9.20683 13.6227 9.36787 13.4149L9.46053 13.3449C9.67144 13.0863 9.96726 12.9123 10.2944 12.8546C10.4228 12.8155 10.5598 12.8155 10.6882 12.8546L12.5413 14.6991L12.634 14.7692C12.6908 14.8448 12.7306 14.9321 12.7506 15.0248C12.7706 15.1176 12.7703 15.2136 12.7498 15.3062C12.6753 15.5817 12.5408 15.8369 12.356 16.0533L12.2633 16.1234C12.0725 16.3554 11.8126 16.5191 11.5221 16.5904C11.4042 16.6054 11.2845 16.5893 11.1746 16.5437L10.3407 15.7031H10.3176L9.04358 14.4189C8.98335 14.3722 8.97409 14.2555 9.02041 14.1154ZM11.5916 32.5375L10.7114 31.6736L12.4486 29.8991C12.5765 29.7773 12.6514 29.6094 12.6571 29.4322C12.6477 29.242 12.5742 29.0608 12.4486 28.9185C12.322 28.8013 12.1572 28.7349 11.9854 28.7317C11.7981 28.7264 11.6159 28.7932 11.4758 28.9185L9.71533 30.693L1.97864 23.0113L5.31422 19.6024L14.0006 28.218L14.9272 29.1286L11.5916 32.5375ZM18.6334 23.2447C18.5043 23.2643 18.3837 23.3211 18.2859 23.4082L14.5334 26.7471L7.3063 19.649L9.85431 17.1507L10.2018 17.5243C10.4098 17.7271 10.6662 17.8723 10.9462 17.9459C11.2262 18.0195 11.5203 18.0191 11.8001 17.9446C12.3021 17.8151 12.759 17.5485 13.1204 17.1741C13.1724 17.1426 13.2193 17.1032 13.2594 17.0573C13.6498 16.6448 13.9289 16.1384 14.0701 15.5864L14.1164 15.2595C14.4046 15.2508 14.6882 15.1844 14.9507 15.0642C15.2132 14.9439 15.4493 14.7722 15.6452 14.559L15.7611 14.489C16.2234 14.0504 16.4977 13.4472 16.5255 12.8079V12.7612H16.6413C17.231 12.7596 17.7966 12.5249 18.2164 12.1074L18.3322 11.9907C18.5648 11.7763 18.7523 11.5171 18.8836 11.2283C19.015 10.9395 19.0874 10.6271 19.0966 10.3096L19.0503 9.84259C19.5721 9.76777 20.0578 9.53112 20.4401 9.16548L20.556 9.04874C21.0102 8.5896 21.268 7.96936 21.274 7.32093C21.2702 7.09057 21.2311 6.86219 21.1582 6.64382L21.0192 6.31694L23.6831 3.88868C23.7821 3.78216 23.9 3.69507 24.0305 3.63184L24.4011 3.58514C24.5388 3.58815 24.6741 3.62099 24.798 3.68142C24.9219 3.74186 25.0315 3.82847 25.1192 3.93537L25.2119 4.02877C25.3662 4.22342 25.4626 4.45821 25.4898 4.70588C25.4797 4.97594 25.3727 5.23313 25.1887 5.42969L23.4283 7.15749C23.3055 7.29969 23.2395 7.48272 23.243 7.67116C23.2478 7.84406 23.3134 8.00959 23.4283 8.13814C23.5684 8.26345 23.7506 8.33025 23.9379 8.32493C24.1097 8.32175 24.2745 8.25531 24.4011 8.13814L25.7446 6.78391C25.9954 6.6289 26.2844 6.54799 26.5785 6.55043C26.7147 6.54837 26.8496 6.5766 26.9738 6.6331C27.0979 6.6896 27.2081 6.77298 27.2966 6.87731L27.3893 6.92401C27.5465 7.13284 27.6356 7.38577 27.6441 7.64782C27.6441 7.89531 27.4078 8.27823 26.926 8.7919L25.4898 10.1928C25.3708 10.33 25.2978 10.5016 25.2814 10.6831C25.287 10.8604 25.362 11.0283 25.4898 11.1501C25.63 11.2754 25.8122 11.3422 25.9994 11.3369C26.184 11.3521 26.3671 11.2934 26.509 11.1735L27.9452 9.77255C28.0117 9.69822 28.0945 9.64053 28.187 9.60406C28.2794 9.56758 28.3791 9.55332 28.478 9.56241C28.7757 9.60196 29.0482 9.75177 29.2424 9.98269L29.335 10.0527C29.4953 10.2281 29.6001 10.4475 29.6361 10.6831C29.6439 10.7933 29.6294 10.9039 29.5936 11.0082C29.5577 11.1125 29.5013 11.2085 29.4277 11.2902L27.7136 13.018C27.5908 13.1602 27.5248 13.3432 27.5282 13.5317C27.5274 13.7127 27.5935 13.8874 27.7136 14.022C27.8537 14.1473 28.0359 14.2141 28.2232 14.2088C28.395 14.2056 28.5598 14.1392 28.6864 14.022L29.4045 13.2515C29.5585 13.221 29.7176 13.229 29.8678 13.2749C30.1641 13.3478 30.4309 13.5108 30.6322 13.7418L30.7248 13.8352C30.8998 14.0338 31.0197 14.2754 31.0723 14.5357C31.092 14.5859 31.0982 14.6404 31.09 14.6938C31.0819 14.7471 31.0598 14.7973 31.026 14.8392L29.9373 15.9366L23.7294 22.4275L18.6334 23.2447ZM22.3859 24.062L24.1927 23.7818C24.3328 23.7611 24.4627 23.6956 24.5633 23.595L30.4469 17.4309L32.7169 19.6724L25.513 26.7704L22.3859 24.062ZM30.3079 30.693L28.2926 28.6149C28.1651 28.4958 28.0024 28.422 27.8294 28.4048C27.7347 28.403 27.6407 28.4207 27.553 28.4568C27.4654 28.493 27.386 28.5468 27.3198 28.6149C27.1979 28.7595 27.1248 28.9394 27.1113 29.1286C27.111 29.2204 27.1294 29.3112 27.1652 29.3955C27.2011 29.4798 27.2537 29.5559 27.3198 29.6189L29.335 31.6736L28.4548 32.5375L25.1192 29.1286L34.709 19.6024L38.0446 23.0113L30.3079 30.693Z" fill="#666666"/>
<path fill-rule="evenodd" clip-rule="evenodd" d="M6.03292 21.5885C5.97312 21.5197 5.89752 21.4667 5.81273 21.4342C5.72794 21.4016 5.63653 21.3905 5.54648 21.4017C5.45869 21.4003 5.37166 21.4184 5.29159 21.4547C5.21152 21.491 5.14037 21.5447 5.08321 21.6119C5.01893 21.6702 4.96879 21.7426 4.93666 21.8236C4.90454 21.9046 4.89128 21.9919 4.8979 22.0788C4.89915 22.1669 4.91829 22.2538 4.95415 22.3341C4.99 22.4144 5.04181 22.4865 5.10637 22.5458L5.9171 23.363C5.9758 23.436 6.04994 23.4949 6.1341 23.5353C6.21826 23.5757 6.31032 23.5966 6.40354 23.5965C6.58231 23.5827 6.74862 23.4989 6.86682 23.363C6.93204 23.3042 6.9843 23.2323 7.02021 23.1518C7.05612 23.0714 7.07489 22.9842 7.07529 22.896C7.06052 22.7094 6.97805 22.5349 6.84365 22.4057L6.03292 21.5885Z" fill="#F08200"/>
<path fill-rule="evenodd" clip-rule="evenodd" d="M34.0143 21.5899L33.1572 22.3837C33.089 22.4451 33.035 22.5209 32.999 22.6056C32.963 22.6903 32.9458 22.7819 32.9487 22.8741C32.9444 22.9608 32.9588 23.0474 32.9907 23.128C33.0227 23.2086 33.0716 23.2813 33.1341 23.341C33.1992 23.4124 33.2778 23.4698 33.3654 23.5099C33.4529 23.55 33.5475 23.572 33.6437 23.5745C33.731 23.5733 33.8172 23.554 33.8969 23.5178C33.9766 23.4817 34.0481 23.4295 34.1069 23.3644L34.9408 22.5472C35.0061 22.4885 35.0584 22.4165 35.0941 22.3361C35.1299 22.2556 35.1484 22.1684 35.1484 22.0802C35.1484 21.992 35.1299 21.9048 35.0941 21.8244C35.0584 21.7439 35.0061 21.6719 34.9408 21.6132C34.8841 21.5455 34.813 21.4915 34.7328 21.4552C34.6527 21.4188 34.5654 21.401 34.4775 21.4031C34.3915 21.3988 34.3056 21.4132 34.2256 21.4454C34.1457 21.4777 34.0736 21.5269 34.0143 21.5899Z" fill="#F08200"/>
</svg>
