<svg width="21" height="22" viewBox="0 0 21 22" fill="none" xmlns="http://www.w3.org/2000/svg">
<path d="M21 10.6739C21 9.23796 20.7291 7.88668 20.1872 6.62005C19.6453 5.35343 18.9036 4.24938 17.9621 3.30788C17.0206 2.36637 15.9166 1.6247 14.65 1.08282C13.3833 0.540952 12.0321 0.27002 10.5961 0.27002C9.16014 0.27002 7.80887 0.540952 6.54224 1.08282C5.27561 1.6247 4.17156 2.36637 3.23006 3.30788C2.28856 4.24938 1.54688 5.35343 1.00501 6.62005C0.463137 7.88668 0.192206 9.23796 0.192206 10.6739C0.192206 12.1099 0.463137 13.4612 1.00501 14.7278C1.54688 15.9944 2.28856 17.0985 3.23006 18.04C4.17156 18.9815 5.27561 19.7231 6.54224 20.265C7.80887 20.8069 9.16014 21.0778 10.5961 21.0778C12.0321 21.0778 13.3833 20.8069 14.65 20.265C15.9166 19.7231 17.0206 18.9815 17.9621 18.04C18.9036 17.0985 19.6453 15.9944 20.1872 14.7278C20.7291 13.4612 21 12.1099 21 10.6739ZM10.0271 13.6203L5.04871 8.64191C4.91324 8.51998 4.84551 8.36759 4.84551 8.1847C4.84551 8.00182 4.91324 7.84942 5.04871 7.7275C5.17063 7.59203 5.32303 7.5243 5.50591 7.5243C5.6888 7.5243 5.8412 7.59203 5.96312 7.7275L10.5961 12.3605L15.2291 7.7275C15.351 7.59203 15.5034 7.5243 15.6863 7.5243C15.8692 7.5243 16.0216 7.59203 16.1435 7.7275C16.279 7.84942 16.3467 8.00182 16.3467 8.1847C16.3467 8.36759 16.279 8.51998 16.1435 8.64191L11.1651 13.6203C11.0838 13.7016 10.9923 13.7558 10.8907 13.7829C10.7891 13.81 10.6909 13.81 10.5961 13.7829C10.5013 13.81 10.4031 13.81 10.3015 13.7829C10.1999 13.7558 10.1084 13.7016 10.0271 13.6203Z" fill="#f58220"/>
</svg>
