<svg width="55" height="54" viewBox="0 0 55 54" fill="none" xmlns="http://www.w3.org/2000/svg">
<circle cx="27.6931" cy="27" r="27" fill="url(#paint0_linear_95_491)"/>
<circle cx="28" cy="27" r="15" stroke="#666666" stroke-width="2"/>
<path d="M31.7267 33.6667H21.4167C21.2841 33.6667 21.1569 33.614 21.0631 33.5202C20.9694 33.4265 20.9167 33.2993 20.9167 33.1667V25C20.9167 24.8674 20.9694 24.7402 21.0631 24.6465C21.1569 24.5527 21.2841 24.5 21.4167 24.5H23.7234C24.0112 24.5 24.2941 24.4255 24.5445 24.2837C24.795 24.1419 25.0044 23.9377 25.1525 23.6909L27.4109 19.9267C27.5812 19.6424 27.8495 19.4301 28.1654 19.3298C28.4812 19.2295 28.8228 19.248 29.126 19.382C29.4291 19.5159 29.6729 19.7559 29.8115 20.057C29.95 20.358 29.9738 20.6993 29.8784 21.0167L29.0267 23.8567C29.0044 23.9313 28.9998 24.0101 29.0133 24.0867C29.0268 24.1634 29.058 24.2359 29.1045 24.2984C29.1509 24.3608 29.2113 24.4116 29.2809 24.4466C29.3504 24.4816 29.4272 24.4999 29.505 24.5H33.3175C33.5738 24.5 33.8266 24.559 34.0564 24.6726C34.2861 24.7862 34.4866 24.9512 34.6422 25.1548C34.7978 25.3585 34.9043 25.5953 34.9535 25.8468C35.0027 26.0983 34.9933 26.3578 34.9259 26.605L33.3342 32.4384C33.2381 32.7909 33.0288 33.1021 32.7385 33.3241C32.4482 33.546 32.0929 33.6664 31.7275 33.6667H31.7267Z" stroke="#F08200" stroke-width="1.5" stroke-linecap="round"/>
<path d="M23.8334 33.6667V24.5" stroke="#F08200" stroke-width="1.5" stroke-linecap="round" stroke-linejoin="round"/>
<defs>
<linearGradient id="paint0_linear_95_491" x1="13.0681" y1="45" x2="69.3181" y2="45" gradientUnits="userSpaceOnUse">
<stop stop-color="#F08200" stop-opacity="0.15"/>
<stop offset="1" stop-color="#C4C4C4" stop-opacity="0"/>
</linearGradient>
</defs>
</svg>
