<svg width="31" height="30" viewBox="0 0 31 30" fill="none" xmlns="http://www.w3.org/2000/svg">
<circle cx="15.366" cy="14.9158" r="14.8269" fill="#FFF6EB"/>
<path d="M13.4521 20.623C13.4521 20.623 13.4583 20.6286 13.4707 20.6398C13.483 20.651 13.4954 20.6622 13.5078 20.6735C13.5202 20.6847 13.5264 20.6903 13.5264 20.6903C13.5512 20.6903 13.5759 20.6959 13.6007 20.7071C13.6255 20.7183 13.6379 20.7239 13.6379 20.7239C13.7122 20.7464 13.7617 20.7688 13.7865 20.7913C13.8361 20.7913 13.8856 20.7913 13.9352 20.7913C14.0095 20.8137 14.0714 20.8137 14.121 20.7913C14.1457 20.7913 14.1705 20.7913 14.1953 20.7913C14.2944 20.7688 14.3811 20.7352 14.4554 20.6903C14.4554 20.6903 14.4678 20.6791 14.4926 20.6566C14.5669 20.6117 14.6102 20.5837 14.6226 20.5725C14.635 20.5612 14.6474 20.5444 14.6598 20.522C14.6722 20.4995 14.6784 20.4883 14.6784 20.4883L21.7761 10.1872C21.9 10.0077 21.9371 9.81694 21.8876 9.61496C21.838 9.41297 21.7204 9.25588 21.5346 9.14367C21.3487 9.03145 21.1444 8.99779 20.9214 9.04267C20.6984 9.08756 20.525 9.18855 20.4011 9.34565L13.8237 18.8724L10.2191 15.6744C10.0457 15.5398 9.84747 15.4724 9.6245 15.4724C9.40154 15.4724 9.20954 15.551 9.04851 15.7081C8.88748 15.8652 8.81316 16.0503 8.82555 16.2635C8.83793 16.4767 8.93083 16.6506 9.10425 16.7853L13.4521 20.623Z" fill="#0CD070"/>
</svg>
