<svg version="1.2" xmlns="http://www.w3.org/2000/svg" viewBox="0 0 66 20" width="66" height="20"><style>.a{fill:#009b3a}.b{fill:#f08200}.c{fill:#fff}</style><path class="a" d="m0 2c0-1.1 0.9-2 2-2h62c1.1 0 2 0.9 2 2v16c0 1.1-0.9 2-2 2h-62c-1.1 0-2-0.9-2-2z"/><path class="b" d="m0 2c0-1.1 0.9-2 2-2h14c1.1 0 2 0.9 2 2v16c0 1.1-0.9 2-2 2h-14c-1.1 0-2-0.9-2-2z"/><path fill-rule="evenodd" class="c" d="m22.8 14q-0.5 0-0.7-0.2-0.2-0.3-0.2-0.7v-6.6q0-0.5 0.2-0.7 0.2-0.3 0.7-0.3 0.9 0 0.9 1v5.9h3.2q0.8 0 0.8 0.8 0 0.8-0.8 0.8zm8.6 0.1q-1 0-1.7-0.3-0.7-0.4-1.1-1.1-0.3-0.7-0.3-1.7 0-0.9 0.3-1.6 0.4-0.7 1.1-1 0.7-0.4 1.7-0.4 0.9 0 1.6 0.4 0.7 0.3 1.1 1 0.4 0.7 0.4 1.6 0 1-0.4 1.7-0.4 0.7-1.1 1.1-0.7 0.3-1.6 0.3zm0-1.3q0.6 0 0.9-0.4 0.4-0.5 0.4-1.4 0-0.8-0.4-1.2-0.3-0.5-0.9-0.5-0.6 0-1 0.5-0.3 0.4-0.3 1.2 0 0.9 0.3 1.4 0.4 0.4 1 0.4zm6.5 1.3q-0.7 0-1-0.7l-1.7-4.2q-0.2-0.5 0-0.8 0.2-0.4 0.7-0.4 0.4 0 0.5 0.2 0.2 0.1 0.4 0.5l1.2 3.2 1.2-3.3q0.2-0.6 0.8-0.6 0.5 0 0.8 0.6l1.2 3.3 1.2-3.2q0.1-0.4 0.3-0.5 0.3-0.2 0.6-0.2 0.5 0 0.6 0.4 0.2 0.3 0 0.8l-1.7 4.2q-0.3 0.7-1 0.7-0.7 0-1-0.7l-1.1-2.7-1 2.7q-0.3 0.7-1 0.7zm10.8 0q-1 0-1.8-0.3-0.7-0.4-1.1-1.1-0.4-0.7-0.4-1.6 0-1 0.4-1.6 0.4-0.7 1-1.1 0.7-0.4 1.6-0.4 1.3 0 2 0.8 0.8 0.8 0.8 2.2 0 0.4-0.6 0.4h-3.5q0.1 0.7 0.5 1.1 0.4 0.3 1.2 0.3 0.2 0 0.6-0.1 0.4-0.1 0.7-0.2 0.4-0.2 0.6-0.1 0.2 0.1 0.3 0.4 0.1 0.2 0 0.5-0.1 0.2-0.4 0.4-0.4 0.2-0.9 0.3-0.5 0.1-1 0.1zm-0.2-4.9q-0.6 0-1 0.3-0.3 0.4-0.4 1h2.6q-0.1-1.3-1.2-1.3zm6 4.9q-0.5 0-1.1-0.1-0.5-0.1-1-0.3-0.3-0.1-0.4-0.4-0.1-0.2 0-0.5 0.1-0.2 0.3-0.3 0.2-0.1 0.5 0 0.5 0.2 0.9 0.3 0.4 0.1 0.8 0.1 0.5 0 0.8-0.2 0.2-0.1 0.2-0.4 0-0.4-0.6-0.5l-1.3-0.3q-0.7-0.1-1.1-0.5-0.4-0.4-0.4-1.1 0-0.6 0.3-1 0.4-0.4 0.9-0.7 0.6-0.2 1.4-0.2 1.1 0 1.9 0.4 0.2 0.1 0.3 0.4 0.1 0.2 0 0.4-0.1 0.3-0.3 0.4-0.2 0.1-0.5 0-0.4-0.2-0.8-0.3-0.3-0.1-0.6-0.1-0.5 0-0.8 0.2-0.2 0.2-0.2 0.4 0 0.5 0.6 0.6l1.2 0.2q0.8 0.1 1.2 0.5 0.4 0.4 0.4 1.1 0 0.9-0.7 1.4-0.7 0.5-1.9 0.5zm6.5 0q-2.5 0-2.5-2.4v-2.2h-0.5q-0.7 0-0.7-0.7 0-0.7 0.7-0.7h0.5v-0.9q0-0.9 0.9-0.9 0.9 0 0.9 0.9v0.9h1.2q0.7 0 0.7 0.7 0 0.7-0.7 0.7h-1.2v2.1q0 0.6 0.2 0.8 0.3 0.3 0.8 0.3 0.2 0 0.3-0.1 0.2 0 0.3 0 0.2 0 0.3 0.1 0.1 0.1 0.1 0.5 0 0.3-0.1 0.5-0.1 0.2-0.3 0.3-0.2 0-0.5 0.1-0.2 0-0.4 0z"/><path class="c" d="m10.5 6.3q0.5 0.6 0.7 1.4h1.8v1.4h-1.8c-0.2 0.8-0.6 1.5-1.2 2-0.7 0.5-1.5 0.8-2.3 0.8h-0.7l4.2 4.3h-2l-4-4v-1.7h2.5q0.7 0 1.3-0.4 0.5-0.4 0.7-1h-4.5v-1.4h4.5c-0.3-0.9-1-1.4-2-1.4h-2.5v-1.5h7.8v1.5z"/></svg>