<svg width="89" height="89" viewBox="0 0 89 89" fill="none" xmlns="http://www.w3.org/2000/svg">
<path d="M17.3848 35.1079H18.8321V37.2789H17.3848V35.1079Z" fill="#F08200"/>
<path d="M15.2168 37.2759H17.3877V38.7232H15.2168V37.2759Z" fill="#F08200"/>
<path d="M17.3848 38.7251H18.8321V40.896H17.3848V38.7251Z" fill="#F08200"/>
<path d="M18.834 37.2759H21.0049V38.7232H18.834V37.2759Z" fill="#F08200"/>
<path d="M62.3848 29.1079H63.8321V31.2789H62.3848V29.1079Z" fill="#F08200"/>
<path d="M60.2168 31.2759H62.3877V32.7232H60.2168V31.2759Z" fill="#F08200"/>
<path d="M62.3848 32.7251H63.8321V34.896H62.3848V32.7251Z" fill="#F08200"/>
<path d="M63.834 31.2759H66.0049V32.7232H63.834V31.2759Z" fill="#F08200"/>
<path d="M48.4368 27.1079V27.0079H48.3368H34.1702H34.0702V27.1079V27.8162C34.0702 31.0974 36.6018 33.2786 38.5791 34.4852C35.0982 35.4465 31.8707 38.1871 29.4992 41.5887C27.0751 45.0658 25.5348 49.2486 25.5348 52.9621C25.5348 57.5081 29.2331 61.2079 33.7806 61.2079H48.6556C53.2031 61.2079 56.9014 57.5081 56.9014 52.9621C56.9014 49.2515 55.3636 45.0719 52.9427 41.5962C50.5746 38.1964 47.3514 35.4558 43.8739 34.4902C45.8735 33.2837 48.4368 31.101 48.4368 27.8162V27.1079ZM38.3006 32.3221C37.1375 31.4132 36.0494 30.1776 35.7608 28.6246H46.7446C46.4527 30.1779 45.351 31.4141 44.1733 32.3234C42.9972 33.2314 41.7591 33.8026 41.2198 34.0289C40.685 33.8012 39.462 33.2297 38.3006 32.3221ZM33.7806 59.5912C30.1256 59.5912 27.1514 56.6171 27.1514 52.9621C27.1514 49.2181 28.8679 44.9233 31.4921 41.552C34.1173 38.1795 37.6331 35.7532 41.2181 35.7079C44.8038 35.7526 48.3196 38.1788 50.9446 41.5515C53.5687 44.9229 55.2848 49.2181 55.2848 52.9621C55.2848 56.6171 52.3106 59.5912 48.6556 59.5912H33.7806Z" fill="#666666" stroke="#666666" stroke-width="0.2"/>
<path d="M46.6001 43.7886V42.5845H36.9668V43.7886H40.2783C40.9428 43.7906 41.5833 44.0372 42.0775 44.4815C42.5717 44.9257 42.885 45.5364 42.9575 46.197H36.9668V47.4011H42.9575C42.885 48.0617 42.5717 48.6724 42.0775 49.1166C41.5833 49.5609 40.9428 49.8075 40.2783 49.8095H36.9668V51.2214L42.757 56.4324L43.5626 55.5377L38.5358 51.0136H40.2783C41.2633 51.0122 42.2117 50.6396 42.9342 49.97C43.6567 49.3005 44.1004 48.3832 44.1767 47.4011H46.6001V46.197H44.1767C44.1077 45.2929 43.7255 44.4412 43.096 43.7886H46.6001Z" fill="#F08200"/>
<ellipse cx="57.0832" cy="54.873" rx="6.8" ry="7.36667" fill="#FCF4EB"/>
<path d="M66.5085 39.0079C64.6141 39.0079 62.9191 39.4317 61.6941 40.1317C60.4711 40.8305 59.7001 41.8161 59.7001 42.9412V47.0077C58.8558 46.7955 57.9199 46.6746 56.9251 46.6746C55.0308 46.6746 53.3358 47.0984 52.1108 47.7983C50.8878 48.4972 50.1168 49.4827 50.1168 50.6079V58.2746C50.1168 59.3997 50.8878 60.3853 52.1108 61.0841C53.3358 61.7841 55.0308 62.2079 56.9251 62.2079C58.8195 62.2079 60.5145 61.7841 61.7395 61.0841C62.9624 60.3853 63.7335 59.3997 63.7335 58.2746V58.0348C64.6018 58.2541 65.5451 58.3746 66.5085 58.3746C68.4028 58.3746 70.0978 57.9508 71.3228 57.2508C72.5458 56.552 73.3168 55.5664 73.3168 54.4412V42.9412C73.3168 41.8161 72.5458 40.8305 71.3228 40.1317C70.0978 39.4317 68.4028 39.0079 66.5085 39.0079ZM66.5085 40.1662C68.054 40.1662 69.4757 40.493 70.5074 41.0088C71.5464 41.5283 72.1585 42.2215 72.1585 42.9412C72.1585 43.661 71.5464 44.3541 70.5074 44.8736C69.4757 45.3895 68.054 45.7162 66.5085 45.7162C64.963 45.7162 63.5413 45.3895 62.5095 44.8736C61.4705 44.3541 60.8585 43.661 60.8585 42.9412C60.8585 42.2215 61.4705 41.5283 62.5095 41.0088C63.5413 40.493 64.963 40.1662 66.5085 40.1662ZM56.9251 47.8329C58.4706 47.8329 59.8923 48.1596 60.9241 48.6755C61.9631 49.195 62.5751 49.8882 62.5751 50.6079C62.5751 51.3276 61.9631 52.0208 60.9241 52.5403C59.8923 53.0562 58.4706 53.3829 56.9251 53.3829C55.3796 53.3829 53.9579 53.0562 52.9262 52.5403C51.8872 52.0208 51.2751 51.3276 51.2751 50.6079C51.2751 49.8882 51.8872 49.195 52.9262 48.6755C53.9579 48.1596 55.3796 47.8329 56.9251 47.8329ZM51.2751 52.8267C52.4903 53.8727 54.5501 54.5412 56.9251 54.5412C59.3002 54.5412 61.3599 53.8727 62.5751 52.8267V54.4412C62.5751 55.1609 61.9631 55.8541 60.9241 56.3736C59.8923 56.8895 58.4706 57.2162 56.9251 57.2162C55.3796 57.2162 53.9579 56.8895 52.9262 56.3736C51.8872 55.8541 51.2751 55.1609 51.2751 54.4412V52.8267ZM56.9251 61.0496C55.3796 61.0496 53.9579 60.7229 52.9262 60.207C51.8872 59.6875 51.2751 58.9943 51.2751 58.2746V56.6601C52.4903 57.7061 54.5501 58.3746 56.9251 58.3746C59.3002 58.3746 61.3599 57.7061 62.5751 56.6601V58.2746C62.5751 58.9943 61.9631 59.6875 60.9241 60.207C59.8923 60.7229 58.4706 61.0496 56.9251 61.0496ZM66.5085 57.2162C65.5321 57.2162 64.5816 57.0823 63.7335 56.837V54.2025C64.6009 54.4216 65.5435 54.5403 66.5085 54.5403C68.8835 54.5403 70.9433 53.8718 72.1585 52.8258V54.4403C72.1585 55.16 71.5464 55.8534 70.5074 56.3732C69.4756 56.8893 68.0539 57.2162 66.5085 57.2162ZM66.5085 53.3829C65.5285 53.3829 64.5816 53.2472 63.7335 53.0017V50.6079C63.7335 50.5264 63.729 50.4458 63.7205 50.3661C64.5881 50.5875 65.5286 50.7079 66.5085 50.7079C68.8835 50.7079 70.9433 50.0394 72.1585 48.9934V50.6079C72.1585 51.3276 71.5464 52.0208 70.5074 52.5403C69.4757 53.0562 68.054 53.3829 66.5085 53.3829ZM66.5085 49.5496C65.2758 49.5496 64.12 49.3442 63.1341 48.9683C62.6329 48.3189 61.8426 47.7732 60.8585 47.3775V45.161C62.0737 46.207 64.1334 46.8755 66.5085 46.8755C68.8835 46.8755 70.9433 46.207 72.1585 45.161V46.7755C72.1585 47.4952 71.5464 48.1882 70.5074 48.7074C69.4757 49.2231 68.054 49.5496 66.5085 49.5496Z" fill="#666666" stroke="#666666" stroke-width="0.2"/>
<path d="M88.2162 44.1081C88.2162 68.4683 68.4683 88.2162 44.1081 88.2162C19.7479 88.2162 0 68.4683 0 44.1081C0 19.7479 19.7479 0 44.1081 0C68.4683 0 88.2162 19.7479 88.2162 44.1081Z" fill="url(#paint0_linear_501_466)"/>
<defs>
<linearGradient id="paint0_linear_501_466" x1="-0.576753" y1="218.623" x2="91.3151" y2="218.623" gradientUnits="userSpaceOnUse">
<stop stop-color="#F08200" stop-opacity="0.15"/>
<stop offset="1" stop-color="#C4C4C4" stop-opacity="0"/>
</linearGradient>
</defs>
</svg>
