<svg xmlns="http://www.w3.org/2000/svg" width="250" height="80" viewBox="0 0 250 80">
  <g id="logo" transform="translate(-29.4 -24.4)">
    <g id="Group_3" data-name="Group 3" transform="translate(29.753 24.4)">
      <g id="Group_2" data-name="Group 2">
        <g id="Group_1" data-name="Group 1">
          <path id="Path_1" data-name="Path 1" d="M71.214,61.2c-.264,1.545-3.35,22.747-3.614,24.721h6.964c.176-1.459,3.35-22.747,3.614-24.721Z" transform="translate(-34.278 -29.612)" fill="#003f7e"/>
          <path id="Path_2" data-name="Path 2" d="M136.114,61.2c-.264,1.545-3.35,22.747-3.614,24.721h16.4c.176-1.116.529-3.949.793-5.322h-9.961l.705-4.549h8.992c.176-1.03.529-3.605.705-4.979h-8.992l.705-4.464h9.7c.176-1.116.617-3.948.793-5.322h-16.22Z" transform="translate(-41.968 -29.612)" fill="#003f7e"/>
          <path id="Path_3" data-name="Path 3" d="M46.108,75.363S51.926,62.316,52.455,61.2H61.27c0,1.717-1.146,22.918-1.146,24.721H53.777l1.058-17.339s-7.14,16.223-7.581,17.339H42.229L39.938,68.582c-.176.773-2.556,12.361-3.879,17.339H29.8c.617-2.232,5.465-23.433,5.906-24.721h8.463Z" transform="translate(-29.8 -29.612)" fill="#003f7e"/>
          <path id="Path_4" data-name="Path 4" d="M114.455,75.778l3.967-9.185,1.322,9.185Zm5.994,5.064s.441,4.034.617,4.979h6.7c-.353-2.06-4.055-23.262-4.319-24.721h-8.463c-.529,1.03-10.138,22.318-11.283,24.721h6.788c.353-.858,2.116-4.979,2.116-4.979Z" transform="translate(-38.555 -29.598)" fill="#003f7e"/>
          <path id="Path_5" data-name="Path 5" d="M89.456,65.821h1.587a3.732,3.732,0,0,1,3,.944,2.9,2.9,0,0,1,.529,2.489,3.278,3.278,0,0,1-1.5,2.489,4.354,4.354,0,0,1-2.292.6H87.6L93.6,85.907h6.788L95.274,75.521c3.085-.6,5.554-1.459,6.171-6.18a11.205,11.205,0,0,0,.088-1.717,5.961,5.961,0,0,0-1.41-4.206c-1.675-1.888-4.584-2.318-6.7-2.318H83.814c-.264,1.545-3.35,22.747-3.614,24.807h6.347c.176-1.459,2.909-20.086,2.909-20.086" transform="translate(-35.771 -29.598)" fill="#003f7e"/>
          <path id="Path_6" data-name="Path 6" d="M309.28,24.4c-4.055,16.481-18.688,25.408-27.327,30.215L281.6,54.1c3.526-2.833,15.6-11.5,19.482-25.923Z" transform="translate(-59.632 -24.4)" fill="#f08300"/>
          <path id="Path_7" data-name="Path 7" d="M225.448,70.736l-1.851-.944h0c-.617-.343-2.027-1.116-2.027-2.4a1.987,1.987,0,0,1,.705-1.545,2.782,2.782,0,0,1,2.38-.515,8.434,8.434,0,0,1,4.055,2.232c.705-1.373,2.116-3.948,2.556-4.807a12.264,12.264,0,0,0-5.906-2.575,11.349,11.349,0,0,0-8.2,1.717,8.236,8.236,0,0,0-3.173,5.579c0,.429-.088.773-.088,1.116a5.959,5.959,0,0,0,.882,3.348c3.791-.086,7.757-.258,11.812-.6a4.791,4.791,0,0,0-1.146-.6" transform="translate(-51.612 -29.448)" fill="#003f7e"/>
          <path id="Path_8" data-name="Path 8" d="M258.982,61.2c-.176,1.03-.617,4.292-.882,5.837A105.778,105.778,0,0,0,274.5,61.2Z" transform="translate(-56.848 -29.612)" fill="#003f7e"/>
          <path id="Path_9" data-name="Path 9" d="M249.892,67.266h0c-.705.258-1.41.429-2.116.687-.176.086-.264.086-.441.172-.264.086-.617.172-.882.258-.176.086-.353.086-.441.172-.97.258-2.027.6-3.085.858-.176.086-.441.086-.617.172-.264.086-.617.172-.882.258s-.441.086-.705.172-.617.172-.882.258a2.633,2.633,0,0,1-.793.172c-.529.086-.97.258-1.5.343a2.669,2.669,0,0,1-.882.172c-.088,0-.264.086-.353.086h0c-2.909.6-5.906,1.2-9.168,1.8h-.264c-.617.086-1.146.172-1.763.258a.813.813,0,0,0-.441.086l-1.851.258h-.176c-3.438.515-7.14.944-10.931,1.2h-.088c-.617.086-1.146.086-1.763.172h-.176a12.129,12.129,0,0,1-1.763.086h-.176c-.617,0-1.234.086-1.851.086h-.176c-.617,0-1.234.086-1.851.086h-.088c-3.262.172-6.523.258-9.961.258h-3.085c-2.733,0-5.642-.172-8.551-.258h-.176c-4.408-.258-8.992-.6-13.664-1.116l5.377-4.979a64.771,64.771,0,0,0,7.493,1.631c-.793-4.807-1.587-9.013-1.675-9.614h-8.463c-.529,1.03-10.138,22.318-11.284,24.721h6.788c.353-.858,2.645-6.18,2.645-6.18h7.052s.705,5.15.882,6.18h6.7c-.176-.773-.793-4.549-1.587-8.841,4.76.258,9.609.343,14.016.258a1.933,1.933,0,0,1,.353,1.2.757.757,0,0,1-.088.429,1.56,1.56,0,0,1-.882,1.288,4.514,4.514,0,0,1-3.173.343c-2.2-.343-3.879-1.974-5.289-3.262-.882,1.373-2.733,4.292-3.262,5.236a15.311,15.311,0,0,0,8.286,4.034,11.033,11.033,0,0,0,8.11-1.8,8.585,8.585,0,0,0,3.438-5.751,7.579,7.579,0,0,0,.088-1.974c4.76-.172,8.727-.515,11.284-.687a2.65,2.65,0,0,1,1.234,2.146.757.757,0,0,1-.088.429,1.762,1.762,0,0,1-.882,1.288,4.514,4.514,0,0,1-3.173.343c-2.2-.343-3.879-1.974-5.289-3.262-.882,1.373-2.733,4.292-3.262,5.236a15.311,15.311,0,0,0,8.286,4.034,10.627,10.627,0,0,0,8.022-1.8,8.27,8.27,0,0,0,3.438-5.751,8.036,8.036,0,0,0-.176-3.605c1.058-.172,2.116-.343,3.085-.429-.793,5.15-1.5,10.043-1.587,10.987h16.4c.176-1.116.617-3.949.793-5.322h-9.7l.705-4.549h8.992c.176-.944.441-3.09.705-4.549a17.576,17.576,0,0,0,1.851-.6s3.085-.858,6.964-2.318c-.529,3.863-2.292,15.708-2.556,17.339h7.052c.264-1.459,2.733-18.541,2.733-18.541h5.113c.176-1.03.617-4.464.882-6.009a84.564,84.564,0,0,1-14.81,6.009" transform="translate(-45.202 -29.584)" fill="#003f7e"/>
          <path id="Path_10" data-name="Path 10" d="M205.075,71.937a12.219,12.219,0,0,0-2.116-1.2l-1.851-.944h0c-.617-.343-1.939-1.116-1.939-2.4a1.988,1.988,0,0,1,.705-1.545,2.852,2.852,0,0,1,2.38-.515,8.434,8.434,0,0,1,4.055,2.232c.705-1.373,2.116-3.948,2.556-4.807a12.264,12.264,0,0,0-5.906-2.575,11.349,11.349,0,0,0-8.2,1.717,7.917,7.917,0,0,0-3.173,5.579,5.143,5.143,0,0,0-.088,1.116,6.2,6.2,0,0,0,.617,2.918h.441c3.174.258,7.493.429,12.518.429" transform="translate(-48.958 -29.448)" fill="#003f7e"/>
          <path id="Path_11" data-name="Path 11" d="M243.452,66.522h9.7c.176-1.116.617-3.948.793-5.322H237.81l-1.41,9.614c2.2-.258,4.408-.6,6.611-.944Z" transform="translate(-54.277 -29.612)" fill="#003f7e"/>
        </g>
      </g>
    </g>
    <g id="Group_8" data-name="Group 8" transform="translate(29.4 87.662)">
      <g id="Group_6" data-name="Group 6">
        <path id="Path_12" data-name="Path 12" d="M59.74,103.5a3.456,3.456,0,0,0-2.821-1.2,3.086,3.086,0,0,0-1.587.343,4.608,4.608,0,0,0-1.234,1.03v-1.2H52.6v12.961h1.5v-5.15a3.278,3.278,0,0,0,2.821,1.288,3.58,3.58,0,0,0,2.821-1.2,5.166,5.166,0,0,0,.97-3.433A5.356,5.356,0,0,0,59.74,103.5Zm-1.234,5.923a2.159,2.159,0,0,1-1.763.944,2.565,2.565,0,0,1-2.028-.773,4.266,4.266,0,0,1-.617-2.661v-.258a3.346,3.346,0,0,1,.617-2.318,2.372,2.372,0,0,1,1.939-.773,2.13,2.13,0,0,1,1.851.858,4.027,4.027,0,0,1,.617,2.489A4.2,4.2,0,0,1,58.506,109.424Z" transform="translate(-32.149 -98.695)" fill="#003f7e"/>
        <path id="Path_13" data-name="Path 13" d="M72.637,109.957c-.264,0-.529.086-.705.086a1.479,1.479,0,0,1-1.058-.429,1.648,1.648,0,0,1-.353-1.2v-5.236h2.645V102.06H70.521V100h-1.5v2.06H67.7v1.116h1.322v5.236a2.421,2.421,0,0,0,2.733,2.747,3.077,3.077,0,0,0,.882-.086c.264-.086.529-.086.617-.172v-1.116A1.3,1.3,0,0,1,72.637,109.957Z" transform="translate(-33.938 -98.369)" fill="#003f7e"/>
        <g id="Group_4" data-name="Group 4" transform="translate(10.314 3.605)">
          <path id="Path_14" data-name="Path 14" d="M42.07,104.532a7.886,7.886,0,0,1,1.675-.773,4.586,4.586,0,0,1,1.5-.258,1.644,1.644,0,0,1,1.41.515,2.41,2.41,0,0,1,.441,1.459v.515l-1.587.086c-2.909.086-4.408,1.03-4.408,2.833a2.551,2.551,0,0,0,.793,1.974,3.272,3.272,0,0,0,2.116.687,4.552,4.552,0,0,0,1.675-.258,2.553,2.553,0,0,0,1.322-.944v1.03h1.41V105.3a3.1,3.1,0,0,0-.793-2.318,3.377,3.377,0,0,0-2.468-.687,12.473,12.473,0,0,0-1.763.258,7.742,7.742,0,0,0-1.5.6v1.373m4.5,5.15a2.866,2.866,0,0,1-2.028.687,1.756,1.756,0,0,1-1.234-.343,1.463,1.463,0,0,1-.441-1.116,1.654,1.654,0,0,1,.705-1.373,5.938,5.938,0,0,1,2.292-.515l1.322-.086v.773A2.039,2.039,0,0,1,46.389,109.682Z" transform="translate(-41.1 -102.3)" fill="#003f7e"/>
        </g>
        <g id="Group_5" data-name="Group 5" transform="translate(40.109 3.605)">
          <path id="Path_15" data-name="Path 15" d="M75.87,104.532a7.886,7.886,0,0,1,1.675-.773,4.586,4.586,0,0,1,1.5-.258,1.644,1.644,0,0,1,1.41.515,2.41,2.41,0,0,1,.441,1.459v.515l-1.587.086c-2.909.086-4.408,1.03-4.408,2.833a2.551,2.551,0,0,0,.793,1.974,3.272,3.272,0,0,0,2.116.687,4.552,4.552,0,0,0,1.675-.258,2.553,2.553,0,0,0,1.322-.944v1.03h1.41V105.3a3.1,3.1,0,0,0-.793-2.318,3.377,3.377,0,0,0-2.468-.687,12.473,12.473,0,0,0-1.763.258,7.742,7.742,0,0,0-1.5.6v1.373m4.5,5.15a3.024,3.024,0,0,1-2.028.687,1.756,1.756,0,0,1-1.234-.343,1.463,1.463,0,0,1-.441-1.116,1.654,1.654,0,0,1,.705-1.373,5.938,5.938,0,0,1,2.292-.515l1.322-.086v.773A2.039,2.039,0,0,1,80.189,109.682Z" transform="translate(-74.9 -102.3)" fill="#003f7e"/>
        </g>
        <path id="Path_16" data-name="Path 16" d="M64.2,99.544c0-.343.088-.6.264-.687a.868.868,0,0,1,1.234,0,1.024,1.024,0,0,1,0,1.373.868.868,0,0,1-1.234,0A.96.96,0,0,1,64.2,99.544Zm1.587,11.33h-1.5v-8.927h1.5Z" transform="translate(-33.523 -98.171)" fill="#003f7e"/>
        <path id="Path_17" data-name="Path 17" d="M87.9,110.8H86.4V98.1h1.5Z" transform="translate(-36.153 -98.1)" fill="#003f7e"/>
        <path id="Path_18" data-name="Path 18" d="M35.306,100.2a6.761,6.761,0,0,1,2.733.687h0c.264.086.617.258.617.343V99.687A8.308,8.308,0,0,0,35.306,99a6.185,6.185,0,0,0-3.173.773,4.838,4.838,0,0,0-2.028,2.146,7.34,7.34,0,0,0-.705,3.176,6.213,6.213,0,0,0,1.5,4.549,5.507,5.507,0,0,0,4.143,1.631,10.393,10.393,0,0,0,1.675-.086c.441-.086,1.41-.343,1.939-.515v-1.288a13.213,13.213,0,0,1-3.438.6,3.8,3.8,0,0,1-3.085-1.288,5.278,5.278,0,0,1-1.058-3.519,5.012,5.012,0,0,1,1.146-3.519A3.572,3.572,0,0,1,35.306,100.2Z" transform="translate(-29.4 -98.227)" fill="#003f7e"/>
      </g>
      <g id="Group_7" data-name="Group 7" transform="translate(58.886 0.773)">
        <path id="Path_19" data-name="Path 19" d="M145.055,102.3a3.864,3.864,0,0,0-3,1.288A5.188,5.188,0,0,0,141,107.021a4.082,4.082,0,0,0,4.408,4.549,8.111,8.111,0,0,0,1.587-.172,12.8,12.8,0,0,0,1.41-.429v-1.288a8.459,8.459,0,0,1-1.587.515,7.315,7.315,0,0,1-1.41.086,2.9,2.9,0,0,1-2.116-.773,3.1,3.1,0,0,1-.793-2.318h6.259v-.858a3.976,3.976,0,0,0-1.058-2.918A3.159,3.159,0,0,0,145.055,102.3Zm-2.468,3.777a3.725,3.725,0,0,1,.705-1.888,2.287,2.287,0,0,1,1.675-.687,1.959,1.959,0,0,1,1.587.687,2.863,2.863,0,0,1,.617,1.888Z" transform="translate(-101.508 -99.467)" fill="#003f7e"/>
        <path id="Path_20" data-name="Path 20" d="M155.131,110.043a1.479,1.479,0,0,1-1.058-.429,1.648,1.648,0,0,1-.353-1.2v-5.236h2.645V102.06h-2.645V100h-1.5v2.06H150.9v1.116h1.322v5.236c0,1.8.882,2.747,2.645,2.747a3.077,3.077,0,0,0,.882-.086c.264-.086.529-.086.617-.172v-1.116c-.088.086-.353.086-.617.172A1.339,1.339,0,0,1,155.131,110.043Z" transform="translate(-102.681 -99.142)" fill="#003f7e"/>
        <path id="Path_21" data-name="Path 21" d="M116.631,102.3a12.475,12.475,0,0,0-1.763.258,7.742,7.742,0,0,0-1.5.6v1.373a7.886,7.886,0,0,1,1.675-.773,4.586,4.586,0,0,1,1.5-.258,1.644,1.644,0,0,1,1.41.515,2.5,2.5,0,0,1,.441,1.545v.515l-1.587.086c-2.909.086-4.408,1.03-4.408,2.833a2.551,2.551,0,0,0,.793,1.974,3.272,3.272,0,0,0,2.116.687,4.552,4.552,0,0,0,1.675-.258,2.553,2.553,0,0,0,1.322-.944v1.03h1.41V105.39a3.1,3.1,0,0,0-.793-2.318A2.691,2.691,0,0,0,116.631,102.3Zm1.763,5.494a2.632,2.632,0,0,1-.705,1.888,2.787,2.787,0,0,1-1.939.687,1.756,1.756,0,0,1-1.234-.343,1.463,1.463,0,0,1-.441-1.116,1.654,1.654,0,0,1,.705-1.373,5.938,5.938,0,0,1,2.292-.515l1.322-.086Z" transform="translate(-98.119 -99.467)" fill="#003f7e"/>
        <path id="Path_22" data-name="Path 22" d="M163.865,107.021a7.577,7.577,0,0,0-1.675-.773,8.449,8.449,0,0,1-1.939-.858,1.018,1.018,0,0,1-.441-.773.9.9,0,0,1,.441-.773,3.163,3.163,0,0,1,1.41-.258,7.146,7.146,0,0,1,2.116.429c.353.172.97.429.97.429V102.9a6.533,6.533,0,0,0-2.909-.6,4.492,4.492,0,0,0-2.556.6,1.987,1.987,0,0,0-.882,1.717,1.793,1.793,0,0,0,.264,1.03,3.322,3.322,0,0,0,.793.773,9.28,9.28,0,0,0,1.851.858,8.015,8.015,0,0,1,1.763.858,1.04,1.04,0,0,1,.529.858,1.07,1.07,0,0,1-.529.944,2.847,2.847,0,0,1-1.675.343,7.2,7.2,0,0,1-2.909-.687v1.373a6.636,6.636,0,0,0,2.909.6,5.116,5.116,0,0,0,2.733-.687,2.307,2.307,0,0,0,.97-1.974,1.793,1.793,0,0,0-.264-1.03A8.706,8.706,0,0,0,163.865,107.021Z" transform="translate(-103.569 -99.467)" fill="#003f7e"/>
        <path id="Path_23" data-name="Path 23" d="M125.4,104.131V102.5h-1.5v8.927h1.5v-3.949a4.444,4.444,0,0,1,.264-1.717c.088-.172.088-.258.176-.429a3.5,3.5,0,0,1,1.146-1.116,4.858,4.858,0,0,1,2.2-.515v-1.2C126.368,102.586,125.4,104.131,125.4,104.131Z" transform="translate(-99.482 -99.496)" fill="#003f7e"/>
        <path id="Path_24" data-name="Path 24" d="M106.073,99l-3.791,9.785h-.088L98.4,99H96.2v11.931h1.5V100.888l3.879,10.043h1.234l4.055-10.3v10.3h1.5V99h-2.292Z" transform="translate(-96.2 -99)" fill="#003f7e"/>
      </g>
      <path id="Path_25" data-name="Path 25" d="M135.138,105.568l3.7-3.691h-1.675l-4.055,4.034V98.1H131.7v12.7h1.41v-3.176l1.058-1.03,3.173,4.206h1.851Z" transform="translate(-41.52 -98.1)" fill="#003f7e"/>
    </g>
  </g>
</svg>
