<svg width="35" height="36" viewBox="0 0 35 36" fill="none" xmlns="http://www.w3.org/2000/svg">
<g clip-path="url(#clip0_796_1402)">
<path d="M17.6804 20.9317C19.8927 20.9159 22.0975 20.6722 24.2598 20.2044C24.2598 20.2044 23.7749 20.288 23.29 12.0367C22.8636 4.71334 18.6418 4.27026 17.6972 4.27026H17.321C16.3763 4.27026 12.1545 4.71334 11.7198 12.0367C11.2349 20.288 10.75 20.2044 10.75 20.2044C12.9124 20.6715 15.1171 20.9152 17.3293 20.9317H17.6804Z" fill="black"/>
<g style="mix-blend-mode:multiply" opacity="0.5">
<path d="M17.6325 20.9318C19.1299 20.9178 20.6203 20.7242 22.0716 20.3549C22.0716 20.3549 21.7456 19.9118 21.4195 13.391C21.0935 6.87025 17.5572 7.89017 17.5071 7.89853C17.4569 7.90689 13.929 6.91205 13.6029 13.391C13.2769 19.87 12.9258 20.3549 12.9258 20.3549C14.3771 20.7242 15.8675 20.9178 17.3649 20.9318H17.6074H17.6325Z" fill="black"/>
</g>
<path d="M15.4326 21.3079C15.7952 21.5474 16.129 21.8279 16.4274 22.1439L16.7535 22.5117C17.2896 22.4584 17.8173 22.3405 18.3252 22.1606C19.5811 21.6598 20.699 20.8658 21.5856 19.8449C21.8463 19.4167 22.0487 18.9556 22.1875 18.4738C21.5757 18.3374 20.9727 18.1643 20.3817 17.9555C18.9522 17.3703 18.9856 14.6533 18.9856 14.6533H15.9258C15.9258 14.6533 15.9258 17.4623 14.4963 18.0391C13.8108 18.315 12.8744 18.5156 11.9883 18.7915C12.8159 19.8114 14.304 20.4635 15.4326 21.3079Z" fill="#F2AB88"/>
<path d="M21.1833 18.1897C21.0496 18.382 18.6085 21.9433 17.6972 21.9517H17.5802C16.6689 21.9517 14.2362 18.382 14.0941 18.1897C12.8401 18.6077 11.0427 18.8752 9.91406 19.7279C10.1102 20.0877 10.2779 20.4623 10.4157 20.8482C10.9579 22.2391 11.4294 23.6565 11.8285 25.0951C12.3926 28.0012 12.7585 30.9424 12.9237 33.8981H12.9655C14.453 34.4403 16.0313 34.6901 17.6136 34.6338C19.1959 34.6901 20.7742 34.4403 22.2618 33.8981H22.3036C22.4812 30.9422 22.8554 28.0013 23.4238 25.0951C23.8229 23.6565 24.2945 22.2391 24.8367 20.8482C24.9645 20.4648 25.1181 20.0906 25.2965 19.7279C24.2347 18.8752 22.4373 18.6077 21.1833 18.1897Z" fill="#00427A"/>
<g style="mix-blend-mode:multiply" opacity="0.65">
<path d="M17.6375 22.5203C17.6375 22.5203 17.3282 29.1414 17.6375 33.4551C17.6709 33.4551 17.7712 24.1003 17.6375 22.5203Z" fill="#CFB6B5"/>
</g>
<g style="mix-blend-mode:multiply" opacity="0.65">
<path d="M23.6654 23.9916C22.7792 24.6771 22.2692 26.4243 21.8094 27.4192C21.5569 28.0569 21.1746 28.6352 20.6867 29.1173C20.1988 29.5994 19.6161 29.9748 18.9754 30.2198C18.614 30.3811 18.2196 30.4545 17.8244 30.4342C17.4292 30.4138 17.0444 30.3003 16.7015 30.1027C16.1362 30.1384 15.5728 30.0088 15.0799 29.7298C14.5871 29.4507 14.1861 29.0342 13.926 28.5311C13.1178 27.3166 12.4793 25.9975 12.0282 24.6102C11.6151 23.4417 11.112 22.3069 10.5234 21.2161C11.0343 22.4964 11.4698 23.8056 11.8276 25.1369C12.3898 28.0293 12.7557 30.9564 12.9228 33.8982H12.9646C14.4521 34.4404 16.0304 34.6902 17.6127 34.6339C19.195 34.6902 20.7733 34.4404 22.2609 33.8982H22.3027C22.4802 30.9422 22.8545 28.0013 23.4229 25.0951C23.5227 24.6762 23.6455 24.2632 23.7908 23.8578L23.6654 23.9916Z" fill="#CFB6B5"/>
</g>
<g style="mix-blend-mode:multiply" opacity="0.55">
<path d="M15.924 14.6786C15.9272 14.7203 15.9272 14.7622 15.924 14.804C15.924 14.8625 15.924 14.9461 15.924 15.0297C15.924 15.1216 15.924 15.2303 15.924 15.3474C15.924 15.456 15.924 15.5814 15.8655 15.7152C15.8655 15.849 15.8153 15.9827 15.7819 16.1248C15.7819 16.267 15.7067 16.4091 15.6649 16.5428C15.6147 16.6766 15.5645 16.8104 15.506 16.9441C15.4804 17.0105 15.4497 17.0748 15.4141 17.1364C16.0631 17.4052 16.7526 17.5634 17.4539 17.6046C18.2207 17.645 18.9824 17.4589 19.6442 17.0695C19.2864 16.2812 19.0957 15.4272 19.0841 14.5615H15.924V14.6786Z" fill="#DCB890"/>
</g>
<path d="M12.9252 11.3596C13.4017 10.7243 14.4718 11.7609 14.4718 11.7609C14.6609 12.0127 14.7539 12.3237 14.734 12.6379C14.714 12.9521 14.5825 13.2489 14.3631 13.4747C13.9702 13.9429 13.5271 13.5834 13.2262 13.0316C12.9252 12.4799 12.6159 11.8111 12.9252 11.3596Z" fill="#F2AB88"/>
<path d="M13.6359 13.1234C13.6807 13.1814 13.7395 13.2272 13.8067 13.2564C13.8739 13.2857 13.9475 13.2974 14.0205 13.2906C14.0557 13.2795 14.0863 13.2572 14.1075 13.2269C14.1286 13.1967 14.1392 13.1603 14.1375 13.1234C14.0874 12.9813 13.6443 12.7388 13.753 12.3543C13.8616 11.9697 13.3684 11.5851 13.2179 11.8025C13.1808 12.04 13.1992 12.2829 13.2717 12.5121C13.3442 12.7413 13.4689 12.9505 13.6359 13.1234Z" fill="#DB7A5B"/>
<path d="M22.0609 11.3596C21.5927 10.7243 20.5226 11.7609 20.5226 11.7609C20.3335 12.0127 20.2405 12.3237 20.2605 12.6379C20.2804 12.9521 20.4119 13.2489 20.6313 13.4747C21.0159 13.9429 21.4673 13.5834 21.7599 13.0316C22.0525 12.4799 22.3953 11.8111 22.0609 11.3596Z" fill="#F2AB88"/>
<path d="M21.3852 13.1234C21.3391 13.1821 21.2789 13.2282 21.2103 13.2574C21.1416 13.2867 21.0666 13.2981 20.9923 13.2906C20.9578 13.2793 20.9282 13.2566 20.9085 13.2262C20.8887 13.1957 20.8799 13.1595 20.8836 13.1234C20.9254 12.9813 21.3685 12.7388 21.2598 12.3543C21.1512 11.9697 21.6444 11.5851 21.8032 11.8025C21.8404 12.04 21.822 12.2829 21.7495 12.5121C21.6769 12.7413 21.5523 12.9505 21.3852 13.1234Z" fill="#DB7A5B"/>
<path d="M21.3676 8.15771C21.2266 7.56233 20.8727 7.03903 20.3728 6.68635C19.593 5.93993 18.5932 5.46497 17.522 5.33203C16.4478 5.46324 15.4449 5.93831 14.6629 6.68635C14.1629 7.03903 13.8091 7.56233 13.668 8.15771C13.668 8.15771 13.4172 12.3377 14.5542 14.1268C15.432 15.4727 16.5439 16.5344 17.522 16.5344C18.5001 16.5344 19.612 15.4727 20.448 14.1268C21.6184 12.3795 21.3676 8.15771 21.3676 8.15771Z" fill="#FFB08D"/>
<path opacity="0.61" d="M20.5301 12.6051C20.5301 12.9813 20.1204 13.2822 19.6188 13.2822C19.1172 13.2822 18.6992 12.9813 18.6992 12.6051C18.6992 12.2289 19.1089 11.9363 19.6188 11.9363C20.1288 11.9363 20.5301 12.2372 20.5301 12.6051Z" fill="url(#paint0_radial_796_1402)"/>
<path opacity="0.61" d="M15.4073 13.2739C15.9106 13.2739 16.3186 12.9744 16.3186 12.6051C16.3186 12.2357 15.9106 11.9363 15.4073 11.9363C14.9041 11.9363 14.4961 12.2357 14.4961 12.6051C14.4961 12.9744 14.9041 13.2739 15.4073 13.2739Z" fill="url(#paint1_radial_796_1402)"/>
<path d="M17.3314 13.1236H17.2646C17.0639 13.1125 16.8739 13.0294 16.7295 12.8895C16.7016 12.8531 16.682 12.8111 16.6719 12.7664C16.6618 12.7216 16.6615 12.6752 16.671 12.6304C16.7188 12.5041 16.7897 12.3879 16.88 12.2876C16.9937 12.1469 17.0892 11.9924 17.1642 11.8278C17.262 11.5301 17.3211 11.221 17.3398 10.9082C17.3397 10.8976 17.3419 10.8871 17.3462 10.8774C17.3505 10.8676 17.3568 10.8589 17.3647 10.8518C17.3726 10.8447 17.3819 10.8394 17.392 10.8361C17.4021 10.8329 17.4128 10.8318 17.4234 10.833C17.434 10.8329 17.4445 10.8351 17.4543 10.8394C17.464 10.8437 17.4727 10.85 17.4798 10.8579C17.4869 10.8658 17.4923 10.8751 17.4955 10.8852C17.4987 10.8953 17.4998 10.906 17.4986 10.9166C17.4802 11.2465 17.4183 11.5726 17.3147 11.8863C17.2352 12.067 17.1311 12.2358 17.0054 12.3879C16.9343 12.4713 16.8753 12.5642 16.8298 12.6638C16.8213 12.6836 16.8169 12.705 16.8169 12.7265C16.8169 12.7481 16.8213 12.7694 16.8298 12.7892C16.947 12.8958 17.0979 12.9579 17.2562 12.9648C17.3689 12.9795 17.483 12.9495 17.5739 12.8812C17.5706 12.8603 17.5746 12.8389 17.5853 12.8206C17.596 12.8023 17.6126 12.7883 17.6324 12.7809C17.6422 12.777 17.6528 12.7752 17.6634 12.7756C17.6739 12.7761 17.6843 12.7788 17.6938 12.7835C17.7032 12.7882 17.7116 12.7949 17.7183 12.8031C17.725 12.8113 17.7299 12.8208 17.7327 12.831C17.7467 12.8597 17.754 12.8911 17.754 12.923C17.754 12.9549 17.7467 12.9863 17.7327 13.0149C17.6765 13.0589 17.612 13.0912 17.5431 13.1099C17.4741 13.1285 17.4022 13.1332 17.3314 13.1236Z" fill="#CE7959"/>
<path d="M17.5373 5.29858C11.468 5.29858 12.8474 9.47858 13.3573 10.8413C13.5159 11.2606 13.7088 11.666 13.9342 12.0535C14.1515 12.4547 14.0847 11.9866 14.0847 11.9866C13.8892 10.6875 13.9921 9.36094 14.3856 8.10754C15.0377 6.43554 17.5373 6.25162 17.5373 6.25162C18.4424 7.08512 19.5137 7.71762 20.6807 8.10754C21.0914 9.36002 21.2059 10.6907 21.0151 11.9949C21.0151 11.9949 20.9482 12.4631 21.1656 12.0618C21.391 11.6744 21.5839 11.2689 21.7424 10.8496C22.2189 9.47022 23.6067 5.29858 17.5373 5.29858Z" fill="black"/>
<g style="mix-blend-mode:multiply" opacity="0.5">
<path d="M22.1205 7.50564C21.9682 6.99611 21.6579 6.54819 21.2344 6.22656C21.5893 6.60842 21.8877 7.03915 22.1205 7.50564Z" fill="#995235"/>
</g>
<path d="M21.2836 8.94344C21.2836 8.94344 21.2418 5.91712 18.8592 5.59944C18.4913 5.54928 16.5602 5.59944 16.1673 5.59944C12.9152 5.91712 13.6593 9.537 13.6593 9.537C14.2789 9.26288 14.8359 8.86485 15.296 8.36739C15.7561 7.86994 16.1095 7.28359 16.3345 6.64444C16.602 7.5306 18.7756 8.94344 21.2836 8.94344Z" fill="black"/>
<g style="mix-blend-mode:multiply" opacity="0.5">
<path d="M19.7957 7.32999C19.5066 7.15393 19.2399 6.94338 19.0015 6.70299C19.3192 7.18787 19.4864 7.83995 20.1301 7.99879C19.5782 7.9655 19.0458 7.78203 18.5905 7.4682C18.1353 7.15437 17.7744 6.72211 17.5469 6.21811C17.5399 6.43029 17.5798 6.6414 17.6636 6.83645C17.7474 7.0315 17.8731 7.20571 18.0318 7.34671C17.3647 7.05674 16.7643 6.63276 16.2678 6.10107C16.1131 6.70688 15.7916 7.25717 15.3399 7.68947C15.1508 7.88352 14.9467 8.06242 14.7296 8.22451C14.5387 8.3574 14.3777 8.52864 14.2568 8.72729C14.1359 8.92594 14.0577 9.14763 14.0273 9.37819C15.0882 8.79441 15.8953 7.83841 16.2929 6.69463C16.5604 7.48047 18.4832 8.79299 20.8407 8.94347C20.8407 8.86823 20.8407 8.80135 20.8407 8.73447C20.772 8.44129 20.6438 8.16534 20.4641 7.92375C20.2843 7.68215 20.0568 7.48006 19.7957 7.32999Z" fill="black"/>
</g>
<path d="M13.0487 33.4551C13.0487 33.4551 9.77153 39.0396 10.7162 44.4401C11.7529 50.4259 9.93873 53.0175 9.14453 54.33C9.14453 54.33 14.3528 58.0084 23.9501 55.3499C23.4489 53.3567 23.3074 51.2901 23.5321 49.2471C23.9501 46.1706 25.2543 39.8087 22.3533 33.4551C22.3533 33.4551 16.3091 35.1271 13.0487 33.4551Z" fill="#333333"/>
<path d="M25.3226 19.728C25.3226 19.728 24.6705 20.2296 23.7258 22.4199C23.1857 23.5835 22.9006 24.8491 22.8898 26.1318C23.0228 27.2608 23.0759 28.3978 23.0487 29.5343C22.8564 30.0276 14.7305 30.3201 14.7305 30.3201L15.1485 33.8481C15.1485 33.8481 24.5869 34.0821 26.0666 32.8867C26.9277 32.2011 26.5515 20.9319 25.3226 19.728Z" fill="#00427A"/>
<g style="mix-blend-mode:multiply" opacity="0.65">
<path d="M18.7183 32.6024C19.5543 32.3349 20.3903 31.967 21.2263 31.6744C21.225 31.5553 21.26 31.4387 21.3267 31.34C21.4103 31.2313 22.4553 31.0976 22.6225 30.8886C22.7471 30.7582 22.8263 30.5911 22.8482 30.4121C22.8799 30.2436 22.8799 30.0706 22.8482 29.9021C22.8405 29.9736 22.8237 30.0439 22.798 30.1111C22.6392 30.5375 17.1216 30.8217 14.8477 30.9471L15.157 33.5053C16.3107 33.1876 17.5312 32.9786 18.7183 32.6024Z" fill="#CFB6B5"/>
</g>
<path d="M21.7286 30.8384C22.1633 30.7046 22.6565 30.5625 22.8404 30.1947C22.898 29.8319 22.898 29.4623 22.8404 29.0995C22.5973 29.009 22.3488 28.9336 22.0964 28.8738C21.5446 28.7818 20.1151 29.8017 20.1151 29.8017C20.0901 30.1883 20.1471 30.5757 20.2823 30.9387C20.2823 31.0307 20.9678 30.9387 21.0598 30.9387C21.2861 30.9346 21.511 30.9009 21.7286 30.8384Z" fill="#F2AB88"/>
<g style="mix-blend-mode:multiply" opacity="0.35">
<path d="M22.8232 29.0995L22.5807 29.0159C22.656 29.7265 22.656 30.3953 21.7447 30.5876C21.4103 30.6544 20.5409 30.6795 20.2148 30.713C20.2148 30.7882 20.2566 30.8634 20.2734 30.9387C20.2901 31.0139 20.9589 30.9387 21.0508 30.9387C21.284 30.9279 21.5145 30.8857 21.7364 30.8133C22.1711 30.6795 22.6643 30.5374 22.8482 30.1696C22.8949 29.8137 22.8864 29.4528 22.8232 29.0995Z" fill="#D49481"/>
</g>
<path d="M9.95652 19.728C9.95652 19.728 9.3964 20.3634 8.66072 24.3762C8.20092 26.8842 7.61572 31.315 8.21764 32.5857C9.47164 35.2358 20.5654 31.2983 20.5654 31.2983L20.2059 29.4423C20.2059 29.4423 11.1604 30.387 11.1604 29.8436C11.1604 29.6095 11.4697 28.6816 11.5784 28.1716C11.8789 27.3105 12.0067 26.3986 11.9546 25.4881C11.5784 23.7408 10.4163 19.728 9.95652 19.728Z" fill="#00427A"/>
<g style="mix-blend-mode:multiply" opacity="0.65">
<path d="M10.3574 26.7837C10.8423 26.2319 11.3523 26.8924 11.4609 27.0094C11.4534 27.4402 11.4002 27.8689 11.3021 28.2885C11.212 28.8053 11.1562 29.3276 11.1349 29.8518C10.9928 29.7515 9.18703 28.1046 10.3574 26.7837Z" fill="#CFB6B5"/>
</g>
<path d="M10.5654 28.0628C10.3229 28.0127 10.2143 28.1715 10.3146 28.414C10.4149 28.6564 10.9165 29.1747 11.5101 30.0107C12.1172 30.0984 12.7338 30.0984 13.3409 30.0107C12.9139 28.8507 12.2109 27.812 11.2927 26.9844C10.9165 26.7921 10.8245 27.0847 10.8245 27.0847C10.2979 26.9342 10.44 27.3857 10.44 27.3857C10.0471 27.5529 10.5654 28.0628 10.5654 28.0628Z" fill="#F2AB88"/>
<g style="mix-blend-mode:multiply" opacity="0.65">
<path d="M10.5508 28.0627C10.5508 28.0627 11.4286 29.0325 11.5373 29.2331C11.6459 29.4338 11.6125 29.2331 11.5373 29.1161C11.2403 28.7365 10.9101 28.384 10.5508 28.0627Z" fill="#D69C7C"/>
</g>
<g style="mix-blend-mode:multiply" opacity="0.65">
<path d="M10.418 27.3772C10.9255 27.8191 11.38 28.3185 11.7723 28.8653C11.8224 28.9572 11.8726 28.9238 11.7723 28.7148C11.3882 28.2056 10.9319 27.755 10.418 27.3772Z" fill="#D69C7C"/>
</g>
<g style="mix-blend-mode:multiply" opacity="0.65">
<path d="M10.8164 27.0679C11.3082 27.5485 11.7533 28.0748 12.1456 28.6396C12.1958 28.7315 12.246 28.7064 12.1456 28.4891C11.7628 27.9624 11.3163 27.4851 10.8164 27.0679Z" fill="#D69C7C"/>
</g>
<g style="mix-blend-mode:multiply" opacity="0.35">
<path d="M13.2348 29.6511C13.0617 29.6946 12.8857 29.7254 12.7081 29.7431C12.0609 29.7812 11.4211 29.5886 10.9023 29.1997C11.0863 29.4338 11.2953 29.7097 11.5126 30.0357C12.1198 30.1234 12.7363 30.1234 13.3435 30.0357C13.3227 29.9036 13.2863 29.7745 13.2348 29.6511Z" fill="#D49481"/>
</g>
<path d="M19.947 10.741C19.8318 10.5615 19.6524 10.4329 19.4454 10.3815C19.297 10.3465 19.1421 10.3505 18.9956 10.393C18.8492 10.4354 18.7161 10.515 18.6094 10.6239C18.4835 10.7899 18.3717 10.9661 18.275 11.1506C18.2082 11.2342 18.7683 11.4516 19.0107 11.4265C19.3867 11.4023 19.7525 11.2937 20.0808 11.1088C20.0707 10.9763 20.0244 10.849 19.947 10.741Z" fill="#FFFEFE"/>
<path d="M19.135 11.3929C19.3844 11.3929 19.5865 11.1908 19.5865 10.9414C19.5865 10.6921 19.3844 10.49 19.135 10.49C18.8857 10.49 18.6836 10.6921 18.6836 10.9414C18.6836 11.1908 18.8857 11.3929 19.135 11.3929Z" fill="#1F0F05"/>
<path d="M19.1368 11.368C19.0528 11.3664 18.9712 11.34 18.9022 11.2921C18.8332 11.2443 18.7798 11.1771 18.7489 11.0991C18.7179 11.0211 18.7106 10.9356 18.728 10.8535C18.7454 10.7713 18.7866 10.6961 18.8466 10.6373C18.9065 10.5786 18.9825 10.5388 19.065 10.523C19.1474 10.5072 19.2327 10.5161 19.3101 10.5486C19.3876 10.5811 19.4537 10.6358 19.5002 10.7057C19.5466 10.7756 19.5715 10.8577 19.5715 10.9417C19.5715 10.9984 19.5602 11.0545 19.5382 11.1068C19.5163 11.1591 19.4841 11.2064 19.4437 11.2461C19.4032 11.2858 19.3552 11.3171 19.3025 11.338C19.2498 11.3589 19.1934 11.3691 19.1368 11.368Z" fill="#3D1E09"/>
<path d="M19.1364 11.2341C19.0979 11.2341 19.0599 11.2266 19.0244 11.2119C18.9889 11.1971 18.9566 11.1756 18.9295 11.1484C18.9023 11.1213 18.8807 11.089 18.866 11.0535C18.8513 11.018 18.8438 10.98 18.8438 10.9415C18.8438 10.9031 18.8513 10.8651 18.866 10.8296C18.8807 10.7941 18.9023 10.7618 18.9295 10.7346C18.9566 10.7075 18.9889 10.6859 19.0244 10.6712C19.0599 10.6565 19.0979 10.6489 19.1364 10.6489C19.214 10.6489 19.2884 10.6798 19.3432 10.7346C19.3981 10.7895 19.429 10.8639 19.429 10.9415C19.429 11.0191 19.3981 11.0936 19.3432 11.1484C19.2884 11.2033 19.214 11.2341 19.1364 11.2341Z" fill="#171313"/>
<path d="M19.4022 11.0085C19.4668 11.0085 19.5192 10.9561 19.5192 10.8915C19.5192 10.8268 19.4668 10.7744 19.4022 10.7744C19.3376 10.7744 19.2852 10.8268 19.2852 10.8915C19.2852 10.9561 19.3376 11.0085 19.4022 11.0085Z" fill="#B1A59D"/>
<path d="M19.0265 11.1004C19.0278 11.1117 19.0266 11.1231 19.0229 11.1339C19.0192 11.1446 19.013 11.1544 19.005 11.1625C18.9969 11.1705 18.9872 11.1766 18.9764 11.1803C18.9657 11.1841 18.9542 11.1853 18.9429 11.184C18.9323 11.184 18.9218 11.1818 18.912 11.1776C18.9023 11.1733 18.8936 11.167 18.8865 11.1591C18.8794 11.1512 18.874 11.1418 18.8708 11.1317C18.8675 11.1216 18.8665 11.1109 18.8677 11.1004C18.8677 11.0804 18.8756 11.0613 18.8897 11.0472C18.9038 11.0331 18.9229 11.0251 18.9429 11.0251C18.9535 11.0239 18.9641 11.025 18.9743 11.0283C18.9844 11.0315 18.9937 11.0369 19.0016 11.044C19.0095 11.0511 19.0158 11.0598 19.0201 11.0695C19.0244 11.0792 19.0266 11.0897 19.0265 11.1004Z" fill="#B1A59D"/>
<path d="M19.9454 10.7408C19.8312 10.5553 19.6526 10.4184 19.4438 10.3562C19.2932 10.326 19.1374 10.3348 18.9911 10.3816C18.8449 10.4284 18.7129 10.5117 18.6078 10.6238C18.4819 10.7897 18.3701 10.9659 18.2734 11.1504C18.4573 10.9453 18.665 10.7629 18.8921 10.607C19.2599 10.373 19.9204 10.6739 19.8451 11.0836C19.8451 11.2006 19.7615 11.2257 19.6946 11.2842C19.8689 11.2354 20.0393 11.1739 20.2046 11.1003L19.9454 10.7408Z" fill="#141414"/>
<path d="M14.8967 10.7409C15.0099 10.5632 15.1861 10.4348 15.3899 10.3814C15.5437 10.3367 15.7067 10.3348 15.8614 10.3761C16.0162 10.4173 16.1567 10.5001 16.2677 10.6155C16.3963 10.7813 16.511 10.9575 16.6105 11.1422C16.669 11.2258 16.1089 11.4431 15.8748 11.4181C15.4988 11.3939 15.133 11.2853 14.8047 11.1004C14.8038 10.9746 14.8355 10.8508 14.8967 10.7409Z" fill="#FFFEFE"/>
<path d="M15.76 11.4097C16.0094 11.4097 16.2115 11.2076 16.2115 10.9583C16.2115 10.709 16.0094 10.5068 15.76 10.5068C15.5107 10.5068 15.3086 10.709 15.3086 10.9583C15.3086 11.2076 15.5107 11.4097 15.76 11.4097Z" fill="#1F0F05"/>
<path d="M15.7584 11.393C15.8447 11.3947 15.9296 11.3706 16.0021 11.3239C16.0747 11.2771 16.1317 11.2098 16.1659 11.1306C16.2001 11.0513 16.2099 10.9636 16.1941 10.8788C16.1783 10.7939 16.1376 10.7156 16.0771 10.654C16.0167 10.5924 15.9392 10.5501 15.8547 10.5327C15.7701 10.5152 15.6823 10.5233 15.6024 10.556C15.5225 10.5886 15.4541 10.6443 15.4059 10.716C15.3578 10.7876 15.332 10.872 15.332 10.9583C15.332 11.0722 15.3767 11.1815 15.4564 11.2628C15.5361 11.3441 15.6446 11.3909 15.7584 11.393Z" fill="#3D1E09"/>
<path d="M15.7574 11.251C15.7962 11.2521 15.8347 11.2454 15.8708 11.2311C15.9068 11.2168 15.9395 11.1953 15.9669 11.1678C15.9943 11.1404 16.0158 11.1077 16.0301 11.0717C16.0444 11.0357 16.0512 10.9971 16.05 10.9584C16.05 10.8808 16.0192 10.8063 15.9643 10.7515C15.9095 10.6966 15.835 10.6658 15.7574 10.6658C15.719 10.6658 15.681 10.6733 15.6455 10.688C15.61 10.7027 15.5777 10.7243 15.5505 10.7515C15.5234 10.7786 15.5018 10.8109 15.4871 10.8464C15.4724 10.8819 15.4648 10.9199 15.4648 10.9584C15.4648 10.9968 15.4724 11.0348 15.4871 11.0703C15.5018 11.1058 15.5234 11.1381 15.5505 11.1653C15.5777 11.1924 15.61 11.214 15.6455 11.2287C15.681 11.2434 15.719 11.251 15.7574 11.251Z" fill="#171313"/>
<path d="M15.492 11.0334C15.5567 11.0334 15.6091 10.981 15.6091 10.9164C15.6091 10.8517 15.5567 10.7993 15.492 10.7993C15.4274 10.7993 15.375 10.8517 15.375 10.9164C15.375 10.981 15.4274 11.0334 15.492 11.0334Z" fill="#B1A59D"/>
<path d="M15.8755 11.1253C15.8755 11.1453 15.8834 11.1644 15.8975 11.1786C15.9116 11.1927 15.9308 11.2006 15.9507 11.2006C15.9715 11.2007 15.9916 11.193 16.007 11.1791C16.0225 11.1652 16.0322 11.146 16.0343 11.1253C16.0343 11.1032 16.0255 11.0819 16.0098 11.0662C15.9941 11.0506 15.9729 11.0417 15.9507 11.0417C15.9401 11.0417 15.9296 11.0439 15.9198 11.0482C15.9101 11.0525 15.9014 11.0588 15.8943 11.0667C15.8872 11.0746 15.8819 11.0839 15.8786 11.094C15.8754 11.1041 15.8743 11.1148 15.8755 11.1253Z" fill="#B1A59D"/>
<path d="M14.897 10.741C14.9634 10.6229 15.0575 10.5228 15.1712 10.4491C15.2849 10.3754 15.4147 10.3305 15.5496 10.3182C15.6845 10.3058 15.8204 10.3265 15.9455 10.3783C16.0707 10.4301 16.1814 10.5115 16.2681 10.6156C16.3967 10.7814 16.5113 10.9575 16.6108 11.1423C16.4247 10.9395 16.2173 10.7574 15.9922 10.5989C15.6244 10.3648 14.9556 10.6658 15.0308 11.0754C15.0308 11.1924 15.1228 11.2175 15.1896 11.276C15.0154 11.2272 14.845 11.1658 14.6797 11.0921L14.897 10.741Z" fill="#141414"/>
<path d="M18.375 10.0971C18.375 10.0971 18.4252 9.72095 18.5422 9.72095C18.9718 9.73774 19.3995 9.78805 19.8213 9.87143C19.9709 9.95217 20.0997 10.0667 20.1975 10.2058C19.5979 10.0856 18.9846 10.049 18.375 10.0971Z" fill="#995235"/>
<path d="M16.5451 10.0805C16.5451 10.0805 16.495 9.71265 16.3779 9.71265C15.9513 9.72688 15.5264 9.7744 15.1072 9.85477C14.9559 9.93641 14.8245 10.0506 14.7227 10.1892C15.3207 10.0578 15.9357 10.0211 16.5451 10.0805Z" fill="#995235"/>
<path d="M16.5432 23.9079C16.5554 23.9822 16.5936 24.0498 16.6511 24.0986C16.7085 24.1474 16.7814 24.1742 16.8567 24.1742C16.9321 24.1742 17.005 24.1474 17.0624 24.0986C17.1198 24.0498 17.1581 23.9822 17.1702 23.9079C17.1777 23.8624 17.1752 23.8159 17.1628 23.7715C17.1505 23.7271 17.1287 23.6859 17.0989 23.6508C17.069 23.6157 17.0319 23.5875 16.9901 23.5682C16.9483 23.5488 16.9028 23.5388 16.8567 23.5388C16.8107 23.5388 16.7652 23.5488 16.7234 23.5682C16.6816 23.5875 16.6445 23.6157 16.6146 23.6508C16.5848 23.6859 16.563 23.7271 16.5506 23.7715C16.5383 23.8159 16.5358 23.8624 16.5432 23.9079Z" fill="#F08300"/>
<path d="M16.5432 25.9728C16.5554 26.0472 16.5936 26.1148 16.6511 26.1636C16.7085 26.2123 16.7814 26.2391 16.8567 26.2391C16.9321 26.2391 17.005 26.2123 17.0624 26.1636C17.1198 26.1148 17.1581 26.0472 17.1702 25.9728C17.1777 25.9273 17.1752 25.8808 17.1628 25.8364C17.1505 25.792 17.1287 25.7509 17.0989 25.7158C17.069 25.6807 17.0319 25.6525 16.9901 25.6331C16.9483 25.6138 16.9028 25.6038 16.8567 25.6038C16.8107 25.6038 16.7652 25.6138 16.7234 25.6331C16.6816 25.6525 16.6445 25.6807 16.6146 25.7158C16.5848 25.7509 16.563 25.792 16.5506 25.8364C16.5383 25.8808 16.5358 25.9273 16.5432 25.9728Z" fill="#F08300"/>
<path d="M16.5431 28.0377C16.5414 28.1012 16.5589 28.1638 16.5931 28.2173C16.6274 28.2708 16.6769 28.3128 16.7353 28.3379C16.7937 28.3629 16.8582 28.3699 16.9206 28.3579C16.983 28.3459 17.0404 28.3155 17.0853 28.2706C17.1302 28.2257 17.1606 28.1683 17.1726 28.1059C17.1846 28.0435 17.1776 27.979 17.1525 27.9206C17.1275 27.8622 17.0855 27.8127 17.032 27.7784C16.9785 27.7442 16.9159 27.7267 16.8524 27.7284C16.7704 27.7284 16.6917 27.761 16.6337 27.819C16.5757 27.877 16.5431 27.9557 16.5431 28.0377Z" fill="#F08300"/>
<path d="M17.4564 14.0348C17.4564 14.0348 16.6956 13.9679 16.0352 13.8508C16.0352 13.8508 16.8712 14.9962 17.4564 14.9962C18.0416 14.9962 18.7772 13.9595 18.7772 13.9595C18.2506 13.9595 17.4564 14.0348 17.4564 14.0348Z" fill="#950000"/>
<path d="M16.6296 14.3357C17.1567 14.466 17.7076 14.466 18.2348 14.3357C18.3016 14.3357 18.5357 13.9177 18.5608 13.9177L17.4656 14.018C17.4656 14.018 16.8888 13.9679 16.3203 13.8843C16.3454 13.9094 16.4792 14.2438 16.6296 14.3357Z" fill="#FDFAEE"/>
<path d="M15.9414 13.8089C15.9414 13.8089 16.0919 13.9929 16.2842 14.2688C16.5684 14.6784 16.9697 15.1048 17.4629 15.1048C17.9562 15.1048 18.2989 14.6951 18.5832 14.2688C18.7838 13.9845 18.9844 13.7588 18.9844 13.7588C18.6918 13.8424 18.1066 14.7286 17.4629 14.7118C16.6102 14.7453 16.2674 13.8925 15.9414 13.8089Z" fill="#E95E68"/>
<path d="M18.2932 13.8507C18.1667 13.7644 18.0142 13.7247 17.8617 13.7385C17.7092 13.7522 17.5662 13.8185 17.4572 13.926C17.3466 13.8212 17.2039 13.7568 17.0522 13.7432C16.9005 13.7295 16.7487 13.7674 16.6212 13.8507C16.3787 13.9427 15.7852 13.6584 15.7852 13.6584C15.8571 13.7707 15.951 13.8674 16.061 13.9427C16.4904 14.1363 16.9669 14.2002 17.4321 14.1266C17.8568 14.1856 18.2896 14.1427 18.6944 14.0012C18.8524 13.9288 18.9839 13.809 19.0706 13.6584C19.0706 13.6584 18.544 13.9594 18.2932 13.8507Z" fill="#E95E68"/>
<path d="M21.8346 21.4834C21.6467 22.0707 21.3396 22.613 20.9325 23.0762C20.5254 23.5394 20.0271 23.9136 19.4688 24.1753V24.1335C20.2593 23.5638 20.8455 22.7548 21.1408 21.8262L21.8346 21.4834Z" fill="#EF8200"/>
</g>
<circle cx="17.5918" cy="18.3484" r="16.0683" stroke="#1A3967" stroke-width="2"/>
<defs>
<radialGradient id="paint0_radial_796_1402" cx="0" cy="0" r="1" gradientUnits="userSpaceOnUse" gradientTransform="translate(19.6146 12.6051) scale(0.850965 0.727319)">
<stop stop-color="#F29788"/>
<stop offset="0.61" stop-color="#F2A388"/>
<stop offset="0.92" stop-color="#F2AB88"/>
</radialGradient>
<radialGradient id="paint1_radial_796_1402" cx="0" cy="0" r="1" gradientUnits="userSpaceOnUse" gradientTransform="translate(15.5118 12.6051) rotate(180) scale(0.850965 0.727319)">
<stop stop-color="#F29788"/>
<stop offset="0.61" stop-color="#F2A388"/>
<stop offset="0.92" stop-color="#F2AB88"/>
</radialGradient>
<clipPath id="clip0_796_1402">
<rect width="33.44" height="33.44" fill="white" transform="translate(1.21875 0.583496)"/>
</clipPath>
</defs>
</svg>
