<?xml version="1.0" encoding="utf-8"?>
<!-- Generator: Adobe Illustrator 26.0.3, SVG Export Plug-In . SVG Version: 6.00 Build 0)  -->
<svg version="1.1" id="Layer_1" xmlns="http://www.w3.org/2000/svg" xmlns:xlink="http://www.w3.org/1999/xlink" x="0px" y="0px"
	 viewBox="0 0 932.4 352.8" style="enable-background:new 0 0 932.4 352.8;" xml:space="preserve">
<style type="text/css">
	.st0{fill:#F58220;}
	.st1{fill:#043B72;}
</style>
<g>
	<g>
		<g>
			<path class="st0" d="M199.1,149.9v80.8H230v-80.8c0-38-29.5-61.5-56.8-61.5c-15,0-30.5,7.3-41.6,19.7
				c-11.1-12.6-26.7-19.7-41.7-19.7c-27.7,0-57.3,24.7-57.3,61.5v64.7c0,9.8,6.9,17.7,15.4,17.7c8.5,0,15.5-7.9,15.5-17.7v-64.7
				c0-14.9,13.9-26.1,26.4-26.1c12.5,0,26,10,26,26.1v64.7c0,9.8,6.9,17.7,15.4,17.7c8.5,0,15.5-7.9,15.5-17.7v-64.7
				c0-14.9,13.9-26.1,26.4-26.1C185.6,123.8,199.1,133.8,199.1,149.9z"/>
			<path class="st0" d="M253.3,250.9c-1.7,0-3.3-0.3-4.9-1.1c-6.7-3.2-9.8-11.8-7.1-19.5l8.1-22.6c2.7-7.6,10.4-11.3,17-8.1
				c6.6,3.1,9.8,11.8,7.1,19.5l-8.1,22.6C263.3,247.4,258.4,250.9,253.3,250.9z"/>
		</g>
	</g>
	<g>
		<path class="st1" d="M294.5,210.6c-4-3.2-6.8-9.1-6.8-15.5c0-10.7,7.4-19,16.8-19c4.7,0,7.9,1.9,10.3,3.7
			c12.4,10.4,25.9,16.8,41.7,16.8c14.7,0,23.6-6.7,23.6-17.6v-0.5c0-10.4-5.6-15.7-32.9-23.7c-32.9-9.6-54.1-20-54.1-57.1v-0.5
			c0-33.9,23.8-56.3,57.1-56.3c19.8,0,37.1,5.9,51.8,16.6c4,2.7,7.9,8.2,7.9,16.2c0,10.7-7.5,19-16.8,19c-3.5,0-6.3-1-9.1-2.9
			c-11.9-8-23.1-12.5-34.3-12.5c-13.8,0-21,7.2-21,16.3V94c0,12.3,7,16.3,35.2,24.5c33.1,9.9,51.8,23.5,51.8,56v0.5
			c0,37.1-24.7,57.9-60,57.9C334.4,233.1,312.7,225.6,294.5,210.6z"/>
		<path class="st1" d="M441,189.8v-67.8h-1.2c-8.4,0-15.2-7.7-15.2-17.3c0-9.6,6.8-17.4,15.2-17.4h1.2V69.5
			c0-11.2,7.9-20.3,17.7-20.3c9.8,0,17.7,9.1,17.7,20.3v17.9H492c8.4,0,15.1,7.7,15.1,17.4c0,9.6-6.7,17.3-15.1,17.3h-15.6v61.1
			c0,9.3,3.5,13.9,11.4,13.9c1.2,0,3.5-0.3,4.2-0.3c7.9,0,14.7,7.5,14.7,16.8c0,7.2-4.2,13.1-9.1,15.2c-6.5,2.9-12.6,4-20.3,4
			C455.6,232.8,441,222.9,441,189.8z"/>
		<path class="st1" d="M515.3,159.7v-0.5c0-41.1,28.9-74.5,67.9-74.5c38.7,0,67.4,32.8,67.4,73.9v0.5c0,41.1-28.9,74.4-67.9,74.4
			C544,233.6,515.3,200.8,515.3,159.7z M615.6,159.7v-0.5c0-21.1-13.3-39.5-32.9-39.5c-20.3,0-32.4,17.9-32.4,39v0.5
			c0,21.1,13.3,39.5,32.9,39.5C603.5,198.6,615.6,180.8,615.6,159.7z"/>
		<path class="st1" d="M663.2,159.7v-0.5c0-40.8,27.3-74.5,65.5-74.5c18.9,0,32.2,5.9,42.7,16c2.3,2.1,5.6,7,5.6,13.9
			c0,10.1-7.2,18.1-16.1,18.1c-4.7,0-8.2-2.1-10.2-4c-6.3-5.6-12.8-9.1-22.2-9.1c-17.7,0-30.3,17.9-30.3,39v0.5
			c0,21.9,12.4,39.5,31.7,39.5c9.3,0,16.6-3.7,23.3-9.9c1.9-1.6,5.4-3.7,9.6-3.7c8.4,0,14.9,7.7,14.9,17.3c0,5.4-2.1,9.6-5.1,12.8
			c-10.5,10.9-23.8,18.4-44.3,18.4C690.7,233.6,663.2,200.5,663.2,159.7z"/>
		<path class="st1" d="M795.4,54.3c0-11.2,7.9-20.3,17.7-20.3c9.8,0,17.7,9.1,17.7,20.3v88.6l44.3-48c5.1-5.6,9.3-9,15.6-9
			c9.6,0,15.6,8.8,15.6,18.1c0,6.9-3.3,12.3-8.2,17.6l-28,27.5l33.4,51.5c3,4.8,4.4,8.5,4.4,13.1c0,10.9-7.7,18.4-16.6,18.4
			c-7,0-11.2-2.7-15.4-9.3l-31-48.8l-14.2,14.7v23.2c0,11.2-7.9,20.3-17.7,20.3c-9.8,0-17.7-9.1-17.7-20.3V54.3z"/>
	</g>
</g>
<g>
	<path class="st1" d="M450,268.3c4.7,0,8.3,1.6,10.9,4.9c2.6,3.2,3.8,7.8,3.8,13.5c0,5.9-1.3,10.4-3.9,13.6s-6.2,4.8-10.8,4.8
		c-2.4,0-4.5-0.4-6.4-1.3c-1.9-0.9-3.4-2.2-4.6-3.9h-0.5c-0.7,2.6-1.1,4.1-1.2,4.5h-4.2V254h5.8v12.3c0,2.4-0.1,4.9-0.3,7.3h0.3
		C441.4,270.1,445,268.3,450,268.3z M449,273.1c-3.6,0-6.2,1-7.7,3c-1.6,2-2.3,5.5-2.3,10.3v0.3c0,4.9,0.8,8.3,2.4,10.4
		s4.2,3.1,7.8,3.1c3.2,0,5.6-1.2,7.2-3.5c1.6-2.3,2.4-5.7,2.4-10.2c0-4.5-0.8-7.9-2.4-10.1S452.3,273.1,449,273.1z"/>
	<path class="st1" d="M467.8,268.9h6.3l7.7,20.3c1.6,4.4,2.6,7.6,3,9.7h0.3c0.2-0.8,0.6-2.3,1.3-4.5c0.7-2.2,1.3-4,1.8-5.3l7.2-20.2
		h6.3l-15.3,40.6c-1.5,3.9-3.3,6.8-5.3,8.5c-2.1,1.7-4.6,2.6-7.6,2.6c-1.6,0-3.2-0.2-4.8-0.6v-4.6c1.1,0.3,2.4,0.4,3.9,0.4
		c1.9,0,3.4-0.5,4.7-1.5c1.3-1,2.4-2.6,3.2-4.8l1.8-4.7L467.8,268.9z"/>
	<path class="st1" d="M544.9,304.5l-11.4-37.2h-0.3c0.4,7.6,0.6,12.6,0.6,15.2v22.1h-9v-47.4h13.7l11.2,36.3h0.2l11.9-36.3h13.7
		v47.4h-9.4V282c0-1.1,0-2.3,0-3.7s0.2-5.1,0.4-11h-0.3l-12.2,37.2H544.9z"/>
	<path class="st1" d="M586.3,258.8c0-3.2,1.8-4.8,5.4-4.8c3.6,0,5.4,1.6,5.4,4.8c0,1.5-0.4,2.7-1.3,3.6c-0.9,0.9-2.2,1.3-4,1.3
		C588.1,263.7,586.3,262.1,586.3,258.8z M596.6,304.5h-9.9v-36.3h9.9V304.5z"/>
	<path class="st1" d="M627.2,267.5c1.3,0,2.5,0.1,3.3,0.3l-0.7,9.3c-0.8-0.2-1.8-0.3-2.9-0.3c-3.2,0-5.6,0.8-7.4,2.4
		c-1.8,1.6-2.6,3.9-2.6,6.8v18.5H607v-36.3h7.5l1.5,6.1h0.5c1.1-2,2.6-3.7,4.6-4.9C622.9,268.2,625,267.5,627.2,267.5z"/>
	<path class="st1" d="M659.6,304.5l-1.9-4.9h-0.3c-1.7,2.1-3.4,3.6-5.1,4.4c-1.8,0.8-4.1,1.2-6.9,1.2c-3.5,0-6.2-1-8.2-3
		c-2-2-3-4.8-3-8.5c0-3.9,1.3-6.7,4-8.5c2.7-1.8,6.8-2.8,12.2-3l6.3-0.2v-1.6c0-3.7-1.9-5.5-5.6-5.5c-2.9,0-6.3,0.9-10.2,2.6
		l-3.3-6.7c4.2-2.2,8.8-3.3,13.9-3.3c4.9,0,8.6,1.1,11.2,3.2c2.6,2.1,3.9,5.3,3.9,9.7v24.2H659.6z M656.6,287.7l-3.8,0.1
		c-2.9,0.1-5,0.6-6.4,1.6c-1.4,1-2.1,2.4-2.1,4.3c0,2.8,1.6,4.2,4.8,4.2c2.3,0,4.1-0.7,5.5-2c1.4-1.3,2.1-3.1,2.1-5.3V287.7z"/>
	<path class="st1" d="M693.1,305.2c-5.8,0-10.4-1.6-13.7-4.8c-3.3-3.2-4.9-7.8-4.9-13.7c0-6.1,1.5-10.8,4.6-14.1c3-3.3,7.2-5,12.6-5
		c5.1,0,9.1,1.5,12,4.4c2.9,2.9,4.3,7,4.3,12.1v4.8h-23.4c0.1,2.8,0.9,5,2.5,6.6s3.7,2.4,6.6,2.4c2.2,0,4.3-0.2,6.2-0.7
		c1.9-0.5,4-1.2,6.1-2.2v7.7c-1.7,0.9-3.6,1.5-5.5,1.9S695.9,305.2,693.1,305.2z M691.7,274.6c-2.1,0-3.7,0.7-4.9,2
		c-1.2,1.3-1.9,3.2-2,5.7h13.9c0-2.4-0.7-4.3-1.9-5.7C695.4,275.2,693.8,274.6,691.7,274.6z"/>
	<path class="st1" d="M763,304.5l-3.4-11.3h-17.3l-3.4,11.3H728l16.7-47.6H757l16.8,47.6H763z M757.2,284.8c-3.2-10.2-5-16-5.4-17.4
		c-0.4-1.3-0.7-2.4-0.9-3.2c-0.7,2.8-2.8,9.6-6.1,20.5H757.2z"/>
	<path class="st1" d="M804.3,293.7c0,3.7-1.3,6.6-3.9,8.5s-6.5,2.9-11.6,2.9c-2.6,0-4.9-0.2-6.7-0.5c-1.9-0.4-3.6-0.9-5.2-1.6v-8.2
		c1.8,0.9,3.9,1.6,6.2,2.2s4.3,0.9,6.1,0.9c3.6,0,5.4-1,5.4-3.1c0-0.8-0.2-1.4-0.7-1.9c-0.5-0.5-1.3-1-2.5-1.7
		c-1.2-0.6-2.7-1.3-4.7-2.2c-2.8-1.2-4.8-2.2-6.1-3.2s-2.3-2.1-2.9-3.4c-0.6-1.3-0.9-2.9-0.9-4.8c0-3.2,1.2-5.7,3.7-7.5
		c2.5-1.8,6-2.6,10.6-2.6c4.4,0,8.6,1,12.8,2.9l-3,7.1c-1.8-0.8-3.5-1.4-5.1-1.9c-1.6-0.5-3.2-0.7-4.8-0.7c-2.9,0-4.4,0.8-4.4,2.4
		c0,0.9,0.5,1.7,1.4,2.3c0.9,0.6,3,1.6,6.2,2.9c2.8,1.1,4.9,2.2,6.2,3.2c1.3,1,2.3,2.1,2.9,3.4C804,290.4,804.3,291.9,804.3,293.7z"
		/>
	<path class="st1" d="M837.4,293.7c0,3.7-1.3,6.6-3.9,8.5s-6.5,2.9-11.6,2.9c-2.6,0-4.9-0.2-6.7-0.5c-1.9-0.4-3.6-0.9-5.2-1.6v-8.2
		c1.8,0.9,3.9,1.6,6.2,2.2s4.3,0.9,6.1,0.9c3.6,0,5.4-1,5.4-3.1c0-0.8-0.2-1.4-0.7-1.9c-0.5-0.5-1.3-1-2.5-1.7
		c-1.2-0.6-2.7-1.3-4.7-2.2c-2.8-1.2-4.8-2.2-6.1-3.2s-2.3-2.1-2.9-3.4c-0.6-1.3-0.9-2.9-0.9-4.8c0-3.2,1.2-5.7,3.7-7.5
		c2.5-1.8,6-2.6,10.6-2.6c4.4,0,8.6,1,12.8,2.9l-3,7.1c-1.8-0.8-3.5-1.4-5.1-1.9c-1.6-0.5-3.2-0.7-4.8-0.7c-2.9,0-4.4,0.8-4.4,2.4
		c0,0.9,0.5,1.7,1.4,2.3c0.9,0.6,3,1.6,6.2,2.9c2.8,1.1,4.9,2.2,6.2,3.2c1.3,1,2.3,2.1,2.9,3.4C837.1,290.4,837.4,291.9,837.4,293.7
		z"/>
	<path class="st1" d="M861.5,305.2c-5.8,0-10.4-1.6-13.7-4.8c-3.3-3.2-4.9-7.8-4.9-13.7c0-6.1,1.5-10.8,4.6-14.1c3-3.3,7.2-5,12.6-5
		c5.1,0,9.1,1.5,12,4.4c2.9,2.9,4.3,7,4.3,12.1v4.8h-23.4c0.1,2.8,0.9,5,2.5,6.6s3.7,2.4,6.6,2.4c2.2,0,4.3-0.2,6.2-0.7
		c1.9-0.5,4-1.2,6.1-2.2v7.7c-1.7,0.9-3.6,1.5-5.5,1.9S864.4,305.2,861.5,305.2z M860.1,274.6c-2.1,0-3.7,0.7-4.9,2
		c-1.2,1.3-1.9,3.2-2,5.7H867c0-2.4-0.7-4.3-1.9-5.7C863.9,275.2,862.2,274.6,860.1,274.6z"/>
	<path class="st1" d="M899.7,297.3c1.7,0,3.8-0.4,6.2-1.1v7.4c-2.5,1.1-5.5,1.7-9.1,1.7c-4,0-6.8-1-8.6-3s-2.7-5-2.7-9v-17.5h-4.7
		v-4.2l5.5-3.3l2.9-7.7h6.3v7.7h10.2v7.4h-10.2v17.5c0,1.4,0.4,2.4,1.2,3.1S898.4,297.3,899.7,297.3z"/>
</g>
</svg>
