<svg width="89" height="89" viewBox="0 0 89 89" fill="none" xmlns="http://www.w3.org/2000/svg">
<circle cx="44.1081" cy="44.1081" r="44.1081" fill="url(#paint0_linear_501_462)"/>
<path d="M41.3861 68.2894C41.7472 68.5702 42.2528 68.5702 42.6139 68.2894L59.1139 55.456C59.4512 55.1937 59.5845 54.7462 59.4459 54.3421C59.3072 53.938 58.9272 53.6667 58.5 53.6667L50.3333 53.6667L50.3333 34.5C50.3333 33.9477 49.8856 33.5 49.3333 33.5L34.6667 33.5C34.1147 33.5 33.6672 33.9472 33.6667 34.4991L33.6492 53.6667L25.5 53.6667C25.0728 53.6667 24.6928 53.938 24.5541 54.3421C24.4155 54.7462 24.5488 55.1937 24.8861 55.456L41.3861 68.2894Z" stroke="#666666" stroke-width="2" stroke-linecap="round" stroke-linejoin="round"/>
<circle cx="51" cy="32" r="12" fill="#FCEEDE" stroke="#666666" stroke-width="2"/>
<path d="M48.5901 30.6425C48.9977 30.6425 49.3962 30.5216 49.7351 30.2951C50.074 30.0687 50.3382 29.7468 50.4942 29.3702C50.6502 28.9936 50.691 28.5792 50.6115 28.1795C50.5319 27.7797 50.3357 27.4125 50.0474 27.1242C49.7592 26.836 49.392 26.6397 48.9922 26.5602C48.5924 26.4807 48.178 26.5215 47.8014 26.6775C47.4248 26.8335 47.103 27.0976 46.8765 27.4365C46.65 27.7755 46.5292 28.1739 46.5292 28.5815C46.5297 29.128 46.747 29.6519 47.1334 30.0382C47.5198 30.4246 48.0437 30.6419 48.5901 30.6425V30.6425ZM48.5901 27.8945C48.726 27.8945 48.8588 27.9348 48.9718 28.0103C49.0848 28.0858 49.1728 28.1931 49.2248 28.3186C49.2768 28.4442 49.2904 28.5823 49.2639 28.7156C49.2374 28.8488 49.172 28.9712 49.0759 29.0673C48.9798 29.1634 48.8574 29.2288 48.7241 29.2553C48.5909 29.2818 48.4528 29.2682 48.3272 29.2162C48.2017 29.1642 48.0944 29.0762 48.0189 28.9632C47.9434 28.8502 47.9031 28.7174 47.9031 28.5815C47.9031 28.3993 47.9755 28.2246 48.1043 28.0958C48.2332 27.9669 48.4079 27.8945 48.5901 27.8945V27.8945ZM54.4185 32.3489C54.0109 32.3489 53.6124 32.4698 53.2735 32.6963C52.9345 32.9227 52.6704 33.2446 52.5144 33.6212C52.3584 33.9978 52.3176 34.4122 52.3971 34.812C52.4766 35.2117 52.6729 35.579 52.9612 35.8672C53.2494 36.1554 53.6166 36.3517 54.0164 36.4312C54.4162 36.5107 54.8306 36.4699 55.2072 36.3139C55.5837 36.158 55.9056 35.8938 56.1321 35.5549C56.3585 35.216 56.4794 34.8175 56.4794 34.4099C56.4789 33.8635 56.2616 33.3396 55.8752 32.9532C55.4888 32.5668 54.9649 32.3495 54.4185 32.3489V32.3489ZM54.4185 35.0969C54.2826 35.0969 54.1498 35.0566 54.0368 34.9811C53.9238 34.9056 53.8358 34.7983 53.7838 34.6728C53.7318 34.5472 53.7182 34.4091 53.7447 34.2759C53.7712 34.1426 53.8366 34.0202 53.9327 33.9241C54.0288 33.828 54.1512 33.7626 54.2844 33.7361C54.4177 33.7096 54.5558 33.7232 54.6814 33.7752C54.8069 33.8272 54.9142 33.9152 54.9897 34.0282C55.0652 34.1412 55.1055 34.274 55.1055 34.4099C55.1055 34.5921 55.0331 34.7668 54.9042 34.8956C54.7754 35.0245 54.6007 35.0969 54.4185 35.0969ZM56.7989 26.2011C56.67 26.0723 56.4953 26 56.3132 26C56.131 26 55.9563 26.0723 55.8275 26.2011L46.2097 35.8189C46.1441 35.8823 46.0918 35.9581 46.0558 36.0419C46.0198 36.1257 46.0008 36.2158 46 36.307C45.9992 36.3983 46.0166 36.4887 46.0512 36.5732C46.0857 36.6576 46.1367 36.7343 46.2012 36.7988C46.2657 36.8633 46.3424 36.9143 46.4268 36.9488C46.5113 36.9834 46.6017 37.0008 46.693 37C46.7842 36.9992 46.8743 36.9802 46.9581 36.9442C47.0419 36.9082 47.1177 36.8559 47.1811 36.7903L56.7989 27.1725C56.9276 27.0437 57 26.869 57 26.6868C57 26.5047 56.9276 26.33 56.7989 26.2011V26.2011Z" fill="#F5821F"/>
<path d="M19.168 29H20.6153V31.1709H19.168V29Z" fill="#F08200"/>
<path d="M17 31.168H19.1709V32.6153H17V31.168Z" fill="#F08200"/>
<path d="M19.168 32.6172H20.6153V34.7881H19.168V32.6172Z" fill="#F08200"/>
<path d="M20.6172 31.168H22.7881V32.6153H20.6172V31.168Z" fill="#F08200"/>
<path d="M68.168 47H69.6153V49.1709H68.168V47Z" fill="#F08200"/>
<path d="M66 49.168H68.1709V50.6153H66V49.168Z" fill="#F08200"/>
<path d="M68.168 50.6172H69.6153V52.7881H68.168V50.6172Z" fill="#F08200"/>
<path d="M69.6172 49.168H71.7881V50.6153H69.6172V49.168Z" fill="#F08200"/>
<path d="M72.168 33H73.6153V35.1709H72.168V33Z" fill="#F08200"/>
<path d="M70 35.168H72.1709V36.6153H70V35.168Z" fill="#F08200"/>
<path d="M72.168 36.6172H73.6153V38.7881H72.168V36.6172Z" fill="#F08200"/>
<path d="M73.6172 35.168H75.7881V36.6153H73.6172V35.168Z" fill="#F08200"/>
<defs>
<linearGradient id="paint0_linear_501_462" x1="20.2162" y1="73.5135" x2="112.108" y2="73.5135" gradientUnits="userSpaceOnUse">
<stop stop-color="#F08200" stop-opacity="0.15"/>
<stop offset="1" stop-color="#C4C4C4" stop-opacity="0"/>
</linearGradient>
</defs>
</svg>
