<svg width="15" height="15" viewBox="0 0 15 15" fill="none" xmlns="http://www.w3.org/2000/svg">
<path d="M14.8621 14.1949L10.3074 9.61242C11.1563 8.5957 11.668 7.28766 11.668 5.85938C11.668 2.62336 9.04461 0 5.80859 0C2.57258 0 -0.0507812 2.62336 -0.0507812 5.85938C-0.0507812 9.09539 2.57258 11.7188 5.80859 11.7188C7.27883 11.7188 8.6218 11.1759 9.6507 10.2811L14.199 14.858C14.382 15.041 14.679 15.041 14.862 14.858C15.0449 14.6749 15.0449 14.3782 14.862 14.1949H14.8621ZM5.80859 10.789C3.08609 10.789 0.878985 8.58188 0.878985 5.85938C0.878985 3.13688 3.08609 0.929766 5.80859 0.929766C8.53109 0.929766 10.7382 3.13688 10.7382 5.85938C10.7382 8.58188 8.53109 10.789 5.80859 10.789Z" fill="#999999"/>
</svg>
