<svg width="89" height="89" viewBox="0 0 89 89" fill="none" xmlns="http://www.w3.org/2000/svg">
<circle cx="44.1081" cy="44.1081" r="44.1081" fill="url(#paint0_linear_498_273)"/>
<path d="M38.9015 37.9809L36.224 40.9478C34.7767 42.5398 33.9807 44.6384 33.9807 46.737V47.3159C33.9807 52.092 37.8884 55.9997 42.6645 55.9997C47.4406 55.9997 51.3483 52.092 51.3483 47.3159V46.737C51.3483 44.5661 50.5523 42.5398 49.105 40.9478L48.9602 40.8031H49.1773C50.4075 40.8031 51.3483 39.8623 51.3483 38.6321V27.0538C51.3483 25.8236 50.4075 24.8828 49.1773 24.8828H41.0725C40.4936 24.8828 39.9146 25.0999 39.5528 25.5341L37.3095 27.7774H22.4023V29.2247H30.3625V36.4612H22.4023V37.9085H38.7568L38.9015 37.9809ZM48.4537 33.5666H49.901V35.0139H49.1773C48.7432 35.0139 48.4537 34.7244 48.4537 34.2902V33.5666ZM48.4537 32.1193V29.9484H49.901V32.1193H48.4537ZM49.901 27.0538V28.5011H48.4537V26.3301H49.1773C49.6115 26.3301 49.901 26.6196 49.901 27.0538ZM40.5655 26.5472C40.7102 26.4025 40.9273 26.3301 41.0721 26.3301H42.6641C43.0983 26.3301 43.3877 26.6196 43.3877 27.0538V29.9484C43.3877 30.3825 43.0983 30.672 42.6641 30.672C42.2299 30.672 41.9404 30.3825 41.9404 29.9484V28.5011H40.4931V29.9484C40.4931 31.1786 41.4339 32.1193 42.6641 32.1193C43.8943 32.1193 44.835 31.1786 44.835 29.9484V27.0538C44.835 26.8367 44.7627 26.5472 44.6903 26.3301H47.006V34.2902C47.006 35.5204 47.9467 36.4612 49.1769 36.4612H49.9006V38.6321C49.9006 39.0663 49.6111 39.3558 49.1769 39.3558H47.7296V39.4282L44.9074 36.3165L45.5587 33.7837L44.1114 33.4219L43.3154 36.6783L48.0191 41.9609C49.2493 43.2635 49.9006 45.0002 49.9006 46.8094V47.3159C49.9006 51.296 46.6442 54.5524 42.6641 54.5524C38.684 54.5524 35.4276 51.296 35.4276 47.3159V46.737C35.4276 44.9279 36.0789 43.1911 37.3091 41.8886L42.0128 36.6059L41.2168 33.4219L39.7695 33.7113L40.4208 36.2441L39.8419 36.8954L39.3353 36.4612H38.3222V28.7905L40.5655 26.5472ZM31.8089 29.2247H33.2562V32.1193H34.7035V29.2247H36.8745V36.4612H31.8089V29.2247Z" fill="#666666"/>
<path d="M33.2578 33.5664H34.7051V35.0137H33.2578V33.5664Z" fill="#666666"/>
<path d="M61.4805 61.0625H62.9278V62.5098H61.4805V61.0625Z" fill="#666666"/>
<path d="M56.4874 50.7181C55.619 49.9221 54.2441 49.9221 53.4481 50.7181L48.9615 55.2047C48.0931 56.0731 48.0931 57.448 48.9615 58.244L50.3364 59.619L49.3957 60.5597C49.1786 60.7768 48.8891 60.8492 48.5996 60.7045L33.475 54.0469C32.3895 53.5403 31.0869 54.0469 30.5804 55.1324C30.4356 55.4218 30.3633 55.7113 30.3633 56.0007V57.2309C30.3633 58.027 30.7975 58.7506 31.5211 59.1848L48.3098 67.9414C48.5992 68.0861 48.9611 68.1584 49.3229 68.1584C49.54 68.1584 49.7571 68.1584 49.9018 68.0861L59.3812 65.4086H65.8217V53.8302H59.5983L56.4874 50.7181ZM49.5404 66.7112C49.3957 66.7835 49.1786 66.7112 49.0338 66.6388L32.1724 57.955C31.9553 57.8103 31.8106 57.5932 31.8106 57.3037V56.0735C31.8106 55.6393 32.1 55.3499 32.5342 55.3499C32.6066 55.3499 32.7513 55.3499 32.8237 55.4222L47.9484 62.0798C48.7444 62.4416 49.7575 62.2969 50.3364 61.6456L55.4019 56.5801L54.3888 55.567L51.3495 58.6063L49.9746 57.2314C49.6851 56.9419 49.6851 56.5077 49.9746 56.2182L54.4612 51.7316C54.7507 51.4422 55.1848 51.4422 55.4743 51.7316L58.586 54.8433V64.106L49.5404 66.7112ZM60.0337 55.2775H61.481V59.6194H62.9283V55.2775H64.3756V63.9613H60.0337V55.2775Z" fill="#666666"/>
<path d="M38.5156 48.9947L45.0142 42.4961L46.0377 43.5195L39.5391 50.0182L38.5156 48.9947Z" fill="#F08200"/>
<path d="M41.2188 42.25H42.666V43.6973H41.2188V42.25Z" fill="#F08200"/>
<path d="M41.9414 48.7617H43.3887V50.209H41.9414V48.7617Z" fill="#F08200"/>
<path d="M57.8594 35.7383H59.3067V37.9092H57.8594V35.7383Z" fill="#F08200"/>
<path d="M55.6914 37.9062H57.8624V39.3535H55.6914V37.9062Z" fill="#F08200"/>
<path d="M57.8594 39.3555H59.3067V41.5264H57.8594V39.3555Z" fill="#F08200"/>
<path d="M59.3086 37.9062H61.4795V39.3535H59.3086V37.9062Z" fill="#F08200"/>
<path d="M26.0195 45.8672H27.4668V48.0381H26.0195V45.8672Z" fill="#F08200"/>
<path d="M23.8477 48.0391H26.0186V49.4864H23.8477V48.0391Z" fill="#F08200"/>
<path d="M26.0195 49.4844H27.4668V51.6553H26.0195V49.4844Z" fill="#F08200"/>
<path d="M27.4688 48.0391H29.6397V49.4864H27.4688V48.0391Z" fill="#F08200"/>
<path d="M56.4141 45.1445H57.8614V46.5918H56.4141V45.1445Z" fill="#F08200"/>
<path d="M54.9648 46.5898H56.4121V48.0371H54.9648V46.5898Z" fill="#F08200"/>
<path d="M56.4141 48.0391H57.8614V49.4864H56.4141V48.0391Z" fill="#F08200"/>
<path d="M57.8594 46.5898H59.3067V48.0371H57.8594V46.5898Z" fill="#F08200"/>
<defs>
<linearGradient id="paint0_linear_498_273" x1="20.2162" y1="73.5135" x2="112.108" y2="73.5135" gradientUnits="userSpaceOnUse">
<stop stop-color="#F08200" stop-opacity="0.15"/>
<stop offset="1" stop-color="#C4C4C4" stop-opacity="0"/>
</linearGradient>
</defs>
</svg>
