<svg id="Layer_1" data-name="Layer 1" xmlns="http://www.w3.org/2000/svg" viewBox="0 0 701.37 230.11"><defs><style>.cls-1{fill:#f58220;}</style></defs><polygon class="cls-1" points="114.35 146.4 84.96 161.85 90.58 129.13 66.8 105.95 99.66 101.18 114.35 71.4 129.05 101.18 161.91 105.95 138.13 129.13 143.74 161.85 114.35 146.4"/><polygon class="cls-1" points="238.55 146.4 209.16 161.85 214.77 129.13 191 105.95 223.85 101.18 238.55 71.4 253.24 101.18 286.1 105.95 262.32 129.13 267.94 161.85 238.55 146.4"/><polygon class="cls-1" points="362.74 146.4 333.35 161.85 338.97 129.13 315.19 105.95 348.05 101.18 362.74 71.4 377.44 101.18 410.3 105.95 386.52 129.13 392.13 161.85 362.74 146.4"/><polygon class="cls-1" points="486.94 146.4 457.55 161.85 463.16 129.13 439.38 105.95 472.24 101.18 486.94 71.4 501.63 101.18 534.49 105.95 510.71 129.13 516.33 161.85 486.94 146.4"/><polygon class="cls-1" points="605.39 146.4 576 161.85 581.62 129.13 557.84 105.95 590.7 101.18 605.39 71.4 620.09 101.18 652.95 105.95 629.17 129.13 634.78 161.85 605.39 146.4"/></svg>