<svg version="1.2" xmlns="http://www.w3.org/2000/svg" viewBox="0 0 54 20" width="54" height="20"><style>.a{fill:#f08200}.b{fill:#1a3967}.c{fill:#fff}</style><path class="a" d="m0 2c0-1.1 0.9-2 2-2h50c1.1 0 2 0.9 2 2v16c0 1.1-0.9 2-2 2h-50c-1.1 0-2-0.9-2-2z"/><path class="b" d="m0 2c0-1.1 0.9-2 2-2h35c5.5 0 10 4.5 10 10 0 5.5-4.5 10-10 10h-35c-1.1 0-2-0.9-2-2z"/><path fill-rule="evenodd" class="c" d="m7.4 14q-0.5 0-0.7-0.3-0.3-0.2-0.2-0.6 0-0.4 0.3-0.9l4-5.1h-3.5q-0.9 0-0.9-0.8 0-0.8 0.9-0.8h4.8q0.5 0 0.7 0.3 0.3 0.3 0.2 0.7 0 0.4-0.4 0.8l-3.9 5.2h3.7q0.8 0 0.8 0.7 0 0.8-0.8 0.8zm7.8 0q-0.9 0-0.9-1v-6.5q0-1 0.9-1h4.2q0.7 0 0.7 0.8 0 0.7-0.7 0.7h-3.4v2h3.1q0.8 0 0.8 0.7 0 0.7-0.8 0.7h-3.1v2.1h3.4q0.7 0 0.7 0.8 0 0.7-0.7 0.7zm7.2 0.1q-0.4 0-0.7-0.2-0.2-0.3-0.2-0.8v-6.6q0-1 1-1h2.9q1.4 0 2.2 0.7 0.7 0.7 0.7 1.9 0 1-0.5 1.6-0.5 0.6-1.4 0.9 0.7 0.2 1.1 0.9l0.7 1.4q0.3 0.4 0.1 0.8-0.1 0.4-0.7 0.4-0.4 0-0.7-0.2-0.2-0.1-0.4-0.5l-1.2-2.1q-0.1-0.3-0.4-0.5-0.3-0.1-0.6-0.1h-0.9v2.4q0 0.5-0.3 0.8-0.2 0.2-0.7 0.2zm1-4.7h1.6q1.5 0 1.5-1.2 0-1.2-1.5-1.2h-1.6zm10.3 4.7q-1.2 0-2.2-0.5-0.9-0.5-1.4-1.5-0.6-1-0.6-2.3 0-1.3 0.6-2.3 0.5-1 1.4-1.5 1-0.6 2.2-0.6 1.3 0 2.2 0.6 1 0.5 1.5 1.5 0.5 1 0.5 2.3 0 1.3-0.5 2.3-0.5 1-1.5 1.5-0.9 0.5-2.2 0.5zm0-1.5q1.1 0 1.7-0.8 0.6-0.7 0.6-2 0-1.3-0.6-2.1-0.6-0.7-1.7-0.7-1 0-1.6 0.7-0.6 0.8-0.6 2.1 0 1.3 0.6 2 0.6 0.8 1.6 0.8z"/></svg>