<?xml version="1.0" encoding="utf-8"?>
<!-- Generator: Adobe Illustrator 24.1.2, SVG Export Plug-In . SVG Version: 6.00 Build 0)  -->
<svg version="1.1" id="Layer_1" xmlns="http://www.w3.org/2000/svg" xmlns:xlink="http://www.w3.org/1999/xlink" x="0px" y="0px"
	 viewBox="0 0 24 24" style="enable-background:new 0 0 24 24;" xml:space="preserve">
<style type="text/css">
	.st0{fill:none;stroke:#FFFFFF;stroke-width:2;stroke-linecap:round;stroke-linejoin:round;}
	.st1{fill:#FFFFFF;stroke:#FFFFFF;stroke-width:2;stroke-linecap:round;stroke-linejoin:round;}
	.st2{fill:#FFFFFF;}
</style>
<path class="st0" d="M20,3H4C2.9,3,2,3.9,2,5v10c0,1.1,0.9,2,2,2h16c1.1,0,2-0.9,2-2V5C22,3.9,21.1,3,20,3z"/>
<path class="st1" d="M12,17v4 M8,21h8H8z"/>
<g>
	<path class="st2" d="M7.4,5.2v8.3c0,0.1,0,0.2,0.1,0.3s0.2,0.1,0.3,0.1h8.3v-1H8.4V5.2H7.4z"/>
	<path class="st2" d="M13.4,10.9l0.1,0.1c0,0,0.1,0,0.2,0c0,0,0.1,0,0.2,0c0,0,0.1,0,0.1-0.1l2.4-2.4l-0.7-0.7l-2.1,2.1l-1.1-1.1
		l-0.1-0.1c0,0-0.1,0-0.2,0c0,0-0.1,0-0.2,0c0,0-0.1,0-0.1,0.1l-2.4,2.4l0.7,0.7l2.1-2.1L13.4,10.9z"/>
</g>
</svg>
