<?xml version="1.0" encoding="utf-8"?>
<!-- Generator: Adobe Illustrator 24.1.2, SVG Export Plug-In . SVG Version: 6.00 Build 0)  -->
<svg version="1.1" id="Layer_1" xmlns="http://www.w3.org/2000/svg" xmlns:xlink="http://www.w3.org/1999/xlink" x="0px" y="0px"
	 viewBox="0 0 30 30" style="enable-background:new 0 0 30 30;" xml:space="preserve">
<style type="text/css">
	.st0{fill:#FFFFFF;}
	.st1{fill:#FFFFFF;stroke:#000000;stroke-width:0.9375;}
</style>
<path class="st0" d="M9.4,7.5c-0.2,0-0.5,0.1-0.7,0.3C8.5,8,8.4,8.2,8.4,8.4s0.1,0.5,0.3,0.7c0.2,0.2,0.4,0.3,0.7,0.3V7.5z
	 M13.1,9.4c0.2,0,0.5-0.1,0.7-0.3c0.2-0.2,0.3-0.4,0.3-0.7S14,8,13.8,7.8c-0.2-0.2-0.4-0.3-0.7-0.3V9.4z M9.4,14.1
	c-0.2,0-0.5,0.1-0.7,0.3c-0.2,0.2-0.3,0.4-0.3,0.7s0.1,0.5,0.3,0.7c0.2,0.2,0.4,0.3,0.7,0.3V14.1z M20.6,15.9c0.2,0,0.5-0.1,0.7-0.3
	c0.2-0.2,0.3-0.4,0.3-0.7s-0.1-0.5-0.3-0.7c-0.2-0.2-0.4-0.3-0.7-0.3V15.9z M9.4,17.8c-0.2,0-0.5,0.1-0.7,0.3
	c-0.2,0.2-0.3,0.4-0.3,0.7s0.1,0.5,0.3,0.7c0.2,0.2,0.4,0.3,0.7,0.3V17.8z M20.6,19.7c0.2,0,0.5-0.1,0.7-0.3
	c0.2-0.2,0.3-0.4,0.3-0.7s-0.1-0.5-0.3-0.7c-0.2-0.2-0.4-0.3-0.7-0.3V19.7z M9.4,21.6c-0.2,0-0.5,0.1-0.7,0.3
	c-0.2,0.2-0.3,0.4-0.3,0.7s0.1,0.5,0.3,0.7c0.2,0.2,0.4,0.3,0.7,0.3V21.6z M13.1,23.4c0.2,0,0.5-0.1,0.7-0.3
	c0.2-0.2,0.3-0.4,0.3-0.7S14,22,13.8,21.8c-0.2-0.2-0.4-0.3-0.7-0.3V23.4z M7.5,3.8h15V1.9h-15V3.8z M23.4,4.7v20.6h1.9V4.7H23.4z
	 M22.5,26.3h-15v1.9h15V26.3z M6.6,25.3V4.7H4.7v20.6H6.6z M7.5,26.3c-0.2,0-0.5-0.1-0.7-0.3c-0.2-0.2-0.3-0.4-0.3-0.7H4.7
	c0,0.7,0.3,1.5,0.8,2c0.5,0.5,1.2,0.8,2,0.8V26.3z M23.4,25.3c0,0.2-0.1,0.5-0.3,0.7c-0.2,0.2-0.4,0.3-0.7,0.3v1.9
	c0.7,0,1.5-0.3,2-0.8c0.5-0.5,0.8-1.2,0.8-2H23.4z M22.5,3.8c0.2,0,0.5,0.1,0.7,0.3c0.2,0.2,0.3,0.4,0.3,0.7h1.9
	c0-0.7-0.3-1.5-0.8-2c-0.5-0.5-1.2-0.8-2-0.8V3.8z M7.5,1.9c-0.7,0-1.5,0.3-2,0.8C5,3.2,4.7,3.9,4.7,4.7h1.9c0-0.2,0.1-0.5,0.3-0.7
	C7,3.8,7.3,3.8,7.5,3.8V1.9z M9.4,9.4h3.8V7.5H9.4V9.4z M9.4,15.9h11.3v-1.9H9.4V15.9z M9.4,19.7h11.3v-1.9H9.4V19.7z M9.4,23.4h3.8
	v-1.9H9.4V23.4z"/>
<path class="st1" d="M20.6,8.9c0.3,0,0.5-0.2,0.5-0.5S20.9,8,20.6,8s-0.5,0.2-0.5,0.5S20.4,8.9,20.6,8.9z"/>
</svg>
