<?xml version="1.0" encoding="utf-8"?>
<!-- Generator: Adobe Illustrator 24.1.2, SVG Export Plug-In . SVG Version: 6.00 Build 0)  -->
<svg version="1.1" id="Layer_1" xmlns="http://www.w3.org/2000/svg" xmlns:xlink="http://www.w3.org/1999/xlink" x="0px" y="0px"
	 viewBox="0 0 32 32" style="enable-background:new 0 0 32 32;" xml:space="preserve">
<style type="text/css">
	.st0{fill:#FFFFFF;}
</style>
<path class="st0" d="M10,18h8v2h-8V18z M10,13h12v2H10V13z M10,23h5v2h-5V23z"/>
<path class="st0" d="M25,5h-3V4c0-0.5-0.2-1-0.6-1.4C21,2.2,20.5,2,20,2h-8c-0.5,0-1,0.2-1.4,0.6C10.2,3,10,3.5,10,4v1H7
	C6.5,5,6,5.2,5.6,5.6C5.2,6,5,6.5,5,7v21c0,0.5,0.2,1,0.6,1.4C6,29.8,6.5,30,7,30h18c0.5,0,1-0.2,1.4-0.6C26.8,29,27,28.5,27,28V7
	c0-0.5-0.2-1-0.6-1.4C26,5.2,25.5,5,25,5L25,5z M12,4h8v4h-8V4z M25,28H7V7h3v3h12V7h3V28z"/>
</svg>
