<svg width="369" height="464" viewBox="0 0 369 464" fill="none" xmlns="http://www.w3.org/2000/svg">
<path d="M-45.2819 452.654C-45.2131 452.608 -45.1364 452.556 -45.0518 452.498C-44.6096 452.198 -43.9533 451.749 -43.0952 451.154C-41.3791 449.964 -38.8558 448.188 -35.6247 445.844C-29.1627 441.156 -19.8695 434.195 -8.54038 425.102C14.1175 406.916 44.9211 380.198 77.508 346.067C142.634 277.855 214.913 180.002 243.494 61.4455L367.831 1.69223C367.733 2.20648 367.593 2.92434 367.403 3.838C366.978 5.88451 366.308 8.91336 365.326 12.8368C363.364 20.6836 360.157 32.1086 355.184 46.4096C345.237 75.0115 328.224 115.117 299.96 161.109C243.473 253.026 142.043 368.469 -37.7474 462.595L-45.2819 452.654Z" stroke="#F1ECE6"/>
</svg>
