<svg width="48" height="48" viewBox="0 0 48 48" fill="none" xmlns="http://www.w3.org/2000/svg">
<circle cx="24" cy="24" r="24" fill="url(#paint0_linear_1236_699)"/>
<path d="M32.5625 13.625V35.375H14.4375V13.625H32.5625ZM32.5625 11.8125H14.4375C13.9568 11.8125 13.4958 12.0035 13.1559 12.3434C12.816 12.6833 12.625 13.1443 12.625 13.625V35.375C12.625 35.8557 12.816 36.3167 13.1559 36.6566C13.4958 36.9965 13.9568 37.1875 14.4375 37.1875H32.5625C33.0432 37.1875 33.5042 36.9965 33.8441 36.6566C34.184 36.3167 34.375 35.8557 34.375 35.375V13.625C34.375 13.1443 34.184 12.6833 33.8441 12.3434C33.5042 12.0035 33.0432 11.8125 32.5625 11.8125Z" fill="#F08200"/>
<path d="M17.1562 30.8438H18.9688V32.6562H17.1562V30.8438ZM28.0312 30.8438H29.8438V32.6562H28.0312V30.8438ZM17.1562 26.3125H18.9688V28.125H17.1562V26.3125ZM28.0312 26.3125H29.8438V28.125H28.0312V26.3125ZM17.1562 21.7812H18.9688V23.5938H17.1562V21.7812ZM22.5938 30.8438H24.4062V32.6562H22.5938V30.8438ZM22.5938 26.3125H24.4062V28.125H22.5938V26.3125ZM22.5938 21.7812H24.4062V23.5938H22.5938V21.7812ZM28.0312 21.7812H29.8438V23.5938H28.0312V21.7812ZM17.1562 16.3438H29.8438V19.0625H17.1562V16.3438Z" fill="#F08200"/>
<defs>
<linearGradient id="paint0_linear_1236_699" x1="24" y1="0" x2="24" y2="48" gradientUnits="userSpaceOnUse">
<stop stop-color="#F08200" stop-opacity="0.28"/>
<stop offset="1" stop-color="white" stop-opacity="0"/>
</linearGradient>
</defs>
</svg>
