<svg width="48" height="48" viewBox="0 0 48 48" fill="none" xmlns="http://www.w3.org/2000/svg">
<circle cx="24" cy="24" r="24" fill="url(#paint0_linear_1236_697)"/>
<path d="M17.6085 22.0773L18.5325 22.208L17.6085 22.0773ZM17.5899 22.208L16.6659 22.0773L17.5899 22.208ZM30.3915 22.0773L31.3155 21.9467L30.3915 22.0773ZM30.4101 22.208L29.4861 22.3387L30.4101 22.208ZM27.7333 33.3333V34.2667C27.9809 34.2667 28.2183 34.1683 28.3933 33.9933C28.5683 33.8183 28.6667 33.5809 28.6667 33.3333H27.7333ZM20.2667 33.3333H19.3333C19.3333 33.5809 19.4317 33.8183 19.6067 33.9933C19.7817 34.1683 20.0191 34.2667 20.2667 34.2667V33.3333ZM18.876 27.0856L19.6152 26.5144L18.876 27.0856ZM29.124 27.0856L28.3848 26.5144L29.124 27.0856ZM21.2 38H26.8V36.1333H21.2V38ZM16.6827 21.9467L16.664 22.0773L18.512 22.3387L18.5307 22.208L16.6827 21.9467ZM24 15.6C22.2206 15.5997 20.5008 16.2415 19.1566 17.4074C17.8123 18.5733 16.9339 20.1851 16.6827 21.9467L18.5307 22.208C18.719 20.8917 19.3757 19.6876 20.3804 18.8166C21.3852 17.9456 22.6703 17.4663 24 17.4667V15.6ZM31.3173 21.9467C31.0661 20.1851 30.1877 18.5733 28.8434 17.4074C27.4992 16.2415 25.7794 15.5997 24 15.6V17.4667C25.3296 17.4667 26.6145 17.9461 27.6192 18.817C28.6238 19.6879 29.2807 20.8919 29.4693 22.208L31.3173 21.9467ZM31.336 22.0773L31.3173 21.9467L29.4693 22.208L29.488 22.3387L31.336 22.0773ZM29.8613 27.6568C31.0373 26.1373 31.6309 24.1568 31.336 22.0755L29.488 22.3405C29.5949 23.0746 29.5525 23.8226 29.3632 24.5398C29.174 25.2571 28.8418 25.9287 28.3867 26.5144L29.8613 27.6568ZM26.8 30.3467V33.3333H28.6667V30.3485H26.8V30.3467ZM27.7333 32.4H20.2667V34.2667H27.7333V32.4ZM21.2 33.3333V30.3485H19.3333V33.3333H21.2ZM16.664 22.0773C16.5221 23.0587 16.5796 24.0586 16.8329 25.0173C17.0863 25.976 17.5304 26.8737 18.1387 27.6568L19.6133 26.5144C19.1582 25.9287 18.826 25.2571 18.6368 24.5398C18.4475 23.8226 18.4051 23.0746 18.512 22.3405L16.664 22.0755V22.0773ZM21.2 30.3467C21.2 28.8104 20.3824 27.5037 19.6133 26.5125L18.1387 27.6549C18.8536 28.5789 19.3333 29.4619 19.3333 30.3467H21.2ZM28.3867 26.5125C27.6157 27.5056 26.8 28.8104 26.8 30.3467H28.6667C28.6667 29.4619 29.1464 28.5789 29.8613 27.6549L28.3867 26.5125ZM23.0667 10V13.7333H24.9333V10H23.0667ZM10 24.9333H13.7333V23.0667H10V24.9333ZM34.2667 24.9333H38V23.0667H34.2667V24.9333ZM16.2608 16.8059L13.4608 14.0059L12.1392 15.3275L14.9392 18.1275L16.2608 16.8059ZM33.0608 18.1275L35.8608 15.3275L34.5392 14.0059L31.7392 16.8059L33.0608 18.1275Z" fill="#F08200"/>
<defs>
<linearGradient id="paint0_linear_1236_697" x1="24" y1="0" x2="24" y2="48" gradientUnits="userSpaceOnUse">
<stop stop-color="#F08200" stop-opacity="0.28"/>
<stop offset="1" stop-color="white" stop-opacity="0"/>
</linearGradient>
</defs>
</svg>
