<svg width="48" height="48" viewBox="0 0 48 48" fill="none" xmlns="http://www.w3.org/2000/svg">
<circle cx="24" cy="24" r="24" fill="url(#paint0_linear_1236_698)"/>
<path d="M28 21.8696V21H21V21.8696H23.4062C23.8891 21.871 24.3546 22.0491 24.7137 22.3699C25.0728 22.6907 25.3004 23.1317 25.3531 23.6087H21V24.4783H25.3531C25.3004 24.9553 25.0728 25.3963 24.7137 25.7171C24.3546 26.0379 23.8891 26.216 23.4062 26.2174H21V27.237L25.2074 31L25.7928 30.3539L22.1401 27.087H23.4062C24.122 27.0859 24.8111 26.8168 25.3362 26.3333C25.8612 25.8498 26.1836 25.1875 26.2391 24.4783H28V23.6087H26.2391C26.1889 22.9558 25.9111 22.3408 25.4538 21.8696H28Z" fill="#F08200"/>
<path fill-rule="evenodd" clip-rule="evenodd" d="M16.8376 11.8929C18.6098 11.0255 21.5174 10 24.6994 10C27.815 10 30.646 10.9829 32.4089 11.8387L32.5086 11.8871C33.0401 12.15 33.4691 12.3984 33.771 12.5999L31.1032 16.4998C37.2534 22.7873 42.004 35.997 24.6994 35.997C7.39481 35.997 12.0176 23.027 18.2213 16.4998L15.5708 12.5999C15.7752 12.4663 16.0345 12.311 16.3436 12.1464C16.4967 12.064 16.6613 11.9795 16.8376 11.8936V11.8929ZM29.3887 16.4478L31.5242 13.3257C29.5382 13.4687 27.1751 13.9353 24.9002 14.5939C23.2752 15.0633 21.4697 14.9918 19.7979 14.6835C19.3766 14.6054 18.9581 14.5124 18.5434 14.4047L19.93 16.4463C22.9019 17.5044 26.4161 17.5044 29.3887 16.4478ZM19.0959 17.677C22.5733 19.0203 26.7526 19.0203 30.23 17.6755C31.6816 19.2057 32.8958 20.9445 33.8324 22.8342C34.8088 24.826 35.3403 26.8171 35.2536 28.5331C35.1699 30.1891 34.5184 31.6039 33.0307 32.6554C31.4802 33.751 28.8723 34.5526 24.6987 34.5526C20.5208 34.5526 17.9006 33.7647 16.3356 32.6814C14.8371 31.6429 14.1792 30.2476 14.086 28.614C13.9885 26.9168 14.5085 24.9358 15.4813 22.9303C16.4093 21.0179 17.7042 19.177 19.0959 17.677ZM18.2654 12.8281C18.8431 13 19.4469 13.1495 20.0593 13.2629C21.612 13.5489 23.1691 13.5908 24.4979 13.2058C26.0465 12.7547 27.6215 12.3999 29.2139 12.1435C27.885 11.7434 26.3309 11.4444 24.6987 11.4444C22.2107 11.4444 19.8903 12.1384 18.2654 12.8281Z" fill="#F08200"/>
<defs>
<linearGradient id="paint0_linear_1236_698" x1="24" y1="0" x2="24" y2="48" gradientUnits="userSpaceOnUse">
<stop stop-color="#F08200" stop-opacity="0.28"/>
<stop offset="1" stop-color="white" stop-opacity="0"/>
</linearGradient>
</defs>
</svg>
