<svg width="48" height="48" viewBox="0 0 48 48" fill="none" xmlns="http://www.w3.org/2000/svg">
<circle cx="24" cy="24" r="24" fill="url(#paint0_linear_1236_700)"/>
<path d="M24 12.625C17.7184 12.625 12.625 17.7184 12.625 24C12.625 30.2816 17.7184 35.375 24 35.375C30.2816 35.375 35.375 30.2816 35.375 24C35.375 17.7184 30.2816 12.625 24 12.625ZM24 33.4453C18.7848 33.4453 14.5547 29.2152 14.5547 24C14.5547 18.7848 18.7848 14.5547 24 14.5547C29.2152 14.5547 33.4453 18.7848 33.4453 24C33.4453 29.2152 29.2152 33.4453 24 33.4453Z" fill="#F08200"/>
<path d="M28.4357 27.2145L24.815 24.5967V18.3125C24.815 18.2008 24.7236 18.1094 24.6119 18.1094H23.3906C23.2789 18.1094 23.1875 18.2008 23.1875 18.3125V25.3051C23.1875 25.3711 23.218 25.432 23.2713 25.4701L27.4709 28.5322C27.5623 28.5982 27.6893 28.5779 27.7553 28.4891L28.4814 27.4988C28.5475 27.4049 28.5271 27.2779 28.4357 27.2145Z" fill="#F08200"/>
<defs>
<linearGradient id="paint0_linear_1236_700" x1="24" y1="0" x2="24" y2="48" gradientUnits="userSpaceOnUse">
<stop stop-color="#F08200" stop-opacity="0.28"/>
<stop offset="1" stop-color="white" stop-opacity="0"/>
</linearGradient>
</defs>
</svg>
