<svg width="48" height="48" viewBox="0 0 48 48" fill="none" xmlns="http://www.w3.org/2000/svg">
<circle cx="24" cy="24" r="24" fill="url(#paint0_linear_1236_695)"/>
<path d="M33 14.087V12H16V14.087H21.8438C23.0164 14.0903 24.1468 14.5178 25.0189 15.2877C25.8911 16.0576 26.4439 17.116 26.5719 18.2609H16V20.3478H26.5719C26.4439 21.4926 25.8911 22.5511 25.0189 23.321C24.1468 24.0909 23.0164 24.5184 21.8438 24.5217H16V26.9687L26.2181 36L27.6397 34.4494L18.7689 26.6087H21.8438C23.5821 26.6062 25.2556 25.9604 26.5307 24.8C27.8058 23.6396 28.5887 22.0499 28.7234 20.3478H33V18.2609H28.7234C28.6015 16.694 27.9271 15.218 26.8162 14.087H33Z" fill="#F08200"/>
<defs>
<linearGradient id="paint0_linear_1236_695" x1="24" y1="0" x2="24" y2="48" gradientUnits="userSpaceOnUse">
<stop stop-color="#F08200" stop-opacity="0.28"/>
<stop offset="1" stop-color="white" stop-opacity="0"/>
</linearGradient>
</defs>
</svg>
