<?xml version="1.0" encoding="utf-8"?>
<!-- Generator: Adobe Illustrator 24.1.2, SVG Export Plug-In . SVG Version: 6.00 Build 0)  -->
<svg version="1.1" id="Layer_1" xmlns="http://www.w3.org/2000/svg" xmlns:xlink="http://www.w3.org/1999/xlink" x="0px" y="0px"
	 viewBox="0 0 30 30" style="enable-background:new 0 0 30 30;" xml:space="preserve">
<style type="text/css">
	.st0{fill:#FFFFFF;}
</style>
<path class="st0" d="M24.4,3.8v22.5H5.6V3.8H24.4z M24.4,1.9H5.6c-0.5,0-1,0.2-1.3,0.5C3.9,2.8,3.8,3.3,3.8,3.8v22.5
	c0,0.5,0.2,1,0.5,1.3c0.4,0.4,0.8,0.5,1.3,0.5h18.8c0.5,0,1-0.2,1.3-0.5c0.4-0.4,0.5-0.8,0.5-1.3V3.8c0-0.5-0.2-1-0.5-1.3
	C25.3,2.1,24.9,1.9,24.4,1.9z"/>
<path class="st0" d="M8.4,21.6h1.9v1.9H8.4V21.6z M19.7,21.6h1.9v1.9h-1.9V21.6z M8.4,16.9h1.9v1.9H8.4V16.9z M19.7,16.9h1.9v1.9
	h-1.9V16.9z M8.4,12.2h1.9v1.9H8.4V12.2z M14.1,21.6h1.9v1.9h-1.9V21.6z M14.1,16.9h1.9v1.9h-1.9V16.9z M14.1,12.2h1.9v1.9h-1.9
	V12.2z M19.7,12.2h1.9v1.9h-1.9V12.2z M8.4,6.6h13.1v2.8H8.4V6.6z"/>
</svg>
