<?xml version="1.0" encoding="utf-8"?>
<!-- Generator: Adobe Illustrator 24.1.2, SVG Export Plug-In . SVG Version: 6.00 Build 0)  -->
<svg version="1.1" id="Layer_1" xmlns="http://www.w3.org/2000/svg" xmlns:xlink="http://www.w3.org/1999/xlink" x="0px" y="0px"
	 viewBox="0 0 24 24" style="enable-background:new 0 0 24 24;" xml:space="preserve">
<style type="text/css">
	.st0{fill:#FFFFFF;}
</style>
<path class="st0" d="M3,3v17c0,0.3,0.1,0.5,0.3,0.7C3.5,20.9,3.7,21,4,21h17v-2H5V3H3z"/>
<path class="st0" d="M15.3,14.7c0.1,0.1,0.2,0.2,0.3,0.2C15.7,15,15.9,15,16,15c0.1,0,0.3,0,0.4-0.1c0.1-0.1,0.2-0.1,0.3-0.2l5-5
	l-1.4-1.4L16,12.6l-2.3-2.3c-0.1-0.1-0.2-0.2-0.3-0.2C13.3,10,13.1,10,13,10c-0.1,0-0.3,0-0.4,0.1c-0.1,0.1-0.2,0.1-0.3,0.2l-5,5
	l1.4,1.4l4.3-4.3L15.3,14.7z"/>
</svg>
