<?xml version="1.0" encoding="utf-8"?>
<!-- Generator: Adobe Illustrator 24.1.2, SVG Export Plug-In . SVG Version: 6.00 Build 0)  -->
<svg version="1.1" id="Layer_1" xmlns="http://www.w3.org/2000/svg" xmlns:xlink="http://www.w3.org/1999/xlink" x="0px" y="0px"
	 viewBox="0 0 24 24" style="enable-background:new 0 0 24 24;" xml:space="preserve">
<style type="text/css">
	.st0{fill:#FFFFFF;}
</style>
<path class="st0" d="M15,4c2.1,0,4.2,0.8,5.7,2.3C22.2,7.8,23,9.9,23,12c0,2.1-0.8,4.2-2.3,5.7C19.2,19.2,17.1,20,15,20
	s-4.2-0.8-5.7-2.3C7.8,16.2,7,14.1,7,12c0-2.1,0.8-4.2,2.3-5.7C10.8,4.8,12.9,4,15,4L15,4z M15,6c-1.6,0-3.1,0.6-4.2,1.8
	C9.6,8.9,9,10.4,9,12s0.6,3.1,1.8,4.2c1.1,1.1,2.7,1.8,4.2,1.8s3.1-0.6,4.2-1.8c1.1-1.1,1.8-2.7,1.8-4.2s-0.6-3.1-1.8-4.2
	C18.1,6.6,16.6,6,15,6z M14,8h1.5v3.8l2.3,2.3l-1.1,1.1L14,12.4V8z M2,18c-0.3,0-0.5-0.1-0.7-0.3C1.1,17.5,1,17.3,1,17
	s0.1-0.5,0.3-0.7C1.5,16.1,1.7,16,2,16h3.8c0.3,0.7,0.7,1.4,1.2,2H2z M3,13c-0.3,0-0.5-0.1-0.7-0.3C2.1,12.5,2,12.3,2,12
	s0.1-0.5,0.3-0.7C2.5,11.1,2.7,11,3,11h2.1L5,12l0.1,1H3z M4,8C3.7,8,3.5,7.9,3.3,7.7C3.1,7.5,3,7.3,3,7s0.1-0.5,0.3-0.7
	C3.5,6.1,3.7,6,4,6h3C6.5,6.6,6.1,7.3,5.8,8H4z"/>
</svg>
