<svg width="32" height="32" viewBox="0 0 32 32" fill="none" xmlns="http://www.w3.org/2000/svg">
<path d="M16 0.25C20.1772 0.25 24.1832 1.90937 27.1369 4.86307C30.0906 7.81677 31.75 11.8228 31.75 16C31.75 20.1772 30.0906 24.1832 27.1369 27.1369C24.1832 30.0906 20.1772 31.75 16 31.75C11.8228 31.75 7.81677 30.0906 4.86307 27.1369C1.90937 24.1832 0.25 20.1772 0.25 16C0.25 11.8228 1.90937 7.81677 4.86307 4.86307C7.81677 1.90937 11.8228 0.25 16 0.25ZM16 29.5C19.5804 29.5 23.0142 28.0777 25.5459 25.5459C28.0777 23.0142 29.5 19.5804 29.5 16C29.5 12.4196 28.0777 8.9858 25.5459 6.45406C23.0142 3.92232 19.5804 2.5 16 2.5C12.4196 2.5 8.9858 3.92232 6.45406 6.45406C3.92232 8.9858 2.5 12.4196 2.5 16C2.5 19.5804 3.92232 23.0142 6.45406 25.5459C8.9858 28.0777 12.4196 29.5 16 29.5ZM14.3125 20.7947L21.5057 16L14.3125 11.2052V20.7947ZM14.686 8.74825L23.4565 14.596C23.6876 14.7501 23.8771 14.9589 24.0082 15.2038C24.1392 15.4487 24.2078 15.7222 24.2078 16C24.2078 16.2778 24.1392 16.5513 24.0082 16.7962C23.8771 17.0411 23.6876 17.2499 23.4565 17.404L14.686 23.2517C14.4319 23.4212 14.1365 23.5184 13.8315 23.5332C13.5264 23.5479 13.223 23.4796 12.9538 23.3355C12.6845 23.1914 12.4594 22.9769 12.3024 22.7149C12.1454 22.4529 12.0625 22.1532 12.0625 21.8477V10.15C12.0625 9.84458 12.1454 9.54489 12.3024 9.28289C12.4594 9.02089 12.6845 8.80639 12.9538 8.66228C13.223 8.51817 13.5264 8.44985 13.8315 8.46459C14.1365 8.47933 14.4319 8.57659 14.686 8.746V8.74825Z" fill="white"/>
</svg>
