<svg width="25" height="25" viewBox="0 0 25 25" fill="none" xmlns="http://www.w3.org/2000/svg">
<g clip-path="url(#clip0_229_1176)">
<path d="M23.6202 25.0001C24.3821 25.0001 25 24.3823 25 23.6203V1.37979C25 0.617676 24.3821 0 23.6202 0H1.37979C0.617578 0 0 0.617676 0 1.37979V23.6203C0 24.3823 0.617578 25.0001 1.37979 25.0001H23.6202" fill="#395185"/>
<path d="M17.2499 25.0001V15.3187H20.4996L20.9861 11.5458H17.2499V9.13682C17.2499 8.04443 17.5533 7.3 19.1198 7.3L21.1178 7.29912V3.92461C20.7721 3.87861 19.5861 3.77588 18.2064 3.77588C15.3258 3.77588 13.3537 5.53418 13.3537 8.76328V11.5458H10.0957V15.3187H13.3537V25.0001H17.2499" fill="white"/>
</g>
<defs>
<clipPath id="clip0_229_1176">
<rect width="25" height="25" fill="white"/>
</clipPath>
</defs>
</svg>
