<svg width="32" height="32" viewBox="0 0 32 32" fill="none" xmlns="http://www.w3.org/2000/svg">
<rect width="16" height="16" transform="matrix(1 0 0 -1 8 24)" fill="#F08200"/>
<path d="M32 16C32 11.7565 30.3143 7.68687 27.3137 4.68629C24.3131 1.68571 20.2435 0 16 0C11.7565 0 7.68687 1.68571 4.68629 4.68629C1.68571 7.68687 0 11.7565 0 16C0 20.2435 1.68571 24.3131 4.68629 27.3137C7.68687 30.3143 11.7565 32 16 32C20.2435 32 24.3131 30.3143 27.3137 27.3137C30.3143 24.3131 32 20.2435 32 16ZM13.58 21.814C13.4305 21.9205 13.2545 21.9837 13.0714 21.9968C12.8884 22.0099 12.7052 21.9724 12.542 21.8883C12.3788 21.8043 12.242 21.6769 12.1463 21.5202C12.0507 21.3635 12.0001 21.1836 12 21V11C12.0001 10.8164 12.0507 10.6365 12.1463 10.4798C12.242 10.3231 12.3788 10.1957 12.542 10.1117C12.7052 10.0276 12.8884 9.99006 13.0714 10.0032C13.2545 10.0163 13.4305 10.0795 13.58 10.186L20.58 15.186C20.7096 15.2785 20.8153 15.4006 20.8882 15.5422C20.9611 15.6838 20.9991 15.8407 20.9991 16C20.9991 16.1593 20.9611 16.3162 20.8882 16.4578C20.8153 16.5994 20.7096 16.7215 20.58 16.814L13.58 21.814Z" fill="white"/>
</svg>
