<svg width="24" height="25" viewBox="0 0 24 25" fill="none" xmlns="http://www.w3.org/2000/svg">
<g clip-path="url(#clip0_229_1161)">
<path d="M20.4491 21.3015H16.8931V15.5004C16.8931 14.1171 16.8694 12.3364 15.0436 12.3364C13.1915 12.3364 12.9081 13.8436 12.9081 15.3998V21.3011H9.35213V9.37184H12.7658V11.0021H12.8137C13.1553 10.3936 13.649 9.89304 14.2421 9.55369C14.8353 9.21434 15.5057 9.04892 16.1819 9.07506C19.7861 9.07506 20.4506 11.5446 20.4506 14.7573L20.4491 21.3015ZM5.33963 7.74127C4.19991 7.74147 3.27581 6.77916 3.27563 5.59196C3.27544 4.40475 4.19916 3.44215 5.33888 3.44196C6.47859 3.44166 7.40269 4.40397 7.40288 5.59117C7.40297 6.16129 7.18566 6.70811 6.79872 7.11133C6.41179 7.51454 5.88694 7.74114 5.33963 7.74127ZM7.11769 21.3016H3.55791V9.37184H7.11759V21.3015L7.11769 21.3016ZM22.2219 0.00181952H1.77103C0.804469 -0.0095086 0.0118125 0.797034 0 1.80387V23.1958C0.0114375 24.2031 0.804 25.0104 1.77094 24.9999H22.2219C23.1909 25.0124 23.9866 24.205 24 23.1958V1.80221C23.9862 0.793421 23.1905 -0.0130242 22.2219 0.000159364" fill="#0A66C2"/>
</g>
<defs>
<clipPath id="clip0_229_1161">
<rect width="24" height="25" fill="white"/>
</clipPath>
</defs>
</svg>
