<svg width="32" height="32" viewBox="0 0 32 32" fill="none" xmlns="http://www.w3.org/2000/svg">
<path d="M27.5035 2.90918H4.50015C3.94694 2.90918 3.5 3.35612 3.5 3.90933V26.9127C3.5 27.4659 3.94694 27.9128 4.50015 27.9128H27.5035C28.0567 27.9128 28.5036 27.4659 28.5036 26.9127V3.90933C28.5036 3.35612 28.0567 2.90918 27.5035 2.90918ZM22.7309 11.9636C22.7403 12.1105 22.7403 12.2637 22.7403 12.4137C22.7403 17.0019 19.246 22.287 12.8607 22.287C10.8917 22.287 9.06643 21.715 7.52871 20.7305C7.81 20.7618 8.07879 20.7743 8.36633 20.7743C9.99157 20.7743 11.4855 20.2242 12.6763 19.2928C11.1511 19.2616 9.86968 18.2614 9.43211 16.8862C9.96657 16.9643 10.4479 16.9643 10.998 16.8237C10.2126 16.6641 9.50673 16.2376 9.00023 15.6166C8.49372 14.9956 8.21783 14.2183 8.21944 13.417V13.3732C8.67888 13.6326 9.21958 13.792 9.78529 13.8139C9.30973 13.497 8.91972 13.0676 8.64985 12.5638C8.37997 12.06 8.23857 11.4975 8.23819 10.926C8.23819 10.279 8.40696 9.68829 8.71013 9.17572C9.58183 10.2488 10.6696 11.1264 11.9027 11.7516C13.1358 12.3768 14.4866 12.7355 15.8674 12.8044C15.3767 10.4447 17.1395 8.535 19.2585 8.535C20.2587 8.535 21.1588 8.95381 21.7933 9.62891C22.5778 9.48201 23.3279 9.18822 23.9967 8.79441C23.7373 9.59765 23.1935 10.2759 22.4715 10.7041C23.1716 10.6291 23.8467 10.4353 24.4718 10.1634C23.9999 10.8572 23.4091 11.4729 22.7309 11.9636Z" fill="#1DA1F2"/>
</svg>
