<svg width="46" height="46" viewBox="0 0 46 46" fill="none" xmlns="http://www.w3.org/2000/svg">
<path d="M12.4997 19.8413L14.0177 20.056L12.4997 19.8413ZM12.4691 20.056L10.9511 19.8413L12.4691 20.056ZM33.5003 19.8413L35.0183 19.6267L33.5003 19.8413ZM33.5309 20.056L32.0129 20.2707L33.5309 20.056ZM29.1333 38.3333V39.8667C29.54 39.8667 29.93 39.7051 30.2176 39.4176C30.5051 39.13 30.6667 38.74 30.6667 38.3333H29.1333ZM16.8667 38.3333H15.3333C15.3333 38.74 15.4949 39.13 15.7824 39.4176C16.07 39.7051 16.46 39.8667 16.8667 39.8667V38.3333ZM14.582 28.0692L15.7964 27.1308L14.582 28.0692ZM31.418 28.0692L30.2036 27.1308L31.418 28.0692ZM18.4 46H27.6V42.9333H18.4V46ZM10.9787 19.6267L10.948 19.8413L13.984 20.2707L14.0147 20.056L10.9787 19.6267ZM23 9.2C20.0767 9.19951 17.2513 10.2538 15.0429 12.1693C12.8345 14.0847 11.3914 16.7326 10.9787 19.6267L14.0147 20.056C14.324 17.8936 15.403 15.9153 17.0536 14.4844C18.7042 13.0535 20.8155 12.2661 23 12.2667V9.2ZM35.0213 19.6267C34.6086 16.7326 33.1654 14.0847 30.9571 12.1693C28.7487 10.2538 25.9233 9.19951 23 9.2V12.2667C25.1843 12.2667 27.2953 13.0544 28.9458 14.4851C30.5962 15.9159 31.6754 17.8938 31.9853 20.056L35.0213 19.6267ZM35.052 19.8413L35.0213 19.6267L31.9853 20.056L32.016 20.2707L35.052 19.8413ZM32.6293 29.0076C34.5613 26.5113 35.5365 23.2576 35.052 19.8383L32.016 20.2737C32.1916 21.4796 32.1219 22.7086 31.811 23.8869C31.5001 25.0652 30.9544 26.1685 30.2067 27.1308L32.6293 29.0076ZM27.6 33.4267V38.3333H30.6667V33.4297H27.6V33.4267ZM29.1333 36.8H16.8667V39.8667H29.1333V36.8ZM18.4 38.3333V33.4297H15.3333V38.3333H18.4ZM10.948 19.8413C10.7149 21.4536 10.8093 23.0963 11.2255 24.6713C11.6418 26.2462 12.3714 27.7211 13.3707 29.0076L15.7933 27.1308C15.0456 26.1685 14.4999 25.0652 14.189 23.8869C13.8781 22.7086 13.8084 21.4796 13.984 20.2737L10.948 19.8383V19.8413ZM18.4 33.4267C18.4 30.9028 17.0568 28.7561 15.7933 27.1277L13.3707 29.0045C14.5452 30.5225 15.3333 31.9731 15.3333 33.4267H18.4ZM30.2067 27.1277C28.9401 28.7592 27.6 30.9028 27.6 33.4267H30.6667C30.6667 31.9731 31.4548 30.5225 32.6293 29.0045L30.2067 27.1277ZM21.4667 0V6.13333H24.5333V0H21.4667ZM0 24.5333H6.13333V21.4667H0V24.5333ZM39.8667 24.5333H46V21.4667H39.8667V24.5333ZM10.2856 11.1811L5.6856 6.58107L3.5144 8.75227L8.1144 13.3523L10.2856 11.1811ZM37.8856 13.3523L42.4856 8.75227L40.3144 6.58107L35.7144 11.1811L37.8856 13.3523Z" fill="#F08200"/>
</svg>
