<svg width="331" height="306" viewBox="0 0 331 306" fill="none" xmlns="http://www.w3.org/2000/svg">
<ellipse cx="181" cy="295" rx="150" ry="11" fill="#F5F5F5"/>
<path d="M293.039 180.323L293.811 227.78L262.174 202.147L291.231 180.354L293.039 180.323Z" fill="url(#paint0_linear_637_741)"/>
<path d="M290.937 180.323L262.397 203.174L253.288 203.332L224.066 181.488L290.937 180.323Z" fill="url(#paint1_linear_637_741)"/>
<path d="M293.812 228.089L222.627 229.218L253.192 203.478L262.399 203.333L293.812 228.089Z" fill="url(#paint2_linear_637_741)"/>
<path d="M252.827 201.775L221.967 229.218L221.189 180.352L223.001 180.323L252.827 201.775Z" fill="url(#paint3_linear_637_741)"/>
<path d="M293.775 179.633L293.812 181.975L221.226 183.2L221.189 180.861L257.053 153L293.775 179.633Z" fill="url(#paint4_linear_637_741)"/>
<circle cx="181.316" cy="134.603" r="109.903" transform="rotate(75 181.316 134.603)" fill="url(#paint5_linear_637_741)" fill-opacity="0.25"/>
<path d="M0.000888775 35L35.8507 94.9539L48.2877 79.2884L55.1777 70.6071L0.000888775 35Z" fill="url(#paint6_linear_637_741)"/>
<path d="M0.000337663 35L64.9923 59.1207L81.6875 52.7228L0.000337663 35Z" fill="url(#paint7_linear_637_741)"/>
<path d="M0.000823263 35L55.1777 70.6071L66.6191 84.3595L64.9927 59.1207L0.000823263 35Z" fill="url(#paint8_linear_637_741)"/>
<path d="M48.2857 79.2887L66.6172 84.3598L55.1757 70.6074L48.2857 79.2887Z" fill="url(#paint9_linear_637_741)"/>
<path d="M70.8316 88.1287L72.9336 86.3895C72.0021 85.2441 71.5043 84.5856 71.4994 84.5782L69.3333 86.2404C69.3531 86.2652 69.8656 86.9386 70.8316 88.1287Z" fill="url(#paint10_linear_637_741)"/>
<path d="M180.171 194.17C181.318 192.943 182.369 191.629 183.315 190.239L181.073 188.686C180.205 189.959 179.242 191.162 178.192 192.286L180.171 194.17ZM185.826 185.871C186.554 184.352 187.163 182.779 187.65 181.165L185.045 180.368C184.599 181.846 184.042 183.287 183.377 184.678L185.826 185.871ZM188.724 176.226C188.906 174.868 188.999 173.499 189 172.129C189 171.806 189 171.485 188.985 171.164L186.275 171.254C186.275 171.545 186.287 171.835 186.287 172.129C186.288 173.375 186.206 174.62 186.04 175.855L188.724 176.226ZM185.72 166.687L188.377 166.123C188.028 164.463 187.533 162.837 186.898 161.266L184.375 162.294C184.952 163.715 185.403 165.185 185.72 166.687V166.687ZM182.319 158.202L184.626 156.746C183.737 155.316 182.734 153.961 181.627 152.694L179.582 154.503C180.592 155.659 181.507 156.897 182.319 158.202V158.202ZM176.299 151.245L178.064 149.156C176.797 148.079 175.466 147.084 174.077 146.174L172.598 148.472C173.889 149.321 175.126 150.25 176.302 151.255L176.299 151.245ZM168.557 146.119L169.789 143.672C168.367 142.944 166.856 142.258 165.296 141.635L164.291 144.186C165.777 144.79 167.211 145.439 168.557 146.129V146.119ZM159.865 142.621L160.666 140.005C159.153 139.535 157.564 139.1 155.942 138.715L155.319 141.386C156.881 141.761 158.409 142.179 159.865 142.631V142.621ZM150.688 140.425L151.166 137.734C149.634 137.458 148.076 137.135 146.536 136.772L145.915 139.443C147.5 139.818 149.106 140.151 150.688 140.435V140.425ZM141.204 138.189L141.96 135.552C140.467 135.118 138.951 134.633 137.45 134.114L136.566 136.71C138.106 137.254 139.668 137.754 141.204 138.201V138.189ZM132.007 135.036L133.01 132.484C131.558 131.905 130.087 131.281 128.636 130.628L127.525 133.132C129.013 133.793 130.521 134.432 132.007 135.036ZM123.136 131.04L124.348 128.583C122.948 127.882 121.532 127.137 120.132 126.369L118.828 128.777C120.25 129.552 121.699 130.315 123.128 131.028L123.136 131.04ZM114.609 126.352L115.999 123.994C114.654 123.186 113.289 122.337 111.951 121.472L110.472 123.783C111.84 124.652 113.217 125.517 114.602 126.339L114.609 126.352ZM106.443 121.074L107.986 118.813C106.694 117.919 105.386 116.982 104.102 116.031L102.49 118.242C103.791 119.199 105.12 120.15 106.436 121.062L106.443 121.074ZM98.6264 115.293L100.3 113.129C99.0674 112.155 97.8132 111.141 96.581 110.117L94.8561 112.232C96.0907 113.263 97.3622 114.291 98.619 115.28L98.6264 115.293ZM91.1548 109.081L92.9463 107.012C91.756 105.965 90.5609 104.887 89.3904 103.801L87.5496 105.821C88.7275 106.9 89.9424 107.995 91.1474 109.059L91.1548 109.081ZM84.0282 102.47L85.9207 100.497C84.7798 99.3837 83.6413 98.2433 82.5349 97.1053L80.5906 99.0284C81.7069 100.159 82.8626 101.317 84.0208 102.447L84.0282 102.47ZM77.2392 95.4754L79.2303 93.6045C78.1337 92.4168 77.0544 91.2168 76.0268 90.0391L73.9839 91.8504C75.0214 93.0455 76.1204 94.2679 77.2392 95.4754Z" fill="url(#paint11_linear_637_741)"/>
<path d="M174.41 198.998C175.095 198.558 175.772 198.078 176.428 197.574L174.777 195.393C174.183 195.85 173.564 196.285 172.943 196.687L174.41 198.998Z" fill="url(#paint12_linear_637_741)"/>
<path d="M190.494 228.988C235.502 228.988 271.988 192.502 271.988 147.494C271.988 102.486 235.502 66 190.494 66C145.486 66 109 102.486 109 147.494C109 192.502 145.486 228.988 190.494 228.988Z" fill="#F58220"/>
<path d="M190.494 212.604C177.616 212.604 165.027 208.786 154.32 201.631C143.613 194.477 135.267 184.308 130.339 172.41C125.411 160.513 124.122 147.421 126.634 134.791C129.146 122.161 135.347 110.559 144.453 101.453C153.559 92.3474 165.161 86.1462 177.791 83.6339C190.421 81.1216 203.513 82.411 215.41 87.3391C227.308 92.2672 237.477 100.613 244.631 111.32C251.786 122.027 255.604 134.616 255.604 147.494C255.586 164.756 248.72 181.307 236.513 193.513C224.307 205.72 207.756 212.586 190.494 212.604ZM190.494 88.7555C178.89 88.7671 167.551 92.2184 157.909 98.6732C148.267 105.128 140.755 114.297 136.323 125.02C131.89 135.743 130.737 147.54 133.007 158.919C135.278 170.298 140.872 180.748 149.08 188.948C157.289 197.149 167.745 202.732 179.126 204.991C190.507 207.251 202.303 206.085 213.022 201.642C223.74 197.199 232.901 189.678 239.347 180.029C245.792 170.381 249.232 159.038 249.232 147.435C249.198 131.873 242.996 116.958 231.987 105.959C220.977 94.9604 206.056 88.7741 190.494 88.7555Z" fill="white" stroke="#E1A031" stroke-width="1.08" stroke-miterlimit="10"/>
<path d="M216.324 116.57H169.252L165.531 122.438H182.83C182.83 122.438 190.048 123.53 190.928 130.536H167.937L164.217 137.894L193.557 137.977C193.557 137.977 189.613 153.304 166.4 150.452L166.623 157.493L193.557 189.028H206.255L179.098 155.745C179.098 155.745 201.772 156.59 203.743 137.988H213.543L217.416 131.017H203.837C203.837 131.017 202.969 123.354 199.025 121.628H212.815L216.324 116.57Z" fill="white"/>
<path d="M188.651 77.243C189.159 77.243 189.645 77.0415 190.004 76.6827C190.363 76.324 190.564 75.8374 190.564 75.3301C190.564 74.8227 190.363 74.3362 190.004 73.9774C189.645 73.6187 189.159 73.4171 188.651 73.4171C188.144 73.4171 187.657 73.6187 187.299 73.9774C186.94 74.3362 186.738 74.8227 186.738 75.3301C186.738 75.8374 186.94 76.324 187.299 76.6827C187.657 77.0415 188.144 77.243 188.651 77.243Z" fill="white"/>
<path d="M165.027 82.278C165.507 82.2404 165.955 82.0231 166.282 81.6696C166.609 81.3161 166.79 80.8524 166.79 80.371C166.79 79.8895 166.609 79.4258 166.282 79.0723C165.955 78.7188 165.507 78.5015 165.027 78.4639C164.547 78.5015 164.099 78.7188 163.772 79.0723C163.445 79.4258 163.264 79.8895 163.264 80.371C163.264 80.8524 163.445 81.3161 163.772 81.6696C164.099 82.0231 164.547 82.2404 165.027 82.278V82.278Z" fill="white"/>
<path d="M146.437 93.615C146.917 93.5773 147.365 93.36 147.692 93.0065C148.019 92.653 148.2 92.1893 148.2 91.7079C148.2 91.2264 148.019 90.7627 147.692 90.4092C147.365 90.0557 146.917 89.8385 146.437 89.8008C145.957 89.8385 145.509 90.0557 145.182 90.4092C144.855 90.7627 144.674 91.2264 144.674 91.7079C144.674 92.1893 144.855 92.653 145.182 93.0065C145.509 93.36 145.957 93.5773 146.437 93.615V93.615Z" fill="white"/>
<path d="M130.161 109.751L130.478 109.435C130.813 109.063 131.008 108.585 131.029 108.085C131.04 107.828 130.983 107.574 130.865 107.346C130.789 107.113 130.656 106.903 130.478 106.735L130.09 106.442C129.794 106.271 129.458 106.178 129.116 106.172L128.612 106.242C128.294 106.336 128.004 106.505 127.767 106.735L127.461 107.052C127.276 107.216 127.139 107.427 127.062 107.662C126.954 107.894 126.898 108.146 126.898 108.402C126.898 108.657 126.954 108.91 127.062 109.141C127.139 109.377 127.276 109.587 127.461 109.751L127.849 110.045C128.138 110.222 128.471 110.316 128.811 110.315L129.316 110.244C129.633 110.151 129.923 109.981 130.161 109.751Z" fill="white"/>
<path d="M122.286 131.169L122.602 130.853C122.78 130.685 122.913 130.475 122.99 130.242C123.098 130.011 123.154 129.758 123.154 129.503C123.154 129.248 123.098 128.995 122.99 128.764C122.913 128.531 122.78 128.321 122.602 128.153L122.215 127.86C121.924 127.685 121.592 127.592 121.253 127.59L120.736 127.66C120.419 127.754 120.129 127.923 119.891 128.153L119.586 128.47C119.405 128.637 119.268 128.847 119.187 129.08C119.068 129.308 119.011 129.563 119.023 129.82C119.041 130.323 119.241 130.803 119.586 131.169L119.974 131.463C120.265 131.635 120.597 131.728 120.936 131.733L121.441 131.662C121.759 131.571 122.049 131.402 122.286 131.169V131.169Z" fill="white"/>
<path d="M118.999 152.834H119.316C119.569 152.845 119.82 152.789 120.043 152.669C120.28 152.589 120.494 152.452 120.665 152.27C120.843 152.102 120.977 151.893 121.053 151.66C121.171 151.432 121.227 151.177 121.217 150.921L121.147 150.416C121.067 150.096 120.9 149.803 120.665 149.571L120.278 149.266C119.984 149.1 119.653 149.012 119.316 149.008H118.999C118.496 149.026 118.016 149.226 117.649 149.571C117.304 149.938 117.104 150.417 117.086 150.921L117.156 151.425C117.24 151.747 117.411 152.039 117.649 152.27L118.037 152.564C118.326 152.741 118.659 152.835 118.999 152.834V152.834Z" fill="white"/>
<path d="M123.141 174.874H123.446C123.703 174.886 123.958 174.829 124.186 174.709C124.42 174.636 124.63 174.502 124.796 174.322C125.136 173.952 125.335 173.474 125.359 172.972L125.289 172.456C125.207 172.137 125.036 171.848 124.796 171.623L124.42 171.318C124.125 171.145 123.788 171.056 123.446 171.059H123.141C122.885 171.047 122.629 171.104 122.402 171.224C122.173 171.313 121.966 171.449 121.792 171.623C121.618 171.797 121.482 172.004 121.393 172.233C121.272 172.46 121.216 172.716 121.228 172.972L121.299 173.477C121.383 173.798 121.554 174.09 121.792 174.322L122.167 174.615C122.462 174.788 122.799 174.877 123.141 174.874V174.874Z" fill="white"/>
<path d="M132.895 192.513H133.212C133.468 192.526 133.724 192.469 133.951 192.349C134.188 192.275 134.399 192.137 134.561 191.95C134.907 191.583 135.107 191.103 135.125 190.6L135.054 190.095C134.965 189.776 134.795 189.485 134.561 189.25L134.174 188.957C133.884 188.783 133.55 188.694 133.212 188.699H132.895C132.642 188.687 132.391 188.744 132.167 188.863C131.929 188.935 131.714 189.068 131.545 189.25C131.367 189.423 131.234 189.636 131.158 189.872C131.039 190.096 130.982 190.347 130.994 190.6L131.064 191.116C131.147 191.432 131.313 191.72 131.545 191.95L131.933 192.255C132.224 192.426 132.557 192.515 132.895 192.513V192.513Z" fill="white"/>
<path d="M145.181 207.312H145.498C145.998 207.291 146.476 207.096 146.848 206.76C147.032 206.591 147.169 206.377 147.247 206.138C147.366 205.915 147.423 205.664 147.411 205.411L147.34 204.894C147.249 204.58 147.079 204.293 146.848 204.061L146.46 203.756C146.167 203.589 145.836 203.5 145.498 203.498H145.181C144.678 203.516 144.198 203.716 143.831 204.061C143.648 204.226 143.51 204.437 143.432 204.671C143.318 204.901 143.261 205.155 143.268 205.411L143.339 205.915C143.43 206.234 143.599 206.524 143.831 206.76L144.219 207.054C144.51 207.226 144.843 207.315 145.181 207.312Z" fill="white"/>
<path d="M162.505 216.137C163.012 216.137 163.499 215.936 163.857 215.577C164.216 215.218 164.418 214.732 164.418 214.224C164.418 213.717 164.216 213.231 163.857 212.872C163.499 212.513 163.012 212.312 162.505 212.312C161.997 212.312 161.511 212.513 161.152 212.872C160.793 213.231 160.592 213.717 160.592 214.224C160.592 214.732 160.793 215.218 161.152 215.577C161.511 215.936 161.997 216.137 162.505 216.137V216.137Z" fill="white"/>
<path d="M178.571 220.551C179.078 220.551 179.565 220.349 179.924 219.99C180.283 219.631 180.484 219.145 180.484 218.638C180.484 218.13 180.283 217.644 179.924 217.285C179.565 216.926 179.078 216.725 178.571 216.725C178.064 216.725 177.577 216.926 177.218 217.285C176.86 217.644 176.658 218.13 176.658 218.638C176.658 219.145 176.86 219.631 177.218 219.99C177.577 220.349 178.064 220.551 178.571 220.551Z" fill="white"/>
<path d="M200.927 219.6C201.407 219.562 201.855 219.345 202.182 218.991C202.509 218.638 202.691 218.174 202.691 217.692C202.691 217.211 202.509 216.747 202.182 216.394C201.855 216.04 201.407 215.823 200.927 215.785C200.447 215.823 199.999 216.04 199.672 216.394C199.346 216.747 199.164 217.211 199.164 217.692C199.164 218.174 199.346 218.638 199.672 218.991C199.999 219.345 200.447 219.562 200.927 219.6V219.6Z" fill="white"/>
<path d="M219.517 213.614C219.997 213.576 220.445 213.359 220.772 213.006C221.099 212.652 221.28 212.188 221.28 211.707C221.28 211.225 221.099 210.762 220.772 210.408C220.445 210.055 219.997 209.837 219.517 209.8C219.037 209.837 218.589 210.055 218.262 210.408C217.935 210.762 217.754 211.225 217.754 211.707C217.754 212.188 217.935 212.652 218.262 213.006C218.589 213.359 219.037 213.576 219.517 213.614V213.614Z" fill="white"/>
<path d="M239.057 200.998V200.881L238.987 201.386C238.987 201.386 238.987 201.386 238.987 201.315L238.799 201.773L238.494 202.16L238.106 202.453L237.649 202.653H237.719L237.215 202.723H237.332C237.835 202.705 238.315 202.505 238.682 202.16C238.863 201.993 239 201.783 239.081 201.55C239.2 201.322 239.256 201.067 239.245 200.81L239.174 200.306C239.095 199.982 238.924 199.689 238.682 199.461L238.294 199.167C238.002 198.995 237.671 198.902 237.332 198.897H237.238L236.71 198.968H236.651L236.182 199.167L235.794 199.473C235.679 199.601 235.573 199.739 235.478 199.883V199.883L235.278 200.329C235.278 200.47 235.219 200.705 235.208 200.846C235.202 200.873 235.202 200.901 235.208 200.928C235.197 201.184 235.254 201.439 235.372 201.667C235.448 201.9 235.581 202.109 235.759 202.277C235.931 202.459 236.145 202.596 236.381 202.676C236.609 202.797 236.864 202.853 237.121 202.841L237.625 202.77C237.943 202.676 238.232 202.507 238.47 202.277L238.764 201.89C238.936 201.599 239.025 201.266 239.022 200.928L239.057 200.998Z" fill="white"/>
<path d="M250.687 188.1C251.167 188.063 251.615 187.845 251.942 187.492C252.269 187.138 252.45 186.675 252.45 186.193C252.45 185.712 252.269 185.248 251.942 184.895C251.615 184.541 251.167 184.324 250.687 184.286C250.207 184.324 249.759 184.541 249.432 184.895C249.105 185.248 248.924 185.712 248.924 186.193C248.924 186.675 249.105 187.138 249.432 187.492C249.759 187.845 250.207 188.063 250.687 188.1V188.1Z" fill="white"/>
<path d="M259.829 167.95C260.336 167.95 260.823 167.748 261.182 167.389C261.54 167.031 261.742 166.544 261.742 166.037C261.742 165.529 261.54 165.043 261.182 164.684C260.823 164.325 260.336 164.124 259.829 164.124C259.322 164.124 258.835 164.325 258.476 164.684C258.118 165.043 257.916 165.529 257.916 166.037C257.916 166.544 258.118 167.031 258.476 167.389C258.835 167.748 259.322 167.95 259.829 167.95Z" fill="white"/>
<path d="M262.341 144.009C262.821 143.971 263.269 143.754 263.596 143.4C263.923 143.047 264.105 142.583 264.105 142.101C264.105 141.62 263.923 141.156 263.596 140.803C263.269 140.449 262.821 140.232 262.341 140.194C261.861 140.232 261.413 140.449 261.086 140.803C260.76 141.156 260.578 141.62 260.578 142.101C260.578 142.583 260.76 143.047 261.086 143.4C261.413 143.754 261.861 143.971 262.341 144.009V144.009Z" fill="white"/>
<path d="M256.989 121.969C257.496 121.969 257.983 121.767 258.342 121.408C258.701 121.05 258.902 120.563 258.902 120.056C258.902 119.548 258.701 119.062 258.342 118.703C257.983 118.344 257.496 118.143 256.989 118.143C256.482 118.143 255.995 118.344 255.636 118.703C255.278 119.062 255.076 119.548 255.076 120.056C255.076 120.563 255.278 121.05 255.636 121.408C255.995 121.767 256.482 121.969 256.989 121.969Z" fill="white"/>
<path d="M247.226 104.013C247.706 103.975 248.154 103.758 248.481 103.404C248.808 103.051 248.989 102.587 248.989 102.106C248.989 101.624 248.808 101.16 248.481 100.807C248.154 100.453 247.706 100.236 247.226 100.198C246.746 100.236 246.298 100.453 245.971 100.807C245.644 101.16 245.463 101.624 245.463 102.106C245.463 102.587 245.644 103.051 245.971 103.404C246.298 103.758 246.746 103.975 247.226 104.013V104.013Z" fill="white"/>
<path d="M230.489 89.284L230.806 89.5892C230.97 89.7743 231.181 89.9121 231.416 89.9882C231.644 90.1062 231.899 90.1628 232.156 90.1525C232.412 90.1639 232.667 90.1072 232.895 89.9882C233.13 89.9121 233.341 89.7743 233.505 89.5892L233.81 89.2136C233.977 88.916 234.066 88.5808 234.069 88.2395L233.998 87.7349C233.904 87.4176 233.735 87.1278 233.505 86.8899L233.188 86.5848C233.026 86.3974 232.815 86.2591 232.578 86.1858C232.351 86.0656 232.096 86.0088 231.839 86.0214C231.586 86.0098 231.335 86.0666 231.111 86.1858C230.871 86.2589 230.656 86.397 230.489 86.5848L230.196 86.9603C230.023 87.2557 229.934 87.5923 229.938 87.9344L229.996 88.439C230.09 88.7563 230.259 89.0462 230.489 89.284Z" fill="white"/>
<path d="M210.691 80.7048C211.171 80.6671 211.619 80.4499 211.946 80.0964C212.273 79.7429 212.454 79.2791 212.454 78.7977C212.454 78.3163 212.273 77.8525 211.946 77.4991C211.619 77.1456 211.171 76.9283 210.691 76.8906C210.211 76.9283 209.763 77.1456 209.436 77.4991C209.109 77.8525 208.928 78.3163 208.928 78.7977C208.928 79.2791 209.109 79.7429 209.436 80.0964C209.763 80.4499 210.211 80.6671 210.691 80.7048Z" fill="white"/>
<path d="M245.579 27.8569L239.072 60.4919C238.962 61.1254 238.978 61.7745 239.12 62.4018C239.263 63.0292 239.528 63.6225 239.901 64.1479C240.275 64.6734 240.749 65.1205 241.297 65.4639C241.844 65.8073 242.455 66.0401 243.093 66.149L303.474 78L310.931 40.6826C311.148 39.4026 310.849 38.0892 310.097 37.0268C309.346 35.9645 308.203 35.2388 306.916 35.007L251.489 24.1246C250.854 23.9793 250.196 23.9609 249.553 24.0704C248.911 24.1799 248.297 24.4152 247.747 24.7625C247.197 25.1099 246.722 25.5623 246.35 26.0936C245.978 26.6248 245.716 27.2242 245.579 27.8569V27.8569Z" fill="#043B72"/>
<path d="M278.588 37.0039L257.771 32.9014L257.085 36.3578L277.901 40.4603L278.588 37.0039Z" fill="url(#paint13_linear_637_741)"/>
<path d="M282.731 46.1308L256.178 40.8975L255.491 44.3539L282.045 49.5872L282.731 46.1308Z" fill="url(#paint14_linear_637_741)"/>
<path d="M294.755 56.811L254.592 48.8955L253.905 52.3519L294.068 60.2674L294.755 56.811Z" fill="url(#paint15_linear_637_741)"/>
<path d="M257.331 57.2419L253.105 56.4092L252.419 59.8656L256.645 60.6983L257.331 57.2419Z" fill="url(#paint16_linear_637_741)"/>
<path d="M265.62 58.8757L261.395 58.043L260.708 61.4994L264.934 62.3321L265.62 58.8757Z" fill="url(#paint17_linear_637_741)"/>
<path d="M273.921 60.5095L269.695 59.6768L269.009 63.1332L273.234 63.9659L273.921 60.5095Z" fill="url(#paint18_linear_637_741)"/>
<path d="M290.29 75L288 86.5258L303.5 77.5L290.29 75Z" fill="#0E345A"/>
<defs>
<linearGradient id="paint0_linear_637_741" x1="277.609" y1="191.283" x2="280.794" y2="241.934" gradientUnits="userSpaceOnUse">
<stop stop-color="#FFD571"/>
<stop offset="0.25" stop-color="#FFBD60"/>
<stop offset="0.78" stop-color="#FF8035"/>
<stop offset="1" stop-color="#FF6421"/>
</linearGradient>
<linearGradient id="paint1_linear_637_741" x1="257.565" y1="174.595" x2="257.118" y2="214.218" gradientUnits="userSpaceOnUse">
<stop stop-color="#FFD571"/>
<stop offset="0.25" stop-color="#FFBD60"/>
<stop offset="0.78" stop-color="#FF8035"/>
<stop offset="1" stop-color="#FF6421"/>
</linearGradient>
<linearGradient id="paint2_linear_637_741" x1="260.071" y1="201.8" x2="257.579" y2="239.974" gradientUnits="userSpaceOnUse">
<stop stop-color="#FFD571"/>
<stop offset="0.25" stop-color="#FFBD60"/>
<stop offset="0.78" stop-color="#FF8035"/>
<stop offset="1" stop-color="#FF6421"/>
</linearGradient>
<linearGradient id="paint3_linear_637_741" x1="237.482" y1="181.263" x2="234.256" y2="244.47" gradientUnits="userSpaceOnUse">
<stop stop-color="#FFD571"/>
<stop offset="0.25" stop-color="#FFBD60"/>
<stop offset="0.78" stop-color="#FF8035"/>
<stop offset="1" stop-color="#FF6421"/>
</linearGradient>
<linearGradient id="paint4_linear_637_741" x1="257.361" y1="186.398" x2="258.369" y2="152.917" gradientUnits="userSpaceOnUse">
<stop stop-color="#FFC05B"/>
<stop offset="0.56" stop-color="#FFD980"/>
<stop offset="1" stop-color="#FFE999"/>
</linearGradient>
<linearGradient id="paint5_linear_637_741" x1="64.9053" y1="131.054" x2="177.089" y2="131.054" gradientUnits="userSpaceOnUse">
<stop stop-color="#F58220" stop-opacity="0.8"/>
<stop offset="1" stop-color="#F58220" stop-opacity="0"/>
</linearGradient>
<linearGradient id="paint6_linear_637_741" x1="51.9928" y1="56.8838" x2="7.53782" y2="67.2494" gradientUnits="userSpaceOnUse">
<stop stop-color="#FFC05B"/>
<stop offset="0.56" stop-color="#FFD980"/>
<stop offset="1" stop-color="#FFE999"/>
</linearGradient>
<linearGradient id="paint7_linear_637_741" x1="71.6121" y1="37.7713" x2="-1.93925" y2="54.9214" gradientUnits="userSpaceOnUse">
<stop stop-color="#FFC05B"/>
<stop offset="0.56" stop-color="#FFD980"/>
<stop offset="1" stop-color="#FFE999"/>
</linearGradient>
<linearGradient id="paint8_linear_637_741" x1="38.9965" y1="49.7038" x2="32.1261" y2="61.5944" gradientUnits="userSpaceOnUse">
<stop stop-color="#FFD571"/>
<stop offset="0.25" stop-color="#FFBD60"/>
<stop offset="0.78" stop-color="#FF8035"/>
<stop offset="1" stop-color="#FF6421"/>
</linearGradient>
<linearGradient id="paint9_linear_637_741" x1="64.806" y1="76.5393" x2="48.5447" y2="80.331" gradientUnits="userSpaceOnUse">
<stop stop-color="#FFD571"/>
<stop offset="0.25" stop-color="#FFBD60"/>
<stop offset="0.78" stop-color="#FF8035"/>
<stop offset="1" stop-color="#FF6421"/>
</linearGradient>
<linearGradient id="paint10_linear_637_741" x1="71.3737" y1="86.5932" x2="170.664" y2="202.536" gradientUnits="userSpaceOnUse">
<stop stop-color="#FFD571"/>
<stop offset="0.25" stop-color="#FFBD60"/>
<stop offset="0.78" stop-color="#FF8035"/>
<stop offset="1" stop-color="#FF6421"/>
</linearGradient>
<linearGradient id="paint11_linear_637_741" x1="86.697" y1="73.4716" x2="185.99" y2="189.414" gradientUnits="userSpaceOnUse">
<stop stop-color="#FFD571"/>
<stop offset="0.25" stop-color="#FFBD60"/>
<stop offset="0.78" stop-color="#FF8035"/>
<stop offset="1" stop-color="#FF6421"/>
</linearGradient>
<linearGradient id="paint12_linear_637_741" x1="77.2123" y1="81.5943" x2="176.503" y2="197.537" gradientUnits="userSpaceOnUse">
<stop stop-color="#FFD571"/>
<stop offset="0.25" stop-color="#FFBD60"/>
<stop offset="0.78" stop-color="#FF8035"/>
<stop offset="1" stop-color="#FF6421"/>
</linearGradient>
<linearGradient id="paint13_linear_637_741" x1="257.423" y1="34.6253" x2="278.233" y2="38.7575" gradientUnits="userSpaceOnUse">
<stop stop-color="white"/>
<stop offset="0.37" stop-color="#F2F2FF"/>
<stop offset="1" stop-color="#D2D2FF"/>
</linearGradient>
<linearGradient id="paint14_linear_637_741" x1="255.834" y1="42.6287" x2="282.38" y2="47.8999" gradientUnits="userSpaceOnUse">
<stop stop-color="white"/>
<stop offset="0.37" stop-color="#F2F2FF"/>
<stop offset="1" stop-color="#D2D2FF"/>
</linearGradient>
<linearGradient id="paint15_linear_637_741" x1="254.248" y1="50.6267" x2="294.4" y2="58.5995" gradientUnits="userSpaceOnUse">
<stop stop-color="white"/>
<stop offset="0.37" stop-color="#F2F2FF"/>
<stop offset="1" stop-color="#D2D2FF"/>
</linearGradient>
<linearGradient id="paint16_linear_637_741" x1="252.762" y1="58.1404" x2="256.986" y2="58.9792" gradientUnits="userSpaceOnUse">
<stop stop-color="white"/>
<stop offset="0.37" stop-color="#F2F2FF"/>
<stop offset="1" stop-color="#D2D2FF"/>
</linearGradient>
<linearGradient id="paint17_linear_637_741" x1="261.045" y1="59.773" x2="265.269" y2="60.6118" gradientUnits="userSpaceOnUse">
<stop stop-color="white"/>
<stop offset="0.37" stop-color="#F2F2FF"/>
<stop offset="1" stop-color="#D2D2FF"/>
</linearGradient>
<linearGradient id="paint18_linear_637_741" x1="269.352" y1="61.408" x2="273.576" y2="62.2468" gradientUnits="userSpaceOnUse">
<stop stop-color="white"/>
<stop offset="0.37" stop-color="#F2F2FF"/>
<stop offset="1" stop-color="#D2D2FF"/>
</linearGradient>
</defs>
</svg>
