<svg width="98" height="98" viewBox="0 0 98 98" fill="none" xmlns="http://www.w3.org/2000/svg">
<circle cx="49" cy="49" r="48" fill="white" stroke="#F58220" stroke-width="2"/>
<g clip-path="url(#clip0_637_742)">
<path d="M23.5234 69.8887H32.7656C32.9657 69.8889 33.1639 69.8488 33.3488 69.7707C33.5337 69.6926 33.7018 69.578 33.8433 69.4335C33.9848 69.289 34.097 69.1175 34.1735 68.9286C34.25 68.7398 34.2892 68.5374 34.2891 68.3331V67.5034L42.1649 71.5246C43.9462 72.4355 45.9008 72.9383 47.8922 72.998C49.8835 73.0578 51.8637 72.6729 53.6943 71.8703L71.224 64.2373C72.3112 63.7673 73.1776 62.8851 73.641 61.7763C74.1043 60.6674 74.1285 59.4182 73.7085 58.2915C73.2884 57.1648 72.4568 56.2483 71.3886 55.7348C70.3204 55.2213 69.0988 55.1509 67.9807 55.5382L58.6505 58.6868C58.5955 57.8752 58.3345 57.0923 57.893 56.4151C57.4516 55.7379 56.8451 55.1897 56.1331 54.8247L43.4988 48.3754C41.7951 47.5035 39.8328 47.317 38.0008 47.8527L34.2308 48.9589C34.064 47.8583 33.5178 46.8547 32.6905 46.1289C31.8633 45.403 30.8094 45.0027 29.7188 45H23.5234C23.3233 44.9998 23.1251 45.0399 22.9402 45.118C22.7553 45.1962 22.5873 45.3107 22.4458 45.4552C22.3043 45.5997 22.1921 45.7713 22.1156 45.9601C22.0391 46.1489 21.9998 46.3513 22 46.5556V68.3331C21.9998 68.5374 22.0391 68.7398 22.1156 68.9286C22.1921 69.1175 22.3043 69.289 22.4458 69.4335C22.5873 69.578 22.7553 69.6926 22.9402 69.7707C23.1251 69.8488 23.3233 69.8889 23.5234 69.8887V69.8887ZM38.8418 50.845C39.9403 50.5217 41.1177 50.6318 42.1405 51.1534L54.7749 57.6041C55.1364 57.7887 55.4112 58.1125 55.539 58.504C55.6667 58.8956 55.6369 59.323 55.456 59.6921C55.2752 60.0612 54.9582 60.3419 54.5747 60.4723C54.1912 60.6027 53.7727 60.5723 53.4112 60.3876L45.874 56.5462C44.935 56.0709 43.8651 55.9381 42.842 56.1698C41.8189 56.4015 40.9042 56.9837 40.2501 57.8198C40.1256 57.9798 40.0332 58.1632 39.9782 58.3597C39.9231 58.5561 39.9065 58.7617 39.9293 58.9647C39.9752 59.3747 40.1788 59.7493 40.4952 60.006C40.8116 60.2627 41.2149 60.3805 41.6164 60.3336C41.8152 60.3104 42.0076 60.2474 42.1826 60.1482C42.3575 60.049 42.5117 59.9157 42.6361 59.7557C42.8544 59.4771 43.1595 59.2831 43.5006 59.2058C43.8418 59.1286 44.1985 59.1728 44.5117 59.3312L52.049 63.1795C52.8696 63.5985 53.7946 63.7557 54.7039 63.6307C55.6132 63.5057 56.4646 63.1042 57.1474 62.4784L68.9449 58.496C69.3056 58.3748 69.6975 58.3941 70.0452 58.55C70.3929 58.706 70.6719 58.9876 70.8285 59.3409C70.9873 59.7196 70.9926 60.1471 70.843 60.5298C70.6935 60.9124 70.4014 61.2188 70.0309 61.3818L52.4945 69.0051C51.071 69.6307 49.5308 69.9309 47.9818 69.8846C46.4327 69.8382 44.9123 69.4465 43.5272 68.7369L34.2877 64.0202V52.1725L38.8418 50.845ZM25.0469 48.1113H29.7188C30.1226 48.1116 30.5097 48.2757 30.7951 48.5674C31.0805 48.8591 31.2408 49.2546 31.2408 49.6669V66.7789H25.0469V48.1113Z" fill="#F58220"/>
</g>
<path d="M54.4994 44.5837C61.173 44.5837 66.5827 39.174 66.5827 32.5003C66.5827 25.8267 61.173 20.417 54.4994 20.417C47.8257 20.417 42.416 25.8267 42.416 32.5003C42.416 39.174 47.8257 44.5837 54.4994 44.5837Z" stroke="#F58220" stroke-width="2" stroke-linecap="round" stroke-linejoin="round"/>
<path d="M55.7074 38.5423L49.6621 33.709H53.2907C54.4991 33.709 56.9157 32.984 56.9157 30.084M49.6657 26.459H53.2907H49.6657ZM59.3324 26.459H53.2907H59.3324ZM59.3324 30.084H56.9157H59.3324ZM49.6621 30.084H56.9157H49.6621ZM53.2907 26.459C54.4991 26.459 56.9157 27.184 56.9157 30.084L53.2907 26.459Z" stroke="#F58220" stroke-width="2" stroke-linecap="round" stroke-linejoin="round"/>
<defs>
<clipPath id="clip0_637_742">
<rect width="52" height="28" fill="white" transform="translate(22 45)"/>
</clipPath>
</defs>
</svg>
