<svg width="78" height="100" viewBox="0 0 78 100" fill="none" xmlns="http://www.w3.org/2000/svg">
<path d="M63.9601 1.48279H45.9363C41.2286 1.48279 37.377 5.33442 37.377 10.0421V14.7273C37.377 19.435 41.2286 23.2866 45.9363 23.2866H46.3367C46.0149 26.1078 44.7687 28.8123 43.0645 31.1045C46.1967 29.1609 48.8468 26.4511 50.7355 23.2866H63.9601C68.6678 23.2866 72.5195 19.435 72.5195 14.7273V10.0421C72.5195 5.33442 68.6678 1.48279 63.9601 1.48279V1.48279Z" fill="white"/>
<path d="M50.2294 23.2749C50.5835 21.2769 50.8487 19.5421 50.8461 18.7345C50.8374 16.3443 46.7367 16.4826 45.8526 19.1752C45.8526 19.1752 45.6417 20.9729 45.3613 23.2749H50.2299H50.2294Z" fill="#F58220"/>
<path d="M63.9574 23.2749C63.6765 20.9729 63.4661 19.1752 63.4661 19.1752C62.582 16.4826 58.4813 16.3443 58.4727 18.7345C58.47 19.5421 58.7353 21.2769 59.0893 23.2749H63.9579H63.9574Z" fill="#F58220"/>
<path d="M61.7774 23.2749C61.7123 20.2955 61.6531 18.0996 61.6128 17.7778C61.5122 16.9723 59.4599 16.7888 58.2836 16.3153C57.7757 16.1108 57.2333 16.007 56.6861 16.007H52.6429C52.0908 16.007 51.5441 16.1119 51.0329 16.3201C49.8653 16.7953 47.8447 16.975 47.7447 17.7773C47.7043 18.1012 47.6403 20.3004 47.5703 23.2744H61.7774V23.2749Z" fill="#FFA340"/>
<path d="M52.707 13.2847V14.7413V17.6211H56.5016V14.1418V13.2847H52.707Z" fill="#FFA6A6"/>
<path d="M56.5016 13.2847H52.707V15.7954C54.0549 15.6948 55.4029 15.2691 56.5016 14.4599V13.2847Z" fill="#1A1A1A"/>
<path d="M57.8574 16.8033C57.8574 17.448 54.6025 18.537 54.6025 18.537C54.6025 18.537 51.3477 17.4485 51.3477 16.8033C51.3477 16.1582 52.8048 15.9542 54.6025 15.9542C56.4003 15.9542 57.8574 16.1587 57.8574 16.8033V16.8033Z" fill="#FFA6A6"/>
<path d="M48.6614 9.8905C48.6657 9.84315 48.6716 9.79633 48.6781 9.75006C48.7109 9.52029 48.7722 9.27654 48.946 9.12049C49.122 8.9623 49.376 8.92894 49.6106 8.93647C50.2175 8.95638 50.8084 9.21251 51.2388 9.63329C51.0596 10.2177 50.6383 10.8278 50.0303 11.021C49.5449 11.1749 48.9433 10.9893 48.7383 10.5292C48.6506 10.3317 48.6409 10.1095 48.6614 9.89104V9.8905Z" fill="#FFA6A6"/>
<path d="M60.2278 9.8905C60.2235 9.84315 60.2176 9.79633 60.2111 9.75006C60.1789 9.52029 60.117 9.27654 59.9432 9.12049C59.7672 8.9623 59.5133 8.92894 59.2786 8.93647C58.6717 8.95638 58.0809 9.21251 57.6504 9.63329C57.8296 10.2177 58.2509 10.8278 58.8589 11.021C59.3443 11.1749 59.9459 10.9893 60.1509 10.5292C60.2386 10.3317 60.2483 10.1095 60.2278 9.89104V9.8905Z" fill="#FFA6A6"/>
<path d="M50.5107 9.95775C50.4467 12.2705 52.337 14.5406 54.3758 14.5971C56.4146 14.6536 58.4271 12.4916 58.4911 10.1789C58.4932 10.102 58.6353 7.00957 58.6353 7.00957C58.6934 4.91534 57.3127 3.17624 55.2206 3.11812L54.1493 3.08853C52.0599 3.03041 50.3186 4.6775 50.2567 6.76851C50.2223 7.93616 50.5134 9.86789 50.5113 9.95775H50.5107Z" fill="#FFA6A6"/>
<path d="M51.546 10.7859C51.2043 8.64966 51.2667 6.51345 51.1979 4.37671C50.635 5.01703 50.2836 5.84999 50.2567 6.76851C50.2223 7.93616 50.5134 9.86789 50.5113 9.95775C50.4472 12.2705 52.3375 14.5406 54.3763 14.5971C54.8784 14.6111 55.3788 14.4901 55.8491 14.2657C53.8183 14.2953 51.8554 12.8715 51.5465 10.7859H51.546Z" fill="#C46060"/>
<path d="M55.0692 10.6227C54.9573 10.8815 54.6156 11.0096 54.3616 10.8762C54.2626 10.824 54.1824 10.9784 54.282 11.0306C54.6145 11.2055 55.074 11.0489 55.2242 10.7024C55.243 10.6593 55.2306 10.6077 55.1865 10.5851C55.1467 10.5646 55.088 10.5791 55.0692 10.6222V10.6227Z" fill="#C46060"/>
<path d="M55.068 11.4262C55.1821 11.4046 55.2945 11.3761 55.4048 11.3406C55.5539 11.2933 55.7024 11.233 55.86 11.2282C56.0177 11.2233 56.191 11.2884 56.2572 11.4272C56.3099 11.5376 56.2819 11.6715 56.213 11.7722C56.1442 11.8728 56.0403 11.9454 55.9338 12.0089C55.4785 12.2785 54.9362 12.5454 54.3997 12.5153C53.9127 12.4023 53.4586 12.1558 53.1056 11.8114C52.9985 11.7071 52.8946 11.4014 52.9867 11.2868C53.0797 11.17 53.2702 11.2255 53.4139 11.2803C53.9369 11.4816 54.5191 11.5311 55.068 11.4262V11.4262Z" fill="white"/>
<path d="M51.473 8.82121C51.9621 8.54248 52.5012 8.60275 53.0399 8.71521C53.1281 8.73404 53.1432 8.51827 53.0743 8.40635C53.0054 8.29496 52.8941 8.19219 52.8263 8.18466C52.3963 8.12923 51.9739 8.23201 51.5983 8.48383C51.5397 8.52365 51.4563 8.6388 51.4105 8.73458C51.3653 8.83036 51.3922 8.86641 51.4724 8.82121H51.473Z" fill="#313642"/>
<path d="M52.3439 9.12022L52.395 9.11887C52.5445 9.11493 52.6698 9.23328 52.6738 9.38335L52.689 9.95837C52.6929 10.1079 52.5746 10.2332 52.4245 10.2372L52.3734 10.2385C52.2238 10.2425 52.0985 10.1241 52.0946 9.97404L52.0794 9.39902C52.0755 9.24948 52.1938 9.12418 52.3439 9.12022Z" fill="#1A1A1A"/>
<path d="M57.2285 8.82128C56.7394 8.54255 56.2002 8.60281 55.6616 8.71527C55.5733 8.7341 55.5583 8.51833 55.6271 8.40641C55.696 8.29502 55.8074 8.19225 55.8752 8.18472C56.3051 8.12929 56.7275 8.23207 57.1031 8.48389C57.1618 8.52371 57.2452 8.63886 57.2909 8.73464C57.3361 8.83042 57.3092 8.86647 57.229 8.82128H57.2285Z" fill="#313642"/>
<path d="M56.013 9.95864L56.0282 9.38363C56.0321 9.23409 56.1569 9.11519 56.307 9.11915L56.3581 9.1205C56.5076 9.12444 56.6265 9.24922 56.6226 9.3993L56.6074 9.97431C56.6035 10.1238 56.4787 10.2427 56.3286 10.2388L56.2775 10.2374C56.128 10.2335 56.0091 10.1087 56.013 9.95864Z" fill="#1A1A1A"/>
<path d="M59.6152 8.27244C59.5694 8.3058 59.521 8.33539 59.471 8.36176C59.2073 8.49843 58.8941 8.53341 58.5998 8.47583C58.6364 9.128 58.4846 11.2222 58.3162 11.198C58.2344 11.1862 58.1709 10.7815 58.1532 10.4528C58.1182 9.8006 58.13 9.38143 58.0741 8.86648C57.9939 8.83689 57.9186 8.796 57.8513 8.74326C57.6425 8.58022 57.5322 8.32086 57.5317 8.06312C56.7552 8.012 55.9906 7.79408 55.3175 7.41688C54.9553 7.21402 54.6131 6.96165 54.378 6.62696C54.3193 6.54356 54.2677 6.45424 54.2251 6.36115C54.2241 6.36222 54.223 6.36276 54.2219 6.36384C53.8248 6.6501 53.2313 6.63826 52.8369 6.35308C52.7928 6.63073 52.6722 6.89655 52.4796 7.10748C52.1088 7.51427 51.2936 7.7026 50.7491 7.58207C50.7174 8.66524 50.8874 9.73711 50.8556 10.8203C50.8513 10.9613 50.7125 11.1141 50.6587 11.2454C50.6049 11.3767 49.8828 7.88716 49.7682 6.29658C49.5379 6.27452 49.3113 6.22878 49.0956 6.1486C48.6382 5.97911 48.2303 5.63634 48.0883 5.18435C47.9403 4.71299 48.1033 4.18458 48.4251 3.80147C48.6516 3.53188 48.947 3.32633 49.2688 3.16814C49.2462 3.02124 49.2554 2.8695 49.3 2.72798C49.4243 2.33141 49.7832 2.02739 50.1895 1.89287C50.5032 1.78902 50.8411 1.7761 51.1715 1.8213C51.3894 1.27353 51.8145 0.787636 52.3402 0.484155C53.2652 -0.0501663 54.4226 -0.0948276 55.4773 0.121484C56.2344 0.276991 56.9629 0.559487 57.6216 0.951215C57.9067 0.83714 58.2183 0.783332 58.5266 0.798936C59.0281 0.823688 59.5172 1.03139 59.8756 1.37039C60.0155 1.50275 60.1398 1.66472 60.1592 1.85251C60.1662 1.923 60.1538 1.99672 60.1247 2.0629C60.3281 2.2055 60.4923 2.39921 60.5859 2.62467C60.7408 2.99649 60.6962 3.43449 60.4901 3.78102C60.7941 3.95213 61.0583 4.18028 61.2407 4.46869C61.5765 4.99979 61.591 5.69822 61.3058 6.25622C61.0589 6.73942 60.6015 7.11124 60.0747 7.2915C60.0779 7.31787 60.0801 7.34423 60.0812 7.3706C60.0935 7.72036 59.9052 8.06312 59.6152 8.27405V8.27244Z" fill="#313642"/>
<path d="M58.6949 2.34153C59.0716 2.80859 58.9935 3.54093 58.8009 3.6959C58.6088 3.85087 58.6707 3.16803 58.2935 2.70097C57.9163 2.23391 57.2437 2.15966 57.4363 2.00469C57.629 1.84972 58.3177 1.87447 58.6944 2.34153H58.6949Z" fill="#5A5E68"/>
<path d="M50.8913 2.9206C51.2884 2.62949 51.8852 2.72097 52.0052 2.88401C52.1252 3.04759 51.5677 2.97118 51.1706 3.26228C50.7735 3.55339 50.6879 4.10224 50.5679 3.93866C50.4479 3.77508 50.4942 3.2117 50.8913 2.92006V2.9206Z" fill="#5A5E68"/>
<path d="M58.951 4.50405C58.951 4.64557 58.8923 4.76018 58.8202 4.76018C58.7481 4.76018 58.6895 4.64557 58.6895 4.50405C58.6895 4.36254 58.7481 4.24792 58.8202 4.24792C58.8923 4.24792 58.951 4.36254 58.951 4.50405Z" fill="#5A5E68"/>
<path d="M54.6265 18.3394L56.167 18.2753L55.5132 20.6182H53.7397L53.0859 18.2753L54.6265 18.3394Z" fill="#F0FF94"/>
<path d="M55.797 23.2747L55.5128 20.5778H53.7393L53.4961 23.2747H55.797Z" fill="#F0FF94"/>
<path d="M56.5065 15.9595C56.5065 15.9595 56.5458 16.9377 56.3887 17.2654C56.216 17.6248 54.8164 18.3308 54.8164 18.3308C54.8164 18.3308 56.2138 19.082 56.3015 19.3612C56.3887 19.6405 57.0355 20.8808 57.0355 20.8808C57.0355 20.8808 58.293 17.4919 58.2758 16.8457C58.2586 16.1994 56.8784 15.8152 56.8784 15.8152L56.5071 15.9595H56.5065Z" fill="#F58220"/>
<path d="M52.7069 15.9595C52.7069 15.9595 52.6676 16.9378 52.8247 17.2655C52.9975 17.6249 54.397 18.3309 54.397 18.3309C54.397 18.3309 52.9996 19.082 52.9119 19.3613C52.8247 19.6406 52.178 20.8809 52.178 20.8809C52.178 20.8809 50.9205 17.492 50.9377 16.8457C50.9549 16.1995 52.3351 15.8153 52.3351 15.8153L52.7064 15.9595H52.7069Z" fill="#F58220"/>
<path d="M69.4289 31.7141H51.8662C47.3129 31.7141 43.5824 35.4118 43.5269 39.9527C41.9444 39.8004 40.3904 39.349 38.9779 38.6188C38.8504 38.5526 38.6944 38.4848 38.5712 38.558C38.3925 38.6645 38.463 38.9357 38.5588 39.1203C39.7286 41.3792 41.4558 43.3405 43.5286 44.8138C43.6329 49.3122 47.3441 52.9599 51.8662 52.9599H69.4289C74.0161 52.9599 77.7692 49.2067 77.7692 44.6195V40.0544C77.7692 35.4672 74.0161 31.7141 69.4289 31.7141V31.7141Z" fill="white"/>
<path d="M66.6196 35.1552C67.3912 37.9086 67.19 40.9509 66.0611 43.5892C66.0611 43.5892 62.7798 45.0958 59.9032 44.6686C57.0266 44.2419 55.3499 42.5856 55.3499 42.5856C54.9668 42.0497 54.956 40.5447 55.0146 39.4265C55.1072 37.6562 55.7082 35.6744 56.2307 33.9811L66.6201 35.1552H66.6196Z" fill="#253657"/>
<path d="M69.794 52.9601C69.7166 51.2167 69.4911 49.0665 68.8755 47.9618C67.7353 45.9176 63.4704 45.1261 61.0017 45.1261C58.5329 45.1261 55.3754 45.8724 54.225 47.0433C53.5336 47.7471 53.2269 50.7093 53.0918 52.9601H69.794V52.9601Z" fill="#00B6FF"/>
<path d="M63.1126 49.6213C62.5202 49.6213 61.7889 49.3291 61.5624 48.6818C61.55 48.6463 61.5688 48.6075 61.6044 48.5952C61.6399 48.5828 61.6786 48.6016 61.691 48.6371C61.8347 49.0477 62.3389 49.4857 63.1089 49.4857C63.1164 49.4857 63.1234 49.4857 63.1309 49.4857C63.8062 49.4782 64.4826 49.1419 64.8953 48.607C65.308 48.0721 65.463 47.3328 65.2989 46.6774C65.2897 46.6408 65.3118 46.6042 65.3484 46.5951C65.385 46.5859 65.4216 46.608 65.4307 46.6446C65.6045 47.3393 65.4404 48.1233 65.0029 48.6904C64.5649 49.2575 63.8482 49.6143 63.132 49.6218C63.1255 49.6218 63.1191 49.6218 63.1126 49.6218V49.6213Z" fill="#2C2946"/>
<path d="M58.9996 49.5271C58.8764 49.5271 58.7532 49.5174 58.6321 49.4975C57.8352 49.3678 57.147 48.8114 56.8801 48.0791C56.6035 47.322 56.8155 46.4277 57.395 45.9041C57.423 45.8788 57.4661 45.881 57.4914 45.909C57.5166 45.9369 57.5145 45.98 57.4865 46.0053C56.9468 46.4928 56.7499 47.3263 57.0082 48.0328C57.2589 48.7194 57.9051 49.2419 58.6542 49.3635C59.3704 49.4797 60.1522 49.2236 60.6957 48.6952C60.7226 48.6688 60.7656 48.6693 60.792 48.6963C60.8184 48.7232 60.8178 48.7662 60.7909 48.7926C60.3093 49.2612 59.6486 49.5271 59.0007 49.5271H58.9996Z" fill="#2C2946"/>
<path d="M63.4435 41.1673H58.4414V47.2902H63.4435V41.1673Z" fill="#FFA6A6"/>
<path d="M58.4414 41.1673V44.2398C60.1412 44.674 62.1687 44.4227 63.4435 43.1453V41.1673H58.4414Z" fill="#1A1A1A"/>
<path d="M64.4539 46.1931C64.4539 47.1697 62.2467 48.2836 61.0903 48.2836C59.934 48.2836 57.6406 47.1692 57.6406 46.1931C57.6406 45.217 59.0612 45.069 60.9423 45.069C62.8235 45.069 64.4539 45.2165 64.4539 46.1931Z" fill="#FFA6A6"/>
<path d="M54.9746 38.6239C54.9821 38.5754 54.9913 38.5276 55.0015 38.4802C55.051 38.2461 55.1312 37.9997 55.3206 37.8539C55.5127 37.7059 55.7764 37.6935 56.0174 37.7215C56.6411 37.7941 57.2319 38.11 57.6467 38.5808C57.4224 39.1679 56.9467 39.7614 56.3069 39.9072C55.7968 40.024 55.1893 39.7802 55.0101 39.2884C54.9332 39.0775 54.9386 38.8472 54.9746 38.6233V38.6239Z" fill="#FFA6A6"/>
<path d="M66.5709 39.9216C66.5741 39.8727 66.5757 39.8242 66.5768 39.7758C66.5806 39.5364 66.5569 39.2786 66.4041 39.0946C66.2491 38.9079 65.9951 38.8374 65.7535 38.8116C65.1288 38.7448 64.4831 38.9219 63.9746 39.2894C64.0639 39.912 64.3965 40.5953 64.9878 40.8794C65.4597 41.106 66.106 41.0027 66.389 40.5625C66.5106 40.3736 66.5564 40.1482 66.5709 39.9216Z" fill="#FFA6A6"/>
<path d="M56.9509 39.1716C56.7018 41.3987 58.3435 43.7432 60.3086 43.9632C62.2737 44.1833 64.3932 42.2597 64.6429 40.0325C64.651 39.9583 65.2983 37.0122 65.2983 37.0122C65.5238 34.996 64.0725 33.1784 62.0558 32.9524L61.0232 32.8367C59.0091 32.6112 57.1931 34.0592 56.9644 36.0727C56.8363 37.1973 56.9612 39.0849 56.9515 39.1716H56.9509Z" fill="#FFA6A6"/>
<path d="M59.3144 43.0802C56.313 41.0909 57.3741 37.2984 57.797 34.1285C57.3493 34.6623 57.0475 35.3285 56.9624 36.0727C56.8344 37.1973 56.9592 39.0849 56.9495 39.1715C56.7004 41.3986 58.3421 43.7431 60.3072 43.9632C60.7048 44.0078 61.1084 43.9632 61.5018 43.8475C60.7463 43.8028 59.9935 43.5564 59.3139 43.0807L59.3144 43.0802Z" fill="#C46060"/>
<path d="M61.0363 40.4733C60.8706 40.6906 60.5197 40.7315 60.3115 40.5464C60.2308 40.4743 60.1189 40.6008 60.2001 40.6734C60.4718 40.9156 60.9405 40.8757 61.1627 40.5846C61.1902 40.5486 61.1907 40.4969 61.1552 40.4657C61.1229 40.4372 61.0637 40.4372 61.0363 40.4733Z" fill="#C46060"/>
<path d="M62.5684 37.9652C62.5652 37.8123 62.8073 37.652 63.008 37.6945C63.4928 37.7973 64.0933 38.1971 64.0153 38.3865C63.9733 38.4882 63.7473 38.1686 63.3266 38.0502C62.9058 37.9323 62.5722 38.118 62.5689 37.9652H62.5684Z" fill="#1A2635"/>
<path d="M62.9214 39.7429C62.6997 39.7181 62.5383 39.5163 62.5631 39.2941L62.6147 38.833C62.6395 38.6113 62.8412 38.4499 63.0635 38.4746C63.2852 38.4994 63.4466 38.7011 63.4218 38.9234L63.3702 39.3845C63.3454 39.6062 63.1436 39.7676 62.9214 39.7429Z" fill="#1A2635"/>
<path d="M59.3646 37.6068C59.4017 37.4583 59.201 37.2484 58.996 37.2457C58.5004 37.2387 57.8267 37.496 57.8606 37.6977C57.8789 37.8064 58.05 37.5745 58.6069 37.5223C59.1639 37.4701 59.328 37.7553 59.3646 37.6073V37.6068Z" fill="#1A2635"/>
<path d="M58.6265 39.2625C58.8482 39.2872 59.0505 39.1258 59.0753 38.9041L59.1269 38.443C59.1517 38.2213 58.9902 38.019 58.7686 37.9942C58.5469 37.9695 58.3445 38.1309 58.3198 38.3526L58.2681 38.8137C58.2434 39.0354 58.4048 39.2377 58.6265 39.2625Z" fill="#1A2635"/>
<path d="M59.7111 41.5401C60.2642 42.0696 61.2123 42.0831 61.7843 41.5756C61.865 41.5035 61.7607 41.3717 61.6794 41.4438C61.1585 41.906 60.3143 41.8856 59.8122 41.4051C59.7337 41.3303 59.6341 41.4664 59.7116 41.5401H59.7111Z" fill="#D13F30"/>
<path d="M56.6355 32.8657C56.2486 33.5437 56.0796 34.3594 56.0323 35.1509C55.9914 35.8349 56.0285 36.5198 56.043 37.2048C57.6315 36.501 58.2417 35.816 59.0945 34.255C59.0945 34.255 61.0688 36.4311 62.7051 37.3286C64.4507 38.2864 65.2949 38.5678 66.8129 38.825C66.9673 37.6929 67.1045 37.0369 67.0615 35.8973C67.0087 34.4945 66.688 33.0734 65.9239 31.9111C65.1599 30.7489 63.9094 29.8761 62.5372 29.7954C61.277 29.7216 59.9576 30.4104 59.3867 31.5484C58.6183 31.3251 57.6955 31.6238 57.1133 32.2254C56.9266 32.4185 56.7689 32.6338 56.6371 32.8651L56.6355 32.8657Z" fill="#253657"/>
<path d="M63.0303 34.0925C64.2927 34.6747 65.6605 35.1117 67.0181 35.2801C66.9594 34.6747 66.8464 34.0742 66.6646 33.4996C65.5852 33.9107 64.3029 33.5883 63.0357 33.1832C63.0201 33.4861 63.0206 33.7891 63.0303 34.0925Z" fill="#515E79"/>
<path d="M62.2124 32.913C62.0859 32.8716 61.9595 32.8302 61.8346 32.7903C61.8266 33.0233 61.8287 33.2558 61.8454 33.4861C61.9573 33.549 62.0708 33.6109 62.1855 33.6717C62.1855 33.4183 62.193 33.1654 62.2129 32.9125L62.2124 32.913Z" fill="#515E79"/>
<path d="M61.0079 32.5503C60.7082 32.4739 60.4165 32.4141 60.1367 32.3829C60.4079 32.5847 60.6958 32.7822 60.995 32.9748C60.9955 32.8339 60.9998 32.6923 61.0079 32.5503Z" fill="#515E79"/>
<path d="M11.8972 56.5493C11.8972 56.5493 2.40913 76.7636 0.76366 79.4654C-0.881812 82.1671 0.408522 85.1099 2.02601 86.1931C4.05299 87.5507 7.40797 84.0128 8.04076 82.2914C8.90277 79.947 18.1121 62.8874 18.1121 62.8874C18.1121 62.8874 14.9068 52.554 11.8978 56.5493H11.8972Z" fill="#FFA6A6"/>
<path d="M5.5996 76.392C4.37384 75.7199 3.15723 75.0371 1.94922 74.3435C4.93937 68.0716 7.92899 61.7996 10.9186 55.5271C11.4266 54.4612 12.2514 52.9357 13.5859 52.6005C14.6206 52.34 15.6193 53.0428 16.4345 53.646C17.8395 54.6856 18.7854 59.5025 18.9872 61.5602C17.0119 69.3554 15.2497 72.345 12.6216 79.8643C10.0324 78.5761 8.11732 77.7727 5.59907 76.392H5.5996Z" fill="#FF9B46"/>
<path d="M41.005 55.5931C41.005 55.5931 55.1266 72.8916 57.3801 75.1117C59.6336 77.3319 59.0977 80.5007 57.7928 81.9444C56.157 83.754 52.0423 81.1389 51.0097 79.6231C49.6031 77.559 36.5195 63.2523 36.5195 63.2523C36.5195 63.2523 37.1141 52.4496 41.005 55.5926V55.5931Z" fill="#FFA6A6"/>
<path d="M51.9416 73.3071C52.9667 72.3568 53.981 71.3985 54.984 70.4321C50.5577 65.076 46.1319 59.7199 41.7056 54.3637C40.9533 53.4533 40.0219 52.4616 38.6455 52.4611C37.5785 52.4605 36.541 53.0976 35.8975 53.8811C34.7879 55.2311 35.0424 60.1336 35.347 62.1789C39.1594 69.2596 41.5964 71.7305 45.9753 78.384C48.1734 76.505 49.8356 75.2593 51.9416 73.3076V73.3071Z" fill="#FF9B46"/>
<path d="M41.3022 99.9996C41.1225 89.254 40.5446 55.6821 40.3073 53.7827C40.1061 52.1722 36.0026 50.2997 33.6506 49.3526C32.6353 48.9437 31.5505 48.7365 30.456 48.7365H22.3707C21.2671 48.7365 20.1732 48.9469 19.1513 49.3628C16.816 50.3131 12.7766 52.1781 12.5759 53.7832C12.3338 55.722 11.6762 90.1585 11.4922 100H41.3022V99.9996Z" fill="#FF9B46"/>
<path d="M41.3022 99.9996C41.1645 91.7765 40.7937 70.1836 40.5209 59.6489C38.4568 65.2606 38.4305 71.8807 38.4848 78.2199C38.5069 80.8103 38.5429 83.3533 38.459 85.7618C38.3643 88.471 38.2023 91.3762 36.5482 93.5242C34.8769 95.6943 32.0418 96.5967 29.3368 97.0277C22.8496 98.0619 13.1963 97.6395 12.669 88.9397C12.4145 84.7399 11.9883 80.2663 12.5215 76.0875C13.0645 71.8307 13.9028 67.6847 13.8501 63.366C13.8501 61.564 13.2948 59.925 12.3886 58.3473C12.0905 68.4477 11.6391 92.1155 11.4922 99.999H41.3022V99.9996Z" fill="#D3711E"/>
<path d="M17.8171 51.2977C20.6813 55.801 26.8478 56.3536 31.2203 54.4105C33.285 53.4931 34.9251 51.6733 34.4666 49.6167C34.1787 49.4924 33.9038 49.3778 33.6493 49.274C32.6339 48.8596 31.5491 48.6498 30.4546 48.6498H22.3693C21.2657 48.6498 20.1718 48.8629 19.15 49.2842C18.6899 49.4736 18.1642 49.6996 17.6142 49.952C17.4706 50.3587 17.5061 50.8118 17.8166 51.2982L17.8171 51.2977Z" fill="#E6E6E6"/>
<path d="M22.5 43.2915V46.2047V51.9639H30.0881V45.0064V43.2915H22.5Z" fill="#FFA6A6"/>
<path d="M30.0881 43.2916H22.5V48.3119C25.1953 48.1107 27.8906 47.2599 30.0881 45.6408V43.291V43.2916Z" fill="#1A1A1A"/>
<path d="M32.7976 50.3281C32.7976 51.6174 29.8838 53.7945 26.2894 53.7945C22.695 53.7945 19.7812 51.6174 19.7812 50.3281C19.7812 49.0388 22.695 48.6304 26.2894 48.6304C29.8838 48.6304 32.7976 49.0388 32.7976 50.3281Z" fill="#FFA6A6"/>
<path d="M14.4065 36.5046C14.4151 36.4105 14.4264 36.3163 14.4399 36.2237C14.505 35.7642 14.6282 35.2767 14.9758 34.9646C15.3283 34.6482 15.8357 34.5815 16.3043 34.5966C17.5183 34.6359 18.6994 35.1486 19.5598 35.9897C19.2014 37.1584 18.3593 38.3788 17.1432 38.7641C16.1731 39.0718 14.9694 38.7 14.5604 37.781C14.385 37.3866 14.3662 36.9421 14.4065 36.5046V36.5046Z" fill="#FFA6A6"/>
<path d="M37.5361 36.5046C37.5275 36.4104 37.5162 36.3162 37.5027 36.2237C37.4376 35.7642 37.3144 35.2767 36.9668 34.9646C36.6143 34.6482 36.1069 34.5814 35.6382 34.5965C34.4243 34.6358 33.2432 35.1486 32.3828 35.9896C32.7412 37.1583 33.5833 38.3787 34.7994 38.764C35.7695 39.0718 36.9732 38.7 37.3822 37.7809C37.5576 37.3865 37.5764 36.942 37.5361 36.5046Z" fill="#FFA6A6"/>
<path d="M18.1035 36.6398C17.9754 41.2646 21.7549 45.804 25.832 45.917C29.9091 46.0299 33.9335 41.707 34.061 37.0821C34.0653 36.9282 34.3494 30.7445 34.3494 30.7445C34.4651 26.5571 31.7047 23.0794 27.5216 22.9632L25.3789 22.904C21.2012 22.7883 17.7187 26.0809 17.5955 30.2629C17.5266 32.5982 18.1088 36.4606 18.104 36.6398H18.1035Z" fill="#FFA6A6"/>
<path d="M20.4856 41.5175C18.7621 37.1396 18.1067 30.4447 19.6532 25.2882C18.4263 26.592 17.652 28.3322 17.5955 30.2628C17.5266 32.5981 18.1088 36.4605 18.104 36.6397C17.9759 41.2646 21.7555 45.8039 25.8326 45.9169C25.9267 45.9196 26.0203 45.9169 26.114 45.9153C23.9379 44.7191 21.3196 43.6348 20.4861 41.5175H20.4856Z" fill="#C46060"/>
<path d="M27.2186 37.9688C26.9942 38.4865 26.3119 38.7431 25.8034 38.4757C25.6054 38.3719 25.4451 38.6802 25.6436 38.7851C26.3082 39.1343 27.2272 38.8217 27.5275 38.1287C27.5646 38.0426 27.5404 37.9398 27.4527 37.894C27.3736 37.8532 27.2557 37.8822 27.2181 37.9688H27.2186Z" fill="#C46060"/>
<path d="M21.9614 37.0965C22.3472 37.0965 22.6631 36.7806 22.6631 36.3948V35.5931C22.6631 35.2073 22.3472 34.8914 21.9614 34.8914C21.5756 34.8914 21.2598 35.2073 21.2598 35.5931V36.3948C21.2598 36.7806 21.5756 37.0965 21.9614 37.0965Z" fill="#1A2635"/>
<path d="M30.2778 37.0965C29.892 37.0965 29.5762 36.7806 29.5762 36.3948V35.5931C29.5762 35.2073 29.892 34.8914 30.2778 34.8914C30.6636 34.8914 30.9795 35.2073 30.9795 35.5931V36.3948C30.9795 36.7806 30.6636 37.0965 30.2778 37.0965Z" fill="#1A2635"/>
<path d="M23.9348 33.6608C23.9434 33.4843 23.9095 33.2766 23.7486 33.1459C23.6324 33.0512 23.478 33.0221 23.3343 33.0043C22.1247 32.8564 20.9646 33.2244 19.9863 33.8787C20.1919 33.988 20.4023 34.0859 20.6143 34.1741C21.7125 33.77 23.4984 34.1139 23.6329 34.1429C23.7712 34.102 23.9257 33.8244 23.9348 33.6603V33.6608Z" fill="#1A2635"/>
<path d="M28.3059 33.6608C28.2973 33.4843 28.3312 33.2766 28.4921 33.1459C28.6083 33.0512 28.7628 33.0221 28.9064 33.0043C30.116 32.8564 31.2762 33.2244 32.2544 33.8787C32.0489 33.988 31.8385 34.0859 31.6265 34.1741C30.5282 33.77 28.7423 34.1139 28.6078 34.1429C28.4695 34.102 28.3151 33.8244 28.3059 33.6603V33.6608Z" fill="#1A2635"/>
<path d="M33.1772 19.951C34.5208 19.9779 36.494 22.3325 36.4342 23.5927C36.3449 25.4793 34.46 37.4108 34.46 37.4108C34.3217 37.781 33.9994 37.7864 33.7637 37.4765C33.528 37.166 33.9068 31.7001 33.7163 29.2233C32.5148 28.6147 31.1943 27.6037 30.5223 26.3935C30.2941 26.5861 30.0498 26.7599 29.7926 26.9101C28.3123 27.7748 26.4484 27.8415 24.9019 27.1296C24.1126 27.8652 23.2748 28.5329 22.3466 29.0549C21.0239 29.7991 19.4705 30.2112 18.0026 30.0224C18.0558 32.2662 18.164 37.1601 18.0408 37.3016C17.9176 37.4431 17.6329 37.4108 17.6152 37.2193C17.6152 37.2193 14.7197 24.79 16.5013 21.7573C18.8974 17.6786 31.3832 14.6971 32.4556 16.2059C33.5275 17.7152 32.009 19.979 32.009 19.979C32.009 19.979 32.511 19.9375 33.1783 19.951H33.1772Z" fill="#33314F"/>
<path d="M29.7617 22.4384C30.762 22.1602 31.7505 21.7738 32.7207 21.2605C31.9797 21.2944 31.1877 21.3084 30.3746 21.2879C30.2223 21.6963 30.0119 22.0789 29.7623 22.4389L29.7617 22.4384Z" fill="#5C5A72"/>
<path d="M25.8719 20.7221C24.1054 20.2722 22.4814 19.5049 21.3025 18.2426C19.339 19.1256 17.6424 20.198 16.7578 21.3748C19.0038 22.1394 21.3095 22.7216 23.6109 22.9288C24.4422 22.3003 25.2913 21.5878 25.8719 20.7221Z" fill="#5C5A72"/>
<path d="M27.185 20.9958C26.7551 21.7545 26.1556 22.4142 25.4922 23.0082C26.2417 23.0045 26.9891 22.9577 27.7322 22.8554C28.2504 22.3808 28.7557 21.8347 29.0651 21.2223C28.4382 21.175 27.8081 21.1007 27.1855 20.9958H27.185Z" fill="#5C5A72"/>
<path d="M18.3281 39.9311C18.3281 39.9311 28.1611 37.9338 33.6087 40.0754C33.6087 40.0754 30.9221 46.2827 26.0405 46.2838C21.1595 46.2849 18.3281 39.9311 18.3281 39.9311Z" fill="#33314F"/>
<path d="M19.8315 39.6707C18.8953 39.816 18.3281 39.9312 18.3281 39.9312C18.3281 39.9312 21.1595 46.2849 26.0405 46.2838C27.1883 46.2838 28.2144 45.94 29.113 45.4148C25.1909 45.5617 21.3748 43.6994 19.831 39.6707H19.8315Z" fill="#26243B"/>
<path d="M29.3537 40.2174C29.3537 40.2174 27.9708 40.7318 26.32 40.748C25.331 40.7576 23.3008 40.2314 23.3008 40.2314C23.3008 40.2314 23.6118 41.1122 23.8491 41.4297C24.4044 42.1712 27.3537 42.592 28.7882 41.4184C29.0422 41.2107 29.3537 40.2174 29.3537 40.2174V40.2174Z" fill="white"/>
<path d="M22.7862 64.4566C22.7862 64.4566 9.46584 84.0989 7.82091 85.9381C6.17597 87.7773 0.831148 87.088 0.814467 84.1969C0.796172 81.0388 19.1482 61.3712 19.1482 61.3712C19.1482 61.3712 22.6856 60.0846 22.7862 64.4566Z" fill="#FFA6A6"/>
<path d="M24.6707 65.6119H30.4772C31.2017 65.6119 31.7891 65.0246 31.7891 64.3001V52.9077C31.7891 52.1832 31.2017 51.5958 30.4772 51.5958H24.6707C23.9462 51.5958 23.3588 52.1832 23.3588 52.9077V64.3001C23.3588 65.0246 23.9462 65.6119 24.6707 65.6119Z" fill="#48428C"/>
<path d="M24.366 65.6119H30.1725C30.897 65.6119 31.4844 65.0246 31.4844 64.3001V52.9077C31.4844 52.1832 30.897 51.5958 30.1725 51.5958H24.366C23.6415 51.5958 23.0542 52.1832 23.0542 52.9077V64.3001C23.0542 65.0246 23.6415 65.6119 24.366 65.6119Z" fill="#26243B"/>
<path d="M25.7723 53.1058H24.6724C24.5153 53.1058 24.3867 52.9771 24.3867 52.82C24.3867 52.6629 24.5153 52.5343 24.6724 52.5343H25.7723C25.9294 52.5343 26.058 52.6629 26.058 52.82C26.058 52.9771 25.9294 53.1058 25.7723 53.1058Z" fill="#363269"/>
<path d="M18.5301 62.0239C18.5301 62.0239 21.9621 57.2489 22.9667 56.9503C23.9713 56.6516 32.4262 57.1494 32.4262 57.1494C32.4262 57.1494 31.589 64.2128 29.9984 64.5109C28.4078 64.8096 23.8873 64.71 23.8873 64.71L21.3761 65.9041C21.3761 65.9041 18.2788 64.2129 18.5301 62.0244V62.0239Z" fill="#FFA6A6"/>
<path d="M31.8955 58.8137H25.6451C25.4363 58.8137 25.4358 59.1989 25.6451 59.1989H31.8955C32.1043 59.1989 32.1048 58.8137 31.8955 58.8137Z" fill="#C46060"/>
<path d="M31.4775 60.7535H25.2271C25.0183 60.7535 25.0178 61.1388 25.2271 61.1388H31.4775C31.6863 61.1388 31.6868 60.7535 31.4775 60.7535Z" fill="#C46060"/>
<path d="M30.9326 62.6933H24.6822C24.4734 62.6933 24.4729 63.0786 24.6822 63.0786H30.9326C31.1414 63.0786 31.1419 62.6933 30.9326 62.6933Z" fill="#C46060"/>
<path d="M40.8626 51.9536C40.8626 51.9536 39.067 52.1559 38.2566 52.46C37.4463 52.764 36.4072 54.4283 36.1699 54.9508C35.9326 55.4732 38.1662 59.1511 38.6328 59.7779C39.0987 60.4048 40.3692 59.736 39.907 58.5038C39.4447 57.2715 39.1111 55.6632 39.1111 55.6632L40.8626 51.9536V51.9536Z" fill="#FFA6A6"/>
<path d="M42.6576 58.9585C42.6576 58.9585 45.2679 56.5048 46.2225 55.7472C47.177 54.9895 46.6556 54.1625 46.138 53.7955C45.3841 53.2612 44.513 54.1738 43.2043 55.6643C41.7332 57.3394 39.9091 58.1594 40.1157 58.895C40.2583 59.4024 41.3253 60.0169 42.6582 58.959L42.6576 58.9585Z" fill="#FFA6A6"/>
<path d="M41.3831 58.4124C41.3831 58.4124 44.1849 55.0036 45.323 54.0775C46.461 53.1515 46.0532 52.368 45.4855 51.8719C44.6579 51.1487 43.4698 51.9747 41.8814 53.8241C40.096 55.9027 38.5549 57.3437 38.7443 58.2977C38.8751 58.9558 39.7941 59.7054 41.3826 58.4124H41.3831Z" fill="#FFA6A6"/>
<path d="M39.5157 57.2716C39.5157 57.2716 42.3864 54.0361 43.3915 52.9927C44.3967 51.9493 44.4553 50.7047 43.2532 50.0628C42.296 49.5522 41.2897 50.4034 39.9526 52.4051C38.4497 54.6549 37.3725 56.2917 37.5075 56.9735C37.6361 57.6235 38.2824 58.253 39.5157 57.2716Z" fill="#FFA6A6"/>
<path d="M36.2448 53.9882C36.2448 53.9882 39.857 52.332 41.1667 51.8794C42.4764 51.4269 42.3688 50.5998 42.0266 49.9757C41.5272 49.0663 40.2057 49.4134 38.197 50.538C35.9392 51.8025 34.1048 52.5805 33.9639 53.4883C33.8665 54.1141 34.4169 54.6194 36.2453 53.9876L36.2448 53.9882Z" fill="#FFA6A6"/>
<path d="M39.9525 52.405L39.2949 52.652L41.253 50.7241L39.9525 52.405Z" fill="#FFA6A6"/>
<path d="M40.9831 59.6089C40.7345 59.6079 40.4639 59.5325 40.2594 59.391C39.9177 59.1548 39.794 58.7114 39.9231 58.3213C40.0517 57.9328 40.3245 57.5938 40.5844 57.2849C40.8857 56.9277 41.2161 56.5946 41.5562 56.2744C41.7483 56.0931 41.9442 55.9144 42.1459 55.7444C42.2918 55.6217 42.5032 55.831 42.3563 55.9548C41.9162 56.3261 41.4965 56.7269 41.1037 57.1483C40.8271 57.4453 40.5543 57.7579 40.3487 58.1098C40.183 58.3945 40.0662 58.7625 40.3121 59.045C40.4714 59.228 40.7501 59.3103 40.9831 59.3114C41.1747 59.3125 41.1752 59.61 40.9831 59.6089V59.6089Z" fill="#C46060"/>
<path d="M39.6765 58.0216C39.4279 58.0206 39.1572 57.9452 38.9528 57.8037C38.6111 57.5675 38.4873 57.1241 38.6165 56.734C38.7451 56.3455 39.0179 56.0065 39.2778 55.6976C39.5791 55.3404 39.9095 55.0073 40.2496 54.6866C40.4417 54.5052 40.6375 54.3266 40.8393 54.1566C40.9851 54.0339 41.1966 54.2432 41.0497 54.367C40.6095 54.7382 40.1898 55.1391 39.797 55.5604C39.5199 55.8575 39.2476 56.1701 39.0421 56.522C38.8764 56.8066 38.7596 57.1747 39.0055 57.4572C39.1648 57.6401 39.4435 57.7225 39.6765 57.7235C39.8681 57.7246 39.8686 58.0222 39.6765 58.0211V58.0216Z" fill="#C46060"/>
<path d="M38.4226 56.2546C38.174 56.2535 37.9033 56.1782 37.6989 56.0366C37.3572 55.8004 37.2334 55.357 37.3626 54.9669C37.4912 54.5784 37.764 54.2394 38.0239 53.9306C38.3252 53.5733 38.6556 53.2402 38.9957 52.92C39.1878 52.7387 39.3836 52.5601 39.5854 52.39C39.7312 52.2673 39.9427 52.4767 39.7958 52.6004C39.3556 52.9717 38.9359 53.3726 38.5431 53.7939C38.2665 54.0909 37.9937 54.4035 37.7882 54.7555C37.6225 55.0401 37.5057 55.4082 37.7516 55.6907C37.9109 55.8736 38.1896 55.9559 38.4226 55.957C38.6142 55.9581 38.6147 56.2557 38.4226 56.2546V56.2546Z" fill="#C46060"/>
<path d="M41.4473 56.2397C41.4473 56.2397 52.9483 79.5857 54.3129 81.6412C55.6781 83.6966 59.8353 82.3374 60.2658 79.4786C60.7356 76.3555 45.6368 54.6889 45.6368 54.6889C45.6368 54.6889 42.6676 53.2043 41.4473 56.2391V56.2397Z" fill="#FFA6A6"/>
</svg>
