<svg xmlns="http://www.w3.org/2000/svg" width="396" height="52.933" viewBox="0 0 396 52.933">
  <g id="Group_2748" data-name="Group 2748" transform="translate(-448 -1131.5)">
    <g id="Group_2662" data-name="Group 2662" transform="translate(448 1131.5)">
      <g id="Group_2659" data-name="Group 2659" transform="translate(0 0)">
        <path id="Ellipse_75" data-name="Ellipse 75" d="M7.17,0a7.17,7.17,0,0,1,5.07,12.24A7.17,7.17,0,0,1,2.1,2.1,7.123,7.123,0,0,1,7.17,0Zm0,13.809A6.638,6.638,0,1,0,.532,7.17,6.646,6.646,0,0,0,7.17,13.809Z" transform="matrix(1, -0.008, 0.008, 1, 381.549, 37.879)" fill="#1a1818"/>
        <path id="Path_1250" data-name="Path 1250" d="M727.575,85.066a3.9,3.9,0,1,0-3.9-3.9,3.9,3.9,0,0,0,3.9,3.9" transform="translate(-338.801 -36.174)" fill="#1a1818"/>
        <path id="Path_1251" data-name="Path 1251" d="M456.8,67.61c10.053,0,14.242-5.56,14.242-11.348,0-6.4-5.635-8.759-10.434-10.739-4.342-1.828-8.149-3.2-8.149-6.7,0-3.427,2.056-5.483,5.331-5.483a8.142,8.142,0,0,1,4.113,1.218l7.082,9.292.305-.153-.381-10.434-3.5.685a25.522,25.522,0,0,0-7.464-1.294c-7.921,0-13.252,4.341-13.252,11.2,0,5.864,4.569,8.225,10.206,10.511,4.264,1.751,7.921,3.274,7.921,7.007,0,3.427-2.208,5.559-5.787,5.559-4.8,0-6.7-2.665-10.054-7.692l-2.056-3.122-.3-.152.229,9.6A33.123,33.123,0,0,0,456.8,67.61" transform="translate(-208.151 -15.286)" fill="#1a1818"/>
        <path id="Path_1252" data-name="Path 1252" d="M402.8,67.61c10.054,0,14.242-5.56,14.242-11.348,0-6.4-5.635-8.759-10.434-10.739-4.341-1.828-8.15-3.2-8.15-6.7,0-3.427,2.057-5.483,5.331-5.483a8.14,8.14,0,0,1,4.113,1.218l7.084,9.292.3-.153-.381-10.434-3.5.685a25.523,25.523,0,0,0-7.464-1.294c-7.921,0-13.253,4.341-13.253,11.2,0,5.864,4.57,8.225,10.206,10.511,4.265,1.751,7.922,3.274,7.922,7.007,0,3.427-2.209,5.559-5.789,5.559-4.8,0-6.7-2.665-10.054-7.692l-2.057-3.122-.3-.152.229,9.6A33.125,33.125,0,0,0,402.8,67.61" transform="translate(-182.871 -15.286)" fill="#1a1818"/>
        <path id="Path_1253" data-name="Path 1253" d="M337.112,43.494c.608-6.7,3.274-10.205,5.94-10.205,3.885,0,4.723,5.636,4.723,10.205Zm4.722,24.068c8.225,0,13.252-4.112,16.223-11.729L357.6,55.6a9.424,9.424,0,0,1-9.216,5.941c-7.007,0-11.423-5.787-11.423-13.937a15.7,15.7,0,0,1,.076-3.276c2.209,0,7.235.153,11.881.229l8.683.152a9.349,9.349,0,0,0,.153-1.446c0-4.647-3.886-11.044-13.634-11.044-10.282,0-18.66,7.692-18.66,18.355,0,9.6,7.008,16.984,16.375,16.984" transform="translate(-152.368 -15.085)" fill="#1a1818"/>
        <path id="Path_1254" data-name="Path 1254" d="M267.619,66.477l-.153-.457-1.144-.076c-2.665-.152-2.969-.457-2.969-1.067V40.506a9.7,9.7,0,0,1,5.408-1.6c3.351,0,5.865,1.523,5.865,6.474V64.725c0,.609.153,1.067-2.513,1.219l-1.371.076-.229.457h19.726l-.228-.457-.685-.076c-3.58-.381-3.961-.609-3.961-1.143V44.314c0-3.655-.685-7.311-2.438-9.139a7.844,7.844,0,0,0-6.092-2.666c-4.951,0-9.673,3.961-13.4,7.007h-.076l.228-6.855L247.74,37l-.077.3,1.752.381c2.666.609,3.123,1.372,3.123,6.017V64.725c0,.914-.838.99-3.2,1.219l-.913.076-.229.457Z" transform="translate(-115.947 -15.219)" fill="#1a1818"/>
        <path id="Path_1255" data-name="Path 1255" d="M228.478,66.611l-.229-.457-.609-.075c-3.427-.457-3.96-.457-3.96-1.067V32.8l-15.614,4.341-.076.3,1.751.381c2.666.609,3.123,1.372,3.123,6.017V64.859c0,.914-.838.99-3.2,1.219l-.913.075-.228.457Z" transform="translate(-97.374 -15.353)" fill="#1a1818"/>
        <path id="Path_1256" data-name="Path 1256" d="M221.051,14.209a6.223,6.223,0,0,0,6.473-6.245,6.478,6.478,0,0,0-12.947,0,6.271,6.271,0,0,0,6.474,6.245" transform="translate(-100.458 -0.805)" fill="#1a1818"/>
        <path id="Path_1257" data-name="Path 1257" d="M167.953,67.61c10.053,0,14.242-5.56,14.242-11.348,0-6.4-5.636-8.759-10.434-10.739-4.341-1.828-8.149-3.2-8.149-6.7,0-3.427,2.056-5.483,5.332-5.483a8.145,8.145,0,0,1,4.113,1.218l7.083,9.292.3-.153-.381-10.434-3.5.685a25.516,25.516,0,0,0-7.464-1.294c-7.921,0-13.252,4.341-13.252,11.2,0,5.864,4.57,8.225,10.205,10.511,4.265,1.751,7.921,3.274,7.921,7.007,0,3.427-2.209,5.559-5.788,5.559-4.8,0-6.7-2.665-10.054-7.692l-2.057-3.122-.3-.152.228,9.6a33.124,33.124,0,0,0,11.958,2.057" transform="translate(-72.925 -15.286)" fill="#1a1818"/>
        <path id="Path_1258" data-name="Path 1258" d="M116.205,64.055l.076-.305-1.9-.381c-2.513-.533-2.97-1.447-2.97-5.788V34.656H95.413l.229.457,1.066.076c3.427.228,3.961.228,3.961,1.066v24.3a8.591,8.591,0,0,1-4.8,1.6c-3.656,0-6.093-1.6-6.017-6.4l.228-21.1H73.859l.228.457,1.067.076c3.884.3,4.188.609,4.188.913l-.3,20.488c-.076,3.885.609,7.312,2.437,9.14s2.971,2.818,5.636,2.818c5.027,0,9.6-3.579,13.481-7.082h.228l-.3,7.235Z" transform="translate(-34.578 -16.225)" fill="#1a1818"/>
        <path id="Path_1259" data-name="Path 1259" d="M23.382,51.562c-2.513,0-5.559-2.97-7.769-6.855V25.666c1.751-1.294,3.275-2.589,5.941-2.589,5.179,0,8.3,5.713,8.3,13.634,0,8.149-2.285,14.851-6.474,14.851M5.331,52.933l6.169-2.97h.076a30.068,30.068,0,0,0,11.043,2.361c8.455,0,18.966-5.788,18.966-18.354,0-9.369-6.093-16.376-13.71-16.376-4.8,0-9.216,3.351-11.958,7.083l-.3-.228V0L.076,3.808,0,4.113l1.752.457c2.666.686,3.122,1.3,3.122,5.865v42.5Z" transform="translate(0 0)" fill="#1a1818"/>
        <path id="Path_1260" data-name="Path 1260" d="M661.887,43.495c.609-6.7,3.275-10.207,5.941-10.207,3.884,0,4.722,5.637,4.722,10.207Zm4.723,24.067c8.225,0,13.251-4.112,16.223-11.728l-.458-.23a9.421,9.421,0,0,1-9.216,5.941c-7.007,0-11.424-5.788-11.424-13.937a15.724,15.724,0,0,1,.076-3.276c2.209,0,7.235.152,11.881.229l8.683.153a9.381,9.381,0,0,0,.152-1.447c0-4.646-3.884-11.044-13.633-11.044-10.281,0-18.659,7.693-18.659,18.355,0,9.6,7.007,16.984,16.375,16.984" transform="translate(-304.418 -15.085)" fill="#0063b0"/>
        <path id="Path_1261" data-name="Path 1261" d="M592.439,66.477l-.152-.456-1.143-.077c-2.665-.153-2.97-.457-2.97-1.067V40.506a9.692,9.692,0,0,1,5.408-1.6c3.351,0,5.865,1.523,5.865,6.473V64.725c0,.609.152,1.066-2.514,1.219l-1.371.077-.229.456H615.06l-.229-.456-.685-.077c-3.579-.381-3.961-.609-3.961-1.142V44.314c0-3.655-.686-7.312-2.437-9.139a7.844,7.844,0,0,0-6.093-2.666c-4.95,0-9.672,3.961-13.4,7.007h-.076l.229-6.855L572.561,37l-.077.3,1.752.381c2.666.609,3.123,1.371,3.123,6.017V64.725c0,.914-.838.99-3.2,1.219l-.913.077-.23.456Z" transform="translate(-268.018 -15.219)" fill="#0063b0"/>
        <path id="Path_1262" data-name="Path 1262" d="M553,66.611l-.23-.456-.609-.077c-3.428-.457-3.96-.457-3.96-1.067V32.8l-15.614,4.341-.076.3,1.751.381c2.665.609,3.123,1.371,3.123,6.017V64.859c0,.914-.838.99-3.2,1.219l-.914.077-.228.456Z" transform="translate(-249.303 -15.353)" fill="#0063b0"/>
        <path id="Path_1263" data-name="Path 1263" d="M545.571,14.209a6.223,6.223,0,0,0,6.474-6.245,6.478,6.478,0,0,0-12.948,0,6.271,6.271,0,0,0,6.474,6.245" transform="translate(-252.387 -0.805)" fill="#0063b0"/>
        <path id="Path_1264" data-name="Path 1264" d="M514.335,51.391l-.23-.456-.914-.077c-2.665-.229-3.2-.457-3.2-1.067V.287L494.379,4.1l-.076.3,1.676.456c2.666.687,3.122,1.3,3.122,5.865V49.64c0,.914-.38,1.066-2.742,1.219l-.99.077-.3.456Z" transform="translate(-231.416 -0.135)" fill="#0063b0"/>
        <rect id="Rectangle_1296" data-name="Rectangle 1296" width="395.945" height="52.933" transform="translate(0 0)" fill="none"/>
      </g>
      <g id="Group_2660" data-name="Group 2660" transform="translate(22.258 2.159)">
        <path id="Path_1219" data-name="Path 1219" d="M103.849,10.152l0,.016a.351.351,0,0,1,.241-.151.192.192,0,0,1,.109.038h0a.182.182,0,0,0-.141-.076.293.293,0,0,0-.208.173" transform="translate(-73.336 -8.719)" fill="#1a1818"/>
        <path id="Path_1220" data-name="Path 1220" d="M104.07,10.212l0-.011a.429.429,0,0,1-.135.1c.027.005.056.005.085.011s.053.043.085.054a.077.077,0,0,0,.08-.065.13.13,0,0,1,.036-.065l.011-.005a.231.231,0,0,0-.159-.022" transform="translate(-73.36 -8.78)" fill="#1a1818"/>
        <path id="Path_1221" data-name="Path 1221" d="M101.4,14.8a.283.283,0,0,0,.034-.119c0-.033-.031-.06-.053-.081a1.235,1.235,0,0,1,.255-.336,1.738,1.738,0,0,0,.2-.232.547.547,0,0,0,.083-.4h0a.29.29,0,0,0-.152-.205,1.768,1.768,0,0,0-.714-.109,1.962,1.962,0,0,0,.152-.335,2.359,2.359,0,0,0,.122-.794.945.945,0,0,0-.163-.611.907.907,0,0,1-.126-.152c-.023-.048-.03-.1-.048-.151a.293.293,0,0,0-.1-.13,1.855,1.855,0,0,1-.169-.151.277.277,0,0,1-.056-.108.541.541,0,0,0,.368.011c.058-.022.118-.081.1-.146a.331.331,0,0,1-.022-.146c.032-.006.072.005.095-.027s.014-.065.012-.1a.352.352,0,0,0,.038-.032c0-.038-.028-.071-.007-.109s.077-.048.117-.07c.025-.016.02-.048.01-.075-.025-.054-.052-.108-.075-.168a.415.415,0,0,1-.048-.167,1.661,1.661,0,0,0,.021-.39c-.011-.059-.046-.113-.061-.173a.281.281,0,0,0-.042-.113.407.407,0,0,0-.129-.119.608.608,0,0,0-.082-.3.231.231,0,0,0-.162-.086.531.531,0,0,1-.028.248,1.328,1.328,0,0,0-.353-.054,1.282,1.282,0,0,0-.351.06.5.5,0,0,1,.013-.238.59.59,0,0,0-.265.286,1.185,1.185,0,0,0-.031.146,1.132,1.132,0,0,0-.105.092,2.922,2.922,0,0,0-.279.46.586.586,0,0,0-.277,0,.259.259,0,0,0-.117.335.243.243,0,0,0,.042.065c.01.027-.029.021-.047.021a12.873,12.873,0,0,1-1.908-.557c-.3-.124-.577-.3-.88-.421a.7.7,0,0,0-.26-.06.167.167,0,0,0-.136.06.216.216,0,0,0-.036.189.537.537,0,0,0,.155.259.921.921,0,0,0,.319.195.067.067,0,0,1,.037.027c-.156.314.137.416.189.476a.289.289,0,0,1-.129-.049c-.607-.275-1.23-.519-1.823-.827a.263.263,0,0,0-.124-.049.257.257,0,0,0-.242.211.384.384,0,0,0,.1.319,1.574,1.574,0,0,0,.327.222.828.828,0,0,0,.564.908.374.374,0,0,0-.007.346.624.624,0,0,0,.291.243,1.211,1.211,0,0,0-.212.135,1.087,1.087,0,0,0-.237.26,1.411,1.411,0,0,1-.458-.384.637.637,0,0,0-.086-.1,4.617,4.617,0,0,1-.254-.465.263.263,0,0,0-.1-.1,1.294,1.294,0,0,0-.108-.281c-.047-.092-.1-.2-.214-.222a.228.228,0,0,0-.162-.254.188.188,0,0,0-.149.038.219.219,0,0,0-.2-.119.237.237,0,0,0-.2.152.2.2,0,0,0-.157-.081.243.243,0,0,0-.244.21.2.2,0,0,0,.029.125.2.2,0,0,0-.217.092.25.25,0,0,0,.063.324.156.156,0,0,0-.111.108.25.25,0,0,0,.174.287.428.428,0,0,0,.1.34.64.64,0,0,0,.258.195,1.583,1.583,0,0,1,.16.038.291.291,0,0,1,.055.081.646.646,0,0,0,.131.162,1.184,1.184,0,0,0,.543.254,3.3,3.3,0,0,0,.922.027.849.849,0,0,0-.094.1,1.881,1.881,0,0,0-.185.465,1.313,1.313,0,0,1-.2.411,1.592,1.592,0,0,1-.333.313c-.169.119-.348.233-.513.363a.989.989,0,0,0-.258.264.47.47,0,0,0-.061.314,1.59,1.59,0,0,0,.1.324,1.791,1.791,0,0,1,.1.341.7.7,0,0,0,.092.232.592.592,0,0,1,.169-.319.621.621,0,0,0,.185-.372.593.593,0,0,0-.038-.276,1.033,1.033,0,0,0-.12-.195.175.175,0,0,1,.01-.195.839.839,0,0,1,.268-.227,2.154,2.154,0,0,0,.356-.194,1.738,1.738,0,0,0,.406-.384,1.223,1.223,0,0,0,.117-.254c.024-.076.027-.011.036.027a2.849,2.849,0,0,1,.074.346.9.9,0,0,1-.1.541.872.872,0,0,1-.342.329.18.18,0,0,0-.1.125.3.3,0,0,0,.053.189,1.073,1.073,0,0,1,.059.5.2.2,0,0,0-.112.038.146.146,0,0,0-.015.2.27.27,0,0,0,.077.049c.016.032-.01.07-.017.1a.078.078,0,0,0,.047.092c.054.017.117.006.161.044s.014.081.013.119-.023.086.008.118.041.038.061.06a1.447,1.447,0,0,0-1.184-.254,1.271,1.271,0,0,0-.536.178.917.917,0,0,0-.353.357c.045,0,.161-.141.328-.076.074.027.1.108.131.179.206-.184.777-.319.916-.006a1.163,1.163,0,0,1,.846-.194l0-.011c-.014-.016-.026-.033-.039-.049a.125.125,0,0,0,.021.016.371.371,0,0,0,.128.071,1.161,1.161,0,0,0,.213.092c.055.005.114,0,.168.005a1.089,1.089,0,0,1-.1-.227.054.054,0,0,1,.015-.054.052.052,0,0,1,.071.016,2.056,2.056,0,0,1,.122.227l.073-.049c-.037-.124-.089-.243-.123-.367-.011-.038-.007-.076-.02-.114a.427.427,0,0,0-.1-.092,1.778,1.778,0,0,1-.179-.145.216.216,0,0,1-.037-.092.123.123,0,0,0-.011-.227A.072.072,0,0,1,95,15.093a.479.479,0,0,1,.1-.227,1.2,1.2,0,0,1,.344-.292.466.466,0,0,1,.161-.081.608.608,0,0,0-.045.2.121.121,0,0,0,.066.119c.041.011.074-.022.1-.049s.056-.092.093-.13c.044.071-.006.157.02.227a.142.142,0,0,0,.221.017c.049-.049.039-.13.093-.179a.751.751,0,0,1,.023.179.172.172,0,0,0,.1.113,1.512,1.512,0,0,1,.2.119,2.3,2.3,0,0,1,.306.308.2.2,0,0,0-.061.065.113.113,0,0,0,.062.157c.062.011.1-.033.161-.038.028.011.011.043,0,.06s-.023.054,0,.07c.046.011.1-.006.143.005a.053.053,0,0,1,.023.071.242.242,0,0,0-.043.113.16.16,0,0,0,.071.108c.05.038.1.07.154.108a1.184,1.184,0,0,1-.517-.059.7.7,0,0,1-.326-.27.72.72,0,0,1-.061-.352.61.61,0,0,0-.157.135.671.671,0,0,0-.1.411.491.491,0,0,0-.352.011.219.219,0,0,0-.145.162.274.274,0,0,0,.034.178.239.239,0,0,0,.177.092.092.092,0,0,0,.079-.043.42.42,0,0,1,.121-.135.261.261,0,0,1,.144-.027.373.373,0,0,0,.129.351.172.172,0,0,1,.03-.086.181.181,0,0,1,.1-.06,1.029,1.029,0,0,1,.288-.027c.158.011.316.022.473.022a1.48,1.48,0,0,0,.463-.087,1.7,1.7,0,0,1,.512-.119c.137-.005.266.055.4.049a.641.641,0,0,0,.32-.113.679.679,0,0,1-.266-.109.618.618,0,0,1-.15-.162.3.3,0,0,0,.112-.081.24.24,0,0,0,.038-.211c-.018-.07-.085-.113-.144-.151a.844.844,0,0,1,.179-.146.61.61,0,0,1,.167-.049.372.372,0,0,0-.228-.113.572.572,0,0,0-.478.184.545.545,0,0,0-.153.34.777.777,0,0,0,.149.449.9.9,0,0,1-.27-.027.271.271,0,0,1-.115-.178q-.027-.1-.053-.195a.21.21,0,0,0-.106-.13.462.462,0,0,1-.117-.059,1.479,1.479,0,0,1-.118-.108.124.124,0,0,1-.024-.06c.077-.065.062-.135-.021-.184-.036-.021-.09.033-.123,0a.559.559,0,0,1-.147-.345c0-.049-.018-.147.018-.184a.607.607,0,0,1,.12-.109.6.6,0,0,1,.185-.1.419.419,0,0,1,.215.027c0,.027,0,.059,0,.086a.523.523,0,0,0-.256.19.211.211,0,0,0-.046.135.085.085,0,0,0,.063.07.943.943,0,0,0,.243.038.108.108,0,0,1-.026.086c-.018.027,0,.054.021.076a.114.114,0,0,0,.163-.027c.015-.043-.026-.076-.042-.108a.046.046,0,0,1,.035-.043.789.789,0,0,1,.117-.011c.048-.011.078-.011.079-.081a.262.262,0,0,0-.066-.19.345.345,0,0,0-.183-.113v-.1a1.918,1.918,0,0,0,.724.016,1.33,1.33,0,0,0,.551-.189,2.4,2.4,0,0,0,.32.432c.085.1.169.184.25.281a1.519,1.519,0,0,1,.3.579.522.522,0,0,0-.113.194.09.09,0,0,0,.045.1.5.5,0,0,0,.234.032c.02.038.036.081-.017.1a.467.467,0,0,1-.189.027.629.629,0,0,1-.317-.119.429.429,0,0,1-.2-.243.249.249,0,0,1,.031-.179.445.445,0,0,0-.228.211.337.337,0,0,0-.047.232c.009.044.061.076.053.125s-.069.092-.093.14a.285.285,0,0,0,.033.319.582.582,0,0,1,.34-.189c.111,0,.223.022.335.027a1.067,1.067,0,0,0,.413-.043.5.5,0,0,1,.2-.049.6.6,0,0,1,.272.081.271.271,0,0,0,.131.016.884.884,0,0,0,.207-.01.5.5,0,0,1-.1-.211l.065-.016a.619.619,0,0,1,.116.21l.074-.037c-.045-.109-.092-.217-.139-.319a.287.287,0,0,0-.09-.146.4.4,0,0,0-.132-.038.539.539,0,0,1-.164-.206.238.238,0,0,0,.066-.167.115.115,0,0,0-.1-.087.5.5,0,0,0-.217.006,1.437,1.437,0,0,1-.149-.443.607.607,0,0,1,.058-.292,1.427,1.427,0,0,0,.05-.514.479.479,0,0,0,.387.162.968.968,0,0,0,.4-.135.676.676,0,0,1,.2-.076.546.546,0,0,1-.16.309.179.179,0,0,0-.186.016.282.282,0,0,0-.093.221c-.082.006-.185.017-.223.1a.755.755,0,0,0-.037.449,1.3,1.3,0,0,0,.148-.087.3.3,0,0,1,.065-.043.04.04,0,0,1,.027.07,1.456,1.456,0,0,0-.14.108c0,.006.01.022.014.027a2.015,2.015,0,0,0,.307-.064.2.2,0,0,0,.13-.114.2.2,0,0,1,.065-.124c.048-.038.114-.027.167-.054.034-.011.047-.049.061-.081m-7.737-.179.005.011a.435.435,0,0,1-.015.314c-.055.151-.182.259-.244.4,0-.205-.168-.411-.193-.724a.377.377,0,0,1,.061-.26.537.537,0,0,1,.144-.178c.02-.017.039-.043.065-.043.018.016.018.043.023.064a.617.617,0,0,0,.031.157c.034.087.1.173.123.254m4.87,1.141v.005a.142.142,0,0,1-.207-.027.119.119,0,0,1,.065-.167c.113-.049.252.113.144.189m.018-.552a.491.491,0,0,1,.193.027,1.294,1.294,0,0,0-.14.065.913.913,0,0,0-.15.141.267.267,0,0,0-.166.076.244.244,0,0,0-.03.286.253.253,0,0,0,.166.092.439.439,0,0,0,.3.27c-.1.092-.4.011-.466-.07a.5.5,0,0,1,.29-.887m2.476-3.409a.747.747,0,0,1,.01-.282.442.442,0,0,1,.193.265.926.926,0,0,1,.037.173.763.763,0,0,0-.123-.129,1.2,1.2,0,0,1,.147.281.6.6,0,0,1,.012.194l0,.006a2.249,2.249,0,0,0-.145-.238.983.983,0,0,1,.121.373c-.05-.06-.08-.135-.125-.2a1.793,1.793,0,0,1,.107.324.441.441,0,0,1-.036.227,1.691,1.691,0,0,0-.116-.422,1.25,1.25,0,0,1,.053.563.59.59,0,0,1-.086.205.746.746,0,0,0,.015-.324.82.82,0,0,0-.071-.346,2.334,2.334,0,0,1,.007.562.453.453,0,0,1-.079.227,3.218,3.218,0,0,0-.023-.443c-.009-.1-.018-.195-.032-.292a.756.756,0,0,0-.009.194,1.368,1.368,0,0,1-.036.39,1.153,1.153,0,0,1-.126-.438,1.782,1.782,0,0,1,.056-.26.962.962,0,0,0-.085.141.508.508,0,0,1-.126.249.626.626,0,0,1-.061-.163.611.611,0,0,1-.039-.205c.01-.081.04-.157.055-.238a1.075,1.075,0,0,0-.136.2.248.248,0,0,1-.01-.086c.007-.119.031-.233.049-.352a.789.789,0,0,0-.086.3c-.009.081-.02.162-.034.243a1.976,1.976,0,0,0-.067-.346,1.247,1.247,0,0,1-.038-.167,3.65,3.65,0,0,1,.011-.579c.156.249.417.406.592.633a.867.867,0,0,1,.131.248.864.864,0,0,0,.1-.486Zm-.088.362a.9.9,0,0,0-.175-.254.685.685,0,0,1-.135-.157.376.376,0,0,0,.2.016.773.773,0,0,0,.123-.059l0-.011a.954.954,0,0,1-.022.465m-.081-.952-.009.011c.177.092.143.427,0,.46-.409.1-.529-.422-.471-.373.279.237.434-.125.483-.1m-.176-.156a.026.026,0,0,0,0,.01v-.01a.064.064,0,0,1,.074.032l-.007.005a.19.19,0,0,1-.085.157.317.317,0,0,1-.332-.005.246.246,0,0,1-.047-.13.364.364,0,0,0,.236.059.208.208,0,0,0,.114-.048.228.228,0,0,0,.046-.07m.447-1.746,0,.011a.076.076,0,0,1,.076.033.288.288,0,0,1,.031.146.105.105,0,0,0-.067.162.088.088,0,0,0,.046.027.959.959,0,0,0,.011.254,1.251,1.251,0,0,0,.1.232l-.005-.01c.011.027.02.059,0,.081a.132.132,0,0,1-.089.032c-.018.005-.045.011-.046.032a.244.244,0,0,0,.022.082.409.409,0,0,1-.125.065.375.375,0,0,1-.1.016v.027c.036.011.085.021.088.065.007.021-.012.032-.024.043a.171.171,0,0,1,.021.151.213.213,0,0,1-.174.114.565.565,0,0,1-.409-.119c.014.092.083.162.089.254,0,.032-.031.054-.062.065a.271.271,0,0,1-.184.005.235.235,0,0,1-.117-.14c-.018-.049-.037-.1-.054-.157-.015-.027.011-.06.033-.081s.072-.006.1-.027a.242.242,0,0,0,.045-.076.229.229,0,0,0,.134-.022.09.09,0,0,0,.027-.081.119.119,0,0,0-.044-.092.325.325,0,0,0-.095-.027c.005-.021.011-.043.016-.065-.041.017-.055.065-.093.082a.238.238,0,0,1-.244-.211.106.106,0,0,1,.083-.1c.059-.016.12-.005.179-.016a.219.219,0,0,0,.082-.027.229.229,0,0,0,.053.14.131.131,0,0,0,.113.049.163.163,0,0,0,.1-.059.161.161,0,0,1-.122.005.152.152,0,0,1-.045-.151c0-.033.031-.054.052-.081a.743.743,0,0,0,.147-.368c.005-.038.035-.054.058-.076a.513.513,0,0,1,.393-.184M99.7,12.8c.069,0,.112.059.146.108a1.715,1.715,0,0,1,.169.362,2.216,2.216,0,0,1,.1.459c-.132-.313-.266-.627-.419-.929m.3,1c-.049-.1-.154-.3-.213-.4-.077-.125-.14-.276-.213-.4.181.037.37.491.41.648a.574.574,0,0,1,.016.152m-.425-2.578a1.03,1.03,0,0,1,.246.611,2.241,2.241,0,0,0-.223-.443c-.194-.3-.379-.476-.184-.979a1.089,1.089,0,0,0,.161.811m.248,1.319a1.349,1.349,0,0,1,.325.832c-.128-.264-.227-.578-.325-.832m.028-.341.013-.016a.835.835,0,0,1,.21.362,1.675,1.675,0,0,1,.074.471v.005a5.388,5.388,0,0,0-.3-.822m.328-2.5a.727.727,0,0,0,.217-.173l-.007.011a.364.364,0,0,1-.157.238,1.746,1.746,0,0,1-.409.092,1.116,1.116,0,0,0-.212.086c.126-.178.379-.151.568-.254M99.6,9.7a.131.131,0,0,1,.064-.037l.59-.211a.961.961,0,0,1-.436.238c-.045-.006-.185.043-.218.01m.718.125a1.353,1.353,0,0,0,.23-.189.436.436,0,0,1-.184.286,1.25,1.25,0,0,1-.35.081.8.8,0,0,0-.374.141c.048-.157.526-.227.678-.319m-.487.432a1.4,1.4,0,0,0,.045.725c.063.167.11.243.144.319a1.389,1.389,0,0,1,.051.556,2.269,2.269,0,0,0-.092-.47c-.016-.043-.035-.086-.059-.141a1.056,1.056,0,0,1-.089-.989m.226.817A.62.62,0,0,1,100,10.4a.735.735,0,0,0,.048.53c.02.038.037.07.05.1a.8.8,0,0,1,.054.372,2.216,2.216,0,0,0-.07-.254c-.007-.021-.015-.043-.023-.064m.095-.573a.818.818,0,0,1,.107-.054.148.148,0,0,1,.169-.006.067.067,0,0,1,.01.086.277.277,0,0,0-.116.017.724.724,0,0,0-.139.065c-.066.032-.07-.087-.032-.108m.681-1.794V8.684l0,.016a.291.291,0,0,1,.115.119.579.579,0,0,1,.03.216l0-.011a.8.8,0,0,0-.15-.075.516.516,0,0,0,.005-.238m.093.5a1.375,1.375,0,0,0-.18.146.337.337,0,0,0-.05.076.077.077,0,0,1-.081.011c-.007-.027.013-.049.018-.06l0-.016a.567.567,0,0,1,.3-.157m-.139-.075a.836.836,0,0,0-.219.2c-.012.011-.023.028-.037.044-.035,0-.06-.027-.089-.044a.26.26,0,0,1,.126-.145.309.309,0,0,1,.219-.054m-.16-.125a.731.731,0,0,0-.165.173l-.005-.011a.617.617,0,0,1-.091.135c-.035.006-.088-.027-.066-.064a.378.378,0,0,1,.328-.233m-.335.006a.368.368,0,0,1,.136-.055c0,.033-.044.049-.065.071a.637.637,0,0,0-.16.216c-.031-.022-.064-.054-.038-.092l-.007-.011c.014-.059.077-.1.133-.129m-.282-.227a.431.431,0,0,0,.01.205.89.89,0,0,1,.069.113l-.007-.005c.01.043-.028.076-.062.1a.1.1,0,0,1-.1.027.188.188,0,0,1-.075-.167l-.006.011a.412.412,0,0,1,.173-.281m.058.551a.616.616,0,0,1-.207.14.514.514,0,0,1-.267.065c.012-.065.363-.167.474-.205m-.431.924a1.389,1.389,0,0,0,.125.93,1.716,1.716,0,0,1,.145.313,1.114,1.114,0,0,1,.024.536,1.872,1.872,0,0,0-.172-.681,1.085,1.085,0,0,1-.176-.957c.015-.043.032-.092.053-.141m-.443-.54a.494.494,0,0,1,.265.043.724.724,0,0,0-.355.1.917.917,0,0,0,.169-.033.363.363,0,0,1,.109.011c-.052.027-.106.054-.156.087a.1.1,0,0,0-.042.037,3.082,3.082,0,0,1,.306-.1c.027,0,.064.027.058.054l-.013.005c-.024.022-.06.033-.078.065a.464.464,0,0,0-.039.119.5.5,0,0,1-.315-.081.18.18,0,0,1,.092-.308M96.013,9.5,96,9.489a.533.533,0,0,1-.127-.2c0-.005,0-.011,0-.011V9.273a.088.088,0,0,1,.051-.092.309.309,0,0,1,.23.011c.185.07.35.184.527.27a8.891,8.891,0,0,0,2.406.735V10.2c.327.059.288.167-.018.216a3.054,3.054,0,0,1-1.5-.2A5.1,5.1,0,0,1,96.013,9.5m.313.46c-.015-.071.042-.136.106-.108a6.69,6.69,0,0,0,2.444.74c.423.054.052.341-.56.249a9.461,9.461,0,0,1-1.558-.525c-.075-.032-.44-.221-.431-.356m-2.093,1.324,0-.006a.811.811,0,0,0,.244.4.264.264,0,0,1,.076.075l-.007-.005c.01.038-.031.059-.061.054a.361.361,0,0,1-.268-.141.518.518,0,0,1-.162-.356.085.085,0,0,1,.058-.082.1.1,0,0,1,.118.06m-.519-.778c.014-.017.036-.006.05.005a.469.469,0,0,1,.15.178c.042.087.066.189.1.271l.008.01a.606.606,0,0,0-.2-.005.557.557,0,0,1-.136-.335c0-.043,0-.092.027-.114Zm-.444.248a.648.648,0,0,0,.152.3c.023.032.055.064.043.108h0a.622.622,0,0,1-.077.081.251.251,0,0,1-.069.054.918.918,0,0,1-.091-.114c-.075-.086-.169-.162-.236-.254a.268.268,0,0,1-.042-.238.154.154,0,0,1,.088-.108.182.182,0,0,1,.178.06v.016c.033.016.044.059.052.1m.115.146a.52.52,0,0,1-.094-.313c.005-.044.025-.1.073-.109a.175.175,0,0,1,.131.054.444.444,0,0,1,.125.152c.042.1.074.194.115.3a.753.753,0,0,0-.206.125c-.043-.071-.1-.136-.143-.206m.156-.632v-.011a.148.148,0,0,1,.148.086l0,.011a.113.113,0,0,1-.041.135.117.117,0,0,1-.105-.011.149.149,0,0,1-.085-.108.092.092,0,0,1,.085-.1m-.322-.071v-.01a.153.153,0,0,1,.2.156l.007-.011c0,.071-.064.114-.123.136a.137.137,0,0,1-.182-.087.17.17,0,0,1,.1-.184m-.37.049v.011a.177.177,0,0,1,.223.184l0-.011a.169.169,0,0,1-.331.011.184.184,0,0,1,.114-.195m-.222.319,0-.011a.123.123,0,0,1,.126.038.2.2,0,0,1,.075.173l.007.011a.136.136,0,0,1-.063.113.14.14,0,0,1-.1-.005.234.234,0,0,1-.125-.081.161.161,0,0,1,.089-.238m-.029.665a.206.206,0,0,1-.1-.189.1.1,0,0,1,.067-.081.113.113,0,0,1,.135.021.182.182,0,0,1,0,.222.107.107,0,0,1-.1.032Zm.547.524v.016a.3.3,0,0,1-.123-.021.916.916,0,0,1-.262-.184.259.259,0,0,1-.073-.2.145.145,0,0,1,.027-.092.357.357,0,0,1,.136.087,2.062,2.062,0,0,0,.3.243l.011-.006c-.007.054-.007.114-.011.157m-.32-.519,0-.005a.2.2,0,0,1-.031-.243c.017-.044.044-.082.088-.087s.059.027.077.054c.1.13.212.26.309.4-.029.06-.055.119-.078.173-.125-.092-.249-.189-.363-.292m.495.741v-.006a.4.4,0,0,1-.078-.319.735.735,0,0,1,.183-.351.821.821,0,0,1,.421-.27.384.384,0,0,1,.312.081h0a.863.863,0,0,0-.54.308.714.714,0,0,0-.183.438.669.669,0,0,0,.031.232.282.282,0,0,1-.149-.113m.469.248v-.005a.746.746,0,0,1-.258-.178.107.107,0,0,1,.005-.146.059.059,0,0,1,.066-.011c.037.022.071.049.106.07.169.108.352.189.53.281.015.006.022.016.02.038a1.064,1.064,0,0,1-.469-.049m.493-.1h0a.328.328,0,0,1-.128-.033,2.828,2.828,0,0,1-.559-.313c-.044-.027-.042-.087-.033-.135a.149.149,0,0,1,.066-.114c.033-.016.055.022.074.038a1.686,1.686,0,0,0,.508.427.4.4,0,0,1,.094.06l.012.005a.049.049,0,0,1-.036.065m-.172-.271v-.005a1.472,1.472,0,0,1-.323-.313.215.215,0,0,1-.058-.114.121.121,0,0,1,.1-.119.1.1,0,0,1,.1.054,1.411,1.411,0,0,0,.437.519c.016.011.042.027.034.054h0a.1.1,0,0,1-.068.016.418.418,0,0,1-.228-.092m.713.827a1.6,1.6,0,0,1-1.1,1.275,1.749,1.749,0,0,0,.941-1.254.408.408,0,0,1,.145-.205.52.52,0,0,1,.016.173ZM94,16.244c-.2-.238-.743-.119-.911.027A.224.224,0,0,0,93,16.141a.273.273,0,0,0-.237-.006,1.579,1.579,0,0,1,1.945-.048c-.05-.038-.668.054-.7.156m1.24-.54c0,.005.088.092.027.151l-.007-.005a.5.5,0,0,1-.266.124.563.563,0,0,1-.292-.081.067.067,0,0,1-.035-.054c-.009-.038.02-.076.01-.114-.005-.075-.1-.135-.191-.135-.037.006-.058,0-.053-.027a.138.138,0,0,1,.11-.07,1.225,1.225,0,0,1,.443.005c.132.13.222.168.253.206M95,15.363l-.007.006c-.032.027-.549.075-.6-.011a.085.085,0,0,1-.012-.114.06.06,0,0,1,.061-.005,1.45,1.45,0,0,0,.483,0c.09-.016.144.07.071.124m2.179.557c-.083-.022-.031-.092.009-.092a1.446,1.446,0,0,1,.147.016,1.936,1.936,0,0,0,.248-.048c.022-.006.031.021.015.038l-.009.01a.561.561,0,0,1-.409.076m-.9.216a.386.386,0,0,0-.023.044.284.284,0,0,0-.325.032c-.031.032-.047.076-.083.1a.1.1,0,0,1-.131-.092.171.171,0,0,1,.09-.146.331.331,0,0,1,.215-.033.992.992,0,0,1,.264.087Zm1.376-.248a.493.493,0,0,1,.049.1c.036.076.069.157.113.238l-.007-.005a1.656,1.656,0,0,1-.422.124,2.548,2.548,0,0,1-.5.005c-.193-.016-.436-.048-.563.119a.34.34,0,0,1-.033-.135.287.287,0,0,1,.133-.189.392.392,0,0,1-.175-.34.316.316,0,0,1,.088-.211.785.785,0,0,0,.126.335.568.568,0,0,0,.191.151.927.927,0,0,0,.433.119,2.312,2.312,0,0,0,.576-.043,2.224,2.224,0,0,1-.1-.206c-.02-.048.05-.081.08-.07Zm-.036-.206,0,.011a.129.129,0,0,1-.1.07.458.458,0,0,1-.329.022c-.011-.119-.117-.119-.18-.1-.005,0,.006-.092.03-.108a1.65,1.65,0,0,1,.171-.119c.025-.016.074-.038.1-.016.019.092.255.178.3.243m-.329-.438a.034.034,0,0,1,.031.043h.012c-.012.071-.264.195-.419.26-.172.07-.153-.054-.082-.092s.123-.049.2-.086a.983.983,0,0,1,.256-.125m-.142-.027-.007.006a.85.85,0,0,1-.295.14,1.393,1.393,0,0,0-.475-.394.116.116,0,0,0,.108-.049.557.557,0,0,0,.039-.276,1.144,1.144,0,0,1,.058.211.218.218,0,0,0,.1.151.119.119,0,0,0,.162-.075c.023-.071.016-.146.043-.216a.156.156,0,0,1,.119-.1.7.7,0,0,0-.015.308.813.813,0,0,0,.158.292m.085-.816a.537.537,0,0,1-.166.081.452.452,0,0,0-.232.211c-.026.065-.028.13-.05.194-.009.028-.032.06-.063.049s-.067-.059-.085-.1a1.7,1.7,0,0,0-.069-.211c-.013-.022-.036-.049-.065-.043a.079.079,0,0,0-.039.059c-.014.071-.013.146-.026.216s-.123.076-.162.022a.443.443,0,0,1-.053-.238.063.063,0,0,0-.082-.048c-.042.027-.049.075-.065.119a.383.383,0,0,1-.063.113.093.093,0,0,1-.111-.011.851.851,0,0,1-.007-.211.065.065,0,0,0-.074-.059c-.036.011-.048.054-.063.086-.022.049-.055.1-.113.109-.03-.006-.029-.044-.027-.065a.311.311,0,0,1,.105-.238,2.2,2.2,0,0,0,.369-.292.482.482,0,0,0,.126-.216c-.239.438-1.174.535-1.28,1.108-.007.038-.039.086-.015.119a2.2,2.2,0,0,1-.42.005.657.657,0,0,0,.012-.092c.03-.513-.234-.524-.018-.654a1.492,1.492,0,0,0,.316-.308.856.856,0,0,0,.151-.573c-.011-.14-.065-.27-.065-.4,0-.076-.011-.146-.011-.222a.092.092,0,0,1,.038-.081.169.169,0,0,1,.161.021.224.224,0,0,1-.107.1.325.325,0,0,1,.121-.011c.037.011.048.055.054.087a.082.082,0,0,1-.033.081.234.234,0,0,1-.161,0,.173.173,0,0,0,.085.065.145.145,0,0,0,.167-.07.245.245,0,0,0-.032-.184.1.1,0,0,1-.022-.06.052.052,0,0,1,.04-.016c.055-.005.112-.005.167-.011a.136.136,0,0,1,.007.076.187.187,0,0,1-.049.076c.043,0,.086-.027.13-.011a.119.119,0,0,1,.085.108.1.1,0,0,1-.093.092.35.35,0,0,1-.129-.016.2.2,0,0,0,.169.059.161.161,0,0,0,.127-.2.166.166,0,0,0-.148-.119c0-.032,0-.065,0-.092a.442.442,0,0,0,.144-.016.269.269,0,0,0,.084-.043.175.175,0,0,1,.066.1c.005.038-.042.07-.034.108.03.006.042-.027.064-.038a.1.1,0,0,1,.161.049.1.1,0,0,1-.05.1.448.448,0,0,1-.119.027.188.188,0,0,0,.169,0,.145.145,0,0,0,.027-.216.179.179,0,0,0-.135-.06v-.076a1.587,1.587,0,0,0,.22-.059c.012-.005.031-.016.042,0a.364.364,0,0,1,.048.167c.026-.032.062-.075.106-.064a.146.146,0,0,1,.088.124.066.066,0,0,1-.041.07.331.331,0,0,1-.179-.005.234.234,0,0,0,.124.07.142.142,0,0,0,.152-.092.187.187,0,0,0-.063-.2c-.031-.021-.071-.011-.107-.021a.594.594,0,0,1-.047-.054.244.244,0,0,1,.085-.06c.046-.022.1-.027.146-.049a4.174,4.174,0,0,1,.331.876,2.567,2.567,0,0,0,.493.854V14.3c.012.032.012.081-.026.092Zm-2.256-1.756a1.215,1.215,0,0,1,.136,0,2.711,2.711,0,0,0,1.122-.292,1.387,1.387,0,0,1,.122.141,2.778,2.778,0,0,1-.582.194,2.658,2.658,0,0,1-.8.071c-.1,0-.083-.1,0-.114M97.7,14.639c.14.027.3.27.09.276H97.8a1.8,1.8,0,0,1-.433-.028c-.031-.027-.008-.075.012-.108a.332.332,0,0,1,.326-.14m-.255-.325A.984.984,0,0,1,97.127,14c-.052-.076-.092-.157-.139-.238a1.94,1.94,0,0,1-.139-.325,1.8,1.8,0,0,1-.056-.178,4.93,4.93,0,0,0-.221-.578,1.082,1.082,0,0,0-.316-.428,1.287,1.287,0,0,0-.178.087,2.037,2.037,0,0,1-.389.162,1.959,1.959,0,0,1-.436.07.99.99,0,0,1-.186,0,.149.149,0,0,1-.112-.075c-.02-.054-.042-.125-.106-.13a2.328,2.328,0,0,1-.512-.076.741.741,0,0,1,.1-.259.875.875,0,0,1,.18-.184.73.73,0,0,0,.142.1c.068.038.135.065.2.109.011.005.024.01.024.021a.841.841,0,0,0,0,.114c.028-.044.05-.1.079-.141a.8.8,0,0,1,.451-.367c.107-.017.377.027.433.129a.824.824,0,0,0,.158.2.875.875,0,0,0,.166.119,1.922,1.922,0,0,1,.223.162.787.787,0,0,1,.233.319c.074.157.134.325.194.487.038.108.063.221.106.324a2.045,2.045,0,0,0,.124.254.694.694,0,0,0,.135.179c.428.47,1.357-.163,1.377-.168l.005.011c.02.011-.5,1.016-1.216.621m.148-.491a3.7,3.7,0,0,0,1.249-.384,2,2,0,0,1-1.294.475c-.135-.005-.176-.086.045-.091m.7.6c-.032.005-.126.027-.147,0-.01-.043.1-.076.282-.243a2.846,2.846,0,0,0,.591-1.011,3.368,3.368,0,0,1-1.627.573c-.106.005-.156-.108-.187-.195.344-.027,1.529-.265,1.634-.6a3.627,3.627,0,0,1-1.679.5.672.672,0,0,1-.1-.265c.252-.021,1.693-.33,1.708-.508a.021.021,0,0,0,0-.022.17.17,0,0,1-.024.017,6.478,6.478,0,0,1-1.729.394c-.028-.032-.085-.222-.12-.292a9.178,9.178,0,0,0,1.508-.238l.007-.005c.366-.119.354-.178.269-.173a6.234,6.234,0,0,1-1.813.324c-.088-.081-.148-.335-.354-.465a2.486,2.486,0,0,1,.237.082,3.386,3.386,0,0,0,1.653-.157h0a6.543,6.543,0,0,0-.722.1,5.934,5.934,0,0,1-.757-.005,2.2,2.2,0,0,1-.571-.152.54.54,0,0,1-.234-.156c-.034-.038-.092-.092-.091-.146a4,4,0,0,0,.616.129c.153.017.305.027.458.038a2.787,2.787,0,0,0,.681-.075l-.009.005c.187-.043.5-.081.595-.1-.237-.086-.365-.011-.811.054a2.3,2.3,0,0,1-.423.038,3.977,3.977,0,0,1-.889-.119,2.84,2.84,0,0,1-.912-.324l.008.016a.352.352,0,0,1-.168-.222.269.269,0,0,1,.05-.205,8.512,8.512,0,0,0,1.661.5c.216.032.357.059.485.065a1.334,1.334,0,0,0,.923-.249c-.128.032-.258.076-.383.1a.933.933,0,0,1-.185.038,1.067,1.067,0,0,1-.252.016c-.012,0-.078-.006-.155-.016a9,9,0,0,1-2.206-.59v.006a.7.7,0,0,1-.45-.773c.672.308,1.4.643,2,.881a3,3,0,0,0,.916.221,1.285,1.285,0,0,0,.685-.135,1.2,1.2,0,0,0-.212.022,1.716,1.716,0,0,1-.427.032,5.046,5.046,0,0,1-1.746-.551c-.552-.243-1.081-.5-1.332-.643-.08-.044-.234-.13-.27-.211a.256.256,0,0,1-.006-.211.117.117,0,0,1,.09-.07.225.225,0,0,1,.1.021c.714.336,2.2.946,3.125,1.27.14.048.287.086.368.108.236.059.479.1.712.173a2,2,0,0,1,.791.4,1.217,1.217,0,0,1,.1,1.4,2.9,2.9,0,0,0-.174.276c-.317.573-.031,1.2-1.1,1.319m1.666,1.859a2.812,2.812,0,0,0-.524-.044.633.633,0,0,0-.38.184.352.352,0,0,1,.008-.211.237.237,0,0,1,.125-.092c-.018-.054-.061-.091-.075-.146a.569.569,0,0,1,.11-.362.583.583,0,0,0,.279.433.629.629,0,0,0,.358.065c.112-.006.223-.022.327-.033h.007c.183-.022.123.227-.235.206m.5-.908a.1.1,0,0,1,.092.049.236.236,0,0,1-.114.26c.093,0,.2.248.391.243l-.007.005c.14.2-.2.265-.393.189-.107-.043-.286-.232-.21-.324a.574.574,0,0,1-.4.038c-.031-.027,0-.081.041-.087a1.215,1.215,0,0,0,.306-.091.427.427,0,0,0,.257-.206.238.238,0,0,1-.057.027c-.033-.086-.014-.1.094-.1m-.126.136-.006-.006a.642.642,0,0,1-.431.152c.093-.2-.307-.73-.462-.9a2.09,2.09,0,0,1-.368-.524,1.233,1.233,0,0,0,.284-1.011.506.506,0,0,1,.316.195,1.653,1.653,0,0,1,.256.518c.037.114.065.238.1.352a1,1,0,0,1,.069.454,1.082,1.082,0,0,0,.242.768m-.2-.919h-.005a2.83,2.83,0,0,0-.107-.622.456.456,0,0,1,.138.351l.009-.005a.735.735,0,0,1-.036.276m.105-.93a2.462,2.462,0,0,1-.021-.319,3.077,3.077,0,0,0,0-.427c-.013-.141-.047-.281-.071-.422-.02-.124-.048-.254-.056-.384a.5.5,0,0,1,.01-.146.854.854,0,0,1,.08.195,2.033,2.033,0,0,1,.085.368c0,.027.03.01.039-.006a.248.248,0,0,1,.088-.108,2.683,2.683,0,0,0,.133.492,1.028,1.028,0,0,0,.1-.076c.046.136.268.417.244.573h-.01a2.8,2.8,0,0,1-.509.692c-.114-.092-.1-.3-.119-.432m.632,1.378a.209.209,0,0,1-.106-.21.424.424,0,0,1,.063-.157,1.26,1.26,0,0,0,.117.162.409.409,0,0,0,.1.076l0-.006c0,.119-.05.206-.181.135m.435-.243a.293.293,0,0,1-.418-.319c.01-.022.023-.054.053-.054a.152.152,0,0,1,.082.027c.015.033,0,.065,0,.092a.123.123,0,0,0,.056.119.378.378,0,0,0,.242.054h0c0,.027.018.07-.012.081m-.032-.146a.1.1,0,0,1-.108.011.182.182,0,0,1-.111-.168.051.051,0,0,1,.008-.043c.114-.065.182-.184.279-.416.026-.065.178-.114.225-.195,0,0-.275.108-.524.227a.7.7,0,0,1-.619.081A3.046,3.046,0,0,0,101,13.4a2.129,2.129,0,0,1,.554.038.388.388,0,0,1,.271.162.306.306,0,0,1,0,.276h.011a.562.562,0,0,1-.134.221c-.126.141-.24.292-.362.438-.055.06-.033.092-.058.119" transform="translate(-70.249 -8.366)" fill="#1a1818"/>
        <path id="Path_1222" data-name="Path 1222" d="M107.031,14.6l0,.005a.587.587,0,0,0-.263.233h.11a1.463,1.463,0,0,1,.323.032,1.516,1.516,0,0,1,.427.152c.039.021.387.183.641.281.033.016.067.032.107.048a2.115,2.115,0,0,0,.365.1.171.171,0,0,0,.055.01.111.111,0,0,0,.09-.043h.024v.011a.323.323,0,0,0,.02.027.258.258,0,0,0,.1.065l.008-.011a.18.18,0,0,0,.141-.065l.009.006a.22.22,0,0,0,.139.07l0-.011a.153.153,0,0,0,.105-.054.074.074,0,0,0,.021-.038l.018.006a.147.147,0,0,0,.1.037.171.171,0,0,0,.055-.01,2.116,2.116,0,0,0,.365-.1l.106-.048c.25-.1.6-.26.642-.281a1.659,1.659,0,0,1,.428-.152,1.473,1.473,0,0,1,.323-.032.441.441,0,0,1,.117.011l-.007-.011a.585.585,0,0,0-.266-.233.239.239,0,0,0-.1-.027l-.025-.027.015-.005a.562.562,0,0,0,.188-.168.4.4,0,0,0,.063-.21.183.183,0,0,0-.023.016c-.019.005-.085.011-.145.021L111.3,14.2a.389.389,0,0,0-.216.081h-.048l.024-.022a1.955,1.955,0,0,0,.136-.464,3.6,3.6,0,0,0-.037-1.1l-.015-.022c-.015-.1-.031-.205-.047-.318a1.057,1.057,0,0,1,.016-.406,1.757,1.757,0,0,1,.147-.319l.01-.005a.985.985,0,0,0-.431.13v.027l-.01-.022a.058.058,0,0,0-.01-.027.118.118,0,0,0-.1-.054.16.16,0,0,0-.128.065c-.007.011-.012.021-.024.038h-.024V11.77a.108.108,0,0,0,.015-.06.13.13,0,0,0-.14-.135.088.088,0,0,0-.073.033h-.024V11.6a.144.144,0,0,0-.05-.043,2.728,2.728,0,0,0-2.179,0,.1.1,0,0,0-.047.054l-.02-.006a.128.128,0,0,0-.076-.027.132.132,0,0,0-.142.135.213.213,0,0,0,.015.071h-.028c-.005-.011-.012-.022-.021-.038a.157.157,0,0,0-.127-.065.117.117,0,0,0-.1.054c-.006.005-.009.016-.021.022v.027l-.009-.022a.785.785,0,0,0-.41-.13l0,.011a1.257,1.257,0,0,1,.15.308,1.028,1.028,0,0,1,.016.406c-.015.1-.03.2-.039.292l-.015.059a3.255,3.255,0,0,0-.047,1.087,1.761,1.761,0,0,0,.135.459l.024.027-.04-.011a.519.519,0,0,0-.231-.065l0-.005c-.056-.005-.123-.011-.139-.016l-.025-.016a.4.4,0,0,0,.065.21.769.769,0,0,0,.177.173h.026l-.018.017a.679.679,0,0,0-.106.032m2.123.741a.125.125,0,0,1-.114.108.1.1,0,0,1-.064-.038.14.14,0,0,1-.039-.108.121.121,0,0,1,.114-.108h.008c.071.01.1.081.1.146Zm.272-.038a.155.155,0,0,1-.038.108.1.1,0,0,1-.064.038.124.124,0,0,1-.115-.108.127.127,0,0,1,.095-.146h.008a.129.129,0,0,1,.117.1Zm.027-.108h-.024V15.18a.172.172,0,0,0-.118-.049h-.017a.209.209,0,0,0-.114.06h-.009a.159.159,0,0,0-.107-.06h-.015a.144.144,0,0,0-.117.06l-.018-.011a.124.124,0,0,0-.072-.043c-.086-.022-.111-.027-.18-.049a1.059,1.059,0,0,0-.15-.043l-.05-.027h1.085a.179.179,0,0,0,.074.016.189.189,0,0,0,.076-.016h.2l-.061.021c-.044.016-.09.033-.139.049-.067.022-.093.027-.18.049a.084.084,0,0,0-.066.054m-1.065-.222h-.023l.1-.124-.346-.1h-.012a.047.047,0,0,1-.013-.027l-.025-.021h.964v.01a.124.124,0,0,0,.025.022.193.193,0,0,0,.106.038.334.334,0,0,0,.144-.049V14.7h.173l0,.021a.553.553,0,0,0,.013.222.085.085,0,0,0,.015.027v.022h-1.089v-.006c-.007,0-.013-.005-.027-.016m-.517-.519-.01-.011c0-.005,0-.005-.016-.016V14.4h1.039l-.007.006c.01.027.02.054.031.092h0a1.51,1.51,0,0,0,.072.173h-.946a.189.189,0,0,1-.017-.027l.171-.1Zm-.168-.319a.185.185,0,0,1-.007-.027h.995c.029.049.062.1.089.141a.54.54,0,0,0,.08.108v.021h-1.039l-.025-.021v-.027l.2-.1Zm-.031-.076v-.026l.223-.1-.3-.1v-.005a.03.03,0,0,1,0-.016V13.78h.965l0,.016a1.527,1.527,0,0,0,.058.157c.013.032.03.07.045.1v.022h-.99l0-.016,0-.006m-.1-.324.247-.1-.247-.125v-.027h.89l.011.011c.02.087.042.168.064.265h-.965l.01-.005a.042.042,0,0,0-.01-.022m0-.519.012-.011c0-.005,0-.01.013-.01h.42V13.18a.4.4,0,0,0,.217.092.189.189,0,0,0,.126-.06c.02-.016.036-.038.053-.049l.025-.026-.011.032a2.529,2.529,0,0,0,.035.265v.027h-.89v-.049l.247-.1Zm.074-.3.007-.016a.4.4,0,0,1,.042-.108V12.77l.011.016a.646.646,0,0,0,.084.087.309.309,0,0,0,.222.065c.018,0,.035.005.053.005a.1.1,0,0,1,.075.022h.026l-.027.01a.37.37,0,0,1-.072.017h-.02a.1.1,0,0,0-.039.005s-.059.016-.069.054a.086.086,0,0,0,.03.087H107.6a.062.062,0,0,0,0-.022l.272-.1Zm1.78,1.648a.338.338,0,0,0,.075-.163h1.014v.022l-.009.005-.015.022-.322.1.173.1-.005.011c-.007.01-.012.016-.019.016h-.579c-.06-.087-.116-.163-.186-.152-.022.006-.052.054-.076.152h-.149l.018-.011a.091.091,0,0,0,.034-.065h.019a.049.049,0,0,1,.03-.022Zm.271-.768s.007-.005,0-.016h1.065v.048l-.3.1.222.1,0,.016,0,.01v.022H109.6l0-.022a.55.55,0,0,0-.009-.1c-.007-.075-.007-.113.017-.13a.136.136,0,0,1,.085-.021Zm1.065-.6.024.021-.246.1.246.1v.049h-.618l.029-.027c.027-.022.05-.043.074-.06a.513.513,0,0,0,.12-.135l.018-.021c.009-.017.017-.027.032-.027Zm-.3-.054.022-.006a.038.038,0,0,1,.03-.016c.024-.011.047-.016.071-.027l.007.005a1.25,1.25,0,0,0,.142-.054l.008.011a.647.647,0,0,1,.018.087Zm.32.345v.027l-.246.125.246.1-.007.005a.022.022,0,0,0,.007.022H109.8l.028-.016c.017-.011.032-.027.046-.038l.017-.011.043-.032a1.275,1.275,0,0,0,.213-.179ZM109.6,14.1h1.064l0,.005c0,.006-.005.011,0,.017l-.3.1.2.125h-.012l-.006.005c0,.006,0,.006-.007.016h-1.014l-.009-.016a.229.229,0,0,0,.005-.027.379.379,0,0,1,.042-.13.239.239,0,0,0,.036-.1m.4.865h-.015c-.007,0-.015.006-.01,0l-.025.022h-.2l.028-.022a.139.139,0,0,0,.049-.1.408.408,0,0,0-.052-.146V14.7h.519l-.018.027a.182.182,0,0,1-.032.021l-.346.1Zm-.258-.038a.151.151,0,0,1-.1.044.1.1,0,0,1-.09-.06c-.031-.065-.01-.3.031-.319v-.005c.054,0,.184.232.2.275l-.012.006a.085.085,0,0,1-.026.059m1.562-.265c.037.016.1.054.155.081l.05.022-.05.005a.886.886,0,0,0-.166,0,1.847,1.847,0,0,0-.822.319l-.02-.027c.047-.038.107-.1.161-.151s.085-.087.12-.114a.578.578,0,0,1,.384-.178.479.479,0,0,1,.188.043m0-.394a.282.282,0,0,0,.081-.022l.05-.022-.03.027c-.01.017-.022.033-.03.049s-.016.016-.019.027a.68.68,0,0,1-.392.243l-.072.022h-.026l.021-.016c.15-.249.229-.281.417-.308m-.166-2.567h.025l0,.005a.905.905,0,0,0-.13.654c.015.119.034.233.051.346a3.242,3.242,0,0,1,.047,1.07,2.007,2.007,0,0,1-.595,1.113,1.421,1.421,0,0,1-.557.373l-.016.011a1.908,1.908,0,0,1-.345.1c-.014,0-.028.006-.042.006-.044,0-.071-.027-.083-.081a.074.074,0,0,1,.011-.06.053.053,0,0,1,.04-.032c.088-.022.115-.027.186-.049a1.263,1.263,0,0,0,.546-.319,1.978,1.978,0,0,0,.495-.767,1.529,1.529,0,0,0,.1-.746c-.027-.341-.167-.979-.525-1.178l-.024-.021.019-.006a.569.569,0,0,1,.4-.032c.072-.233.161-.373.392-.384m-.6.135a.15.15,0,0,1,.068.011.222.222,0,0,1,.031-.076.1.1,0,0,1,.085-.043c.026,0,.046.011.047.022l.01.005c.015.022.01.059-.012.108a.5.5,0,0,0-.047.135l-.017.006a.374.374,0,0,0-.131-.006L110.519,12c-.082-.005-.11-.038-.109-.076s.047-.081.123-.081m-.118-.211a.094.094,0,0,1,.1.076l-.012.005a.1.1,0,0,1-.085.092.082.082,0,0,1-.093-.081.092.092,0,0,1,.09-.092m-2.3-.021a2.6,2.6,0,0,1,2.126,0,.119.119,0,0,1,.05.048h-.006a.1.1,0,0,1-.006.071.087.087,0,0,1-.081.048.061.061,0,0,1-.043-.011,2.4,2.4,0,0,0-.978-.2,2.335,2.335,0,0,0-.98.206.1.1,0,0,1-.123-.043.091.091,0,0,1-.007-.071.089.089,0,0,1,.047-.048m-.05.194.005.006a.154.154,0,0,0,.153.01,2.44,2.44,0,0,1,1.907,0,.149.149,0,0,0,.069.017.16.16,0,0,0,.093-.033l.01.006a.351.351,0,0,0,.064.048h.024l-.018.011a.1.1,0,0,0-.017.054.093.093,0,0,0,.035.081l.025.022-.023.005a.513.513,0,0,0-.233.119.482.482,0,0,1,.279.179,1.549,1.549,0,0,1,.272.638h.024l-.028.01a.469.469,0,0,1-.134.049.469.469,0,0,0-.08.022.383.383,0,0,0-.155.146.416.416,0,0,1-.109.124,1.5,1.5,0,0,0-.142.13,1.177,1.177,0,0,1-.19.156.343.343,0,0,0-.062.044.266.266,0,0,1-.107.064l-.05.017a.36.36,0,0,0-.109.043c-.058.043-.05.119-.043.195a.288.288,0,0,1-.023.2.368.368,0,0,0-.05.156.371.371,0,0,1-.08.195.386.386,0,0,0-.029.038c-.047.059-.112.146-.186.146a.132.132,0,0,1-.062-.022.4.4,0,0,1-.122-.211.817.817,0,0,0-.052-.124c-.027-.043-.055-.092-.084-.13a1.9,1.9,0,0,1-.156-.286,2.415,2.415,0,0,1-.185-.795c0-.054-.017-.081-.039-.081-.044,0-.116.081-.144.113l-.012.011a.1.1,0,0,1-.068.027.391.391,0,0,1-.216-.113l-.026-.022h.028c.015-.005.031-.005.049-.011.063-.005.142-.01.157-.07a.069.069,0,0,0-.008-.059c-.032-.044-.123-.054-.15-.06h-.053a.248.248,0,0,1-.18-.048.441.441,0,0,1-.114-.125h0a1.354,1.354,0,0,1,.2-.367.463.463,0,0,1,.279-.179.573.573,0,0,0-.231-.124h-.025l.019-.016a.1.1,0,0,0,.041-.087.441.441,0,0,0-.011-.065h-.024l.024-.005a.334.334,0,0,0,.074-.049m-.12-.173a.105.105,0,0,1,.1.1l-.007-.011c0,.038-.024.081-.094.081a.1.1,0,0,1-.085-.092c0-.054.035-.081.09-.081m-.3.1a.1.1,0,0,1,.085.043.172.172,0,0,1,.032.076.14.14,0,0,1,.066-.011c.076,0,.125.043.117.087h.009c0,.032-.028.065-.108.075L107.809,12a1.193,1.193,0,0,0-.136.005h-.022a.588.588,0,0,0-.049-.135c-.023-.049-.028-.086-.014-.108a.067.067,0,0,1,.057-.027m-.4,2.048a3.166,3.166,0,0,1,.047-1.07c.018-.108.036-.221.052-.346a.9.9,0,0,0-.136-.659l.018-.011c.24.022.329.162.4.395a.521.521,0,0,1,.4.038h.024l-.017.01a1.505,1.505,0,0,0-.53,1.189,1.545,1.545,0,0,0,.1.746,1.987,1.987,0,0,0,.495.767,1.247,1.247,0,0,0,.547.319c.072.022.1.027.185.049a.082.082,0,0,1,.042.032.158.158,0,0,1,.015.054l-.007.006c-.012.054-.039.081-.084.081-.015,0-.028-.006-.041-.006-.162-.032-.209-.048-.339-.081l-.015-.016a1.523,1.523,0,0,1-.564-.384,1.967,1.967,0,0,1-.595-1.113m-.236.546L107,14.31c-.012-.017-.027-.038-.042-.06l-.026-.022.047.011a.2.2,0,0,0,.085.033c.187.027.266.059.412.3l.025.022h-.025l-.067-.016a.737.737,0,0,1-.4-.254m.245.3a.578.578,0,0,1,.383.178,1.269,1.269,0,0,1,.121.114,1.779,1.779,0,0,0,.166.151l-.019.022a1.94,1.94,0,0,0-.827-.314,1.5,1.5,0,0,0-.166-.005h-.05l.058-.027c.047-.022.11-.06.149-.076a.463.463,0,0,1,.185-.043m-2.52.892h0Z" transform="translate(-73.575 -9.084)" fill="#1a1818"/>
        <path id="Path_1223" data-name="Path 1223" d="M107.918,16.356c.166-.07.428-.275.459-.427a.728.728,0,0,0-.459.427m.786.384c.147-.108.409-.416.387-.551-.207.07-.336.368-.387.551m1.347.325a.987.987,0,0,0,.018-.763.835.835,0,0,0-.018.763m1.97-1.259c.007,0,.012.006.018.006s0-.006-.006-.006Zm-2.126-2.1h-.009c.006,0,.007.006.007.022-.011.135-.017.373.123.459.024.017.052,0,.054-.032a.99.99,0,0,1,.245-.47l.033-.038a1.083,1.083,0,0,0,.166-.26h0a.593.593,0,0,0-.116-.681.008.008,0,0,0-.008-.005c-.012-.011-.012-.016,0-.033l-.012-.021a.157.157,0,0,0-.061-.151l0,.005c-.01-.011-.011-.016,0-.033h-.01c0-.086-.015-.1-.088-.118l.008-.011c-.012,0-.014-.006-.008-.017l-.006-.005c0-.038-.02-.054-.045-.07l-.014-.006c-.009-.01-.012-.01-.012-.016l0-.011c0-.048-.022-.07-.075-.07h-.041c-.036.016-.038.022-.04.038a.108.108,0,0,1-.031.059c-.024.033-.026.038-.026.054,0,.044-.006.06-.054.082s-.054.021-.052.07l-.007.016c-.006.06-.006.065-.043.081v.016a.153.153,0,0,0-.023.108l0-.005c0,.022,0,.027,0,.033l-.019.021a.642.642,0,0,0-.153.552.659.659,0,0,0,.32.437m.081-1.437a.051.051,0,0,1,.018.005h-.007c.038.005.06.011.08.011a.381.381,0,0,0,.064-.011.028.028,0,0,1,.036.027l.007-.006a.037.037,0,0,1,0,.038.136.136,0,0,1-.1.033.12.12,0,0,1-.095-.033.053.053,0,0,1-.016-.043c0-.005,0-.021.016-.021m-.074.129a.038.038,0,0,0,.017-.027l.009.011c.023,0,.042-.005.066-.005a.11.11,0,0,1,.041.005h.047a.421.421,0,0,0,.085-.011.1.1,0,0,1,.067.016.062.062,0,0,1,.034.06.06.06,0,0,1-.034.049.55.55,0,0,1-.182.027.381.381,0,0,1-.156-.027v.01c-.015-.005-.031-.01-.031-.038,0-.048.012-.059.037-.07m-.058.195-.006-.011c.009-.022.015-.038.042-.038a.1.1,0,0,1,.036.006,1.012,1.012,0,0,0,.131.01c.067,0,.14-.01.219-.016a.131.131,0,0,1,.049.027l-.008.011a.078.078,0,0,1-.02.076.727.727,0,0,1-.3.059.343.343,0,0,1-.119-.016.071.071,0,0,1-.044-.043.061.061,0,0,1,.02-.065m-.074.124h.018a.55.55,0,0,0,.215.038.919.919,0,0,0,.263-.038h.039a.151.151,0,0,1,.091.054.655.655,0,0,1,.075.195.7.7,0,0,1-.03.427,2.4,2.4,0,0,1-.3.443,1.451,1.451,0,0,0-.119.287s-.1-.022-.082-.309c.006-.254.184-.367.222-.551a.3.3,0,0,0-.059-.259.231.231,0,0,0-.079-.071.191.191,0,0,1,.039.157v.049l-.013-.044a.135.135,0,0,0-.072-.054.147.147,0,0,0,.015.022.441.441,0,0,1,.05.087.07.07,0,0,1-.005.064v.027l-.01-.016a.131.131,0,0,1-.025-.027.266.266,0,0,0-.059-.054.529.529,0,0,0,.031.065.213.213,0,0,1,.038.151v.027l-.006-.021a.168.168,0,0,1-.029-.033.141.141,0,0,0-.058-.059.157.157,0,0,1,.02.14v.022l-.012-.016c-.014-.016-.042-.054-.071-.06a.164.164,0,0,1,0,.13.071.071,0,0,1-.066.043l0-.021a.119.119,0,0,0,.007-.076c-.009.033-.027.06-.053.06a.046.046,0,0,1-.038-.022.544.544,0,0,1-.108-.395.705.705,0,0,1,.171-.362m-.543.719h0Z" transform="translate(-74.437 -9.304)" fill="#1a1818"/>
        <path id="Path_1224" data-name="Path 1224" d="M118.774,13.553a.219.219,0,0,1-.115-.049c0,.059-.007.119-.012.178h.12c0-.043.005-.086.008-.129m1.7.708c-.019.124-.038.243-.058.357a.1.1,0,0,1,.039.048l-.009.006a.117.117,0,0,1-.066.129c-.007.027-.013.06-.02.087a.087.087,0,0,0,.033-.011.225.225,0,0,0,.1-.108h.012c.022-.1.044-.216.063-.341a.2.2,0,0,1-.091-.167M112.5,16.2a.606.606,0,0,0-.514-.194c.055.135.365.178.514.194m-.978.081a.762.762,0,0,0,.452.428.739.739,0,0,0-.452-.428m-.676.244a.958.958,0,0,0,.377.573.842.842,0,0,0-.377-.573m-3.636-.3a.771.771,0,0,0,.522-.184.564.564,0,0,0-.522.184" transform="translate(-74.245 -9.672)" fill="#1a1818"/>
        <path id="Path_1225" data-name="Path 1225" d="M125.12,11.347a.153.153,0,0,1,.069.016c-.008-.054-.017-.108-.026-.162a.1.1,0,0,1-.094.065h-.014c0,.027.009.059.013.092a.084.084,0,0,1,.052-.011m-2.332,2.675h.037c.018-.092.035-.195.051-.3a.143.143,0,0,1-.109-.06c-.025.179-.054.346-.085.492a.253.253,0,0,0,.106-.129m2.305-.881a.4.4,0,0,0,.117,0c0-.043.007-.091.012-.135a.189.189,0,0,1-.115-.054c0,.065-.009.13-.014.189m-2.143.568c-.019.124-.039.243-.06.351a.159.159,0,0,0,.065.076l.032.016c0-.016.009-.038.012-.054a.086.086,0,0,1-.047-.065.118.118,0,0,1,.079-.135h.006c.034-.194.063-.416.086-.659-.037-.006-.077-.006-.117-.011-.007.076-.015.151-.023.227a.15.15,0,0,1,.053.119.159.159,0,0,1-.085.135" transform="translate(-78.428 -9.05)" fill="#1a1818"/>
        <path id="Path_1226" data-name="Path 1226" d="M122.447,14.2c-.005.021-.009.043-.014.065a.082.082,0,0,0,.028.027.134.134,0,0,0,.077.027c.005-.017.009-.038.014-.06a.094.094,0,0,1-.1-.059m.639-1.227a.213.213,0,0,1-.124.1c0,.044-.007.092-.01.136a.915.915,0,0,0,.118.005c.007-.081.012-.162.016-.243m2.093-.33a.2.2,0,0,1-.12-.054c0,.059,0,.119,0,.178a.224.224,0,0,1,.088-.021c.011,0,.02.005.031.005,0-.038,0-.076.005-.108m-.149-.87c0,.043.007.092.012.135a.12.12,0,0,1,.086-.033.054.054,0,0,1,.03.006c0-.038-.006-.081-.008-.119a.163.163,0,0,1-.073.021.145.145,0,0,1-.047-.01m.023.351c0,.06.005.124.005.184a.2.2,0,0,1,.1-.027h.022c0-.038,0-.081-.005-.119h-.022a.164.164,0,0,1-.1-.038" transform="translate(-78.361 -9.202)" fill="#1a1818"/>
        <path id="Path_1227" data-name="Path 1227" d="M124.55,12.134a.115.115,0,0,1-.044.086c0,.13,0,.26,0,.39a.463.463,0,0,1,.118.048c0-.135.007-.292,0-.459a.068.068,0,0,1-.016-.043.077.077,0,0,1,.015-.044,6.377,6.377,0,0,0-.065-.778,1,1,0,0,1-.1.14c.022.184.038.373.043.568a.1.1,0,0,1,.05.092m-1.811,1.356a.136.136,0,0,1,.093-.033h.028c.007-.064.015-.129.02-.2h-.117c-.008.076-.015.152-.023.233m-.207.443a.151.151,0,0,1,.069.005c.036-.2.066-.427.09-.675-.051.005-.088.016-.1.043-.005.011-.013.011-.022.011-.023.238-.052.454-.088.654a.2.2,0,0,1,.053-.038" transform="translate(-78.373 -9.087)" fill="#1a1818"/>
        <path id="Path_1228" data-name="Path 1228" d="M125.248,12.149a.071.071,0,0,1-.036.054c0,.163,0,.325-.006.487a.855.855,0,0,1,.115.076v-.011c.007-.135.01-.3.009-.487a3.64,3.64,0,0,0-.05-.362,4.09,4.09,0,0,0-.125-.492,6.517,6.517,0,0,1,.053.676.055.055,0,0,1,.039.059m-.717-.654c-.008-.059-.017-.124-.026-.183a.939.939,0,0,1-.112.054c.007.054.015.113.022.173a.79.79,0,0,0,.116-.044m.167,2.475a.083.083,0,0,1,.061.081l.01-.011a.119.119,0,0,1-.079.136c-.01,0-.02.005-.031,0-.007.027-.01.048-.015.075a.18.18,0,0,0,.073-.021.183.183,0,0,0,.065-.1h0c.02-.1.039-.211.057-.325a.854.854,0,0,1-.126.055c-.007.037-.013.075-.019.113m.134-1.427a.476.476,0,0,0,.081.022.091.091,0,0,1,.037.011c0-.1,0-.222,0-.341a.126.126,0,0,1-.108-.114.11.11,0,0,1,.1-.1c-.007-.157-.018-.325-.036-.487a.894.894,0,0,1-.111.092,7.775,7.775,0,0,1,.031.919" transform="translate(-78.891 -9.08)" fill="#1a1818"/>
        <path id="Path_1229" data-name="Path 1229" d="M123.627,13.166h.011a.175.175,0,0,1,.1.032c.015-.14.027-.286.038-.437a.659.659,0,0,0-.128.135c0,.016,0,.032,0,.043.009.043.024.076.036.119-.012,0-.028.005-.048.005,0,.038-.006.071-.009.1m1.616.73-.008.011a.111.111,0,0,1-.038.108l-.026.113a.247.247,0,0,0,.09-.1c.012.016.023.038.036.054,0-.027.011-.049.015-.076,0-.005,0-.005,0-.011a.122.122,0,0,1,.027-.1c.044-.216.082-.476.111-.762a.893.893,0,0,0-.118.005c-.009.086-.019.168-.029.249a.206.206,0,0,1,.014.059l-.006.016a.17.17,0,0,1-.033.1c-.016.108-.033.211-.05.3a.144.144,0,0,1,.015.027m-1.219-2.54a.762.762,0,0,0,.116-.011c-.007-.054-.013-.113-.022-.167a.765.765,0,0,1-.109.005H124c.009.054.016.114.022.173Zm.474-.173c-.012-.081-.026-.157-.041-.238a.57.57,0,0,1-.1.114c.01.065.02.135.028.2a.812.812,0,0,0,.112-.076m.158-.189a3.226,3.226,0,0,0-.114-.438.443.443,0,0,1,.008.076l0,.011a.548.548,0,0,1-.039.205c.019.092.036.184.05.276a.628.628,0,0,0,.1-.13" transform="translate(-78.684 -8.875)" fill="#1a1818"/>
        <path id="Path_1230" data-name="Path 1230" d="M125.054,13.4h-.118c-.005.043-.009.087-.014.124a.213.213,0,0,1,.112.049c.006-.059.013-.113.02-.173m-2.2-1.864c.007.06.012.114.018.173a.137.137,0,0,1,.107-.048h.009c-.006-.049-.01-.092-.016-.141a.132.132,0,0,1-.08.022.093.093,0,0,1-.039-.006m1.572,2.7a.216.216,0,0,0,.055.081.351.351,0,0,0,.039.022c.006-.022.012-.049.016-.076a.091.091,0,0,1-.057-.07.113.113,0,0,1,.077-.13.038.038,0,0,1,.023-.005,9.556,9.556,0,0,0,.125-1.06.907.907,0,0,0-.116-.076c-.007.13-.015.254-.027.379a.412.412,0,0,1,.06.211.4.4,0,0,1-.117.275c-.023.162-.05.314-.078.449" transform="translate(-78.476 -9.136)" fill="#1a1818"/>
        <path id="Path_1231" data-name="Path 1231" d="M125.481,13.308a.169.169,0,0,1-.125.1c0,.049-.007.1-.011.141a.816.816,0,0,1,.12-.006c.006-.075.012-.156.016-.237m-2.557-.59c0,.081,0,.168,0,.249a.213.213,0,0,1,.118-.032h0c0-.065,0-.13,0-.2a.087.087,0,0,1-.036.005.2.2,0,0,1-.082-.022m1.963.941a.186.186,0,0,1,.006-.049c0-.032.005-.065.008-.1a.863.863,0,0,0-.109-.135c-.015.216-.034.421-.061.616a.191.191,0,0,1,.136-.135c.007-.065.014-.13.02-.2" transform="translate(-78.493 -9.461)" fill="#1a1818"/>
        <path id="Path_1232" data-name="Path 1232" d="M122.788,10.617c-.018-.054-.036-.108-.055-.157a.114.114,0,0,1-.071.027.084.084,0,0,1-.036-.011c.02.06.04.125.058.184a.111.111,0,0,1,.09-.043Zm.087.357c-.012-.054-.023-.114-.036-.168a.094.094,0,0,1-.066.027.088.088,0,0,1-.05-.016c.013.059.024.114.035.178a.136.136,0,0,1,.077-.027c.015,0,.028.006.04.006m.806.351c-.006-.059-.015-.119-.023-.178a.916.916,0,0,1-.128-.054c.013.07.02.14.028.21a.827.827,0,0,0,.123.022m-.1,1.356c-.012.189-.028.378-.049.557a.207.207,0,0,1,.027.108.184.184,0,0,1-.058.135c-.01.076-.022.146-.032.216a.093.093,0,0,1,.092.071l0,.005a.113.113,0,0,1-.08.13.082.082,0,0,1-.05,0,.456.456,0,0,1-.01.048.183.183,0,0,0,.12-.01,9.137,9.137,0,0,0,.162-1.329.9.9,0,0,0-.121.07" transform="translate(-78.413 -8.85)" fill="#1a1818"/>
        <path id="Path_1233" data-name="Path 1233" d="M125.127,14.2a.15.15,0,0,1,.047-.005c.012-.06.023-.125.033-.19a.209.209,0,0,1-.083.017h-.036c-.023.135-.045.259-.069.373a.263.263,0,0,0,.058.075.048.048,0,0,0,.034.017c.007-.022.012-.049.021-.081a.093.093,0,0,1-.082-.076.113.113,0,0,1,.077-.13m-1.437-1.945h0a.059.059,0,0,1,.066.059.056.056,0,0,1-.057.06h-.009c0,.173,0,.341-.006.508a1,1,0,0,1,.121-.07,8.028,8.028,0,0,0-.012-.876,1.067,1.067,0,0,1-.125-.038c.009.114.016.233.021.357" transform="translate(-78.695 -9.237)" fill="#1a1818"/>
        <path id="Path_1234" data-name="Path 1234" d="M123.556,12.816a8.5,8.5,0,0,0-.017-.984c-.033-.016-.065-.038-.094-.054.017.1.033.206.045.314.03.238.049.481.066.724m.32,1.356a.284.284,0,0,0,.076.119c.006-.022.012-.049.016-.076a.21.21,0,0,1-.012-.027.115.115,0,0,1,.037-.108c.012-.075.027-.157.039-.249a.384.384,0,0,1-.088-.21c-.023.2-.053.384-.085.551Z" transform="translate(-78.634 -9.206)" fill="#1a1818"/>
        <path id="Path_1235" data-name="Path 1235" d="M123.3,14.724l-.008.005a.112.112,0,0,1-.079.13h0c0,.022-.007.038-.013.06a.168.168,0,0,0,.128-.054c.026-.125.05-.265.073-.417a.2.2,0,0,1-.073-.151.2.2,0,0,1,.114-.178c0-.038.007-.076.012-.114a.949.949,0,0,1-.118-.005c-.022.237-.053.465-.088.664a.1.1,0,0,1,.053.06" transform="translate(-78.567 -9.806)" fill="#1a1818"/>
        <path id="Path_1236" data-name="Path 1236" d="M125.527,13.514a.163.163,0,0,1,.049.011c.01-.086.02-.167.029-.259h-.117c-.009.092-.019.184-.031.265a.151.151,0,0,1,.07-.017m-1.8-2.075c-.01-.081-.02-.162-.033-.238a.728.728,0,0,1-.15-.157c.021.1.039.216.055.33a.549.549,0,0,0,.127.065m-.118,2.253a.192.192,0,0,1-.059-.006c-.014.092-.03.184-.045.265h.016a.247.247,0,0,0,.075.13c.005-.021.009-.049.015-.07a.052.052,0,0,1-.007-.022.116.116,0,0,1,.03-.1c.012-.064.021-.129.032-.2a.18.18,0,0,1-.057.006" transform="translate(-78.65 -9.007)" fill="#1a1818"/>
        <path id="Path_1237" data-name="Path 1237" d="M122.906,12.06l.007.162A.242.242,0,0,1,123,12.2a.058.058,0,0,1,.031.006c0-.038,0-.081-.006-.119a.069.069,0,0,1-.031.005.135.135,0,0,1-.09-.032m.39.708c-.006.178-.015.357-.027.53a.108.108,0,0,0,.043-.006c0-.173-.008-.346-.016-.524m1.967,1.281c-.012.076-.025.146-.039.216a.1.1,0,0,1,.1.087l-.005-.006a.115.115,0,0,1-.079.13.092.092,0,0,1-.056,0c-.006.027-.012.049-.018.076,0,0,.006,0,.011.005a.092.092,0,0,0,.1-.011h0c.033-.129.065-.281.094-.454h-.007a.141.141,0,0,1-.1-.043" transform="translate(-78.489 -9.283)" fill="#1a1818"/>
        <path id="Path_1238" data-name="Path 1238" d="M124.823,13.166a.853.853,0,0,0-.113-.037l-.005-.006c0,.1-.01.189-.015.281a.438.438,0,0,1,.109.087c.009-.108.017-.216.024-.325m-.166.579c0,.038-.008.075-.012.108a.14.14,0,0,0,.02-.065.128.128,0,0,0-.008-.043m-.7-1.184c0,.13,0,.259,0,.389a.984.984,0,0,1,.12-.043c0-.114.005-.238,0-.373a.093.093,0,0,1-.119.027" transform="translate(-78.773 -9.41)" fill="#1a1818"/>
        <path id="Path_1239" data-name="Path 1239" d="M123.947,12.214a.15.15,0,0,1,.047-.011.118.118,0,0,1,.074.028c0-.082-.007-.163-.013-.249a.945.945,0,0,1-.121-.011c.007.081.009.162.012.243m.668,1.006c0-.087.011-.173.015-.265a.923.923,0,0,0-.12-.011c0,.087-.006.173-.013.26a.427.427,0,0,1,.118.016m-.282-.73c0,.07,0,.141,0,.211.04,0,.079-.006.12-.006,0-.059,0-.124,0-.194-.014,0-.028.005-.042.005a.178.178,0,0,1-.077-.016" transform="translate(-78.767 -9.258)" fill="#1a1818"/>
        <path id="Path_1240" data-name="Path 1240" d="M124.473,13.437a.174.174,0,0,0-.074.141.176.176,0,0,0,.046.113c.011-.081.019-.167.028-.254m.095-1.578c.007.07.009.14.014.216a.2.2,0,0,1,.1.179.207.207,0,0,1-.092.173c0,.075,0,.151,0,.227a.992.992,0,0,1,.12.01,8.386,8.386,0,0,0-.026-.865c-.037.022-.075.038-.116.06m-.356.827a.9.9,0,0,1,.119-.022c0-.086,0-.178,0-.27a.21.21,0,0,1-.055-.14.2.2,0,0,1,.05-.136c0-.065-.008-.124-.012-.189-.039.006-.077.006-.12.011.017.243.02.492.016.746" transform="translate(-78.838 -9.212)" fill="#1a1818"/>
        <path id="Path_1241" data-name="Path 1241" d="M124.4,12.1a.162.162,0,0,1,.087-.021h.031c0-.054,0-.108-.009-.168a1.06,1.06,0,0,1-.118.038c0,.049.007.1.009.151m-.119,1.989a.089.089,0,0,1,.084.07v.005a.111.111,0,0,1-.078.13.148.148,0,0,1-.046.005c0,.022-.01.044-.014.065a.123.123,0,0,0,.077-.005.153.153,0,0,0,.045-.022c.021-.1.042-.216.061-.34a.442.442,0,0,1-.106-.065c-.008.054-.015.108-.024.157m.1-.86a.513.513,0,0,1,.122-.038c.007-.092.012-.178.016-.27a.8.8,0,0,0-.119.011c0,.1-.01.2-.019.3m.172.211c-.011.113-.022.216-.036.319a.1.1,0,0,0,.055.011.24.24,0,0,0,.064-.011c.012-.092.022-.184.033-.276a.145.145,0,0,0-.1-.043h-.019" transform="translate(-78.847 -9.242)" fill="#1a1818"/>
        <path id="Path_1242" data-name="Path 1242" d="M124.555,14.413a.512.512,0,0,1-.091-.011c-.012.081-.027.156-.039.227l.012.005a.22.22,0,0,0,.075.135c.005-.027.009-.048.016-.075a.17.17,0,0,1-.023-.049.113.113,0,0,1,.055-.119c.006-.038.012-.076.019-.113Zm-.243-1.087a.467.467,0,0,0-.12.032c-.009.168-.02.33-.035.492a.406.406,0,0,1,.134-.189c.008-.108.017-.221.022-.335" transform="translate(-78.827 -9.624)" fill="#1a1818"/>
        <path id="Path_1243" data-name="Path 1243" d="M122.4,14.958c0,.119.078.222.087.341a.328.328,0,0,0-.207.092.185.185,0,0,0-.044.113.277.277,0,0,1,.216.152.327.327,0,0,1-.045.237.617.617,0,0,1-.353.233.317.317,0,0,0,.026-.205.313.313,0,0,0-.058-.092.305.305,0,0,1,0-.06.236.236,0,0,0,.083-.151.147.147,0,0,0-.083-.13c-.018-.011-.047-.016-.049-.043a1.336,1.336,0,0,0-.157-.417c-.084-.145-.174-.286-.271-.421a2,2,0,0,1-.148-.276,1.1,1.1,0,0,1-.135-.535.954.954,0,0,1,.1-.324,3.548,3.548,0,0,0,.177-.406,2.251,2.251,0,0,0,.137-.7.269.269,0,0,1,.058.081,1.9,1.9,0,0,1,.248.6,1.235,1.235,0,0,1-.028.611.748.748,0,0,0,.066.525c.209.281.286.216.3.5a.515.515,0,0,0,.217-.3.664.664,0,0,0-.117-.584,1.141,1.141,0,0,1-.137-.211,1.335,1.335,0,0,1-.082-.454,3.752,3.752,0,0,0-.088-.675,3.7,3.7,0,0,0-.11-.379,4.632,4.632,0,0,0-.2-.486,2.182,2.182,0,0,0-.246-.362,4.092,4.092,0,0,0-.853-.773,4.783,4.783,0,0,0-.733-.437,3.917,3.917,0,0,0-.955-.281,5.481,5.481,0,0,0-.846-.071c-.25,0-.5-.011-.747-.027a4.678,4.678,0,0,0-.668-.048c-.068-.076-.158-.13-.221-.206a1.961,1.961,0,0,0-.376-.389.539.539,0,0,0-.294-.124.662.662,0,0,0-.286.081.691.691,0,0,0-.518.059,1.4,1.4,0,0,0-.3.222,1.855,1.855,0,0,1-.344.259,1.449,1.449,0,0,0-.385.287.043.043,0,0,1,.032-.011V9.776a.1.1,0,0,1,.12.108.1.1,0,0,1-.16.065.091.091,0,0,1-.021-.113,1.357,1.357,0,0,0-.193.367,1.289,1.289,0,0,0-.1.443.156.156,0,0,0-.066.071.321.321,0,0,0,0,.189.193.193,0,0,0-.126.108.254.254,0,0,0-.022.206.111.111,0,0,0,.072.059,4.073,4.073,0,0,0-.213.654c-.087,0-.166-.043-.253-.038.02.135.139.222.23.314a2.525,2.525,0,0,0-.077.562,1.951,1.951,0,0,0,.067.584,1.007,1.007,0,0,0,.22.411.707.707,0,0,0,.295.183.859.859,0,0,0,.484,0,1.028,1.028,0,0,0,.341-.194,2.315,2.315,0,0,1,.441-.265c.02-.005.011-.033.014-.049a.188.188,0,0,0-.069-.167.421.421,0,0,0-.217-.033.705.705,0,0,0-.039-.092.224.224,0,0,0-.185-.086.094.094,0,0,0-.093.021.222.222,0,0,0-.015.152.277.277,0,0,1-.036.184.24.24,0,0,1-.271.086.218.218,0,0,1-.117-.151.635.635,0,0,1,0-.3,1.63,1.63,0,0,1,.17-.411c.037-.059.084-.119.121-.184a1.032,1.032,0,0,1,.081-.119.619.619,0,0,0,.065.271c.019.027.042.065.082.07s.061-.038.076-.065a.525.525,0,0,1,.126-.2.542.542,0,0,1,.249-.124c.188-.043.372-.054.555-.114.026-.01.04.011.044.038a1.468,1.468,0,0,1,.005.227c0,.135-.033.092-.033.162a1.108,1.108,0,0,0,.093.53.261.261,0,0,1,.059.141.139.139,0,0,1-.025.108.879.879,0,0,1-.206.189,2.062,2.062,0,0,0-.225.13,1.622,1.622,0,0,0-.545.794.312.312,0,0,0-.2.022.136.136,0,0,0-.078.1.28.28,0,0,0,.017.173.593.593,0,0,0-.193.238.164.164,0,0,0,.061.162,1.072,1.072,0,0,0,.272.152.117.117,0,0,1,.047.032,1.408,1.408,0,0,0-.3.065,1.428,1.428,0,0,0-.286.146,1.353,1.353,0,0,1-.148.086.7.7,0,0,0,.042-.324.58.58,0,0,1-.232.146,1.063,1.063,0,0,0,.129-.335,2.214,2.214,0,0,0-.028-.373,1.012,1.012,0,0,1-.17.238.488.488,0,0,0-.1-.173.564.564,0,0,0-.318-.173.969.969,0,0,1-.018.5.787.787,0,0,1-.317.411c-.068.033-.167.1-.239.125a.918.918,0,0,0,.019-.292.379.379,0,0,0-.134-.287.558.558,0,0,1-.122.292.69.69,0,0,1-.221.2.576.576,0,0,1-.249.06.984.984,0,0,1-.127-.006h-.149a.51.51,0,0,0-.09-.157,1.055,1.055,0,0,0,.258-.032c.007,0,.012-.005.016-.005v-.022a.47.47,0,0,0-.051-.26l0-.016a.833.833,0,0,0,.325-.1.358.358,0,0,1,.033-.022.367.367,0,0,0-.023-.032.486.486,0,0,0-.143-.141.14.14,0,0,0-.066-.037.368.368,0,0,1,.095-.033.584.584,0,0,0,.2-.086.123.123,0,0,0,.019-.022.327.327,0,0,1-.029-.049.262.262,0,0,0-.1-.108.034.034,0,0,1-.023-.032c0-.011.013-.016.023-.022a1.065,1.065,0,0,1,.485-.119,1.784,1.784,0,0,1,.4.049.9.9,0,0,0-.712-.373h-.024l.017-.016a1.544,1.544,0,0,0,.236-.449,2.594,2.594,0,0,1,.269-.541.908.908,0,0,0-.571.217l-.05.021.027-.032c.023-.054.047-.114.069-.168a3.4,3.4,0,0,1,.431-.832.691.691,0,0,0-.376.167l-.026.027.006-.048c.029-.065.058-.125.086-.189a7.611,7.611,0,0,1,.457-.908,1.132,1.132,0,0,0-.274.152,1.463,1.463,0,0,0-.2.178l-.049.07.028-.081a1.675,1.675,0,0,1,.084-.162c.02-.038.042-.07.054-.1a10.747,10.747,0,0,1,.565-.941,3.31,3.31,0,0,0-1.45,1.459l-.074.1-.025.049v-.054c0-.038,0-.092,0-.157a2.51,2.51,0,0,1,.117-.9l.008-.005a.432.432,0,0,0,.223.059.356.356,0,0,0,.317-.157.194.194,0,0,0-.026-.216c-.078-.146-.146-.292-.212-.438a5.01,5.01,0,0,0-.232-.47.284.284,0,0,0-.234-.124.2.2,0,0,0-.133.048,2.67,2.67,0,0,1-1.188.66h-.017l-.018-.032a1.164,1.164,0,0,0-2.123.01l-.008.017a.063.063,0,0,0-.02-.006.332.332,0,0,0-.073-.021,2.528,2.528,0,0,1-1.116-.628.2.2,0,0,0-.131-.048.289.289,0,0,0-.236.124c-.085.146-.159.308-.231.465s-.135.3-.213.443a.192.192,0,0,0-.024.216.355.355,0,0,0,.315.157.54.54,0,0,0,.232-.054h.005a2.667,2.667,0,0,1,.112.9c0,.065,0,.119.007.162v.049l-.026-.049-.071-.108a3.387,3.387,0,0,0-1.455-1.448,10.6,10.6,0,0,1,.566.941c.014.027.032.054.051.092a1.672,1.672,0,0,1,.093.178l.024.07-.049-.07a1.728,1.728,0,0,0-.2-.178,1.375,1.375,0,0,0-.274-.157,8.3,8.3,0,0,1,.454.908c.029.065.059.13.094.195v.048l-.024-.037a.763.763,0,0,0-.377-.157,3.264,3.264,0,0,1,.432.838c.021.054.045.108.069.173l.025.021-.045-.016a.9.9,0,0,0-.576-.222,2.631,2.631,0,0,1,.269.541,1.654,1.654,0,0,0,.228.443l.025.022h-.025a.89.89,0,0,0-.711.373,1.759,1.759,0,0,1,.4-.049,1.056,1.056,0,0,1,.485.119c.009.006.022.011.022.027s-.01.022-.022.027a.29.29,0,0,0-.1.108.212.212,0,0,1-.029.049.239.239,0,0,0,.019.022.708.708,0,0,0,.191.092h.074l.025.027-.023.005s-.036.027-.045.032a.515.515,0,0,0-.143.141.185.185,0,0,0-.021.032c.007.006.017.011.03.022a.706.706,0,0,0,.325.086l.025.027-.015.006a.39.39,0,0,0-.061.254v.022s.009.005.015.005a.757.757,0,0,0,.234.032h.024l-.024.022c-.026.054-.053.108-.074.151l0,.011a.433.433,0,0,1-.282.108c-.015,0-.029.006-.045.006a.985.985,0,0,1-.12.011.507.507,0,0,1-.49-.282.515.515,0,0,1,.253-.675.384.384,0,0,0-.142-.022.549.549,0,0,0-.395.168.4.4,0,0,0-.1.319v.01c0,.017,0,.022-.018.027v.011c-.1.092-.126.184-.1.384V15.8L105,15.78a.423.423,0,0,0-.242-.065.382.382,0,0,0-.31.124.155.155,0,0,1,.05-.005.243.243,0,0,1,.208.1.048.048,0,0,1-.008.054.457.457,0,0,0-.119.211.818.818,0,0,1,.361-.081.244.244,0,0,1,.135.027h.023l-.023.011c-.048.054-.135.254-.055.335,0,.005.009.011.015.011a.057.057,0,0,1,.015-.011l.013-.016a.394.394,0,0,1,.3-.173c.018,0,.036-.006.055-.006a1.454,1.454,0,0,1,.218.022,1.779,1.779,0,0,0,.239.022c.306-.011.336-.195.417-.276-.185.5.374.454.524.3a.182.182,0,0,0,.054-.124.452.452,0,0,1-.206.07.132.132,0,0,1-.051-.011.329.329,0,0,1-.159-.351c.013-.124.077-.211.176-.222l.153.017a1.027,1.027,0,0,0,.123.01c.029,0,.058.006.081.006a.931.931,0,0,0,.434-.108v-.022l.01.027a1.539,1.539,0,0,0,.054.443c.012.049.022.1.031.146a1.213,1.213,0,0,1,.416-.151.888.888,0,0,0,.428-.167v-.028l.007.022a.8.8,0,0,0,.414.422,1.92,1.92,0,0,1,.259.189c.017.016.047.049.061.065.014-.016.043-.049.061-.065a1.824,1.824,0,0,1,.258-.189.954.954,0,0,0,.424-.416v-.028l.011.022a.756.756,0,0,0,.414.173,1.2,1.2,0,0,1,.417.151c.009-.048.02-.1.031-.146a1.961,1.961,0,0,0,.066-.448v-.022l.007.016a.882.882,0,0,0,.425.114c.025,0,.053-.006.082-.006s.069-.005.107-.005c.022.027.052.065.068.081,0,.13-.121.011-.213.011a.127.127,0,0,0-.116.114.2.2,0,0,0,.4-.082l.046.017c.15.081.023.237,0,.264a.3.3,0,0,1-.214.087.792.792,0,0,0,.358.108.236.236,0,0,0,.222-.135c.034-.065,0-.184-.143-.259.072.016.255.043.325.064a.54.54,0,0,1,.236.168.272.272,0,0,1,.037.178.318.318,0,0,0,.247-.1.323.323,0,0,0,.073-.265.881.881,0,0,0,.645.184.961.961,0,0,0,.431-.146.977.977,0,0,1,.355-.136c.05,0,.074.136.082.179a.342.342,0,0,0,.084-.157.155.155,0,0,0-.066-.135c-.012-.011-.036-.022-.031-.043a.4.4,0,0,1,.139-.06.7.7,0,0,1,.363-.049.335.335,0,0,1,.213.136.176.176,0,0,1-.018.189.9.9,0,0,0-.135.27.777.777,0,0,0,.363-.1.276.276,0,0,0,.1-.076.021.021,0,0,1,.039.011.372.372,0,0,1-.019.119.826.826,0,0,1-.132.238.834.834,0,0,0,.651-.319c.177.124.323.243.323.243a.687.687,0,0,0,.881-.032c.07.086.592-.011.7-.033a3.7,3.7,0,0,1,.424-.086.926.926,0,0,1,.456.016,3.46,3.46,0,0,1,.389.151,2.207,2.207,0,0,0,.541.206,1.535,1.535,0,0,0,.413,0,1.224,1.224,0,0,0,.508-.195,1.176,1.176,0,0,0,.211-.249,2.9,2.9,0,0,0,.343.157,6.374,6.374,0,0,0,.635.184,1.532,1.532,0,0,0,.544.038,1.116,1.116,0,0,0,.54-.265.725.725,0,0,0,.254-.438v.011c.1-.5-.071-.692-.554-.849m-17.72,1.157h-.024v-.027c.018-.059.1-.092.147-.124l.015.005c-.027-.043-.007-.048-.077-.092a.913.913,0,0,0-.185-.081l.087-.022a.545.545,0,0,1,.18-.016.4.4,0,0,1,.271.146.272.272,0,0,0,.13.087l.026.027-.038.005a.186.186,0,0,0-.082.06.575.575,0,0,0-.45.032m1.478.005a.746.746,0,0,1-.7.125.362.362,0,0,0-.078-.006.5.5,0,0,0-.325.146h-.025v-.016c.033-.259.177-.351.436-.27a.8.8,0,0,0,.257.038,2.309,2.309,0,0,0,.266-.022.69.69,0,0,0,.152-.027h.05Zm.059-.129a1.021,1.021,0,0,1-.478.086.7.7,0,0,1-.573-.238.368.368,0,0,1,.05-.459.449.449,0,0,1,.087-.335.476.476,0,0,1,.341-.168h.075l-.069.022a.413.413,0,0,0-.226.3.594.594,0,0,0,.107.5.891.891,0,0,0,.806.2Zm.514.362c-.294.157-.512-.049-.343-.362.031.032.011.4.343.362m4.561-.324c-.063-.033-.072-.033-.072-.076a.072.072,0,0,1,.072-.07c.04,0,.142.043.142.086a.1.1,0,0,1-.142.06m10.723-.108-.006.005c.015.048.012.119-.044.14l.013.011a.247.247,0,0,1-.277.006.2.2,0,0,1-.018-.141.167.167,0,0,1,.127-.108.175.175,0,0,1,.2.087m-.05-.276,0,.005a1.483,1.483,0,0,1-1.092.022.139.139,0,0,1-.015-.152,2.18,2.18,0,0,0,.564.065,2.012,2.012,0,0,0,.4-.032.232.232,0,0,1,.137.011c.017.016.028.075,0,.081m-.321.443a.555.555,0,0,1-.231.022.59.59,0,0,1-.185-.044.188.188,0,0,1,.045-.145l0-.022a.2.2,0,0,1,.227-.06.261.261,0,0,1,.14.249m-.463-.016a1.766,1.766,0,0,1-.3-.049.108.108,0,0,1-.071-.13.161.161,0,0,1,.209-.1.272.272,0,0,1,.154.275Zm1.105-2.28V13.8a.647.647,0,0,1,.161.281,1.145,1.145,0,0,1,.01.13l0,.005a.477.477,0,0,1-.009.092.467.467,0,0,1-.011.054l0-.011c-.012.06-.034.119-.05.184-.042-.2-.2-.286-.268-.373a.754.754,0,0,1-.07-.5.335.335,0,0,1,.063-.135V13.5c.063.065.1.222.174.287m-6.2-4.664a.09.09,0,1,1-.007.152.092.092,0,0,1,.007-.152m-.229-.156,0,.01a.079.079,0,0,1,.119.087h.011a.094.094,0,0,1-.148.065.1.1,0,0,1,.015-.162m.126.362a.114.114,0,0,1-.118.124.133.133,0,0,1-.1-.129.131.131,0,0,1,.077-.087.109.109,0,0,1,.14.1Zm-.374-.216,0-.011a.091.091,0,0,1,.118.108.093.093,0,0,1-.146.049c-.052-.044-.035-.136.023-.146m.105.362a.112.112,0,0,1-.1.13A.115.115,0,0,1,115.5,9.5a.149.149,0,0,1,.064-.113l0,.016a.1.1,0,0,1,.145.087Zm-.2-.411.009.011a.092.092,0,0,1-.077.108.094.094,0,0,1-.1-.081c-.012-.119.155-.146.17-.038m-.173.173v.011a.087.087,0,0,1,.122.086l0,.006a.09.09,0,0,1-.144.065.1.1,0,0,1,.018-.168m-.155.389a.111.111,0,0,1,.076-.092.127.127,0,0,1,.153.1L115.4,9.63a.121.121,0,0,1-.111.13V9.749a.106.106,0,0,1-.106-.119m.08-.438,0-.005a.092.092,0,0,1-.145.06c-.17-.114.18-.255.148-.055m-.073.249h0a.111.111,0,0,1-.117.119.116.116,0,0,1-.1-.135.129.129,0,0,1,.073-.076.12.12,0,0,1,.147.092m-.32.308a.108.108,0,0,1,.215-.022.121.121,0,0,1-.119.13v-.01a.1.1,0,0,1-.1-.1m.1-.432-.007.011a.091.091,0,0,1-.142.07c-.177-.1.155-.265.149-.081m-.247.146v.01c.06-.027.136.033.124.087l0,.011a.093.093,0,0,1-.148.059.1.1,0,0,1,.026-.167m-.124.248v.011a.139.139,0,0,1,.172.065l-.008.011a.109.109,0,1,1-.215.027.17.17,0,0,1,.05-.114m-.1-.027.006.006a.1.1,0,0,1-.151.075c-.186-.113.174-.286.145-.081m-.2.152v.011a.118.118,0,0,1,.147.086l-.005.005a.113.113,0,0,1-.1.119.11.11,0,0,1-.115-.1.134.134,0,0,1,.076-.119m-.322.2v.01a.073.073,0,0,1,.1.087h.009a.087.087,0,0,1-.142.059.09.09,0,0,1,.034-.156m-.123.394,0-.011a1.252,1.252,0,0,1,.308-.216,2.97,2.97,0,0,1,.85-.281,2.462,2.462,0,0,0,.581-.195c.195-.1.368-.237.567-.329a.375.375,0,0,1,.216-.049.121.121,0,0,1,.1.081,1.075,1.075,0,0,0-.192.033c-.059.027-.109.065-.163.092-.111.07-.223.129-.331.2a1.787,1.787,0,0,1-.423.205c-.19.059-.385.1-.581.141a2.759,2.759,0,0,0-1.019.508.219.219,0,0,1,.09-.179m2.6-.875a.07.07,0,1,1-.064-.1.071.071,0,0,1,.064.1m-.153.054a.07.07,0,1,1-.1-.076.073.073,0,0,1,.1.076m-.191.1a.073.073,0,0,1-.111.059.075.075,0,0,1,.009-.124.069.069,0,0,1,.1.07l.006-.005m-.18.124a.076.076,0,0,1-.117.043.072.072,0,0,1,.019-.118.074.074,0,0,1,.1.075m-.147.1v.022a.08.08,0,0,1-.121.037.07.07,0,0,1,.023-.119.076.076,0,0,1,.1.06m-.293.14a.074.074,0,0,1,0-.124.065.065,0,0,1,.1.06l.006-.006a.063.063,0,0,1-.1.054Zm-.077.028a.074.074,0,0,1-.112.048.07.07,0,0,1,.008-.119.073.073,0,0,1,.1.054Zm-.223.027a.067.067,0,0,1-.105.048.072.072,0,0,1,.008-.119.068.068,0,0,1,.1.071m-.2.054V10.2a.067.067,0,0,1-.1.016.065.065,0,0,1,.027-.108.066.066,0,0,1,.076.076m-.147.048-.024-.011a.063.063,0,0,1-.1.049.071.071,0,0,1,.019-.119.083.083,0,0,1,.108.081m-.2.027v.017a.07.07,0,1,1-.106-.076.068.068,0,0,1,.106.059m-.2.071v.016c.007.038-.05.065-.084.038a.058.058,0,0,1,.009-.1c.036-.016.085.016.074.044m-.15.14a.069.069,0,1,1-.084-.086.07.07,0,0,1,.084.086m-.147.1a.065.065,0,0,1-.108.049.071.071,0,0,1,.024-.119.064.064,0,0,1,.084.07m-.271.005,0-.011c.042-.016.093.027.077.06l.007.011a.063.063,0,0,1-.1.037.056.056,0,0,1,.019-.1m-.027.362a.07.07,0,0,1-.113.049.069.069,0,0,1,.021-.119.071.071,0,0,1,.092.07m.051-.237v.016a.068.068,0,0,1,.1.059l0,.006a.07.07,0,0,1-.115.043.075.075,0,0,1,.02-.124m-.172-.049,0,.011c.05-.022.106.021.1.059l0,.011a.073.073,0,0,1-.112.049.08.08,0,0,1,.019-.13m-.174.492v-.006c-.037-.005-.046-.043-.039-.075a.2.2,0,0,1,.127-.125,1.168,1.168,0,0,1,.014.136l-.008.005a.08.08,0,0,1-.092.065m.458,1.994a.4.4,0,0,0,.155.416c.26.07.433-.152.4-.433a.337.337,0,0,1,.161.038.318.318,0,0,1,.083.146.3.3,0,0,1,.2.022.127.127,0,0,1,.061.092l-.007.005a3.04,3.04,0,0,0-.4.254.813.813,0,0,1-.493.233.718.718,0,0,1-.4-.087.744.744,0,0,1-.309-.33,1.3,1.3,0,0,1-.123-.551,3.225,3.225,0,0,1,.058-.714,1.155,1.155,0,0,0,.268.1,1.734,1.734,0,0,0,.687.022,2.634,2.634,0,0,0-.327.784m-.74-1.054a.643.643,0,0,1-.125-.162,1.931,1.931,0,0,0,1.207.011,1.254,1.254,0,0,0,.313-.146.336.336,0,0,1-.034.1c-.038.07-.08.14-.119.211-.157.367-1,.216-1.242-.017m1.57.211a.765.765,0,0,0-.248.3.666.666,0,0,1-.07-.276.571.571,0,0,1,.054-.194,2.908,2.908,0,0,0,.167-.379.52.52,0,0,0-.017-.129.526.526,0,0,1-.314.227,2.314,2.314,0,0,1-.717.1,1.694,1.694,0,0,1-.236-.011c-.024-.005-.018-.038-.012-.054a2.734,2.734,0,0,1,.328-.795.378.378,0,0,0,.138-.032c.034-.033.031-.087.036-.135a.2.2,0,0,0,.11-.038c.034-.027.031-.081.062-.114s.074-.037.112-.059.074-.076.1-.119a.548.548,0,0,1,.18-.162,1.439,1.439,0,0,1,.6-.173,1.507,1.507,0,0,0,.571-.168c.15-.086.274-.205.417-.3a1.13,1.13,0,0,1,.525-.195,1.472,1.472,0,0,1-.185.135,3.011,3.011,0,0,1,.584-.027.965.965,0,0,1,.314.135c-.018-.032-.037-.059-.056-.086.031,0,.059.005.091.005.015.027.03.054.044.081a1.252,1.252,0,0,1,.055.114.788.788,0,0,1,.185.286l0,.006a.4.4,0,0,1-.077.005,6.436,6.436,0,0,1,.149,1.913.048.048,0,0,1,.044.016c.026.032,0,.07-.007.108-.005.054-.006.108-.01.162.024,0,.049-.005.073-.005.007-.092.012-.179.018-.27a.224.224,0,0,1-.009-.065.209.209,0,0,1,.014-.076c.005-.119.008-.26.007-.4a.183.183,0,0,1-.028-.1.154.154,0,0,1,.026-.086,6.475,6.475,0,0,0-.05-.665.13.13,0,0,1-.027-.081.16.16,0,0,1,.007-.049,2.572,2.572,0,0,0-.236-.778.986.986,0,0,0-.062-.1h.085l.039.07a.665.665,0,0,1,.038.076.1.1,0,0,1,.081-.059l-.05-.082h.083c.013.022.026.044.037.065a.465.465,0,0,1,.027.054.123.123,0,0,1,.028.06,2.913,2.913,0,0,1,.185.67.163.163,0,0,1,.015.087l.008-.011a.148.148,0,0,1-.007.043q.018.114.031.243a.159.159,0,0,1,.069.119l-.007-.005a.148.148,0,0,1-.046.108c0,.059.008.113.009.178a.185.185,0,0,1,.092.141l-.011.005a.172.172,0,0,1-.074.146c0,.081,0,.162,0,.243a.222.222,0,0,1,.115.109,7.407,7.407,0,0,0-.052-1.292c-.012-.055-.026-.108-.04-.163a3.941,3.941,0,0,0-.271-.783c.006.005.012.005.019.01a.189.189,0,0,0-.019-.027.455.455,0,0,1,.083-.005.682.682,0,0,1,.038.07,2.486,2.486,0,0,1,.232.741.877.877,0,0,0,.147.162,3.344,3.344,0,0,0-.1-.476,2.025,2.025,0,0,1-.109-.308c-.015-.027-.028-.059-.042-.086s-.042-.071-.063-.1h.084a.409.409,0,0,1,.035.059c.033,0,.071.006.111.006-.015-.022-.028-.049-.042-.07h.084c.014.027.027.048.041.075a.744.744,0,0,1,.112.006.69.69,0,0,0-.047-.076h.085c.013.022.026.043.039.07,0,.006,0,.006.005.011.038.006.076.006.114.011a.8.8,0,0,0-.047-.087c.028.006.057.006.085.011a.293.293,0,0,1,.032.054c.006.011.01.017.015.027a.878.878,0,0,1,.116.011l0-.005c-.016-.027-.031-.054-.046-.076a.465.465,0,0,1,.088.011l.018.032c.009.017.016.027.024.043a.807.807,0,0,0,.116.011.08.08,0,0,1-.012-.021l-.028-.049.09.016c.011.022.022.043.031.065.042.006.082.006.116.011-.007-.016-.013-.027-.02-.043l0-.006c.029.011.06.016.091.027a2.388,2.388,0,0,1,.181.562.746.746,0,0,0,.047-.189.236.236,0,0,0-.014-.032c-.052-.114-.112-.222-.163-.33a.565.565,0,0,1,.087.043.113.113,0,0,1-.009-.016.635.635,0,0,1,.09.027,2.329,2.329,0,0,1,.108.319,3.687,3.687,0,0,1,.2.541c.015.054.028.113.042.167a3.484,3.484,0,0,0-.215-.978c.029.011.059.027.09.038a4.781,4.781,0,0,1,.225,1.518c.011.1.02.21.028.313.008.119.013.238.023.368l-.01-.006c0,.087-.006.173-.016.265a.226.226,0,0,0,.06.011c.008-.086.015-.173.019-.265a.18.18,0,0,1-.016-.065.2.2,0,0,1,.026-.113,8.365,8.365,0,0,0-.026-1.114.164.164,0,0,1-.036-.086.155.155,0,0,1,.018-.081c-.007-.06-.018-.125-.028-.184a.108.108,0,0,1-.026-.065.208.208,0,0,1,.005-.043c-.009-.044-.019-.092-.031-.135a.125.125,0,0,1-.093-.1.106.106,0,0,1,.04-.092c-.008-.022-.016-.043-.023-.065a.651.651,0,0,0,.088.043v.006a.1.1,0,0,1,.1.113l.012-.005a.1.1,0,0,1-.054.1.634.634,0,0,1,.02.087.079.079,0,0,1,.036-.011.122.122,0,0,1,.093.048c-.019-.086-.04-.178-.066-.259l.085.049a4.327,4.327,0,0,1,.105.556c.007.022.013.038.018.055l-.011-.011v.021c.009.081.018.168.023.26a.16.16,0,0,1,.062.1h-.01a.129.129,0,0,1-.041.108c0,.054,0,.113.005.173a.246.246,0,0,1,.119.162l-.013-.006a.163.163,0,0,1-.106.173c0,.044,0,.092,0,.141a.233.233,0,0,1,.112.14.244.244,0,0,0,0-.037,6.648,6.648,0,0,0-.124-1.751.468.468,0,0,1,.064.043,4.989,4.989,0,0,1,.946.779,3.647,3.647,0,0,1,.34.454,2,2,0,0,1,.2.459,1.839,1.839,0,0,1,.131.5,5.289,5.289,0,0,1,.1.833l0-.011c-.048-.071-.244-.838-.271-.86a2.3,2.3,0,0,0-.147-.356c-.054-.076-.107-.146-.166-.222a.882.882,0,0,0-.247-.184,2.574,2.574,0,0,1-.512-.313.7.7,0,0,1-.188-.309c-.039-.135-.046-.27-.084-.4-.012-.038-.025-.081-.039-.119a7.63,7.63,0,0,1,.058,1.578.072.072,0,0,1,.067-.011c.031.011.029.054,0,.075h.01c-.085.152.019.33,0,.422a.241.241,0,0,0-.108-.016c-.01.1-.022.2-.035.292a.142.142,0,0,1,.037.092v.01a.146.146,0,0,1-.069.125q-.034.21-.073.389a.221.221,0,0,0,.074.113s.008.006.012.006c.009-.038.017-.076.027-.114a.092.092,0,0,1-.077-.07.118.118,0,0,1,.079-.135.062.062,0,0,1,.043,0,9.58,9.58,0,0,0,.144-1.3c0-.1.01-.276.012-.4l.031.037a.082.082,0,0,1,.026.027l.009.011v.006c.318.21.8.475.793.486.238.222-.3,1.195-.352,1.437-.123.589.517,1.141.682,1.691l.012.005c0,.071-.123.076-.2.087a3.621,3.621,0,0,1-.683-.016.658.658,0,0,0-.193-.422,1.154,1.154,0,0,0-.183-.189c-.108-.1-.231-.179-.358-.287s-.25-.243-.379-.373a1.9,1.9,0,0,0-.19-.194.428.428,0,0,0-.26-.043c-.18.005-.438.016-.618.027.015-.076.021-.136.036-.211.423.043.928.086,1.351.13.164.016.326.048.487.075a1.024,1.024,0,0,0,.014-.221c-.006-.076-.006-.114-.011-.265,0-.071,0-.136.005-.206,0-.248.006-.47,0-.659-.027.292-.065.567-.109.8a.1.1,0,0,1,.02.032l-.008.006a.113.113,0,0,1-.045.113c-.009.038-.017.07-.026.108.027-.027.034-.07.061-.1a1.8,1.8,0,0,0,.018.216h-.138a9.68,9.68,0,0,1-.973-.1l-.123-.016a.174.174,0,0,0-.05-.005v-.006c-.037-.005-.075-.005-.112-.01l0,.005a.324.324,0,0,0-.071-.005v-.011c-.036-.006-.074-.006-.112-.011l0,.011a.29.29,0,0,0-.071-.006l0-.01c-.039-.006-.076-.006-.115-.011v.011c-.027-.006-.051-.006-.072-.011l0-.005c-.105-.006-.209-.011-.314-.011v.005c-.124,0-.247,0-.37.006a.368.368,0,0,1-.075.005c-.039,0-.077.005-.117.005-.016,0-.033.006-.049.006a3.505,3.505,0,0,0-.416.054.274.274,0,0,0,.008-.033h0c.015-.065.029-.129.043-.194a.14.14,0,0,1,0-.022,9.442,9.442,0,0,0,.156-1.351,6.33,6.33,0,0,0-.152-1.853.373.373,0,0,0-.109.021.172.172,0,0,0-.066.065c.055,0,.123-.016.163.027.169.13-.109.751-.207.935a5.016,5.016,0,0,1-.619.865,3.151,3.151,0,0,1-.3-.535,1.171,1.171,0,0,1-.158-.476c-.017-.113-.027-.232-.039-.351a1.4,1.4,0,0,0-.007.395.847.847,0,0,1-.072.529,1.057,1.057,0,0,1-.363.319,9.072,9.072,0,0,1-.884.254m6.747-.167a.37.37,0,0,1-.121-.044l-.006-.005a3.873,3.873,0,0,1-.439-.249,2.489,2.489,0,0,1-.331-.27.04.04,0,0,1-.016-.027.663.663,0,0,1-.008-.114,1.224,1.224,0,0,0,.279.222c.1.06.2.119.306.173a.969.969,0,0,1,.263.189.318.318,0,0,1,.071.125m-1.678,3.566-.01.011a7.29,7.29,0,0,1-.942-.27c-.119-.07-.025-.189.128-.13.2.076.643.2.8.243.123.038.118.13.027.146m-.046.341a.578.578,0,0,1-.313-.1.172.172,0,0,1,.02-.125.161.161,0,0,1,.143-.054.251.251,0,0,1,.2.087v-.006c.06.071.007.146-.047.195m-.36-.113a.591.591,0,0,1-.39-.114.156.156,0,0,1,.077-.13.232.232,0,0,1,.3.065.319.319,0,0,1,.027.2V15.92Zm-.445-.119a.434.434,0,0,1-.2-.055c-.039-.027-.088-.054-.095-.108a.113.113,0,0,1,.074-.113.178.178,0,0,1,.165.005.2.2,0,0,1,.055.271m.847-.352c-.106-.027-.2-.049-.288-.076a2.6,2.6,0,0,1-.487-.167c-.031-.016-.023-.054-.015-.081.123-.357.233-.692.349-1.049a.294.294,0,0,1,.193.016.69.69,0,0,1,.215.211.778.778,0,0,0,.112.124c.066.06.116.114.183.173.026.022.162.109.186.13l0,.006a3.742,3.742,0,0,0-.444.713m-3.429-3.431a1.026,1.026,0,0,1-.338.329.979.979,0,0,1-.406.135c0-.032-.007-.3-.01-.373a1.054,1.054,0,0,0,.387-.3,1.206,1.206,0,0,0,.125-.265,1.427,1.427,0,0,1,.079.146c.053.108.105.227.158.319Zm-.785.589a.077.077,0,0,1,.064-.043,1.272,1.272,0,0,0,.53-.222.934.934,0,0,0,.234-.254.463.463,0,0,1,.093.254,3.686,3.686,0,0,0,.351-.422,5.27,5.27,0,0,0,.336-.508,2.16,2.16,0,0,0,.135-.216l.005.005a1.882,1.882,0,0,1-.306,1.092,2.16,2.16,0,0,1-.777.681.958.958,0,0,1-.514.173c-.147-.037-.151-.454-.151-.54m-.669,1.524a1.17,1.17,0,0,1,.318-.351c.111-.076.236-.13.342-.211a.744.744,0,0,0,.167-.195c.03-.048.009-.108.046-.151a2.269,2.269,0,0,0,1.265-.827,1.966,1.966,0,0,0,.336-1.216.089.089,0,0,1,.038-.006,5.214,5.214,0,0,1,0,1.243c-.027.286-.064.573-.1.859a2.9,2.9,0,0,1-.087.524.858.858,0,0,0,.35-.01c.294-.022.72-.033,1.021-.027l-.006.005a1.19,1.19,0,0,1-.026.227h-.708c-.027.049-.061.1-.087.146a1.1,1.1,0,0,1-.38.276,2.023,2.023,0,0,0,.091,1.14c.007.011.012.038.017.049a3.193,3.193,0,0,1-.391.157.3.3,0,0,1-.138.032c-.022,0-.031-.032-.036-.054a.365.365,0,0,1,.032-.227.492.492,0,0,0-.3.119,2.792,2.792,0,0,1-.155-.4,3.245,3.245,0,0,1-.128-.514,4.231,4.231,0,0,1-.039-.438,4.386,4.386,0,0,0-.058-.6.6.6,0,0,0-.1-.249,4.377,4.377,0,0,1,.062.779,1.265,1.265,0,0,0-.816.67,3.5,3.5,0,0,1-.682-.222c-.033-.016-.054-.032-.052-.07a1.729,1.729,0,0,1,.2-.454m3.923.379.009.01c-.092,0-.382-.016-.495-.027a.244.244,0,0,1,.486.017M117.795,15.8c-.13.054-.409.135-.684.227a.779.779,0,0,0-.021-.152,2.083,2.083,0,0,0,.591-.194.194.194,0,0,1,.1-.044.15.15,0,0,1,0,.157Zm-3.227-1.216a.1.1,0,0,1,.1-.048c.021,0,.073.01.073.037-.044.087.125.168.387.255.107.037.255.086.363.113.046.016.053.092.016.108l.007.011c-.066.108-.52-.076-.744-.184-.06-.027-.2-.1-.222-.162a.155.155,0,0,1,.016-.13m.925.849a1.358,1.358,0,0,1-.3-.027.225.225,0,0,1-.1-.038.249.249,0,0,1,.042-.178.2.2,0,0,1,.195-.054.2.2,0,0,1,.158.3m-.848-.211-.023.006a1.117,1.117,0,0,1-.205-.119c-.054-.044-.015-.114.031-.157.167-.173.317.07.2.27m.046.011a.263.263,0,0,1,.087-.168.151.151,0,0,1,.157-.021.256.256,0,0,1,.107.3l-.007.006a.517.517,0,0,1-.344-.119m-2.815.216-.037-.005c-.037,0-.072.005-.1.005a.16.16,0,0,1-.128-.038c-.031-.032-.041-.081-.031-.189v-.011a.829.829,0,0,1,.1-.005c.13,0,.194.124.194.243m.372-.746v.027l-.05.016a.683.683,0,0,1-.188.054.173.173,0,0,1-.134-.07v-.016a.345.345,0,0,1,.217-.1.18.18,0,0,1,.156.092m.641-.395.049.022h-.049c-.053,0-.1-.005-.139-.005a1.164,1.164,0,0,0-.923.351l-.037.033c-.037-.011-.083-.033-.113-.038a.155.155,0,0,0-.059-.017l.018-.016c.1-.092.213-.178.329-.27a.885.885,0,0,0-.322.205c-.015.011-.028.027-.042.038s-.012.011-.021.022l-.015.005c-.034-.01-.066-.016-.11-.032h-.023l.023-.027.025-.016a1.017,1.017,0,0,1,.8-.438,1.257,1.257,0,0,1,.612.183m-.612-.956a1.179,1.179,0,0,1,.465-.254h.025l-.018.027a1.414,1.414,0,0,0-.175.34c-.023.054-.046.114-.071.168a1.271,1.271,0,0,1-.266.384.183.183,0,0,1-.128.059.29.29,0,0,1-.084-.016l.005-.022a1.131,1.131,0,0,0,.218-.275l.009-.011c.009-.016.02-.033.1-.146a.791.791,0,0,0,.073-.135.331.331,0,0,1,.024-.06.316.316,0,0,1,.046-.07,1.449,1.449,0,0,0-.225.276v.021l-.011-.032a.24.24,0,0,0-.012-.081.094.094,0,0,0-.05-.06h-.025l.012-.021a.608.608,0,0,1,.093-.092m-.1.346a.088.088,0,0,1-.082.043l-.022.005a.238.238,0,0,1-.221-.129.071.071,0,0,1,0-.076.137.137,0,0,1,.122-.059.083.083,0,0,1,.035.005.22.22,0,0,1,.165.113c.018.038.018.071-.008.092Zm.362-1.319.074-.049-.018.043a4.491,4.491,0,0,0-.476,1.022v.022l-.018-.006a.535.535,0,0,0-.229.006h-.024l.007-.017c.092-.178.183-.356.273-.54a2.947,2.947,0,0,0-.379.708v.022l-.019-.022a.311.311,0,0,1-.056-.1v-.021h-.005a1.874,1.874,0,0,1,.29-.519c.1-.119.229-.265.36-.4a1.276,1.276,0,0,1,.22-.146m.173-.914.026-.027-.017.043c-.119.211-.194.384-.276.563-.043.1-.087.194-.139.308a2.129,2.129,0,0,1-.151.248l-.139.146a2.577,2.577,0,0,0-.366.573l-.025.049V13.32a.248.248,0,0,0-.025-.1l.012-.005a6.832,6.832,0,0,0,.374-.681c.059-.119.127-.249.184-.357l.042-.071a2.322,2.322,0,0,0-.309.433c-.074.135-.161.3-.228.454l-.074.1v.048l-.015-.07a.726.726,0,0,1-.009-.151h-.007a3.739,3.739,0,0,1,1.143-1.459m-1.162.719c.042-.065.079-.124.116-.189a4.435,4.435,0,0,1,1.138-1.362c.013-.011.045-.033.077-.054s.058-.038.08-.054l.048-.027-.038.048c-.035.054-.068.1-.1.141a1.456,1.456,0,0,0-.107.157c-.019.032-.041.064-.061.1-.119.2-.24.411-.344.616a.869.869,0,0,1-.154.244,6.041,6.041,0,0,0-.629.9l-.025.049.006-.049a.437.437,0,0,1,0-.076.137.137,0,0,0-.006-.048l.006-.006c.147-.248.3-.5.444-.74.076-.13.155-.265.233-.395a4.287,4.287,0,0,0-.658.989l-.049.076.021-.086a2.187,2.187,0,0,0,0-.238Zm.608-1.4c0,.021-.017.037-.05.059a.42.42,0,0,1-.2.06.26.26,0,0,1-.1-.017c-.044-.021-.069-.043-.074-.065s.015-.059.058-.1a.314.314,0,0,1,.182-.059.209.209,0,0,1,.133.038.187.187,0,0,1,.06.075Zm-4.048-.53a1.09,1.09,0,0,1,.409-.454,1.1,1.1,0,0,1,1.166,0,1,1,0,0,1,.406.459l.017.033h0s0,0,0,.005a.117.117,0,0,0-.05.011,4.414,4.414,0,0,1-.951.086,5.2,5.2,0,0,1-.984-.086l-.031-.011.007-.011Zm-1.716.632a.263.263,0,0,1-.1.017.413.413,0,0,1-.2-.06c-.034-.022-.05-.043-.052-.059s.015-.049.052-.081a.207.207,0,0,1,.131-.038.309.309,0,0,1,.182.059c.045.038.063.065.049.1l.009-.006c0,.022-.028.044-.073.065m.005-.243a.453.453,0,0,0-.185-.049.1.1,0,0,0-.054.011l-.1.022.026-.076h.015a.412.412,0,0,1,.188-.054c.022,0,.042.006.062.006a.305.305,0,0,0-.147-.038.049.049,0,0,0-.044.016h-.025v-.027l.017-.006a.368.368,0,0,1,.192-.054.242.242,0,0,1,.065.006.275.275,0,0,0-.149-.043.162.162,0,0,1-.05,0h-.025l.025-.027,0,.01a.37.37,0,0,1,.192-.054.219.219,0,0,1,.063.006.256.256,0,0,0-.146-.038.215.215,0,0,0-.055.005h-.025l.025-.027h0a.434.434,0,0,1,.194-.054.221.221,0,0,1,.063.006.321.321,0,0,0-.148-.038.128.128,0,0,0-.058.011l0-.027a.359.359,0,0,1,.195-.06.231.231,0,0,1,.063.011.269.269,0,0,0-.149-.043h-.062V10.03a.042.042,0,0,0,0-.021l.008.01a.356.356,0,0,1,.188-.054.232.232,0,0,1,.064.006.255.255,0,0,0-.146-.038h-.064V9.911h.01a.436.436,0,0,1,.193-.054.211.211,0,0,1,.062.006.258.258,0,0,0-.147-.038.066.066,0,0,0-.045.011h-.05l.04-.027a.348.348,0,0,1,.193-.06.245.245,0,0,1,.063.011.264.264,0,0,0-.146-.043.157.157,0,0,1-.051-.006l-.026.022.017-.027a.179.179,0,0,1,.16-.065c.061,0,.1.032.169.092l.01.016a1.838,1.838,0,0,0,.62.389,4.344,4.344,0,0,0,3.242,0,1.784,1.784,0,0,0,.629-.4h.007c.069-.065.1-.092.163-.092.078,0,.133.022.152.07l.026.022-.028-.011a.16.16,0,0,0-.049-.005.262.262,0,0,0-.145.043.245.245,0,0,1,.063-.011.289.289,0,0,1,.184.06l.05.027-.047-.011h-.047a.259.259,0,0,0-.147.038.216.216,0,0,1,.062-.006.57.57,0,0,1,.205.054v.022h-.066a.252.252,0,0,0-.145.038.216.216,0,0,1,.062-.006.686.686,0,0,1,.2.044l-.007.01.007.017-.015.005a.164.164,0,0,0-.05-.005.271.271,0,0,0-.147.043.236.236,0,0,1,.063-.011.326.326,0,0,1,.2.065v.022l-.01-.006a.15.15,0,0,0-.048-.005.313.313,0,0,0-.146.038.218.218,0,0,1,.063-.006.411.411,0,0,1,.191.054l.026.027-.031-.005h-.049a.26.26,0,0,0-.147.038.224.224,0,0,1,.064-.006.668.668,0,0,1,.188.044v.027h.026l-.028.005c-.016,0-.03-.005-.047-.005a.273.273,0,0,0-.148.043.227.227,0,0,1,.063-.006.275.275,0,0,1,.185.06h.024v.027l-.024-.011a.143.143,0,0,0-.046-.005.3.3,0,0,0-.145.038c.018,0,.039-.006.061-.006a.334.334,0,0,1,.18.054h.024l.026.054v.022l-.1-.027a.151.151,0,0,0-.051-.006.462.462,0,0,0-.187.049c-.271.135-.3.5-.316.833A14.712,14.712,0,0,0,111.5,13c.033.449.179.7.462.8a.156.156,0,0,0,.058.011h.049l-.015.06a1.045,1.045,0,0,1-.133.14l0-.005a.287.287,0,0,1-.042.038,1.6,1.6,0,0,1-.182.162l.006.005a1.76,1.76,0,0,0-.311.314.22.22,0,0,1-.042.054l-.012-.006a2.9,2.9,0,0,0-1.049.233,2.852,2.852,0,0,1-2.375,0,2.784,2.784,0,0,0-1.038-.227h-.026l.007-.011a.139.139,0,0,1-.058-.054,1.661,1.661,0,0,0-.3-.3c-.055-.048-.144-.135-.192-.173l-.028-.032c-.061-.06-.114-.1-.12-.141l-.025-.054.046.006c.022-.006.05-.011.054-.006l.007-.011c.287-.092.429-.356.461-.8a14.123,14.123,0,0,0,.015-1.524c-.012-.336-.047-.7-.319-.833m-.279,3.107a.11.11,0,0,1-.094-.048.1.1,0,0,1,0-.1.215.215,0,0,1,.164-.113.148.148,0,0,1,.157.054.086.086,0,0,1,.008.076h-.005a.225.225,0,0,1-.218.124Zm-.629-2.8-.05-.1a1.478,1.478,0,0,0-.109-.157.6.6,0,0,1-.087-.141l-.05-.048.055.032c.015.011.043.032.07.049s.066.043.08.054A4.44,4.44,0,0,1,106.539,12c.039.065.078.124.119.184v.011a2.324,2.324,0,0,0,0,.237l.025.076-.045-.081a4.539,4.539,0,0,0-.665-.984c.105.173.205.346.307.514.123.211.245.416.379.627h-.007v.048a.384.384,0,0,0,.007.076v.049l-.027-.044a5.814,5.814,0,0,0-.627-.9.828.828,0,0,1-.155-.244,6.514,6.514,0,0,0-.355-.616m.271,1.1c-.082-.178-.159-.357-.271-.562l-.023-.049.031.033a3.565,3.565,0,0,1,1.131,1.454l.007.005a.778.778,0,0,0-.007.168l-.024.048V13.1l-.064-.1c-.077-.151-.163-.319-.238-.454a2.087,2.087,0,0,0-.317-.433l.036.055c.066.124.137.248.2.373a5.445,5.445,0,0,0,.387.686l-.011.005a.441.441,0,0,0-.014.092v.049l-.027-.054a2.8,2.8,0,0,0-.365-.568l-.139-.146a2.122,2.122,0,0,1-.151-.248c-.051-.108-.095-.206-.136-.3m-.146.33-.026-.049.059.038a1.919,1.919,0,0,1,.233.151c.131.135.263.281.363.406a1.623,1.623,0,0,1,.286.519v.016a.634.634,0,0,1-.05.108l-.024.022,0-.033a3.014,3.014,0,0,0-.379-.7c.095.194.183.367.281.535v.022h-.019a.457.457,0,0,0-.228,0h-.024l0-.011a4.378,4.378,0,0,0-.473-1.027m.091,1.254c-.027-.054-.05-.114-.073-.168a2.1,2.1,0,0,0-.166-.346l-.025-.021.026.011a1.02,1.02,0,0,1,.461.243c.027.016.09.086.08.092l.026.021-.018-.005a.107.107,0,0,0-.059.065c-.011.027-.011.054-.022.092v.021l-.011-.021a1.122,1.122,0,0,0-.212-.276.37.37,0,0,1,.044.07.578.578,0,0,1,.027.06.536.536,0,0,0,.069.135c.08.113.088.13.109.157h-.007a1.075,1.075,0,0,0,.229.275v.022h-.01a.2.2,0,0,1-.077.016.19.19,0,0,1-.127-.059,1.235,1.235,0,0,1-.263-.384m-.248.692c-.042,0-.089.005-.142.005h-.047l.044-.022a1.292,1.292,0,0,1,.618-.183,1.035,1.035,0,0,1,.8.438.071.071,0,0,1,.009.016.035.035,0,0,1,.014.027h.025l-.03.005a.9.9,0,0,1-.093.022h-.024s-.007-.005-.013-.011a.117.117,0,0,0-.012-.016l-.041-.033a.9.9,0,0,0-.322-.205c.12.092.228.178.338.265l0,.016c0,.005,0,.005-.046.022a.6.6,0,0,1-.123.032l-.026-.016a1.117,1.117,0,0,0-.922-.362m.739.475a.885.885,0,0,1-.188-.048l-.049-.022v-.016a.162.162,0,0,1,.154-.1.364.364,0,0,1,.215.092v.027h0a.179.179,0,0,1-.136.07m.271.649a.8.8,0,0,0-.112,0h-.025l0-.049c.056-.145.074-.194.192-.194a.281.281,0,0,1,.1.016h.009c0,.108-.01.157-.041.189a.156.156,0,0,1-.128.038m4.941.216a1.629,1.629,0,0,1-.231.017.952.952,0,0,1-.421-.168.175.175,0,0,0-.016-.027.816.816,0,0,0-.289-.254.628.628,0,0,1,.277.5.975.975,0,0,1-.048.335c0,.011-.012.048-.021.07h-.01a.133.133,0,0,0-.06-.032,1.172,1.172,0,0,0-.219-.065,1.432,1.432,0,0,1-.355-.13.592.592,0,0,1-.2-.178.67.67,0,0,1-.073-.141.587.587,0,0,0-.088-.162c.1.222.142.524-.015.643l-.171.119a2.943,2.943,0,0,0-.338.265l-.025.027-.027-.022a2.9,2.9,0,0,0-.338-.27l-.169-.119c-.156-.119-.112-.421-.015-.638a.53.53,0,0,0-.088.157.68.68,0,0,1-.072.141.593.593,0,0,1-.2.178,1.508,1.508,0,0,1-.357.13,1.176,1.176,0,0,0-.221.065.274.274,0,0,0-.068.032l-.007-.011s-.012-.043-.015-.059a1.037,1.037,0,0,1-.046-.335.61.61,0,0,1,.275-.5.752.752,0,0,0-.289.254.143.143,0,0,0-.017.027c-.015.027-.018.027-.074.054l-.018.011a.788.788,0,0,1-.328.1,1.591,1.591,0,0,1-.231-.017c-.06-.005-.2-.038-.239,0a.6.6,0,0,1,.051-.119,1.448,1.448,0,0,1,.155-.34c.085-.114.695-.53.082-.162a.528.528,0,0,1-.2.086h-.055a1.529,1.529,0,0,1-.474-.059.123.123,0,0,1-.031-.022l.006-.005c.01-.011.021-.027.021-.027a.941.941,0,0,1,.423-.314,1.282,1.282,0,0,1,.828-.016,3.428,3.428,0,0,1,.327.124,2.931,2.931,0,0,0,2.822,0c.128-.054.238-.1.327-.124a1.282,1.282,0,0,1,.828.016.986.986,0,0,1,.423.314.107.107,0,0,0,.028.032l-.012.011-.019.011a1.5,1.5,0,0,1-.529.059.514.514,0,0,1-.2-.086.743.743,0,0,0-.263-.114.91.91,0,0,1,.343.276.4.4,0,0,1,.085.167l.012.022a1.338,1.338,0,0,0,.058.151c.085.168.059.1-.186.119m.134.595c.1-.065.2-.13.163-.3.317.151.144.378-.163.3m.922.005a.308.308,0,0,0-.137-.254.694.694,0,0,0-.2-.086c-.118-.027-.239-.043-.356-.07a.174.174,0,0,1-.05-.011l-.05-.016a.681.681,0,0,1-.17-.087.194.194,0,0,1,.054-.005.115.115,0,0,0,.042.005h.055a.065.065,0,0,0,.031-.005h.007c.054,0,.109-.006.163-.006a.189.189,0,0,1,.053-.005.877.877,0,0,0,.411-.06.57.57,0,0,0,.237-.227,1.676,1.676,0,0,1,.081-.162l.021.1a.386.386,0,0,1-.148.454.3.3,0,0,1,.147.2c.028.141-.077.2-.191.232m.538-.178a1.153,1.153,0,0,1-.385-.249.274.274,0,0,1,.055-.037c.074-.038.15-.076.226-.119a.833.833,0,0,0,.392-.395,1.283,1.283,0,0,0,.074-.535.5.5,0,0,1,.215.146.584.584,0,0,1,.095.211.517.517,0,0,0,.161-.163.586.586,0,0,1-.029.357,2,2,0,0,1-.173.281.438.438,0,0,0,.169-.032,1.311,1.311,0,0,0,.166-.1,1.182,1.182,0,0,1-.161.384.729.729,0,0,1-.8.254m1.866.038a.677.677,0,0,0,.125-.238.274.274,0,0,0-.046-.26.6.6,0,0,0-.55-.048,3.764,3.764,0,0,0-.591.362,1.51,1.51,0,0,1,.509-.427.718.718,0,0,1,.257-.092.866.866,0,0,1,.522.038.273.273,0,0,1,.189.184v-.006c.086.314-.171.433-.414.487m.356.221a.5.5,0,0,0,.1-.421.547.547,0,0,0-.009-.438c.54.011.658.741-.092.859m.333-.9a.25.25,0,0,0-.035-.292.145.145,0,0,0,.129-.162.34.34,0,0,0-.033-.071.167.167,0,0,1,.018-.075,1.072,1.072,0,0,1,.254-.3,1.123,1.123,0,0,1,.5-.254,3.846,3.846,0,0,0,.207,1.076,2.164,2.164,0,0,1,.115.362.609.609,0,0,1-.039.217.387.387,0,0,1-.128.205.214.214,0,0,1-.205.022,2.311,2.311,0,0,0-.51-.238.494.494,0,0,0-.275-.492m1.381.794.007.006a.584.584,0,0,1-.231.14.5.5,0,0,1-.309.027,1,1,0,0,1-.315-.178,1.421,1.421,0,0,0-.291-.178.25.25,0,0,1,.027-.054,1.038,1.038,0,0,1,.282.124.708.708,0,0,0,.211.119.339.339,0,0,0,.28-.022.213.213,0,0,0,.1-.14,1.757,1.757,0,0,1,.117-.373A.3.3,0,0,1,117,15.6c0,.065-.02.108-.005.173a.959.959,0,0,1,.032.27c.083.044.114.141.163.217a.464.464,0,0,1-.242-.017m.278,0a.189.189,0,0,1,.2-.227.178.178,0,0,1,.139.152l.01.005a.6.6,0,0,1-.35.07m.692-.162a.513.513,0,0,1-.266.06c-.016,0-.022-.011-.028-.027a.111.111,0,0,1-.005-.119.207.207,0,0,1,.137-.087.142.142,0,0,1,.145.033c.033.027.037.129.012.129Zm2.492.211-.008.005a1.25,1.25,0,0,1-.819.211.968.968,0,0,1-.248-.059c-.152-.06-.3-.13-.445-.2a1.715,1.715,0,0,0-.4-.146,1.475,1.475,0,0,0-.509.005c0-.038-.007-.092.036-.119a.636.636,0,0,0,.259-.281.471.471,0,0,0,0-.351.342.342,0,0,0-.4-.195.288.288,0,0,1,.429-.146.417.417,0,0,1,.188.265.575.575,0,0,1-.046.351,1.419,1.419,0,0,1-.267.379,2.184,2.184,0,0,1,.458.032c.177.038.344.108.517.152a2.978,2.978,0,0,0,.361.081.609.609,0,0,0,.341-.049.451.451,0,0,0,.134-.081.679.679,0,0,0,.152-.211c.019-.043.007-.075.032-.119.236.011.309.222.357-.265.075.163.123.238.1.3l.01.005a.577.577,0,0,1-.233.438m.36-.292a.088.088,0,0,1-.071.011c-.007-.065.02-.124.016-.189a.642.642,0,0,0-.051-.195.6.6,0,0,0-.177-.227.92.92,0,0,1-.036.254.583.583,0,0,1-.059.141.59.59,0,0,0-.362-.022.11.11,0,0,1,.045.092.363.363,0,0,1-.1.189.417.417,0,0,1-.209.141,1.066,1.066,0,0,1-.47-.027c-.185-.038-.344-.141-.532-.179a2.389,2.389,0,0,0-.479-.016,1.7,1.7,0,0,0,.215-.308.632.632,0,0,0,.049-.481.462.462,0,0,0-.323-.3.308.308,0,0,0-.282.054.435.435,0,0,0-.137.356c.046.011.05-.048.085-.064a.2.2,0,0,1,.158.01.317.317,0,0,1,.188.233.393.393,0,0,1-.06.281.335.335,0,0,1-.223.151c-.027-.075-.038-.048-.077-.1a.28.28,0,0,0,.009-.163.1.1,0,0,0-.078-.086.168.168,0,0,0-.1.011,1.785,1.785,0,0,1-.148-.552c-.009-.124-.005-.254-.007-.378a.207.207,0,0,1,.047-.173,1.754,1.754,0,0,1,.268-.162.464.464,0,0,0,.161-.217c.211,0,.439-.005.646.006a.39.39,0,0,1-.016.1c-.144.027-.25.221-.282.351.111.022.182.027.264.038-.033.1.139.173.15,0l.252.005a.376.376,0,0,0-.234-.378.972.972,0,0,1,.036-.119c.181,0,.374-.032.558-.032-.034.091-.09.27-.112.351-.081.27-.188.524-.28.789a.282.282,0,0,0-.169.065.139.139,0,0,0-.052.113.393.393,0,0,0,.028.092.327.327,0,0,0-.117.173.134.134,0,0,0,.059.13.634.634,0,0,0,.238.108c.19.065.384.135.579.189a1.26,1.26,0,0,0,.245.054.266.266,0,0,0,.182-.21.228.228,0,0,0-.04-.13.225.225,0,0,0,.118-.114.161.161,0,0,0-.038-.135c-.018-.027-.05-.054-.041-.086a.522.522,0,0,1,.08-.163,4.842,4.842,0,0,1,.336-.481,1.213,1.213,0,0,1,.2.168,1,1,0,0,1,.286.357h-.011c.007.021.015.054-.014.065a.157.157,0,0,0-.1.075.242.242,0,0,0,.034.244.38.38,0,0,0-.048.178.66.66,0,0,0,.01.1Zm1.94.119,0,.011a1.016,1.016,0,0,1-.407.259,1.1,1.1,0,0,1-.495.054,4.421,4.421,0,0,1-1-.313,4.7,4.7,0,0,0,1.3.054c.254-.043.606-.395.341-.66-.045-.037-.1-.043-.147-.075.254-.114.309-.016.239-.254a.646.646,0,0,1-.036-.125.62.62,0,0,1,.2,1.049" transform="translate(-73.5 -8.425)" fill="#1a1818"/>
        <path id="Path_1244" data-name="Path 1244" d="M109.651,16.445l-.006-.006a.862.862,0,0,1-.336.125,1.241,1.241,0,0,0,.724.237,2.053,2.053,0,0,1-.382-.356m8.254-5.318a.308.308,0,0,0,.077-.091c.084-.081-.077-.227.068-.546.027-.065.1-.082.2-.087.2-.005.168.168.28.281l.011.006a.862.862,0,0,0-.168-.379.3.3,0,0,0-.4-.048.365.365,0,0,0-.161.3c.011.227.146.292.089.567m-1.478-.1-.011.011a.506.506,0,0,0-.137.016l-.023.016c-.06.038-.108.109-.188.141a.846.846,0,0,1,.1-.151.152.152,0,0,1,.149-.049.441.441,0,0,1,.115.016l0-.005a.207.207,0,0,0-.289-.016c-.04.043-.032.113-.074.156a.636.636,0,0,0-.085.1c.036.027.084.054.126.032s.046-.065.083-.059.042.038.069.048a.167.167,0,0,0,.149-.038c.022-.016.024-.043.041-.064.031,0,.062.021.1.016l.077-.016-.007-.011a.874.874,0,0,1-.19-.141m-.148.173V11.2a.051.051,0,0,1,0-.087c.034-.016.08.011.069.043l.009.006a.054.054,0,0,1-.084.043m-2.72,2.675v0Z" transform="translate(-74.813 -8.782)" fill="#1a1818"/>
        <path id="Path_1245" data-name="Path 1245" d="M112.09,9.312l-.342.357a1.009,1.009,0,0,1,.115.086Zm-.348,6.89a2.066,2.066,0,0,1-.383.357,1.242,1.242,0,0,0,.725-.238.879.879,0,0,1-.336-.124Z" transform="translate(-75.368 -8.54)" fill="#1a1818"/>
        <path id="Path_1246" data-name="Path 1246" d="M108.582,9.9l.4.3a.78.78,0,0,1,.06-.1Zm3.34-.589-.7.541c.03.032.058.064.085.091Z" transform="translate(-74.617 -8.54)" fill="#1a1818"/>
        <path id="Path_1247" data-name="Path 1247" d="M108.48,9.093l.63.649c.028-.033.057-.065.088-.1Zm.789-.573.3.854a1.038,1.038,0,0,1,.12-.054Z" transform="translate(-74.589 -8.325)" fill="#1a1818"/>
        <path id="Path_1248" data-name="Path 1248" d="M111.366,8.527l-.436.795.115.049Zm-.555.249-.159.47a.888.888,0,0,1,.118.022Zm-.782.011.038.486a1.132,1.132,0,0,1,.133-.032Zm-.719.308.234.438a.94.94,0,0,1,.109-.076Z" transform="translate(-74.814 -8.327)" fill="#1a1818"/>
        <path id="Path_1249" data-name="Path 1249" d="M143.7,16.3c1.782-.005,2.531-.924,2.531-2.366l-.005-2.951c.005-.962.27-1.378,1.185-1.513l0-.135h-2.768v.119a1.309,1.309,0,0,1,1.332,1.529V13.9a2.2,2.2,0,0,1-.556,1.632,1.744,1.744,0,0,1-1.22.427,1.673,1.673,0,0,1-1.869-1.913l0-4c0-.395.239-.541.93-.568l-.007-.135h-3.376v.119c.822.043,1.027.2,1.027.573L140.912,14c.005,1.578,1.008,2.3,2.8,2.3m-8.843-.357V9.507h.583c1.538.011,2.317.7,2.317,3.2s-.6,3.242-2.3,3.242Zm-2.427.195h3.325a3.278,3.278,0,0,0,3.551-3.518c0-1.919-1.225-3.275-3.7-3.275l-3.176-.006v.119c.8.043,1,.2,1,.573l-.008,5.4c.008.384-.2.53-1.006.563Zm-2.062.091h.461V10.987c.006-.968.268-1.378,1.185-1.513l0-.135h-2.768v.119a1.31,1.31,0,0,1,1.342,1.529l-.005,3.232-3.764-4.88h-2.28v.119a1.112,1.112,0,0,1,1.189,1.135v3.891c0,.973-.282,1.394-1.2,1.508l.009.146h2.743v-.146c-1-.1-1.308-.536-1.308-1.518l0-3.9Zm-10-.091h3.5v-.146c-.837-.033-1.033-.179-1.033-.552l-.011-5.4c.011-.384.206-.541,1.054-.568l-.01-.135h-3.5v.119c.857.043,1.05.2,1.05.573l-.007,5.4c.007.384-.186.53-1.036.563Zm-8.272,0h3.369v-.146c-.7-.033-.93-.152-.93-.552l.007-2.729H117.3v2.718c-.007.411-.248.53-.949.563v.146h3.373v-.146c-.815-.033-1.006-.173-1.006-.552l-.012-5.42c.012-.367.2-.519,1.024-.546l-.005-.135h-3.373v.119c.7.043.941.179.941.562l.007,2.475H114.55V10.02c-.007-.383.225-.519.927-.546l0-.135H112.1v.119c.815.043,1.02.195,1.02.562v5.409c0,.39-.205.53-1.012.563Zm-34.9,0h6.069l.048-2.454-.145-.027c-.714,1.686-1.163,2.291-2.573,2.291l-.97-.005V12.69h.412c.782.005,1.23.346,1.494,1.351l.132.006V11.182h-.12c-.275,1-.723,1.34-1.5,1.34l-.412-.005V9.507h1.019c1.2.011,1.568.654,2.25,2.161h.153L83,9.339H77.2v.119c.806.043,1.01.2,1.01.573l.009,5.4c-.009.384-.213.53-1.021.563Zm-8.2,0h3.373v-.146c-.712-.033-.946-.152-.946-.552V12.711H74.17v2.718c.005.411-.239.53-.941.563l-.007.146h3.4v-.146c-.83-.033-1.024-.173-1.024-.552l.005-5.42c-.005-.367.189-.519,1.008-.546l.012-.135h-3.4v.119c.709.043.952.179.952.562l-.005,2.475H71.428V10.02c0-.383.234-.519.935-.546l.01-.135H69v.119c.8.043,1,.195,1,.562L70,15.429c.009.39-.2.53-1,.563Zm-5.681,0h3.69v-.146c-.869-.017-1.132-.179-1.132-.552l-.008-5.933h.243c.749.011,1.334.757,2.015,2.085l.144-.021-.049-2.232H62.107l-.073,2.232.146.027c.7-1.356,1.291-2.08,2.031-2.08l.249-.011v5.922c-.006.384-.278.546-1.135.563ZM98.821,9.8c.026.043.049.081.071.124l.387-.313ZM97.7,9.15l-.066-.9-.058.9H97.7" transform="translate(-62.034 -8.253)" fill="#1a1818"/>
      </g>
    </g>
  </g>
<!-- Code injected by live-server -->
<script type="text/javascript">
	// <![CDATA[  <-- For SVG support
	if ('WebSocket' in window) {
		(function () {
			function refreshCSS() {
				var sheets = [].slice.call(document.getElementsByTagName("link"));
				var head = document.getElementsByTagName("head")[0];
				for (var i = 0; i < sheets.length; ++i) {
					var elem = sheets[i];
					var parent = elem.parentElement || head;
					parent.removeChild(elem);
					var rel = elem.rel;
					if (elem.href && typeof rel != "string" || rel.length == 0 || rel.toLowerCase() == "stylesheet") {
						var url = elem.href.replace(/(&|\?)_cacheOverride=\d+/, '');
						elem.href = url + (url.indexOf('?') >= 0 ? '&' : '?') + '_cacheOverride=' + (new Date().valueOf());
					}
					parent.appendChild(elem);
				}
			}
			var protocol = window.location.protocol === 'http:' ? 'ws://' : 'wss://';
			var address = protocol + window.location.host + window.location.pathname + '/ws';
			var socket = new WebSocket(address);
			socket.onmessage = function (msg) {
				if (msg.data == 'reload') window.location.reload();
				else if (msg.data == 'refreshcss') refreshCSS();
			};
			if (sessionStorage && !sessionStorage.getItem('IsThisFirstTime_Log_From_LiveServer')) {
				console.log('Live reload enabled.');
				sessionStorage.setItem('IsThisFirstTime_Log_From_LiveServer', true);
			}
		})();
	}
	else {
		console.error('Upgrade your browser. This Browser is NOT supported WebSocket for Live-Reloading.');
	}
	// ]]>
</script></svg>
