<svg width="19" height="19" viewBox="0 0 19 19" fill="none" xmlns="http://www.w3.org/2000/svg">
<path d="M9.5 0C8.1888 0 6.95492 0.247393 5.79834 0.742187C4.64176 1.23698 3.63363 1.91422 2.77393 2.77393C1.91422 3.63363 1.23698 4.64176 0.742187 5.79834C0.247393 6.95492 0 8.1888 0 9.5C0 10.8112 0.247393 12.0451 0.742187 13.2017C1.23698 14.3582 1.91422 15.3664 2.77393 16.2261C3.63363 17.0858 4.64176 17.763 5.79834 18.2578C6.95492 18.7526 8.1888 19 9.5 19C10.8112 19 12.0451 18.7526 13.2017 18.2578C14.3582 17.763 15.3664 17.0858 16.2261 16.2261C17.0858 15.3664 17.763 14.3582 18.2578 13.2017C18.7526 12.0451 19 10.8112 19 9.5C19 8.1888 18.7526 6.95492 18.2578 5.79834C17.763 4.64176 17.0858 3.63363 16.2261 2.77393C15.3664 1.91422 14.3582 1.23698 13.2017 0.742187C12.0451 0.247393 10.8112 0 9.5 0ZM13.3779 10.0195L10.0195 13.3779C9.9082 13.5016 9.76904 13.5635 9.60205 13.5635C9.43506 13.5635 9.2959 13.5016 9.18457 13.3779C9.06087 13.2666 8.99902 13.1274 8.99902 12.9604C8.99902 12.7935 9.06087 12.6543 9.18457 12.543L11.6338 10.0938H5.34375C5.18294 10.0938 5.04378 10.035 4.92627 9.91748C4.80876 9.79997 4.75 9.66081 4.75 9.5C4.75 9.33919 4.80876 9.20003 4.92627 9.08252C5.04378 8.96501 5.18294 8.90625 5.34375 8.90625H11.6338L9.18457 6.45703C9.06087 6.3457 8.99902 6.20654 8.99902 6.03955C8.99902 5.87256 9.06087 5.7334 9.18457 5.62207C9.2959 5.49837 9.43506 5.43652 9.60205 5.43652C9.76904 5.43652 9.9082 5.49837 10.0195 5.62207L13.3779 8.98047C13.4521 9.05469 13.5016 9.13818 13.5264 9.23096C13.5511 9.32373 13.5511 9.41341 13.5264 9.5C13.5511 9.58659 13.5511 9.67627 13.5264 9.76904C13.5016 9.86182 13.4521 9.94531 13.3779 10.0195Z" fill="#F08200"/>
</svg>
