<svg width="79" height="28" viewBox="0 0 79 28" fill="none" xmlns="http://www.w3.org/2000/svg">
<g clip-path="url(#clip0_280_339)">
<path d="M38.266 1.3994e-06C39.0621 -0.00316822 39.8413 0.229806 40.505 0.669462C41.1687 1.10912 41.6871 1.73571 41.9947 2.47C42.3023 3.2043 42.3852 4.01331 42.233 4.79474C42.0808 5.57617 41.7003 6.29491 41.1396 6.86009C40.579 7.42527 39.8633 7.81149 39.0831 7.96992C38.3029 8.12835 37.4932 8.05187 36.7565 7.75015C36.0198 7.44843 35.3891 6.93503 34.9441 6.27485C34.4992 5.61468 34.26 4.8374 34.2568 4.04129C34.2568 2.97502 34.6782 1.95194 35.4291 1.19496C36.1801 0.437991 37.1998 0.00847511 38.266 1.3994e-06" fill="#F99D1C"/>
<path d="M9.90251 27.7645H0V24.5529H0.733321C1.21506 24.5529 1.381 24.2799 1.381 23.8356V13.917C1.381 13.4674 1.21506 13.1998 0.733321 13.1998H0V9.92391H8.92832V12.702C10.2023 10.9088 11.867 9.54922 14.5219 9.54922C18.0386 9.54922 19.2162 10.957 19.623 13.0392C20.1879 11.9856 21.0277 11.1047 22.0531 10.4902C23.0785 9.87569 24.2513 9.55051 25.4468 9.54922C29.9056 9.54922 30.5158 11.6903 30.5158 14.8698V23.8463C30.5158 24.2906 30.7138 24.5636 31.2652 24.5636H31.8326V27.7752H22.1013V24.5636H22.3636C22.8132 24.5636 23.0113 24.2906 23.0113 23.8463V15.6888C23.0113 14.2168 22.5081 13.7457 21.4804 13.7457C20.1208 13.7457 19.6766 14.8698 19.6766 16.6041V23.8142C19.6766 24.2906 19.88 24.5636 20.3296 24.5636H20.731V27.7752H11.2675V24.5636H11.5404C11.974 24.5636 12.1774 24.2906 12.1774 23.8463V15.6888C12.1774 14.2168 11.6743 13.7457 10.6465 13.7457C9.28695 13.7457 8.84803 14.8698 8.84803 16.6041V23.8142C8.84803 24.2906 9.01932 24.5636 9.49571 24.5636H9.90251V27.7645Z" fill="#F99D1C"/>
<path d="M34.5782 13.917C34.5782 13.4674 34.4123 13.1998 33.9305 13.1998H33.1865V9.92392H42.0453V23.841C42.0453 24.3173 42.2165 24.5903 42.6929 24.5903H43.3567V27.802H33.1865V24.5903H33.9198C34.4016 24.5903 34.5675 24.3173 34.5675 23.8731L34.5782 13.917Z" fill="#F99D1C"/>
<path d="M54.8009 27.7645H44.8984V24.5529H45.6318C46.1082 24.5529 46.2794 24.2799 46.2794 23.8356V13.917C46.2794 13.4674 46.1082 13.1998 45.6318 13.1998H44.8984V9.92391H53.7465V12.7341C54.3953 11.7512 55.2788 10.9454 56.317 10.3893C57.3552 9.8333 58.5156 9.54458 59.6933 9.54922C63.8203 9.54922 64.7142 11.6903 64.7142 14.8698V23.8463C64.7142 24.2906 64.8801 24.5636 65.4261 24.5636H66.0256V27.7752H56.1605V24.5636H56.5673C57.0063 24.5636 57.215 24.2906 57.215 23.8463V15.6888C57.215 14.2168 56.6797 13.7457 55.6841 13.7457C54.6885 13.7457 53.7465 14.5272 53.7465 16.2615V23.8142C53.7329 23.9139 53.7422 24.0154 53.7737 24.111C53.8051 24.2066 53.8579 24.2938 53.9281 24.366C53.9982 24.4382 54.0838 24.4935 54.1785 24.5278C54.2731 24.562 54.3743 24.5742 54.4744 24.5636H54.8009V27.7645Z" fill="#F99D1C"/>
<path d="M65.8379 9.92392L68.4714 9.82221L68.7872 5.76486H75.4728V9.92392H78.6255V13.2694H75.4728V21.3519C75.4728 23.4609 75.8796 24.1461 78.1973 24.1461H78.7914V27.7645C77.3214 27.9258 75.8436 28.0044 74.3647 28C70.1415 28 68.0057 26.6886 68.0057 23.1826V13.2694H65.8647L65.8379 9.92392Z" fill="#F99D1C"/>
</g>
<defs>
<clipPath id="clip0_280_339">
<rect width="78.7972" height="28" fill="white"/>
</clipPath>
</defs>
</svg>
