<svg width="61" height="61" viewBox="0 0 61 61" fill="none" xmlns="http://www.w3.org/2000/svg">
<ellipse cx="30.1906" cy="30.6761" rx="30.1281" ry="29.7561" fill="url(#paint0_linear_79_940)" fill-opacity="0.1"/>
<g clip-path="url(#clip0_79_940)">
<path d="M46.4938 16.7044H35.9946C35.9927 16.0488 35.7636 15.4141 35.3464 14.9083C34.9292 14.4025 34.3496 14.0569 33.7062 13.9303C33.6331 13.9161 33.5579 13.9165 33.4849 13.9314C33.4119 13.9463 33.3426 13.9755 33.2809 14.0173C33.2193 14.0591 33.1665 14.1126 33.1256 14.1749C33.0846 14.2371 33.0564 14.3068 33.0425 14.38L32.6001 16.7008H28.0703L27.617 14.38C27.5872 14.2324 27.5005 14.1024 27.3756 14.0183C27.2507 13.9342 27.0977 13.9025 26.9497 13.9303C26.3053 14.0561 25.7244 14.4012 25.3059 14.907C24.8873 15.4128 24.657 16.0479 24.654 16.7044H13.629C13.5544 16.7039 13.4804 16.7182 13.4113 16.7464C13.3423 16.7746 13.2795 16.8162 13.2266 16.8688C13.1736 16.9214 13.1316 16.9839 13.103 17.0528C13.0743 17.1217 13.0596 17.1955 13.0596 17.2701V34.2665C13.0596 34.4175 13.1196 34.5623 13.2263 34.669C13.3331 34.7758 13.4779 34.8358 13.629 34.8358H27.831C27.7026 35.1836 27.6737 35.5604 27.7476 35.9237L26.5254 40.3115C26.3517 40.2367 26.1737 40.1725 25.9923 40.1193C25.2364 39.9087 24.4351 39.9268 23.6896 40.1715C22.9441 40.4162 22.2879 40.8765 21.804 41.494C21.3201 42.1116 21.0301 42.8588 20.9708 43.6411C20.9116 44.4234 21.0856 45.2057 21.471 45.8891C21.8563 46.5726 22.4357 47.1264 23.1358 47.4806C23.8359 47.8348 24.6253 47.9735 25.4043 47.8791C26.1832 47.7848 26.9167 47.4616 27.512 46.9505C28.1072 46.4393 28.5376 45.7632 28.7485 45.0075L30.0614 40.3477L31.3561 45.0111C31.567 45.7719 31.999 46.4529 32.5972 46.9681C33.1955 47.4832 33.9331 47.8093 34.7168 47.905C35.5005 48.0007 36.295 47.8617 36.9997 47.5057C37.7043 47.1497 38.2875 46.5925 38.6753 45.9049C39.0631 45.2173 39.2382 44.43 39.1783 43.6429C39.1184 42.8557 38.8262 42.104 38.3388 41.483C37.8514 40.8619 37.1907 40.3995 36.4402 40.1541C35.6898 39.9088 34.8834 39.8916 34.1233 40.1048C33.9327 40.1582 33.7461 40.2248 33.5647 40.3042L32.3281 35.8403L32.5239 34.8358H46.4938C46.6448 34.8358 46.7896 34.7758 46.8964 34.669C47.0032 34.5623 47.0632 34.4175 47.0632 34.2665V17.2701C47.0632 17.1955 47.0485 17.1217 47.0198 17.0528C46.9911 16.9839 46.9491 16.9214 46.8962 16.8688C46.8433 16.8162 46.7805 16.7746 46.7114 16.7464C46.6424 16.7182 46.5684 16.7039 46.4938 16.7044ZM34.029 15.2539C34.3338 15.436 34.5746 15.7082 34.7182 16.033C34.8618 16.3577 34.901 16.719 34.8305 17.067L32.6545 28.1671C32.6532 28.1876 32.6532 28.2082 32.6545 28.2287L31.5447 33.9111C31.4247 33.7973 31.292 33.6975 31.1494 33.6137L31.0732 33.5702C30.8901 33.4666 30.6936 33.3886 30.4893 33.3381L34.029 15.2539ZM29.9743 36.6707C29.7498 36.6707 29.5304 36.6041 29.3437 36.4794C29.157 36.3547 29.0115 36.1774 28.9256 35.97C28.8397 35.7626 28.8172 35.5344 28.861 35.3142C28.9048 35.0941 29.0129 34.8918 29.1717 34.7331C29.3304 34.5744 29.5327 34.4663 29.7529 34.4225C29.9731 34.3787 30.2013 34.4011 30.4087 34.487C30.6162 34.573 30.7935 34.7184 30.9182 34.9051C31.0429 35.0917 31.1095 35.3112 31.1095 35.5357C31.1095 35.8367 30.9899 36.1254 30.777 36.3383C30.5641 36.5511 30.2754 36.6707 29.9743 36.6707ZM19.8197 31.4343C19.4822 30.7053 19.0208 30.0403 18.4561 29.4689C17.8829 28.9012 17.2137 28.4396 16.4795 28.1054V23.442C17.9635 22.774 19.1516 21.586 19.8197 20.1022H31.9291L31.6245 21.6579C30.6222 21.285 29.5202 21.2791 28.5139 21.6411C27.5076 22.0032 26.6621 22.7098 26.1271 23.6357C25.5922 24.5617 25.4024 25.6471 25.5915 26.6996C25.7806 27.7521 26.3363 28.7036 27.1601 29.3855L27.2108 29.4326C27.9756 30.0536 28.9242 30.4042 29.9091 30.4299L29.7096 31.4343H19.8197ZM30.1339 29.3021H30.0614C29.3053 29.3032 28.5714 29.0474 27.9797 28.5768L27.9325 28.537C27.5364 28.2214 27.2168 27.8203 26.9976 27.3638C26.7784 26.9073 26.6653 26.4071 26.6668 25.9006C26.6687 25.001 27.027 24.1388 27.6632 23.5027C28.2994 22.8666 29.1617 22.5084 30.0614 22.5065C30.5231 22.5063 30.9799 22.6014 31.4033 22.7857L30.1339 29.3021ZM26.6306 15.2466L26.9134 16.6972H25.7892C25.7907 16.403 25.8692 16.1144 26.0168 15.8599C26.1644 15.6055 26.376 15.394 26.6306 15.2466ZM14.1947 33.7008V17.8358H32.3679L32.1467 18.9708H19.428C19.3808 18.9731 19.3343 18.9829 19.2902 18.9998H19.214C19.1853 19.0146 19.1585 19.0329 19.1342 19.0542C19.0974 19.0725 19.0633 19.0957 19.0327 19.1231L18.9964 19.1775C18.9632 19.2173 18.9352 19.2612 18.913 19.3081C18.6277 20.0381 18.1942 20.7011 17.64 21.2553C17.0857 21.8095 16.4226 22.2429 15.6925 22.5282C15.6485 22.5501 15.6072 22.5768 15.5692 22.608L15.5076 22.6479L15.4459 22.7349L15.3843 22.8256C15.3825 22.8509 15.3825 22.8764 15.3843 22.9017C15.3652 22.9464 15.3553 22.9945 15.3553 23.0431V28.4681C15.3563 28.5162 15.3649 28.5639 15.3806 28.6095C15.385 28.6352 15.391 28.6607 15.3988 28.6856C15.4168 28.7175 15.4374 28.7478 15.4604 28.7763L15.5185 28.8633L15.5837 28.9068C15.6207 28.9384 15.6623 28.9641 15.707 28.983C16.4377 29.2671 17.1011 29.7006 17.6546 30.2558C18.2082 30.8105 18.6416 31.4734 18.9275 32.2031L18.9493 32.2358C18.9727 32.2847 19.0032 32.3299 19.0399 32.3699L19.0835 32.4098C19.1198 32.4397 19.1586 32.4664 19.1995 32.4896L19.2575 32.515C19.3213 32.5394 19.3888 32.5528 19.457 32.5549H29.4956L29.3361 33.3744C29.0922 33.4444 28.8617 33.5547 28.6542 33.7008H14.1947ZM27.6569 44.6993C27.494 45.2793 27.1505 45.7923 26.6764 46.164C26.2022 46.5357 25.622 46.7468 25.0198 46.7666C24.4177 46.7865 23.8248 46.614 23.3272 46.2743C22.8297 45.9346 22.4532 45.4452 22.2525 44.8772C22.0518 44.3092 22.0372 43.692 22.2108 43.1151C22.3845 42.5382 22.7373 42.0316 23.2183 41.6688C23.6992 41.3059 24.2833 41.1056 24.8857 41.097C25.4882 41.0883 26.0777 41.2717 26.5689 41.6206C26.6298 41.6637 26.6986 41.6943 26.7714 41.7107C26.8441 41.7271 26.9194 41.7289 26.9929 41.7161C27.0664 41.7033 27.1366 41.6761 27.1995 41.636C27.2624 41.596 27.3168 41.5439 27.3595 41.4828C27.3969 41.4303 27.424 41.3713 27.4393 41.3087L28.5636 37.2872C28.7897 37.4729 29.0495 37.6133 29.3288 37.7006L29.4739 38.2227L27.6569 44.6993ZM33.0207 41.6931C33.1065 41.7236 33.1982 41.7333 33.2884 41.7213C33.3786 41.7093 33.4646 41.676 33.5394 41.6242C33.8039 41.434 34.0997 41.2916 34.4134 41.2035C34.953 41.056 35.5243 41.0715 36.0551 41.2481C36.586 41.4248 37.0526 41.7547 37.3961 42.1962C37.7397 42.6377 37.9448 43.171 37.9856 43.7289C38.0263 44.2868 37.9009 44.8443 37.6252 45.3311C37.3495 45.8178 36.9358 46.212 36.4363 46.464C35.9368 46.7159 35.3738 46.8143 34.8185 46.7467C34.2631 46.6791 33.7402 46.4486 33.3157 46.0842C32.8912 45.7199 32.5841 45.2379 32.4332 44.6993L30.5836 38.0487C30.5836 38.0487 30.5836 38.0487 30.5836 38.0269L30.5002 37.7404C30.8797 37.6459 31.2283 37.4548 31.5121 37.1856L32.6581 41.3051C32.6835 41.393 32.7297 41.4736 32.7928 41.5398C32.856 41.6061 32.9341 41.6562 33.0207 41.6858V41.6931ZM45.9281 33.7153H32.7415L33.7497 28.5297C34.3019 27.7714 34.598 26.8568 34.5947 25.9188C34.5911 25.5656 34.5473 25.214 34.4642 24.8708L35.1605 21.2916H36.2956V20.153H35.3817L35.6029 19.0216H36.2956V17.8358H45.9281V33.7153Z" fill="#666666"/>
<path d="M33.52 44.3911C33.6298 44.7879 33.8799 45.1313 34.2237 45.3577C34.5676 45.5842 34.9819 45.6782 35.3898 45.6224C35.7977 45.5666 36.1715 45.3648 36.4419 45.0543C36.7123 44.7439 36.8609 44.3459 36.8601 43.9342C36.8595 43.7811 36.8388 43.6287 36.7985 43.4809C36.7554 43.2489 36.6645 43.0284 36.5315 42.8334C36.3985 42.6385 36.2265 42.4733 36.0262 42.3484C35.8259 42.2235 35.6019 42.1417 35.3683 42.1081C35.1347 42.0745 34.8966 42.0899 34.6693 42.1533C34.4419 42.2167 34.2303 42.3267 34.0478 42.4764C33.8653 42.626 33.7159 42.8119 33.6092 43.0224C33.5024 43.2329 33.4407 43.4633 33.4278 43.6989C33.415 43.9346 33.4513 44.1703 33.5345 44.3911H33.52ZM34.666 43.6659C34.7211 43.5686 34.8038 43.4898 34.9037 43.4395C35.0035 43.3892 35.116 43.3696 35.227 43.3832C35.338 43.3968 35.4424 43.4429 35.5272 43.5158C35.612 43.5887 35.6732 43.6851 35.7032 43.7928C35.728 43.8656 35.7376 43.9426 35.7315 44.0193C35.7255 44.0959 35.7039 44.1705 35.668 44.2385C35.6321 44.3065 35.5828 44.3665 35.523 44.4148C35.4632 44.4631 35.3941 44.4987 35.3201 44.5195C35.246 44.5402 35.1686 44.5456 35.0923 44.5354C35.0161 44.5252 34.9428 44.4995 34.8769 44.46C34.8109 44.4205 34.7537 44.368 34.7087 44.3057C34.6637 44.2433 34.6319 44.1724 34.6152 44.0974C34.5952 44.0255 34.5897 43.9502 34.599 43.8762C34.6083 43.8021 34.6324 43.7306 34.6696 43.6659H34.666Z" fill="#666666"/>
<path d="M25.3818 42.2995C25.1627 42.2232 24.9302 42.1926 24.6988 42.2097C24.4674 42.2268 24.2419 42.2911 24.0364 42.3987C23.8308 42.5064 23.6495 42.655 23.5036 42.8355C23.3578 43.0159 23.2505 43.2244 23.1884 43.448C23.1263 43.6715 23.1107 43.9054 23.1425 44.1353C23.1744 44.3651 23.2531 44.5859 23.3737 44.7842C23.4943 44.9824 23.6542 45.1538 23.8437 45.2878C24.0332 45.4217 24.2481 45.5155 24.4752 45.5631C24.6225 45.6054 24.7752 45.6261 24.9285 45.6248C25.3414 45.628 25.7413 45.4807 26.0534 45.2104C26.3655 44.9401 26.5683 44.5653 26.6239 44.1562C26.6795 43.7471 26.584 43.3318 26.3554 42.988C26.1268 42.6442 25.7806 42.3956 25.3818 42.2886V42.2995ZM25.4725 44.0872C25.4318 44.2316 25.3361 44.3543 25.2059 44.4289C25.0756 44.5035 24.9214 44.524 24.7762 44.4861C24.642 44.4514 24.5253 44.3686 24.4481 44.2536C24.3708 44.1385 24.3386 43.9991 24.3574 43.8618C24.3761 43.7245 24.4447 43.5988 24.55 43.5087C24.6552 43.4186 24.7899 43.3702 24.9285 43.3728C24.9779 43.3673 25.0278 43.3673 25.0772 43.3728C25.1492 43.3922 25.2167 43.4255 25.2758 43.471C25.3349 43.5165 25.3844 43.5733 25.4215 43.638C25.4586 43.7027 25.4825 43.7741 25.4919 43.8481C25.5012 43.9221 25.4959 43.9972 25.4761 44.0691L25.4725 44.0872Z" fill="#666666"/>
<path d="M39.1267 24.7735C39.4631 24.7735 39.7919 24.6738 40.0717 24.4869C40.3514 24.3 40.5694 24.0344 40.6981 23.7236C40.8269 23.4129 40.8605 23.0709 40.7949 22.741C40.7293 22.4111 40.5673 22.1081 40.3294 21.8702C40.0915 21.6324 39.7885 21.4704 39.4585 21.4048C39.1286 21.3391 38.7866 21.3728 38.4758 21.5015C38.165 21.6303 37.8993 21.8482 37.7124 22.1279C37.5255 22.4076 37.4258 22.7364 37.4258 23.0728C37.4258 23.5239 37.605 23.9564 37.924 24.2754C38.2429 24.5943 38.6756 24.7735 39.1267 24.7735ZM39.1267 22.5071C39.2386 22.5071 39.348 22.5403 39.441 22.6024C39.534 22.6646 39.6066 22.7529 39.6494 22.8563C39.6922 22.9597 39.7034 23.0734 39.6816 23.1832C39.6597 23.2929 39.6059 23.3937 39.5267 23.4728C39.4476 23.5519 39.3468 23.6058 39.2371 23.6276C39.1273 23.6495 39.0136 23.6383 38.9102 23.5954C38.8068 23.5526 38.7184 23.4801 38.6563 23.3871C38.5941 23.2941 38.5609 23.1847 38.5609 23.0728C38.5609 22.9228 38.6205 22.7789 38.7266 22.6728C38.8327 22.5667 38.9766 22.5071 39.1267 22.5071Z" fill="#f58220"/>
<path d="M41.3936 28.744C41.3928 29.0805 41.492 29.4097 41.6784 29.6898C41.8649 29.97 42.1303 30.1885 42.441 30.3178C42.7518 30.4471 43.0939 30.4813 43.4241 30.4161C43.7543 30.3509 44.0577 30.1892 44.2959 29.9515C44.5341 29.7138 44.6965 29.4107 44.7624 29.0807C44.8283 28.7507 44.7949 28.4086 44.6662 28.0976C44.5376 27.7866 44.3196 27.5208 44.0398 27.3338C43.76 27.1467 43.431 27.0469 43.0945 27.0469C42.644 27.0469 42.2119 27.2256 41.893 27.5437C41.5741 27.8619 41.3945 28.2935 41.3936 28.744ZM43.6602 28.744C43.6602 28.8559 43.627 28.9652 43.5649 29.0583C43.5027 29.1513 43.4144 29.2238 43.311 29.2666C43.2076 29.3094 43.0938 29.3206 42.9841 29.2988C42.8743 29.277 42.7735 29.2231 42.6944 29.144C42.6153 29.0649 42.5614 28.9641 42.5396 28.8543C42.5177 28.7446 42.529 28.6309 42.5718 28.5275C42.6146 28.4241 42.6871 28.3358 42.7801 28.2736C42.8732 28.2115 42.9826 28.1783 43.0945 28.1783C43.2445 28.1783 43.3884 28.2379 43.4945 28.344C43.6006 28.4501 43.6602 28.5939 43.6602 28.744Z" fill="#f58220"/>
<path d="M38.2529 30.3475C38.3771 30.4308 38.5292 30.4615 38.676 30.433C38.8228 30.4045 38.9523 30.319 39.0362 30.1952L44.1353 22.2464C44.1806 22.1851 44.213 22.1153 44.2306 22.0412C44.2482 21.9671 44.2507 21.8901 44.2378 21.815C44.225 21.7399 44.1971 21.6682 44.1558 21.6042C44.1146 21.5401 44.0608 21.485 43.9977 21.4423C43.9347 21.3995 43.8636 21.3699 43.7888 21.3553C43.7141 21.3406 43.6371 21.3412 43.5626 21.3571C43.488 21.3729 43.4175 21.4036 43.3551 21.4474C43.2927 21.4912 43.2399 21.5471 43.1996 21.6118C43.1986 21.619 43.1986 21.6264 43.1996 21.6336L38.0824 29.5679C38.002 29.694 37.9748 29.8468 38.0067 29.9929C38.0386 30.139 38.1272 30.2665 38.2529 30.3475Z" fill="#f58220"/>
<path d="M36.2982 31.4854H35.1631V32.6204H36.2982V31.4854Z" fill="#666666"/>
<path d="M36.2982 29.2197H35.1631V30.3548H36.2982V29.2197Z" fill="#666666"/>
<path d="M36.2982 26.9531H35.1631V28.0882H36.2982V26.9531Z" fill="#666666"/>
<path d="M36.2982 24.6865H35.1631V25.8216H36.2982V24.6865Z" fill="#666666"/>
<path d="M36.2982 22.4199H35.1631V23.5549H36.2982V22.4199Z" fill="#666666"/>
</g>
<defs>
<linearGradient id="paint0_linear_79_940" x1="-1.72141" y1="29.715" x2="46.9394" y2="29.6147" gradientUnits="userSpaceOnUse">
<stop stop-color="#F58220"/>
<stop offset="1" stop-color="#F58220" stop-opacity="0"/>
</linearGradient>
<clipPath id="clip0_79_940">
<rect width="34" height="34" fill="white" transform="translate(13.062 13.9199)"/>
</clipPath>
</defs>
</svg>
