<svg width="61" height="60" viewBox="0 0 61 60" fill="none" xmlns="http://www.w3.org/2000/svg">
<ellipse cx="30.194" cy="30.1917" rx="30.1281" ry="29.7561" fill="url(#paint0_linear_250_2034)" fill-opacity="0.41"/>
<g clip-path="url(#clip0_250_2034)">
<path d="M39.8642 30.8133H29.8658V21.2315C29.8651 21.1042 29.8121 20.9823 29.7181 20.8923C29.6242 20.8023 29.497 20.7514 29.3642 20.7508C27.1882 20.7508 25.0612 21.3692 23.252 22.5277C21.4428 23.6862 20.0327 25.3328 19.2 27.2593C18.3673 29.1859 18.1494 31.3057 18.5739 33.3509C18.9984 35.3961 20.0462 37.2747 21.5848 38.7492C23.1234 40.2237 25.0837 41.2278 27.2178 41.6347C29.3519 42.0415 31.564 41.8327 33.5743 41.0347C35.5846 40.2367 37.3028 38.8853 38.5117 37.1515C39.7205 35.4177 40.3658 33.3793 40.3658 31.294C40.3651 31.1667 40.3121 31.0448 40.2181 30.9548C40.1242 30.8648 39.997 30.8139 39.8642 30.8133ZM29.3642 40.2249C26.9968 40.2211 24.7197 39.3543 22.9949 37.8003C21.2701 36.2464 20.2268 34.1217 20.0769 31.8576C19.9269 29.5935 20.6815 27.3595 22.1875 25.609C23.6934 23.8585 25.8379 22.7227 28.1858 22.4321V32.4233H38.6114C38.3211 34.578 37.2228 36.5578 35.5212 37.9934C33.8196 39.429 31.6311 40.2222 29.3642 40.2249Z" fill="#666666"/>
<path d="M31.3655 18.835C31.2329 18.835 31.1057 18.8853 31.0117 18.9749C30.9177 19.0646 30.8645 19.1863 30.8639 19.3134V29.3759C30.8651 29.4384 30.879 29.5001 30.9047 29.5576C30.9556 29.6752 31.0531 29.7687 31.1759 29.8175C31.2359 29.8421 31.3003 29.8554 31.3655 29.8566H41.8655C41.9981 29.856 42.1251 29.805 42.2186 29.715C42.3122 29.6249 42.3647 29.503 42.3647 29.3759C42.3647 26.5802 41.2059 23.8991 39.1431 21.9223C37.0804 19.9455 34.2827 18.835 31.3655 18.835V18.835Z" fill="#666666"/>
<path d="M32.5438 28.2465V20.5162C34.5906 20.7697 36.4921 21.6657 37.9514 23.0642C39.4107 24.4627 40.3457 26.285 40.6102 28.2465H32.5438Z" fill="#f58220"/>
</g>
<defs>
<linearGradient id="paint0_linear_250_2034" x1="43.0301" y1="-2.96916" x2="27.1615" y2="28.1235" gradientUnits="userSpaceOnUse">
<stop offset="0.286145" stop-color="#FF8753" stop-opacity="0"/>
<stop offset="1" stop-color="#FF8753"/>
</linearGradient>
<clipPath id="clip0_250_2034">
<rect width="24" height="23" fill="white" transform="translate(18.3647 18.835)"/>
</clipPath>
</defs>
</svg>
