<svg width="61" height="60" viewBox="0 0 61 60" fill="none" xmlns="http://www.w3.org/2000/svg">
<ellipse cx="30.1535" cy="30.1917" rx="30.1281" ry="29.7561" fill="url(#paint0_linear_250_2018)" fill-opacity="0.41"/>
<g clip-path="url(#clip0_250_2018)">
<path d="M34.3543 25.7396V24.9996C34.3543 24.8923 34.3104 24.7895 34.2321 24.7136C34.1539 24.6378 34.0478 24.5952 33.9372 24.5952H26.7455C26.6349 24.5952 26.5288 24.6378 26.4505 24.7136C26.3723 24.7895 26.3284 24.8923 26.3284 24.9996V25.7396C26.3284 25.8468 26.3723 25.9497 26.4505 26.0255C26.5288 26.1013 26.6349 26.1439 26.7455 26.1439H29.4653C29.8044 26.145 30.136 26.241 30.4201 26.4203C30.7043 26.5996 30.929 26.8547 31.0672 27.1549H26.7455C26.6349 27.1549 26.5288 27.1975 26.4505 27.2733C26.3723 27.3491 26.3284 27.452 26.3284 27.5592V28.2992C26.3284 28.4065 26.3723 28.5093 26.4505 28.5852C26.5288 28.661 26.6349 28.7036 26.7455 28.7036H30.9671C30.8119 28.9584 30.5912 29.1699 30.3265 29.3173C30.0619 29.4648 29.7622 29.5431 29.457 29.5447H27.1293C27.0187 29.5447 26.9126 29.5873 26.8343 29.6631C26.7561 29.739 26.7121 29.8418 26.7121 29.9491V30.685C26.7112 30.7739 26.7406 30.8606 26.7956 30.9317L30.7794 35.9863C30.847 36.0709 30.9464 36.126 31.0558 36.1397C31.1653 36.1533 31.2759 36.1243 31.3634 36.0591L31.9682 35.6143C32.0561 35.5474 32.1143 35.4505 32.1309 35.3434C32.138 35.2906 32.1343 35.2371 32.12 35.1857C32.1056 35.1344 32.081 35.0863 32.0475 35.0442L28.9314 31.0894H29.4653C30.1993 31.0912 30.9133 30.8585 31.497 30.4272C32.0807 29.9959 32.5014 29.3901 32.6941 28.7036H33.9455C34.0562 28.7036 34.1623 28.661 34.2405 28.5852C34.3187 28.5093 34.3627 28.4065 34.3627 28.2992V27.5592C34.3627 27.452 34.3187 27.3491 34.2405 27.2733C34.1623 27.1975 34.0562 27.1549 33.9455 27.1549H32.74C32.6627 26.7969 32.5216 26.4548 32.3228 26.1439H33.9372C34.0478 26.1439 34.1539 26.1013 34.2321 26.0255C34.3104 25.9497 34.3543 25.8468 34.3543 25.7396Z" fill="#f58220"/>
<path d="M39.602 29.1605C39.602 26.726 38.6044 24.3912 36.8286 22.6698C35.0527 20.9483 32.6442 19.9813 30.1327 19.9813C27.6213 19.9813 25.2128 20.9483 23.4369 22.6698C21.6611 24.3912 20.6635 26.726 20.6635 29.1605C20.6576 29.8979 20.7559 30.6325 20.9555 31.3441C21.2088 32.3869 21.6616 33.3745 22.2903 34.2556C22.4155 34.4982 22.5823 34.7408 22.7492 35.0239C22.9161 35.3069 23.1246 35.6709 23.3332 35.9539C24.1675 37.2884 24.6681 38.0567 24.6681 39.6337V43.4348C24.6663 43.8925 24.8335 44.3358 25.1396 44.6844C25.4456 45.033 25.8703 45.2639 26.3367 45.3354C26.7538 47.3976 28.0053 48.6916 30.1327 48.6916C32.2602 48.6916 33.5534 47.3976 33.9288 45.3354C34.3924 45.2578 34.8132 45.0252 35.1181 44.6779C35.4229 44.3306 35.5925 43.8908 35.5974 43.4348V39.6337C35.5974 38.0567 36.098 37.2479 36.9323 35.9539C37.0991 35.6709 37.3077 35.3474 37.5163 35.0239C37.7249 34.7004 37.85 34.4982 37.9752 34.2556C38.6039 33.3745 39.0567 32.3869 39.31 31.3441C39.5096 30.6325 39.6079 29.8979 39.602 29.1605ZM33.9705 40.6042H26.3784V39.6741C26.387 39.4979 26.3729 39.3213 26.3367 39.1485H33.9705C33.9705 39.3102 33.9288 39.472 33.9288 39.6741V40.6042H33.9705ZM33.5951 43.7987H26.6704C26.6264 43.7993 26.5828 43.7913 26.542 43.7752C26.5013 43.7592 26.4643 43.7353 26.4332 43.7052C26.4021 43.675 26.3775 43.6392 26.3609 43.5997C26.3444 43.5602 26.3361 43.5179 26.3367 43.4752V42.2217H33.9288V43.4752C33.9705 43.637 33.8037 43.7987 33.5951 43.7987ZM30.1327 47.1146C29.6739 47.1146 28.5059 47.1146 28.047 45.4162H32.2602C31.8013 47.1146 30.5916 47.1146 30.1327 47.1146ZM37.6832 31.0206C37.4594 31.8878 37.078 32.7094 36.5569 33.4468C36.39 33.6894 36.2648 33.9321 36.098 34.2151C35.9311 34.4982 35.7226 34.8621 35.5557 35.1047C35.0485 35.8525 34.6288 36.6527 34.3042 37.4905H26.0447C25.7372 36.6455 25.3165 35.8434 24.7932 35.1047C24.6264 34.8217 24.4178 34.5386 24.2509 34.2151C24.0841 33.8916 23.9172 33.649 23.7921 33.4468C23.2699 32.6952 22.8886 31.8602 22.6658 30.9802C22.5007 30.3868 22.4166 29.775 22.4155 29.1605C22.4155 27.155 23.2373 25.2316 24.7003 23.8135C26.1632 22.3954 28.1473 21.5987 30.2162 21.5987C32.2851 21.5987 34.2692 22.3954 35.7321 23.8135C37.195 25.2316 38.0169 27.155 38.0169 29.1605C37.9427 29.7862 37.8313 30.4073 37.6832 31.0206Z" fill="#666666"/>
<path d="M47.3192 28.3518H43.8569C43.6356 28.3518 43.4234 28.437 43.2669 28.5887C43.1105 28.7403 43.0226 28.9461 43.0226 29.1605C43.0226 29.375 43.1105 29.5807 43.2669 29.7324C43.4234 29.8841 43.6356 29.9693 43.8569 29.9693H47.3192C47.5405 29.9693 47.7527 29.8841 47.9092 29.7324C48.0656 29.5807 48.1535 29.375 48.1535 29.1605C48.1535 28.9461 48.0656 28.7403 47.9092 28.5887C47.7527 28.437 47.5405 28.3518 47.3192 28.3518Z" fill="#666666"/>
<path d="M39.8106 20.5878C40.0307 20.5848 40.2406 20.4976 40.3946 20.3452L42.8558 17.9594C42.9763 17.8037 43.0348 17.611 43.0206 17.4168C43.0064 17.2226 42.9203 17.0399 42.7783 16.9023C42.6363 16.7646 42.4479 16.6812 42.2475 16.6674C42.0472 16.6536 41.8485 16.7103 41.6878 16.8272L39.2266 19.2129C39.1474 19.2859 39.0842 19.3737 39.0411 19.471C38.998 19.5683 38.9757 19.6731 38.9757 19.7791C38.9757 19.885 38.998 19.9898 39.0411 20.0871C39.0842 20.1845 39.1474 20.2723 39.2266 20.3452C39.3807 20.4976 39.5906 20.5848 39.8106 20.5878Z" fill="#666666"/>
<path d="M30.1326 16.6654C30.3539 16.6654 30.5661 16.5802 30.7226 16.4285C30.879 16.2769 30.9669 16.0712 30.9669 15.8567V12.5004C30.9669 12.2859 30.879 12.0802 30.7226 11.9285C30.5661 11.7769 30.3539 11.6917 30.1326 11.6917C29.9114 11.6917 29.6992 11.7769 29.5427 11.9285C29.3862 12.0802 29.2983 12.2859 29.2983 12.5004V15.8567C29.2983 16.0712 29.3862 16.2769 29.5427 16.4285C29.6992 16.5802 29.9114 16.6654 30.1326 16.6654Z" fill="#666666"/>
<path d="M19.871 20.3452C19.9462 20.4221 20.0367 20.4833 20.1371 20.5251C20.2375 20.5669 20.3457 20.5885 20.455 20.5885C20.5642 20.5885 20.6724 20.5669 20.7728 20.5251C20.8732 20.4833 20.9637 20.4221 21.039 20.3452C21.1182 20.2723 21.1814 20.1845 21.2245 20.0872C21.2676 19.9899 21.2899 19.885 21.2899 19.7791C21.2899 19.6732 21.2676 19.5684 21.2245 19.471C21.1814 19.3737 21.1182 19.2859 21.039 19.213L18.5778 16.8272C18.5061 16.7345 18.4146 16.6578 18.3097 16.6024C18.2047 16.5469 18.0887 16.514 17.9695 16.5057C17.8503 16.4975 17.7306 16.5142 17.6186 16.5548C17.5066 16.5953 17.4049 16.6587 17.3204 16.7406C17.2359 16.8225 17.1705 16.9211 17.1287 17.0297C17.0869 17.1382 17.0697 17.2542 17.0781 17.3698C17.0866 17.4854 17.1206 17.5978 17.1778 17.6996C17.235 17.8013 17.3141 17.8899 17.4098 17.9594L19.871 20.3452Z" fill="#666666"/>
<path d="M16.4502 28.3518H12.9879C12.7666 28.3518 12.5544 28.437 12.3979 28.5887C12.2415 28.7403 12.1536 28.9461 12.1536 29.1605C12.1536 29.375 12.2415 29.5807 12.3979 29.7324C12.5544 29.8841 12.7666 29.9693 12.9879 29.9693H16.4502C16.6715 29.9693 16.8837 29.8841 17.0401 29.7324C17.1966 29.5807 17.2845 29.375 17.2845 29.1605C17.2845 28.9461 17.1966 28.7403 17.0401 28.5887C16.8837 28.437 16.6715 28.3518 16.4502 28.3518Z" fill="#666666"/>
<path d="M19.8708 37.9758L17.4096 40.3616C17.3303 40.4345 17.2672 40.5223 17.2241 40.6196C17.1809 40.717 17.1587 40.8218 17.1587 40.9277C17.1587 41.0337 17.1809 41.1385 17.2241 41.2358C17.2672 41.3331 17.3303 41.4209 17.4096 41.4938C17.4848 41.5707 17.5754 41.6319 17.6758 41.6737C17.7762 41.7155 17.8843 41.7371 17.9936 41.7371C18.1029 41.7371 18.211 41.7155 18.3114 41.6737C18.4118 41.6319 18.5024 41.5707 18.5776 41.4938L21.0388 39.1081C21.1344 39.0385 21.2135 38.9499 21.2707 38.8482C21.328 38.7464 21.362 38.634 21.3704 38.5184C21.3789 38.4028 21.3617 38.2868 21.3199 38.1783C21.2781 38.0697 21.2127 37.9711 21.1282 37.8892C21.0436 37.8073 20.942 37.7439 20.83 37.7034C20.718 37.6629 20.5983 37.6461 20.4791 37.6543C20.3599 37.6626 20.2438 37.6955 20.1389 37.751C20.0339 37.8064 19.9425 37.8831 19.8708 37.9758Z" fill="#666666"/>
<path d="M40.3946 37.9758C40.3228 37.8831 40.2314 37.8064 40.1265 37.751C40.0215 37.6955 39.9055 37.6626 39.7863 37.6543C39.667 37.6461 39.5474 37.6629 39.4354 37.7034C39.3234 37.7439 39.2217 37.8073 39.1372 37.8892C39.0527 37.9711 38.9873 38.0697 38.9455 38.1783C38.9037 38.2868 38.8864 38.4028 38.8949 38.5184C38.9034 38.634 38.9374 38.7464 38.9946 38.8482C39.0518 38.9499 39.1309 39.0385 39.2265 39.1081L41.6877 41.4938C41.7629 41.5707 41.8535 41.6319 41.9539 41.6737C42.0543 41.7155 42.1625 41.7371 42.2717 41.7371C42.381 41.7371 42.4891 41.7155 42.5896 41.6737C42.69 41.6319 42.7805 41.5707 42.8557 41.4938C42.935 41.4209 42.9981 41.3331 43.0413 41.2358C43.0844 41.1385 43.1067 41.0337 43.1067 40.9277C43.1067 40.8218 43.0844 40.717 43.0413 40.6196C42.9981 40.5223 42.935 40.4345 42.8557 40.3616L40.3946 37.9758Z" fill="#666666"/>
</g>
<defs>
<linearGradient id="paint0_linear_250_2018" x1="42.9896" y1="-2.96916" x2="27.1209" y2="28.1235" gradientUnits="userSpaceOnUse">
<stop offset="0.286145" stop-color="#FF8753" stop-opacity="0"/>
<stop offset="1" stop-color="#FF8753"/>
</linearGradient>
<clipPath id="clip0_250_2018">
<rect width="36" height="37" fill="white" transform="translate(12.1536 11.6917)"/>
</clipPath>
</defs>
</svg>
