<svg width="61" height="60" viewBox="0 0 61 60" fill="none" xmlns="http://www.w3.org/2000/svg">
<ellipse cx="30.1281" cy="29.7561" rx="30.1281" ry="29.7561" fill="url(#paint0_linear_444_1280)" fill-opacity="0.41"/>
<g clip-path="url(#clip0_444_1280)">
<path d="M40.6308 46.2405C40.4676 46.2411 40.3069 46.2025 40.1632 46.1282L30.1303 41.0626L20.0974 46.1282C19.8631 46.2497 19.5883 46.2771 19.333 46.2045C19.0778 46.132 18.8627 45.9653 18.7349 45.7409C18.6295 45.5512 18.594 45.3329 18.6342 45.1213L20.5529 34.3937L12.4346 26.7643C12.3409 26.6747 12.2665 26.5682 12.2158 26.4509C12.165 26.3336 12.1389 26.2078 12.1389 26.0807C12.1389 25.9537 12.165 25.8279 12.2158 25.7106C12.2665 25.5933 12.3409 25.4868 12.4346 25.3972C12.5881 25.2432 12.7912 25.1436 13.011 25.1145L24.2291 23.5654L29.2274 13.7943C29.3107 13.6327 29.4395 13.4967 29.599 13.4016C29.7585 13.3065 29.9425 13.2561 30.1303 13.2561C30.318 13.2561 30.5021 13.3065 30.6616 13.4016C30.8211 13.4967 30.9498 13.6327 31.0332 13.7943L36.0517 23.5499L47.2697 25.099C47.458 25.1241 47.6352 25.1997 47.7809 25.3171C47.9266 25.4345 48.0349 25.589 48.0933 25.7628C48.1518 25.9367 48.1582 26.1228 48.1116 26.3C48.065 26.4771 47.9674 26.638 47.83 26.7643L39.7077 34.3937L41.6224 45.1252C41.6672 45.3755 41.6078 45.6328 41.457 45.8414C41.3061 46.0501 41.076 46.1934 40.8162 46.2405C40.7613 46.246 40.7059 46.246 40.651 46.2405H40.6308ZM15.3046 26.7643L22.3386 33.348C22.4524 33.4578 22.5377 33.5918 22.5874 33.7392C22.6371 33.8865 22.6499 34.0431 22.6248 34.1962L20.964 43.4909L29.6627 39.1107C29.8077 39.0381 29.9688 39.0002 30.1323 39.0002C30.2958 39.0002 30.4569 39.0381 30.6019 39.1107L39.2925 43.5025L37.6318 34.2078C37.6059 34.051 37.6207 33.8905 37.6748 33.7405C37.7289 33.5905 37.8208 33.4557 37.9422 33.348L44.956 26.7643L35.2375 25.4088C35.0756 25.3867 34.9219 25.3267 34.7898 25.2342C34.6577 25.1417 34.5512 25.0195 34.4796 24.8782L30.1303 16.4085L25.785 24.8705C25.7139 25.009 25.6096 25.1293 25.4806 25.2216C25.3517 25.3138 25.2018 25.3753 25.0433 25.4011L15.3046 26.7643Z" fill="#666666"/>
<path d="M33.7824 27.9208V27.2586C33.7824 27.1558 33.7399 27.0573 33.6643 26.9847C33.5887 26.9121 33.4862 26.8713 33.3793 26.8713H26.8855C26.7786 26.8713 26.6761 26.9121 26.6005 26.9847C26.5249 27.0573 26.4824 27.1558 26.4824 27.2586V27.9208C26.4824 28.0235 26.5249 28.122 26.6005 28.1946C26.6761 28.2673 26.7786 28.3081 26.8855 28.3081H29.3363C29.6314 28.3092 29.9202 28.39 30.1696 28.5414C30.4191 28.6927 30.6193 28.9085 30.7471 29.164H26.8855C26.7786 29.164 26.6761 29.2048 26.6005 29.2774C26.5249 29.35 26.4824 29.4485 26.4824 29.5512V30.2135C26.4824 30.3162 26.5249 30.4147 26.6005 30.4873C26.6761 30.56 26.7786 30.6008 26.8855 30.6008H30.6584C30.517 30.8148 30.3218 30.9913 30.0907 31.1138C29.8596 31.2363 29.6002 31.3009 29.3363 31.3017H27.2281C27.1212 31.3017 27.0187 31.3425 26.9431 31.4152C26.8675 31.4878 26.825 31.5863 26.825 31.689V32.3513C26.825 32.4351 26.8533 32.5166 26.9057 32.5836L30.5053 37.1109C30.5428 37.1578 30.591 37.1958 30.6462 37.2219C30.7014 37.2481 30.7621 37.2618 30.8237 37.262C30.9123 37.2628 30.9987 37.2356 31.0696 37.1845L31.6178 36.7972C31.7019 36.7348 31.757 36.6429 31.771 36.5416C31.7778 36.4911 31.7742 36.4398 31.7604 36.3906C31.7465 36.3414 31.7227 36.2954 31.6903 36.255L28.909 32.7695H29.3363C30.0101 32.773 30.6661 32.5622 31.202 32.1698C31.738 31.7775 32.1237 31.2258 32.299 30.6008H33.3995C33.5064 30.6008 33.6089 30.56 33.6845 30.4873C33.7601 30.4147 33.8025 30.3162 33.8025 30.2135V29.5512C33.8025 29.4485 33.7601 29.35 33.6845 29.2774C33.6089 29.2048 33.5064 29.164 33.3995 29.164H32.3192C32.2518 28.8621 32.1334 28.573 31.9685 28.3081H33.3793C33.4862 28.3081 33.5887 28.2673 33.6643 28.1946C33.7399 28.122 33.7824 28.0235 33.7824 27.9208Z" fill="#f58220"/>
</g>
<defs>
<linearGradient id="paint0_linear_444_1280" x1="42.9642" y1="-3.40471" x2="27.0955" y2="27.688" gradientUnits="userSpaceOnUse">
<stop offset="0.286145" stop-color="#FF8753" stop-opacity="0"/>
<stop offset="1" stop-color="#FF8753"/>
</linearGradient>
<clipPath id="clip0_444_1280">
<rect width="36" height="33" fill="white" transform="translate(12.1284 13.2561)"/>
</clipPath>
</defs>
</svg>
