<svg width="61" height="60" viewBox="0 0 61 60" fill="none" xmlns="http://www.w3.org/2000/svg">
<ellipse cx="30.3537" cy="30.1917" rx="30.1281" ry="29.7561" fill="url(#paint0_linear_250_2043)" fill-opacity="0.41"/>
<g clip-path="url(#clip0_250_2043)">
<path d="M45.6399 33.7317C45.6429 34.8223 45.4398 35.9049 45.0399 36.9297C44.9849 37.0794 44.8797 37.2086 44.7399 37.2981C44.6095 37.3799 44.4548 37.4211 44.2978 37.416H41.6926C41.2629 38.4125 40.6482 39.3305 39.8768 40.1277L39.5136 40.4961L39.0083 40.9088L38.061 44.4457C37.9216 45.023 37.5574 45.5314 37.0392 45.8723C36.521 46.2132 35.8856 46.3623 35.2562 46.2907C34.6269 46.2191 34.0485 45.9319 33.6331 45.4848C33.2178 45.0377 32.9951 44.4626 33.0084 43.871V43.3109C32.747 43.3503 32.4834 43.3749 32.2189 43.3846H29.8505V43.9447C29.8251 44.5635 29.545 45.1493 29.0686 45.5803C28.5921 46.0112 27.956 46.2541 27.2926 46.2584H27.0873C26.5803 46.2604 26.0841 46.1212 25.6623 45.8587C25.2404 45.5962 24.9119 45.2223 24.7189 44.7847L23.361 41.6898C22.492 41.1418 21.7151 40.4763 21.0557 39.715C20.3411 40.1238 19.525 40.3523 18.6873 40.3782C18.4612 40.3997 18.2331 40.3948 18.0083 40.3635C17.5046 40.2468 17.0369 40.0222 16.6423 39.7076C16.2477 39.393 15.9369 38.9969 15.7347 38.5508C15.6425 38.3749 15.629 38.1721 15.6971 37.9869C15.7653 37.8017 15.9094 37.6494 16.0978 37.5634C16.2863 37.4774 16.5036 37.4648 16.702 37.5284C16.9004 37.5919 17.0636 37.7265 17.1557 37.9023C17.2577 38.1461 17.417 38.3654 17.622 38.544C17.827 38.7225 18.0723 38.8558 18.3399 38.934C18.9721 39.0003 19.6101 38.8708 20.1557 38.5655C19.2539 37.0944 18.7854 35.4266 18.7978 33.7317C18.787 32.988 18.8718 32.2459 19.0505 31.5211C19.0733 31.4243 19.1163 31.3327 19.177 31.2514C19.2378 31.1702 19.3151 31.1009 19.4045 31.0475C19.4939 30.9941 19.5938 30.9577 19.6983 30.9404C19.8028 30.923 19.9099 30.925 20.0136 30.9463C20.1173 30.9676 20.2155 31.0077 20.3025 31.0644C20.3896 31.1211 20.4638 31.1933 20.521 31.2768C20.5782 31.3603 20.6172 31.4534 20.6358 31.551C20.6544 31.6485 20.6522 31.7485 20.6294 31.8453C20.1919 33.4904 20.3245 35.2226 21.0083 36.7929C21.692 38.3632 22.8916 39.6907 24.4347 40.5845L24.561 40.6877L24.6399 40.8056V40.8793L26.0926 44.1657C26.1628 44.3352 26.2864 44.4808 26.447 44.5834C26.6077 44.686 26.7979 44.7408 26.9926 44.7405H27.1978C27.4575 44.7405 27.7065 44.6442 27.89 44.4729C28.0736 44.3015 28.1768 44.0691 28.1768 43.8268V42.5741C28.1768 42.3787 28.2599 42.1912 28.408 42.053C28.5561 41.9149 28.7569 41.8372 28.9662 41.8372H32.1241C32.6058 41.8367 33.0866 41.7973 33.561 41.7193H34.082L34.2084 41.793L34.3031 41.8962C34.311 41.9351 34.311 41.9751 34.3031 42.0141C34.311 42.058 34.311 42.1028 34.3031 42.1467V42.2941V43.7678C34.282 44.0033 34.3594 44.2373 34.5192 44.4207C34.6791 44.604 34.9088 44.7224 35.1601 44.751C35.4115 44.7796 35.6649 44.7162 35.8673 44.5741C36.0696 44.432 36.2051 44.2222 36.2452 43.9889L37.5399 40.3635V40.2898C37.5321 40.2459 37.5321 40.2011 37.5399 40.1572L37.6347 40.0393C37.6347 40.0393 38.0294 39.7298 38.2031 39.5529L38.5189 39.2287C39.2864 38.4506 39.8725 37.5323 40.2399 36.5318C40.236 36.4876 40.236 36.4433 40.2399 36.3991L40.3189 36.296C40.3542 36.255 40.3969 36.22 40.4452 36.1928H40.5557C40.6081 36.1854 40.6613 36.1854 40.7136 36.1928H43.4452C43.4775 36.0016 43.5304 35.814 43.6031 35.6328L43.6978 35.2644C43.8439 34.4249 43.8439 33.569 43.6978 32.7295L43.6031 32.3611C43.5803 32.1682 43.5271 31.9795 43.4452 31.8011H41.1399C40.9989 31.7982 40.8618 31.7572 40.7452 31.6832C40.6261 31.5996 40.5334 31.4876 40.4768 31.359C40.0019 29.837 39.0507 28.4822 37.7452 27.4683L37.6505 27.3651C37.6149 27.3209 37.5881 27.2709 37.5715 27.2178C37.5636 27.1492 37.5636 27.08 37.5715 27.0114L37.8084 22.5018L33.5768 26.1272C33.4596 26.2375 33.3827 26.3796 33.3572 26.5331C33.3317 26.6866 33.3588 26.8437 33.4347 26.982C33.5283 27.156 33.5443 27.3575 33.4792 27.5426C33.4142 27.7276 33.2732 27.881 33.0873 27.9694C32.9008 28.0568 32.6849 28.0717 32.4867 28.011C32.2885 27.9502 32.1241 27.8187 32.0294 27.6452C31.8544 27.3337 31.763 26.9873 31.763 26.6356C31.763 26.284 31.8544 25.9376 32.0294 25.6261H30.6399C30.4305 25.6261 30.2297 25.5485 30.0817 25.4103C29.9336 25.2721 29.8505 25.0847 29.8505 24.8893C29.8505 24.6938 29.9336 24.5064 30.0817 24.3682C30.2297 24.23 30.4305 24.1524 30.6399 24.1524H32.2189C32.6149 24.1523 33.0105 24.1769 33.4031 24.2261L36.561 21.2786C36.7855 21.0667 37.0737 20.9232 37.3873 20.8673C37.701 20.8113 38.0255 20.8454 38.318 20.9652C38.6104 21.0849 38.8571 21.2846 39.0255 21.5379C39.1939 21.7912 39.276 22.0862 39.261 22.3839L39.0241 26.5841C40.1711 27.5386 41.0724 28.7224 41.661 30.0473H44.3136C44.4517 30.0641 44.5855 30.1041 44.7084 30.1652H44.7873C44.9052 30.2402 44.9938 30.3488 45.0399 30.4747C45.4456 31.5185 45.6488 32.6214 45.6399 33.7317Z" fill="#666666"/>
<path d="M22.7449 19.7313C22.4823 19.7091 22.2181 19.7091 21.9554 19.7313V16.0469C21.9554 15.8515 21.8723 15.6641 21.7242 15.5259C21.5761 15.3877 21.3753 15.3101 21.166 15.3101C20.9566 15.3101 20.7558 15.3877 20.6077 15.5259C20.4597 15.6641 20.3765 15.8515 20.3765 16.0469V20.2471C19.1611 20.7984 18.2059 21.7484 17.6937 22.9156C17.1814 24.0828 17.1479 25.3852 17.5996 26.574C18.0513 27.7628 18.9565 28.7545 20.1422 29.3596C21.3279 29.9647 22.7109 30.1408 24.0269 29.8542C25.3429 29.5676 26.4996 28.8384 27.2759 27.806C28.0522 26.7736 28.3937 25.5103 28.2351 24.2577C28.0764 23.0052 27.4288 21.8511 26.416 21.016C25.4032 20.181 24.0962 19.7236 22.7449 19.7313ZM22.7449 28.5737C21.9164 28.5737 21.1089 28.3304 20.4368 27.8782C19.7647 27.4261 19.2621 26.788 19.0001 26.0544C18.7381 25.3208 18.7301 24.5289 18.9771 23.7908C19.2241 23.0527 19.7137 22.4058 20.3765 21.9419V23.4156C20.3765 23.611 20.4597 23.7985 20.6077 23.9366C20.7558 24.0748 20.9566 24.1525 21.166 24.1525C21.3753 24.1525 21.5761 24.0748 21.7242 23.9366C21.8723 23.7985 21.9554 23.611 21.9554 23.4156V21.205C22.2181 21.1829 22.4823 21.1829 22.7449 21.205C23.7918 21.205 24.7958 21.5932 25.5361 22.2841C26.2764 22.9751 26.6923 23.9122 26.6923 24.8893C26.6923 25.8665 26.2764 26.8036 25.5361 27.4945C24.7958 28.1855 23.7918 28.5737 22.7449 28.5737Z" fill="#f58220"/>
<path d="M27.4817 19.7313C27.6911 19.7313 27.8919 19.6536 28.04 19.5154C28.188 19.3772 28.2712 19.1898 28.2712 18.9944V16.0469C28.2712 15.8515 28.188 15.6641 28.04 15.5259C27.8919 15.3877 27.6911 15.3101 27.4817 15.3101C27.2724 15.3101 27.0715 15.3877 26.9235 15.5259C26.7754 15.6641 26.6923 15.8515 26.6923 16.0469V18.9944C26.6923 19.1898 26.7754 19.3772 26.9235 19.5154C27.0715 19.6536 27.2724 19.7313 27.4817 19.7313Z" fill="#666666"/>
<path d="M18.0081 21.205C18.2175 21.205 18.4183 21.1273 18.5663 20.9892C18.7144 20.851 18.7976 20.6635 18.7976 20.4681V18.9944C18.7976 18.799 18.7144 18.6115 18.5663 18.4733C18.4183 18.3351 18.2175 18.2575 18.0081 18.2575C17.7987 18.2575 17.5979 18.3351 17.4499 18.4733C17.3018 18.6115 17.2186 18.799 17.2186 18.9944V20.4681C17.2186 20.6635 17.3018 20.851 17.4499 20.9892C17.5979 21.1273 17.7987 21.205 18.0081 21.205Z" fill="#666666"/>
</g>
<defs>
<linearGradient id="paint0_linear_250_2043" x1="43.1898" y1="-2.96916" x2="27.3211" y2="28.1235" gradientUnits="userSpaceOnUse">
<stop offset="0.286145" stop-color="#FF8753" stop-opacity="0"/>
<stop offset="1" stop-color="#FF8753"/>
</linearGradient>
<clipPath id="clip0_250_2043">
<rect width="30" height="31" fill="white" transform="translate(15.6396 15.3101)"/>
</clipPath>
</defs>
</svg>
