<svg width="18" height="25" viewBox="0 0 18 25" fill="none" xmlns="http://www.w3.org/2000/svg">
<path d="M12 12.75V12H6V12.75H8.0625C8.47639 12.7512 8.87533 12.9048 9.18315 13.1815C9.49096 13.4582 9.68608 13.8386 9.73125 14.25H6V15H9.73125C9.68608 15.4114 9.49096 15.7918 9.18315 16.0685C8.87533 16.3452 8.47639 16.4988 8.0625 16.5H6V17.3794L9.60638 20.625L10.1081 20.0677L6.97725 17.25H8.0625C8.67603 17.2491 9.2667 17.017 9.71672 16.6C10.1668 16.183 10.4431 15.6117 10.4906 15H12V14.25H10.4906C10.4476 13.6869 10.2096 13.1565 9.8175 12.75H12Z" fill="#F08200"/>
<path d="M17.2375 6.38781L11.1125 0.262808C11.0355 0.177314 10.9409 0.109562 10.8351 0.0642392C10.7293 0.0189163 10.615 -0.00289674 10.5 0.000308353H1.75C1.2863 0.00169324 0.841982 0.186512 0.514093 0.514401C0.186204 0.84229 0.00138489 1.28661 0 1.75031V22.7503C0.00138489 23.214 0.186204 23.6583 0.514093 23.9862C0.841982 24.3141 1.2863 24.4989 1.75 24.5003H15.75C16.2137 24.4989 16.658 24.3141 16.9859 23.9862C17.3138 23.6583 17.4986 23.214 17.5 22.7503V7.00031C17.5032 6.8853 17.4814 6.77096 17.4361 6.66521C17.3907 6.55945 17.323 6.46481 17.2375 6.38781ZM10.5 2.10031L15.4 7.00031H10.5V2.10031ZM15.75 22.7503H1.75V1.75031H8.75V7.00031C8.75138 7.46401 8.9362 7.90833 9.26409 8.23622C9.59198 8.56411 10.0363 8.74892 10.5 8.75031H15.75V22.7503Z" fill="#F08200"/>
</svg>
