<svg width="23" height="21" viewBox="0 0 23 21" fill="none" xmlns="http://www.w3.org/2000/svg">
<path d="M22.2656 18.5156H2.10938V0.234375C2.10938 0.105469 2.00391 0 1.875 0H0.234375C0.105469 0 0 0.105469 0 0.234375V20.3906C0 20.5195 0.105469 20.625 0.234375 20.625H22.2656C22.3945 20.625 22.5 20.5195 22.5 20.3906V18.75C22.5 18.6211 22.3945 18.5156 22.2656 18.5156ZM4.6875 16.1719H6.32812C6.45703 16.1719 6.5625 16.0664 6.5625 15.9375V11.7188C6.5625 11.5898 6.45703 11.4844 6.32812 11.4844H4.6875C4.55859 11.4844 4.45312 11.5898 4.45312 11.7188V15.9375C4.45312 16.0664 4.55859 16.1719 4.6875 16.1719ZM9.14062 16.1719H10.7812C10.9102 16.1719 11.0156 16.0664 11.0156 15.9375V6.5625C11.0156 6.43359 10.9102 6.32812 10.7812 6.32812H9.14062C9.01172 6.32812 8.90625 6.43359 8.90625 6.5625V15.9375C8.90625 16.0664 9.01172 16.1719 9.14062 16.1719ZM13.5938 16.1719H15.2344C15.3633 16.1719 15.4688 16.0664 15.4688 15.9375V8.84766C15.4688 8.71875 15.3633 8.61328 15.2344 8.61328H13.5938C13.4648 8.61328 13.3594 8.71875 13.3594 8.84766V15.9375C13.3594 16.0664 13.4648 16.1719 13.5938 16.1719ZM18.0469 16.1719H19.6875C19.8164 16.1719 19.9219 16.0664 19.9219 15.9375V4.21875C19.9219 4.08984 19.8164 3.98438 19.6875 3.98438H18.0469C17.918 3.98438 17.8125 4.08984 17.8125 4.21875V15.9375C17.8125 16.0664 17.918 16.1719 18.0469 16.1719Z" fill="#F08200"/>
</svg>
