<svg width="22" height="22" viewBox="0 0 22 22" fill="none" xmlns="http://www.w3.org/2000/svg">
<path d="M6.33286 12.4771C6.57476 12.536 6.82249 12.5676 7.07143 12.5714C7.69557 12.5713 8.30553 12.3853 8.82357 12.0371L11.3536 14.2921C11.1532 14.6727 11.0355 15.0914 11.0085 15.5207C10.9814 15.95 11.0454 16.3801 11.1964 16.7829C11.355 17.2392 11.6167 17.6528 11.9611 17.9916C12.3055 18.3304 12.7234 18.5852 13.1823 18.7363C13.6412 18.8874 14.1287 18.9306 14.607 18.8627C15.0854 18.7948 15.5416 18.6175 15.9403 18.3446C16.3389 18.0717 16.6693 17.7106 16.9058 17.2893C17.1422 16.868 17.2784 16.3979 17.3036 15.9154C17.3289 15.433 17.2426 14.9512 17.0515 14.5075C16.8603 14.0638 16.5694 13.6702 16.2014 13.3571L18.1971 9.35786C18.5867 9.44572 18.9899 9.45412 19.3828 9.38257C19.7756 9.31102 20.15 9.16098 20.4836 8.94143C21.05 8.59575 21.4925 8.07965 21.7476 7.46708C22.0027 6.85451 22.0574 6.1769 21.9039 5.53134C21.7503 4.88578 21.3963 4.30539 20.8927 3.87333C20.389 3.44126 19.7616 3.1797 19.1002 3.12611C18.4387 3.07252 17.7773 3.22965 17.2107 3.575C16.6441 3.92034 16.2013 4.43618 15.9458 5.0486C15.6903 5.66101 15.6352 6.33859 15.7884 6.98424C15.9416 7.62989 16.2952 8.21049 16.7986 8.64286L14.8029 12.6421C14.5861 12.5945 14.3648 12.5708 14.1429 12.5714C13.5187 12.5716 12.9088 12.7576 12.3907 13.1057L9.86071 10.8507C10.0611 10.4701 10.1788 10.0514 10.2058 9.62218C10.2329 9.1929 10.1689 8.76275 10.0179 8.36C9.86042 7.90698 9.6014 7.49599 9.26062 7.15852C8.91984 6.82106 8.50635 6.56605 8.05181 6.41305C7.59727 6.26004 7.11375 6.21309 6.63827 6.27579C6.16278 6.3385 5.70796 6.50918 5.30862 6.77479C4.90928 7.04039 4.57603 7.39387 4.33438 7.80814C4.09274 8.22242 3.94911 8.6865 3.91449 9.16485C3.87988 9.64319 3.9552 10.1231 4.13469 10.5679C4.31417 11.0126 4.59306 11.4104 4.95 11.7307L1.57143 18.0714V0H0V20.4286C0 20.8453 0.165561 21.245 0.460261 21.5397C0.754961 21.8344 1.15466 22 1.57143 22H22V20.4286H2.09786L6.33286 12.4771ZM18.8571 4.71429C19.1679 4.71429 19.4718 4.80645 19.7302 4.97912C19.9886 5.15179 20.19 5.39721 20.309 5.68435C20.4279 5.9715 20.459 6.28746 20.3984 6.59229C20.3377 6.89711 20.1881 7.17711 19.9683 7.39688C19.7485 7.61665 19.4685 7.76631 19.1637 7.82695C18.8589 7.88758 18.5429 7.85646 18.2558 7.73753C17.9686 7.61859 17.7232 7.41717 17.5505 7.15875C17.3779 6.90033 17.2857 6.59651 17.2857 6.28571C17.2857 5.86895 17.4513 5.46925 17.746 5.17455C18.0407 4.87985 18.4404 4.71429 18.8571 4.71429ZM15.7143 15.7143C15.7143 16.0251 15.6221 16.3289 15.4495 16.5873C15.2768 16.8457 15.0314 17.0472 14.7442 17.1661C14.4571 17.285 14.1411 17.3162 13.8363 17.2555C13.5315 17.1949 13.2515 17.0452 13.0317 16.8255C12.8119 16.6057 12.6623 16.3257 12.6016 16.0209C12.541 15.716 12.5721 15.4001 12.691 15.1129C12.81 14.8258 13.0114 14.5804 13.2698 14.4077C13.5282 14.235 13.8321 14.1429 14.1429 14.1429C14.5596 14.1429 14.9593 14.3084 15.254 14.6031C15.5487 14.8978 15.7143 15.2975 15.7143 15.7143ZM7.07143 7.85714C7.38223 7.85714 7.68605 7.94931 7.94447 8.12198C8.20289 8.29465 8.4043 8.54007 8.52324 8.82721C8.64218 9.11435 8.6733 9.43032 8.61266 9.73514C8.55203 10.04 8.40236 10.32 8.1826 10.5397C7.96283 10.7595 7.68283 10.9092 7.378 10.9698C7.07317 11.0304 6.75721 10.9993 6.47007 10.8804C6.18293 10.7614 5.9375 10.56 5.76483 10.3016C5.59216 10.0432 5.5 9.73937 5.5 9.42857C5.5 9.0118 5.66556 8.6121 5.96026 8.3174C6.25496 8.0227 6.65466 7.85714 7.07143 7.85714Z" fill="#F08200"/>
</svg>
