<svg width="52" height="123" viewBox="0 0 52 123" fill="none" xmlns="http://www.w3.org/2000/svg">
<g clip-path="url(#clip0_4162_1650)">
<path d="M3.87831 7.58583C4.64103 7.59146 5.38825 7.37297 6.0252 6.95805C6.66215 6.54313 7.16012 5.95044 7.45595 5.25525C7.75178 4.56006 7.83214 3.79367 7.68684 3.05326C7.54153 2.31284 7.17711 1.63179 6.6398 1.09648C6.10249 0.561166 5.4165 0.195736 4.66884 0.0465114C3.92118 -0.102714 3.14554 -0.0289725 2.44032 0.258343C1.73509 0.545658 1.13205 1.03364 0.707689 1.66035C0.283329 2.28707 0.0567701 3.02427 0.0567489 3.7785C0.0529572 4.27714 0.149008 4.77155 0.339362 5.23331C0.529715 5.69508 0.810604 6.11509 1.16585 6.46901C1.52109 6.82293 1.94366 7.10376 2.4092 7.29544C2.87473 7.48712 3.37403 7.58585 3.87831 7.58583Z" fill="#F08200" fill-opacity="0.29"/>
<path d="M3.87831 30.6561C4.64225 30.6618 5.39061 30.4426 6.02817 30.0264C6.66573 29.6102 7.16367 29.0158 7.45865 28.319C7.75362 27.6221 7.8323 26.8543 7.68465 26.1131C7.537 25.3719 7.16971 24.6909 6.62951 24.1567C6.08931 23.6226 5.40063 23.2594 4.65107 23.1134C3.90152 22.9674 3.12499 23.0451 2.42028 23.3368C1.71557 23.6285 1.11453 24.1209 0.693652 24.7514C0.27277 25.3818 0.0510673 26.1218 0.0567473 26.8773C0.0567473 27.8795 0.459373 28.8406 1.17606 29.5493C1.89274 30.258 2.86477 30.6561 3.87831 30.6561Z" fill="#F08200" fill-opacity="0.29"/>
<path d="M3.87831 53.8436C4.64103 53.8493 5.38825 53.6308 6.0252 53.2159C6.66215 52.8009 7.16012 52.2082 7.45595 51.5131C7.75178 50.8179 7.83214 50.0515 7.68684 49.3111C7.54153 48.5707 7.17711 47.8896 6.6398 47.3543C6.10249 46.819 5.4165 46.4535 4.66884 46.3043C3.92118 46.1551 3.14554 46.2288 2.44032 46.5162C1.73509 46.8035 1.13205 47.2914 0.707689 47.9182C0.283329 48.5449 0.0567701 49.2821 0.0567489 50.0363C0.0529572 50.535 0.149008 51.0294 0.339362 51.4911C0.529715 51.9529 0.810604 52.3729 1.16585 52.7268C1.52109 53.0807 1.94366 53.3616 2.4092 53.5533C2.87473 53.7449 3.37403 53.8437 3.87831 53.8436Z" fill="#F08200" fill-opacity="0.29"/>
<path d="M3.87831 76.828C4.64225 76.8336 5.39061 76.6144 6.02817 76.1982C6.66573 75.7821 7.16367 75.1877 7.45865 74.4908C7.75362 73.794 7.8323 73.0261 7.68465 72.285C7.537 71.5438 7.16971 70.8628 6.62951 70.3286C6.08931 69.7944 5.40063 69.4312 4.65107 69.2852C3.90152 69.1392 3.12499 69.217 2.42028 69.5087C1.71557 69.8004 1.11453 70.2928 0.693652 70.9233C0.27277 71.5537 0.0510673 72.2937 0.0567473 73.0491C0.0567473 74.0514 0.459373 75.0125 1.17606 75.7212C1.89274 76.4299 2.86477 76.828 3.87831 76.828Z" fill="#F08200" fill-opacity="0.29"/>
<path d="M3.87831 99.9296C4.64103 99.9352 5.38825 99.7167 6.0252 99.3018C6.66215 98.8869 7.16012 98.2942 7.45595 97.599C7.75178 96.9038 7.83214 96.1374 7.68684 95.397C7.54153 94.6566 7.17711 93.9755 6.6398 93.4402C6.10249 92.9049 5.4165 92.5395 4.66884 92.3903C3.92118 92.241 3.14554 92.3148 2.44032 92.6021C1.73509 92.8894 1.13205 93.3774 0.707689 94.0041C0.283329 94.6308 0.0567701 95.368 0.0567489 96.1222C0.0529572 96.6209 0.149008 97.1153 0.339362 97.5771C0.529715 98.0388 0.810604 98.4588 1.16585 98.8128C1.52109 99.1667 1.94366 99.4475 2.4092 99.6392C2.87473 99.8309 3.37403 99.9296 3.87831 99.9296Z" fill="#F08200" fill-opacity="0.29"/>
<path d="M3.87915 123C4.63941 122.994 5.38099 122.766 6.01037 122.344C6.63976 121.922 7.12879 121.326 7.41581 120.63C7.70283 119.933 7.77499 119.169 7.62319 118.432C7.4714 117.696 7.10245 117.02 6.56285 116.49C6.02324 115.961 5.33715 115.601 4.59106 115.456C3.84497 115.311 3.07228 115.389 2.3704 115.678C1.66853 115.967 1.06888 116.455 0.647062 117.08C0.225243 117.705 0.000132741 118.44 0.000111528 119.192C-0.00377453 119.696 0.0941216 120.195 0.288046 120.66C0.48197 121.126 0.768015 121.548 1.12938 121.903C1.49074 122.258 1.92013 122.537 2.39234 122.726C2.86455 122.914 3.37005 123.007 3.87915 123Z" fill="#F08200" fill-opacity="0.29"/>
<path d="M25.9759 0.00072882C28.0865 0.000728937 29.7974 1.69262 29.7974 3.77967C29.7974 5.86671 28.0865 7.55859 25.9759 7.55859C23.8653 7.55859 22.1543 5.86671 22.1543 3.77967C22.1543 1.69262 23.8653 0.000728702 25.9759 0.00072882Z" fill="#F08200" fill-opacity="0.29"/>
<path d="M25.9759 23.0984C28.0865 23.0984 29.7974 24.7903 29.7974 26.8773C29.7974 28.9644 28.0865 30.6563 25.9759 30.6563C23.8653 30.6563 22.1543 28.9644 22.1543 26.8773C22.1543 24.7903 23.8653 23.0984 25.9759 23.0984Z" fill="#F08200" fill-opacity="0.29"/>
<path d="M25.9759 46.1726C28.0865 46.1726 29.7974 47.8645 29.7974 49.9515C29.7974 52.0386 28.0865 53.7305 25.9759 53.7305C23.8653 53.7305 22.1543 52.0386 22.1543 49.9515C22.1543 47.8645 23.8653 46.1726 25.9759 46.1726Z" fill="#F08200" fill-opacity="0.29"/>
<path d="M25.9759 69.2703C28.0865 69.2703 29.7974 70.9621 29.7974 73.0492C29.7974 75.1362 28.0865 76.8281 25.9759 76.8281C23.8653 76.8281 22.1543 75.1362 22.1543 73.0492C22.1543 70.9621 23.8653 69.2703 25.9759 69.2703Z" fill="#F08200" fill-opacity="0.29"/>
<path d="M25.9759 92.3406C28.0865 92.3406 29.7974 94.0325 29.7974 96.1195C29.7974 98.2066 28.0865 99.8984 25.9759 99.8984C23.8653 99.8984 22.1543 98.2066 22.1543 96.1195C22.1543 94.0325 23.8653 92.3406 25.9759 92.3406Z" fill="#F08200" fill-opacity="0.29"/>
<path d="M25.9759 115.442C28.0865 115.442 29.7974 117.134 29.7974 119.221C29.7974 121.308 28.0865 123 25.9759 123C23.8653 123 22.1543 121.308 22.1543 119.221C22.1543 117.134 23.8653 115.442 25.9759 115.442Z" fill="#F08200" fill-opacity="0.29"/>
<path d="M48.1296 7.58594C48.8911 7.58594 49.6355 7.36264 50.2687 6.94429C50.9019 6.52593 51.3954 5.93129 51.6868 5.23559C51.9782 4.53988 52.0545 3.7744 51.9059 3.03585C51.7573 2.2973 51.3906 1.61882 50.8522 1.08635C50.3137 0.553887 49.6276 0.191271 48.8808 0.0443638C48.1339 -0.102544 47.3597 -0.027118 46.6561 0.261051C45.9526 0.54922 45.3513 1.03721 44.9282 1.66332C44.5051 2.28943 44.2793 3.02558 44.2793 3.7786C44.2793 4.78837 44.6849 5.75675 45.407 6.47076C46.1291 7.18478 47.1084 7.58594 48.1296 7.58594Z" fill="#F08200" fill-opacity="0.29"/>
<path d="M48.1297 30.6563C48.8924 30.6562 49.638 30.4322 50.2718 30.0126C50.9056 29.593 51.399 28.9967 51.6896 28.2993C51.9801 27.6019 52.0547 26.835 51.9038 26.0957C51.7529 25.3564 51.3833 24.6779 50.8419 24.1466C50.3006 23.6153 49.6119 23.255 48.8631 23.1113C48.1143 22.9676 47.3393 23.0471 46.6362 23.3396C45.9332 23.6321 45.3339 24.1245 44.9143 24.7544C44.4947 25.3842 44.2737 26.1231 44.2794 26.8774C44.287 27.8822 44.696 28.8433 45.4172 29.5512C46.1385 30.2591 47.1135 30.6563 48.1297 30.6563Z" fill="#F08200" fill-opacity="0.29"/>
<path d="M48.1296 53.8438C48.8911 53.8438 49.6355 53.6205 50.2687 53.2021C50.9019 52.7837 51.3954 52.1891 51.6868 51.4934C51.9782 50.7977 52.0545 50.0322 51.9059 49.2937C51.7573 48.5551 51.3906 47.8766 50.8522 47.3442C50.3137 46.8117 49.6276 46.4491 48.8808 46.3022C48.1339 46.1553 47.3597 46.2307 46.6561 46.5189C45.9526 46.807 45.3513 47.295 44.9282 47.9211C44.5051 48.5472 44.2793 49.2834 44.2793 50.0364C44.2793 51.0462 44.6849 52.0146 45.407 52.7286C46.1291 53.4426 47.1084 53.8438 48.1296 53.8438Z" fill="#F08200" fill-opacity="0.29"/>
<path d="M48.1297 76.8281C48.8924 76.8281 49.638 76.6041 50.2718 76.1845C50.9056 75.7649 51.399 75.1685 51.6896 74.4712C51.9801 73.7738 52.0547 73.0069 51.9038 72.2675C51.7529 71.5282 51.3833 70.8498 50.8419 70.3185C50.3006 69.7872 49.6119 69.4269 48.8631 69.2832C48.1143 69.1395 47.3393 69.2189 46.6362 69.5115C45.9332 69.804 45.3339 70.2964 44.9143 70.9262C44.4947 71.5561 44.2737 72.295 44.2794 73.0492C44.287 74.0541 44.696 75.0152 45.4172 75.7231C46.1385 76.431 47.1135 76.8282 48.1297 76.8281Z" fill="#F08200" fill-opacity="0.29"/>
<path d="M48.1296 99.9297C48.8911 99.9297 49.6355 99.7064 50.2687 99.288C50.9019 98.8697 51.3954 98.275 51.6868 97.5793C51.9782 96.8836 52.0545 96.1182 51.9059 95.3796C51.7573 94.641 51.3906 93.9626 50.8522 93.4301C50.3137 92.8976 49.6276 92.535 48.8808 92.3881C48.1339 92.2412 47.3597 92.3166 46.6561 92.6048C45.9526 92.893 45.3513 93.381 44.9282 94.0071C44.5051 94.6332 44.2793 95.3693 44.2793 96.1224C44.2793 97.1321 44.6849 98.1005 45.407 98.8145C46.1291 99.5285 47.1084 99.9297 48.1296 99.9297Z" fill="#F08200" fill-opacity="0.29"/>
<path d="M48.1296 123C48.8911 123 49.6355 122.777 50.2687 122.358C50.9019 121.94 51.3954 121.345 51.6868 120.65C51.9782 119.954 52.0545 119.188 51.9059 118.45C51.7573 117.711 51.3906 117.033 50.8522 116.501C50.3137 115.968 49.6276 115.605 48.8808 115.459C48.1339 115.312 47.3597 115.387 46.6561 115.675C45.9526 115.963 45.3513 116.451 44.9282 117.077C44.5051 117.703 44.2793 118.44 44.2793 119.193C44.2793 120.202 44.6849 121.171 45.407 121.885C46.1291 122.599 47.1084 123 48.1296 123Z" fill="#F08200" fill-opacity="0.29"/>
</g>
<defs>
<clipPath id="clip0_4162_1650">
<rect width="51.9503" height="123" fill="white" transform="matrix(1 5.56363e-08 5.56363e-08 -1 0 123)"/>
</clipPath>
</defs>
</svg>
