<svg width="16" height="16" viewBox="0 0 16 16" fill="none" xmlns="http://www.w3.org/2000/svg">
<g clip-path="url(#clip0_1657_13379)">
<path d="M7.723 1.06637C7.82548 0.819982 8.17452 0.819981 8.277 1.06637L10.0457 5.31874C10.0889 5.42261 10.1865 5.49358 10.2987 5.50257L14.8895 5.87061C15.1555 5.89194 15.2633 6.22389 15.0607 6.39749L11.563 9.39364C11.4775 9.46683 11.4402 9.58166 11.4663 9.69109L12.5349 14.1709C12.5968 14.4305 12.3145 14.6356 12.0867 14.4966L8.15638 12.0959C8.06037 12.0373 7.93963 12.0373 7.84362 12.0959L3.91327 14.4966C3.68554 14.6356 3.40316 14.4305 3.46508 14.1709L4.53368 9.69109C4.55978 9.58166 4.52247 9.46683 4.43703 9.39364L0.939335 6.39749C0.736674 6.22389 0.844531 5.89194 1.11053 5.87061L5.70132 5.50257C5.81346 5.49358 5.91114 5.42261 5.95434 5.31874L7.723 1.06637Z" fill="#FFD27E"/>
<path d="M6.73146 3.52127C6.7801 3.40839 6.94851 3.44313 6.94851 3.56605V8.29758V12.6477C6.94851 12.7561 6.88995 12.8562 6.79535 12.9093L3.89546 14.537C3.66737 14.665 3.39611 14.4602 3.4568 14.2058L4.53373 9.69102C4.55984 9.5816 4.52252 9.46676 4.43709 9.39358L0.939389 6.39742C0.736728 6.22382 0.844585 5.89187 1.11058 5.87055L5.70397 5.5023C5.81474 5.49342 5.91153 5.42403 5.95551 5.32198L6.73146 3.52127Z" fill="#FDB022"/>
</g>
<defs>
<clipPath id="clip0_1657_13379">
<rect width="16" height="16" fill="white"/>
</clipPath>
</defs>
</svg>
