<svg width="34" height="31" viewBox="0 0 34 31" fill="none" xmlns="http://www.w3.org/2000/svg">
<path d="M3.42308 1V19.1731C3.42308 20.137 3.80601 21.0615 4.48763 21.7431C5.16925 22.4248 6.09373 22.8077 7.05769 22.8077H10.6923M3.42308 1H1M3.42308 1H30.0769M30.0769 1H32.5M30.0769 1V19.1731C30.0769 20.137 29.694 21.0615 29.0124 21.7431C28.3307 22.4248 27.4063 22.8077 26.4423 22.8077H22.8077M10.6923 22.8077H22.8077M10.6923 22.8077L9.07692 27.6538M22.8077 22.8077L24.4231 27.6538M24.4231 27.6538L25.2308 30.0769M24.4231 27.6538H9.07692M9.07692 27.6538L8.26923 30.0769M9.48077 15.5385L14.3269 10.6923L17.7968 14.1622C19.427 11.8219 21.5512 9.86818 24.0192 8.43885" stroke="#F58220" stroke-width="1.5" stroke-linecap="round" stroke-linejoin="round"/>
</svg>
