<svg width="19" height="25" viewBox="0 0 19 25" fill="none" xmlns="http://www.w3.org/2000/svg">
<path d="M18.8344 11.9246C17.588 10.609 15.9263 9.70888 14.1952 9.36268C13.4336 9.15496 12.6719 9.01648 11.9103 8.94724C13.849 6.6623 13.5028 3.20027 11.2179 1.26154C8.93296 -0.677197 5.47093 -0.330994 3.53219 1.95394C1.59346 4.23888 1.93966 7.70091 4.2246 9.63964C4.64004 9.98584 5.05549 10.2628 5.47093 10.4013V11.9246L4.36308 10.886C3.39371 9.9166 1.80118 9.9166 0.762573 10.886C-0.206795 11.8553 -0.276036 13.3786 0.693332 14.348L3.8784 18.087C4.01688 19.0564 4.36308 19.9565 4.84776 20.7874C5.19397 21.4105 5.67865 22.0337 6.16334 22.5184V23.8339C6.16334 24.2494 6.4403 24.5264 6.85574 24.5264H16.2725C16.6187 24.5264 16.9649 24.1801 16.9649 23.8339V22.0337C18.2804 20.4412 18.9728 18.4332 18.9728 16.4252V12.4093C19.0421 12.1323 18.9728 11.9938 18.8344 11.9246ZM3.60143 5.41597C3.60143 3.13103 5.47093 1.33078 7.75587 1.40002C10.0408 1.40002 11.8411 3.26951 11.7718 5.55445C11.7718 6.80078 11.2179 7.90863 10.2485 8.67027V5.20825C10.2132 4.60819 9.94962 4.04438 9.5119 3.63241C9.07417 3.22044 8.49545 2.99151 7.89435 2.99255C6.64802 2.92331 5.54017 3.96192 5.54017 5.20825V8.80875C4.36308 8.11635 3.67068 6.80078 3.60143 5.41597ZM17.6573 16.356C17.7265 18.1562 17.1033 19.8872 15.9263 21.272C15.7878 21.4105 15.6493 21.549 15.6493 21.7567V23.2108H7.61739V22.2414C7.61739 22.0337 7.47891 21.826 7.34042 21.6875C6.85574 21.272 6.4403 20.7874 6.09409 20.1642C5.67865 19.4718 5.40169 18.6409 5.26321 17.81C5.26321 17.6715 5.19397 17.5331 5.12473 17.3946L1.80118 13.4479C1.59346 13.2401 1.45498 12.9632 1.45498 12.617C1.45498 12.34 1.59346 11.9938 1.80118 11.7861C2.28586 11.3707 2.97827 11.3707 3.46295 11.7861L5.47093 13.7941V15.8713L6.7865 15.1789V5.20825C6.85574 4.72356 7.27118 4.30812 7.82511 4.37736C8.30979 4.37736 8.79448 4.72356 8.79448 5.20825V13.1709L10.1793 13.4479V10.2628C10.2485 10.1936 10.3178 10.1936 10.387 10.1243C10.8717 10.1243 11.3564 10.1936 11.8411 10.2628V13.7941L12.9489 14.0018V10.4013L13.7798 10.609C14.126 10.6782 14.4722 10.8167 14.8184 10.9552V14.4172L15.9263 14.625V11.4399C16.5494 11.7169 17.1033 12.1323 17.588 12.617L17.6573 16.356Z" fill="#F08200"/>
</svg>
