<svg width="23" height="26" viewBox="0 0 23 26" fill="none" xmlns="http://www.w3.org/2000/svg">
<path d="M22.7408 16.1823L20.3462 13.7876V10.6154C20.3434 8.42316 19.5279 6.30983 18.0573 4.68402C16.5868 3.05822 14.5656 2.03544 12.3846 1.81346V0H10.6154V1.81346C8.43443 2.03544 6.41325 3.05822 4.94267 4.68402C3.4721 6.30983 2.65659 8.42316 2.65385 10.6154V13.7876L0.259192 16.1823C0.0932832 16.3481 5.01023e-05 16.5731 0 16.8077V19.4615C0 19.6962 0.0932002 19.9212 0.259098 20.0871C0.424995 20.253 0.650001 20.3462 0.884615 20.3462H7.07692V21.0335C7.05768 22.1558 7.45324 23.2456 8.18781 24.0943C8.92237 24.943 9.94428 25.4907 11.0577 25.6326C11.6727 25.6936 12.2936 25.6252 12.8805 25.4318C13.4675 25.2384 14.0074 24.9243 14.4657 24.5097C14.924 24.0951 15.2904 23.5892 15.5414 23.0245C15.7924 22.4597 15.9224 21.8488 15.9231 21.2308V20.3462H22.1154C22.35 20.3462 22.575 20.253 22.7409 20.0871C22.9068 19.9212 23 19.6962 23 19.4615V16.8077C22.9999 16.5731 22.9067 16.3481 22.7408 16.1823ZM14.1538 21.2308C14.1538 21.9346 13.8742 22.6096 13.3766 23.1073C12.8789 23.605 12.2038 23.8846 11.5 23.8846C10.7962 23.8846 10.1211 23.605 9.62345 23.1073C9.12575 22.6096 8.84615 21.9346 8.84615 21.2308V20.3462H14.1538V21.2308ZM21.2308 18.5769H1.76923V17.1739L4.16388 14.7793C4.32979 14.6134 4.42303 14.3884 4.42308 14.1538V10.6154C4.42308 8.73847 5.16868 6.93843 6.49586 5.61124C7.82304 4.28406 9.62308 3.53846 11.5 3.53846C13.3769 3.53846 15.177 4.28406 16.5041 5.61124C17.8313 6.93843 18.5769 8.73847 18.5769 10.6154V14.1538C18.577 14.3884 18.6702 14.6134 18.8361 14.7793L21.2308 17.1739V18.5769Z" fill="#F08200"/>
</svg>
