<svg width="15" height="22" viewBox="0 0 15 22" fill="none" xmlns="http://www.w3.org/2000/svg">
<path d="M14.75 2.34375V0.53125H0.25V2.34375H5.23438C6.23461 2.34669 7.19872 2.71793 7.94261 3.38659C8.68649 4.05526 9.15804 4.97449 9.26719 5.96875H0.25V7.78125H9.26719C9.15804 8.77551 8.68649 9.69474 7.94261 10.3634C7.19872 11.0321 6.23461 11.4033 5.23438 11.4062H0.25V13.5314L8.96541 21.375L10.178 20.0283L2.61169 13.2188H5.23438C6.71708 13.2166 8.14452 12.6557 9.23208 11.6479C10.3196 10.6402 10.9874 9.2595 11.1023 7.78125H14.75V5.96875H11.1023C10.9984 4.60796 10.4231 3.32603 9.47563 2.34375H14.75Z" fill="#F08200"/>
</svg>
