<svg width="50" height="50" viewBox="0 0 50 50" fill="none" xmlns="http://www.w3.org/2000/svg">
<path d="M43.5409 6.46238C39.3765 2.29882 33.8395 0.00585938 27.9501 0.00585938C27.4103 0.00585938 26.9727 0.443455 26.9727 0.98329V22.0501C26.9727 22.5899 27.4103 23.0275 27.9501 23.0275H49.0216C49.5614 23.0275 49.9991 22.5899 49.9991 22.0501C49.9991 16.1618 47.7055 10.626 43.5409 6.46238ZM28.9275 21.0726V1.98418C39.2307 2.48042 47.5244 10.7719 48.0208 21.0726H28.9275Z" fill="#043B72"/>
<path d="M44.74 26.1858H23.8139V5.26454C23.8139 4.72471 23.3763 4.28711 22.8364 4.28711C16.7248 4.28711 10.9789 6.66657 6.65722 10.9873C-2.21873 19.5024 -2.21951 34.8242 6.65752 43.3391C15.1738 52.2126 30.4994 52.2141 39.0158 43.3391C43.3375 39.0185 45.7174 33.2737 45.7174 27.1632C45.7174 26.6234 45.2798 26.1858 44.74 26.1858ZM1.91043 27.1632C1.91043 15.9546 10.7722 6.77643 21.8591 6.26455V48.0619C10.7722 47.55 1.91043 38.3718 1.91043 27.1632ZM37.6336 41.9566C33.9126 45.6769 29.0364 47.8235 23.8139 48.062V28.1406H43.7403C43.5017 33.3619 41.3546 38.2365 37.6336 41.9566Z" fill="#043B72"/>
<path d="M39.485 13.4991C38.5752 13.4991 37.7686 13.9935 37.2722 14.7511L39.7552 8.83549C39.9642 8.33778 39.73 7.76491 39.2322 7.55593C38.7346 7.34715 38.1616 7.58105 37.9526 8.07895L36.7015 11.0598C37.3417 9.20808 36.0219 7.00974 34.1291 7.03936C30.5086 7.20288 30.5095 12.9029 34.1292 13.066C35.1382 13.066 36.0204 12.458 36.4928 11.5571L33.9871 17.5269C33.7781 18.0246 34.0123 18.5975 34.5101 18.8065C34.9955 19.0138 35.5807 18.7863 35.7897 18.2834L36.8341 15.795C36.3919 17.5911 37.7252 19.5652 39.4851 19.5258C43.1055 19.3622 43.1047 13.6621 39.485 13.4991ZM34.1291 11.1111C33.7091 11.1111 33.3543 10.6264 33.3543 10.0527C33.3543 9.47893 33.7091 8.99422 34.1291 8.99422C34.5491 8.99422 34.904 9.47893 34.904 10.0527C34.904 10.6264 34.5491 11.1111 34.1291 11.1111ZM39.485 17.5709C39.065 17.5709 38.7101 17.0862 38.7101 16.5124C38.7101 15.9387 39.065 15.454 39.485 15.454C39.905 15.454 40.2598 15.9387 40.2598 16.5124C40.2598 17.0862 39.905 17.5709 39.485 17.5709Z" fill="#043B72"/>
<path d="M18.3062 14.2656H13.1402C11.8434 14.3172 11.8444 16.1694 13.1402 16.2205H18.3062C19.603 16.1688 19.602 14.3167 18.3062 14.2656Z" fill="#043B72"/>
<path d="M18.3049 19.0879H9.66759C8.37073 19.1395 8.37171 20.9916 9.66759 21.0428H18.3049C19.6017 20.991 19.6007 19.139 18.3049 19.0879Z" fill="#043B72"/>
<path d="M18.3075 23.9121H6.19884C4.90198 23.9637 4.90296 25.8159 6.19884 25.867H18.3075C19.6043 25.8154 19.6033 23.9632 18.3075 23.9121Z" fill="#043B72"/>
<path d="M18.3075 28.7363H6.19884C4.90198 28.7879 4.90296 30.6401 6.19884 30.6912H18.3075C19.6043 30.6396 19.6033 28.7874 18.3075 28.7363Z" fill="#043B72"/>
<path d="M18.3049 33.5586H9.66759C8.37073 33.6102 8.37171 35.4623 9.66759 35.5135H18.3049C19.6017 35.4618 19.6007 33.6097 18.3049 33.5586Z" fill="#043B72"/>
<path d="M18.3062 38.3828H13.1402C11.8434 38.4344 11.8444 40.2866 13.1402 40.3377H18.3062C19.603 40.2861 19.602 38.4339 18.3062 38.3828Z" fill="#043B72"/>
<path d="M29.4457 39.155C29.1069 38.7345 28.4916 38.6686 28.0713 39.0072C27.6509 39.3459 27.5847 39.9612 27.9234 40.3816C28.497 41.0936 29.3251 41.4914 30.1457 41.6776C30.2252 42.8847 31.9271 42.9412 32.0924 41.7493C33.5514 41.5046 34.5774 40.5452 34.7438 39.2344C34.9357 37.7236 33.9533 36.2739 32.3551 35.7091C32.2662 35.6777 32.1815 35.6475 32.0987 35.6178V33.4729C32.2407 33.5455 32.3437 33.6314 32.4015 33.7137C32.7117 34.1556 33.3214 34.2623 33.763 33.9522C34.2049 33.642 34.3116 33.0324 34.0014 32.5906C33.6247 32.0538 32.9607 31.6006 32.0987 31.4227V31.4078C32.0471 30.111 30.195 30.1119 30.1438 31.4078V31.4903C30.0658 31.51 29.9874 31.531 29.9081 31.5548C27.5604 32.3106 27.1737 35.6637 29.581 36.7369C29.7103 36.7979 29.9024 36.8787 30.1438 36.9742V39.6366C29.8611 39.5224 29.6133 39.3629 29.4457 39.155ZM32.8047 38.9881C32.76 39.3402 32.5094 39.6012 32.0988 39.7413V37.7394C32.6466 38.0752 32.8552 38.5901 32.8047 38.9881ZM29.9003 34.2127C29.9161 34.0008 30.0089 33.7963 30.1439 33.6457V34.7962C29.9643 34.6416 29.8828 34.4492 29.9003 34.2127Z" fill="#043B72"/>
</svg>
