<svg width="306" height="305" viewBox="0 0 306 305" fill="none" xmlns="http://www.w3.org/2000/svg">
<circle cx="148.765" cy="148.967" r="121.033" transform="rotate(75 148.765 148.967)" fill="url(#paint0_linear_488_149)" fill-opacity="0.25"/>
<g clip-path="url(#clip0_488_149)">
<path d="M100.191 85C96.6949 85.0083 93.3446 86.39 90.8727 88.8427C88.4008 91.2954 87.0084 94.6195 87 98.0882V242.912C87.0042 246.382 88.3953 249.708 90.8681 252.162C93.3409 254.616 96.6936 255.996 100.191 256H209.825C213.322 255.996 216.675 254.616 219.148 252.162C221.621 249.708 223.012 246.382 223.016 242.912V98.0882C223.008 94.6195 221.615 91.2954 219.143 88.8427C216.671 86.39 213.321 85.0083 209.825 85H100.191ZM218.428 98.0882V242.912C218.428 245.156 217.531 247.309 215.933 248.897C214.335 250.486 212.167 251.38 209.905 251.384H100.191C97.9273 251.38 95.7578 250.486 94.1573 248.898C92.5569 247.31 91.6559 245.158 91.6517 242.912V98.0882C91.6559 95.8424 92.5569 93.6898 94.1573 92.1018C95.7578 90.5138 97.9273 89.6198 100.191 89.6156H209.825C210.952 89.6073 212.069 89.8203 213.113 90.2423C214.156 90.6644 215.105 91.2871 215.904 92.0747C216.704 92.8623 217.339 93.7991 217.772 94.8312C218.205 95.8633 218.428 96.9702 218.428 98.0882Z" fill="#F08200"/>
<path d="M203.739 137.156H204.239V136.656V111.254V110.754H203.739H106.466H105.966V111.254V136.656V137.156H106.466H203.739ZM103.28 105.432H206.925C207.638 105.432 208.322 105.713 208.826 106.213C209.329 106.712 209.611 107.388 209.611 108.093V139.707C209.611 140.412 209.329 141.088 208.826 141.588C208.322 142.087 207.638 142.368 206.925 142.368H103.28C102.566 142.368 101.883 142.087 101.379 141.588C100.876 141.088 100.594 140.412 100.594 139.707V108.093C100.594 107.388 100.876 106.712 101.379 106.213C101.883 105.713 102.566 105.432 103.28 105.432Z" fill="#F08200" stroke="white"/>
<path d="M194.916 236.916H195.416V236.416V207.473V206.973H194.916H181.439H180.939V207.473V236.416V236.916H181.439H194.916ZM178.253 201.65H198.102C198.816 201.65 199.499 201.932 200.003 202.431C200.506 202.931 200.788 203.607 200.788 204.312V239.577C200.788 240.282 200.506 240.958 200.003 241.458C199.499 241.957 198.816 242.239 198.102 242.239H178.253C177.539 242.239 176.855 241.957 176.352 241.458C175.848 240.958 175.566 240.282 175.566 239.577V204.312C175.566 203.607 175.848 202.931 176.352 202.431C176.855 201.932 177.539 201.65 178.253 201.65Z" fill="#F08200" stroke="white"/>
<path d="M182.474 168.713H193.896C197.401 168.713 200.268 165.393 200.268 161.331C200.268 157.269 197.433 153.949 193.896 153.949H182.474C178.969 153.949 176.102 157.253 176.102 161.331C176.102 165.409 178.969 168.713 182.474 168.713ZM182.474 157.111H193.896C195.601 157.111 197.082 159.039 197.082 161.331C197.082 163.623 195.633 165.552 193.896 165.552H182.474C180.753 165.552 179.288 163.607 179.288 161.331C179.288 159.055 180.753 157.095 182.474 157.095V157.111Z" fill="#F08200"/>
<path d="M182.474 192.361H193.896C197.401 192.361 200.268 189.058 200.268 184.98C200.268 180.901 197.433 177.598 193.896 177.598H182.474C178.969 177.598 176.102 180.917 176.102 184.98C176.102 189.042 178.969 192.361 182.474 192.361ZM182.474 180.759H193.896C195.601 180.759 197.082 182.703 197.082 184.98C197.082 187.256 195.633 189.2 193.896 189.2H182.474C180.753 189.2 179.288 187.272 179.288 184.98C179.288 182.688 180.753 180.806 182.474 180.806V180.759Z" fill="#F08200"/>
<path d="M161.587 153.934H150.165C146.66 153.934 143.793 157.237 143.793 161.315C143.793 165.394 146.645 168.697 150.165 168.697H161.587C165.092 168.697 167.96 165.378 167.96 161.315C167.96 157.253 165.092 153.934 161.587 153.934ZM161.587 165.536H150.165C148.445 165.536 146.979 163.592 146.979 161.315C146.979 159.039 148.429 157.095 150.165 157.095H161.587C163.308 157.095 164.774 159.023 164.774 161.315C164.774 163.607 163.308 165.552 161.587 165.552V165.536Z" fill="#F08200"/>
<path d="M161.587 177.186H150.165C146.66 177.186 143.793 180.505 143.793 184.583C143.793 188.661 146.645 191.949 150.165 191.949H161.587C165.092 191.949 167.96 188.646 167.96 184.583C167.96 180.521 165.092 177.186 161.587 177.186ZM161.587 188.788H150.165C148.445 188.788 146.979 186.859 146.979 184.583C146.979 182.307 148.429 180.347 150.165 180.347H161.587C163.308 180.347 164.774 182.291 164.774 184.583C164.774 186.875 163.308 188.788 161.587 188.788Z" fill="#F08200"/>
<path d="M129.295 153.934H117.872C114.368 153.934 111.5 157.237 111.5 161.315C111.5 165.394 114.352 168.697 117.872 168.697H129.295C132.799 168.697 135.667 165.378 135.667 161.315C135.667 157.253 132.799 153.934 129.295 153.934ZM129.295 165.536H117.872C116.152 165.536 114.686 163.592 114.686 161.315C114.686 159.039 116.136 157.095 117.872 157.095H129.295C131.015 157.095 132.481 159.023 132.481 161.315C132.481 163.607 131.015 165.552 129.295 165.552V165.536Z" fill="#F08200"/>
<path d="M129.295 177.186H117.872C114.368 177.186 111.5 180.505 111.5 184.583C111.5 188.661 114.352 191.949 117.872 191.949H129.295C132.799 191.949 135.667 188.646 135.667 184.583C135.667 180.521 132.799 177.186 129.295 177.186ZM129.295 188.788H117.872C116.152 188.788 114.686 186.859 114.686 184.583C114.686 182.307 116.136 180.347 117.872 180.347H129.295C131.015 180.347 132.481 182.291 132.481 184.583C132.481 186.875 131.015 188.788 129.295 188.788Z" fill="#F08200"/>
<path d="M129.295 200.438H117.872C114.368 200.438 111.5 203.757 111.5 207.819C111.5 211.882 114.352 215.201 117.872 215.201H129.295C132.799 215.201 135.667 211.898 135.667 207.819C135.667 203.741 132.799 200.438 129.295 200.438ZM129.295 212.04H117.872C116.152 212.04 114.686 210.111 114.686 207.819C114.686 205.527 116.136 203.599 117.872 203.599H129.295C131.015 203.599 132.481 205.527 132.481 207.819C132.481 210.111 131.015 212.04 129.295 212.04Z" fill="#F08200"/>
<path d="M129.295 223.691H117.872C114.368 223.691 111.5 226.995 111.5 231.073C111.5 235.151 114.352 238.455 117.872 238.455H129.295C132.799 238.455 135.667 235.151 135.667 231.073C135.667 226.995 132.799 223.691 129.295 223.691ZM129.295 235.294H117.872C116.152 235.294 114.686 233.365 114.686 231.073C114.686 228.781 116.136 226.853 117.872 226.853H129.295C131.015 226.853 132.481 228.781 132.481 231.073C132.481 233.365 131.015 235.294 129.295 235.294Z" fill="#F08200"/>
<path d="M160.822 200.438H149.384C145.895 200.438 143.012 203.757 143.012 207.819C143.012 211.882 145.863 215.201 149.384 215.201H160.822C164.311 215.201 167.195 211.898 167.195 207.819C167.195 203.741 164.263 200.438 160.822 200.438ZM160.822 212.04H149.384C147.679 212.04 146.198 210.111 146.198 207.819C146.198 205.527 147.648 203.599 149.384 203.599H160.822C162.527 203.599 164.008 205.527 164.008 207.819C164.008 210.111 162.527 212.04 160.822 212.04Z" fill="#F08200"/>
<path d="M160.822 223.691H149.384C145.895 223.691 143.012 226.995 143.012 231.073C143.012 235.151 145.863 238.455 149.384 238.455H160.822C164.311 238.455 167.195 235.151 167.195 231.073C167.195 226.995 164.263 223.691 160.822 223.691ZM160.822 235.294H149.384C147.679 235.294 146.198 233.365 146.198 231.073C146.198 228.781 147.648 226.853 149.384 226.853H160.822C162.527 226.853 164.008 228.781 164.008 231.073C164.008 233.365 162.527 235.294 160.822 235.294Z" fill="#F08200"/>
</g>
<path d="M143 300.743C143 300.743 234.247 239.323 256.673 144.986L306 121C306 121 287.843 230.029 146.189 305L143 300.743Z" fill="#F08200"/>
<defs>
<linearGradient id="paint0_linear_488_149" x1="20.5656" y1="145.058" x2="144.11" y2="145.058" gradientUnits="userSpaceOnUse">
<stop stop-color="#F58220" stop-opacity="0.8"/>
<stop offset="1" stop-color="#F58220" stop-opacity="0"/>
</linearGradient>
<clipPath id="clip0_488_149">
<rect width="136" height="171" fill="white" transform="translate(87 85)"/>
</clipPath>
</defs>
</svg>
