<svg width="56" height="56" viewBox="0 0 56 56" fill="none" xmlns="http://www.w3.org/2000/svg">
<circle cx="28" cy="28" r="28" fill="url(#paint0_linear_488_154)" fill-opacity="0.25"/>
<path fill-rule="evenodd" clip-rule="evenodd" d="M16 38.7496V38.9956C16 39.5261 15.7893 40.0348 15.4142 40.4098C15.0391 40.7849 14.5304 40.9956 14 40.9956H11C10.4696 40.9956 9.96086 40.7849 9.58579 40.4098C9.21071 40.0348 9 39.5261 9 38.9956V28.0006C9 27.4702 9.21071 26.9615 9.58579 26.5864C9.96086 26.2113 10.4696 26.0006 11 26.0006H14C14.4504 26.0004 14.8877 26.1523 15.2411 26.4316C15.5944 26.7109 15.8432 27.1013 15.947 27.5396C17.271 27.0626 18.818 26.4946 19.291 26.2786C19.693 26.0956 20.157 26.0336 20.543 26.0106C20.9414 25.9913 21.3406 25.9983 21.738 26.0316C22.183 26.0671 22.6262 26.1232 23.066 26.1996L23.089 26.2036L23.096 26.2046H23.099L23.117 26.2086L29.807 27.7086L29.848 27.7226L29.859 27.7266L29.905 27.7406C30.1936 27.8252 30.4851 27.8996 30.779 27.9636C31.354 28.0886 32.079 28.2056 32.754 28.2056C33.378 28.2056 34.024 28.4386 34.368 29.0706C34.664 29.6126 34.595 30.2086 34.485 30.6206C34.346 31.1346 34.06 31.6746 33.697 32.1336C34.187 31.9486 34.724 31.7296 35.3 31.4936L35.423 31.4436C37.046 30.7766 38.97 29.9866 40.668 29.7066C42.608 29.3856 44.019 30.0896 44.659 31.3386C45.229 32.4506 45.097 33.9096 44.239 34.7886C44.024 35.0096 43.696 35.2416 43.367 35.4546C43.015 35.6836 42.582 35.9406 42.101 36.2146C40.996 36.8334 39.8774 37.4276 38.746 37.9966C36.374 39.1996 33.888 40.3696 33.098 40.6586C32.182 40.9936 31.198 41.0256 30.253 40.9766C29.6823 40.9412 29.1125 40.8928 28.544 40.8316C28.1278 40.7885 27.7111 40.7502 27.294 40.7166C25.366 40.5706 23.886 40.0996 22.524 39.6666L22.358 39.6136C20.95 39.1676 19.64 38.7706 17.905 38.7006C17.509 38.6846 16.717 38.7146 16 38.7486V38.7496ZM20.12 28.0986C20.185 28.0686 20.355 28.0256 20.658 28.0076C20.942 27.9906 21.266 28.0016 21.583 28.0256C21.9623 28.0561 22.34 28.1039 22.715 28.1686H22.718L29.285 29.6416L29.33 29.6556C29.6678 29.7551 30.009 29.8424 30.353 29.9176C30.938 30.0456 31.723 30.1796 32.522 30.2026C32.4507 30.3951 32.3549 30.5776 32.237 30.7456C32.077 30.9776 31.902 31.1566 31.758 31.2596C31.342 31.5576 31.006 31.6816 30.802 31.7346C30.7325 31.7537 30.6616 31.767 30.59 31.7746H30.568L25.206 31.7106L25.016 33.6946L25.194 32.7106L25.016 33.6946L25.069 33.7046L25.222 33.7316L25.778 33.8296C26.245 33.9116 26.886 34.0216 27.584 34.1356C28.958 34.3596 30.614 34.6076 31.554 34.6646C32.204 34.7046 32.96 34.5046 33.663 34.2696C34.396 34.0246 35.225 33.6856 36.059 33.3436C37.776 32.6396 39.525 31.9226 40.994 31.6796C42.264 31.4696 42.717 31.9336 42.879 32.2506C43.112 32.7056 42.986 33.2106 42.807 33.3926C42.764 33.4376 42.607 33.5646 42.279 33.7776C41.973 33.9746 41.578 34.2116 41.114 34.4746C40.0363 35.078 38.9453 35.6575 37.842 36.2126C35.45 37.4256 33.07 38.5386 32.41 38.7806C31.876 38.9766 31.215 39.0236 30.356 38.9796C29.85 38.9498 29.3448 38.9068 28.841 38.8506C28.3763 38.8017 27.9109 38.7591 27.445 38.7226C25.753 38.5946 24.467 38.1856 23.088 37.7476L22.963 37.7076C21.535 37.2546 20.007 36.7836 17.986 36.7026C17.531 36.6846 16.721 36.7126 16 36.7466V29.6456C17.405 29.1426 19.487 28.3876 20.12 28.0986ZM22.916 27.1886L23.099 26.2056L22.916 27.1886ZM14 27.9996H11V38.9946H14V28.0006V27.9996Z" fill="#F08200"/>
<path d="M36.5573 13.9773C37.103 13.9773 37.5459 13.5344 37.5459 12.9886C37.5459 12.4429 37.103 12 36.5573 12H27.989C27.4433 12 27.0004 12.4429 27.0004 12.9886C27.0004 13.5344 27.4433 13.9773 27.989 13.9773H30.9549C31.9964 13.9773 32.869 14.6758 33.1538 15.6248H27.989C27.4433 15.6248 27.0004 16.0677 27.0004 16.6135C27.0004 17.1592 27.4433 17.6021 27.989 17.6021H32.8427C32.4249 18.198 31.7353 18.5907 30.9549 18.5907H27.989C27.5555 18.5907 27.1718 18.8744 27.0441 19.2881C26.9162 19.702 27.073 20.1517 27.4315 20.3967L34.6816 25.3398C34.8528 25.4559 35.0454 25.5112 35.2377 25.5112C35.5542 25.5112 35.8653 25.3611 36.0565 25.0801C36.3623 24.628 36.2476 24.0126 35.7968 23.7053L31.1857 20.5615C32.9851 20.4666 34.476 19.2473 35.0123 17.6021H36.5573C37.103 17.6021 37.5459 17.1592 37.5459 16.6135C37.5459 16.0677 37.103 15.6248 36.5573 15.6248H35.1719C35.0782 15.0265 34.8687 14.4675 34.5537 13.9773H36.5573Z" fill="#F58220"/>
<defs>
<linearGradient id="paint0_linear_488_154" x1="-1.65791" y1="27.0957" x2="43.5658" y2="27.0036" gradientUnits="userSpaceOnUse">
<stop stop-color="#F58220"/>
<stop offset="1" stop-color="#F58220" stop-opacity="0"/>
</linearGradient>
</defs>
</svg>
