<svg width="56" height="56" viewBox="0 0 56 56" fill="none" xmlns="http://www.w3.org/2000/svg">
<circle cx="28" cy="28" r="28" fill="url(#paint0_linear_488_157)" fill-opacity="0.25"/>
<path d="M26.8455 11V12.9759H30.743L19.4524 24.6693L15.1597 20.2234L9 26.6028L10.3491 28L15.1597 23.0178L19.4524 27.4636L32.0921 14.3732V18.4097H34V11H26.8455Z" fill="#F08200"/>
<path d="M41.9985 28.103C42.8549 28.103 43.55 27.4079 43.55 26.5515C43.55 25.6951 42.8549 25 41.9985 25H28.5521C27.6957 25 27.0006 25.6951 27.0006 26.5515C27.0006 27.4079 27.6957 28.103 28.5521 28.103H33.2066C34.841 28.103 36.2103 29.1992 36.6573 30.6885H28.5521C27.6957 30.6885 27.0006 31.3836 27.0006 32.24C27.0006 33.0965 27.6957 33.7915 28.5521 33.7915H36.169C35.5134 34.7267 34.4312 35.343 33.2066 35.343H28.5521C27.8718 35.343 27.2696 35.7881 27.0692 36.4373C26.8684 37.0869 27.1146 37.7926 27.6771 38.1771L39.055 45.9345C39.3235 46.1167 39.6258 46.2035 39.9277 46.2035C40.4243 46.2035 40.9125 45.9679 41.2125 45.527C41.6925 44.8175 41.5125 43.8516 40.805 43.3694L33.5687 38.4358C36.3925 38.2869 38.7323 36.3733 39.5739 33.7915H41.9985C42.8549 33.7915 43.55 33.0965 43.55 32.24C43.55 31.3836 42.8549 30.6885 41.9985 30.6885H39.8243C39.6773 29.7495 39.3485 28.8723 38.8542 28.103H41.9985Z" fill="#F58220"/>
<defs>
<linearGradient id="paint0_linear_488_157" x1="-1.65791" y1="27.0957" x2="43.5658" y2="27.0036" gradientUnits="userSpaceOnUse">
<stop stop-color="#F58220"/>
<stop offset="1" stop-color="#F58220" stop-opacity="0"/>
</linearGradient>
</defs>
</svg>
