<svg width="56" height="56" viewBox="0 0 56 56" fill="none" xmlns="http://www.w3.org/2000/svg">
<circle cx="28" cy="28" r="28" fill="url(#paint0_linear_488_156)" fill-opacity="0.25"/>
<path d="M12 16V38.5557C12 38.9076 12.1398 39.245 12.3886 39.4939C12.6374 39.7427 12.9749 39.8825 13.3268 39.8825H35.8825V37.2289H14.6536V16H12Z" fill="#F08200"/>
<path d="M28.3097 31.5336C28.4329 31.6569 28.5791 31.7547 28.74 31.8215C28.901 31.8882 29.0735 31.9226 29.2478 31.9226C29.422 31.9226 29.5946 31.8882 29.7556 31.8215C29.9165 31.7547 30.0627 31.6569 30.1858 31.5336L36.8199 24.8995L34.9438 23.0234L29.2478 28.7194L26.2054 25.677C26.0823 25.5537 25.9361 25.4559 25.7751 25.3891C25.6142 25.3224 25.4416 25.288 25.2674 25.288C25.0931 25.288 24.9206 25.3224 24.7596 25.3891C24.5987 25.4559 24.4524 25.5537 24.3293 25.677L17.6953 32.3111L19.5714 34.1872L25.2674 28.4912L28.3097 31.5336Z" fill="#F08200"/>
<defs>
<linearGradient id="paint0_linear_488_156" x1="-1.65791" y1="27.0957" x2="43.5658" y2="27.0036" gradientUnits="userSpaceOnUse">
<stop stop-color="#F58220"/>
<stop offset="1" stop-color="#F58220" stop-opacity="0"/>
</linearGradient>
</defs>
</svg>
