<svg width="56" height="56" viewBox="0 0 56 56" fill="none" xmlns="http://www.w3.org/2000/svg">
<circle cx="28" cy="28" r="28" fill="url(#paint0_linear_488_155)" fill-opacity="0.25"/>
<path d="M42.9985 23.103C43.8549 23.103 44.55 22.4079 44.55 21.5515C44.55 20.6951 43.8549 20 42.9985 20H29.5521C28.6957 20 28.0006 20.6951 28.0006 21.5515C28.0006 22.4079 28.6957 23.103 29.5521 23.103H34.2066C35.841 23.103 37.2103 24.1992 37.6573 25.6885H29.5521C28.6957 25.6885 28.0006 26.3836 28.0006 27.24C28.0006 28.0965 28.6957 28.7915 29.5521 28.7915H37.169C36.5134 29.7267 35.4312 30.343 34.2066 30.343H29.5521C28.8718 30.343 28.2696 30.7881 28.0692 31.4373C27.8684 32.0869 28.1146 32.7926 28.6771 33.1771L40.055 40.9345C40.3235 41.1167 40.6258 41.2035 40.9277 41.2035C41.4243 41.2035 41.9125 40.9679 42.2125 40.527C42.6925 39.8175 42.5125 38.8516 41.805 38.3694L34.5687 33.4358C37.3925 33.2869 39.7323 31.3733 40.5739 28.7915H42.9985C43.8549 28.7915 44.55 28.0965 44.55 27.24C44.55 26.3836 43.8549 25.6885 42.9985 25.6885H40.8243C40.6773 24.7495 40.3485 23.8723 39.8542 23.103H42.9985Z" fill="#F58220"/>
<path d="M15 33V17M8 26L15 33L22 26" stroke="#F08200" stroke-width="2" stroke-linecap="round" stroke-linejoin="round"/>
<defs>
<linearGradient id="paint0_linear_488_155" x1="-1.65791" y1="27.0957" x2="43.5658" y2="27.0036" gradientUnits="userSpaceOnUse">
<stop stop-color="#F58220"/>
<stop offset="1" stop-color="#F58220" stop-opacity="0"/>
</linearGradient>
</defs>
</svg>
