<svg width="50" height="50" viewBox="0 0 50 50" fill="none" xmlns="http://www.w3.org/2000/svg">
<g clip-path="url(#clip0_2587_1446)">
<path d="M30.8828 11.4863H30.9412C30.9413 11.4863 30.8958 11.3721 30.8828 11.4863Z" fill="#043B72"/>
<path d="M16.7734 11.4863H16.8318C16.8188 11.3721 16.7734 11.4863 16.7734 11.4863Z" fill="#043B72"/>
<path d="M44.9701 15.0827C44.6422 14.5593 44.1303 14.195 43.5286 14.0567L40.3589 13.3284L41.8224 12.9187C43.035 12.5794 43.7656 11.2842 43.4256 10.0694C43.0862 8.85679 41.7913 8.12642 40.5762 8.46617L33.7524 10.376C33.5747 10.0528 33.3221 9.77613 33.0178 9.57027C34.4027 6.99302 36.3979 2.61948 36.3979 0.73793C36.3979 0.279043 35.9641 -0.076036 35.514 0.0146869C32.8059 0.561758 30.281 0.8142 27.7981 0.787149C25.2459 0.759122 22.0696 0.442129 20.0739 0.016347C19.4569 -0.115294 18.9618 0.575137 19.2872 1.11752C19.7735 1.92807 20.0715 2.7851 20.2353 3.64887C17.7305 3.72563 15.1329 3.42212 13.1669 2.43901C12.6373 2.17416 12.0122 2.63754 12.1091 3.22026C12.7274 6.92993 13.9749 9.10494 15.2256 10.7482H15.1979C13.9231 10.7482 12.886 11.7853 12.886 13.06C12.886 14.2324 13.7635 15.203 14.8959 15.3515C14.0704 16.7342 12.8915 18.046 11.6528 19.4225C9.01874 22.3499 6.03309 25.6679 5.02859 31.0252C4.54793 33.5886 4.56395 35.9871 5.07635 38.1543C5.55467 40.1776 6.46571 42.0089 7.78397 43.5974C9.53388 45.706 11.9381 47.342 14.9297 48.4604C17.6245 49.4677 20.7108 50.0001 23.8549 50.0001C26.999 50.0001 30.0854 49.4677 32.7801 48.4604C35.7717 47.342 38.1759 45.7059 39.9258 43.5974C41.2441 42.0089 42.1551 40.1777 42.6335 38.1543C43.1458 35.9871 43.1619 33.5885 42.6812 31.0252C41.6767 25.668 38.6912 22.35 36.0571 19.4226C35.1628 18.4288 34.312 17.4812 33.5988 16.5195L42.4932 18.5631C43.4355 18.7796 44.4396 18.3674 44.9601 17.5531C45.4365 16.8076 45.4393 15.8315 44.9701 15.0827ZM27.7819 2.26264C30.0536 2.28745 32.3529 2.08881 34.7815 1.656C34.3362 3.47661 32.9062 6.7147 31.5498 9.1814C30.6099 9.2522 29.8253 9.88717 29.5345 10.7481H27.4861C27.4398 10.6484 27.3885 10.5391 27.3314 10.4177C26.698 9.07125 25.3798 6.26948 25.3798 3.88589C25.3798 3.42768 24.9471 3.07241 24.4973 3.16245C23.6387 3.33422 22.6941 3.47319 21.7111 3.5603C21.6081 2.94467 21.4483 2.32807 21.2158 1.72162C23.1983 2.02846 25.6954 2.23969 27.7819 2.26264ZM32.5612 11.4858V14.6339C32.5612 15.0949 32.1861 15.4701 31.7249 15.4701C31.2638 15.4701 30.8887 15.095 30.8887 14.6339V11.4858C30.8887 11.0247 31.2638 10.6496 31.7249 10.6496C32.1861 10.6496 32.5612 11.0248 32.5612 11.4858ZM13.829 4.30727C15.6735 4.93686 17.9426 5.21606 20.3931 5.12993L21.8554 5.03755C22.5451 4.97427 23.2449 4.88315 23.9499 4.76392C24.18 7.04654 25.2228 9.39205 25.8564 10.7481H20.9436H19.3914H17.1086C17.0921 10.7222 17.0743 10.6968 17.0543 10.6726C15.8202 9.18795 14.568 7.47066 13.829 4.30727ZM34.9601 20.4095C37.4645 23.1925 40.3027 26.3468 41.231 31.2969C42.0852 35.8527 41.264 39.674 38.7903 42.6546C35.7401 46.3299 30.1568 48.5243 23.855 48.5243C17.5532 48.5243 11.9698 46.33 8.91962 42.6547C6.44588 39.6741 5.62479 35.8528 6.47889 31.297C7.40712 26.3468 10.2455 23.1924 12.7498 20.4095C14.2472 18.7453 15.6618 17.1713 16.5685 15.3717H18.3704C18.778 15.3717 19.1082 15.0414 19.1082 14.634C19.1082 14.2264 18.7779 13.8962 18.3704 13.8962H15.1978C14.7366 13.8962 14.3615 13.5211 14.3615 13.0599C14.3615 12.5988 14.7366 12.2237 15.1978 12.2237H29.413V13.8961H21.8872C21.4796 13.8961 21.1494 14.2264 21.1494 14.6339C21.1494 15.0413 21.4797 15.3717 21.8872 15.3717H29.5344C29.8431 16.2855 30.708 16.9457 31.7248 16.9457C31.8423 16.9457 31.9576 16.9367 32.0704 16.9198C32.8939 18.1109 33.8976 19.2288 34.9601 20.4095ZM34.0369 11.8288L40.9739 9.88727C41.4131 9.76412 41.8819 10.0288 42.0045 10.4671C42.1274 10.9065 41.8632 11.3751 41.4247 11.4977L37.4602 12.6073C37.4279 12.6164 37.397 12.6281 37.367 12.6411L34.0369 11.8759V11.8288ZM43.8258 16.4969C43.7225 16.9464 43.2737 17.2281 42.8236 17.1247L33.9905 15.0952C34.0207 14.9461 34.0368 14.7918 34.0368 14.6338V13.3898L43.198 15.4947C43.642 15.5967 43.9279 16.0525 43.8258 16.4969Z" fill="#043B72"/>
<path d="M24.7 42L19.975 33.75V32.65H20.525C21.4083 32.65 22.15 32.5667 22.75 32.4C23.3667 32.2333 23.85 31.9583 24.2 31.575C24.55 31.1917 24.7583 30.6667 24.825 30H19.975V28.4H24.8C24.6833 27.7833 24.45 27.2833 24.1 26.9C23.75 26.5 23.275 26.2083 22.675 26.025C22.0917 25.8417 21.375 25.75 20.525 25.75H19.975V24.15H30.325V25.75H25.6C25.9833 26.0667 26.3 26.4417 26.55 26.875C26.8 27.3083 26.9583 27.8167 27.025 28.4H30.325V30H27.075C26.9583 31.2167 26.4917 32.1667 25.675 32.85C24.875 33.5167 23.8083 33.9417 22.475 34.125L27.25 42H24.7Z" fill="#043B72"/>
</g>
<defs>
<clipPath id="clip0_2587_1446">
<rect width="50" height="50" fill="white"/>
</clipPath>
</defs>
</svg>
