<svg width="50" height="50" viewBox="0 0 50 50" fill="none" xmlns="http://www.w3.org/2000/svg">
<path d="M25 49.9815C38.8072 49.9815 50 38.7929 50 24.9908C50 11.1888 38.8072 0 25 0C11.1929 0 0 11.1888 0 24.9908C0 38.7929 11.1929 49.9815 25 49.9815Z" fill="url(#paint0_linear_906_14587)" fill-opacity="0.1"/>
<path d="M26.5362 37.199H9.45058C8.80383 37.1971 8.18412 36.9394 7.72679 36.4823C7.26947 36.0251 7.01169 35.4056 7.00977 34.7591V17.6797H8.63941V34.7591C8.63941 34.9742 8.72487 35.1804 8.87699 35.3324C9.02912 35.4845 9.23544 35.5699 9.45058 35.5699H26.5362V37.199Z" fill="#666666"/>
<path d="M20.0242 26.6279H18.3945V33.9477H20.0242V26.6279Z" fill="#666666"/>
<path d="M13.5203 26.6279H11.8906V33.9477H13.5203V26.6279Z" fill="#666666"/>
<path d="M23.2839 22.5596H21.6543V33.9482H23.2839V22.5596Z" fill="#666666"/>
<path d="M16.7722 22.5596H15.1426V33.9482H16.7722V22.5596Z" fill="#666666"/>
<path d="M36.3985 14.3711H29.3246V15.6569H31.4511C31.8579 15.6557 32.2544 15.7836 32.5838 16.0221C32.8988 16.2496 33.136 16.5684 33.2634 16.9353H29.2588V18.2283H33.2781C33.1515 18.5956 32.9141 18.9147 32.5984 19.1414C32.2721 19.3851 31.8729 19.5112 31.4657 19.4994H29.3246V21.0481L32.9127 24.6203H34.7543L30.8884 20.7705H31.568C32.3113 20.7768 33.0335 20.5244 33.6109 20.0565C34.1883 19.5886 34.5847 18.9345 34.7323 18.2064H36.3985V16.9134H34.7104C34.662 16.6853 34.591 16.4626 34.4985 16.2486C34.3881 16.0375 34.2661 15.8326 34.1331 15.6349H36.3985V14.3711Z" fill="#F08200"/>
<mask id="mask0_906_14587" style="mask-type:alpha" maskUnits="userSpaceOnUse" x="21" y="9" width="19" height="10">
<path d="M39.748 9.02344H21.3545V18.2202H39.748V9.02344Z" fill="white"/>
<path d="M22.874 18.2124C22.874 16.1781 23.6824 14.2271 25.1214 12.7886C26.5604 11.3502 28.5122 10.542 30.5472 10.542C32.5823 10.542 34.534 11.3502 35.973 12.7886C37.412 14.2271 38.2204 16.1781 38.2204 18.2124" fill="black"/>
</mask>
<g mask="url(#mask0_906_14587)">
</g>
<path d="M42 19.5C42 21.2072 41.54 22.8828 40.6683 24.3507C39.7966 25.8185 38.5455 27.0244 37.0466 27.8414C35.5476 28.6584 33.8562 29.0564 32.1502 28.9936C30.4441 28.9307 28.7866 28.4093 27.3518 27.4841L28.348 25.9392C29.5051 26.6854 30.8419 27.1059 32.2179 27.1566C33.5938 27.2073 34.9579 26.8863 36.1668 26.2274C37.3757 25.5684 38.3848 24.5959 39.0878 23.4121C39.7908 22.2282 40.1618 20.8768 40.1618 19.5H42Z" fill="#666666"/>
<path d="M42 18.5C42 15.9804 40.9991 13.5641 39.2175 11.7825C37.4359 10.0009 35.0196 9 32.5 9C29.9804 9 27.5641 10.0009 25.7825 11.7825C24.0009 13.5641 23 15.9804 23 18.5L24.8382 18.5C24.8382 16.468 25.6454 14.5192 27.0823 13.0823C28.5192 11.6454 30.468 10.8382 32.5 10.8382C34.532 10.8382 36.4808 11.6454 37.9177 13.0823C39.3546 14.5192 40.1618 16.468 40.1618 18.5H42Z" fill="#666666"/>
<defs>
<linearGradient id="paint0_linear_906_14587" x1="-1.46887" y1="25.0566" x2="38.9141" y2="24.9762" gradientUnits="userSpaceOnUse">
<stop stop-color="#F58220"/>
<stop offset="1" stop-color="#F58220" stop-opacity="0"/>
</linearGradient>
</defs>
</svg>
