<svg width="48" height="48" viewBox="0 0 48 48" fill="none" xmlns="http://www.w3.org/2000/svg">
<path d="M16.9688 29.4688V20.875C16.9687 20.6678 16.8864 20.4691 16.7399 20.3226C16.5934 20.1761 16.3947 20.0938 16.1875 20.0938H13.0625C12.8553 20.0938 12.6566 20.1761 12.5101 20.3226C12.3636 20.4691 12.2813 20.6678 12.2812 20.875V29.4688H13.8438V21.6562H15.4062V29.4688H16.9688Z" fill="#043B72"/>
<path d="M29.4688 32.5938V21.6562C29.4687 21.4491 29.3864 21.2503 29.2399 21.1038C29.0934 20.9573 28.8947 20.875 28.6875 20.875H25.5625C25.3553 20.875 25.1566 20.9573 25.0101 21.1038C24.8636 21.2503 24.7813 21.4491 24.7812 21.6562V32.5938H26.3438V22.4375H27.9062V32.5938H29.4688Z" fill="#043B72"/>
<path d="M23.2188 32.5938V18.5312C23.2187 18.3241 23.1364 18.1253 22.9899 17.9788C22.8434 17.8323 22.6447 17.75 22.4375 17.75H19.3125C19.1053 17.75 18.9066 17.8323 18.7601 17.9788C18.6136 18.1253 18.5313 18.3241 18.5312 18.5312V31.0312H20.0938V19.3125H21.6562V32.5938H23.2188Z" fill="#043B72"/>
<path d="M35.7188 26.3438V18.5312C35.7187 18.3241 35.6364 18.1253 35.4899 17.9788C35.3434 17.8323 35.1447 17.75 34.9375 17.75H31.8125C31.6053 17.75 31.4066 17.8323 31.2601 17.9788C31.1136 18.1253 31.0313 18.3241 31.0312 18.5312V27.125H32.5938V19.3125H34.1562V26.3438H35.7188Z" fill="#043B72"/>
<path d="M41.9688 25.5625V13.8438C41.9687 13.6366 41.8864 13.4378 41.7399 13.2913C41.5934 13.1448 41.3947 13.0625 41.1875 13.0625H38.0625C37.8553 13.0625 37.6566 13.1448 37.5101 13.2913C37.3636 13.4378 37.2813 13.6366 37.2812 13.8438V25.5625H38.8438V14.625H40.4062V25.5625H41.9688Z" fill="#043B72"/>
<path d="M12.5101 18.3024C12.6566 18.4489 12.8553 18.5312 13.0625 18.5312C13.2697 18.5312 13.4685 18.4489 13.615 18.3024L20.0639 11.8534L26.5443 19.0539C26.6153 19.1327 26.7015 19.1963 26.7978 19.2407C26.8942 19.2851 26.9985 19.3094 27.1045 19.3122C27.1114 19.3124 27.1182 19.3125 27.125 19.3125C27.3322 19.3125 27.531 19.2302 27.6775 19.0837L38.0625 8.69863V10.7188C38.0625 10.926 38.1448 11.1247 38.2914 11.2712C38.4379 11.4177 38.6366 11.5 38.8438 11.5H41.9688C42.176 11.5 42.3747 11.4177 42.5212 11.2712C42.6677 11.1247 42.75 10.926 42.75 10.7188V1.34375C42.75 1.13655 42.6677 0.937837 42.5212 0.791325C42.3747 0.644813 42.176 0.562502 41.9688 0.5625H32.5938C32.3866 0.562502 32.1879 0.644813 32.0414 0.791325C31.8948 0.937837 31.8125 1.13655 31.8125 1.34375V4.46875C31.8125 4.67595 31.8948 4.87466 32.0414 5.02117C32.1879 5.16769 32.3866 5.25 32.5938 5.25H34.6139L27.1549 12.7091L20.6745 5.50864C20.6035 5.42981 20.5173 5.36625 20.421 5.32183C20.3247 5.27742 20.2203 5.25308 20.1143 5.25029C20.0083 5.2475 19.9028 5.26632 19.8043 5.30562C19.7058 5.34491 19.6163 5.40384 19.5413 5.47883L10.1663 14.8538C10.0198 15.0003 9.9375 15.1991 9.9375 15.4062C9.9375 15.6134 10.0198 15.8122 10.1663 15.9587L12.5101 18.3024ZM20.0639 7.16593L26.5443 14.3664C26.6153 14.4452 26.7015 14.5087 26.7978 14.5532C26.8941 14.5976 26.9985 14.6219 27.1045 14.6247C27.2105 14.6275 27.316 14.6087 27.4145 14.5694C27.513 14.5301 27.6025 14.4712 27.6775 14.3962L37.0525 5.02117C37.1617 4.9119 37.2361 4.77269 37.2662 4.62115C37.2964 4.4696 37.2809 4.31253 37.2218 4.16978C37.1626 4.02704 37.0625 3.90503 36.934 3.81918C36.8056 3.73334 36.6545 3.68751 36.5 3.6875H33.375V2.125H41.1875V9.9375H39.625V6.8125C39.625 6.65798 39.5792 6.50693 39.4934 6.37845C39.4075 6.24997 39.2855 6.14983 39.1427 6.0907C39 6.03157 38.8429 6.0161 38.6913 6.04625C38.5398 6.0764 38.4006 6.15082 38.2913 6.26008L27.1549 17.3966L20.6745 10.1961C20.6035 10.1173 20.5173 10.0537 20.421 10.0093C20.3246 9.9649 20.2203 9.94056 20.1143 9.93779C20.1074 9.93759 20.1006 9.9375 20.0938 9.9375C19.8866 9.9375 19.6878 10.0198 19.5413 10.1663L13.0625 16.6451L11.8236 15.4062L20.0639 7.16593Z" fill="#043B72"/>
<path d="M7.59375 46.6559V45.0934H9.9375C10.1447 45.0934 10.3434 45.0111 10.4899 44.8646C10.6364 44.718 10.7187 44.5193 10.7188 44.3121V42.2653C14.4492 45.6896 19.3581 47.5408 24.4207 47.4325C29.4833 47.3242 34.3086 45.2649 37.8892 41.6842L46.4275 33.1462C46.9437 32.63 47.2534 31.9429 47.298 31.2142C47.3427 30.4855 47.1194 29.7657 46.6701 29.1903C46.2208 28.6149 45.5766 28.2237 44.8588 28.0903C44.1411 27.957 43.3993 28.0908 42.7734 28.4665C42.5067 28.0537 42.144 27.7116 41.7164 27.4695C41.2887 27.2273 40.8088 27.0923 40.3176 27.0759C39.8264 27.0595 39.3386 27.1623 38.8958 27.3754C38.4529 27.5886 38.0683 27.9057 37.7747 28.2998L37.4434 28.7442C37.2741 28.6143 37.0928 28.5008 36.9019 28.4052C36.4977 28.2031 36.0569 28.0848 35.6059 28.0574C35.1549 28.0299 34.7029 28.0939 34.2773 28.2455C33.8516 28.3971 33.461 28.6332 33.1288 28.9396C32.7967 29.2459 32.5299 29.6163 32.3445 30.0283L30.375 34.4048C29.9625 34.2402 29.5223 34.1557 29.0781 34.1559H19.6361L18.3025 32.8222C17.3238 31.8463 16.052 31.2183 14.6821 31.0346C13.3123 30.8509 11.92 31.1216 10.7188 31.8053V31.0309C10.7187 30.8237 10.6364 30.625 10.4899 30.4785C10.3434 30.3319 10.1447 30.2496 9.9375 30.2496H7.59375V29.4684C7.59375 29.2612 7.51144 29.0625 7.36492 28.916C7.21841 28.7694 7.0197 28.6871 6.8125 28.6871H0.5625V30.2496H6.03125V45.8746H0.5625V47.4371H6.8125C7.0197 47.4371 7.21841 47.3548 7.36492 47.2083C7.51144 47.0618 7.59375 46.8631 7.59375 46.6559ZM40.9792 28.8483C41.2462 29.0087 41.4556 29.2493 41.5777 29.5358L35.3789 35.7346C34.5492 36.5655 33.6124 37.2822 32.5934 37.8656L39.0274 29.2336C39.2465 28.9381 39.5679 28.7348 39.9288 28.6635C40.2897 28.5922 40.6643 28.6581 40.9792 28.8483ZM33.7692 30.6695C33.8683 30.4494 34.0108 30.2517 34.1881 30.0881C34.3655 29.9245 34.5741 29.7984 34.8014 29.7175C35.0287 29.6365 35.2701 29.6023 35.5109 29.617C35.7518 29.6316 35.9872 29.6948 36.203 29.8027C36.3114 29.8572 36.414 29.9224 36.5093 29.9975L32.1115 35.8976C31.9885 35.6876 31.8442 35.4909 31.6808 35.3105L33.7692 30.6695ZM17.1975 33.927L18.76 35.4895C18.9066 35.6361 19.1053 35.7184 19.3125 35.7184H29.0781C29.5961 35.7184 30.0929 35.9242 30.4592 36.2904C30.8255 36.6567 31.0312 37.1535 31.0312 37.6715C31.0312 38.1895 30.8255 38.6863 30.4592 39.0526C30.0929 39.4189 29.5961 39.6246 29.0781 39.6246H19.3125V41.1871H29.0781C29.5615 41.1873 30.0398 41.0874 30.4828 40.8939C30.9257 40.7004 31.3239 40.4173 31.6523 40.0625C33.4604 39.3188 35.1027 38.2233 36.4838 36.8395L43.3024 30.0209C43.5703 29.753 43.9337 29.6025 44.3126 29.6025C44.6915 29.6025 45.0549 29.753 45.3228 30.0209C45.5907 30.2889 45.7412 30.6523 45.7412 31.0312C45.7412 31.4101 45.5907 31.7734 45.3227 32.0413L36.7843 40.5794C33.3936 43.9699 28.795 45.8747 23.9999 45.8746C19.2049 45.8746 14.6062 43.9697 11.2156 40.5791L10.7188 40.0822V33.7144C11.6246 32.9223 12.7974 32.5038 14.0001 32.5432C15.2027 32.5827 16.3456 33.0773 17.1975 33.927ZM9.15625 31.8121V43.5309H7.59375V31.8121H9.15625Z" fill="#043B72"/>
</svg>
