<svg width="32" height="32" viewBox="0 0 32 32" fill="none" xmlns="http://www.w3.org/2000/svg">
<path d="M20 8H18C18 6.67392 17.4732 5.40215 16.5355 4.46447C15.5979 3.52678 14.3261 3 13 3C11.6739 3 10.4021 3.52678 9.46447 4.46447C8.52678 5.40215 8 6.67392 8 8H6C6 6.14348 6.7375 4.36301 8.05025 3.05025C9.36301 1.7375 11.1435 1 13 1C14.8565 1 16.637 1.7375 17.9497 3.05025C19.2625 4.36301 20 6.14348 20 8Z" fill="white"/>
<path d="M25.0001 15C24.4834 15.0019 23.9764 15.1398 23.5301 15.4C23.2605 14.9724 22.8872 14.6198 22.4449 14.3751C22.0026 14.1303 21.5056 14.0013 21.0001 14C20.4834 14.0019 19.9764 14.1398 19.5301 14.4C19.1663 13.8275 18.6192 13.3952 17.9781 13.1737C17.337 12.9521 16.6397 12.9543 16.0001 13.18V8C16.0001 7.20435 15.684 6.44129 15.1214 5.87868C14.5588 5.31607 13.7957 5 13.0001 5C12.2044 5 11.4414 5.31607 10.8788 5.87868C10.3162 6.44129 10.0001 7.20435 10.0001 8V19.1L7.77008 17.58C7.25887 17.1993 6.63746 16.9957 6.00008 17C5.40506 16.9985 4.82304 17.174 4.32802 17.5042C3.83301 17.8344 3.44736 18.3043 3.2201 18.8542C2.99284 19.4041 2.93425 20.0092 3.05177 20.5925C3.16929 21.1758 3.45761 21.711 3.88008 22.13L11.8801 29.43C13.0127 30.4437 14.4801 31.0029 16.0001 31H21.0001C22.8566 31 24.6371 30.2625 25.9498 28.9497C27.2626 27.637 28.0001 25.8565 28.0001 24V18C28.0001 17.2044 27.684 16.4413 27.1214 15.8787C26.5588 15.3161 25.7957 15 25.0001 15V15ZM26.0001 24C26.0001 25.3261 25.4733 26.5979 24.5356 27.5355C23.5979 28.4732 22.3262 29 21.0001 29H16.0001C14.9893 29.0122 14.0085 28.6568 13.2401 28L5.29008 20.7C5.10534 20.5137 5.00119 20.2623 5.00008 20C5.00008 19.8143 5.0518 19.6322 5.14943 19.4743C5.24707 19.3163 5.38676 19.1886 5.55287 19.1056C5.71897 19.0225 5.90493 18.9874 6.08989 19.004C6.27485 19.0207 6.45151 19.0886 6.60008 19.2L12.0001 22.9V8C12.0001 7.73478 12.1054 7.48043 12.293 7.29289C12.4805 7.10536 12.7349 7 13.0001 7C13.2653 7 13.5197 7.10536 13.7072 7.29289C13.8947 7.48043 14.0001 7.73478 14.0001 8V19H16.0001V16C16.0001 15.7348 16.1054 15.4804 16.293 15.2929C16.4805 15.1054 16.7349 15 17.0001 15C17.2653 15 17.5197 15.1054 17.7072 15.2929C17.8947 15.4804 18.0001 15.7348 18.0001 16V19H20.0001V17C20.0001 16.7348 20.1054 16.4804 20.293 16.2929C20.4805 16.1054 20.7349 16 21.0001 16C21.2653 16 21.5197 16.1054 21.7072 16.2929C21.8947 16.4804 22.0001 16.7348 22.0001 17V19H24.0001V18C24.0001 17.7348 24.1054 17.4804 24.293 17.2929C24.4805 17.1054 24.7349 17 25.0001 17C25.2653 17 25.5197 17.1054 25.7072 17.2929C25.8947 17.4804 26.0001 17.7348 26.0001 18V24Z" fill="white"/>
</svg>
