<svg width="27" height="27" viewBox="0 0 27 27" fill="none" xmlns="http://www.w3.org/2000/svg">
<path d="M12.2344 6.32812C12.2344 5.62676 12.7986 5.0625 13.5 5.0625C14.2014 5.0625 14.7656 5.62676 14.7656 6.32812V12.825L19.2639 15.8203C19.8439 16.2105 20.0021 16.9963 19.5697 17.5764C19.227 18.1564 18.4412 18.3146 17.8611 17.8822L12.7986 14.5072C12.4453 14.3174 12.2344 13.9219 12.2344 13.4525V6.32812V6.32812ZM13.5 0C20.9566 0 27 6.04336 27 13.5C27 20.9566 20.9566 27 13.5 27C6.04336 27 0 20.9566 0 13.5C0 6.04336 6.04336 0 13.5 0ZM2.53125 13.5C2.53125 19.5592 7.44082 24.4688 13.5 24.4688C19.5592 24.4688 24.4688 19.5592 24.4688 13.5C24.4688 7.44082 19.5592 2.53125 13.5 2.53125C7.44082 2.53125 2.53125 7.44082 2.53125 13.5Z" fill="white"/>
</svg>
