<svg width="18" height="18" viewBox="0 0 18 18" fill="none" xmlns="http://www.w3.org/2000/svg">
<path d="M2.7187 18H13.2787C13.4554 18 13.6254 17.93 13.7487 17.8033L17.4687 14.0834C17.5953 13.9567 17.6653 13.79 17.6653 13.6134V3.71998C17.6653 2.40332 16.5953 1.33331 15.2786 1.33331H14.332V0.666654C14.3321 0.299983 14.032 0 13.6653 0C13.2987 0 12.9987 0.299983 12.9987 0.666654V1.33331H4.99872V0.666654C4.99872 0.299983 4.69868 0 4.33201 0C3.96534 0 3.66536 0.299983 3.66536 0.666654V1.33331H2.7187C1.40204 1.33331 0.332031 2.40332 0.332031 3.71998V15.6133C0.332031 16.93 1.40204 18 2.7187 18ZM13.332 16.3366V14.1933C13.332 14.0866 13.4187 14 13.5253 14H15.6687L13.332 16.3366ZM1.6654 3.71998C1.6654 3.14 2.13872 2.66667 2.7187 2.66667H3.66536V3.33333C3.66536 3.7 3.96534 3.99998 4.33201 3.99998C4.69868 3.99998 4.99867 3.7 4.99867 3.33333V2.66667H12.9987V3.33333C12.9987 3.7 13.2987 3.99998 13.6653 3.99998C14.032 3.99998 14.332 3.7 14.332 3.33333V2.66667H15.2786C15.8586 2.66667 16.332 3.14 16.332 3.71998V12.6667H13.5253C12.6819 12.6667 11.9986 13.35 11.9986 14.1933V16.6667H2.7187C2.13872 16.6667 1.6654 16.1934 1.6654 15.6134V3.71998Z" fill="#999999"/>
<path d="M5.16535 7.66664C5.62558 7.66664 5.99867 7.29355 5.99867 6.83332C5.99867 6.37309 5.62558 6 5.16535 6C4.70512 6 4.33203 6.37309 4.33203 6.83332C4.33203 7.29355 4.70512 7.66664 5.16535 7.66664Z" fill="#999999"/>
<path d="M8.83332 7.66664C9.29355 7.66664 9.66664 7.29355 9.66664 6.83332C9.66664 6.37309 9.29355 6 8.83332 6C8.37309 6 8 6.37309 8 6.83332C8 7.29355 8.37309 7.66664 8.83332 7.66664Z" fill="#999999"/>
<path d="M12.4974 7.66664C12.9576 7.66664 13.3307 7.29355 13.3307 6.83332C13.3307 6.37309 12.9576 6 12.4974 6C12.0372 6 11.6641 6.37309 11.6641 6.83332C11.6641 7.29355 12.0372 7.66664 12.4974 7.66664Z" fill="#999999"/>
<path d="M5.16535 10.9999C5.62558 10.9999 5.99867 10.6269 5.99867 10.1666C5.99867 9.7064 5.62558 9.33331 5.16535 9.33331C4.70512 9.33331 4.33203 9.7064 4.33203 10.1666C4.33203 10.6269 4.70512 10.9999 5.16535 10.9999Z" fill="#999999"/>
<path d="M8.83332 10.9999C9.29355 10.9999 9.66664 10.6269 9.66664 10.1666C9.66664 9.7064 9.29355 9.33331 8.83332 9.33331C8.37309 9.33331 8 9.7064 8 10.1666C8 10.6269 8.37309 10.9999 8.83332 10.9999Z" fill="#999999"/>
<path d="M12.4974 10.9999C12.9576 10.9999 13.3307 10.6269 13.3307 10.1666C13.3307 9.7064 12.9576 9.33331 12.4974 9.33331C12.0372 9.33331 11.6641 9.7064 11.6641 10.1666C11.6641 10.6269 12.0372 10.9999 12.4974 10.9999Z" fill="#999999"/>
<path d="M5.16535 14.3333C5.62558 14.3333 5.99867 13.9602 5.99867 13.4999C5.99867 13.0397 5.62558 12.6666 5.16535 12.6666C4.70512 12.6666 4.33203 13.0397 4.33203 13.4999C4.33203 13.9602 4.70512 14.3333 5.16535 14.3333Z" fill="#999999"/>
<path d="M8.83332 14.3333C9.29355 14.3333 9.66664 13.9602 9.66664 13.4999C9.66664 13.0397 9.29355 12.6666 8.83332 12.6666C8.37309 12.6666 8 13.0397 8 13.4999C8 13.9602 8.37309 14.3333 8.83332 14.3333Z" fill="#999999"/>
</svg>
