<svg width="18" height="18" viewBox="0 0 18 18" fill="none" xmlns="http://www.w3.org/2000/svg">
<path d="M11.0105 4.16496L6.35616 6.92565C5.77388 6.26914 4.93066 5.87421 4.03321 5.87421C-0.0943511 6.00406 -0.0996833 11.9943 4.03327 12.1258C4.93249 12.1258 5.77722 11.7293 6.35711 11.0749L11.0105 13.835C10.2442 15.7998 11.8334 18.0416 13.9414 17.9994C15.6634 17.9995 17.0642 16.5983 17.0642 14.8763C17.0969 12.0387 13.4504 10.6713 11.623 12.8039C11.623 12.8038 6.96659 10.0418 6.96659 10.0418C7.21277 9.3809 7.2122 8.61781 6.96702 7.9579C6.96703 7.9579 11.623 5.19622 11.623 5.19622C12.1953 5.83573 13.0177 6.24656 13.9414 6.24656C18.065 6.11837 18.0698 0.130964 13.9413 0.00055402C11.833 -0.0404185 10.2445 2.19888 11.0105 4.16496ZM13.9414 12.9534C16.4772 13.0199 16.4764 16.7335 13.9413 16.7995C11.4059 16.7331 11.4061 13.0195 13.9414 12.9534ZM4.0332 10.9259C1.49436 10.8594 1.49383 7.14057 4.03326 7.07414C6.56066 7.14185 6.56683 10.8564 4.0332 10.9259ZM13.9414 1.20048C16.4769 1.2669 16.4767 4.98051 13.9413 5.04663C11.4056 4.98014 11.4064 1.26653 13.9414 1.20048Z" fill="#999999"/>
</svg>
