<svg width="18" height="12" viewBox="0 0 18 12" fill="none" xmlns="http://www.w3.org/2000/svg">
<path d="M8.99923 2.43634C7.03428 2.43634 5.43555 4.03508 5.43555 6.00003C5.43555 7.96497 7.03428 9.56371 8.99923 9.56371C10.9642 9.56371 12.5629 7.96497 12.5629 6.00003C12.5629 4.03508 10.9642 2.43634 8.99923 2.43634ZM8.99923 8.36371C7.69581 8.36371 6.63555 7.30345 6.63555 6.00003C6.63555 4.6966 7.69581 3.63634 8.99923 3.63634C10.3027 3.63634 11.3629 4.6966 11.3629 6.00003C11.3629 7.30345 10.3027 8.36371 8.99923 8.36371Z" fill="#999999"/>
<path d="M9 0.0934448C5.19755 0.0934448 1.68747 2.31211 0.0579713 5.74601C-0.0193725 5.90919 -0.0193724 6.09845 0.0582638 6.26134C1.69304 9.69085 5.20282 11.9066 9 11.9066C12.7972 11.9066 16.307 9.69084 17.9417 6.26134C18.0194 6.09845 18.0194 5.90919 17.942 5.746C16.3125 2.3121 12.8025 0.0934448 9 0.0934448ZM9 10.7066C5.75917 10.7066 2.75622 8.86936 1.2697 6.00265C2.75183 3.13242 5.75448 1.29345 9 1.29345C12.2455 1.29345 15.2482 3.13242 16.7303 6.00265C15.2438 8.86936 12.2408 10.7066 9 10.7066Z" fill="#999999"/>
</svg>
