<svg width="70" height="70" viewBox="0 0 70 70" fill="none" xmlns="http://www.w3.org/2000/svg">
<circle cx="35" cy="35" r="35" fill="#F08200"/>
<g clip-path="url(#clip0_1627_890)">
<path d="M32.7648 42.1444C33.1085 41.7937 33.1085 41.2262 32.7648 40.8755C32.4208 40.5259 31.8635 40.5259 31.5192 40.8755C31.1759 41.2262 31.1759 41.7937 31.5192 42.1444C31.8635 42.494 32.4208 42.494 32.7648 42.1444Z" fill="white"/>
<path d="M28.5957 20.8625C28.5957 26.3006 32.94 30.7253 38.2798 30.7253C43.6197 30.7253 47.964 26.3006 47.964 20.8625C47.964 15.4243 43.6197 11 38.2798 11C32.94 11 28.5957 15.4243 28.5957 20.8625ZM46.2034 20.8625C46.2034 25.312 42.6489 28.932 38.2798 28.932C33.9108 28.932 30.3563 25.312 30.3563 20.8625C30.3563 16.4133 33.9108 12.7933 38.2798 12.7933C42.6489 12.7933 46.2034 16.4133 46.2034 20.8625Z" fill="white"/>
<path d="M22.1855 56.6544C22.5267 57.0048 23.0822 57.0086 23.428 56.6618L27.6962 52.3794C28.4214 51.6409 28.6419 50.5475 28.323 49.5971L29.2411 48.6953C29.7354 48.209 30.3863 47.941 31.0743 47.941H42.778C44.8544 47.941 46.8168 47.129 48.3046 45.6544C48.3659 45.5938 47.8399 46.2248 56.2891 35.9405C57.5423 34.4306 57.3548 32.1633 55.8708 30.8856C54.3961 29.6199 52.1869 29.8017 50.9303 31.2857L45.7353 36.7235C45.0793 35.9013 44.079 35.3887 42.9982 35.3887H33.1809C31.7839 34.7935 30.3017 34.4922 28.7723 34.4922C24.5329 34.4922 20.8311 36.4863 18.8446 40.225C18.0076 40.0635 17.1249 40.3214 16.4899 40.9681L12.3018 45.246C11.9599 45.5952 11.9592 46.1603 12.3004 46.5106L22.1855 56.6544ZM28.7719 36.2852C30.1204 36.2852 31.4241 36.5616 32.6477 37.1068C32.7592 37.1565 32.8792 37.1821 33.0006 37.1821H42.9982C43.9527 37.1821 44.7591 37.9749 44.7591 38.9751C44.7591 39.964 43.9693 40.7684 42.9982 40.7684H35.8152C35.3291 40.7684 34.9349 41.1699 34.9349 41.6649C34.9349 42.1603 35.3291 42.5614 35.8152 42.5614H42.9982C44.94 42.5614 46.5196 40.9527 46.5196 38.9751C46.5196 38.8174 46.5086 38.6612 46.4887 38.5063C51.5141 33.2454 52.2227 32.5062 52.253 32.4694C52.8804 31.7152 53.9943 31.6195 54.7353 32.2557C55.4769 32.8944 55.5708 34.0281 54.9417 34.7865L47.0453 44.4003C45.8922 45.5276 44.3783 46.1481 42.778 46.1481H31.0743C29.9274 46.1481 28.8418 46.5947 28.0182 47.405L27.27 48.1404L20.3729 41.1166C21.9849 38.0369 25.0097 36.2852 28.7719 36.2852ZM17.7359 42.2352C18.0262 41.9396 18.472 41.8863 18.826 42.1091C18.9784 42.2037 18.5408 41.798 26.4513 49.843C26.8032 50.2014 26.7843 50.7724 26.4561 51.1066L22.8174 54.7574L14.1669 45.8804L17.7359 42.2352Z" fill="white"/>
<path fill-rule="evenodd" clip-rule="evenodd" d="M34.7227 18.1214C34.7227 17.7998 34.9814 17.5391 35.3005 17.5391H41.656C41.9751 17.5391 42.2338 17.7998 42.2338 18.1214C42.2338 18.4431 41.9751 18.7038 41.656 18.7038H39.3449C39.7178 19.2049 39.9226 19.8173 39.9226 20.451C39.9226 21.2233 39.6183 21.9639 39.0765 22.51C38.5348 23.0561 37.7999 23.3629 37.0338 23.3629H36.6954L39.1757 25.8629C39.4013 26.0904 39.4013 26.4591 39.1757 26.6865C38.95 26.914 38.5842 26.914 38.3585 26.6865L34.8919 23.1923C34.7267 23.0257 34.6772 22.7752 34.7667 22.5576C34.8561 22.34 35.0668 22.1981 35.3005 22.1981H37.0338C37.4936 22.1981 37.9344 22.014 38.2594 21.6864C38.5845 21.3588 38.7671 20.9144 38.7671 20.451C38.7671 19.9876 38.5845 19.5432 38.2595 19.2156C37.9344 18.8879 37.4935 18.7038 37.0338 18.7038H35.3005C34.9814 18.7038 34.7227 18.4431 34.7227 18.1214Z" fill="white"/>
<path fill-rule="evenodd" clip-rule="evenodd" d="M34.7227 20.4496C34.7227 20.1279 34.9813 19.8672 35.3004 19.8672H41.656C41.9751 19.8672 42.2338 20.1279 42.2338 20.4496C42.2338 20.7712 41.9751 21.0319 41.656 21.0319H35.3004C34.9813 21.0319 34.7227 20.7712 34.7227 20.4496Z" fill="white"/>
</g>
<defs>
<clipPath id="clip0_1627_890">
<rect width="45" height="45.9184" fill="white" transform="translate(12 11)"/>
</clipPath>
</defs>
</svg>
