<svg width="237" height="237" viewBox="0 0 237 237" fill="none" xmlns="http://www.w3.org/2000/svg">
<circle cx="118.5" cy="118.5" r="96.7548" transform="rotate(75 118.5 118.5)" fill="url(#paint0_linear_1627_892)" fill-opacity="0.25"/>
<path d="M145.455 105.531H73.8203V127.017H145.455V105.531ZM143.334 124.896H75.9424V107.653H143.334V124.896Z" fill="#F08200"/>
<path d="M73.8203 194.879H88.7394V181.875H73.8203V194.879ZM75.9416 183.996H86.6188V192.758H75.9416V183.996Z" fill="#F08200"/>
<path d="M92.7266 194.879H107.646L107.645 181.875H92.7266L92.7266 194.879ZM94.8471 183.996H105.524V192.758H94.8471V183.996Z" fill="#F08200"/>
<path d="M73.8203 178.117H88.7394V165.113H73.8203V178.117ZM75.9416 167.234H86.6188V175.996H75.9416V167.234Z" fill="#F08200"/>
<path d="M92.7266 178.117H107.646L107.645 165.113H92.7266L92.7266 178.117ZM94.8471 167.234H105.524V175.996H94.8471V167.234Z" fill="#F08200"/>
<path d="M73.8203 161.355H88.7394V148.352H73.8203V161.355ZM75.9416 150.473H86.6188V159.235L75.9416 159.234V150.473Z" fill="#F08200"/>
<path d="M92.7266 161.355H107.646L107.645 148.352H92.7266L92.7266 161.355ZM94.8471 150.473H105.524V159.235L94.8471 159.234V150.473Z" fill="#F08200"/>
<path d="M126.552 148.352H111.633V161.355H126.552V148.352ZM124.431 159.234H113.754V150.473H124.431L124.431 159.234Z" fill="#F08200"/>
<path d="M73.8203 144.593H88.7394V131.59H73.8203V144.593ZM75.9416 133.711H86.6188V142.472H75.9416V133.711Z" fill="#F08200"/>
<path d="M92.7266 144.593H107.646L107.645 131.59H92.7266L92.7266 144.593ZM94.8471 133.711H105.524V142.472H94.8471V133.711Z" fill="#F08200"/>
<path d="M111.631 144.593H126.55V131.59H111.631V144.593ZM113.752 133.711H124.429V142.472H113.752V133.711Z" fill="#F08200"/>
<path d="M130.535 144.593H145.454V131.59H130.535V144.593ZM132.656 133.711H143.334V142.472H132.656V133.711Z" fill="#F08200"/>
<path d="M156.311 191.638C158.325 189.18 159.435 186.08 159.435 182.91H157.314C157.314 185.592 156.375 188.214 154.67 190.294L156.311 191.638Z" fill="#F08200"/>
<path d="M137.237 163.761L135.703 162.297C133.247 164.87 131.895 168.244 131.895 171.797C131.895 172.85 132.015 173.9 132.251 174.919L134.317 174.438C134.117 173.577 134.016 172.688 134.016 171.797C134.016 168.792 135.161 165.938 137.237 163.761L137.237 163.761Z" fill="#F08200"/>
<path d="M167.443 163.626L169.236 162.492C167.802 160.226 166.051 158.18 164.032 156.413C161.995 154.626 159.707 153.148 157.234 152.02L156.354 153.949C158.639 154.991 160.752 156.356 162.635 158.008C164.501 159.641 166.119 161.532 167.443 163.626V163.626Z" fill="#F08200"/>
<path d="M169.404 177.385C169.404 166.637 161.997 157.146 151.689 154.464V99.3047H67.5938V201.114H145.664C158.754 201.114 169.403 190.47 169.403 177.385H169.404ZM69.7156 198.993V101.426H149.568V153.987C148.45 153.801 146.857 153.657 145.458 153.668V148.348H130.533V159.131C128.501 160.811 126.715 162.887 125.369 165.119H111.634V178.123H121.969C122.008 179.386 122.138 180.643 122.374 181.879L111.634 181.879V194.883H126.549V191.421C129.024 194.793 132.297 197.373 135.858 198.992L69.7156 198.993ZM143.338 150.47V153.778C139.491 154.132 135.719 155.534 132.655 157.55V150.47H143.338ZM124.225 167.241C122.924 169.965 122.157 173.078 121.984 176.003H113.755V167.241H124.225ZM122.881 184.001C123.267 185.32 123.896 186.887 124.427 187.949V192.762L113.755 192.762V184.001L122.881 184.001ZM124.12 175.835C124.958 164.226 134.903 155.223 146.76 155.817C158.393 156.414 167.282 166.103 167.282 177.384C167.282 189.299 157.585 198.993 145.665 198.993C144.429 198.993 143.213 198.887 142.027 198.686C131.179 196.837 123.316 186.988 124.12 175.834L124.12 175.835Z" fill="#F08200"/>
<path d="M155.734 119.914H157.856V142.601H155.734V119.914Z" fill="#F08200"/>
<path d="M155.734 109.711H157.856V115.129H155.734V109.711Z" fill="#F08200"/>
<path d="M135.523 111.293H137.645V121.321H135.523V111.293Z" fill="#F08200"/>
<path d="M127.766 111.293H129.887V121.321H127.766V111.293Z" fill="#F08200"/>
<path d="M120.008 111.293H122.129V121.321H120.008V111.293Z" fill="#F08200"/>
<path d="M112.25 111.293H114.371V121.321H112.25V111.293Z" fill="#F08200"/>
<path d="M147.674 172.325C147.051 171.002 145.714 170.082 144.155 170.082H139.145V167.84H152.507V170.082H148.877C149.411 170.733 149.812 171.495 150.046 172.325H152.507V174.568H150.258C149.979 177.707 147.351 180.174 144.155 180.174H143.343L150.837 188.023H147.752L140.258 180.174V177.931H144.155C146.115 177.931 147.741 176.474 148.008 174.568H139.145V172.325H147.674Z" fill="#F08200"/>
<defs>
<linearGradient id="paint0_linear_1627_892" x1="16.0162" y1="115.375" x2="114.779" y2="115.375" gradientUnits="userSpaceOnUse">
<stop stop-color="#F58220" stop-opacity="0.8"/>
<stop offset="1" stop-color="#F58220" stop-opacity="0"/>
</linearGradient>
</defs>
</svg>
